G04 (created by PCBNEW (2013-07-07 BZR 4022)-stable) date 25/07/2014 8:42:33 PM*
%MOIN*%
G04 Gerber Fmt 3.4, Leading zero omitted, Abs format*
%FSLAX34Y34*%
G01*
G70*
G90*
G04 APERTURE LIST*
%ADD10C,0.00590551*%
%ADD11R,0.035X0.055*%
%ADD12R,0.055X0.035*%
%ADD13R,0.06X0.06*%
%ADD14C,0.0590551*%
%ADD15C,0.177165*%
%ADD16C,0.0393701*%
%ADD17C,0.0866142*%
%ADD18R,0.016X0.05*%
%ADD19C,0.06*%
%ADD20R,0.0236X0.0866*%
%ADD21C,0.15748*%
%ADD22C,0.137795*%
%ADD23R,0.0157X0.0787402*%
%ADD24R,0.0787402X0.0157*%
%ADD25C,0.0177165*%
%ADD26C,0.00984252*%
%ADD27C,0.00492126*%
%ADD28C,0.019685*%
%ADD29C,0.008*%
%ADD30C,0.0393701*%
G04 APERTURE END LIST*
G54D10*
G54D11*
X36821Y-18578D03*
X37571Y-18578D03*
G54D12*
X46618Y-16676D03*
X46618Y-17426D03*
X45909Y-16676D03*
X45909Y-17426D03*
X44578Y-16676D03*
X44578Y-17426D03*
X42456Y-18085D03*
X42456Y-18835D03*
G54D11*
X36298Y-17767D03*
X37048Y-17767D03*
X59979Y-16059D03*
X60729Y-16059D03*
G54D12*
X47645Y-16676D03*
X47645Y-17426D03*
G54D11*
X47225Y-15598D03*
X46475Y-15598D03*
X45441Y-15602D03*
X44691Y-15602D03*
X43682Y-15618D03*
X42932Y-15618D03*
G54D12*
X43811Y-16676D03*
X43811Y-17426D03*
X45357Y-13009D03*
X45357Y-13759D03*
X44437Y-13009D03*
X44437Y-13759D03*
X43447Y-13009D03*
X43447Y-13759D03*
X50913Y-23018D03*
X50913Y-23768D03*
X50066Y-23329D03*
X50066Y-24079D03*
G54D13*
X39374Y-39133D03*
X39358Y-40649D03*
G54D14*
X45836Y-10433D03*
X44935Y-10433D03*
X44033Y-10433D03*
X43131Y-10433D03*
X42230Y-10433D03*
X45385Y-11212D03*
X44484Y-11212D03*
X43582Y-11212D03*
X42681Y-11212D03*
X41779Y-11212D03*
X45385Y-9653D03*
X44484Y-9653D03*
X43582Y-9653D03*
X42681Y-9653D03*
X41779Y-9653D03*
G54D15*
X38624Y-10433D03*
X48541Y-10433D03*
G54D14*
X59655Y-10433D03*
X58753Y-10433D03*
X57852Y-10433D03*
X56950Y-10433D03*
X56049Y-10433D03*
X59204Y-11212D03*
X58303Y-11212D03*
X57401Y-11212D03*
X56500Y-11212D03*
X55598Y-11212D03*
X59204Y-9653D03*
X58303Y-9653D03*
X57401Y-9653D03*
X56500Y-9653D03*
X55598Y-9653D03*
G54D15*
X52442Y-10433D03*
X62360Y-10433D03*
G54D16*
X36043Y-31385D03*
X36043Y-30755D03*
X36043Y-30125D03*
X36043Y-29496D03*
X36043Y-28866D03*
X36043Y-28236D03*
X36043Y-27606D03*
X36043Y-26976D03*
X36043Y-26346D03*
X36043Y-32015D03*
X36043Y-32645D03*
X36043Y-33275D03*
X36043Y-33905D03*
X36043Y-34535D03*
X36043Y-35165D03*
X36043Y-35795D03*
X36043Y-36425D03*
X36496Y-36740D03*
X36496Y-36110D03*
X36496Y-35480D03*
X36496Y-34850D03*
X36496Y-34220D03*
X36496Y-33590D03*
X36496Y-32960D03*
X36496Y-32330D03*
X36496Y-26661D03*
X36496Y-27291D03*
X36496Y-27921D03*
X36496Y-28551D03*
X36496Y-29181D03*
X36496Y-29811D03*
X36496Y-30440D03*
X36496Y-31070D03*
X36496Y-31700D03*
X37421Y-31543D03*
X37421Y-30913D03*
X37421Y-30283D03*
X37421Y-29653D03*
X37421Y-29023D03*
X37421Y-28393D03*
X37421Y-27763D03*
X37421Y-27133D03*
X37421Y-26503D03*
X37421Y-32173D03*
X37421Y-32803D03*
X37421Y-33433D03*
X37421Y-34062D03*
X37421Y-34692D03*
X37421Y-35322D03*
X37421Y-35952D03*
X37421Y-36582D03*
X36968Y-36267D03*
X36968Y-35637D03*
X36968Y-35007D03*
X36968Y-34377D03*
X36968Y-33748D03*
X36968Y-33118D03*
X36968Y-32488D03*
X36968Y-31858D03*
X36968Y-26188D03*
X36968Y-26818D03*
X36968Y-27448D03*
X36968Y-28078D03*
X36968Y-28708D03*
X36968Y-29338D03*
X36968Y-29968D03*
X36968Y-30598D03*
X36968Y-31228D03*
G54D14*
X36496Y-25098D03*
G54D17*
X35464Y-23220D03*
X35464Y-39716D03*
G54D14*
X36496Y-37834D03*
G54D18*
X60095Y-15256D03*
X60350Y-15256D03*
X60610Y-15256D03*
X60865Y-15256D03*
X60865Y-13506D03*
X60610Y-13506D03*
X60350Y-13506D03*
X60095Y-13506D03*
X36544Y-16843D03*
X36799Y-16843D03*
X37059Y-16843D03*
X37314Y-16843D03*
X37314Y-15093D03*
X37059Y-15093D03*
X36799Y-15093D03*
X36544Y-15093D03*
G54D12*
X59200Y-13705D03*
X59200Y-12955D03*
X58303Y-14445D03*
X58303Y-13695D03*
G54D11*
X59621Y-16905D03*
X60371Y-16905D03*
X36376Y-14070D03*
X37126Y-14070D03*
X36376Y-13303D03*
X37126Y-13303D03*
G54D13*
X56799Y-39137D03*
X56811Y-40598D03*
X65074Y-13728D03*
X53452Y-25129D03*
X53326Y-17645D03*
X53433Y-26496D03*
X53433Y-27507D03*
X50051Y-29610D03*
X39578Y-18307D03*
X39578Y-17307D03*
X39578Y-16307D03*
X39578Y-19311D03*
X65141Y-12232D03*
X41271Y-13515D03*
G54D19*
X41271Y-14515D03*
X41271Y-15515D03*
X41271Y-16515D03*
X41271Y-17515D03*
X41271Y-18515D03*
G54D20*
X59116Y-28016D03*
X58616Y-28016D03*
X58116Y-28016D03*
X57616Y-28016D03*
X57616Y-30062D03*
X58116Y-30062D03*
X58616Y-30062D03*
X59116Y-30062D03*
G54D21*
X36188Y-8791D03*
X64622Y-8791D03*
X36200Y-41641D03*
X64661Y-41598D03*
G54D22*
X39354Y-42051D03*
G54D23*
X47903Y-18976D03*
X47647Y-18976D03*
X47391Y-18976D03*
X47135Y-18976D03*
X46879Y-18976D03*
X46623Y-18976D03*
X46367Y-18976D03*
X46111Y-18976D03*
X45855Y-18976D03*
X45599Y-18976D03*
X45345Y-18976D03*
X45089Y-18976D03*
X44833Y-18976D03*
X44577Y-18976D03*
X44321Y-18976D03*
X44065Y-18976D03*
X43809Y-18976D03*
X43553Y-18976D03*
X43297Y-18976D03*
X43041Y-18976D03*
G54D24*
X42322Y-19694D03*
X42322Y-19950D03*
X42322Y-20206D03*
X42322Y-20462D03*
X42322Y-20718D03*
X42322Y-20974D03*
X42322Y-21230D03*
X42322Y-21486D03*
X42322Y-21742D03*
X42322Y-21998D03*
X42322Y-22252D03*
X42322Y-22508D03*
X42322Y-22764D03*
X42322Y-23020D03*
X42322Y-23276D03*
X42322Y-23532D03*
X42322Y-23788D03*
X42322Y-24044D03*
X42322Y-24300D03*
X42322Y-24556D03*
G54D23*
X43041Y-25275D03*
X43297Y-25275D03*
X43553Y-25275D03*
X43809Y-25275D03*
X44065Y-25275D03*
X44321Y-25275D03*
X44577Y-25275D03*
X44833Y-25275D03*
X45089Y-25275D03*
X45345Y-25275D03*
X45599Y-25275D03*
X45855Y-25275D03*
X46111Y-25275D03*
X46367Y-25275D03*
X46623Y-25275D03*
X46879Y-25275D03*
X47135Y-25275D03*
X47391Y-25275D03*
X47647Y-25275D03*
X47903Y-25275D03*
G54D24*
X48622Y-24556D03*
X48622Y-24300D03*
X48622Y-24044D03*
X48622Y-23788D03*
X48622Y-23532D03*
X48622Y-23276D03*
X48622Y-23020D03*
X48622Y-22764D03*
X48622Y-22508D03*
X48622Y-22252D03*
X48622Y-21998D03*
X48622Y-21742D03*
X48622Y-21486D03*
X48622Y-21230D03*
X48622Y-20974D03*
X48622Y-20718D03*
X48622Y-20462D03*
X48622Y-20206D03*
X48622Y-19950D03*
X48622Y-19694D03*
G54D25*
X51598Y-11822D03*
X47188Y-33448D03*
X46606Y-33452D03*
X45240Y-33452D03*
X46444Y-21287D03*
X46444Y-21744D03*
X43429Y-20586D03*
X50622Y-12228D03*
X42669Y-33452D03*
X42669Y-32960D03*
X44043Y-27464D03*
X43653Y-27460D03*
X43220Y-27464D03*
X42862Y-27468D03*
X42433Y-27464D03*
X43413Y-20200D03*
X42066Y-25181D03*
X45346Y-20362D03*
X42925Y-14877D03*
X49358Y-19696D03*
X61338Y-15681D03*
X37681Y-16858D03*
X56925Y-27405D03*
X49622Y-21444D03*
X47409Y-22606D03*
X43169Y-16677D03*
X47645Y-23535D03*
X46114Y-26216D03*
X41405Y-21232D03*
X45968Y-15598D03*
X44196Y-15602D03*
X48740Y-19011D03*
X46370Y-19759D03*
X44322Y-19783D03*
X38318Y-16106D03*
X41539Y-20811D03*
X59661Y-29988D03*
X43562Y-23444D03*
X49535Y-23692D03*
X45854Y-24484D03*
X43212Y-20980D03*
X35850Y-37543D03*
X51598Y-27500D03*
X44492Y-10696D03*
X61984Y-19263D03*
X40614Y-13141D03*
X47677Y-19952D03*
X47818Y-21122D03*
X47811Y-20488D03*
X42673Y-26755D03*
X47901Y-18212D03*
X46881Y-18208D03*
X45854Y-18204D03*
X44834Y-18208D03*
X49618Y-11909D03*
X42043Y-27464D03*
X41645Y-25275D03*
X43188Y-20397D03*
X50082Y-20007D03*
G54D26*
X57401Y-11610D02*
X57401Y-11212D01*
X57200Y-11811D02*
X57401Y-11610D01*
X51610Y-11811D02*
X57200Y-11811D01*
G54D27*
X51598Y-11822D02*
X51610Y-11811D01*
G54D26*
X43447Y-13009D02*
X43447Y-11347D01*
G54D27*
X43447Y-11347D02*
X43582Y-11212D01*
X48622Y-24044D02*
X49202Y-24044D01*
X45759Y-35952D02*
X37421Y-35952D01*
X48661Y-33051D02*
X45759Y-35952D01*
X48661Y-26161D02*
X48661Y-33051D01*
X49606Y-25216D02*
X48661Y-26161D01*
X49606Y-24448D02*
X49606Y-25216D01*
X49202Y-24044D02*
X49606Y-24448D01*
X36968Y-35637D02*
X45641Y-35637D01*
X45641Y-35637D02*
X45649Y-35629D01*
X48622Y-24300D02*
X49143Y-24300D01*
X48405Y-32874D02*
X45649Y-35629D01*
X48405Y-26141D02*
X48405Y-32874D01*
X49389Y-25157D02*
X48405Y-26141D01*
X49389Y-24547D02*
X49389Y-25157D01*
X49143Y-24300D02*
X49389Y-24547D01*
X48149Y-32244D02*
X48149Y-32488D01*
X48149Y-32244D02*
X48149Y-25314D01*
X48149Y-25314D02*
X48622Y-24842D01*
X48622Y-24556D02*
X48622Y-24842D01*
X48149Y-32488D02*
X47188Y-33448D01*
X47903Y-25275D02*
X47903Y-32155D01*
X47903Y-32155D02*
X46606Y-33452D01*
X47647Y-25275D02*
X47647Y-32084D01*
X44724Y-35007D02*
X36968Y-35007D01*
X47647Y-32084D02*
X44724Y-35007D01*
X47391Y-25275D02*
X47391Y-31939D01*
X44637Y-34692D02*
X37421Y-34692D01*
X47391Y-31939D02*
X44637Y-34692D01*
X47135Y-25275D02*
X47135Y-31557D01*
X47135Y-31557D02*
X45240Y-33452D01*
X46879Y-25275D02*
X46879Y-31085D01*
X36657Y-34059D02*
X36496Y-34220D01*
X37039Y-34059D02*
X36657Y-34059D01*
X37192Y-34212D02*
X37039Y-34059D01*
X37192Y-34220D02*
X37192Y-34212D01*
X37204Y-34232D02*
X37192Y-34220D01*
X37204Y-34240D02*
X37204Y-34232D01*
X37338Y-34374D02*
X37204Y-34240D01*
X43590Y-34374D02*
X37338Y-34374D01*
X46879Y-31085D02*
X43590Y-34374D01*
X46623Y-25275D02*
X46623Y-30774D01*
X43334Y-34062D02*
X37421Y-34062D01*
X46623Y-30774D02*
X43334Y-34062D01*
X46367Y-25275D02*
X46367Y-30325D01*
X42944Y-33748D02*
X36968Y-33748D01*
X46367Y-30325D02*
X42944Y-33748D01*
G54D26*
X47723Y-21486D02*
X46809Y-21486D01*
X48622Y-21486D02*
X47723Y-21486D01*
X46610Y-21287D02*
X46444Y-21287D01*
X46809Y-21486D02*
X46610Y-21287D01*
X47551Y-21742D02*
X46445Y-21742D01*
X46445Y-21742D02*
X46444Y-21744D01*
X48622Y-21742D02*
X47551Y-21742D01*
X47551Y-21742D02*
X47556Y-21742D01*
G54D27*
X42322Y-20718D02*
X43296Y-20718D01*
X43296Y-20718D02*
X43429Y-20586D01*
X41909Y-25681D02*
X41854Y-25736D01*
X43297Y-20718D02*
X43846Y-21267D01*
X43846Y-21267D02*
X43846Y-23744D01*
X43846Y-23744D02*
X41909Y-25681D01*
X42322Y-20718D02*
X43297Y-20718D01*
X36669Y-30755D02*
X36043Y-30755D01*
X36822Y-30909D02*
X36669Y-30755D01*
X37043Y-30909D02*
X36822Y-30909D01*
X37188Y-31055D02*
X37043Y-30909D01*
X37188Y-31066D02*
X37188Y-31055D01*
X37208Y-31086D02*
X37188Y-31066D01*
X37208Y-31098D02*
X37208Y-31086D01*
X37338Y-31228D02*
X37208Y-31098D01*
X41059Y-31228D02*
X37338Y-31228D01*
X41692Y-30594D02*
X41059Y-31228D01*
X41692Y-25897D02*
X41692Y-30594D01*
X41791Y-25799D02*
X41692Y-25897D01*
X41854Y-25736D02*
X41791Y-25799D01*
G54D26*
X58303Y-11759D02*
X58303Y-11212D01*
X57822Y-12240D02*
X58303Y-11759D01*
X50633Y-12240D02*
X57822Y-12240D01*
G54D27*
X50622Y-12228D02*
X50633Y-12240D01*
G54D26*
X44437Y-13009D02*
X44437Y-11258D01*
G54D27*
X44437Y-11258D02*
X44484Y-11212D01*
X45599Y-25275D02*
X45599Y-30522D01*
X45599Y-30522D02*
X42669Y-33452D01*
X45345Y-25275D02*
X45345Y-30284D01*
X45345Y-30284D02*
X42669Y-32960D01*
X45089Y-25275D02*
X45089Y-29753D01*
X41724Y-33118D02*
X36968Y-33118D01*
X45089Y-29753D02*
X41724Y-33118D01*
X44833Y-25275D02*
X44833Y-29611D01*
X41641Y-32803D02*
X37421Y-32803D01*
X44833Y-29611D02*
X41641Y-32803D01*
X44577Y-25275D02*
X44577Y-29351D01*
X36653Y-32173D02*
X36496Y-32330D01*
X37043Y-32173D02*
X36653Y-32173D01*
X37181Y-32311D02*
X37043Y-32173D01*
X37181Y-32314D02*
X37181Y-32311D01*
X37192Y-32326D02*
X37181Y-32314D01*
X37192Y-32330D02*
X37192Y-32326D01*
X37350Y-32488D02*
X37192Y-32330D01*
X41440Y-32488D02*
X37350Y-32488D01*
X44577Y-29351D02*
X41440Y-32488D01*
X44321Y-25275D02*
X44321Y-27186D01*
X44321Y-27186D02*
X44043Y-27464D01*
X44065Y-25275D02*
X44065Y-27048D01*
X44065Y-27048D02*
X43653Y-27460D01*
X43809Y-25275D02*
X43809Y-26875D01*
X43809Y-26875D02*
X43220Y-27464D01*
X43553Y-25275D02*
X43553Y-26777D01*
X43553Y-26777D02*
X42862Y-27468D01*
X43297Y-25275D02*
X43297Y-26600D01*
X43297Y-26600D02*
X42433Y-27464D01*
X42322Y-20206D02*
X43407Y-20206D01*
X43407Y-20206D02*
X43413Y-20200D01*
X42322Y-20206D02*
X41564Y-20206D01*
X37822Y-26818D02*
X36968Y-26818D01*
X38129Y-26511D02*
X37822Y-26818D01*
X38129Y-23641D02*
X38129Y-26511D01*
X41564Y-20206D02*
X38129Y-23641D01*
G54D26*
X46338Y-8881D02*
X56629Y-8881D01*
X56629Y-8881D02*
X57401Y-9653D01*
G54D27*
X43582Y-9653D02*
X43582Y-9547D01*
G54D26*
X49943Y-22252D02*
X48622Y-22252D01*
X50968Y-21228D02*
X49943Y-22252D01*
X50968Y-17157D02*
X50968Y-21228D01*
X47354Y-13543D02*
X50968Y-17157D01*
X47354Y-9897D02*
X47354Y-13543D01*
X46338Y-8881D02*
X47354Y-9897D01*
X44248Y-8881D02*
X46338Y-8881D01*
X43582Y-9547D02*
X44248Y-8881D01*
G54D28*
X42322Y-24405D02*
X42322Y-24925D01*
X42322Y-24925D02*
X42066Y-25181D01*
G54D26*
X45345Y-18976D02*
X45345Y-20361D01*
X45345Y-20361D02*
X45346Y-20362D01*
X42932Y-15618D02*
X42932Y-14884D01*
X42932Y-14884D02*
X42925Y-14877D01*
G54D28*
X49356Y-19694D02*
X49358Y-19696D01*
X48622Y-19694D02*
X49356Y-19694D01*
G54D26*
X60865Y-15256D02*
X60914Y-15256D01*
X60914Y-15256D02*
X61338Y-15681D01*
X37314Y-16843D02*
X37666Y-16843D01*
G54D29*
X37666Y-16843D02*
X37681Y-16858D01*
G54D27*
X57616Y-28016D02*
X57536Y-28016D01*
G54D26*
X57536Y-28016D02*
X56925Y-27405D01*
X58616Y-30062D02*
X58616Y-28016D01*
X58616Y-28016D02*
X59116Y-28016D01*
X58116Y-28016D02*
X58616Y-28016D01*
X57616Y-28016D02*
X58116Y-28016D01*
X49437Y-20685D02*
X49503Y-20685D01*
X49622Y-20803D02*
X49622Y-21444D01*
X49503Y-20685D02*
X49622Y-20803D01*
X48622Y-20974D02*
X49206Y-20974D01*
X49214Y-20462D02*
X49437Y-20685D01*
X49437Y-20685D02*
X49437Y-20744D01*
X49214Y-20462D02*
X48622Y-20462D01*
X49206Y-20974D02*
X49437Y-20744D01*
G54D28*
X48622Y-22610D02*
X47417Y-22614D01*
X47417Y-22614D02*
X47409Y-22606D01*
X48622Y-22508D02*
X48622Y-22610D01*
X48622Y-22610D02*
X48622Y-22764D01*
X43811Y-16676D02*
X43170Y-16676D01*
X43170Y-16676D02*
X43169Y-16677D01*
X48622Y-23532D02*
X47648Y-23532D01*
X47648Y-23532D02*
X47645Y-23535D01*
X46111Y-25275D02*
X46111Y-26213D01*
X46111Y-26213D02*
X46114Y-26216D01*
X42322Y-24300D02*
X42322Y-24405D01*
X42322Y-24405D02*
X42322Y-24556D01*
X42322Y-21230D02*
X41406Y-21230D01*
X41406Y-21230D02*
X41405Y-21232D01*
X46475Y-15598D02*
X45968Y-15598D01*
X44691Y-15602D02*
X44196Y-15602D01*
X48622Y-19694D02*
X48622Y-19129D01*
X48622Y-19129D02*
X48740Y-19011D01*
X47391Y-18976D02*
X47391Y-19442D01*
X48556Y-19629D02*
X48622Y-19694D01*
X47578Y-19629D02*
X48556Y-19629D01*
X47391Y-19442D02*
X47578Y-19629D01*
X46367Y-18976D02*
X46367Y-19757D01*
X46367Y-19757D02*
X46370Y-19759D01*
X44321Y-18976D02*
X44321Y-19782D01*
X44321Y-19782D02*
X44322Y-19783D01*
G54D26*
X36496Y-35480D02*
X36547Y-35480D01*
X36704Y-35322D02*
X37421Y-35322D01*
X36547Y-35480D02*
X36704Y-35322D01*
X36496Y-33590D02*
X36653Y-33433D01*
X36653Y-33433D02*
X37421Y-33433D01*
X36496Y-30440D02*
X36496Y-30437D01*
X36649Y-30283D02*
X37421Y-30283D01*
X36496Y-30437D02*
X36649Y-30283D01*
X36496Y-28551D02*
X36527Y-28551D01*
X36685Y-28393D02*
X37421Y-28393D01*
X36527Y-28551D02*
X36685Y-28393D01*
X40665Y-18405D02*
X40665Y-16137D01*
X40665Y-18405D02*
X40775Y-18515D01*
X41271Y-18515D02*
X40775Y-18515D01*
X39933Y-15405D02*
X38318Y-15405D01*
X40665Y-16137D02*
X39933Y-15405D01*
G54D28*
X43562Y-23444D02*
X43562Y-21330D01*
X43562Y-21330D02*
X43212Y-20980D01*
G54D26*
X42322Y-20974D02*
X41703Y-20974D01*
X38318Y-15405D02*
X38311Y-15413D01*
X38318Y-15582D02*
X38318Y-15405D01*
X38318Y-15905D02*
X38318Y-15582D01*
X38318Y-16106D02*
X38318Y-15905D01*
X41703Y-20974D02*
X41539Y-20811D01*
X37972Y-15751D02*
X38311Y-15413D01*
X36544Y-16843D02*
X36544Y-16365D01*
X37755Y-15968D02*
X37972Y-15751D01*
X36940Y-15968D02*
X37755Y-15968D01*
X36544Y-16365D02*
X36940Y-15968D01*
X36298Y-17767D02*
X36298Y-17089D01*
X36298Y-17089D02*
X36544Y-16843D01*
X36298Y-17767D02*
X36298Y-18055D01*
X36298Y-18055D02*
X36821Y-18578D01*
X36550Y-16849D02*
X36544Y-16843D01*
X59621Y-16905D02*
X59621Y-29947D01*
G54D27*
X59621Y-29947D02*
X59661Y-29988D01*
G54D26*
X59587Y-30062D02*
X59116Y-30062D01*
G54D27*
X59661Y-29988D02*
X59587Y-30062D01*
X59979Y-16059D02*
X59976Y-16059D01*
G54D26*
X59621Y-16414D02*
X59621Y-16905D01*
X59976Y-16059D02*
X59621Y-16414D01*
X60095Y-15256D02*
X60095Y-15943D01*
G54D27*
X60095Y-15943D02*
X59979Y-16059D01*
G54D28*
X50051Y-29610D02*
X50051Y-24095D01*
X50051Y-24095D02*
X50066Y-24079D01*
X45854Y-24484D02*
X45854Y-24440D01*
X46506Y-23788D02*
X48622Y-23788D01*
X45854Y-24440D02*
X46506Y-23788D01*
X43389Y-23444D02*
X43562Y-23444D01*
X42322Y-24044D02*
X42789Y-24044D01*
X42789Y-24044D02*
X43389Y-23444D01*
X49568Y-23726D02*
X49568Y-23872D01*
X49535Y-23692D02*
X49568Y-23726D01*
X50066Y-24079D02*
X50602Y-24079D01*
X50602Y-24079D02*
X50913Y-23768D01*
X48622Y-23788D02*
X49485Y-23788D01*
X49485Y-23788D02*
X49568Y-23872D01*
X49776Y-24079D02*
X50066Y-24079D01*
X49568Y-23872D02*
X49776Y-24079D01*
X45855Y-25275D02*
X45855Y-24485D01*
X45855Y-24485D02*
X45854Y-24484D01*
X42322Y-20974D02*
X43207Y-20974D01*
X43207Y-20974D02*
X43212Y-20980D01*
G54D27*
X56846Y-28334D02*
X56846Y-28196D01*
X56846Y-28334D02*
X56846Y-28818D01*
X56846Y-28818D02*
X57133Y-29106D01*
X57133Y-29106D02*
X57862Y-29106D01*
X57862Y-29106D02*
X58116Y-29360D01*
X58116Y-30062D02*
X58116Y-29360D01*
X55145Y-26496D02*
X53433Y-26496D01*
X56846Y-28196D02*
X55145Y-26496D01*
X52216Y-26496D02*
X52259Y-26496D01*
X52259Y-26496D02*
X53433Y-26496D01*
X52216Y-27125D02*
X52216Y-31141D01*
X36736Y-36980D02*
X36496Y-36740D01*
X46377Y-36980D02*
X36736Y-36980D01*
X52216Y-31141D02*
X46377Y-36980D01*
X50913Y-23018D02*
X51459Y-23018D01*
X52216Y-23775D02*
X52216Y-26496D01*
X52216Y-26496D02*
X52216Y-26523D01*
X52216Y-26523D02*
X52216Y-27125D01*
X52216Y-27125D02*
X52216Y-27133D01*
X51459Y-23018D02*
X52216Y-23775D01*
X48622Y-23020D02*
X49368Y-23020D01*
X50913Y-22822D02*
X50913Y-23018D01*
X50779Y-22688D02*
X50913Y-22822D01*
X49700Y-22688D02*
X50779Y-22688D01*
X49368Y-23020D02*
X49700Y-22688D01*
G54D26*
X37677Y-13295D02*
X37134Y-13295D01*
X37134Y-13295D02*
X37126Y-13303D01*
X36799Y-15093D02*
X36799Y-14688D01*
X36799Y-14688D02*
X36751Y-14641D01*
X36751Y-14641D02*
X36751Y-13456D01*
X36905Y-13303D02*
X37126Y-13303D01*
X36905Y-13303D02*
X36751Y-13456D01*
G54D27*
X37126Y-13303D02*
X37019Y-13303D01*
G54D26*
X39374Y-12059D02*
X41779Y-9653D01*
X38913Y-12059D02*
X39374Y-12059D01*
G54D27*
X37669Y-13303D02*
X37677Y-13295D01*
G54D26*
X37677Y-13295D02*
X38913Y-12059D01*
X36799Y-16843D02*
X36799Y-17518D01*
X36799Y-17518D02*
X37048Y-17767D01*
G54D27*
X36598Y-20011D02*
X36598Y-19748D01*
X36023Y-26976D02*
X35618Y-26570D01*
X35618Y-26570D02*
X35618Y-24574D01*
X35618Y-24574D02*
X36598Y-23594D01*
X36598Y-23594D02*
X36598Y-20011D01*
X36043Y-26976D02*
X36023Y-26976D01*
X37196Y-17916D02*
X37048Y-17767D01*
X37196Y-19149D02*
X37196Y-17916D01*
X36598Y-19748D02*
X37196Y-19149D01*
X58303Y-13695D02*
X58303Y-13610D01*
G54D26*
X60350Y-13157D02*
X60350Y-13506D01*
X60220Y-13027D02*
X60350Y-13157D01*
X59937Y-13027D02*
X60220Y-13027D01*
X59614Y-13350D02*
X59937Y-13027D01*
X58562Y-13350D02*
X59614Y-13350D01*
X58303Y-13610D02*
X58562Y-13350D01*
X51834Y-13506D02*
X58114Y-13506D01*
X58114Y-13506D02*
X58303Y-13695D01*
G54D27*
X51818Y-13506D02*
X51834Y-13506D01*
G54D26*
X51834Y-13506D02*
X49806Y-13506D01*
X55185Y-9240D02*
X55598Y-9653D01*
X51098Y-9240D02*
X55185Y-9240D01*
X50559Y-9779D02*
X51098Y-9240D01*
X50559Y-10901D02*
X50559Y-9779D01*
X50157Y-11303D02*
X50559Y-10901D01*
X49401Y-11303D02*
X50157Y-11303D01*
X48881Y-11822D02*
X49401Y-11303D01*
X48881Y-12582D02*
X48881Y-11822D01*
X49806Y-13506D02*
X48881Y-12582D01*
G54D27*
X57681Y-37271D02*
X57940Y-37011D01*
X61688Y-15468D02*
X60948Y-14728D01*
X60948Y-14728D02*
X60444Y-14728D01*
X60444Y-14728D02*
X60350Y-14822D01*
X60350Y-15256D02*
X60350Y-14822D01*
X61688Y-33271D02*
X61688Y-18223D01*
X61688Y-18223D02*
X61688Y-15468D01*
X35850Y-37543D02*
X35834Y-37559D01*
X35834Y-37559D02*
X35834Y-37846D01*
X35834Y-37846D02*
X35960Y-37972D01*
X57283Y-37669D02*
X57681Y-37271D01*
X39102Y-37669D02*
X57283Y-37669D01*
X38062Y-38708D02*
X39102Y-37669D01*
X36696Y-38708D02*
X38062Y-38708D01*
X35960Y-37972D02*
X36696Y-38708D01*
X61503Y-33456D02*
X61688Y-33271D01*
X61496Y-33456D02*
X61503Y-33456D01*
X60535Y-34417D02*
X61496Y-33456D01*
X58948Y-36003D02*
X60535Y-34417D01*
X57940Y-37011D02*
X58948Y-36003D01*
G54D26*
X60350Y-15256D02*
X60350Y-16884D01*
G54D27*
X60350Y-16884D02*
X60371Y-16905D01*
X57616Y-30062D02*
X57475Y-30062D01*
X56452Y-28346D02*
X55614Y-27507D01*
X55614Y-27507D02*
X53433Y-27507D01*
X56452Y-29039D02*
X57003Y-29590D01*
X56452Y-28535D02*
X56452Y-29039D01*
X56452Y-28535D02*
X56452Y-28346D01*
X57475Y-30062D02*
X57003Y-29590D01*
X51842Y-27500D02*
X51870Y-27500D01*
X51870Y-27496D02*
X51870Y-27500D01*
X51598Y-27500D02*
X51842Y-27500D01*
X51870Y-27106D02*
X51870Y-27448D01*
X51870Y-27448D02*
X51870Y-27496D01*
X51870Y-27496D02*
X51870Y-30972D01*
X50439Y-23329D02*
X50503Y-23393D01*
X50503Y-23393D02*
X51389Y-23393D01*
X51389Y-23393D02*
X51870Y-23874D01*
X51870Y-23874D02*
X51870Y-27106D01*
X50066Y-23329D02*
X50439Y-23329D01*
X46259Y-36582D02*
X37421Y-36582D01*
X51870Y-30972D02*
X46259Y-36582D01*
X48622Y-23276D02*
X50014Y-23276D01*
X50014Y-23276D02*
X50066Y-23329D01*
G54D26*
X37126Y-14070D02*
X37330Y-14070D01*
X37330Y-14070D02*
X38992Y-12409D01*
X37059Y-15093D02*
X37059Y-14138D01*
X37059Y-14138D02*
X37126Y-14070D01*
G54D27*
X36961Y-14235D02*
X37126Y-14070D01*
X37126Y-14070D02*
X37307Y-14070D01*
G54D26*
X38992Y-12409D02*
X39472Y-12409D01*
X39472Y-12409D02*
X41086Y-10795D01*
X41086Y-10795D02*
X41996Y-10795D01*
X41996Y-10795D02*
X42098Y-10897D01*
X42098Y-10897D02*
X42377Y-10897D01*
X42377Y-10897D02*
X42555Y-10720D01*
X42555Y-10720D02*
X42811Y-10720D01*
X42811Y-10720D02*
X42988Y-10897D01*
X42988Y-10897D02*
X43303Y-10897D01*
X43303Y-10897D02*
X43472Y-10728D01*
X43472Y-10728D02*
X43716Y-10728D01*
X43716Y-10728D02*
X43874Y-10885D01*
X43874Y-10885D02*
X44220Y-10885D01*
X44220Y-10885D02*
X44409Y-10696D01*
X44409Y-10696D02*
X44492Y-10696D01*
G54D27*
X38968Y-12409D02*
X38992Y-12409D01*
G54D26*
X37059Y-16843D02*
X37059Y-17133D01*
X37571Y-17375D02*
X37571Y-18578D01*
X37484Y-17287D02*
X37571Y-17375D01*
X37212Y-17287D02*
X37484Y-17287D01*
X37059Y-17133D02*
X37212Y-17287D01*
G54D27*
X37271Y-25125D02*
X37271Y-19787D01*
X36043Y-26346D02*
X36051Y-26346D01*
X36051Y-26346D02*
X36681Y-25716D01*
X36681Y-25716D02*
X37039Y-25358D01*
X37039Y-25358D02*
X37271Y-25125D01*
X37571Y-19487D02*
X37571Y-18578D01*
X37271Y-19787D02*
X37571Y-19487D01*
X59200Y-12955D02*
X59221Y-12955D01*
G54D26*
X59897Y-12279D02*
X60358Y-12279D01*
X59221Y-12955D02*
X59897Y-12279D01*
G54D27*
X60606Y-13165D02*
X60606Y-13502D01*
X60606Y-13502D02*
X60610Y-13506D01*
G54D26*
X60358Y-11299D02*
X60358Y-12279D01*
X60606Y-12527D02*
X60606Y-13165D01*
G54D27*
X60606Y-13165D02*
X60606Y-13160D01*
G54D26*
X60358Y-12279D02*
X60606Y-12527D01*
X58303Y-9314D02*
X58303Y-9653D01*
X58677Y-8940D02*
X58303Y-9314D01*
X59881Y-8940D02*
X58677Y-8940D01*
X60358Y-9417D02*
X59881Y-8940D01*
G54D27*
X60358Y-11295D02*
X60358Y-11299D01*
G54D26*
X60358Y-11299D02*
X60358Y-9417D01*
G54D27*
X61271Y-33078D02*
X61318Y-33031D01*
X36212Y-37157D02*
X36259Y-37204D01*
X36496Y-36346D02*
X36283Y-36559D01*
X36283Y-36559D02*
X36283Y-36566D01*
X36283Y-36566D02*
X36259Y-36590D01*
X36259Y-36590D02*
X36259Y-36598D01*
X36259Y-36598D02*
X36027Y-36830D01*
X36027Y-36830D02*
X36027Y-36972D01*
X36027Y-36972D02*
X36212Y-37157D01*
X61318Y-18492D02*
X61318Y-33031D01*
X36496Y-36346D02*
X36496Y-36110D01*
X57145Y-37204D02*
X61271Y-33078D01*
X36259Y-37204D02*
X57145Y-37204D01*
X61318Y-18492D02*
X61318Y-16648D01*
X61318Y-16648D02*
X60729Y-16059D01*
X61318Y-18492D02*
X61318Y-18484D01*
G54D26*
X60610Y-15256D02*
X60610Y-15940D01*
G54D27*
X60610Y-15940D02*
X60729Y-16059D01*
G54D26*
X36376Y-14070D02*
X36376Y-14926D01*
X36376Y-14926D02*
X36544Y-15093D01*
X35751Y-13928D02*
X36376Y-13303D01*
X35751Y-19712D02*
X35751Y-13928D01*
X36206Y-20167D02*
X35751Y-19712D01*
X36206Y-23513D02*
X36206Y-20167D01*
X36206Y-23513D02*
X36208Y-23511D01*
X36208Y-13471D02*
X36376Y-13303D01*
X36376Y-13303D02*
X36376Y-14070D01*
X36043Y-31385D02*
X35740Y-31385D01*
X35287Y-24433D02*
X36206Y-23513D01*
X35287Y-30933D02*
X35287Y-24433D01*
X35740Y-31385D02*
X35287Y-30933D01*
X60095Y-13945D02*
X60095Y-13506D01*
X60429Y-14279D02*
X60095Y-13945D01*
X60771Y-14279D02*
X60429Y-14279D01*
X61996Y-15503D02*
X60771Y-14279D01*
X61996Y-19251D02*
X61996Y-15503D01*
G54D27*
X61984Y-19263D02*
X61996Y-19251D01*
G54D26*
X59200Y-13705D02*
X59896Y-13705D01*
X59896Y-13705D02*
X60095Y-13506D01*
G54D27*
X58303Y-14445D02*
X58460Y-14445D01*
G54D26*
X58460Y-14445D02*
X59200Y-13705D01*
G54D30*
X39374Y-39133D02*
X56795Y-39133D01*
G54D28*
X56795Y-39133D02*
X56799Y-39137D01*
X37421Y-31543D02*
X37283Y-31543D01*
X37283Y-31543D02*
X36968Y-31228D01*
X36968Y-31228D02*
X36496Y-31700D01*
G54D30*
X36496Y-31700D02*
X36452Y-31700D01*
X36137Y-31385D02*
X36043Y-31385D01*
X36452Y-31700D02*
X36137Y-31385D01*
X36043Y-31385D02*
X35748Y-31385D01*
X36362Y-39133D02*
X39374Y-39133D01*
X35397Y-38169D02*
X36362Y-39133D01*
X35397Y-31736D02*
X35397Y-38169D01*
X35748Y-31385D02*
X35397Y-31736D01*
G54D27*
X42322Y-19694D02*
X42322Y-19543D01*
X41685Y-13515D02*
X41271Y-13515D01*
X41909Y-13740D02*
X41685Y-13515D01*
X41909Y-19129D02*
X41909Y-13740D01*
X42322Y-19543D02*
X41909Y-19129D01*
G54D26*
X43071Y-17426D02*
X43811Y-17426D01*
X42358Y-16712D02*
X43071Y-17426D01*
X42358Y-13007D02*
X42358Y-16712D01*
X41866Y-12515D02*
X42358Y-13007D01*
X40933Y-12515D02*
X41866Y-12515D01*
X40625Y-12822D02*
X40933Y-12515D01*
X40625Y-13129D02*
X40625Y-12822D01*
X40614Y-13141D02*
X40625Y-13129D01*
X43811Y-17426D02*
X43811Y-18974D01*
G54D27*
X43811Y-18974D02*
X43809Y-18976D01*
G54D28*
X48622Y-19950D02*
X47678Y-19950D01*
X47678Y-19950D02*
X47677Y-19952D01*
X48622Y-21230D02*
X47927Y-21230D01*
X47927Y-21230D02*
X47818Y-21122D01*
X48622Y-20718D02*
X48041Y-20718D01*
X48041Y-20718D02*
X47811Y-20488D01*
X43041Y-25275D02*
X43041Y-24805D01*
X44833Y-23013D02*
X44833Y-18976D01*
X43041Y-24805D02*
X44833Y-23013D01*
X43041Y-25275D02*
X43041Y-26387D01*
X43041Y-26387D02*
X42673Y-26755D01*
X47903Y-18976D02*
X47903Y-18214D01*
X47903Y-18214D02*
X47901Y-18212D01*
X47903Y-18214D02*
X47901Y-18212D01*
X46879Y-18976D02*
X46879Y-18211D01*
X46879Y-18211D02*
X46881Y-18208D01*
X45855Y-18976D02*
X45855Y-18205D01*
X45855Y-18205D02*
X45854Y-18204D01*
X44833Y-18976D02*
X44833Y-18209D01*
X44833Y-18209D02*
X44834Y-18208D01*
G54D27*
X49618Y-11909D02*
X49641Y-11909D01*
G54D26*
X59204Y-11566D02*
X59204Y-11212D01*
X58248Y-12523D02*
X59204Y-11566D01*
X50255Y-12523D02*
X58248Y-12523D01*
X49641Y-11909D02*
X50255Y-12523D01*
G54D27*
X49618Y-11909D02*
X49665Y-11909D01*
G54D26*
X45357Y-13009D02*
X45357Y-11240D01*
G54D27*
X45357Y-11240D02*
X45385Y-11212D01*
X41649Y-31877D02*
X41354Y-32173D01*
X37421Y-32173D02*
X41354Y-32173D01*
X41657Y-25263D02*
X41645Y-25275D01*
X41657Y-25263D02*
X41657Y-23834D01*
X42043Y-31484D02*
X41649Y-31877D01*
X42043Y-31480D02*
X42043Y-31484D01*
X42043Y-31456D02*
X42043Y-31480D01*
X42043Y-31255D02*
X42043Y-31456D01*
X42043Y-30019D02*
X42043Y-31255D01*
X42043Y-29114D02*
X42043Y-30019D01*
X42043Y-28039D02*
X42043Y-29114D01*
X42043Y-27464D02*
X42043Y-28039D01*
X42322Y-23788D02*
X41703Y-23788D01*
X41703Y-23788D02*
X41657Y-23834D01*
X41657Y-23834D02*
X41649Y-23842D01*
X42322Y-23532D02*
X41750Y-23532D01*
X41000Y-30598D02*
X36968Y-30598D01*
X41476Y-30122D02*
X41000Y-30598D01*
X41476Y-23807D02*
X41476Y-30122D01*
X41750Y-23532D02*
X41476Y-23807D01*
X42322Y-23276D02*
X41758Y-23276D01*
X40787Y-29968D02*
X36968Y-29968D01*
X41251Y-29503D02*
X40787Y-29968D01*
X41251Y-23783D02*
X41251Y-29503D01*
X41758Y-23276D02*
X41251Y-23783D01*
X42322Y-23020D02*
X41786Y-23020D01*
X40606Y-29653D02*
X37421Y-29653D01*
X41023Y-29236D02*
X40606Y-29653D01*
X41023Y-23783D02*
X41023Y-29236D01*
X41786Y-23020D02*
X41023Y-23783D01*
X42322Y-22764D02*
X41774Y-22764D01*
X36645Y-29031D02*
X36496Y-29181D01*
X37051Y-29031D02*
X36645Y-29031D01*
X37185Y-29165D02*
X37051Y-29031D01*
X37185Y-29173D02*
X37185Y-29165D01*
X37208Y-29196D02*
X37185Y-29173D01*
X37208Y-29204D02*
X37208Y-29196D01*
X37342Y-29338D02*
X37208Y-29204D01*
X40181Y-29338D02*
X37342Y-29338D01*
X40720Y-28799D02*
X40181Y-29338D01*
X40720Y-23818D02*
X40720Y-28799D01*
X41774Y-22764D02*
X40720Y-23818D01*
X42322Y-22508D02*
X41786Y-22508D01*
X39826Y-29023D02*
X37421Y-29023D01*
X40468Y-28381D02*
X39826Y-29023D01*
X40468Y-23826D02*
X40468Y-28381D01*
X41786Y-22508D02*
X40468Y-23826D01*
X42322Y-22252D02*
X41747Y-22252D01*
X39602Y-28708D02*
X36968Y-28708D01*
X40153Y-28157D02*
X39602Y-28708D01*
X40153Y-23846D02*
X40153Y-28157D01*
X41747Y-22252D02*
X40153Y-23846D01*
X42322Y-21998D02*
X41701Y-21998D01*
X39527Y-28078D02*
X36968Y-28078D01*
X39854Y-27751D02*
X39527Y-28078D01*
X39854Y-23846D02*
X39854Y-27751D01*
X41701Y-21998D02*
X39854Y-23846D01*
X42322Y-21742D02*
X41650Y-21742D01*
X39279Y-27763D02*
X37421Y-27763D01*
X39598Y-27444D02*
X39279Y-27763D01*
X39598Y-23795D02*
X39598Y-27444D01*
X41650Y-21742D02*
X39598Y-23795D01*
X42322Y-21486D02*
X41556Y-21486D01*
X36633Y-27153D02*
X36496Y-27291D01*
X37066Y-27153D02*
X36633Y-27153D01*
X37177Y-27263D02*
X37066Y-27153D01*
X37177Y-27271D02*
X37177Y-27263D01*
X37188Y-27283D02*
X37177Y-27271D01*
X37188Y-27287D02*
X37188Y-27283D01*
X37204Y-27303D02*
X37188Y-27287D01*
X37204Y-27311D02*
X37204Y-27303D01*
X37330Y-27437D02*
X37204Y-27311D01*
X38952Y-27437D02*
X37330Y-27437D01*
X39271Y-27118D02*
X38952Y-27437D01*
X39271Y-23771D02*
X39271Y-27118D01*
X41556Y-21486D02*
X39271Y-23771D01*
X42322Y-20462D02*
X43123Y-20462D01*
X43123Y-20462D02*
X43188Y-20397D01*
X42322Y-20462D02*
X41576Y-20462D01*
X37956Y-27133D02*
X37421Y-27133D01*
X38338Y-26751D02*
X37956Y-27133D01*
X38338Y-23700D02*
X38338Y-26751D01*
X41576Y-20462D02*
X38338Y-23700D01*
X42322Y-19950D02*
X41517Y-19950D01*
X41517Y-19950D02*
X40318Y-18751D01*
X40318Y-18751D02*
X40318Y-16559D01*
X40318Y-16559D02*
X40066Y-16307D01*
X40066Y-16307D02*
X39578Y-16307D01*
X42322Y-19950D02*
X41521Y-19950D01*
X37590Y-26188D02*
X36968Y-26188D01*
X37964Y-25814D02*
X37590Y-26188D01*
X37964Y-23507D02*
X37964Y-25814D01*
X41521Y-19950D02*
X37964Y-23507D01*
X42681Y-9653D02*
X42681Y-9511D01*
X56732Y-9653D02*
X56500Y-9653D01*
G54D26*
X57181Y-10102D02*
X56732Y-9653D01*
X57559Y-10102D02*
X57181Y-10102D01*
X57862Y-9799D02*
X57559Y-10102D01*
X57862Y-9492D02*
X57862Y-9799D01*
X57035Y-8665D02*
X57862Y-9492D01*
X43527Y-8665D02*
X57035Y-8665D01*
X42681Y-9511D02*
X43527Y-8665D01*
X48622Y-21998D02*
X49654Y-21998D01*
G54D27*
X42940Y-9653D02*
X42681Y-9653D01*
G54D26*
X43413Y-10125D02*
X42940Y-9653D01*
X43716Y-10125D02*
X43413Y-10125D01*
X43838Y-10003D02*
X43716Y-10125D01*
X44192Y-10003D02*
X43838Y-10003D01*
X44318Y-10129D02*
X44192Y-10003D01*
X44614Y-10129D02*
X44318Y-10129D01*
X44799Y-9944D02*
X44614Y-10129D01*
X45031Y-9944D02*
X44799Y-9944D01*
X45200Y-10114D02*
X45031Y-9944D01*
X45511Y-10114D02*
X45200Y-10114D01*
X45645Y-9980D02*
X45511Y-10114D01*
X46401Y-9980D02*
X45645Y-9980D01*
X46874Y-10452D02*
X46401Y-9980D01*
X46874Y-13590D02*
X46874Y-10452D01*
X50700Y-17417D02*
X46874Y-13590D01*
X50700Y-20952D02*
X50700Y-17417D01*
X49654Y-21998D02*
X50700Y-20952D01*
G54D28*
X49883Y-20206D02*
X48622Y-20206D01*
X50082Y-20007D02*
X49883Y-20206D01*
G54D27*
X44578Y-16676D02*
X44578Y-16514D01*
G54D26*
X44578Y-16514D02*
X43682Y-15618D01*
X43682Y-15618D02*
X43682Y-13993D01*
X43682Y-13993D02*
X43447Y-13759D01*
X47645Y-17426D02*
X47645Y-18974D01*
G54D27*
X47645Y-18974D02*
X47647Y-18976D01*
X45909Y-16676D02*
X46618Y-16676D01*
X46618Y-16676D02*
X46515Y-16676D01*
G54D26*
X46515Y-16676D02*
X45441Y-15602D01*
X45441Y-15602D02*
X45441Y-14763D01*
X45441Y-14763D02*
X44437Y-13759D01*
X47645Y-16676D02*
X47645Y-16018D01*
X47645Y-16018D02*
X47225Y-15598D01*
G54D27*
X45357Y-13759D02*
X45386Y-13759D01*
G54D26*
X45386Y-13759D02*
X47225Y-15598D01*
X43041Y-18976D02*
X42597Y-18976D01*
X42597Y-18976D02*
X42456Y-18835D01*
X43553Y-18976D02*
X43553Y-18321D01*
X43317Y-18085D02*
X42456Y-18085D01*
X43553Y-18321D02*
X43317Y-18085D01*
X46618Y-17426D02*
X46618Y-18971D01*
G54D27*
X46618Y-18971D02*
X46623Y-18976D01*
X45909Y-17426D02*
X45909Y-17578D01*
G54D26*
X46111Y-17780D02*
X46111Y-18976D01*
X45909Y-17578D02*
X46111Y-17780D01*
X44578Y-17426D02*
X44578Y-18975D01*
G54D27*
X44578Y-18975D02*
X44577Y-18976D01*
M02*
