M48
INCH,TZ
T1C0.012
T2C0.026
T3C0.040
T4C0.041
T5C0.047
T6C0.072
T7C0.118
T8C0.138
T9C0.156
%
G90
G05
T1
X35850Y-37543
X37681Y-16858
X38319Y-16106
X40614Y-13142
X41039Y-32961
X41039Y-33453
X41406Y-21232
X41539Y-20811
X41646Y-25276
X42043Y-27465
X42067Y-25181
X42433Y-27465
X42673Y-26756
X42862Y-27469
X42925Y-14878
X43150Y-20209
X43169Y-16677
X43213Y-20980
X43220Y-27465
X43429Y-20587
X43465Y-20280
X43563Y-23445
X43654Y-27461
X44043Y-27465
X44197Y-15602
X44323Y-19783
X44492Y-10697
X44835Y-18209
X45240Y-33453
X45346Y-20362
X45854Y-18205
X45854Y-24484
X45969Y-15598
X46114Y-26217
X46370Y-19760
X46445Y-21287
X46445Y-21744
X46606Y-33453
X46882Y-18209
X47189Y-33449
X47409Y-22606
X47480Y-23366
X47677Y-19953
X47811Y-20488
X47819Y-21122
X47902Y-18213
X48740Y-19012
X49358Y-19697
X49535Y-23693
X49618Y-11909
X49622Y-21445
X50083Y-20008
X50622Y-12228
X51598Y-11823
X51598Y-27500
X56925Y-27406
X59661Y-29988
X61339Y-15681
X61984Y-19264
T2
X36043Y-26346
X36043Y-26976
X36043Y-27606
X36043Y-28236
X36043Y-28866
X36043Y-29496
X36043Y-30126
X36043Y-30756
X36043Y-31386
X36043Y-32016
X36043Y-32646
X36043Y-33276
X36043Y-33906
X36043Y-34535
X36043Y-35165
X36043Y-35795
X36043Y-36425
X36496Y-26661
X36496Y-27291
X36496Y-27921
X36496Y-28551
X36496Y-29181
X36496Y-29811
X36496Y-30441
X36496Y-31071
X36496Y-31701
X36496Y-32331
X36496Y-32961
X36496Y-33591
X36496Y-34220
X36496Y-34850
X36496Y-35480
X36496Y-36110
X36496Y-36740
X36969Y-26189
X36969Y-26819
X36969Y-27449
X36969Y-28079
X36969Y-28709
X36969Y-29339
X36969Y-29969
X36969Y-30598
X36969Y-31228
X36969Y-31858
X36969Y-32488
X36969Y-33118
X36969Y-33748
X36969Y-34378
X36969Y-35008
X36969Y-35638
X36969Y-36268
X37421Y-26504
X37421Y-27134
X37421Y-27764
X37421Y-28394
X37421Y-29024
X37421Y-29654
X37421Y-30283
X37421Y-30913
X37421Y-31543
X37421Y-32173
X37421Y-32803
X37421Y-33433
X37421Y-34063
X37421Y-34693
X37421Y-35323
X37421Y-35953
X37421Y-36583
T3
X39358Y-40650
X39374Y-39134
X39579Y-16307
X39579Y-17307
X39579Y-18307
X39579Y-19311
X41272Y-13516
X41272Y-14516
X41272Y-15516
X41272Y-16516
X41272Y-17516
X41272Y-18516
X50051Y-29610
X53327Y-17646
X53433Y-26496
X53433Y-27508
X53453Y-25130
X56799Y-39138
X56811Y-40598
X65075Y-13728
X65142Y-12232
T4
X41780Y-9654
X41780Y-11213
X42230Y-10433
X42681Y-9654
X42681Y-11213
X43132Y-10433
X43583Y-9654
X43583Y-11213
X44033Y-10433
X44484Y-9654
X44484Y-11213
X44935Y-10433
X45386Y-9654
X45386Y-11213
X45837Y-10433
X55598Y-9654
X55598Y-11213
X56049Y-10433
X56500Y-9654
X56500Y-11213
X56951Y-10433
X57402Y-9654
X57402Y-11213
X57852Y-10433
X58303Y-9654
X58303Y-11213
X58754Y-10433
X59205Y-9654
X59205Y-11213
X59656Y-10433
T5
X36496Y-25098
X36496Y-37835
T6
X35465Y-23220
X35465Y-39717
T7
X39354Y-42051
T8
X36189Y-8791
X36201Y-41642
X64622Y-8791
X64661Y-41598
T9
X38624Y-10433
X48541Y-10433
X52443Y-10433
X62360Y-10433
T0
M30
