G04 (created by PCBNEW (2013-07-07 BZR 4022)-stable) date 25/07/2014 8:54:39 PM*
%MOIN*%
G04 Gerber Fmt 3.4, Leading zero omitted, Abs format*
%FSLAX34Y34*%
G01*
G70*
G90*
G04 APERTURE LIST*
%ADD10C,0.00590551*%
%ADD11R,0.035X0.055*%
%ADD12R,0.055X0.035*%
%ADD13R,0.06X0.06*%
%ADD14C,0.0590551*%
%ADD15C,0.0393701*%
%ADD16C,0.0866142*%
%ADD17R,0.016X0.05*%
%ADD18C,0.06*%
%ADD19R,0.0236X0.0866*%
%ADD20C,0.15748*%
%ADD21C,0.137795*%
%ADD22R,0.0157X0.0787402*%
%ADD23R,0.0787402X0.0157*%
G04 APERTURE END LIST*
G54D10*
G54D11*
X36821Y-18578D03*
X37571Y-18578D03*
G54D12*
X46618Y-16676D03*
X46618Y-17426D03*
X45909Y-16676D03*
X45909Y-17426D03*
X44578Y-16676D03*
X44578Y-17426D03*
X42456Y-18085D03*
X42456Y-18835D03*
G54D11*
X36298Y-17767D03*
X37048Y-17767D03*
X59979Y-16059D03*
X60729Y-16059D03*
G54D12*
X47645Y-16676D03*
X47645Y-17426D03*
G54D11*
X47225Y-15598D03*
X46475Y-15598D03*
X45441Y-15602D03*
X44691Y-15602D03*
X43682Y-15618D03*
X42932Y-15618D03*
G54D12*
X43811Y-16676D03*
X43811Y-17426D03*
X45357Y-13009D03*
X45357Y-13759D03*
X44437Y-13009D03*
X44437Y-13759D03*
X43447Y-13009D03*
X43447Y-13759D03*
X50913Y-23018D03*
X50913Y-23768D03*
X50066Y-23329D03*
X50066Y-24079D03*
G54D13*
X39374Y-39133D03*
X39358Y-40649D03*
G54D14*
X45836Y-10433D03*
X44935Y-10433D03*
X44033Y-10433D03*
X43131Y-10433D03*
X42230Y-10433D03*
X45385Y-11212D03*
X44484Y-11212D03*
X43582Y-11212D03*
X42681Y-11212D03*
X41779Y-11212D03*
X45385Y-9653D03*
X44484Y-9653D03*
X43582Y-9653D03*
X42681Y-9653D03*
X41779Y-9653D03*
X59655Y-10433D03*
X58753Y-10433D03*
X57852Y-10433D03*
X56950Y-10433D03*
X56049Y-10433D03*
X59204Y-11212D03*
X58303Y-11212D03*
X57401Y-11212D03*
X56500Y-11212D03*
X55598Y-11212D03*
X59204Y-9653D03*
X58303Y-9653D03*
X57401Y-9653D03*
X56500Y-9653D03*
X55598Y-9653D03*
G54D15*
X36043Y-31385D03*
X36043Y-30755D03*
X36043Y-30125D03*
X36043Y-29496D03*
X36043Y-28866D03*
X36043Y-28236D03*
X36043Y-27606D03*
X36043Y-26976D03*
X36043Y-26346D03*
X36043Y-32015D03*
X36043Y-32645D03*
X36043Y-33275D03*
X36043Y-33905D03*
X36043Y-34535D03*
X36043Y-35165D03*
X36043Y-35795D03*
X36043Y-36425D03*
X36496Y-36740D03*
X36496Y-36110D03*
X36496Y-35480D03*
X36496Y-34850D03*
X36496Y-34220D03*
X36496Y-33590D03*
X36496Y-32960D03*
X36496Y-32330D03*
X36496Y-26661D03*
X36496Y-27291D03*
X36496Y-27921D03*
X36496Y-28551D03*
X36496Y-29181D03*
X36496Y-29811D03*
X36496Y-30440D03*
X36496Y-31070D03*
X36496Y-31700D03*
X37421Y-31543D03*
X37421Y-30913D03*
X37421Y-30283D03*
X37421Y-29653D03*
X37421Y-29023D03*
X37421Y-28393D03*
X37421Y-27763D03*
X37421Y-27133D03*
X37421Y-26503D03*
X37421Y-32173D03*
X37421Y-32803D03*
X37421Y-33433D03*
X37421Y-34062D03*
X37421Y-34692D03*
X37421Y-35322D03*
X37421Y-35952D03*
X37421Y-36582D03*
X36968Y-36267D03*
X36968Y-35637D03*
X36968Y-35007D03*
X36968Y-34377D03*
X36968Y-33748D03*
X36968Y-33118D03*
X36968Y-32488D03*
X36968Y-31858D03*
X36968Y-26188D03*
X36968Y-26818D03*
X36968Y-27448D03*
X36968Y-28078D03*
X36968Y-28708D03*
X36968Y-29338D03*
X36968Y-29968D03*
X36968Y-30598D03*
X36968Y-31228D03*
G54D14*
X36496Y-25098D03*
G54D16*
X35464Y-23220D03*
X35464Y-39716D03*
G54D14*
X36496Y-37834D03*
G54D17*
X60095Y-15256D03*
X60350Y-15256D03*
X60610Y-15256D03*
X60865Y-15256D03*
X60865Y-13506D03*
X60610Y-13506D03*
X60350Y-13506D03*
X60095Y-13506D03*
X36544Y-16843D03*
X36799Y-16843D03*
X37059Y-16843D03*
X37314Y-16843D03*
X37314Y-15093D03*
X37059Y-15093D03*
X36799Y-15093D03*
X36544Y-15093D03*
G54D12*
X59200Y-13705D03*
X59200Y-12955D03*
X58303Y-14445D03*
X58303Y-13695D03*
G54D11*
X59621Y-16905D03*
X60371Y-16905D03*
X36376Y-14070D03*
X37126Y-14070D03*
X36376Y-13303D03*
X37126Y-13303D03*
G54D13*
X56799Y-39137D03*
X56811Y-40598D03*
X65074Y-13728D03*
X53452Y-25129D03*
X53326Y-17645D03*
X53433Y-26496D03*
X53433Y-27507D03*
X50051Y-29610D03*
X39578Y-18307D03*
X39578Y-17307D03*
X39578Y-16307D03*
X39578Y-19311D03*
X65141Y-12232D03*
X41271Y-13515D03*
G54D18*
X41271Y-14515D03*
X41271Y-15515D03*
X41271Y-16515D03*
X41271Y-17515D03*
X41271Y-18515D03*
G54D19*
X59116Y-28016D03*
X58616Y-28016D03*
X58116Y-28016D03*
X57616Y-28016D03*
X57616Y-30062D03*
X58116Y-30062D03*
X58616Y-30062D03*
X59116Y-30062D03*
G54D20*
X36188Y-8791D03*
X64622Y-8791D03*
X36200Y-41641D03*
X64661Y-41598D03*
G54D21*
X39354Y-42051D03*
G54D22*
X47903Y-18976D03*
X47647Y-18976D03*
X47391Y-18976D03*
X47135Y-18976D03*
X46879Y-18976D03*
X46623Y-18976D03*
X46367Y-18976D03*
X46111Y-18976D03*
X45855Y-18976D03*
X45599Y-18976D03*
X45345Y-18976D03*
X45089Y-18976D03*
X44833Y-18976D03*
X44577Y-18976D03*
X44321Y-18976D03*
X44065Y-18976D03*
X43809Y-18976D03*
X43553Y-18976D03*
X43297Y-18976D03*
X43041Y-18976D03*
G54D23*
X42322Y-19694D03*
X42322Y-19950D03*
X42322Y-20206D03*
X42322Y-20462D03*
X42322Y-20718D03*
X42322Y-20974D03*
X42322Y-21230D03*
X42322Y-21486D03*
X42322Y-21742D03*
X42322Y-21998D03*
X42322Y-22252D03*
X42322Y-22508D03*
X42322Y-22764D03*
X42322Y-23020D03*
X42322Y-23276D03*
X42322Y-23532D03*
X42322Y-23788D03*
X42322Y-24044D03*
X42322Y-24300D03*
X42322Y-24556D03*
G54D22*
X43041Y-25275D03*
X43297Y-25275D03*
X43553Y-25275D03*
X43809Y-25275D03*
X44065Y-25275D03*
X44321Y-25275D03*
X44577Y-25275D03*
X44833Y-25275D03*
X45089Y-25275D03*
X45345Y-25275D03*
X45599Y-25275D03*
X45855Y-25275D03*
X46111Y-25275D03*
X46367Y-25275D03*
X46623Y-25275D03*
X46879Y-25275D03*
X47135Y-25275D03*
X47391Y-25275D03*
X47647Y-25275D03*
X47903Y-25275D03*
G54D23*
X48622Y-24556D03*
X48622Y-24300D03*
X48622Y-24044D03*
X48622Y-23788D03*
X48622Y-23532D03*
X48622Y-23276D03*
X48622Y-23020D03*
X48622Y-22764D03*
X48622Y-22508D03*
X48622Y-22252D03*
X48622Y-21998D03*
X48622Y-21742D03*
X48622Y-21486D03*
X48622Y-21230D03*
X48622Y-20974D03*
X48622Y-20718D03*
X48622Y-20462D03*
X48622Y-20206D03*
X48622Y-19950D03*
X48622Y-19694D03*
M02*
