G04 (created by PCBNEW (2013-07-07 BZR 4022)-stable) date 29/07/2014 2:08:38 PM*
%MOIN*%
G04 Gerber Fmt 3.4, Leading zero omitted, Abs format*
%FSLAX34Y34*%
G01*
G70*
G90*
G04 APERTURE LIST*
%ADD10C,0.00590551*%
%ADD11R,0.035X0.055*%
%ADD12R,0.055X0.035*%
%ADD13R,0.06X0.06*%
%ADD14C,0.0393701*%
%ADD15C,0.0590551*%
%ADD16C,0.0866142*%
%ADD17R,0.016X0.05*%
%ADD18C,0.06*%
%ADD19R,0.0236X0.0866*%
%ADD20C,0.15748*%
%ADD21C,0.137795*%
%ADD22R,0.0157X0.0787402*%
%ADD23R,0.0787402X0.0157*%
%ADD24C,0.177165*%
%ADD25C,0.023622*%
%ADD26C,0.00984252*%
%ADD27C,0.00492126*%
%ADD28C,0.015748*%
%ADD29C,0.019685*%
%ADD30C,0.008*%
%ADD31C,0.0393701*%
G04 APERTURE END LIST*
G54D10*
G54D11*
X36821Y-18578D03*
X37571Y-18578D03*
G54D12*
X46618Y-16676D03*
X46618Y-17426D03*
X45909Y-16676D03*
X45909Y-17426D03*
X44578Y-16676D03*
X44578Y-17426D03*
X42456Y-18085D03*
X42456Y-18835D03*
G54D11*
X36298Y-17767D03*
X37048Y-17767D03*
X59979Y-16059D03*
X60729Y-16059D03*
G54D12*
X47645Y-16676D03*
X47645Y-17426D03*
G54D11*
X47225Y-15598D03*
X46475Y-15598D03*
X45441Y-15602D03*
X44691Y-15602D03*
X43682Y-15618D03*
X42932Y-15618D03*
G54D12*
X43811Y-16676D03*
X43811Y-17426D03*
X45357Y-13009D03*
X45357Y-13759D03*
X44437Y-13009D03*
X44437Y-13759D03*
X43447Y-13009D03*
X43447Y-13759D03*
X50913Y-23018D03*
X50913Y-23768D03*
X50066Y-23329D03*
X50066Y-24079D03*
G54D13*
X39374Y-39133D03*
X39358Y-40649D03*
G54D14*
X36043Y-31385D03*
X36043Y-30755D03*
X36043Y-30125D03*
X36043Y-29496D03*
X36043Y-28866D03*
X36043Y-28236D03*
X36043Y-27606D03*
X36043Y-26976D03*
X36043Y-26346D03*
X36043Y-32015D03*
X36043Y-32645D03*
X36043Y-33275D03*
X36043Y-33905D03*
X36043Y-34535D03*
X36043Y-35165D03*
X36043Y-35795D03*
X36043Y-36425D03*
X36496Y-36740D03*
X36496Y-36110D03*
X36496Y-35480D03*
X36496Y-34850D03*
X36496Y-34220D03*
X36496Y-33590D03*
X36496Y-32960D03*
X36496Y-32330D03*
X36496Y-26661D03*
X36496Y-27291D03*
X36496Y-27921D03*
X36496Y-28551D03*
X36496Y-29181D03*
X36496Y-29811D03*
X36496Y-30440D03*
X36496Y-31070D03*
X36496Y-31700D03*
X37421Y-31543D03*
X37421Y-30913D03*
X37421Y-30283D03*
X37421Y-29653D03*
X37421Y-29023D03*
X37421Y-28393D03*
X37421Y-27763D03*
X37421Y-27133D03*
X37421Y-26503D03*
X37421Y-32173D03*
X37421Y-32803D03*
X37421Y-33433D03*
X37421Y-34062D03*
X37421Y-34692D03*
X37421Y-35322D03*
X37421Y-35952D03*
X37421Y-36582D03*
X36968Y-36267D03*
X36968Y-35637D03*
X36968Y-35007D03*
X36968Y-34377D03*
X36968Y-33748D03*
X36968Y-33118D03*
X36968Y-32488D03*
X36968Y-31858D03*
X36968Y-26188D03*
X36968Y-26818D03*
X36968Y-27448D03*
X36968Y-28078D03*
X36968Y-28708D03*
X36968Y-29338D03*
X36968Y-29968D03*
X36968Y-30598D03*
X36968Y-31228D03*
G54D15*
X36496Y-25098D03*
G54D16*
X35464Y-23220D03*
X35464Y-39716D03*
G54D15*
X36496Y-37834D03*
G54D17*
X60095Y-15256D03*
X60350Y-15256D03*
X60610Y-15256D03*
X60865Y-15256D03*
X60865Y-13506D03*
X60610Y-13506D03*
X60350Y-13506D03*
X60095Y-13506D03*
X36544Y-16843D03*
X36799Y-16843D03*
X37059Y-16843D03*
X37314Y-16843D03*
X37314Y-15093D03*
X37059Y-15093D03*
X36799Y-15093D03*
X36544Y-15093D03*
G54D12*
X59200Y-13705D03*
X59200Y-12955D03*
X58303Y-14445D03*
X58303Y-13695D03*
G54D11*
X59621Y-16905D03*
X60371Y-16905D03*
X36376Y-14070D03*
X37126Y-14070D03*
X36376Y-13303D03*
X37126Y-13303D03*
G54D13*
X56799Y-39137D03*
X56811Y-40598D03*
X65074Y-13728D03*
X53452Y-25129D03*
X53326Y-17645D03*
X53433Y-26496D03*
X53433Y-27507D03*
X50051Y-29610D03*
X39578Y-18307D03*
X39578Y-17307D03*
X39578Y-16307D03*
X39578Y-19311D03*
X65141Y-12232D03*
X41271Y-13515D03*
G54D18*
X41271Y-14515D03*
X41271Y-15515D03*
X41271Y-16515D03*
X41271Y-17515D03*
X41271Y-18515D03*
G54D19*
X59116Y-28016D03*
X58616Y-28016D03*
X58116Y-28016D03*
X57616Y-28016D03*
X57616Y-30062D03*
X58116Y-30062D03*
X58616Y-30062D03*
X59116Y-30062D03*
G54D20*
X36188Y-8791D03*
X64622Y-8791D03*
X36200Y-41641D03*
X64661Y-41598D03*
G54D21*
X39354Y-42051D03*
G54D22*
X47903Y-18976D03*
X47647Y-18976D03*
X47391Y-18976D03*
X47135Y-18976D03*
X46879Y-18976D03*
X46623Y-18976D03*
X46367Y-18976D03*
X46111Y-18976D03*
X45855Y-18976D03*
X45599Y-18976D03*
X45345Y-18976D03*
X45089Y-18976D03*
X44833Y-18976D03*
X44577Y-18976D03*
X44321Y-18976D03*
X44065Y-18976D03*
X43809Y-18976D03*
X43553Y-18976D03*
X43297Y-18976D03*
X43041Y-18976D03*
G54D23*
X42322Y-19694D03*
X42322Y-19950D03*
X42322Y-20206D03*
X42322Y-20462D03*
X42322Y-20718D03*
X42322Y-20974D03*
X42322Y-21230D03*
X42322Y-21486D03*
X42322Y-21742D03*
X42322Y-21998D03*
X42322Y-22252D03*
X42322Y-22508D03*
X42322Y-22764D03*
X42322Y-23020D03*
X42322Y-23276D03*
X42322Y-23532D03*
X42322Y-23788D03*
X42322Y-24044D03*
X42322Y-24300D03*
X42322Y-24556D03*
G54D22*
X43041Y-25275D03*
X43297Y-25275D03*
X43553Y-25275D03*
X43809Y-25275D03*
X44065Y-25275D03*
X44321Y-25275D03*
X44577Y-25275D03*
X44833Y-25275D03*
X45089Y-25275D03*
X45345Y-25275D03*
X45599Y-25275D03*
X45855Y-25275D03*
X46111Y-25275D03*
X46367Y-25275D03*
X46623Y-25275D03*
X46879Y-25275D03*
X47135Y-25275D03*
X47391Y-25275D03*
X47647Y-25275D03*
X47903Y-25275D03*
G54D23*
X48622Y-24556D03*
X48622Y-24300D03*
X48622Y-24044D03*
X48622Y-23788D03*
X48622Y-23532D03*
X48622Y-23276D03*
X48622Y-23020D03*
X48622Y-22764D03*
X48622Y-22508D03*
X48622Y-22252D03*
X48622Y-21998D03*
X48622Y-21742D03*
X48622Y-21486D03*
X48622Y-21230D03*
X48622Y-20974D03*
X48622Y-20718D03*
X48622Y-20462D03*
X48622Y-20206D03*
X48622Y-19950D03*
X48622Y-19694D03*
G54D15*
X45836Y-10433D03*
X44935Y-10433D03*
X44033Y-10433D03*
X43131Y-10433D03*
X42230Y-10433D03*
X45385Y-11212D03*
X44484Y-11212D03*
X43582Y-11212D03*
X42681Y-11212D03*
X41779Y-11212D03*
X45385Y-9653D03*
X44484Y-9653D03*
X43582Y-9653D03*
X42681Y-9653D03*
X41779Y-9653D03*
G54D24*
X38624Y-10433D03*
X48541Y-10433D03*
G54D15*
X59655Y-10433D03*
X58753Y-10433D03*
X57852Y-10433D03*
X56950Y-10433D03*
X56049Y-10433D03*
X59204Y-11212D03*
X58303Y-11212D03*
X57401Y-11212D03*
X56500Y-11212D03*
X55598Y-11212D03*
X59204Y-9653D03*
X58303Y-9653D03*
X57401Y-9653D03*
X56500Y-9653D03*
X55598Y-9653D03*
G54D24*
X52442Y-10433D03*
X62360Y-10433D03*
G54D25*
X51598Y-11822D03*
X47188Y-33448D03*
X46606Y-33452D03*
X45240Y-33452D03*
X46444Y-21287D03*
X46444Y-21744D03*
X43429Y-20586D03*
X50622Y-12228D03*
X41039Y-33452D03*
X41039Y-32960D03*
X44043Y-27464D03*
X43653Y-27460D03*
X43220Y-27464D03*
X42862Y-27468D03*
X42433Y-27464D03*
X43149Y-20208D03*
X47480Y-23366D03*
X42066Y-25181D03*
X45346Y-20362D03*
X42925Y-14877D03*
X49358Y-19696D03*
X61338Y-15681D03*
X37681Y-16858D03*
X56925Y-27405D03*
X49622Y-21444D03*
X47409Y-22606D03*
X43169Y-16677D03*
X46114Y-26216D03*
X41405Y-21232D03*
X45968Y-15598D03*
X44196Y-15602D03*
X48740Y-19011D03*
X46370Y-19759D03*
X44322Y-19783D03*
X38318Y-16106D03*
X41539Y-20811D03*
X59661Y-29988D03*
X43562Y-23444D03*
X49535Y-23692D03*
X45854Y-24484D03*
X43212Y-20980D03*
X35850Y-37543D03*
X51598Y-27500D03*
X44492Y-10696D03*
X61984Y-19263D03*
X40614Y-13141D03*
X47677Y-19952D03*
X47818Y-21122D03*
X47811Y-20488D03*
X42673Y-26755D03*
X47901Y-18212D03*
X46881Y-18208D03*
X45854Y-18204D03*
X44834Y-18208D03*
X49618Y-11909D03*
X41645Y-25275D03*
X42043Y-27464D03*
X43464Y-20279D03*
X50082Y-20007D03*
G54D26*
X57401Y-11610D02*
X57401Y-11212D01*
X57200Y-11811D02*
X57401Y-11610D01*
X51610Y-11811D02*
X57200Y-11811D01*
G54D27*
X51598Y-11822D02*
X51610Y-11811D01*
G54D26*
X43447Y-13009D02*
X43447Y-11347D01*
G54D27*
X43447Y-11347D02*
X43582Y-11212D01*
X48622Y-24044D02*
X49202Y-24044D01*
X45759Y-35952D02*
X37421Y-35952D01*
X48661Y-33051D02*
X45759Y-35952D01*
X48661Y-26161D02*
X48661Y-33051D01*
X49606Y-25216D02*
X48661Y-26161D01*
X49606Y-24448D02*
X49606Y-25216D01*
X49202Y-24044D02*
X49606Y-24448D01*
X36968Y-35637D02*
X45641Y-35637D01*
X45641Y-35637D02*
X45649Y-35629D01*
X48622Y-24300D02*
X49143Y-24300D01*
X48405Y-32874D02*
X45649Y-35629D01*
X48405Y-26141D02*
X48405Y-32874D01*
X49389Y-25157D02*
X48405Y-26141D01*
X49389Y-24547D02*
X49389Y-25157D01*
X49143Y-24300D02*
X49389Y-24547D01*
X48149Y-32488D02*
X47188Y-33448D01*
X48622Y-24842D02*
X48622Y-24556D01*
X48149Y-25314D02*
X48622Y-24842D01*
X48149Y-32244D02*
X48149Y-25314D01*
X48149Y-32244D02*
X48149Y-32488D01*
X47903Y-25275D02*
X47903Y-32155D01*
X47903Y-32155D02*
X46606Y-33452D01*
X44419Y-34557D02*
X44507Y-34557D01*
X43956Y-34557D02*
X44419Y-34557D01*
X44370Y-34665D02*
X43956Y-34665D01*
X45285Y-34446D02*
X42669Y-34446D01*
X42293Y-35007D02*
X36968Y-35007D01*
X42635Y-34665D02*
X42293Y-35007D01*
X43956Y-34665D02*
X42635Y-34665D01*
X42667Y-34557D02*
X43956Y-34557D01*
X42637Y-34527D02*
X42667Y-34557D01*
X42637Y-34478D02*
X42637Y-34527D01*
X42669Y-34446D02*
X42637Y-34478D01*
X44507Y-34665D02*
X44370Y-34665D01*
X44537Y-34635D02*
X44507Y-34665D01*
X44537Y-34586D02*
X44537Y-34635D01*
X44507Y-34557D02*
X44537Y-34586D01*
X47647Y-25275D02*
X47647Y-32084D01*
X47647Y-32084D02*
X45285Y-34446D01*
X45285Y-34446D02*
X45295Y-34437D01*
X45098Y-34064D02*
X45137Y-34064D01*
X45059Y-34173D02*
X44921Y-34173D01*
X42137Y-34692D02*
X42657Y-34173D01*
X42657Y-34173D02*
X44251Y-34173D01*
X44872Y-34173D02*
X44251Y-34173D01*
X41850Y-34692D02*
X37421Y-34692D01*
X42059Y-34692D02*
X41850Y-34692D01*
X42059Y-34692D02*
X42137Y-34692D01*
X44921Y-34173D02*
X44872Y-34173D01*
X45137Y-34173D02*
X45059Y-34173D01*
X45167Y-34143D02*
X45137Y-34173D01*
X45167Y-34133D02*
X45167Y-34143D01*
X45167Y-34094D02*
X45167Y-34133D01*
X45137Y-34064D02*
X45167Y-34094D01*
X44921Y-34064D02*
X45098Y-34064D01*
X45098Y-34064D02*
X45088Y-34064D01*
X45088Y-34064D02*
X45078Y-34064D01*
X45078Y-34064D02*
X45068Y-34064D01*
X45068Y-34064D02*
X45059Y-34064D01*
X44921Y-34064D02*
X44881Y-34064D01*
X45374Y-33956D02*
X42962Y-33956D01*
X47391Y-31939D02*
X45374Y-33956D01*
X47391Y-31939D02*
X47391Y-25275D01*
X42844Y-34064D02*
X44251Y-34064D01*
X42814Y-34035D02*
X42844Y-34064D01*
X42814Y-33986D02*
X42814Y-34035D01*
X42844Y-33956D02*
X42814Y-33986D01*
X42883Y-33956D02*
X42844Y-33956D01*
X42962Y-33956D02*
X42883Y-33956D01*
X44251Y-34064D02*
X44881Y-34064D01*
X44881Y-34064D02*
X44872Y-34064D01*
X47135Y-31557D02*
X45240Y-33452D01*
X47135Y-25275D02*
X47135Y-31557D01*
X45600Y-31663D02*
X45629Y-31692D01*
X44744Y-31771D02*
X44527Y-31988D01*
X46879Y-31072D02*
X46879Y-31112D01*
X44527Y-31988D02*
X42141Y-34374D01*
X44773Y-31663D02*
X45600Y-31663D01*
X44744Y-31633D02*
X44773Y-31663D01*
X44744Y-31584D02*
X44744Y-31633D01*
X44773Y-31555D02*
X44744Y-31584D01*
X46328Y-31555D02*
X44773Y-31555D01*
X46358Y-31525D02*
X46328Y-31555D01*
X46358Y-31476D02*
X46358Y-31525D01*
X46328Y-31446D02*
X46358Y-31476D01*
X44960Y-31446D02*
X46328Y-31446D01*
X44931Y-31417D02*
X44960Y-31446D01*
X44931Y-31368D02*
X44931Y-31417D01*
X44960Y-31338D02*
X44931Y-31368D01*
X46653Y-31338D02*
X44960Y-31338D01*
X46879Y-31112D02*
X46653Y-31338D01*
X36657Y-34059D02*
X36496Y-34220D01*
X42141Y-34374D02*
X37338Y-34374D01*
X37338Y-34374D02*
X37204Y-34240D01*
X37204Y-34240D02*
X37204Y-34232D01*
X37204Y-34232D02*
X37192Y-34220D01*
X37192Y-34220D02*
X37192Y-34212D01*
X37192Y-34212D02*
X37039Y-34059D01*
X37039Y-34059D02*
X36657Y-34059D01*
X45551Y-31771D02*
X44744Y-31771D01*
X45600Y-31771D02*
X45551Y-31771D01*
X45629Y-31742D02*
X45600Y-31771D01*
X45629Y-31692D02*
X45629Y-31742D01*
X46879Y-25275D02*
X46879Y-31072D01*
X46879Y-31072D02*
X46879Y-31085D01*
X46348Y-30374D02*
X46200Y-30374D01*
X46240Y-30885D02*
X46210Y-30915D01*
X46210Y-30915D02*
X45039Y-30915D01*
X45039Y-30915D02*
X45009Y-30944D01*
X45009Y-30944D02*
X45009Y-30994D01*
X45009Y-30994D02*
X45039Y-31023D01*
X45039Y-31023D02*
X46122Y-31023D01*
X46122Y-31023D02*
X46151Y-31053D01*
X46151Y-31053D02*
X46151Y-31102D01*
X46151Y-31102D02*
X46122Y-31131D01*
X46122Y-31131D02*
X44938Y-31131D01*
X44938Y-31131D02*
X42007Y-34062D01*
X46210Y-30807D02*
X46240Y-30836D01*
X45265Y-30807D02*
X46210Y-30807D01*
X45236Y-30777D02*
X45265Y-30807D01*
X45236Y-30728D02*
X45236Y-30777D01*
X45265Y-30698D02*
X45236Y-30728D01*
X45314Y-30698D02*
X45265Y-30698D01*
X46289Y-30698D02*
X45314Y-30698D01*
X46318Y-30669D02*
X46289Y-30698D01*
X46318Y-30620D02*
X46318Y-30669D01*
X46289Y-30590D02*
X46318Y-30620D01*
X45492Y-30590D02*
X46289Y-30590D01*
X45462Y-30561D02*
X45492Y-30590D01*
X45462Y-30511D02*
X45462Y-30561D01*
X45492Y-30482D02*
X45462Y-30511D01*
X46348Y-30482D02*
X45492Y-30482D01*
X46377Y-30452D02*
X46348Y-30482D01*
X46377Y-30403D02*
X46377Y-30452D01*
X46348Y-30374D02*
X46377Y-30403D01*
X37421Y-34062D02*
X42007Y-34062D01*
X46240Y-30836D02*
X46240Y-30885D01*
X46623Y-29714D02*
X46623Y-25275D01*
X46171Y-30166D02*
X46623Y-29714D01*
X46171Y-30344D02*
X46171Y-30166D01*
X46200Y-30374D02*
X46171Y-30344D01*
X45787Y-29881D02*
X45787Y-29812D01*
X46367Y-28534D02*
X46367Y-28533D01*
X45236Y-29744D02*
X45265Y-29773D01*
X45236Y-29694D02*
X45236Y-29744D01*
X45265Y-29665D02*
X45236Y-29694D01*
X46250Y-29665D02*
X45265Y-29665D01*
X46279Y-29635D02*
X46250Y-29665D01*
X46279Y-29586D02*
X46279Y-29635D01*
X46250Y-29557D02*
X46279Y-29586D01*
X45265Y-29557D02*
X46250Y-29557D01*
X45236Y-29527D02*
X45265Y-29557D01*
X45236Y-29478D02*
X45236Y-29527D01*
X45265Y-29448D02*
X45236Y-29478D01*
X46250Y-29448D02*
X45265Y-29448D01*
X46279Y-29419D02*
X46250Y-29448D01*
X46279Y-29370D02*
X46279Y-29419D01*
X46250Y-29340D02*
X46279Y-29370D01*
X45265Y-29340D02*
X46250Y-29340D01*
X45236Y-29311D02*
X45265Y-29340D01*
X45236Y-29261D02*
X45236Y-29311D01*
X45265Y-29232D02*
X45236Y-29261D01*
X46250Y-29232D02*
X45265Y-29232D01*
X46279Y-29202D02*
X46250Y-29232D01*
X46279Y-29153D02*
X46279Y-29202D01*
X46250Y-29124D02*
X46279Y-29153D01*
X45265Y-29124D02*
X46250Y-29124D01*
X45236Y-29094D02*
X45265Y-29124D01*
X45236Y-29045D02*
X45236Y-29094D01*
X45265Y-29015D02*
X45236Y-29045D01*
X45885Y-29015D02*
X45265Y-29015D01*
X46367Y-28534D02*
X45885Y-29015D01*
X45748Y-29773D02*
X45265Y-29773D01*
X45787Y-29812D02*
X45748Y-29773D01*
X45570Y-30098D02*
X41921Y-33748D01*
X41921Y-33748D02*
X36968Y-33748D01*
X45787Y-29881D02*
X45787Y-29881D01*
X45787Y-29881D02*
X45570Y-30098D01*
X46367Y-25275D02*
X46367Y-28533D01*
X46367Y-28533D02*
X46367Y-28523D01*
G54D26*
X47723Y-21486D02*
X46809Y-21486D01*
X48622Y-21486D02*
X47723Y-21486D01*
X46610Y-21287D02*
X46444Y-21287D01*
X46809Y-21486D02*
X46610Y-21287D01*
X47551Y-21742D02*
X46445Y-21742D01*
X46445Y-21742D02*
X46444Y-21744D01*
X48622Y-21742D02*
X47551Y-21742D01*
X47551Y-21742D02*
X47556Y-21742D01*
G54D27*
X43296Y-20718D02*
X43429Y-20586D01*
X38818Y-31102D02*
X38818Y-31407D01*
X37777Y-31228D02*
X37844Y-31161D01*
X37844Y-31161D02*
X37844Y-31023D01*
X37844Y-31023D02*
X37874Y-30994D01*
X37874Y-30994D02*
X37923Y-30994D01*
X37923Y-30994D02*
X37952Y-31023D01*
X37952Y-31023D02*
X37952Y-31397D01*
X37952Y-31397D02*
X37982Y-31427D01*
X37982Y-31427D02*
X38031Y-31427D01*
X38031Y-31427D02*
X38061Y-31397D01*
X38061Y-31397D02*
X38061Y-31023D01*
X38061Y-31023D02*
X38090Y-30994D01*
X38090Y-30994D02*
X38139Y-30994D01*
X38139Y-30994D02*
X38169Y-31023D01*
X38169Y-31023D02*
X38169Y-31397D01*
X38169Y-31397D02*
X38198Y-31427D01*
X38198Y-31427D02*
X38248Y-31427D01*
X38248Y-31427D02*
X38277Y-31397D01*
X38277Y-31397D02*
X38277Y-31023D01*
X38277Y-31023D02*
X38307Y-30994D01*
X38307Y-30994D02*
X38356Y-30994D01*
X38356Y-30994D02*
X38385Y-31023D01*
X38385Y-31023D02*
X38385Y-31397D01*
X38385Y-31397D02*
X38415Y-31427D01*
X38415Y-31427D02*
X38464Y-31427D01*
X38464Y-31427D02*
X38494Y-31397D01*
X38494Y-31397D02*
X38494Y-31023D01*
X38494Y-31023D02*
X38523Y-30994D01*
X38523Y-30994D02*
X38572Y-30994D01*
X38572Y-30994D02*
X38602Y-31023D01*
X38602Y-31023D02*
X38602Y-31397D01*
X38602Y-31397D02*
X38631Y-31427D01*
X38631Y-31427D02*
X38681Y-31427D01*
X38681Y-31427D02*
X38700Y-31407D01*
X38700Y-31407D02*
X38710Y-31397D01*
X38710Y-31397D02*
X38710Y-31023D01*
X38710Y-31023D02*
X38740Y-30994D01*
X38740Y-30994D02*
X38789Y-30994D01*
X38789Y-30994D02*
X38818Y-31023D01*
X38818Y-31023D02*
X38818Y-31102D01*
X41909Y-25681D02*
X41854Y-25736D01*
X43297Y-20718D02*
X43846Y-21267D01*
X43846Y-21267D02*
X43846Y-23744D01*
X43846Y-23744D02*
X41909Y-25681D01*
X42322Y-20718D02*
X43297Y-20718D01*
X36669Y-30755D02*
X36043Y-30755D01*
X36822Y-30909D02*
X36669Y-30755D01*
X37043Y-30909D02*
X36822Y-30909D01*
X37188Y-31055D02*
X37043Y-30909D01*
X37188Y-31066D02*
X37188Y-31055D01*
X37208Y-31086D02*
X37188Y-31066D01*
X37208Y-31098D02*
X37208Y-31086D01*
X37338Y-31228D02*
X37208Y-31098D01*
X37775Y-31228D02*
X37338Y-31228D01*
X41692Y-30594D02*
X41059Y-31228D01*
X41692Y-25897D02*
X41692Y-30594D01*
X41791Y-25799D02*
X41692Y-25897D01*
X41854Y-25736D02*
X41791Y-25799D01*
X37775Y-31228D02*
X37777Y-31228D01*
X38998Y-31228D02*
X41059Y-31228D01*
X38927Y-31299D02*
X38998Y-31228D01*
X38927Y-31407D02*
X38927Y-31299D01*
X38897Y-31437D02*
X38927Y-31407D01*
X38848Y-31437D02*
X38897Y-31437D01*
X38818Y-31407D02*
X38848Y-31437D01*
X42322Y-20718D02*
X43296Y-20718D01*
G54D26*
X58303Y-11759D02*
X58303Y-11212D01*
X57822Y-12240D02*
X58303Y-11759D01*
X50633Y-12240D02*
X57822Y-12240D01*
G54D27*
X50622Y-12228D02*
X50633Y-12240D01*
G54D26*
X44437Y-13009D02*
X44437Y-11258D01*
G54D27*
X44437Y-11258D02*
X44484Y-11212D01*
X42637Y-31870D02*
X42622Y-31870D01*
X42592Y-31899D02*
X42405Y-32086D01*
X42405Y-32086D02*
X41039Y-33452D01*
X42622Y-31870D02*
X42592Y-31899D01*
X43444Y-31870D02*
X42637Y-31870D01*
X42637Y-31870D02*
X42647Y-31870D01*
X45599Y-28170D02*
X44960Y-28809D01*
X44960Y-28809D02*
X44960Y-30196D01*
X44960Y-30196D02*
X44379Y-30777D01*
X44379Y-30777D02*
X43720Y-30777D01*
X43720Y-30777D02*
X43690Y-30807D01*
X43690Y-30807D02*
X43690Y-30856D01*
X43690Y-30856D02*
X43720Y-30885D01*
X43720Y-30885D02*
X44064Y-30885D01*
X44064Y-30885D02*
X44094Y-30915D01*
X44094Y-30915D02*
X44094Y-30964D01*
X44094Y-30964D02*
X44064Y-30994D01*
X44064Y-30994D02*
X43297Y-30994D01*
X43297Y-30994D02*
X43267Y-31023D01*
X43267Y-31023D02*
X43267Y-31062D01*
X43267Y-31062D02*
X43267Y-31082D01*
X43267Y-31082D02*
X43297Y-31112D01*
X43297Y-31112D02*
X43838Y-31112D01*
X43838Y-31112D02*
X43868Y-31141D01*
X43868Y-31141D02*
X43868Y-31190D01*
X43868Y-31190D02*
X43838Y-31220D01*
X43838Y-31220D02*
X43070Y-31220D01*
X43070Y-31220D02*
X43041Y-31250D01*
X43041Y-31250D02*
X43041Y-31299D01*
X43041Y-31299D02*
X43070Y-31328D01*
X43070Y-31328D02*
X43671Y-31328D01*
X43671Y-31328D02*
X43700Y-31358D01*
X43700Y-31358D02*
X43700Y-31407D01*
X43700Y-31407D02*
X43671Y-31437D01*
X43671Y-31437D02*
X42923Y-31437D01*
X42923Y-31437D02*
X42893Y-31466D01*
X42893Y-31466D02*
X42893Y-31515D01*
X42893Y-31515D02*
X42923Y-31545D01*
X42923Y-31545D02*
X43553Y-31545D01*
X43553Y-31545D02*
X43582Y-31574D01*
X43582Y-31574D02*
X43582Y-31624D01*
X43582Y-31624D02*
X43553Y-31653D01*
X43553Y-31653D02*
X42795Y-31653D01*
X42795Y-31653D02*
X42765Y-31683D01*
X42765Y-31683D02*
X42765Y-31732D01*
X42765Y-31732D02*
X42795Y-31761D01*
X42795Y-31761D02*
X43444Y-31761D01*
X43444Y-31761D02*
X43474Y-31791D01*
X43474Y-31791D02*
X43474Y-31840D01*
X43474Y-31840D02*
X43444Y-31870D01*
X45599Y-28170D02*
X45599Y-28129D01*
X45599Y-28139D02*
X45599Y-28129D01*
X45599Y-28129D02*
X45599Y-25275D01*
X43700Y-30374D02*
X44104Y-30374D01*
X43231Y-30768D02*
X41039Y-32960D01*
X43375Y-30768D02*
X43231Y-30768D01*
X43661Y-30482D02*
X43375Y-30768D01*
X44104Y-30482D02*
X43661Y-30482D01*
X44133Y-30452D02*
X44104Y-30482D01*
X44133Y-30403D02*
X44133Y-30452D01*
X44104Y-30374D02*
X44133Y-30403D01*
X45345Y-27923D02*
X45345Y-27932D01*
X43671Y-30344D02*
X43700Y-30374D01*
X43700Y-30374D02*
X43700Y-30374D01*
X43671Y-30295D02*
X43671Y-30344D01*
X43700Y-30265D02*
X43671Y-30295D01*
X44468Y-30265D02*
X43700Y-30265D01*
X44498Y-30236D02*
X44468Y-30265D01*
X44498Y-30187D02*
X44498Y-30236D01*
X44468Y-30157D02*
X44498Y-30187D01*
X43700Y-30157D02*
X44468Y-30157D01*
X43671Y-30127D02*
X43700Y-30157D01*
X43671Y-30078D02*
X43671Y-30127D01*
X43700Y-30049D02*
X43671Y-30078D01*
X44468Y-30049D02*
X43700Y-30049D01*
X44498Y-30019D02*
X44468Y-30049D01*
X44498Y-29970D02*
X44498Y-30019D01*
X44468Y-29940D02*
X44498Y-29970D01*
X43700Y-29940D02*
X44468Y-29940D01*
X43671Y-29911D02*
X43700Y-29940D01*
X43671Y-29862D02*
X43671Y-29911D01*
X43700Y-29832D02*
X43671Y-29862D01*
X44468Y-29832D02*
X43700Y-29832D01*
X44498Y-29803D02*
X44468Y-29832D01*
X44498Y-29753D02*
X44498Y-29803D01*
X44468Y-29724D02*
X44498Y-29753D01*
X43700Y-29724D02*
X44468Y-29724D01*
X43671Y-29694D02*
X43700Y-29724D01*
X43671Y-29645D02*
X43671Y-29694D01*
X43700Y-29616D02*
X43671Y-29645D01*
X44468Y-29616D02*
X43700Y-29616D01*
X44498Y-29586D02*
X44468Y-29616D01*
X44498Y-29537D02*
X44498Y-29586D01*
X44468Y-29507D02*
X44498Y-29537D01*
X43720Y-29507D02*
X44468Y-29507D01*
X43690Y-29478D02*
X43720Y-29507D01*
X43690Y-29429D02*
X43690Y-29478D01*
X43720Y-29399D02*
X43690Y-29429D01*
X44517Y-29399D02*
X43720Y-29399D01*
X44704Y-29212D02*
X44517Y-29399D01*
X44704Y-28572D02*
X44704Y-29212D01*
X45345Y-27932D02*
X44704Y-28572D01*
X45345Y-25275D02*
X45345Y-27923D01*
X45345Y-27923D02*
X45345Y-27923D01*
X40757Y-32706D02*
X40346Y-33118D01*
X43474Y-30403D02*
X43474Y-30423D01*
X40147Y-33118D02*
X36968Y-33118D01*
X40346Y-33118D02*
X40147Y-33118D01*
X42883Y-30580D02*
X40757Y-32706D01*
X40757Y-32706D02*
X40750Y-32714D01*
X43316Y-30580D02*
X42883Y-30580D01*
X43474Y-30423D02*
X43316Y-30580D01*
X43474Y-29251D02*
X43474Y-29419D01*
X44438Y-28405D02*
X44468Y-28435D01*
X44468Y-28435D02*
X44468Y-28484D01*
X44468Y-28484D02*
X44438Y-28513D01*
X44438Y-28513D02*
X43513Y-28513D01*
X43513Y-28513D02*
X43474Y-28553D01*
X43474Y-28553D02*
X43474Y-28592D01*
X43474Y-28592D02*
X43474Y-28602D01*
X43474Y-28602D02*
X43503Y-28631D01*
X43503Y-28631D02*
X44438Y-28631D01*
X44438Y-28631D02*
X44468Y-28661D01*
X44468Y-28661D02*
X44468Y-28710D01*
X44468Y-28710D02*
X44438Y-28740D01*
X44438Y-28740D02*
X43503Y-28740D01*
X43503Y-28740D02*
X43474Y-28769D01*
X43474Y-28769D02*
X43474Y-28818D01*
X43474Y-28818D02*
X43503Y-28848D01*
X43503Y-28848D02*
X44438Y-28848D01*
X44438Y-28848D02*
X44468Y-28877D01*
X44468Y-28877D02*
X44468Y-28927D01*
X44468Y-28927D02*
X44438Y-28956D01*
X44438Y-28956D02*
X43503Y-28956D01*
X43503Y-28956D02*
X43474Y-28986D01*
X43474Y-28986D02*
X43474Y-29035D01*
X43474Y-29035D02*
X43503Y-29064D01*
X43503Y-29064D02*
X44438Y-29064D01*
X44438Y-29064D02*
X44468Y-29094D01*
X44468Y-29094D02*
X44468Y-29143D01*
X44468Y-29143D02*
X44438Y-29173D01*
X44438Y-29173D02*
X43503Y-29173D01*
X43503Y-29173D02*
X43474Y-29202D01*
X43474Y-29202D02*
X43474Y-29251D01*
X43474Y-29419D02*
X43474Y-29458D01*
X43474Y-29458D02*
X43474Y-30403D01*
X43474Y-30403D02*
X43474Y-30393D01*
X45089Y-27687D02*
X45088Y-27687D01*
X43484Y-28375D02*
X43513Y-28405D01*
X43484Y-28326D02*
X43484Y-28375D01*
X43513Y-28297D02*
X43484Y-28326D01*
X43562Y-28297D02*
X43513Y-28297D01*
X44478Y-28297D02*
X43562Y-28297D01*
X45088Y-27687D02*
X44478Y-28297D01*
X43513Y-28405D02*
X44438Y-28405D01*
X45089Y-25275D02*
X45089Y-27687D01*
X45089Y-27687D02*
X45089Y-27687D01*
X42470Y-30482D02*
X42470Y-30511D01*
X42470Y-30265D02*
X42500Y-30295D01*
X42500Y-30295D02*
X43198Y-30295D01*
X43198Y-30295D02*
X43228Y-30324D01*
X43228Y-30324D02*
X43228Y-30374D01*
X43228Y-30374D02*
X43198Y-30403D01*
X43198Y-30403D02*
X42500Y-30403D01*
X42500Y-30403D02*
X42470Y-30433D01*
X42470Y-30433D02*
X42470Y-30482D01*
X44833Y-27500D02*
X44833Y-27518D01*
X39931Y-32803D02*
X37421Y-32803D01*
X40188Y-32803D02*
X39931Y-32803D01*
X42500Y-30187D02*
X42470Y-30216D01*
X43198Y-30187D02*
X42500Y-30187D01*
X43228Y-30157D02*
X43198Y-30187D01*
X43228Y-30108D02*
X43228Y-30157D01*
X43198Y-30078D02*
X43228Y-30108D01*
X42500Y-30078D02*
X43198Y-30078D01*
X42470Y-30049D02*
X42500Y-30078D01*
X42470Y-30000D02*
X42470Y-30049D01*
X42500Y-29970D02*
X42470Y-30000D01*
X43198Y-29970D02*
X42500Y-29970D01*
X43228Y-29940D02*
X43198Y-29970D01*
X43228Y-29891D02*
X43228Y-29940D01*
X43198Y-29862D02*
X43228Y-29891D01*
X42500Y-29862D02*
X43198Y-29862D01*
X42470Y-29832D02*
X42500Y-29862D01*
X42470Y-29783D02*
X42470Y-29832D01*
X42500Y-29753D02*
X42470Y-29783D01*
X43198Y-29753D02*
X42500Y-29753D01*
X43228Y-29724D02*
X43198Y-29753D01*
X43228Y-29675D02*
X43228Y-29724D01*
X43198Y-29645D02*
X43228Y-29675D01*
X42500Y-29645D02*
X43198Y-29645D01*
X42470Y-29616D02*
X42500Y-29645D01*
X42470Y-29566D02*
X42470Y-29616D01*
X42500Y-29537D02*
X42470Y-29566D01*
X43198Y-29537D02*
X42500Y-29537D01*
X43228Y-29507D02*
X43198Y-29537D01*
X43228Y-29458D02*
X43228Y-29507D01*
X43198Y-29429D02*
X43228Y-29458D01*
X42500Y-29429D02*
X43198Y-29429D01*
X42470Y-29399D02*
X42500Y-29429D01*
X42470Y-29350D02*
X42470Y-29399D01*
X42500Y-29320D02*
X42470Y-29350D01*
X43198Y-29320D02*
X42500Y-29320D01*
X43228Y-29291D02*
X43198Y-29320D01*
X43228Y-29242D02*
X43228Y-29291D01*
X43198Y-29212D02*
X43228Y-29242D01*
X42500Y-29212D02*
X43198Y-29212D01*
X42470Y-29183D02*
X42500Y-29212D01*
X42470Y-29133D02*
X42470Y-29183D01*
X42500Y-29104D02*
X42470Y-29133D01*
X43198Y-29104D02*
X42500Y-29104D01*
X43297Y-29005D02*
X43198Y-29104D01*
X43297Y-28198D02*
X43297Y-29005D01*
X43494Y-28001D02*
X43297Y-28198D01*
X44350Y-28001D02*
X43494Y-28001D01*
X44833Y-27518D02*
X44350Y-28001D01*
X42470Y-30216D02*
X42470Y-30265D01*
X40326Y-32803D02*
X40188Y-32803D01*
X42509Y-30620D02*
X40326Y-32803D01*
X42509Y-30551D02*
X42509Y-30620D01*
X42470Y-30511D02*
X42509Y-30551D01*
X44833Y-25275D02*
X44833Y-27500D01*
X44833Y-27500D02*
X44833Y-27490D01*
X40316Y-32488D02*
X40246Y-32488D01*
X42293Y-30511D02*
X40316Y-32488D01*
X42293Y-28966D02*
X42293Y-30511D01*
X44577Y-27361D02*
X44133Y-27805D01*
X44133Y-27805D02*
X42322Y-27805D01*
X42322Y-27805D02*
X42293Y-27834D01*
X42293Y-27834D02*
X42293Y-27883D01*
X42293Y-27883D02*
X42322Y-27913D01*
X42322Y-27913D02*
X43080Y-27913D01*
X43080Y-27913D02*
X43110Y-27942D01*
X43110Y-27942D02*
X43110Y-27992D01*
X43110Y-27992D02*
X43080Y-28021D01*
X43080Y-28021D02*
X42322Y-28021D01*
X42322Y-28021D02*
X42293Y-28051D01*
X42293Y-28051D02*
X42293Y-28100D01*
X42293Y-28100D02*
X42322Y-28129D01*
X42322Y-28129D02*
X43080Y-28129D01*
X43080Y-28129D02*
X43110Y-28159D01*
X43110Y-28159D02*
X43110Y-28208D01*
X43110Y-28208D02*
X43080Y-28238D01*
X43080Y-28238D02*
X42322Y-28238D01*
X42322Y-28238D02*
X42293Y-28267D01*
X42293Y-28267D02*
X42293Y-28316D01*
X42293Y-28316D02*
X42322Y-28346D01*
X42322Y-28346D02*
X43080Y-28346D01*
X43080Y-28346D02*
X43110Y-28375D01*
X43110Y-28375D02*
X43110Y-28425D01*
X43110Y-28425D02*
X43080Y-28454D01*
X43080Y-28454D02*
X42322Y-28454D01*
X42322Y-28454D02*
X42293Y-28484D01*
X42293Y-28484D02*
X42293Y-28533D01*
X42293Y-28533D02*
X42322Y-28562D01*
X42322Y-28562D02*
X43080Y-28562D01*
X43080Y-28562D02*
X43110Y-28592D01*
X43110Y-28592D02*
X43110Y-28641D01*
X43110Y-28641D02*
X43080Y-28671D01*
X43080Y-28671D02*
X42322Y-28671D01*
X42322Y-28671D02*
X42293Y-28700D01*
X42293Y-28700D02*
X42293Y-28750D01*
X42293Y-28750D02*
X42322Y-28779D01*
X42322Y-28779D02*
X43080Y-28779D01*
X43080Y-28779D02*
X43110Y-28809D01*
X43110Y-28809D02*
X43110Y-28858D01*
X43110Y-28858D02*
X43080Y-28887D01*
X43080Y-28887D02*
X42322Y-28887D01*
X42322Y-28887D02*
X42293Y-28917D01*
X42293Y-28917D02*
X42293Y-28966D01*
X40246Y-32488D02*
X37350Y-32488D01*
X37350Y-32488D02*
X37192Y-32330D01*
X37192Y-32330D02*
X37192Y-32326D01*
X37192Y-32326D02*
X37181Y-32314D01*
X37181Y-32314D02*
X37181Y-32311D01*
X37181Y-32311D02*
X37043Y-32173D01*
X37043Y-32173D02*
X36653Y-32173D01*
X36496Y-32330D02*
X36653Y-32173D01*
X44577Y-27361D02*
X44577Y-27263D01*
X44577Y-27253D02*
X44577Y-27263D01*
X44577Y-27263D02*
X44577Y-25275D01*
X44321Y-27186D02*
X44043Y-27464D01*
X44321Y-25275D02*
X44321Y-27186D01*
X44065Y-27048D02*
X43653Y-27460D01*
X44065Y-27048D02*
X44065Y-25275D01*
X43809Y-26875D02*
X43220Y-27464D01*
X43809Y-26875D02*
X43809Y-25275D01*
X43553Y-26777D02*
X43553Y-25275D01*
X43553Y-26777D02*
X42862Y-27468D01*
X43297Y-26600D02*
X42433Y-27464D01*
X43297Y-26600D02*
X43297Y-25275D01*
X43147Y-20206D02*
X43149Y-20208D01*
X42992Y-20206D02*
X42322Y-20206D01*
X42992Y-20206D02*
X43147Y-20206D01*
X38287Y-23592D02*
X38287Y-23641D01*
X37822Y-26818D02*
X36968Y-26818D01*
X37822Y-25809D02*
X37822Y-26818D01*
X37903Y-25728D02*
X37822Y-25809D01*
X38257Y-25728D02*
X37903Y-25728D01*
X38297Y-25688D02*
X38257Y-25728D01*
X38297Y-25639D02*
X38297Y-25688D01*
X38257Y-25600D02*
X38297Y-25639D01*
X37903Y-25600D02*
X38257Y-25600D01*
X37864Y-25561D02*
X37903Y-25600D01*
X37864Y-25511D02*
X37864Y-25561D01*
X37903Y-25472D02*
X37864Y-25511D01*
X38257Y-25472D02*
X37903Y-25472D01*
X38297Y-25433D02*
X38257Y-25472D01*
X38297Y-25383D02*
X38297Y-25433D01*
X38257Y-25344D02*
X38297Y-25383D01*
X37903Y-25344D02*
X38257Y-25344D01*
X37864Y-25305D02*
X37903Y-25344D01*
X37864Y-25255D02*
X37864Y-25305D01*
X37903Y-25216D02*
X37864Y-25255D01*
X38257Y-25216D02*
X37903Y-25216D01*
X38297Y-25177D02*
X38257Y-25216D01*
X38297Y-25127D02*
X38297Y-25177D01*
X38257Y-25088D02*
X38297Y-25127D01*
X37903Y-25088D02*
X38257Y-25088D01*
X37864Y-25049D02*
X37903Y-25088D01*
X37864Y-25000D02*
X37864Y-25049D01*
X37903Y-24960D02*
X37864Y-25000D01*
X38257Y-24960D02*
X37903Y-24960D01*
X38297Y-24921D02*
X38257Y-24960D01*
X38297Y-24862D02*
X38297Y-24921D01*
X38307Y-24872D02*
X38297Y-24862D01*
X38257Y-24822D02*
X38307Y-24872D01*
X37903Y-24822D02*
X38257Y-24822D01*
X37874Y-24793D02*
X37903Y-24822D01*
X37874Y-24803D02*
X37874Y-24793D01*
X37874Y-24744D02*
X37874Y-24803D01*
X37913Y-24704D02*
X37874Y-24744D01*
X38257Y-24704D02*
X37913Y-24704D01*
X38297Y-24665D02*
X38257Y-24704D01*
X38297Y-24616D02*
X38297Y-24665D01*
X38257Y-24576D02*
X38297Y-24616D01*
X37913Y-24576D02*
X38257Y-24576D01*
X37874Y-24537D02*
X37913Y-24576D01*
X37874Y-24488D02*
X37874Y-24537D01*
X37913Y-24448D02*
X37874Y-24488D01*
X38257Y-24448D02*
X37913Y-24448D01*
X38297Y-24409D02*
X38257Y-24448D01*
X38297Y-24360D02*
X38297Y-24409D01*
X38257Y-24320D02*
X38297Y-24360D01*
X37913Y-24320D02*
X38257Y-24320D01*
X37874Y-24281D02*
X37913Y-24320D01*
X37874Y-24232D02*
X37874Y-24281D01*
X37913Y-24192D02*
X37874Y-24232D01*
X38257Y-24192D02*
X37913Y-24192D01*
X38297Y-24153D02*
X38257Y-24192D01*
X38297Y-24104D02*
X38297Y-24153D01*
X38257Y-24064D02*
X38297Y-24104D01*
X37913Y-24064D02*
X38257Y-24064D01*
X37874Y-24025D02*
X37913Y-24064D01*
X37874Y-23976D02*
X37874Y-24025D01*
X37913Y-23937D02*
X37874Y-23976D01*
X38248Y-23937D02*
X37913Y-23937D01*
X38287Y-23897D02*
X38248Y-23937D01*
X38287Y-23848D02*
X38287Y-23897D01*
X38248Y-23809D02*
X38287Y-23848D01*
X37913Y-23809D02*
X38248Y-23809D01*
X37874Y-23769D02*
X37913Y-23809D01*
X37874Y-23720D02*
X37874Y-23769D01*
X37913Y-23681D02*
X37874Y-23720D01*
X38248Y-23681D02*
X37913Y-23681D01*
X38287Y-23641D02*
X38248Y-23681D01*
X40403Y-21368D02*
X39438Y-21368D01*
X41564Y-20206D02*
X40403Y-21368D01*
X42322Y-20206D02*
X41564Y-20206D01*
X38248Y-23553D02*
X38287Y-23592D01*
X38287Y-23592D02*
X38287Y-23592D01*
X37913Y-23553D02*
X38248Y-23553D01*
X37874Y-23513D02*
X37913Y-23553D01*
X37874Y-23464D02*
X37874Y-23513D01*
X37913Y-23425D02*
X37874Y-23464D01*
X38248Y-23425D02*
X37913Y-23425D01*
X38287Y-23385D02*
X38248Y-23425D01*
X38287Y-23336D02*
X38287Y-23385D01*
X38248Y-23297D02*
X38287Y-23336D01*
X37913Y-23297D02*
X38248Y-23297D01*
X37874Y-23257D02*
X37913Y-23297D01*
X37874Y-23208D02*
X37874Y-23257D01*
X37913Y-23169D02*
X37874Y-23208D01*
X38248Y-23169D02*
X37913Y-23169D01*
X38287Y-23129D02*
X38248Y-23169D01*
X38287Y-23080D02*
X38287Y-23129D01*
X38248Y-23041D02*
X38287Y-23080D01*
X37913Y-23041D02*
X38248Y-23041D01*
X37874Y-23001D02*
X37913Y-23041D01*
X37874Y-22952D02*
X37874Y-23001D01*
X37913Y-22913D02*
X37874Y-22952D01*
X38248Y-22913D02*
X37913Y-22913D01*
X38287Y-22874D02*
X38248Y-22913D01*
X38287Y-22824D02*
X38287Y-22874D01*
X38248Y-22785D02*
X38287Y-22824D01*
X37913Y-22785D02*
X38248Y-22785D01*
X37874Y-22746D02*
X37913Y-22785D01*
X37874Y-22706D02*
X37874Y-22746D01*
X37923Y-22657D02*
X37874Y-22706D01*
X38267Y-22657D02*
X37923Y-22657D01*
X38533Y-22923D02*
X38267Y-22657D01*
X38582Y-22923D02*
X38533Y-22923D01*
X38622Y-22883D02*
X38582Y-22923D01*
X38622Y-22834D02*
X38622Y-22883D01*
X38257Y-22470D02*
X38622Y-22834D01*
X38257Y-22421D02*
X38257Y-22470D01*
X38297Y-22381D02*
X38257Y-22421D01*
X38346Y-22381D02*
X38297Y-22381D01*
X38710Y-22746D02*
X38346Y-22381D01*
X38759Y-22746D02*
X38710Y-22746D01*
X38799Y-22706D02*
X38759Y-22746D01*
X38799Y-22657D02*
X38799Y-22706D01*
X38435Y-22293D02*
X38799Y-22657D01*
X38435Y-22244D02*
X38435Y-22293D01*
X38474Y-22204D02*
X38435Y-22244D01*
X38523Y-22204D02*
X38474Y-22204D01*
X38887Y-22568D02*
X38523Y-22204D01*
X38937Y-22568D02*
X38887Y-22568D01*
X38976Y-22529D02*
X38937Y-22568D01*
X38976Y-22480D02*
X38976Y-22529D01*
X38622Y-22125D02*
X38976Y-22480D01*
X38622Y-22076D02*
X38622Y-22125D01*
X38661Y-22037D02*
X38622Y-22076D01*
X38710Y-22037D02*
X38661Y-22037D01*
X39064Y-22391D02*
X38710Y-22037D01*
X39114Y-22391D02*
X39064Y-22391D01*
X39153Y-22352D02*
X39114Y-22391D01*
X39153Y-22303D02*
X39153Y-22352D01*
X38799Y-21948D02*
X39153Y-22303D01*
X38799Y-21899D02*
X38799Y-21948D01*
X38838Y-21860D02*
X38799Y-21899D01*
X38887Y-21860D02*
X38838Y-21860D01*
X39242Y-22214D02*
X38887Y-21860D01*
X39291Y-22214D02*
X39242Y-22214D01*
X39330Y-22175D02*
X39291Y-22214D01*
X39330Y-22125D02*
X39330Y-22175D01*
X38966Y-21761D02*
X39330Y-22125D01*
X38966Y-21712D02*
X38966Y-21761D01*
X39005Y-21673D02*
X38966Y-21712D01*
X39055Y-21673D02*
X39005Y-21673D01*
X39419Y-22037D02*
X39055Y-21673D01*
X39468Y-22037D02*
X39419Y-22037D01*
X39507Y-21998D02*
X39468Y-22037D01*
X39507Y-21948D02*
X39507Y-21998D01*
X39133Y-21574D02*
X39507Y-21948D01*
X39133Y-21525D02*
X39133Y-21574D01*
X39173Y-21486D02*
X39133Y-21525D01*
X39222Y-21486D02*
X39173Y-21486D01*
X39596Y-21860D02*
X39222Y-21486D01*
X39645Y-21860D02*
X39596Y-21860D01*
X39685Y-21820D02*
X39645Y-21860D01*
X39685Y-21771D02*
X39685Y-21820D01*
X39389Y-21476D02*
X39685Y-21771D01*
X39389Y-21417D02*
X39389Y-21476D01*
X39438Y-21368D02*
X39389Y-21417D01*
G54D26*
X46338Y-8881D02*
X56629Y-8881D01*
X56629Y-8881D02*
X57401Y-9653D01*
G54D27*
X43582Y-9653D02*
X43582Y-9547D01*
G54D26*
X49943Y-22252D02*
X48622Y-22252D01*
X50968Y-21228D02*
X49943Y-22252D01*
X50968Y-17157D02*
X50968Y-21228D01*
X47354Y-13543D02*
X50968Y-17157D01*
X47354Y-9897D02*
X47354Y-13543D01*
X46338Y-8881D02*
X47354Y-9897D01*
X44248Y-8881D02*
X46338Y-8881D01*
X43582Y-9547D02*
X44248Y-8881D01*
G54D28*
X47648Y-23532D02*
X47647Y-23532D01*
X47647Y-23532D02*
X47480Y-23366D01*
G54D29*
X42322Y-24405D02*
X42322Y-24925D01*
X42322Y-24925D02*
X42066Y-25181D01*
G54D26*
X45345Y-18976D02*
X45345Y-20361D01*
X45345Y-20361D02*
X45346Y-20362D01*
X42932Y-15618D02*
X42932Y-14884D01*
X42932Y-14884D02*
X42925Y-14877D01*
G54D29*
X49356Y-19694D02*
X49358Y-19696D01*
G54D28*
X48622Y-19694D02*
X49356Y-19694D01*
G54D26*
X60865Y-15256D02*
X60914Y-15256D01*
X60914Y-15256D02*
X61338Y-15681D01*
X37314Y-16843D02*
X37666Y-16843D01*
G54D30*
X37666Y-16843D02*
X37681Y-16858D01*
G54D27*
X57616Y-28016D02*
X57536Y-28016D01*
G54D26*
X57536Y-28016D02*
X56925Y-27405D01*
X58616Y-30062D02*
X58616Y-28016D01*
X58616Y-28016D02*
X59116Y-28016D01*
X58116Y-28016D02*
X58616Y-28016D01*
X57616Y-28016D02*
X58116Y-28016D01*
X49437Y-20685D02*
X49503Y-20685D01*
X49622Y-20803D02*
X49622Y-21444D01*
X49503Y-20685D02*
X49622Y-20803D01*
X48622Y-20974D02*
X49206Y-20974D01*
X49214Y-20462D02*
X49437Y-20685D01*
X49437Y-20685D02*
X49437Y-20744D01*
X49214Y-20462D02*
X48622Y-20462D01*
X49206Y-20974D02*
X49437Y-20744D01*
G54D28*
X48622Y-22610D02*
X47417Y-22614D01*
G54D29*
X47417Y-22614D02*
X47409Y-22606D01*
G54D28*
X48622Y-22508D02*
X48622Y-22610D01*
X48622Y-22610D02*
X48622Y-22764D01*
G54D29*
X43811Y-16676D02*
X43170Y-16676D01*
X43170Y-16676D02*
X43169Y-16677D01*
G54D28*
X48622Y-23532D02*
X47648Y-23532D01*
X47648Y-23532D02*
X47645Y-23535D01*
X46111Y-25275D02*
X46111Y-26213D01*
G54D29*
X46111Y-26213D02*
X46114Y-26216D01*
G54D28*
X42322Y-24300D02*
X42322Y-24405D01*
G54D29*
X42322Y-24405D02*
X42322Y-24556D01*
G54D28*
X42322Y-21230D02*
X41406Y-21230D01*
G54D29*
X41406Y-21230D02*
X41405Y-21232D01*
X46475Y-15598D02*
X45968Y-15598D01*
X44691Y-15602D02*
X44196Y-15602D01*
G54D28*
X48622Y-19694D02*
X48622Y-19129D01*
G54D29*
X48622Y-19129D02*
X48740Y-19011D01*
G54D28*
X47391Y-18976D02*
X47391Y-19442D01*
X48556Y-19629D02*
X48622Y-19694D01*
X47578Y-19629D02*
X48556Y-19629D01*
X47391Y-19442D02*
X47578Y-19629D01*
X46367Y-18976D02*
X46367Y-19757D01*
G54D29*
X46367Y-19757D02*
X46370Y-19759D01*
G54D28*
X44321Y-18976D02*
X44321Y-19782D01*
X44321Y-19782D02*
X44322Y-19783D01*
G54D26*
X36496Y-35480D02*
X36547Y-35480D01*
X36704Y-35322D02*
X37421Y-35322D01*
X36547Y-35480D02*
X36704Y-35322D01*
X36496Y-33590D02*
X36653Y-33433D01*
X36653Y-33433D02*
X37421Y-33433D01*
X36496Y-30440D02*
X36496Y-30437D01*
X36649Y-30283D02*
X37421Y-30283D01*
X36496Y-30437D02*
X36649Y-30283D01*
X36496Y-28551D02*
X36527Y-28551D01*
X36685Y-28393D02*
X37421Y-28393D01*
X36527Y-28551D02*
X36685Y-28393D01*
X40665Y-18405D02*
X40665Y-16137D01*
X40665Y-18405D02*
X40775Y-18515D01*
X41271Y-18515D02*
X40775Y-18515D01*
X39933Y-15405D02*
X38318Y-15405D01*
X40665Y-16137D02*
X39933Y-15405D01*
G54D28*
X43562Y-23444D02*
X43562Y-21330D01*
X43562Y-21330D02*
X43212Y-20980D01*
G54D26*
X42322Y-20974D02*
X41703Y-20974D01*
X38318Y-15405D02*
X38311Y-15413D01*
X38318Y-15582D02*
X38318Y-15405D01*
X38318Y-15905D02*
X38318Y-15582D01*
X38318Y-16106D02*
X38318Y-15905D01*
X41703Y-20974D02*
X41539Y-20811D01*
X37972Y-15751D02*
X38311Y-15413D01*
X36544Y-16843D02*
X36544Y-16365D01*
X37755Y-15968D02*
X37972Y-15751D01*
X36940Y-15968D02*
X37755Y-15968D01*
X36544Y-16365D02*
X36940Y-15968D01*
X36298Y-17767D02*
X36298Y-17089D01*
X36298Y-17089D02*
X36544Y-16843D01*
X36298Y-17767D02*
X36298Y-18055D01*
X36298Y-18055D02*
X36821Y-18578D01*
X36550Y-16849D02*
X36544Y-16843D01*
X59621Y-16905D02*
X59621Y-29947D01*
G54D27*
X59621Y-29947D02*
X59661Y-29988D01*
G54D26*
X59587Y-30062D02*
X59116Y-30062D01*
G54D27*
X59661Y-29988D02*
X59587Y-30062D01*
X59979Y-16059D02*
X59976Y-16059D01*
G54D26*
X59621Y-16414D02*
X59621Y-16905D01*
X59976Y-16059D02*
X59621Y-16414D01*
X60095Y-15256D02*
X60095Y-15943D01*
X60095Y-15943D02*
X59979Y-16059D01*
G54D29*
X50051Y-29610D02*
X50051Y-24095D01*
X50051Y-24095D02*
X50066Y-24079D01*
X45854Y-24484D02*
X45854Y-24440D01*
G54D28*
X46506Y-23788D02*
X48622Y-23788D01*
X45854Y-24440D02*
X46506Y-23788D01*
X43389Y-23444D02*
X43562Y-23444D01*
X42322Y-24044D02*
X42789Y-24044D01*
X42789Y-24044D02*
X43389Y-23444D01*
G54D29*
X49568Y-23726D02*
X49568Y-23872D01*
X49535Y-23692D02*
X49568Y-23726D01*
X50066Y-24079D02*
X50602Y-24079D01*
X50602Y-24079D02*
X50913Y-23768D01*
G54D28*
X48622Y-23788D02*
X49485Y-23788D01*
G54D29*
X49485Y-23788D02*
X49568Y-23872D01*
X49776Y-24079D02*
X50066Y-24079D01*
X49568Y-23872D02*
X49776Y-24079D01*
G54D28*
X45855Y-25275D02*
X45855Y-24485D01*
G54D29*
X45855Y-24485D02*
X45854Y-24484D01*
G54D28*
X42322Y-20974D02*
X43207Y-20974D01*
G54D29*
X43207Y-20974D02*
X43212Y-20980D01*
G54D27*
X56846Y-28334D02*
X56846Y-28196D01*
X56846Y-28334D02*
X56846Y-28818D01*
X56846Y-28818D02*
X57133Y-29106D01*
X57133Y-29106D02*
X57862Y-29106D01*
X57862Y-29106D02*
X58116Y-29360D01*
X58116Y-30062D02*
X58116Y-29360D01*
X55145Y-26496D02*
X53433Y-26496D01*
X56846Y-28196D02*
X55145Y-26496D01*
X52216Y-26496D02*
X52259Y-26496D01*
X52259Y-26496D02*
X53433Y-26496D01*
X52216Y-27125D02*
X52216Y-31141D01*
X36736Y-36980D02*
X36496Y-36740D01*
X46377Y-36980D02*
X36736Y-36980D01*
X52216Y-31141D02*
X46377Y-36980D01*
X50913Y-23018D02*
X51459Y-23018D01*
X52216Y-23775D02*
X52216Y-26496D01*
X52216Y-26496D02*
X52216Y-26523D01*
X52216Y-26523D02*
X52216Y-27125D01*
X52216Y-27125D02*
X52216Y-27133D01*
X51459Y-23018D02*
X52216Y-23775D01*
X48622Y-23020D02*
X49368Y-23020D01*
X50913Y-22822D02*
X50913Y-23018D01*
X50779Y-22688D02*
X50913Y-22822D01*
X49700Y-22688D02*
X50779Y-22688D01*
X49368Y-23020D02*
X49700Y-22688D01*
G54D26*
X37677Y-13295D02*
X37134Y-13295D01*
X37134Y-13295D02*
X37126Y-13303D01*
X36799Y-15093D02*
X36799Y-14688D01*
X36799Y-14688D02*
X36751Y-14641D01*
X36751Y-14641D02*
X36751Y-13456D01*
X36905Y-13303D02*
X37126Y-13303D01*
X36905Y-13303D02*
X36751Y-13456D01*
G54D27*
X37126Y-13303D02*
X37019Y-13303D01*
G54D26*
X39374Y-12059D02*
X41779Y-9653D01*
X38913Y-12059D02*
X39374Y-12059D01*
G54D27*
X37669Y-13303D02*
X37677Y-13295D01*
G54D26*
X37677Y-13295D02*
X38913Y-12059D01*
X36799Y-16843D02*
X36799Y-17518D01*
X36799Y-17518D02*
X37048Y-17767D01*
G54D27*
X36598Y-20011D02*
X36598Y-19748D01*
X36023Y-26976D02*
X35618Y-26570D01*
X35618Y-26570D02*
X35618Y-24574D01*
X35618Y-24574D02*
X36598Y-23594D01*
X36598Y-23594D02*
X36598Y-20011D01*
X36043Y-26976D02*
X36023Y-26976D01*
X37196Y-17916D02*
X37048Y-17767D01*
X37196Y-19149D02*
X37196Y-17916D01*
X36598Y-19748D02*
X37196Y-19149D01*
X58303Y-13695D02*
X58303Y-13610D01*
G54D26*
X60350Y-13157D02*
X60350Y-13506D01*
X60220Y-13027D02*
X60350Y-13157D01*
X59937Y-13027D02*
X60220Y-13027D01*
X59614Y-13350D02*
X59937Y-13027D01*
X58562Y-13350D02*
X59614Y-13350D01*
X58303Y-13610D02*
X58562Y-13350D01*
X51834Y-13506D02*
X58114Y-13506D01*
X58114Y-13506D02*
X58303Y-13695D01*
G54D27*
X51818Y-13506D02*
X51834Y-13506D01*
G54D26*
X51834Y-13506D02*
X49806Y-13506D01*
X55185Y-9240D02*
X55598Y-9653D01*
X51098Y-9240D02*
X55185Y-9240D01*
X50559Y-9779D02*
X51098Y-9240D01*
X50559Y-10901D02*
X50559Y-9779D01*
X50157Y-11303D02*
X50559Y-10901D01*
X49401Y-11303D02*
X50157Y-11303D01*
X48881Y-11822D02*
X49401Y-11303D01*
X48881Y-12582D02*
X48881Y-11822D01*
X49806Y-13506D02*
X48881Y-12582D01*
G54D27*
X57681Y-37271D02*
X57940Y-37011D01*
X61688Y-15468D02*
X60948Y-14728D01*
X60948Y-14728D02*
X60444Y-14728D01*
X60444Y-14728D02*
X60350Y-14822D01*
X60350Y-15256D02*
X60350Y-14822D01*
X61688Y-33271D02*
X61688Y-18223D01*
X61688Y-18223D02*
X61688Y-15468D01*
X35850Y-37543D02*
X35834Y-37559D01*
X35834Y-37559D02*
X35834Y-37846D01*
X35834Y-37846D02*
X35960Y-37972D01*
X57283Y-37669D02*
X57681Y-37271D01*
X39102Y-37669D02*
X57283Y-37669D01*
X38062Y-38708D02*
X39102Y-37669D01*
X36696Y-38708D02*
X38062Y-38708D01*
X35960Y-37972D02*
X36696Y-38708D01*
X61503Y-33456D02*
X61688Y-33271D01*
X61496Y-33456D02*
X61503Y-33456D01*
X60535Y-34417D02*
X61496Y-33456D01*
X58948Y-36003D02*
X60535Y-34417D01*
X57940Y-37011D02*
X58948Y-36003D01*
G54D26*
X60350Y-15256D02*
X60350Y-16884D01*
G54D27*
X60350Y-16884D02*
X60371Y-16905D01*
X57616Y-30062D02*
X57475Y-30062D01*
X56452Y-28346D02*
X55614Y-27507D01*
X55614Y-27507D02*
X53433Y-27507D01*
X56452Y-29039D02*
X57003Y-29590D01*
X56452Y-28535D02*
X56452Y-29039D01*
X56452Y-28535D02*
X56452Y-28346D01*
X57475Y-30062D02*
X57003Y-29590D01*
X51842Y-27500D02*
X51870Y-27500D01*
X51870Y-27496D02*
X51870Y-27500D01*
X51598Y-27500D02*
X51842Y-27500D01*
X51870Y-27106D02*
X51870Y-27448D01*
X51870Y-27448D02*
X51870Y-27496D01*
X51870Y-27496D02*
X51870Y-30972D01*
X50439Y-23329D02*
X50503Y-23393D01*
X50503Y-23393D02*
X51389Y-23393D01*
X51389Y-23393D02*
X51870Y-23874D01*
X51870Y-23874D02*
X51870Y-27106D01*
X50066Y-23329D02*
X50439Y-23329D01*
X46259Y-36582D02*
X37421Y-36582D01*
X51870Y-30972D02*
X46259Y-36582D01*
X48622Y-23276D02*
X50014Y-23276D01*
X50014Y-23276D02*
X50066Y-23329D01*
G54D26*
X37126Y-14070D02*
X37330Y-14070D01*
X37330Y-14070D02*
X38992Y-12409D01*
X37059Y-15093D02*
X37059Y-14138D01*
X37059Y-14138D02*
X37126Y-14070D01*
G54D27*
X36961Y-14235D02*
X37126Y-14070D01*
X37126Y-14070D02*
X37307Y-14070D01*
G54D26*
X38992Y-12409D02*
X39472Y-12409D01*
X39472Y-12409D02*
X41086Y-10795D01*
X41086Y-10795D02*
X41996Y-10795D01*
X41996Y-10795D02*
X42098Y-10897D01*
X42098Y-10897D02*
X42377Y-10897D01*
X42377Y-10897D02*
X42555Y-10720D01*
X42555Y-10720D02*
X42811Y-10720D01*
X42811Y-10720D02*
X42988Y-10897D01*
X42988Y-10897D02*
X43303Y-10897D01*
X43303Y-10897D02*
X43472Y-10728D01*
X43472Y-10728D02*
X43716Y-10728D01*
X43716Y-10728D02*
X43874Y-10885D01*
X43874Y-10885D02*
X44220Y-10885D01*
X44220Y-10885D02*
X44409Y-10696D01*
X44409Y-10696D02*
X44492Y-10696D01*
G54D27*
X38968Y-12409D02*
X38992Y-12409D01*
G54D26*
X37059Y-16843D02*
X37059Y-17133D01*
X37571Y-17375D02*
X37571Y-18578D01*
X37484Y-17287D02*
X37571Y-17375D01*
X37212Y-17287D02*
X37484Y-17287D01*
X37059Y-17133D02*
X37212Y-17287D01*
G54D27*
X37271Y-25125D02*
X37271Y-19787D01*
X36043Y-26346D02*
X36051Y-26346D01*
X36051Y-26346D02*
X36681Y-25716D01*
X36681Y-25716D02*
X37039Y-25358D01*
X37039Y-25358D02*
X37271Y-25125D01*
X37571Y-19487D02*
X37571Y-18578D01*
X37271Y-19787D02*
X37571Y-19487D01*
X59200Y-12955D02*
X59221Y-12955D01*
G54D26*
X59897Y-12279D02*
X60358Y-12279D01*
X59221Y-12955D02*
X59897Y-12279D01*
G54D27*
X60606Y-13165D02*
X60606Y-13502D01*
X60606Y-13502D02*
X60610Y-13506D01*
G54D26*
X60358Y-11299D02*
X60358Y-12279D01*
X60606Y-12527D02*
X60606Y-13165D01*
G54D27*
X60606Y-13165D02*
X60606Y-13160D01*
G54D26*
X60358Y-12279D02*
X60606Y-12527D01*
X58303Y-9314D02*
X58303Y-9653D01*
X58677Y-8940D02*
X58303Y-9314D01*
X59881Y-8940D02*
X58677Y-8940D01*
X60358Y-9417D02*
X59881Y-8940D01*
G54D27*
X60358Y-11295D02*
X60358Y-11299D01*
G54D26*
X60358Y-11299D02*
X60358Y-9417D01*
G54D27*
X61271Y-33078D02*
X61318Y-33031D01*
X36212Y-37157D02*
X36259Y-37204D01*
X36496Y-36346D02*
X36283Y-36559D01*
X36283Y-36559D02*
X36283Y-36566D01*
X36283Y-36566D02*
X36259Y-36590D01*
X36259Y-36590D02*
X36259Y-36598D01*
X36259Y-36598D02*
X36027Y-36830D01*
X36027Y-36830D02*
X36027Y-36972D01*
X36027Y-36972D02*
X36212Y-37157D01*
X61318Y-18492D02*
X61318Y-33031D01*
X36496Y-36346D02*
X36496Y-36110D01*
X57145Y-37204D02*
X61271Y-33078D01*
X36259Y-37204D02*
X57145Y-37204D01*
X61318Y-18492D02*
X61318Y-16648D01*
X61318Y-16648D02*
X60729Y-16059D01*
X61318Y-18492D02*
X61318Y-18484D01*
G54D26*
X60610Y-15256D02*
X60610Y-15940D01*
G54D27*
X60610Y-15940D02*
X60729Y-16059D01*
G54D26*
X36376Y-14070D02*
X36376Y-14926D01*
X36376Y-14926D02*
X36544Y-15093D01*
X35751Y-13928D02*
X36376Y-13303D01*
X35751Y-19712D02*
X35751Y-13928D01*
X36206Y-20167D02*
X35751Y-19712D01*
X36206Y-23513D02*
X36206Y-20167D01*
X36206Y-23513D02*
X36208Y-23511D01*
X36208Y-13471D02*
X36376Y-13303D01*
X36376Y-13303D02*
X36376Y-14070D01*
X36043Y-31385D02*
X35740Y-31385D01*
X35287Y-24433D02*
X36206Y-23513D01*
X35287Y-30933D02*
X35287Y-24433D01*
X35740Y-31385D02*
X35287Y-30933D01*
X60095Y-13945D02*
X60095Y-13506D01*
X60429Y-14279D02*
X60095Y-13945D01*
X60771Y-14279D02*
X60429Y-14279D01*
X61996Y-15503D02*
X60771Y-14279D01*
X61996Y-19251D02*
X61996Y-15503D01*
G54D27*
X61984Y-19263D02*
X61996Y-19251D01*
G54D26*
X59200Y-13705D02*
X59896Y-13705D01*
X59896Y-13705D02*
X60095Y-13506D01*
G54D27*
X58303Y-14445D02*
X58460Y-14445D01*
G54D26*
X58460Y-14445D02*
X59200Y-13705D01*
G54D31*
X39374Y-39133D02*
X56795Y-39133D01*
G54D29*
X56795Y-39133D02*
X56799Y-39137D01*
X37421Y-31543D02*
X37283Y-31543D01*
X37283Y-31543D02*
X36968Y-31228D01*
X36968Y-31228D02*
X36496Y-31700D01*
G54D31*
X36496Y-31700D02*
X36452Y-31700D01*
X36137Y-31385D02*
X36043Y-31385D01*
X36452Y-31700D02*
X36137Y-31385D01*
X36043Y-31385D02*
X35748Y-31385D01*
X36362Y-39133D02*
X39374Y-39133D01*
X35397Y-38169D02*
X36362Y-39133D01*
X35397Y-31736D02*
X35397Y-38169D01*
X35748Y-31385D02*
X35397Y-31736D01*
G54D27*
X42322Y-19694D02*
X42322Y-19543D01*
X41685Y-13515D02*
X41271Y-13515D01*
X41909Y-13740D02*
X41685Y-13515D01*
X41909Y-19129D02*
X41909Y-13740D01*
X42322Y-19543D02*
X41909Y-19129D01*
G54D26*
X43071Y-17426D02*
X43811Y-17426D01*
X42358Y-16712D02*
X43071Y-17426D01*
X42358Y-13007D02*
X42358Y-16712D01*
X41866Y-12515D02*
X42358Y-13007D01*
X40933Y-12515D02*
X41866Y-12515D01*
X40625Y-12822D02*
X40933Y-12515D01*
X40625Y-13129D02*
X40625Y-12822D01*
X40614Y-13141D02*
X40625Y-13129D01*
X43811Y-17426D02*
X43811Y-18974D01*
G54D27*
X43811Y-18974D02*
X43809Y-18976D01*
G54D28*
X48622Y-19950D02*
X47678Y-19950D01*
G54D29*
X47678Y-19950D02*
X47677Y-19952D01*
G54D28*
X48622Y-21230D02*
X47927Y-21230D01*
X47927Y-21230D02*
X47818Y-21122D01*
X48622Y-20718D02*
X48041Y-20718D01*
X48041Y-20718D02*
X47811Y-20488D01*
X43041Y-25275D02*
X43041Y-24805D01*
X44833Y-23013D02*
X44833Y-18976D01*
X43041Y-24805D02*
X44833Y-23013D01*
X43041Y-25275D02*
X43041Y-26387D01*
G54D29*
X43041Y-26387D02*
X42673Y-26755D01*
X47903Y-18976D02*
X47903Y-18214D01*
X47903Y-18214D02*
X47901Y-18212D01*
X47903Y-18214D02*
X47901Y-18212D01*
G54D28*
X46879Y-18976D02*
X46879Y-18211D01*
G54D29*
X46879Y-18211D02*
X46881Y-18208D01*
G54D28*
X45855Y-18976D02*
X45855Y-18205D01*
G54D29*
X45855Y-18205D02*
X45854Y-18204D01*
G54D28*
X44833Y-18976D02*
X44833Y-18209D01*
G54D29*
X44833Y-18209D02*
X44834Y-18208D01*
G54D27*
X49618Y-11909D02*
X49641Y-11909D01*
G54D26*
X59204Y-11566D02*
X59204Y-11212D01*
X58248Y-12523D02*
X59204Y-11566D01*
X50255Y-12523D02*
X58248Y-12523D01*
X49641Y-11909D02*
X50255Y-12523D01*
G54D27*
X49618Y-11909D02*
X49665Y-11909D01*
G54D26*
X45357Y-13009D02*
X45357Y-11240D01*
G54D27*
X45357Y-11240D02*
X45385Y-11212D01*
X40452Y-31860D02*
X40688Y-31860D01*
X38289Y-32173D02*
X38356Y-32106D01*
X40383Y-31968D02*
X40462Y-31968D01*
X40383Y-32076D02*
X39586Y-32076D01*
X39114Y-32076D02*
X38385Y-32076D01*
X38385Y-32076D02*
X38356Y-32106D01*
X39586Y-32076D02*
X39114Y-32076D01*
X40452Y-31860D02*
X40374Y-31860D01*
X39586Y-31968D02*
X40383Y-31968D01*
X40374Y-31860D02*
X39576Y-31860D01*
X39114Y-31968D02*
X39586Y-31968D01*
X39576Y-31860D02*
X39114Y-31860D01*
X38385Y-31968D02*
X39114Y-31968D01*
X38356Y-31938D02*
X38385Y-31968D01*
X38356Y-31889D02*
X38356Y-31938D01*
X38385Y-31860D02*
X38356Y-31889D01*
X39114Y-31860D02*
X38385Y-31860D01*
X39124Y-31751D02*
X39576Y-31751D01*
X39576Y-31751D02*
X40374Y-31751D01*
X40374Y-31751D02*
X40452Y-31751D01*
X40462Y-32076D02*
X40383Y-32076D01*
X40492Y-32047D02*
X40462Y-32076D01*
X40492Y-31998D02*
X40492Y-32047D01*
X40462Y-31968D02*
X40492Y-31998D01*
X38289Y-32173D02*
X38208Y-32173D01*
X40688Y-31751D02*
X40452Y-31751D01*
X40718Y-31781D02*
X40688Y-31751D01*
X40718Y-31830D02*
X40718Y-31781D01*
X40688Y-31860D02*
X40718Y-31830D01*
X38208Y-32173D02*
X38208Y-32173D01*
X38208Y-32173D02*
X37972Y-32173D01*
X37421Y-32173D02*
X37972Y-32173D01*
X38385Y-31751D02*
X39124Y-31751D01*
X39124Y-31751D02*
X39114Y-31751D01*
X42043Y-29812D02*
X42043Y-30496D01*
X38346Y-31712D02*
X38385Y-31751D01*
X38385Y-31751D02*
X38375Y-31742D01*
X38346Y-31663D02*
X38346Y-31712D01*
X38375Y-31633D02*
X38346Y-31663D01*
X39104Y-31633D02*
X38375Y-31633D01*
X39133Y-31604D02*
X39104Y-31633D01*
X39153Y-31584D02*
X39133Y-31604D01*
X39183Y-31555D02*
X39153Y-31584D01*
X39212Y-31525D02*
X39183Y-31555D01*
X39232Y-31505D02*
X39212Y-31525D01*
X39261Y-31476D02*
X39232Y-31505D01*
X41062Y-31476D02*
X39261Y-31476D01*
X42043Y-30496D02*
X41062Y-31476D01*
X41703Y-23788D02*
X41657Y-23834D01*
X42322Y-23788D02*
X41703Y-23788D01*
X42043Y-27464D02*
X42043Y-28039D01*
X42043Y-28039D02*
X42043Y-29114D01*
X42043Y-29114D02*
X42043Y-29812D01*
X42043Y-29812D02*
X42043Y-29803D01*
X41657Y-25263D02*
X41645Y-25275D01*
X41657Y-25263D02*
X41657Y-23834D01*
X41161Y-28956D02*
X41141Y-28976D01*
X38248Y-30029D02*
X37679Y-30598D01*
X39419Y-30029D02*
X38248Y-30029D01*
X39498Y-29950D02*
X39419Y-30029D01*
X39498Y-29714D02*
X39498Y-29950D01*
X39812Y-29399D02*
X39498Y-29714D01*
X40580Y-29399D02*
X39812Y-29399D01*
X40679Y-29301D02*
X40580Y-29399D01*
X40679Y-29222D02*
X40679Y-29301D01*
X40738Y-29163D02*
X40679Y-29222D01*
X41043Y-29163D02*
X40738Y-29163D01*
X41141Y-29064D02*
X41043Y-29163D01*
X41141Y-28976D02*
X41141Y-29064D01*
X36968Y-30598D02*
X37679Y-30598D01*
X41427Y-27795D02*
X41427Y-27844D01*
X41427Y-27844D02*
X41397Y-27874D01*
X41397Y-27874D02*
X41171Y-27874D01*
X41171Y-27874D02*
X41141Y-27903D01*
X41141Y-27903D02*
X41141Y-27952D01*
X41141Y-27952D02*
X41171Y-27982D01*
X41171Y-27982D02*
X41397Y-27982D01*
X41397Y-27982D02*
X41427Y-28011D01*
X41427Y-28011D02*
X41427Y-28061D01*
X41427Y-28061D02*
X41397Y-28090D01*
X41397Y-28090D02*
X41171Y-28090D01*
X41171Y-28090D02*
X41141Y-28120D01*
X41141Y-28120D02*
X41141Y-28169D01*
X41141Y-28169D02*
X41171Y-28198D01*
X41171Y-28198D02*
X41397Y-28198D01*
X41397Y-28198D02*
X41427Y-28228D01*
X41427Y-28228D02*
X41427Y-28277D01*
X41427Y-28277D02*
X41397Y-28307D01*
X41397Y-28307D02*
X41171Y-28307D01*
X41171Y-28307D02*
X41141Y-28336D01*
X41141Y-28336D02*
X41141Y-28385D01*
X41141Y-28385D02*
X41171Y-28415D01*
X41171Y-28415D02*
X41397Y-28415D01*
X41397Y-28415D02*
X41427Y-28444D01*
X41427Y-28444D02*
X41427Y-28494D01*
X41427Y-28494D02*
X41397Y-28523D01*
X41397Y-28523D02*
X41171Y-28523D01*
X41171Y-28523D02*
X41141Y-28553D01*
X41141Y-28553D02*
X41141Y-28602D01*
X41141Y-28602D02*
X41171Y-28631D01*
X41171Y-28631D02*
X41397Y-28631D01*
X41397Y-28631D02*
X41427Y-28661D01*
X41427Y-28661D02*
X41427Y-28710D01*
X41427Y-28710D02*
X41397Y-28740D01*
X41397Y-28740D02*
X41171Y-28740D01*
X41171Y-28740D02*
X41141Y-28769D01*
X41141Y-28769D02*
X41141Y-28818D01*
X41141Y-28818D02*
X41171Y-28848D01*
X41171Y-28848D02*
X41397Y-28848D01*
X41397Y-28848D02*
X41427Y-28877D01*
X41427Y-28877D02*
X41427Y-28927D01*
X41427Y-28927D02*
X41397Y-28956D01*
X41397Y-28956D02*
X41161Y-28956D01*
X41161Y-28956D02*
X41171Y-28956D01*
X41210Y-26358D02*
X41208Y-26358D01*
X41703Y-23532D02*
X41309Y-23927D01*
X41309Y-23927D02*
X41309Y-23937D01*
X41309Y-23937D02*
X41269Y-23976D01*
X41269Y-23976D02*
X41210Y-23976D01*
X41210Y-23976D02*
X41181Y-24005D01*
X41181Y-24005D02*
X41181Y-24055D01*
X41181Y-24055D02*
X41210Y-24084D01*
X41210Y-24084D02*
X41407Y-24084D01*
X41407Y-24084D02*
X41437Y-24114D01*
X41437Y-24114D02*
X41437Y-24163D01*
X41437Y-24163D02*
X41407Y-24192D01*
X41407Y-24192D02*
X41210Y-24192D01*
X41210Y-24192D02*
X41181Y-24222D01*
X41181Y-24222D02*
X41181Y-24271D01*
X41181Y-24271D02*
X41210Y-24301D01*
X41210Y-24301D02*
X41407Y-24301D01*
X41407Y-24301D02*
X41437Y-24330D01*
X41437Y-24330D02*
X41437Y-24379D01*
X41437Y-24379D02*
X41407Y-24409D01*
X41407Y-24409D02*
X41210Y-24409D01*
X41210Y-24409D02*
X41181Y-24438D01*
X41181Y-24438D02*
X41181Y-24488D01*
X41181Y-24488D02*
X41210Y-24517D01*
X41210Y-24517D02*
X41407Y-24517D01*
X41407Y-24517D02*
X41437Y-24547D01*
X41437Y-24547D02*
X41437Y-24596D01*
X41437Y-24596D02*
X41407Y-24625D01*
X41407Y-24625D02*
X41210Y-24625D01*
X41210Y-24625D02*
X41181Y-24655D01*
X41181Y-24655D02*
X41181Y-24704D01*
X41181Y-24704D02*
X41210Y-24734D01*
X41210Y-24734D02*
X41407Y-24734D01*
X41407Y-24734D02*
X41437Y-24763D01*
X41437Y-24763D02*
X41437Y-24812D01*
X41437Y-24812D02*
X41407Y-24842D01*
X41407Y-24842D02*
X41210Y-24842D01*
X41210Y-24842D02*
X41181Y-24872D01*
X41181Y-24872D02*
X41181Y-24921D01*
X41181Y-24921D02*
X41210Y-24950D01*
X41210Y-24950D02*
X41407Y-24950D01*
X41407Y-24950D02*
X41437Y-24980D01*
X41437Y-24980D02*
X41437Y-25029D01*
X41437Y-25029D02*
X41407Y-25059D01*
X41407Y-25059D02*
X41210Y-25059D01*
X41210Y-25059D02*
X41181Y-25088D01*
X41181Y-25088D02*
X41181Y-25137D01*
X41181Y-25137D02*
X41210Y-25167D01*
X41210Y-25167D02*
X41407Y-25167D01*
X41407Y-25167D02*
X41437Y-25196D01*
X41437Y-25196D02*
X41437Y-25246D01*
X41437Y-25246D02*
X41407Y-25275D01*
X41407Y-25275D02*
X41210Y-25275D01*
X41210Y-25275D02*
X41181Y-25305D01*
X41181Y-25305D02*
X41181Y-25354D01*
X41181Y-25354D02*
X41210Y-25383D01*
X41210Y-25383D02*
X41387Y-25383D01*
X41387Y-25383D02*
X41417Y-25413D01*
X41417Y-25413D02*
X41417Y-25462D01*
X41417Y-25462D02*
X41387Y-25492D01*
X41387Y-25492D02*
X41210Y-25492D01*
X41210Y-25492D02*
X41181Y-25521D01*
X41181Y-25521D02*
X41181Y-25561D01*
X41181Y-25561D02*
X41181Y-25570D01*
X41181Y-25570D02*
X41210Y-25600D01*
X41210Y-25600D02*
X41407Y-25600D01*
X41407Y-25600D02*
X41437Y-25629D01*
X41437Y-25629D02*
X41437Y-25679D01*
X41437Y-25679D02*
X41407Y-25708D01*
X41407Y-25708D02*
X41210Y-25708D01*
X41210Y-25708D02*
X41181Y-25738D01*
X41181Y-25738D02*
X41181Y-25787D01*
X41181Y-25787D02*
X41210Y-25816D01*
X41210Y-25816D02*
X41407Y-25816D01*
X41407Y-25816D02*
X41437Y-25846D01*
X41437Y-25846D02*
X41437Y-25895D01*
X41437Y-25895D02*
X41407Y-25925D01*
X41407Y-25925D02*
X41210Y-25925D01*
X41210Y-25925D02*
X41181Y-25954D01*
X41181Y-25954D02*
X41181Y-26003D01*
X41181Y-26003D02*
X41210Y-26033D01*
X41210Y-26033D02*
X41407Y-26033D01*
X41407Y-26033D02*
X41437Y-26062D01*
X41437Y-26062D02*
X41437Y-26112D01*
X41437Y-26112D02*
X41407Y-26141D01*
X41407Y-26141D02*
X41210Y-26141D01*
X41210Y-26141D02*
X41181Y-26171D01*
X41181Y-26171D02*
X41181Y-26220D01*
X41181Y-26220D02*
X41210Y-26250D01*
X41210Y-26250D02*
X41407Y-26250D01*
X41407Y-26250D02*
X41437Y-26279D01*
X41437Y-26279D02*
X41437Y-26328D01*
X41437Y-26328D02*
X41407Y-26358D01*
X41407Y-26358D02*
X41210Y-26358D01*
X41703Y-23532D02*
X42322Y-23532D01*
X41171Y-27765D02*
X41397Y-27765D01*
X41141Y-27736D02*
X41171Y-27765D01*
X41141Y-27687D02*
X41141Y-27736D01*
X41171Y-27657D02*
X41141Y-27687D01*
X41397Y-27657D02*
X41171Y-27657D01*
X41427Y-27627D02*
X41397Y-27657D01*
X41427Y-27578D02*
X41427Y-27627D01*
X41397Y-27549D02*
X41427Y-27578D01*
X41171Y-27549D02*
X41397Y-27549D01*
X41141Y-27519D02*
X41171Y-27549D01*
X41141Y-27470D02*
X41141Y-27519D01*
X41171Y-27440D02*
X41141Y-27470D01*
X41397Y-27440D02*
X41171Y-27440D01*
X41427Y-27411D02*
X41397Y-27440D01*
X41427Y-27362D02*
X41427Y-27411D01*
X41397Y-27332D02*
X41427Y-27362D01*
X41210Y-27332D02*
X41397Y-27332D01*
X41181Y-27303D02*
X41210Y-27332D01*
X41181Y-27253D02*
X41181Y-27303D01*
X41210Y-27224D02*
X41181Y-27253D01*
X41397Y-27224D02*
X41210Y-27224D01*
X41427Y-27194D02*
X41397Y-27224D01*
X41427Y-27145D02*
X41427Y-27194D01*
X41397Y-27116D02*
X41427Y-27145D01*
X41210Y-27116D02*
X41397Y-27116D01*
X41181Y-27086D02*
X41210Y-27116D01*
X41181Y-27037D02*
X41181Y-27086D01*
X41210Y-27007D02*
X41181Y-27037D01*
X41397Y-27007D02*
X41210Y-27007D01*
X41427Y-26978D02*
X41397Y-27007D01*
X41427Y-26968D02*
X41427Y-26978D01*
X41427Y-26929D02*
X41427Y-26968D01*
X41397Y-26899D02*
X41427Y-26929D01*
X41210Y-26899D02*
X41397Y-26899D01*
X41181Y-26870D02*
X41210Y-26899D01*
X41181Y-26820D02*
X41181Y-26870D01*
X41210Y-26791D02*
X41181Y-26820D01*
X41397Y-26791D02*
X41210Y-26791D01*
X41427Y-26761D02*
X41397Y-26791D01*
X41427Y-26712D02*
X41427Y-26761D01*
X41397Y-26683D02*
X41427Y-26712D01*
X41210Y-26683D02*
X41397Y-26683D01*
X41181Y-26653D02*
X41210Y-26683D01*
X41181Y-26604D02*
X41181Y-26653D01*
X41210Y-26574D02*
X41181Y-26604D01*
X41389Y-26574D02*
X41210Y-26574D01*
X41421Y-26543D02*
X41389Y-26574D01*
X41421Y-26496D02*
X41421Y-26543D01*
X41389Y-26464D02*
X41421Y-26496D01*
X41212Y-26464D02*
X41389Y-26464D01*
X41181Y-26433D02*
X41212Y-26464D01*
X41181Y-26385D02*
X41181Y-26433D01*
X41208Y-26358D02*
X41181Y-26385D01*
X41397Y-27765D02*
X41427Y-27795D01*
X38316Y-29665D02*
X38198Y-29665D01*
X41703Y-23276D02*
X41062Y-23917D01*
X41062Y-23917D02*
X41062Y-27253D01*
X41062Y-27253D02*
X40994Y-27322D01*
X40994Y-27322D02*
X40708Y-27322D01*
X40708Y-27322D02*
X40679Y-27352D01*
X40679Y-27352D02*
X40679Y-27401D01*
X40679Y-27401D02*
X40708Y-27431D01*
X40708Y-27431D02*
X40994Y-27431D01*
X40994Y-27431D02*
X41023Y-27460D01*
X41023Y-27460D02*
X41023Y-27509D01*
X41023Y-27509D02*
X40994Y-27539D01*
X40994Y-27539D02*
X40708Y-27539D01*
X40708Y-27539D02*
X40679Y-27568D01*
X40679Y-27568D02*
X40679Y-27618D01*
X40679Y-27618D02*
X40708Y-27647D01*
X40708Y-27647D02*
X40994Y-27647D01*
X40994Y-27647D02*
X41023Y-27677D01*
X41023Y-27677D02*
X41023Y-27726D01*
X41023Y-27726D02*
X40994Y-27755D01*
X40994Y-27755D02*
X40708Y-27755D01*
X40708Y-27755D02*
X40679Y-27785D01*
X40679Y-27785D02*
X40679Y-27834D01*
X40679Y-27834D02*
X40708Y-27864D01*
X40708Y-27864D02*
X40994Y-27864D01*
X40994Y-27864D02*
X41023Y-27893D01*
X41023Y-27893D02*
X41023Y-27942D01*
X41023Y-27942D02*
X40994Y-27972D01*
X40994Y-27972D02*
X40708Y-27972D01*
X40708Y-27972D02*
X40679Y-28001D01*
X40679Y-28001D02*
X40679Y-28051D01*
X40679Y-28051D02*
X40708Y-28080D01*
X40708Y-28080D02*
X40994Y-28080D01*
X40994Y-28080D02*
X41023Y-28110D01*
X41023Y-28110D02*
X41023Y-28159D01*
X41023Y-28159D02*
X40994Y-28188D01*
X40994Y-28188D02*
X40708Y-28188D01*
X40708Y-28188D02*
X40679Y-28218D01*
X40679Y-28218D02*
X40679Y-28267D01*
X40679Y-28267D02*
X40708Y-28297D01*
X40708Y-28297D02*
X40994Y-28297D01*
X40994Y-28297D02*
X41023Y-28326D01*
X41023Y-28326D02*
X41023Y-28375D01*
X41023Y-28375D02*
X40994Y-28405D01*
X40994Y-28405D02*
X40708Y-28405D01*
X40708Y-28405D02*
X40679Y-28435D01*
X40679Y-28435D02*
X40679Y-28484D01*
X40679Y-28484D02*
X40708Y-28513D01*
X40708Y-28513D02*
X40994Y-28513D01*
X40994Y-28513D02*
X41023Y-28543D01*
X41023Y-28543D02*
X41023Y-28592D01*
X41023Y-28592D02*
X40994Y-28622D01*
X40994Y-28622D02*
X40708Y-28622D01*
X40708Y-28622D02*
X40679Y-28651D01*
X40679Y-28651D02*
X40679Y-28700D01*
X40679Y-28700D02*
X40708Y-28730D01*
X40708Y-28730D02*
X40994Y-28730D01*
X40994Y-28730D02*
X41023Y-28759D01*
X41023Y-28759D02*
X41023Y-28809D01*
X41023Y-28809D02*
X40994Y-28838D01*
X40994Y-28838D02*
X40708Y-28838D01*
X40708Y-28838D02*
X40679Y-28868D01*
X40679Y-28868D02*
X40679Y-28917D01*
X40679Y-28917D02*
X40708Y-28946D01*
X40708Y-28946D02*
X40994Y-28946D01*
X40994Y-28946D02*
X41023Y-28976D01*
X41023Y-28976D02*
X41023Y-29025D01*
X41023Y-29025D02*
X40994Y-29055D01*
X40994Y-29055D02*
X40610Y-29055D01*
X40610Y-29055D02*
X40590Y-29074D01*
X40590Y-29074D02*
X39744Y-29074D01*
X39744Y-29074D02*
X39714Y-29104D01*
X39714Y-29104D02*
X39714Y-29153D01*
X39714Y-29153D02*
X39744Y-29183D01*
X39744Y-29183D02*
X40541Y-29183D01*
X40541Y-29183D02*
X40570Y-29212D01*
X40570Y-29212D02*
X40570Y-29261D01*
X40570Y-29261D02*
X40541Y-29291D01*
X40541Y-29291D02*
X39744Y-29291D01*
X39744Y-29291D02*
X39714Y-29320D01*
X39714Y-29320D02*
X39616Y-29419D01*
X39616Y-29419D02*
X39586Y-29448D01*
X39586Y-29448D02*
X38464Y-29448D01*
X38464Y-29448D02*
X38435Y-29478D01*
X38435Y-29478D02*
X38435Y-29527D01*
X38435Y-29527D02*
X38464Y-29557D01*
X38464Y-29557D02*
X39340Y-29557D01*
X39340Y-29557D02*
X39370Y-29586D01*
X39370Y-29586D02*
X39370Y-29635D01*
X39370Y-29635D02*
X39340Y-29665D01*
X39340Y-29665D02*
X38316Y-29665D01*
X38013Y-29968D02*
X37726Y-29968D01*
X36968Y-29968D02*
X37726Y-29968D01*
X41703Y-23276D02*
X42322Y-23276D01*
X38100Y-29881D02*
X38013Y-29968D01*
X39330Y-29881D02*
X38100Y-29881D01*
X39360Y-29852D02*
X39330Y-29881D01*
X39360Y-29803D02*
X39360Y-29852D01*
X39330Y-29773D02*
X39360Y-29803D01*
X38198Y-29773D02*
X39330Y-29773D01*
X38169Y-29744D02*
X38198Y-29773D01*
X38169Y-29694D02*
X38169Y-29744D01*
X38198Y-29665D02*
X38169Y-29694D01*
X40206Y-27470D02*
X40206Y-27519D01*
X40950Y-23783D02*
X40807Y-23927D01*
X40807Y-23927D02*
X40777Y-23956D01*
X40777Y-23956D02*
X40777Y-24005D01*
X40777Y-24005D02*
X40807Y-24035D01*
X40807Y-24035D02*
X40915Y-24035D01*
X40915Y-24035D02*
X40944Y-24064D01*
X40944Y-24064D02*
X40944Y-24114D01*
X40944Y-24114D02*
X40915Y-24143D01*
X40915Y-24143D02*
X40807Y-24143D01*
X40807Y-24143D02*
X40797Y-24143D01*
X40797Y-24143D02*
X40767Y-24173D01*
X40767Y-24173D02*
X40767Y-24222D01*
X40767Y-24222D02*
X40797Y-24251D01*
X40797Y-24251D02*
X40915Y-24251D01*
X40915Y-24251D02*
X40944Y-24281D01*
X40944Y-24281D02*
X40944Y-24330D01*
X40944Y-24330D02*
X40915Y-24360D01*
X40915Y-24360D02*
X40797Y-24360D01*
X40797Y-24360D02*
X40767Y-24389D01*
X40767Y-24389D02*
X40767Y-24438D01*
X40767Y-24438D02*
X40797Y-24468D01*
X40797Y-24468D02*
X40915Y-24468D01*
X40915Y-24468D02*
X40944Y-24498D01*
X40944Y-24498D02*
X40944Y-24547D01*
X40944Y-24547D02*
X40915Y-24576D01*
X40915Y-24576D02*
X40797Y-24576D01*
X40797Y-24576D02*
X40767Y-24606D01*
X40767Y-24606D02*
X40767Y-24655D01*
X40767Y-24655D02*
X40797Y-24685D01*
X40797Y-24685D02*
X40915Y-24685D01*
X40915Y-24685D02*
X40944Y-24714D01*
X40944Y-24714D02*
X40944Y-24763D01*
X40944Y-24763D02*
X40915Y-24793D01*
X40915Y-24793D02*
X40797Y-24793D01*
X40797Y-24793D02*
X40767Y-24822D01*
X40767Y-24822D02*
X40767Y-24862D01*
X40767Y-24862D02*
X40807Y-24901D01*
X40807Y-24901D02*
X40915Y-24901D01*
X40915Y-24901D02*
X40944Y-24931D01*
X40944Y-24931D02*
X40944Y-24980D01*
X40944Y-24980D02*
X40915Y-25009D01*
X40915Y-25009D02*
X40797Y-25009D01*
X40797Y-25009D02*
X40767Y-25039D01*
X40767Y-25039D02*
X40767Y-25088D01*
X40767Y-25088D02*
X40797Y-25118D01*
X40797Y-25118D02*
X40915Y-25118D01*
X40915Y-25118D02*
X40944Y-25147D01*
X40944Y-25147D02*
X40944Y-25196D01*
X40944Y-25196D02*
X40915Y-25226D01*
X40915Y-25226D02*
X40797Y-25226D01*
X40797Y-25226D02*
X40767Y-25255D01*
X40767Y-25255D02*
X40767Y-25305D01*
X40767Y-25305D02*
X40797Y-25334D01*
X40797Y-25334D02*
X40915Y-25334D01*
X40915Y-25334D02*
X40944Y-25364D01*
X40944Y-25364D02*
X40944Y-25413D01*
X40944Y-25413D02*
X40915Y-25442D01*
X40915Y-25442D02*
X40797Y-25442D01*
X40797Y-25442D02*
X40767Y-25472D01*
X40767Y-25472D02*
X40767Y-25521D01*
X40767Y-25521D02*
X40797Y-25551D01*
X40797Y-25551D02*
X40915Y-25551D01*
X40915Y-25551D02*
X40944Y-25580D01*
X40944Y-25580D02*
X40944Y-25629D01*
X40944Y-25629D02*
X40915Y-25659D01*
X40915Y-25659D02*
X40797Y-25659D01*
X40797Y-25659D02*
X40767Y-25688D01*
X40767Y-25688D02*
X40767Y-25738D01*
X40767Y-25738D02*
X40797Y-25767D01*
X40797Y-25767D02*
X40915Y-25767D01*
X40915Y-25767D02*
X40944Y-25797D01*
X40944Y-25797D02*
X40944Y-25846D01*
X40944Y-25846D02*
X40915Y-25875D01*
X40915Y-25875D02*
X40797Y-25875D01*
X40797Y-25875D02*
X40767Y-25905D01*
X40767Y-25905D02*
X40767Y-25954D01*
X40767Y-25954D02*
X40797Y-25984D01*
X40797Y-25984D02*
X40915Y-25984D01*
X40915Y-25984D02*
X40944Y-26013D01*
X40944Y-26013D02*
X40944Y-26062D01*
X40944Y-26062D02*
X40915Y-26092D01*
X40915Y-26092D02*
X40797Y-26092D01*
X40797Y-26092D02*
X40767Y-26122D01*
X40767Y-26122D02*
X40767Y-26171D01*
X40767Y-26171D02*
X40797Y-26200D01*
X40797Y-26200D02*
X40915Y-26200D01*
X40915Y-26200D02*
X40944Y-26230D01*
X40944Y-26230D02*
X40944Y-26269D01*
X40944Y-26269D02*
X40944Y-26279D01*
X40944Y-26279D02*
X40915Y-26309D01*
X40915Y-26309D02*
X40797Y-26309D01*
X40797Y-26309D02*
X40767Y-26338D01*
X40767Y-26338D02*
X40767Y-26387D01*
X40767Y-26387D02*
X40797Y-26417D01*
X40797Y-26417D02*
X40915Y-26417D01*
X40915Y-26417D02*
X40944Y-26446D01*
X40944Y-26446D02*
X40944Y-26496D01*
X40944Y-26496D02*
X40915Y-26525D01*
X40915Y-26525D02*
X40826Y-26525D01*
X40826Y-26525D02*
X40787Y-26564D01*
X40787Y-26564D02*
X40787Y-26614D01*
X40787Y-26614D02*
X40816Y-26643D01*
X40816Y-26643D02*
X40915Y-26643D01*
X40915Y-26643D02*
X40944Y-26673D01*
X40944Y-26673D02*
X40944Y-26722D01*
X40944Y-26722D02*
X40915Y-26751D01*
X40915Y-26751D02*
X40816Y-26751D01*
X40816Y-26751D02*
X40787Y-26781D01*
X40787Y-26781D02*
X40787Y-26830D01*
X40787Y-26830D02*
X40816Y-26860D01*
X40816Y-26860D02*
X40915Y-26860D01*
X40915Y-26860D02*
X40944Y-26889D01*
X40944Y-26889D02*
X40944Y-26938D01*
X40944Y-26938D02*
X40915Y-26968D01*
X40915Y-26968D02*
X40816Y-26968D01*
X40816Y-26968D02*
X40787Y-26998D01*
X40787Y-26998D02*
X40787Y-27047D01*
X40787Y-27047D02*
X40816Y-27076D01*
X40816Y-27076D02*
X40915Y-27076D01*
X40915Y-27076D02*
X40944Y-27106D01*
X40944Y-27106D02*
X40944Y-27155D01*
X40944Y-27155D02*
X40915Y-27185D01*
X40915Y-27185D02*
X40698Y-27185D01*
X40698Y-27185D02*
X40659Y-27224D01*
X40659Y-27224D02*
X40305Y-27224D01*
X40305Y-27224D02*
X40275Y-27253D01*
X40275Y-27253D02*
X40275Y-27303D01*
X40275Y-27303D02*
X40305Y-27332D01*
X40305Y-27332D02*
X40541Y-27332D01*
X40541Y-27332D02*
X40570Y-27362D01*
X40570Y-27362D02*
X40570Y-27411D01*
X40570Y-27411D02*
X40541Y-27440D01*
X40541Y-27440D02*
X40236Y-27440D01*
X40236Y-27440D02*
X40206Y-27470D01*
X41023Y-23783D02*
X40950Y-23783D01*
X40570Y-28710D02*
X40541Y-28740D01*
X40570Y-28661D02*
X40570Y-28710D01*
X40541Y-28631D02*
X40570Y-28661D01*
X40078Y-28631D02*
X40541Y-28631D01*
X40049Y-28602D02*
X40078Y-28631D01*
X40049Y-28553D02*
X40049Y-28602D01*
X40078Y-28523D02*
X40049Y-28553D01*
X40541Y-28523D02*
X40078Y-28523D01*
X40570Y-28494D02*
X40541Y-28523D01*
X40570Y-28444D02*
X40570Y-28494D01*
X40541Y-28415D02*
X40570Y-28444D01*
X40098Y-28415D02*
X40541Y-28415D01*
X40068Y-28385D02*
X40098Y-28415D01*
X40068Y-28336D02*
X40068Y-28385D01*
X40098Y-28307D02*
X40068Y-28336D01*
X40541Y-28307D02*
X40098Y-28307D01*
X40570Y-28277D02*
X40541Y-28307D01*
X40570Y-28228D02*
X40570Y-28277D01*
X40541Y-28198D02*
X40570Y-28228D01*
X40147Y-28198D02*
X40541Y-28198D01*
X40118Y-28169D02*
X40147Y-28198D01*
X40118Y-28120D02*
X40118Y-28169D01*
X40147Y-28090D02*
X40118Y-28120D01*
X40541Y-28090D02*
X40147Y-28090D01*
X40570Y-28061D02*
X40541Y-28090D01*
X40570Y-28011D02*
X40570Y-28061D01*
X40541Y-27982D02*
X40570Y-28011D01*
X40187Y-27982D02*
X40541Y-27982D01*
X40157Y-27952D02*
X40187Y-27982D01*
X40157Y-27903D02*
X40157Y-27952D01*
X40187Y-27874D02*
X40157Y-27903D01*
X40541Y-27874D02*
X40187Y-27874D01*
X40570Y-27844D02*
X40541Y-27874D01*
X40570Y-27795D02*
X40570Y-27844D01*
X40541Y-27765D02*
X40570Y-27795D01*
X40187Y-27765D02*
X40541Y-27765D01*
X40157Y-27736D02*
X40187Y-27765D01*
X40157Y-27687D02*
X40157Y-27736D01*
X40187Y-27657D02*
X40157Y-27687D01*
X40541Y-27657D02*
X40187Y-27657D01*
X40570Y-27627D02*
X40541Y-27657D01*
X40570Y-27578D02*
X40570Y-27627D01*
X40541Y-27549D02*
X40570Y-27578D01*
X40236Y-27549D02*
X40541Y-27549D01*
X40206Y-27519D02*
X40236Y-27549D01*
X40541Y-28740D02*
X40561Y-28720D01*
X40561Y-28720D02*
X40541Y-28740D01*
X40541Y-28740D02*
X40531Y-28750D01*
X38041Y-29653D02*
X37421Y-29653D01*
X38364Y-29330D02*
X38041Y-29653D01*
X39498Y-29330D02*
X38364Y-29330D01*
X39606Y-29222D02*
X39498Y-29330D01*
X39606Y-29025D02*
X39606Y-29222D01*
X39665Y-28966D02*
X39606Y-29025D01*
X40541Y-28966D02*
X39665Y-28966D01*
X40570Y-28937D02*
X40541Y-28966D01*
X40570Y-28887D02*
X40570Y-28937D01*
X40541Y-28858D02*
X40570Y-28887D01*
X39635Y-28858D02*
X40541Y-28858D01*
X39606Y-28828D02*
X39635Y-28858D01*
X39606Y-28779D02*
X39606Y-28828D01*
X39635Y-28750D02*
X39606Y-28779D01*
X40531Y-28750D02*
X39635Y-28750D01*
X42322Y-23020D02*
X41786Y-23020D01*
X41786Y-23020D02*
X41023Y-23783D01*
X41023Y-23783D02*
X41023Y-23783D01*
X40720Y-23818D02*
X40718Y-23818D01*
X41774Y-22764D02*
X40720Y-23818D01*
X37746Y-29338D02*
X37342Y-29338D01*
X37342Y-29338D02*
X37208Y-29204D01*
X37208Y-29204D02*
X37208Y-29196D01*
X37208Y-29196D02*
X37185Y-29173D01*
X37185Y-29173D02*
X37185Y-29165D01*
X37185Y-29165D02*
X37051Y-29031D01*
X37051Y-29031D02*
X36645Y-29031D01*
X36496Y-29181D02*
X36645Y-29031D01*
X41774Y-22764D02*
X42322Y-22764D01*
X37881Y-29202D02*
X37746Y-29338D01*
X39379Y-29202D02*
X37881Y-29202D01*
X39409Y-29173D02*
X39379Y-29202D01*
X39409Y-29124D02*
X39409Y-29173D01*
X39379Y-29094D02*
X39409Y-29124D01*
X38080Y-29094D02*
X39379Y-29094D01*
X38051Y-29064D02*
X38080Y-29094D01*
X38051Y-29015D02*
X38051Y-29064D01*
X38080Y-28986D02*
X38051Y-29015D01*
X39399Y-28986D02*
X38080Y-28986D01*
X39429Y-28956D02*
X39399Y-28986D01*
X39429Y-28907D02*
X39429Y-28956D01*
X39399Y-28877D02*
X39429Y-28907D01*
X38267Y-28877D02*
X39399Y-28877D01*
X38238Y-28848D02*
X38267Y-28877D01*
X38238Y-28799D02*
X38238Y-28848D01*
X38267Y-28769D02*
X38238Y-28799D01*
X39448Y-28769D02*
X38267Y-28769D01*
X39498Y-28720D02*
X39448Y-28769D01*
X39498Y-28671D02*
X39498Y-28720D01*
X39527Y-28641D02*
X39498Y-28671D01*
X39901Y-28641D02*
X39527Y-28641D01*
X39931Y-28612D02*
X39901Y-28641D01*
X39931Y-28562D02*
X39931Y-28612D01*
X39901Y-28533D02*
X39931Y-28562D01*
X39665Y-28533D02*
X39901Y-28533D01*
X39635Y-28503D02*
X39665Y-28533D01*
X39635Y-28454D02*
X39635Y-28503D01*
X39665Y-28425D02*
X39635Y-28454D01*
X39931Y-28425D02*
X39665Y-28425D01*
X39960Y-28395D02*
X39931Y-28425D01*
X39960Y-28346D02*
X39960Y-28395D01*
X39931Y-28316D02*
X39960Y-28346D01*
X39675Y-28316D02*
X39931Y-28316D01*
X39645Y-28287D02*
X39675Y-28316D01*
X39645Y-28238D02*
X39645Y-28287D01*
X39675Y-28208D02*
X39645Y-28238D01*
X39960Y-28208D02*
X39675Y-28208D01*
X39990Y-28179D02*
X39960Y-28208D01*
X39990Y-28129D02*
X39990Y-28179D01*
X39960Y-28100D02*
X39990Y-28129D01*
X39665Y-28100D02*
X39960Y-28100D01*
X39635Y-28070D02*
X39665Y-28100D01*
X39635Y-28021D02*
X39635Y-28070D01*
X39665Y-27992D02*
X39635Y-28021D01*
X40019Y-27992D02*
X39665Y-27992D01*
X40049Y-27962D02*
X40019Y-27992D01*
X40049Y-27913D02*
X40049Y-27962D01*
X40019Y-27883D02*
X40049Y-27913D01*
X39783Y-27883D02*
X40019Y-27883D01*
X39773Y-27874D02*
X39783Y-27883D01*
X39753Y-27854D02*
X39773Y-27874D01*
X39753Y-27805D02*
X39753Y-27854D01*
X39783Y-27775D02*
X39753Y-27805D01*
X40019Y-27775D02*
X39783Y-27775D01*
X40049Y-27746D02*
X40019Y-27775D01*
X40049Y-27696D02*
X40049Y-27746D01*
X40019Y-27667D02*
X40049Y-27696D01*
X39793Y-27667D02*
X40019Y-27667D01*
X39763Y-27637D02*
X39793Y-27667D01*
X39763Y-27588D02*
X39763Y-27637D01*
X39793Y-27559D02*
X39763Y-27588D01*
X40059Y-27559D02*
X39793Y-27559D01*
X40098Y-27519D02*
X40059Y-27559D01*
X40098Y-27470D02*
X40098Y-27519D01*
X40068Y-27440D02*
X40098Y-27470D01*
X39872Y-27440D02*
X40068Y-27440D01*
X39842Y-27411D02*
X39872Y-27440D01*
X39842Y-27362D02*
X39842Y-27411D01*
X39872Y-27332D02*
X39842Y-27362D01*
X40118Y-27332D02*
X39872Y-27332D01*
X40147Y-27303D02*
X40118Y-27332D01*
X40147Y-27253D02*
X40147Y-27303D01*
X40118Y-27224D02*
X40147Y-27253D01*
X39901Y-27224D02*
X40118Y-27224D01*
X39872Y-27194D02*
X39901Y-27224D01*
X39872Y-27145D02*
X39872Y-27194D01*
X39901Y-27116D02*
X39872Y-27145D01*
X40305Y-27116D02*
X39901Y-27116D01*
X40324Y-27096D02*
X40305Y-27116D01*
X40639Y-27096D02*
X40324Y-27096D01*
X40669Y-27066D02*
X40639Y-27096D01*
X40669Y-27017D02*
X40669Y-27066D01*
X40639Y-26988D02*
X40669Y-27017D01*
X40383Y-26988D02*
X40639Y-26988D01*
X40354Y-26958D02*
X40383Y-26988D01*
X40354Y-26909D02*
X40354Y-26958D01*
X40383Y-26879D02*
X40354Y-26909D01*
X40639Y-26879D02*
X40383Y-26879D01*
X40669Y-26850D02*
X40639Y-26879D01*
X40669Y-26801D02*
X40669Y-26850D01*
X40639Y-26771D02*
X40669Y-26801D01*
X40383Y-26771D02*
X40639Y-26771D01*
X40354Y-26742D02*
X40383Y-26771D01*
X40354Y-26692D02*
X40354Y-26742D01*
X40383Y-26663D02*
X40354Y-26692D01*
X40639Y-26663D02*
X40383Y-26663D01*
X40669Y-26633D02*
X40639Y-26663D01*
X40669Y-26584D02*
X40669Y-26633D01*
X40639Y-26555D02*
X40669Y-26584D01*
X40383Y-26555D02*
X40639Y-26555D01*
X40354Y-26525D02*
X40383Y-26555D01*
X40354Y-26476D02*
X40354Y-26525D01*
X40383Y-26446D02*
X40354Y-26476D01*
X40423Y-26446D02*
X40383Y-26446D01*
X40551Y-26446D02*
X40423Y-26446D01*
X40639Y-26358D02*
X40551Y-26446D01*
X40639Y-23897D02*
X40639Y-26358D01*
X40718Y-23818D02*
X40639Y-23897D01*
X39350Y-28661D02*
X38196Y-28661D01*
X40856Y-23287D02*
X40856Y-23336D01*
X40856Y-23336D02*
X40925Y-23405D01*
X40925Y-23405D02*
X40925Y-23454D01*
X40925Y-23454D02*
X40895Y-23484D01*
X40895Y-23484D02*
X40846Y-23484D01*
X40846Y-23484D02*
X40767Y-23405D01*
X40767Y-23405D02*
X40728Y-23405D01*
X40728Y-23405D02*
X40688Y-23444D01*
X40688Y-23444D02*
X40688Y-23484D01*
X40688Y-23484D02*
X40767Y-23562D01*
X40767Y-23562D02*
X40767Y-23612D01*
X40767Y-23612D02*
X40738Y-23641D01*
X40738Y-23641D02*
X40688Y-23641D01*
X40688Y-23641D02*
X40600Y-23553D01*
X40600Y-23553D02*
X40551Y-23553D01*
X40551Y-23553D02*
X40521Y-23582D01*
X40521Y-23582D02*
X40521Y-23631D01*
X40521Y-23631D02*
X40610Y-23720D01*
X40610Y-23720D02*
X40610Y-23769D01*
X40610Y-23769D02*
X40580Y-23799D01*
X40580Y-23799D02*
X40531Y-23799D01*
X40531Y-23799D02*
X40442Y-23710D01*
X40442Y-23710D02*
X40393Y-23710D01*
X40393Y-23710D02*
X40364Y-23740D01*
X40364Y-23740D02*
X40364Y-23789D01*
X40364Y-23789D02*
X40452Y-23877D01*
X40452Y-23877D02*
X40452Y-23927D01*
X40452Y-23927D02*
X40423Y-23956D01*
X40423Y-23956D02*
X40383Y-23956D01*
X40383Y-23956D02*
X40354Y-23986D01*
X40354Y-23986D02*
X40354Y-24035D01*
X40354Y-24035D02*
X40383Y-24064D01*
X40383Y-24064D02*
X40492Y-24064D01*
X40492Y-24064D02*
X40521Y-24094D01*
X40521Y-24094D02*
X40521Y-24143D01*
X40521Y-24143D02*
X40492Y-24173D01*
X40492Y-24173D02*
X40383Y-24173D01*
X40383Y-24173D02*
X40354Y-24202D01*
X40354Y-24202D02*
X40354Y-24251D01*
X40354Y-24251D02*
X40383Y-24281D01*
X40383Y-24281D02*
X40492Y-24281D01*
X40492Y-24281D02*
X40521Y-24311D01*
X40521Y-24311D02*
X40521Y-24360D01*
X40521Y-24360D02*
X40492Y-24389D01*
X40492Y-24389D02*
X40383Y-24389D01*
X40383Y-24389D02*
X40354Y-24419D01*
X40354Y-24419D02*
X40354Y-24468D01*
X40354Y-24468D02*
X40383Y-24498D01*
X40383Y-24498D02*
X40492Y-24498D01*
X40492Y-24498D02*
X40521Y-24527D01*
X40521Y-24527D02*
X40521Y-24576D01*
X40521Y-24576D02*
X40492Y-24606D01*
X40492Y-24606D02*
X40383Y-24606D01*
X40383Y-24606D02*
X40354Y-24635D01*
X40354Y-24635D02*
X40354Y-24685D01*
X40354Y-24685D02*
X40383Y-24714D01*
X40383Y-24714D02*
X40492Y-24714D01*
X40492Y-24714D02*
X40521Y-24744D01*
X40521Y-24744D02*
X40521Y-24793D01*
X40521Y-24793D02*
X40492Y-24822D01*
X40492Y-24822D02*
X40383Y-24822D01*
X40383Y-24822D02*
X40354Y-24852D01*
X40354Y-24852D02*
X40354Y-24901D01*
X40354Y-24901D02*
X40383Y-24931D01*
X40383Y-24931D02*
X40501Y-24931D01*
X40501Y-24931D02*
X40531Y-24960D01*
X40531Y-24960D02*
X40531Y-25009D01*
X40531Y-25009D02*
X40501Y-25039D01*
X40501Y-25039D02*
X40383Y-25039D01*
X40383Y-25039D02*
X40354Y-25068D01*
X40354Y-25068D02*
X40354Y-25118D01*
X40354Y-25118D02*
X40383Y-25147D01*
X40383Y-25147D02*
X40501Y-25147D01*
X40501Y-25147D02*
X40531Y-25177D01*
X40531Y-25177D02*
X40531Y-25226D01*
X40531Y-25226D02*
X40501Y-25255D01*
X40501Y-25255D02*
X40383Y-25255D01*
X40383Y-25255D02*
X40354Y-25285D01*
X40354Y-25285D02*
X40354Y-25334D01*
X40354Y-25334D02*
X40383Y-25364D01*
X40383Y-25364D02*
X40501Y-25364D01*
X40501Y-25364D02*
X40531Y-25393D01*
X40531Y-25393D02*
X40531Y-25442D01*
X40531Y-25442D02*
X40501Y-25472D01*
X40501Y-25472D02*
X40383Y-25472D01*
X40383Y-25472D02*
X40354Y-25501D01*
X40354Y-25501D02*
X40354Y-25551D01*
X40354Y-25551D02*
X40383Y-25580D01*
X40383Y-25580D02*
X40501Y-25580D01*
X40501Y-25580D02*
X40531Y-25610D01*
X40531Y-25610D02*
X40531Y-25659D01*
X40531Y-25659D02*
X40501Y-25688D01*
X40501Y-25688D02*
X40374Y-25688D01*
X40374Y-25688D02*
X40383Y-25688D01*
X40383Y-25688D02*
X40354Y-25718D01*
X40354Y-25718D02*
X40354Y-25767D01*
X40354Y-25767D02*
X40383Y-25797D01*
X40383Y-25797D02*
X40501Y-25797D01*
X40501Y-25797D02*
X40531Y-25826D01*
X40531Y-25826D02*
X40531Y-25875D01*
X40531Y-25875D02*
X40501Y-25905D01*
X40501Y-25905D02*
X40383Y-25905D01*
X40383Y-25905D02*
X40354Y-25935D01*
X40354Y-25935D02*
X40354Y-25984D01*
X40354Y-25984D02*
X40383Y-26013D01*
X40383Y-26013D02*
X40501Y-26013D01*
X40501Y-26013D02*
X40531Y-26043D01*
X40531Y-26043D02*
X40531Y-26092D01*
X40531Y-26092D02*
X40501Y-26122D01*
X40501Y-26122D02*
X40383Y-26122D01*
X40383Y-26122D02*
X40354Y-26151D01*
X40354Y-26151D02*
X40354Y-26200D01*
X40354Y-26200D02*
X40383Y-26230D01*
X40383Y-26230D02*
X40501Y-26230D01*
X40501Y-26230D02*
X40531Y-26259D01*
X40531Y-26259D02*
X40531Y-26309D01*
X40531Y-26309D02*
X40501Y-26338D01*
X40501Y-26338D02*
X40098Y-26338D01*
X40098Y-26338D02*
X40078Y-26358D01*
X40078Y-26358D02*
X39980Y-26358D01*
X39980Y-26358D02*
X39950Y-26387D01*
X39950Y-26387D02*
X39950Y-26437D01*
X39950Y-26437D02*
X39980Y-26466D01*
X39980Y-26466D02*
X40206Y-26466D01*
X40206Y-26466D02*
X40236Y-26496D01*
X40236Y-26496D02*
X40236Y-26545D01*
X40236Y-26545D02*
X40206Y-26574D01*
X40206Y-26574D02*
X39980Y-26574D01*
X39980Y-26574D02*
X39950Y-26604D01*
X39950Y-26604D02*
X39950Y-26653D01*
X39950Y-26653D02*
X39980Y-26683D01*
X39980Y-26683D02*
X40206Y-26683D01*
X40206Y-26683D02*
X40236Y-26712D01*
X40236Y-26712D02*
X40236Y-26761D01*
X40236Y-26761D02*
X40206Y-26791D01*
X40206Y-26791D02*
X39980Y-26791D01*
X39980Y-26791D02*
X39950Y-26820D01*
X39950Y-26820D02*
X39950Y-26870D01*
X39950Y-26870D02*
X39980Y-26899D01*
X39980Y-26899D02*
X40206Y-26899D01*
X40206Y-26899D02*
X40236Y-26929D01*
X40236Y-26929D02*
X40236Y-26978D01*
X40236Y-26978D02*
X40206Y-27007D01*
X40206Y-27007D02*
X39832Y-27007D01*
X39832Y-27007D02*
X39803Y-27037D01*
X39803Y-27037D02*
X39596Y-27037D01*
X39596Y-27037D02*
X39566Y-27066D01*
X39566Y-27066D02*
X39566Y-27116D01*
X39566Y-27116D02*
X39596Y-27145D01*
X39596Y-27145D02*
X39724Y-27145D01*
X39724Y-27145D02*
X39753Y-27175D01*
X39753Y-27175D02*
X39753Y-27224D01*
X39753Y-27224D02*
X39724Y-27253D01*
X39724Y-27253D02*
X39537Y-27253D01*
X39537Y-27253D02*
X39507Y-27283D01*
X39507Y-27283D02*
X39507Y-27332D01*
X39507Y-27332D02*
X39537Y-27362D01*
X39537Y-27362D02*
X39694Y-27362D01*
X39694Y-27362D02*
X39724Y-27391D01*
X39724Y-27391D02*
X39724Y-27440D01*
X39724Y-27440D02*
X39694Y-27470D01*
X39694Y-27470D02*
X39458Y-27470D01*
X39458Y-27470D02*
X39429Y-27500D01*
X39429Y-27500D02*
X39429Y-27549D01*
X39429Y-27549D02*
X39458Y-27578D01*
X39458Y-27578D02*
X39625Y-27578D01*
X39625Y-27578D02*
X39655Y-27608D01*
X39655Y-27608D02*
X39655Y-27657D01*
X39655Y-27657D02*
X39625Y-27687D01*
X39625Y-27687D02*
X39438Y-27687D01*
X39438Y-27687D02*
X39409Y-27716D01*
X39409Y-27716D02*
X39409Y-27765D01*
X39409Y-27765D02*
X39438Y-27795D01*
X39438Y-27795D02*
X39606Y-27795D01*
X39606Y-27795D02*
X39635Y-27824D01*
X39635Y-27824D02*
X39635Y-27874D01*
X39635Y-27874D02*
X39606Y-27903D01*
X39606Y-27903D02*
X39409Y-27903D01*
X39409Y-27903D02*
X39379Y-27933D01*
X39379Y-27933D02*
X39379Y-27982D01*
X39379Y-27982D02*
X39350Y-28011D01*
X39350Y-28011D02*
X39311Y-28011D01*
X39311Y-28011D02*
X39281Y-28041D01*
X39281Y-28041D02*
X39281Y-28090D01*
X39281Y-28090D02*
X39311Y-28120D01*
X39311Y-28120D02*
X39498Y-28120D01*
X39498Y-28120D02*
X39527Y-28149D01*
X39527Y-28149D02*
X39527Y-28198D01*
X39527Y-28198D02*
X39498Y-28228D01*
X39498Y-28228D02*
X39320Y-28228D01*
X39320Y-28228D02*
X39291Y-28257D01*
X39291Y-28257D02*
X39291Y-28307D01*
X39291Y-28307D02*
X39320Y-28336D01*
X39320Y-28336D02*
X39488Y-28336D01*
X39488Y-28336D02*
X39517Y-28366D01*
X39517Y-28366D02*
X39517Y-28415D01*
X39517Y-28415D02*
X39488Y-28444D01*
X39488Y-28444D02*
X38198Y-28444D01*
X38198Y-28444D02*
X38169Y-28474D01*
X38169Y-28474D02*
X38169Y-28523D01*
X38169Y-28523D02*
X38198Y-28553D01*
X38198Y-28553D02*
X39350Y-28553D01*
X39350Y-28553D02*
X39379Y-28582D01*
X39379Y-28582D02*
X39379Y-28631D01*
X39379Y-28631D02*
X39350Y-28661D01*
X41005Y-23168D02*
X41005Y-23170D01*
X41762Y-22508D02*
X41328Y-22942D01*
X41328Y-22942D02*
X41200Y-22942D01*
X41200Y-22942D02*
X41190Y-22942D01*
X41190Y-22942D02*
X41161Y-22972D01*
X41161Y-22972D02*
X41161Y-23021D01*
X41161Y-23021D02*
X41250Y-23110D01*
X41250Y-23110D02*
X41250Y-23150D01*
X41250Y-23150D02*
X41215Y-23184D01*
X41215Y-23184D02*
X41175Y-23184D01*
X41175Y-23184D02*
X41082Y-23091D01*
X41082Y-23091D02*
X41034Y-23091D01*
X41034Y-23091D02*
X41005Y-23120D01*
X41005Y-23120D02*
X41005Y-23168D01*
X42322Y-22508D02*
X41762Y-22508D01*
X40925Y-23257D02*
X40885Y-23257D01*
X41003Y-23336D02*
X40925Y-23257D01*
X41053Y-23336D02*
X41003Y-23336D01*
X41092Y-23297D02*
X41053Y-23336D01*
X41092Y-23257D02*
X41092Y-23297D01*
X41005Y-23170D02*
X41092Y-23257D01*
X37834Y-29023D02*
X37421Y-29023D01*
X40885Y-23257D02*
X40856Y-23287D01*
X38196Y-28661D02*
X37834Y-29023D01*
X38316Y-28120D02*
X38169Y-28120D01*
X37726Y-28708D02*
X36968Y-28708D01*
X38108Y-28326D02*
X37726Y-28708D01*
X39143Y-28326D02*
X38108Y-28326D01*
X39173Y-28297D02*
X39143Y-28326D01*
X39173Y-28248D02*
X39173Y-28297D01*
X39143Y-28218D02*
X39173Y-28248D01*
X38169Y-28218D02*
X39143Y-28218D01*
X38139Y-28188D02*
X38169Y-28218D01*
X38139Y-28149D02*
X38139Y-28188D01*
X38169Y-28120D02*
X38139Y-28149D01*
X40098Y-23848D02*
X40068Y-23877D01*
X41112Y-22785D02*
X41082Y-22814D01*
X41082Y-22814D02*
X41082Y-22864D01*
X41082Y-22864D02*
X40098Y-23848D01*
X41652Y-22252D02*
X42322Y-22252D01*
X41289Y-22785D02*
X41240Y-22785D01*
X41318Y-22755D02*
X41289Y-22785D01*
X41318Y-22706D02*
X41318Y-22755D01*
X41210Y-22598D02*
X41318Y-22706D01*
X41210Y-22549D02*
X41210Y-22598D01*
X41240Y-22519D02*
X41210Y-22549D01*
X41289Y-22519D02*
X41240Y-22519D01*
X41397Y-22627D02*
X41289Y-22519D01*
X41446Y-22627D02*
X41397Y-22627D01*
X41476Y-22598D02*
X41446Y-22627D01*
X41476Y-22549D02*
X41476Y-22598D01*
X41368Y-22440D02*
X41476Y-22549D01*
X41368Y-22391D02*
X41368Y-22440D01*
X41397Y-22362D02*
X41368Y-22391D01*
X41446Y-22362D02*
X41397Y-22362D01*
X41555Y-22470D02*
X41446Y-22362D01*
X41604Y-22470D02*
X41555Y-22470D01*
X41633Y-22440D02*
X41604Y-22470D01*
X41633Y-22391D02*
X41633Y-22440D01*
X41525Y-22283D02*
X41633Y-22391D01*
X41525Y-22234D02*
X41525Y-22283D01*
X41555Y-22204D02*
X41525Y-22234D01*
X41604Y-22204D02*
X41555Y-22204D01*
X41652Y-22252D02*
X41604Y-22204D01*
X41240Y-22785D02*
X41112Y-22785D01*
X39143Y-28120D02*
X38316Y-28120D01*
X38316Y-28120D02*
X38314Y-28120D01*
X39173Y-28090D02*
X39143Y-28120D01*
X39173Y-28041D02*
X39173Y-28090D01*
X39143Y-28011D02*
X39173Y-28041D01*
X38444Y-28011D02*
X39143Y-28011D01*
X38405Y-27972D02*
X38444Y-28011D01*
X38405Y-27923D02*
X38405Y-27972D01*
X38444Y-27883D02*
X38405Y-27923D01*
X39242Y-27883D02*
X38444Y-27883D01*
X39271Y-27854D02*
X39242Y-27883D01*
X39271Y-27805D02*
X39271Y-27854D01*
X39242Y-27775D02*
X39271Y-27805D01*
X38986Y-27775D02*
X39242Y-27775D01*
X38956Y-27746D02*
X38986Y-27775D01*
X38956Y-27696D02*
X38956Y-27746D01*
X38986Y-27667D02*
X38956Y-27696D01*
X39271Y-27667D02*
X38986Y-27667D01*
X39301Y-27637D02*
X39271Y-27667D01*
X39301Y-27627D02*
X39301Y-27637D01*
X39301Y-27588D02*
X39301Y-27627D01*
X39271Y-27559D02*
X39301Y-27588D01*
X39094Y-27559D02*
X39271Y-27559D01*
X39064Y-27529D02*
X39094Y-27559D01*
X39064Y-27480D02*
X39064Y-27529D01*
X39094Y-27450D02*
X39064Y-27480D01*
X39320Y-27450D02*
X39094Y-27450D01*
X39350Y-27421D02*
X39320Y-27450D01*
X39350Y-27372D02*
X39350Y-27421D01*
X39320Y-27342D02*
X39350Y-27372D01*
X39153Y-27342D02*
X39320Y-27342D01*
X39124Y-27312D02*
X39153Y-27342D01*
X39124Y-27263D02*
X39124Y-27312D01*
X39153Y-27234D02*
X39124Y-27263D01*
X39370Y-27234D02*
X39153Y-27234D01*
X39399Y-27204D02*
X39370Y-27234D01*
X39399Y-27155D02*
X39399Y-27204D01*
X39370Y-27125D02*
X39399Y-27155D01*
X39242Y-27125D02*
X39370Y-27125D01*
X39212Y-27096D02*
X39242Y-27125D01*
X39212Y-27047D02*
X39212Y-27096D01*
X39242Y-27017D02*
X39212Y-27047D01*
X39438Y-27017D02*
X39242Y-27017D01*
X39498Y-26958D02*
X39438Y-27017D01*
X39498Y-26929D02*
X39498Y-26958D01*
X39517Y-26909D02*
X39498Y-26929D01*
X39803Y-26909D02*
X39517Y-26909D01*
X39832Y-26879D02*
X39803Y-26909D01*
X39832Y-26830D02*
X39832Y-26879D01*
X39803Y-26801D02*
X39832Y-26830D01*
X39547Y-26801D02*
X39803Y-26801D01*
X39517Y-26771D02*
X39547Y-26801D01*
X39517Y-26722D02*
X39517Y-26771D01*
X39547Y-26692D02*
X39517Y-26722D01*
X39803Y-26692D02*
X39547Y-26692D01*
X39832Y-26663D02*
X39803Y-26692D01*
X39832Y-26614D02*
X39832Y-26663D01*
X39803Y-26584D02*
X39832Y-26614D01*
X39547Y-26584D02*
X39803Y-26584D01*
X39517Y-26555D02*
X39547Y-26584D01*
X39517Y-26505D02*
X39517Y-26555D01*
X39547Y-26476D02*
X39517Y-26505D01*
X39803Y-26476D02*
X39547Y-26476D01*
X39832Y-26446D02*
X39803Y-26476D01*
X39832Y-26397D02*
X39832Y-26446D01*
X39803Y-26368D02*
X39832Y-26397D01*
X39547Y-26368D02*
X39803Y-26368D01*
X39517Y-26338D02*
X39547Y-26368D01*
X39517Y-26289D02*
X39517Y-26338D01*
X39566Y-26240D02*
X39517Y-26289D01*
X40068Y-26240D02*
X39566Y-26240D01*
X40078Y-26230D02*
X40068Y-26240D01*
X40216Y-26230D02*
X40078Y-26230D01*
X40246Y-26200D02*
X40216Y-26230D01*
X40246Y-26151D02*
X40246Y-26200D01*
X40216Y-26122D02*
X40246Y-26151D01*
X40078Y-26122D02*
X40216Y-26122D01*
X40049Y-26092D02*
X40078Y-26122D01*
X40049Y-26043D02*
X40049Y-26092D01*
X40078Y-26013D02*
X40049Y-26043D01*
X40216Y-26013D02*
X40078Y-26013D01*
X40246Y-25984D02*
X40216Y-26013D01*
X40246Y-25935D02*
X40246Y-25984D01*
X40216Y-25905D02*
X40246Y-25935D01*
X40078Y-25905D02*
X40216Y-25905D01*
X40049Y-25875D02*
X40078Y-25905D01*
X40049Y-25826D02*
X40049Y-25875D01*
X40078Y-25797D02*
X40049Y-25826D01*
X40216Y-25797D02*
X40078Y-25797D01*
X40246Y-25767D02*
X40216Y-25797D01*
X40246Y-25718D02*
X40246Y-25767D01*
X40216Y-25688D02*
X40246Y-25718D01*
X40088Y-25688D02*
X40216Y-25688D01*
X40059Y-25659D02*
X40088Y-25688D01*
X40059Y-25610D02*
X40059Y-25659D01*
X40088Y-25580D02*
X40059Y-25610D01*
X40216Y-25580D02*
X40088Y-25580D01*
X40246Y-25551D02*
X40216Y-25580D01*
X40246Y-25501D02*
X40246Y-25551D01*
X40216Y-25472D02*
X40246Y-25501D01*
X40088Y-25472D02*
X40216Y-25472D01*
X40059Y-25442D02*
X40088Y-25472D01*
X40059Y-25393D02*
X40059Y-25442D01*
X40088Y-25364D02*
X40059Y-25393D01*
X40216Y-25364D02*
X40088Y-25364D01*
X40246Y-25334D02*
X40216Y-25364D01*
X40246Y-25285D02*
X40246Y-25334D01*
X40216Y-25255D02*
X40246Y-25285D01*
X40088Y-25255D02*
X40216Y-25255D01*
X40059Y-25226D02*
X40088Y-25255D01*
X40059Y-25177D02*
X40059Y-25226D01*
X40088Y-25147D02*
X40059Y-25177D01*
X40216Y-25147D02*
X40088Y-25147D01*
X40246Y-25118D02*
X40216Y-25147D01*
X40246Y-25068D02*
X40246Y-25118D01*
X40216Y-25039D02*
X40246Y-25068D01*
X40088Y-25039D02*
X40216Y-25039D01*
X40059Y-25009D02*
X40088Y-25039D01*
X40059Y-24960D02*
X40059Y-25009D01*
X40088Y-24931D02*
X40059Y-24960D01*
X40216Y-24931D02*
X40088Y-24931D01*
X40246Y-24901D02*
X40216Y-24931D01*
X40246Y-24852D02*
X40246Y-24901D01*
X40216Y-24822D02*
X40246Y-24852D01*
X40088Y-24822D02*
X40216Y-24822D01*
X40059Y-24793D02*
X40088Y-24822D01*
X40059Y-24744D02*
X40059Y-24793D01*
X40088Y-24714D02*
X40059Y-24744D01*
X40216Y-24714D02*
X40088Y-24714D01*
X40246Y-24685D02*
X40216Y-24714D01*
X40246Y-24635D02*
X40246Y-24685D01*
X40216Y-24606D02*
X40246Y-24635D01*
X40088Y-24606D02*
X40216Y-24606D01*
X40059Y-24576D02*
X40088Y-24606D01*
X40059Y-24527D02*
X40059Y-24576D01*
X40088Y-24498D02*
X40059Y-24527D01*
X40216Y-24498D02*
X40088Y-24498D01*
X40246Y-24468D02*
X40216Y-24498D01*
X40246Y-24419D02*
X40246Y-24468D01*
X40216Y-24389D02*
X40246Y-24419D01*
X40088Y-24389D02*
X40216Y-24389D01*
X40059Y-24360D02*
X40088Y-24389D01*
X40059Y-24311D02*
X40059Y-24360D01*
X40088Y-24281D02*
X40059Y-24311D01*
X40216Y-24281D02*
X40088Y-24281D01*
X40246Y-24251D02*
X40216Y-24281D01*
X40246Y-24202D02*
X40246Y-24251D01*
X40216Y-24173D02*
X40246Y-24202D01*
X40088Y-24173D02*
X40216Y-24173D01*
X40059Y-24143D02*
X40088Y-24173D01*
X40059Y-24094D02*
X40059Y-24143D01*
X40088Y-24064D02*
X40059Y-24094D01*
X40206Y-24064D02*
X40088Y-24064D01*
X40236Y-24035D02*
X40206Y-24064D01*
X40236Y-23986D02*
X40236Y-24035D01*
X40206Y-23956D02*
X40236Y-23986D01*
X40098Y-23956D02*
X40206Y-23956D01*
X40068Y-23927D02*
X40098Y-23956D01*
X40068Y-23877D02*
X40068Y-23927D01*
X39665Y-24616D02*
X39665Y-24635D01*
X36968Y-28078D02*
X37706Y-28078D01*
X39901Y-23622D02*
X39852Y-23622D01*
X39852Y-23622D02*
X39822Y-23651D01*
X39822Y-23651D02*
X39822Y-23700D01*
X39822Y-23700D02*
X39940Y-23818D01*
X39940Y-23818D02*
X39940Y-23868D01*
X39940Y-23868D02*
X39911Y-23897D01*
X39911Y-23897D02*
X39714Y-23897D01*
X39714Y-23897D02*
X39685Y-23927D01*
X39685Y-23927D02*
X39685Y-23976D01*
X39685Y-23976D02*
X39714Y-24005D01*
X39714Y-24005D02*
X39911Y-24005D01*
X39911Y-24005D02*
X39940Y-24035D01*
X39940Y-24035D02*
X39940Y-24084D01*
X39940Y-24084D02*
X39911Y-24114D01*
X39911Y-24114D02*
X39694Y-24114D01*
X39694Y-24114D02*
X39665Y-24143D01*
X39665Y-24143D02*
X39665Y-24192D01*
X39665Y-24192D02*
X39694Y-24222D01*
X39694Y-24222D02*
X39911Y-24222D01*
X39911Y-24222D02*
X39940Y-24251D01*
X39940Y-24251D02*
X39940Y-24301D01*
X39940Y-24301D02*
X39911Y-24330D01*
X39911Y-24330D02*
X39694Y-24330D01*
X39694Y-24330D02*
X39665Y-24360D01*
X39665Y-24360D02*
X39665Y-24409D01*
X39665Y-24409D02*
X39694Y-24438D01*
X39694Y-24438D02*
X39911Y-24438D01*
X39911Y-24438D02*
X39940Y-24468D01*
X39940Y-24468D02*
X39940Y-24517D01*
X39940Y-24517D02*
X39911Y-24547D01*
X39911Y-24547D02*
X39694Y-24547D01*
X39694Y-24547D02*
X39665Y-24576D01*
X39665Y-24576D02*
X39665Y-24616D01*
X41417Y-22145D02*
X41417Y-22194D01*
X41408Y-21998D02*
X42322Y-21998D01*
X41417Y-22145D02*
X41269Y-21998D01*
X41299Y-21938D02*
X41269Y-21968D01*
X41348Y-21938D02*
X41299Y-21938D01*
X41408Y-21998D02*
X41348Y-21938D01*
X41269Y-21968D02*
X41269Y-21998D01*
X40059Y-23730D02*
X40009Y-23730D01*
X40088Y-23700D02*
X40059Y-23730D01*
X40088Y-23651D02*
X40088Y-23700D01*
X39970Y-23533D02*
X40088Y-23651D01*
X39970Y-23484D02*
X39970Y-23533D01*
X40000Y-23454D02*
X39970Y-23484D01*
X40049Y-23454D02*
X40000Y-23454D01*
X40167Y-23572D02*
X40049Y-23454D01*
X40216Y-23572D02*
X40167Y-23572D01*
X40246Y-23543D02*
X40216Y-23572D01*
X40246Y-23494D02*
X40246Y-23543D01*
X40127Y-23375D02*
X40246Y-23494D01*
X40127Y-23326D02*
X40127Y-23375D01*
X40157Y-23297D02*
X40127Y-23326D01*
X40206Y-23297D02*
X40157Y-23297D01*
X40324Y-23415D02*
X40206Y-23297D01*
X40371Y-23415D02*
X40324Y-23415D01*
X40402Y-23384D02*
X40371Y-23415D01*
X40402Y-23336D02*
X40402Y-23384D01*
X40284Y-23219D02*
X40402Y-23336D01*
X40284Y-23169D02*
X40284Y-23219D01*
X40314Y-23139D02*
X40284Y-23169D01*
X40364Y-23139D02*
X40314Y-23139D01*
X40482Y-23257D02*
X40364Y-23139D01*
X40528Y-23257D02*
X40482Y-23257D01*
X40559Y-23226D02*
X40528Y-23257D01*
X40559Y-23179D02*
X40559Y-23226D01*
X40442Y-23061D02*
X40559Y-23179D01*
X40442Y-23012D02*
X40442Y-23061D01*
X40472Y-22982D02*
X40442Y-23012D01*
X40521Y-22982D02*
X40472Y-22982D01*
X40639Y-23100D02*
X40521Y-22982D01*
X40688Y-23100D02*
X40639Y-23100D01*
X40698Y-23090D02*
X40688Y-23100D01*
X40718Y-23070D02*
X40698Y-23090D01*
X40718Y-23021D02*
X40718Y-23070D01*
X40599Y-22902D02*
X40718Y-23021D01*
X40599Y-22855D02*
X40599Y-22902D01*
X40629Y-22824D02*
X40599Y-22855D01*
X40679Y-22824D02*
X40629Y-22824D01*
X40787Y-22933D02*
X40679Y-22824D01*
X40836Y-22933D02*
X40787Y-22933D01*
X40866Y-22903D02*
X40836Y-22933D01*
X40866Y-22854D02*
X40866Y-22903D01*
X40757Y-22745D02*
X40866Y-22854D01*
X40757Y-22697D02*
X40757Y-22745D01*
X40787Y-22667D02*
X40757Y-22697D01*
X40836Y-22667D02*
X40787Y-22667D01*
X40935Y-22765D02*
X40836Y-22667D01*
X40984Y-22765D02*
X40935Y-22765D01*
X41013Y-22736D02*
X40984Y-22765D01*
X41013Y-22687D02*
X41013Y-22736D01*
X40807Y-22480D02*
X41013Y-22687D01*
X40807Y-22431D02*
X40807Y-22480D01*
X40836Y-22401D02*
X40807Y-22431D01*
X40885Y-22401D02*
X40836Y-22401D01*
X41023Y-22539D02*
X40885Y-22401D01*
X41072Y-22539D02*
X41023Y-22539D01*
X41102Y-22509D02*
X41072Y-22539D01*
X41102Y-22460D02*
X41102Y-22509D01*
X40958Y-22317D02*
X41102Y-22460D01*
X40958Y-22279D02*
X40958Y-22317D01*
X40994Y-22244D02*
X40958Y-22279D01*
X41043Y-22244D02*
X40994Y-22244D01*
X41181Y-22381D02*
X41043Y-22244D01*
X41230Y-22381D02*
X41181Y-22381D01*
X41259Y-22352D02*
X41230Y-22381D01*
X41259Y-22303D02*
X41259Y-22352D01*
X41122Y-22165D02*
X41259Y-22303D01*
X41122Y-22116D02*
X41122Y-22165D01*
X41151Y-22086D02*
X41122Y-22116D01*
X41200Y-22086D02*
X41151Y-22086D01*
X41338Y-22224D02*
X41200Y-22086D01*
X41387Y-22224D02*
X41338Y-22224D01*
X41417Y-22194D02*
X41387Y-22224D01*
X40009Y-23730D02*
X39901Y-23622D01*
X37964Y-28078D02*
X37706Y-28078D01*
X38267Y-27775D02*
X37964Y-28078D01*
X38809Y-27775D02*
X38267Y-27775D01*
X38838Y-27746D02*
X38809Y-27775D01*
X38838Y-27696D02*
X38838Y-27746D01*
X38809Y-27667D02*
X38838Y-27696D01*
X38454Y-27667D02*
X38809Y-27667D01*
X38425Y-27637D02*
X38454Y-27667D01*
X38425Y-27588D02*
X38425Y-27637D01*
X38454Y-27559D02*
X38425Y-27588D01*
X38464Y-27559D02*
X38454Y-27559D01*
X38917Y-27559D02*
X38464Y-27559D01*
X38946Y-27529D02*
X38917Y-27559D01*
X38946Y-27480D02*
X38946Y-27529D01*
X38917Y-27450D02*
X38946Y-27480D01*
X38641Y-27450D02*
X38917Y-27450D01*
X38612Y-27421D02*
X38641Y-27450D01*
X38612Y-27372D02*
X38612Y-27421D01*
X38641Y-27342D02*
X38612Y-27372D01*
X38651Y-27342D02*
X38641Y-27342D01*
X38976Y-27342D02*
X38651Y-27342D01*
X39005Y-27312D02*
X38976Y-27342D01*
X39005Y-27263D02*
X39005Y-27312D01*
X38976Y-27234D02*
X39005Y-27263D01*
X38809Y-27234D02*
X38976Y-27234D01*
X38789Y-27214D02*
X38809Y-27234D01*
X38789Y-27165D02*
X38789Y-27214D01*
X38818Y-27135D02*
X38789Y-27165D01*
X39064Y-27135D02*
X38818Y-27135D01*
X39094Y-27106D02*
X39064Y-27135D01*
X39094Y-27057D02*
X39094Y-27106D01*
X39064Y-27027D02*
X39094Y-27057D01*
X38946Y-27027D02*
X39064Y-27027D01*
X38917Y-26998D02*
X38946Y-27027D01*
X38917Y-26948D02*
X38917Y-26998D01*
X38946Y-26919D02*
X38917Y-26948D01*
X38996Y-26919D02*
X38946Y-26919D01*
X39183Y-26919D02*
X38996Y-26919D01*
X39370Y-26919D02*
X39183Y-26919D01*
X39399Y-26889D02*
X39370Y-26919D01*
X39399Y-26840D02*
X39399Y-26889D01*
X39370Y-26811D02*
X39399Y-26840D01*
X39183Y-26811D02*
X39370Y-26811D01*
X39153Y-26781D02*
X39183Y-26811D01*
X39153Y-26732D02*
X39153Y-26781D01*
X39183Y-26702D02*
X39153Y-26732D01*
X39370Y-26702D02*
X39183Y-26702D01*
X39399Y-26673D02*
X39370Y-26702D01*
X39399Y-26624D02*
X39399Y-26673D01*
X39370Y-26594D02*
X39399Y-26624D01*
X39183Y-26594D02*
X39370Y-26594D01*
X39153Y-26564D02*
X39183Y-26594D01*
X39153Y-26515D02*
X39153Y-26564D01*
X39183Y-26486D02*
X39153Y-26515D01*
X39370Y-26486D02*
X39183Y-26486D01*
X39399Y-26456D02*
X39370Y-26486D01*
X39399Y-26407D02*
X39399Y-26456D01*
X39370Y-26377D02*
X39399Y-26407D01*
X39192Y-26377D02*
X39370Y-26377D01*
X39163Y-26348D02*
X39192Y-26377D01*
X39163Y-26299D02*
X39163Y-26348D01*
X39232Y-26230D02*
X39163Y-26299D01*
X39291Y-26230D02*
X39232Y-26230D01*
X39448Y-26072D02*
X39291Y-26230D01*
X39911Y-26072D02*
X39448Y-26072D01*
X39940Y-26043D02*
X39911Y-26072D01*
X39940Y-25994D02*
X39940Y-26043D01*
X39911Y-25964D02*
X39940Y-25994D01*
X39901Y-25964D02*
X39911Y-25964D01*
X39714Y-25964D02*
X39901Y-25964D01*
X39685Y-25935D02*
X39714Y-25964D01*
X39685Y-25885D02*
X39685Y-25935D01*
X39714Y-25856D02*
X39685Y-25885D01*
X39911Y-25856D02*
X39714Y-25856D01*
X39940Y-25826D02*
X39911Y-25856D01*
X39940Y-25777D02*
X39940Y-25826D01*
X39911Y-25748D02*
X39940Y-25777D01*
X39714Y-25748D02*
X39911Y-25748D01*
X39685Y-25718D02*
X39714Y-25748D01*
X39685Y-25669D02*
X39685Y-25718D01*
X39714Y-25639D02*
X39685Y-25669D01*
X39911Y-25639D02*
X39714Y-25639D01*
X39940Y-25610D02*
X39911Y-25639D01*
X39940Y-25561D02*
X39940Y-25610D01*
X39911Y-25531D02*
X39940Y-25561D01*
X39714Y-25531D02*
X39911Y-25531D01*
X39685Y-25501D02*
X39714Y-25531D01*
X39685Y-25452D02*
X39685Y-25501D01*
X39714Y-25423D02*
X39685Y-25452D01*
X39911Y-25423D02*
X39714Y-25423D01*
X39940Y-25393D02*
X39911Y-25423D01*
X39940Y-25344D02*
X39940Y-25393D01*
X39911Y-25314D02*
X39940Y-25344D01*
X39714Y-25314D02*
X39911Y-25314D01*
X39685Y-25285D02*
X39714Y-25314D01*
X39685Y-25236D02*
X39685Y-25285D01*
X39714Y-25206D02*
X39685Y-25236D01*
X39911Y-25206D02*
X39714Y-25206D01*
X39940Y-25177D02*
X39911Y-25206D01*
X39940Y-25127D02*
X39940Y-25177D01*
X39911Y-25098D02*
X39940Y-25127D01*
X39724Y-25098D02*
X39911Y-25098D01*
X39694Y-25068D02*
X39724Y-25098D01*
X39694Y-25019D02*
X39694Y-25068D01*
X39724Y-24990D02*
X39694Y-25019D01*
X39704Y-24990D02*
X39724Y-24990D01*
X39911Y-24990D02*
X39704Y-24990D01*
X39940Y-24960D02*
X39911Y-24990D01*
X39940Y-24911D02*
X39940Y-24960D01*
X39911Y-24881D02*
X39940Y-24911D01*
X39714Y-24881D02*
X39911Y-24881D01*
X39685Y-24852D02*
X39714Y-24881D01*
X39685Y-24803D02*
X39685Y-24852D01*
X39714Y-24773D02*
X39685Y-24803D01*
X39911Y-24773D02*
X39714Y-24773D01*
X39940Y-24744D02*
X39911Y-24773D01*
X39940Y-24694D02*
X39940Y-24744D01*
X39911Y-24665D02*
X39940Y-24694D01*
X39694Y-24665D02*
X39911Y-24665D01*
X39665Y-24635D02*
X39694Y-24665D01*
X39291Y-26013D02*
X39291Y-26053D01*
X38003Y-27763D02*
X37883Y-27763D01*
X37883Y-27763D02*
X37421Y-27763D01*
X38789Y-26978D02*
X38003Y-27763D01*
X38789Y-26879D02*
X38789Y-26978D01*
X38759Y-26850D02*
X38789Y-26879D01*
X38759Y-26801D02*
X38759Y-26850D01*
X38789Y-26771D02*
X38759Y-26801D01*
X39015Y-26771D02*
X38789Y-26771D01*
X39045Y-26742D02*
X39015Y-26771D01*
X39045Y-26692D02*
X39045Y-26742D01*
X39015Y-26663D02*
X39045Y-26692D01*
X38789Y-26663D02*
X39015Y-26663D01*
X38759Y-26633D02*
X38789Y-26663D01*
X38759Y-26584D02*
X38759Y-26633D01*
X38789Y-26555D02*
X38759Y-26584D01*
X39015Y-26555D02*
X38789Y-26555D01*
X39045Y-26525D02*
X39015Y-26555D01*
X39045Y-26476D02*
X39045Y-26525D01*
X39015Y-26446D02*
X39045Y-26476D01*
X38789Y-26446D02*
X39015Y-26446D01*
X38759Y-26417D02*
X38789Y-26446D01*
X38759Y-26368D02*
X38759Y-26417D01*
X38789Y-26338D02*
X38759Y-26368D01*
X39015Y-26338D02*
X38789Y-26338D01*
X39045Y-26309D02*
X39015Y-26338D01*
X39045Y-26259D02*
X39045Y-26309D01*
X39015Y-26230D02*
X39045Y-26259D01*
X38907Y-26230D02*
X39015Y-26230D01*
X38877Y-26200D02*
X38907Y-26230D01*
X38877Y-26151D02*
X38877Y-26200D01*
X38907Y-26122D02*
X38877Y-26151D01*
X39222Y-26122D02*
X38907Y-26122D01*
X39291Y-26053D02*
X39222Y-26122D01*
X39921Y-23041D02*
X40068Y-23188D01*
X41347Y-21742D02*
X40777Y-22312D01*
X40777Y-22312D02*
X40639Y-22312D01*
X40639Y-22312D02*
X40580Y-22312D01*
X40580Y-22312D02*
X40541Y-22352D01*
X40541Y-22352D02*
X40541Y-22401D01*
X40541Y-22401D02*
X40570Y-22431D01*
X40570Y-22431D02*
X40669Y-22529D01*
X40669Y-22529D02*
X40698Y-22559D01*
X40698Y-22559D02*
X40698Y-22608D01*
X40698Y-22608D02*
X40669Y-22637D01*
X40669Y-22637D02*
X40620Y-22637D01*
X40620Y-22637D02*
X40472Y-22490D01*
X40472Y-22490D02*
X40423Y-22490D01*
X40423Y-22490D02*
X40393Y-22519D01*
X40393Y-22519D02*
X40393Y-22568D01*
X40393Y-22568D02*
X40541Y-22716D01*
X40541Y-22716D02*
X40541Y-22765D01*
X40541Y-22765D02*
X40511Y-22795D01*
X40511Y-22795D02*
X40462Y-22795D01*
X40462Y-22795D02*
X40314Y-22647D01*
X40314Y-22647D02*
X40265Y-22647D01*
X40265Y-22647D02*
X40236Y-22677D01*
X40236Y-22677D02*
X40236Y-22726D01*
X40236Y-22726D02*
X40383Y-22874D01*
X40383Y-22874D02*
X40383Y-22923D01*
X40383Y-22923D02*
X40354Y-22952D01*
X40354Y-22952D02*
X40305Y-22952D01*
X40305Y-22952D02*
X40157Y-22805D01*
X40157Y-22805D02*
X40118Y-22805D01*
X40118Y-22805D02*
X40108Y-22805D01*
X40108Y-22805D02*
X40078Y-22834D01*
X40078Y-22834D02*
X40078Y-22883D01*
X40078Y-22883D02*
X40226Y-23031D01*
X40226Y-23031D02*
X40226Y-23080D01*
X40226Y-23080D02*
X40196Y-23110D01*
X40196Y-23110D02*
X40147Y-23110D01*
X40147Y-23110D02*
X40000Y-22962D01*
X40000Y-22962D02*
X39950Y-22962D01*
X39950Y-22962D02*
X39921Y-22992D01*
X39921Y-22992D02*
X39921Y-23041D01*
X41347Y-21742D02*
X42322Y-21742D01*
X39291Y-25974D02*
X39291Y-26013D01*
X39291Y-26013D02*
X39291Y-26023D01*
X39320Y-25944D02*
X39291Y-25974D01*
X39537Y-25944D02*
X39320Y-25944D01*
X39566Y-25915D02*
X39537Y-25944D01*
X39566Y-25866D02*
X39566Y-25915D01*
X39537Y-25836D02*
X39566Y-25866D01*
X39320Y-25836D02*
X39537Y-25836D01*
X39291Y-25807D02*
X39320Y-25836D01*
X39291Y-25757D02*
X39291Y-25807D01*
X39320Y-25728D02*
X39291Y-25757D01*
X39537Y-25728D02*
X39320Y-25728D01*
X39566Y-25698D02*
X39537Y-25728D01*
X39566Y-25649D02*
X39566Y-25698D01*
X39537Y-25620D02*
X39566Y-25649D01*
X39320Y-25620D02*
X39537Y-25620D01*
X39291Y-25590D02*
X39320Y-25620D01*
X39291Y-25541D02*
X39291Y-25590D01*
X39320Y-25511D02*
X39291Y-25541D01*
X39537Y-25511D02*
X39320Y-25511D01*
X39566Y-25482D02*
X39537Y-25511D01*
X39566Y-25433D02*
X39566Y-25482D01*
X39537Y-25403D02*
X39566Y-25433D01*
X39320Y-25403D02*
X39537Y-25403D01*
X39291Y-25374D02*
X39320Y-25403D01*
X39291Y-25324D02*
X39291Y-25374D01*
X39320Y-25295D02*
X39291Y-25324D01*
X39537Y-25295D02*
X39320Y-25295D01*
X39566Y-25265D02*
X39537Y-25295D01*
X39566Y-25216D02*
X39566Y-25265D01*
X39537Y-25187D02*
X39566Y-25216D01*
X39320Y-25187D02*
X39537Y-25187D01*
X39291Y-25157D02*
X39320Y-25187D01*
X39291Y-25108D02*
X39291Y-25157D01*
X39320Y-25078D02*
X39291Y-25108D01*
X39537Y-25078D02*
X39320Y-25078D01*
X39566Y-25049D02*
X39537Y-25078D01*
X39566Y-25000D02*
X39566Y-25049D01*
X39537Y-24970D02*
X39566Y-25000D01*
X39320Y-24970D02*
X39537Y-24970D01*
X39291Y-24940D02*
X39320Y-24970D01*
X39291Y-24891D02*
X39291Y-24940D01*
X39320Y-24862D02*
X39291Y-24891D01*
X39537Y-24862D02*
X39320Y-24862D01*
X39566Y-24832D02*
X39537Y-24862D01*
X39566Y-24783D02*
X39566Y-24832D01*
X39537Y-24753D02*
X39566Y-24783D01*
X39320Y-24753D02*
X39537Y-24753D01*
X39291Y-24724D02*
X39320Y-24753D01*
X39291Y-24675D02*
X39291Y-24724D01*
X39320Y-24645D02*
X39291Y-24675D01*
X39537Y-24645D02*
X39320Y-24645D01*
X39566Y-24616D02*
X39537Y-24645D01*
X39566Y-24566D02*
X39566Y-24616D01*
X39537Y-24537D02*
X39566Y-24566D01*
X39320Y-24537D02*
X39537Y-24537D01*
X39291Y-24507D02*
X39320Y-24537D01*
X39291Y-24458D02*
X39291Y-24507D01*
X39320Y-24429D02*
X39291Y-24458D01*
X39537Y-24429D02*
X39320Y-24429D01*
X39566Y-24399D02*
X39537Y-24429D01*
X39566Y-24350D02*
X39566Y-24399D01*
X39537Y-24320D02*
X39566Y-24350D01*
X39320Y-24320D02*
X39537Y-24320D01*
X39291Y-24291D02*
X39320Y-24320D01*
X39291Y-24242D02*
X39291Y-24291D01*
X39320Y-24212D02*
X39291Y-24242D01*
X39537Y-24212D02*
X39320Y-24212D01*
X39566Y-24183D02*
X39537Y-24212D01*
X39566Y-24133D02*
X39566Y-24183D01*
X39537Y-24104D02*
X39566Y-24133D01*
X39320Y-24104D02*
X39537Y-24104D01*
X39291Y-24074D02*
X39320Y-24104D01*
X39291Y-24025D02*
X39291Y-24074D01*
X39320Y-23996D02*
X39291Y-24025D01*
X39537Y-23996D02*
X39320Y-23996D01*
X39566Y-23966D02*
X39537Y-23996D01*
X39566Y-23917D02*
X39566Y-23966D01*
X39537Y-23887D02*
X39566Y-23917D01*
X39478Y-23887D02*
X39537Y-23887D01*
X39301Y-23710D02*
X39478Y-23887D01*
X39301Y-23661D02*
X39301Y-23710D01*
X39330Y-23631D02*
X39301Y-23661D01*
X39379Y-23631D02*
X39330Y-23631D01*
X39507Y-23759D02*
X39379Y-23631D01*
X39557Y-23759D02*
X39507Y-23759D01*
X39586Y-23730D02*
X39557Y-23759D01*
X39586Y-23720D02*
X39586Y-23730D01*
X39586Y-23681D02*
X39586Y-23720D01*
X39458Y-23553D02*
X39586Y-23681D01*
X39458Y-23503D02*
X39458Y-23553D01*
X39488Y-23474D02*
X39458Y-23503D01*
X39537Y-23474D02*
X39488Y-23474D01*
X39665Y-23602D02*
X39537Y-23474D01*
X39714Y-23602D02*
X39665Y-23602D01*
X39744Y-23572D02*
X39714Y-23602D01*
X39744Y-23523D02*
X39744Y-23572D01*
X39616Y-23395D02*
X39744Y-23523D01*
X39616Y-23346D02*
X39616Y-23395D01*
X39655Y-23307D02*
X39616Y-23346D01*
X39694Y-23307D02*
X39655Y-23307D01*
X39822Y-23435D02*
X39694Y-23307D01*
X39872Y-23435D02*
X39822Y-23435D01*
X39911Y-23395D02*
X39872Y-23435D01*
X39911Y-23346D02*
X39911Y-23395D01*
X39783Y-23218D02*
X39911Y-23346D01*
X39783Y-23179D02*
X39783Y-23218D01*
X39822Y-23139D02*
X39783Y-23179D01*
X39862Y-23139D02*
X39822Y-23139D01*
X39990Y-23267D02*
X39862Y-23139D01*
X40039Y-23267D02*
X39990Y-23267D01*
X40068Y-23238D02*
X40039Y-23267D01*
X40068Y-23188D02*
X40068Y-23238D01*
X40265Y-22165D02*
X40403Y-22303D01*
X37746Y-27437D02*
X37330Y-27437D01*
X37330Y-27437D02*
X37204Y-27311D01*
X37204Y-27311D02*
X37204Y-27303D01*
X37204Y-27303D02*
X37188Y-27287D01*
X37188Y-27287D02*
X37188Y-27283D01*
X37188Y-27283D02*
X37177Y-27271D01*
X37177Y-27271D02*
X37177Y-27263D01*
X37177Y-27263D02*
X37066Y-27153D01*
X37066Y-27153D02*
X36633Y-27153D01*
X36496Y-27291D02*
X36633Y-27153D01*
X41111Y-21486D02*
X40521Y-22076D01*
X40521Y-22076D02*
X40305Y-22076D01*
X40305Y-22076D02*
X40265Y-22116D01*
X40265Y-22116D02*
X40265Y-22165D01*
X41111Y-21486D02*
X41555Y-21486D01*
X37996Y-27437D02*
X37746Y-27437D01*
X38651Y-26781D02*
X37996Y-27437D01*
X38651Y-26230D02*
X38651Y-26781D01*
X38907Y-25974D02*
X38651Y-26230D01*
X38937Y-25944D02*
X38907Y-25974D01*
X39173Y-25944D02*
X38937Y-25944D01*
X39202Y-25915D02*
X39173Y-25944D01*
X39202Y-25866D02*
X39202Y-25915D01*
X39173Y-25836D02*
X39202Y-25866D01*
X38937Y-25836D02*
X39173Y-25836D01*
X38907Y-25807D02*
X38937Y-25836D01*
X38907Y-25757D02*
X38907Y-25807D01*
X38937Y-25728D02*
X38907Y-25757D01*
X39173Y-25728D02*
X38937Y-25728D01*
X39202Y-25698D02*
X39173Y-25728D01*
X39202Y-25649D02*
X39202Y-25698D01*
X39173Y-25620D02*
X39202Y-25649D01*
X38937Y-25620D02*
X39173Y-25620D01*
X38907Y-25590D02*
X38937Y-25620D01*
X38907Y-25541D02*
X38907Y-25590D01*
X38937Y-25511D02*
X38907Y-25541D01*
X39173Y-25511D02*
X38937Y-25511D01*
X39202Y-25482D02*
X39173Y-25511D01*
X39202Y-25433D02*
X39202Y-25482D01*
X39173Y-25403D02*
X39202Y-25433D01*
X38937Y-25403D02*
X39173Y-25403D01*
X38907Y-25374D02*
X38937Y-25403D01*
X38907Y-25324D02*
X38907Y-25374D01*
X38937Y-25295D02*
X38907Y-25324D01*
X39173Y-25295D02*
X38937Y-25295D01*
X39202Y-25265D02*
X39173Y-25295D01*
X39202Y-25216D02*
X39202Y-25265D01*
X39173Y-25187D02*
X39202Y-25216D01*
X38937Y-25187D02*
X39173Y-25187D01*
X38907Y-25157D02*
X38937Y-25187D01*
X38907Y-25108D02*
X38907Y-25157D01*
X38937Y-25078D02*
X38907Y-25108D01*
X39173Y-25078D02*
X38937Y-25078D01*
X39202Y-25049D02*
X39173Y-25078D01*
X39202Y-25000D02*
X39202Y-25049D01*
X39173Y-24970D02*
X39202Y-25000D01*
X38937Y-24970D02*
X39173Y-24970D01*
X38907Y-24940D02*
X38937Y-24970D01*
X38907Y-24891D02*
X38907Y-24940D01*
X38937Y-24862D02*
X38907Y-24891D01*
X39173Y-24862D02*
X38937Y-24862D01*
X39202Y-24832D02*
X39173Y-24862D01*
X39202Y-24783D02*
X39202Y-24832D01*
X39173Y-24753D02*
X39202Y-24783D01*
X38927Y-24753D02*
X39173Y-24753D01*
X38897Y-24724D02*
X38927Y-24753D01*
X38897Y-24675D02*
X38897Y-24724D01*
X38927Y-24645D02*
X38897Y-24675D01*
X39163Y-24645D02*
X38927Y-24645D01*
X39192Y-24616D02*
X39163Y-24645D01*
X39192Y-24596D02*
X39192Y-24616D01*
X39192Y-24557D02*
X39192Y-24596D01*
X39163Y-24527D02*
X39192Y-24557D01*
X39183Y-24527D02*
X39163Y-24527D01*
X38927Y-24527D02*
X39183Y-24527D01*
X38897Y-24498D02*
X38927Y-24527D01*
X38897Y-24448D02*
X38897Y-24498D01*
X38927Y-24419D02*
X38897Y-24448D01*
X39173Y-24419D02*
X38927Y-24419D01*
X39202Y-24389D02*
X39173Y-24419D01*
X39202Y-24340D02*
X39202Y-24389D01*
X39173Y-24311D02*
X39202Y-24340D01*
X38927Y-24311D02*
X39173Y-24311D01*
X38897Y-24281D02*
X38927Y-24311D01*
X38897Y-24232D02*
X38897Y-24281D01*
X38927Y-24202D02*
X38897Y-24232D01*
X39173Y-24202D02*
X38927Y-24202D01*
X39202Y-24173D02*
X39173Y-24202D01*
X39202Y-24124D02*
X39202Y-24173D01*
X39173Y-24094D02*
X39202Y-24124D01*
X38927Y-24094D02*
X39173Y-24094D01*
X38897Y-24064D02*
X38927Y-24094D01*
X38897Y-24015D02*
X38897Y-24064D01*
X38927Y-23986D02*
X38897Y-24015D01*
X39173Y-23986D02*
X38927Y-23986D01*
X39202Y-23956D02*
X39173Y-23986D01*
X39202Y-23907D02*
X39202Y-23956D01*
X39173Y-23877D02*
X39202Y-23907D01*
X38927Y-23877D02*
X39173Y-23877D01*
X38887Y-23838D02*
X38927Y-23877D01*
X38887Y-23789D02*
X38887Y-23838D01*
X38927Y-23750D02*
X38887Y-23789D01*
X38996Y-23750D02*
X38927Y-23750D01*
X39094Y-23651D02*
X38996Y-23750D01*
X39143Y-23651D02*
X39094Y-23651D01*
X39173Y-23622D02*
X39143Y-23651D01*
X39173Y-23572D02*
X39173Y-23622D01*
X39015Y-23415D02*
X39173Y-23572D01*
X39015Y-23366D02*
X39015Y-23415D01*
X39045Y-23336D02*
X39015Y-23366D01*
X39094Y-23336D02*
X39045Y-23336D01*
X39251Y-23494D02*
X39094Y-23336D01*
X39301Y-23494D02*
X39251Y-23494D01*
X39330Y-23464D02*
X39301Y-23494D01*
X39330Y-23425D02*
X39330Y-23464D01*
X39163Y-23257D02*
X39330Y-23425D01*
X39163Y-23208D02*
X39163Y-23257D01*
X39192Y-23179D02*
X39163Y-23208D01*
X39242Y-23179D02*
X39192Y-23179D01*
X39409Y-23346D02*
X39242Y-23179D01*
X39458Y-23346D02*
X39409Y-23346D01*
X39488Y-23316D02*
X39458Y-23346D01*
X39488Y-23267D02*
X39488Y-23316D01*
X39320Y-23100D02*
X39488Y-23267D01*
X39320Y-23051D02*
X39320Y-23100D01*
X39350Y-23021D02*
X39320Y-23051D01*
X39399Y-23021D02*
X39350Y-23021D01*
X39409Y-23031D02*
X39399Y-23021D01*
X39566Y-23188D02*
X39409Y-23031D01*
X39616Y-23188D02*
X39566Y-23188D01*
X39645Y-23159D02*
X39616Y-23188D01*
X39645Y-23110D02*
X39645Y-23159D01*
X39488Y-22952D02*
X39645Y-23110D01*
X39488Y-22903D02*
X39488Y-22952D01*
X39517Y-22874D02*
X39488Y-22903D01*
X39566Y-22874D02*
X39517Y-22874D01*
X39724Y-23031D02*
X39566Y-22874D01*
X39773Y-23031D02*
X39724Y-23031D01*
X39803Y-23001D02*
X39773Y-23031D01*
X39803Y-22952D02*
X39803Y-23001D01*
X39645Y-22795D02*
X39803Y-22952D01*
X39645Y-22746D02*
X39645Y-22795D01*
X39675Y-22716D02*
X39645Y-22746D01*
X39724Y-22716D02*
X39675Y-22716D01*
X39872Y-22864D02*
X39724Y-22716D01*
X39921Y-22864D02*
X39872Y-22864D01*
X39950Y-22834D02*
X39921Y-22864D01*
X39950Y-22785D02*
X39950Y-22834D01*
X39803Y-22637D02*
X39950Y-22785D01*
X39803Y-22588D02*
X39803Y-22637D01*
X39832Y-22559D02*
X39803Y-22588D01*
X39881Y-22559D02*
X39832Y-22559D01*
X40029Y-22706D02*
X39881Y-22559D01*
X40078Y-22706D02*
X40029Y-22706D01*
X40108Y-22677D02*
X40078Y-22706D01*
X40108Y-22627D02*
X40108Y-22677D01*
X39960Y-22480D02*
X40108Y-22627D01*
X39960Y-22431D02*
X39960Y-22480D01*
X39990Y-22401D02*
X39960Y-22431D01*
X40039Y-22401D02*
X39990Y-22401D01*
X40187Y-22549D02*
X40039Y-22401D01*
X40236Y-22549D02*
X40187Y-22549D01*
X40265Y-22519D02*
X40236Y-22549D01*
X40265Y-22470D02*
X40265Y-22519D01*
X40118Y-22322D02*
X40265Y-22470D01*
X40118Y-22273D02*
X40118Y-22322D01*
X40147Y-22244D02*
X40118Y-22273D01*
X40196Y-22244D02*
X40147Y-22244D01*
X40334Y-22381D02*
X40196Y-22244D01*
X40374Y-22381D02*
X40334Y-22381D01*
X40403Y-22352D02*
X40374Y-22381D01*
X40403Y-22303D02*
X40403Y-22352D01*
X42322Y-21486D02*
X41555Y-21486D01*
X41555Y-21486D02*
X41556Y-21486D01*
X43464Y-20279D02*
X43326Y-20417D01*
X43326Y-20417D02*
X43027Y-20417D01*
X43027Y-20417D02*
X42982Y-20462D01*
X42322Y-20462D02*
X42982Y-20462D01*
X40393Y-21645D02*
X40007Y-21645D01*
X38336Y-26161D02*
X38336Y-26753D01*
X38562Y-25935D02*
X38336Y-26161D01*
X38720Y-25935D02*
X38562Y-25935D01*
X38750Y-25905D02*
X38720Y-25935D01*
X38750Y-25856D02*
X38750Y-25905D01*
X38720Y-25826D02*
X38750Y-25856D01*
X38444Y-25826D02*
X38720Y-25826D01*
X38415Y-25797D02*
X38444Y-25826D01*
X38415Y-25748D02*
X38415Y-25797D01*
X38444Y-25718D02*
X38415Y-25748D01*
X38720Y-25718D02*
X38444Y-25718D01*
X38750Y-25688D02*
X38720Y-25718D01*
X38750Y-25639D02*
X38750Y-25688D01*
X38720Y-25610D02*
X38750Y-25639D01*
X38444Y-25610D02*
X38720Y-25610D01*
X38415Y-25580D02*
X38444Y-25610D01*
X38415Y-25531D02*
X38415Y-25580D01*
X38444Y-25501D02*
X38415Y-25531D01*
X38720Y-25501D02*
X38444Y-25501D01*
X38750Y-25472D02*
X38720Y-25501D01*
X38750Y-25423D02*
X38750Y-25472D01*
X38720Y-25393D02*
X38750Y-25423D01*
X38435Y-25393D02*
X38720Y-25393D01*
X38395Y-25354D02*
X38435Y-25393D01*
X38395Y-25295D02*
X38395Y-25354D01*
X38435Y-25255D02*
X38395Y-25295D01*
X38720Y-25255D02*
X38435Y-25255D01*
X38759Y-25216D02*
X38720Y-25255D01*
X38759Y-25167D02*
X38759Y-25216D01*
X38720Y-25127D02*
X38759Y-25167D01*
X38435Y-25127D02*
X38720Y-25127D01*
X38395Y-25088D02*
X38435Y-25127D01*
X38395Y-25039D02*
X38395Y-25088D01*
X38435Y-25000D02*
X38395Y-25039D01*
X38720Y-25000D02*
X38435Y-25000D01*
X38759Y-24960D02*
X38720Y-25000D01*
X38759Y-24911D02*
X38759Y-24960D01*
X38720Y-24872D02*
X38759Y-24911D01*
X38435Y-24872D02*
X38720Y-24872D01*
X38405Y-24842D02*
X38435Y-24872D01*
X38405Y-24773D02*
X38405Y-24842D01*
X38395Y-24783D02*
X38405Y-24773D01*
X38435Y-24744D02*
X38395Y-24783D01*
X38720Y-24744D02*
X38435Y-24744D01*
X38759Y-24704D02*
X38720Y-24744D01*
X38759Y-24655D02*
X38759Y-24704D01*
X38720Y-24616D02*
X38759Y-24655D01*
X38435Y-24616D02*
X38720Y-24616D01*
X38395Y-24576D02*
X38435Y-24616D01*
X38395Y-24517D02*
X38395Y-24576D01*
X38435Y-24478D02*
X38395Y-24517D01*
X38720Y-24478D02*
X38435Y-24478D01*
X38759Y-24438D02*
X38720Y-24478D01*
X38759Y-24389D02*
X38759Y-24438D01*
X38720Y-24350D02*
X38759Y-24389D01*
X38435Y-24350D02*
X38720Y-24350D01*
X38405Y-24320D02*
X38435Y-24350D01*
X38405Y-24271D02*
X38405Y-24320D01*
X38444Y-24232D02*
X38405Y-24271D01*
X38720Y-24232D02*
X38444Y-24232D01*
X38759Y-24192D02*
X38720Y-24232D01*
X38759Y-24143D02*
X38759Y-24192D01*
X38720Y-24104D02*
X38759Y-24143D01*
X38444Y-24104D02*
X38720Y-24104D01*
X38405Y-24064D02*
X38444Y-24104D01*
X38405Y-24015D02*
X38405Y-24064D01*
X38444Y-23976D02*
X38405Y-24015D01*
X38720Y-23976D02*
X38444Y-23976D01*
X38759Y-23937D02*
X38720Y-23976D01*
X38759Y-23887D02*
X38759Y-23937D01*
X38720Y-23848D02*
X38759Y-23887D01*
X38444Y-23848D02*
X38720Y-23848D01*
X38405Y-23809D02*
X38444Y-23848D01*
X38405Y-23759D02*
X38405Y-23809D01*
X38444Y-23720D02*
X38405Y-23759D01*
X38720Y-23720D02*
X38444Y-23720D01*
X38759Y-23681D02*
X38720Y-23720D01*
X38759Y-23631D02*
X38759Y-23681D01*
X38720Y-23592D02*
X38759Y-23631D01*
X38444Y-23592D02*
X38720Y-23592D01*
X38405Y-23553D02*
X38444Y-23592D01*
X38405Y-23503D02*
X38405Y-23553D01*
X38444Y-23464D02*
X38405Y-23503D01*
X38730Y-23464D02*
X38444Y-23464D01*
X38769Y-23425D02*
X38730Y-23464D01*
X38769Y-23366D02*
X38769Y-23425D01*
X38553Y-23149D02*
X38769Y-23366D01*
X38553Y-23100D02*
X38553Y-23149D01*
X38592Y-23061D02*
X38553Y-23100D01*
X38641Y-23061D02*
X38592Y-23061D01*
X38848Y-23267D02*
X38641Y-23061D01*
X38897Y-23267D02*
X38848Y-23267D01*
X38937Y-23228D02*
X38897Y-23267D01*
X38937Y-23179D02*
X38937Y-23228D01*
X38730Y-22972D02*
X38937Y-23179D01*
X38730Y-22923D02*
X38730Y-22972D01*
X38769Y-22883D02*
X38730Y-22923D01*
X38818Y-22883D02*
X38769Y-22883D01*
X39025Y-23090D02*
X38818Y-22883D01*
X39074Y-23090D02*
X39025Y-23090D01*
X39114Y-23051D02*
X39074Y-23090D01*
X39114Y-23001D02*
X39114Y-23051D01*
X38907Y-22795D02*
X39114Y-23001D01*
X38907Y-22746D02*
X38907Y-22795D01*
X38946Y-22706D02*
X38907Y-22746D01*
X38996Y-22706D02*
X38946Y-22706D01*
X39202Y-22913D02*
X38996Y-22706D01*
X39251Y-22913D02*
X39202Y-22913D01*
X39291Y-22874D02*
X39251Y-22913D01*
X39291Y-22824D02*
X39291Y-22874D01*
X39084Y-22618D02*
X39291Y-22824D01*
X39084Y-22568D02*
X39084Y-22618D01*
X39124Y-22529D02*
X39084Y-22568D01*
X39173Y-22529D02*
X39124Y-22529D01*
X39379Y-22736D02*
X39173Y-22529D01*
X39429Y-22736D02*
X39379Y-22736D01*
X39468Y-22696D02*
X39429Y-22736D01*
X39468Y-22647D02*
X39468Y-22696D01*
X39261Y-22440D02*
X39468Y-22647D01*
X39261Y-22391D02*
X39261Y-22440D01*
X39301Y-22352D02*
X39261Y-22391D01*
X39350Y-22352D02*
X39301Y-22352D01*
X39557Y-22559D02*
X39350Y-22352D01*
X39606Y-22559D02*
X39557Y-22559D01*
X39645Y-22519D02*
X39606Y-22559D01*
X39645Y-22470D02*
X39645Y-22519D01*
X39438Y-22263D02*
X39645Y-22470D01*
X39438Y-22214D02*
X39438Y-22263D01*
X39478Y-22175D02*
X39438Y-22214D01*
X39527Y-22175D02*
X39478Y-22175D01*
X39744Y-22391D02*
X39527Y-22175D01*
X39793Y-22391D02*
X39744Y-22391D01*
X39832Y-22352D02*
X39793Y-22391D01*
X39832Y-22303D02*
X39832Y-22352D01*
X39616Y-22086D02*
X39832Y-22303D01*
X39616Y-22037D02*
X39616Y-22086D01*
X39655Y-21998D02*
X39616Y-22037D01*
X39704Y-21998D02*
X39655Y-21998D01*
X39931Y-22224D02*
X39704Y-21998D01*
X39980Y-22224D02*
X39931Y-22224D01*
X40019Y-22185D02*
X39980Y-22224D01*
X40019Y-22135D02*
X40019Y-22185D01*
X39793Y-21909D02*
X40019Y-22135D01*
X39793Y-21860D02*
X39793Y-21909D01*
X39832Y-21820D02*
X39793Y-21860D01*
X39881Y-21820D02*
X39832Y-21820D01*
X40108Y-22047D02*
X39881Y-21820D01*
X40157Y-22047D02*
X40108Y-22047D01*
X40196Y-22007D02*
X40157Y-22047D01*
X40196Y-21958D02*
X40196Y-22007D01*
X39970Y-21732D02*
X40196Y-21958D01*
X39970Y-21683D02*
X39970Y-21732D01*
X40007Y-21645D02*
X39970Y-21683D01*
X42322Y-20462D02*
X41576Y-20462D01*
X37956Y-27133D02*
X37421Y-27133D01*
X38336Y-26753D02*
X37956Y-27133D01*
X41576Y-20462D02*
X40393Y-21645D01*
X40393Y-21645D02*
X40393Y-21645D01*
X38710Y-21397D02*
X38553Y-21240D01*
X37893Y-22106D02*
X37775Y-21988D01*
X37775Y-21988D02*
X37775Y-21919D01*
X37775Y-21919D02*
X37814Y-21879D01*
X37814Y-21879D02*
X37874Y-21879D01*
X37874Y-21879D02*
X38169Y-22175D01*
X38169Y-22175D02*
X38198Y-22204D01*
X38198Y-22204D02*
X38257Y-22204D01*
X38257Y-22204D02*
X38297Y-22165D01*
X38297Y-22165D02*
X38297Y-22106D01*
X38297Y-22106D02*
X37972Y-21781D01*
X37972Y-21781D02*
X37972Y-21732D01*
X37972Y-21732D02*
X38011Y-21692D01*
X38011Y-21692D02*
X38061Y-21692D01*
X38061Y-21692D02*
X38385Y-22017D01*
X38385Y-22017D02*
X38444Y-22017D01*
X38444Y-22017D02*
X38484Y-21978D01*
X38484Y-21978D02*
X38484Y-21919D01*
X38484Y-21919D02*
X38159Y-21594D01*
X38159Y-21594D02*
X38159Y-21545D01*
X38159Y-21545D02*
X38198Y-21505D01*
X38198Y-21505D02*
X38248Y-21505D01*
X38248Y-21505D02*
X38572Y-21830D01*
X38572Y-21830D02*
X38631Y-21830D01*
X38631Y-21830D02*
X38671Y-21791D01*
X38671Y-21791D02*
X38671Y-21732D01*
X38671Y-21732D02*
X38356Y-21417D01*
X38356Y-21417D02*
X38356Y-21368D01*
X38356Y-21368D02*
X38395Y-21328D01*
X38395Y-21328D02*
X38444Y-21328D01*
X38444Y-21328D02*
X38759Y-21643D01*
X38759Y-21643D02*
X38818Y-21643D01*
X38818Y-21643D02*
X38858Y-21604D01*
X38858Y-21604D02*
X38858Y-21545D01*
X38858Y-21545D02*
X38710Y-21397D01*
X40354Y-21118D02*
X38960Y-21118D01*
X37726Y-24055D02*
X37440Y-24055D01*
X37440Y-25196D02*
X37401Y-25236D01*
X37401Y-25236D02*
X37401Y-25285D01*
X37401Y-25285D02*
X37440Y-25324D01*
X37440Y-25324D02*
X37736Y-25324D01*
X37736Y-25324D02*
X37775Y-25364D01*
X37775Y-25364D02*
X37775Y-25413D01*
X37775Y-25413D02*
X37736Y-25452D01*
X37736Y-25452D02*
X37440Y-25452D01*
X37440Y-25452D02*
X37401Y-25492D01*
X37401Y-25492D02*
X37401Y-25541D01*
X37401Y-25541D02*
X37440Y-25580D01*
X37440Y-25580D02*
X37736Y-25580D01*
X37736Y-25580D02*
X37775Y-25620D01*
X37775Y-25620D02*
X37775Y-25669D01*
X37775Y-25669D02*
X37736Y-25708D01*
X37736Y-25708D02*
X37440Y-25708D01*
X37440Y-25708D02*
X36968Y-26181D01*
X37736Y-25196D02*
X37706Y-25196D01*
X37775Y-25157D02*
X37736Y-25196D01*
X37775Y-25108D02*
X37775Y-25157D01*
X37736Y-25068D02*
X37775Y-25108D01*
X37440Y-25068D02*
X37736Y-25068D01*
X37401Y-25029D02*
X37440Y-25068D01*
X37401Y-24980D02*
X37401Y-25029D01*
X37440Y-24940D02*
X37401Y-24980D01*
X37736Y-24940D02*
X37440Y-24940D01*
X37775Y-24901D02*
X37736Y-24940D01*
X37775Y-24852D02*
X37775Y-24901D01*
X37736Y-24812D02*
X37775Y-24852D01*
X37440Y-24812D02*
X37736Y-24812D01*
X37401Y-24773D02*
X37440Y-24812D01*
X37401Y-24724D02*
X37401Y-24773D01*
X37440Y-24685D02*
X37401Y-24724D01*
X37736Y-24685D02*
X37440Y-24685D01*
X37775Y-24645D02*
X37736Y-24685D01*
X37775Y-24596D02*
X37775Y-24645D01*
X37736Y-24557D02*
X37775Y-24596D01*
X37440Y-24557D02*
X37736Y-24557D01*
X37401Y-24517D02*
X37440Y-24557D01*
X37401Y-24468D02*
X37401Y-24517D01*
X37440Y-24429D02*
X37401Y-24468D01*
X37736Y-24429D02*
X37440Y-24429D01*
X37775Y-24389D02*
X37736Y-24429D01*
X37775Y-24340D02*
X37775Y-24389D01*
X37736Y-24301D02*
X37775Y-24340D01*
X37440Y-24301D02*
X37736Y-24301D01*
X37401Y-24261D02*
X37440Y-24301D01*
X37401Y-24212D02*
X37401Y-24261D01*
X37440Y-24173D02*
X37401Y-24212D01*
X37736Y-24173D02*
X37440Y-24173D01*
X37765Y-24143D02*
X37736Y-24173D01*
X37765Y-24094D02*
X37765Y-24143D01*
X37726Y-24055D02*
X37765Y-24094D01*
X37706Y-25196D02*
X37440Y-25196D01*
X37716Y-22362D02*
X37440Y-22362D01*
X37401Y-22401D02*
X37440Y-22362D01*
X37401Y-22450D02*
X37401Y-22401D01*
X37440Y-22490D02*
X37401Y-22450D01*
X37716Y-22490D02*
X37440Y-22490D01*
X37755Y-22529D02*
X37716Y-22490D01*
X37755Y-22578D02*
X37755Y-22529D01*
X37716Y-22618D02*
X37755Y-22578D01*
X37440Y-22618D02*
X37716Y-22618D01*
X37401Y-22657D02*
X37440Y-22618D01*
X37401Y-22706D02*
X37401Y-22657D01*
X37450Y-22755D02*
X37401Y-22706D01*
X37755Y-22795D02*
X37716Y-22755D01*
X37755Y-22844D02*
X37755Y-22795D01*
X37716Y-22883D02*
X37755Y-22844D01*
X37440Y-22883D02*
X37716Y-22883D01*
X37401Y-22923D02*
X37440Y-22883D01*
X37401Y-22972D02*
X37401Y-22923D01*
X37440Y-23011D02*
X37401Y-22972D01*
X37716Y-23011D02*
X37440Y-23011D01*
X37755Y-23051D02*
X37716Y-23011D01*
X37755Y-23100D02*
X37755Y-23051D01*
X37716Y-23139D02*
X37755Y-23100D01*
X37440Y-23139D02*
X37716Y-23139D01*
X37401Y-23179D02*
X37440Y-23139D01*
X37401Y-23228D02*
X37401Y-23179D01*
X37440Y-23267D02*
X37401Y-23228D01*
X37716Y-23267D02*
X37440Y-23267D01*
X37755Y-23307D02*
X37716Y-23267D01*
X37755Y-23356D02*
X37755Y-23307D01*
X37716Y-23395D02*
X37755Y-23356D01*
X37440Y-23395D02*
X37716Y-23395D01*
X37401Y-23435D02*
X37440Y-23395D01*
X37401Y-23484D02*
X37401Y-23435D01*
X37440Y-23523D02*
X37401Y-23484D01*
X37716Y-23523D02*
X37440Y-23523D01*
X37755Y-23562D02*
X37716Y-23523D01*
X37755Y-23612D02*
X37755Y-23562D01*
X37716Y-23651D02*
X37755Y-23612D01*
X37440Y-23651D02*
X37716Y-23651D01*
X37401Y-23690D02*
X37440Y-23651D01*
X37401Y-23740D02*
X37401Y-23690D01*
X37440Y-23779D02*
X37401Y-23740D01*
X37716Y-23779D02*
X37440Y-23779D01*
X37755Y-23818D02*
X37716Y-23779D01*
X37755Y-23868D02*
X37755Y-23818D01*
X37716Y-23907D02*
X37755Y-23868D01*
X37440Y-23907D02*
X37716Y-23907D01*
X37391Y-23956D02*
X37440Y-23907D01*
X37391Y-24005D02*
X37391Y-23956D01*
X37440Y-24055D02*
X37391Y-24005D01*
X37450Y-22755D02*
X37716Y-22755D01*
X37893Y-22185D02*
X37716Y-22362D01*
X37893Y-22185D02*
X37893Y-22106D01*
X38940Y-21118D02*
X38960Y-21118D01*
X38897Y-21161D02*
X38940Y-21118D01*
X38897Y-21220D02*
X38897Y-21161D01*
X39035Y-21358D02*
X38897Y-21220D01*
X39035Y-21407D02*
X39035Y-21358D01*
X38996Y-21446D02*
X39035Y-21407D01*
X38946Y-21446D02*
X38996Y-21446D01*
X38937Y-21437D02*
X38946Y-21446D01*
X38651Y-21151D02*
X38937Y-21437D01*
X38592Y-21151D02*
X38651Y-21151D01*
X38553Y-21190D02*
X38592Y-21151D01*
X38553Y-21240D02*
X38553Y-21190D01*
X41521Y-19950D02*
X40354Y-21118D01*
X40354Y-21118D02*
X40354Y-21118D01*
X42322Y-19950D02*
X41521Y-19950D01*
X42322Y-19950D02*
X41517Y-19950D01*
X41517Y-19950D02*
X40318Y-18751D01*
X40318Y-18751D02*
X40318Y-16559D01*
X40318Y-16559D02*
X40066Y-16307D01*
X40066Y-16307D02*
X39578Y-16307D01*
X42681Y-9653D02*
X42681Y-9511D01*
X56732Y-9653D02*
X56500Y-9653D01*
G54D26*
X57181Y-10102D02*
X56732Y-9653D01*
X57559Y-10102D02*
X57181Y-10102D01*
X57862Y-9799D02*
X57559Y-10102D01*
X57862Y-9492D02*
X57862Y-9799D01*
X57035Y-8665D02*
X57862Y-9492D01*
X43527Y-8665D02*
X57035Y-8665D01*
X42681Y-9511D02*
X43527Y-8665D01*
X48622Y-21998D02*
X49654Y-21998D01*
G54D27*
X42940Y-9653D02*
X42681Y-9653D01*
G54D26*
X43413Y-10125D02*
X42940Y-9653D01*
X43716Y-10125D02*
X43413Y-10125D01*
X43838Y-10003D02*
X43716Y-10125D01*
X44192Y-10003D02*
X43838Y-10003D01*
X44318Y-10129D02*
X44192Y-10003D01*
X44614Y-10129D02*
X44318Y-10129D01*
X44799Y-9944D02*
X44614Y-10129D01*
X45031Y-9944D02*
X44799Y-9944D01*
X45200Y-10114D02*
X45031Y-9944D01*
X45511Y-10114D02*
X45200Y-10114D01*
X45645Y-9980D02*
X45511Y-10114D01*
X46401Y-9980D02*
X45645Y-9980D01*
X46874Y-10452D02*
X46401Y-9980D01*
X46874Y-13590D02*
X46874Y-10452D01*
X50700Y-17417D02*
X46874Y-13590D01*
X50700Y-20952D02*
X50700Y-17417D01*
X49654Y-21998D02*
X50700Y-20952D01*
G54D28*
X49883Y-20206D02*
X48622Y-20206D01*
X50082Y-20007D02*
X49883Y-20206D01*
G54D27*
X44578Y-16676D02*
X44578Y-16514D01*
G54D26*
X44578Y-16514D02*
X43682Y-15618D01*
X43682Y-15618D02*
X43682Y-13993D01*
X43682Y-13993D02*
X43447Y-13759D01*
X47645Y-17426D02*
X47645Y-18974D01*
G54D27*
X47645Y-18974D02*
X47647Y-18976D01*
X45909Y-16676D02*
X46618Y-16676D01*
X46618Y-16676D02*
X46515Y-16676D01*
G54D26*
X46515Y-16676D02*
X45441Y-15602D01*
X45441Y-15602D02*
X45441Y-14763D01*
X45441Y-14763D02*
X44437Y-13759D01*
X47645Y-16676D02*
X47645Y-16018D01*
X47645Y-16018D02*
X47225Y-15598D01*
G54D27*
X45357Y-13759D02*
X45386Y-13759D01*
G54D26*
X45386Y-13759D02*
X47225Y-15598D01*
X43041Y-18976D02*
X42597Y-18976D01*
X42597Y-18976D02*
X42456Y-18835D01*
X43553Y-18976D02*
X43553Y-18321D01*
X43317Y-18085D02*
X42456Y-18085D01*
X43553Y-18321D02*
X43317Y-18085D01*
X46618Y-17426D02*
X46618Y-18971D01*
G54D27*
X46618Y-18971D02*
X46623Y-18976D01*
X45909Y-17426D02*
X45909Y-17578D01*
G54D26*
X46111Y-17780D02*
X46111Y-18976D01*
X45909Y-17578D02*
X46111Y-17780D01*
X44578Y-17426D02*
X44578Y-18975D01*
G54D27*
X44578Y-18975D02*
X44577Y-18976D01*
M02*
