G04 (created by PCBNEW (2013-07-07 BZR 4022)-stable) date 29/07/2014 2:35:22 PM*
%MOIN*%
G04 Gerber Fmt 3.4, Leading zero omitted, Abs format*
%FSLAX34Y34*%
G01*
G70*
G90*
G04 APERTURE LIST*
%ADD10C,0.00590551*%
%ADD11C,0.00787402*%
%ADD12C,0.161417*%
%ADD13C,0.011811*%
%ADD14C,0.0039*%
%ADD15C,0.006*%
%ADD16C,0.012*%
%ADD17C,0.0026*%
%ADD18C,0.008*%
%ADD19C,0.0001*%
%ADD20C,0.0025*%
%ADD21C,0.005*%
%ADD22C,0.0043*%
%ADD23C,0.0035*%
G04 APERTURE END LIST*
G54D10*
G54D11*
X53779Y-40913D02*
X53779Y-40881D01*
G54D12*
X44629Y-40917D02*
X52980Y-40917D01*
G54D13*
X61813Y-11900D02*
X62010Y-12491D01*
X62207Y-11900D01*
X62376Y-12462D02*
X62460Y-12491D01*
X62601Y-12491D01*
X62657Y-12462D01*
X62685Y-12434D01*
X62713Y-12378D01*
X62713Y-12322D01*
X62685Y-12266D01*
X62657Y-12237D01*
X62601Y-12209D01*
X62488Y-12181D01*
X62432Y-12153D01*
X62404Y-12125D01*
X62376Y-12069D01*
X62376Y-12012D01*
X62404Y-11956D01*
X62432Y-11928D01*
X62488Y-11900D01*
X62629Y-11900D01*
X62713Y-11928D01*
X63079Y-12209D02*
X63079Y-12491D01*
X62882Y-11900D02*
X63079Y-12209D01*
X63276Y-11900D01*
X63473Y-12491D02*
X63473Y-11900D01*
X63810Y-12491D01*
X63810Y-11900D01*
X64429Y-12434D02*
X64401Y-12462D01*
X64316Y-12491D01*
X64260Y-12491D01*
X64176Y-12462D01*
X64119Y-12406D01*
X64091Y-12350D01*
X64063Y-12237D01*
X64063Y-12153D01*
X64091Y-12041D01*
X64119Y-11984D01*
X64176Y-11928D01*
X64260Y-11900D01*
X64316Y-11900D01*
X64401Y-11928D01*
X64429Y-11956D01*
X61731Y-14069D02*
X61731Y-13479D01*
X61731Y-13760D02*
X62069Y-13760D01*
X62069Y-14069D02*
X62069Y-13479D01*
X62322Y-14041D02*
X62406Y-14069D01*
X62547Y-14069D01*
X62603Y-14041D01*
X62631Y-14013D01*
X62659Y-13957D01*
X62659Y-13901D01*
X62631Y-13844D01*
X62603Y-13816D01*
X62547Y-13788D01*
X62434Y-13760D01*
X62378Y-13732D01*
X62350Y-13704D01*
X62322Y-13647D01*
X62322Y-13591D01*
X62350Y-13535D01*
X62378Y-13507D01*
X62434Y-13479D01*
X62575Y-13479D01*
X62659Y-13507D01*
X63025Y-13788D02*
X63025Y-14069D01*
X62828Y-13479D02*
X63025Y-13788D01*
X63222Y-13479D01*
X63419Y-14069D02*
X63419Y-13479D01*
X63756Y-14069D01*
X63756Y-13479D01*
X64375Y-14013D02*
X64347Y-14041D01*
X64262Y-14069D01*
X64206Y-14069D01*
X64122Y-14041D01*
X64065Y-13985D01*
X64037Y-13929D01*
X64009Y-13816D01*
X64009Y-13732D01*
X64037Y-13619D01*
X64065Y-13563D01*
X64122Y-13507D01*
X64206Y-13479D01*
X64262Y-13479D01*
X64347Y-13507D01*
X64375Y-13535D01*
G54D11*
X41943Y-16710D02*
X41943Y-16316D01*
X42093Y-16316D01*
X42131Y-16335D01*
X42149Y-16354D01*
X42168Y-16391D01*
X42168Y-16448D01*
X42149Y-16485D01*
X42131Y-16504D01*
X42093Y-16523D01*
X41943Y-16523D01*
X42299Y-16316D02*
X42393Y-16710D01*
X42468Y-16429D01*
X42543Y-16710D01*
X42637Y-16316D01*
X43012Y-16710D02*
X42880Y-16523D01*
X42787Y-16710D02*
X42787Y-16316D01*
X42937Y-16316D01*
X42974Y-16335D01*
X42993Y-16354D01*
X43012Y-16391D01*
X43012Y-16448D01*
X42993Y-16485D01*
X42974Y-16504D01*
X42937Y-16523D01*
X42787Y-16523D01*
X39161Y-15633D02*
X39142Y-15652D01*
X39086Y-15671D01*
X39048Y-15671D01*
X38992Y-15652D01*
X38955Y-15614D01*
X38936Y-15577D01*
X38917Y-15502D01*
X38917Y-15446D01*
X38936Y-15371D01*
X38955Y-15333D01*
X38992Y-15296D01*
X39048Y-15277D01*
X39086Y-15277D01*
X39142Y-15296D01*
X39161Y-15314D01*
X39405Y-15277D02*
X39480Y-15277D01*
X39517Y-15296D01*
X39555Y-15333D01*
X39573Y-15408D01*
X39573Y-15539D01*
X39555Y-15614D01*
X39517Y-15652D01*
X39480Y-15671D01*
X39405Y-15671D01*
X39367Y-15652D01*
X39330Y-15614D01*
X39311Y-15539D01*
X39311Y-15408D01*
X39330Y-15333D01*
X39367Y-15296D01*
X39405Y-15277D01*
X39723Y-15558D02*
X39911Y-15558D01*
X39686Y-15671D02*
X39817Y-15277D01*
X39948Y-15671D01*
X40061Y-15652D02*
X40117Y-15671D01*
X40211Y-15671D01*
X40248Y-15652D01*
X40267Y-15633D01*
X40286Y-15596D01*
X40286Y-15558D01*
X40267Y-15521D01*
X40248Y-15502D01*
X40211Y-15483D01*
X40136Y-15464D01*
X40098Y-15446D01*
X40080Y-15427D01*
X40061Y-15389D01*
X40061Y-15352D01*
X40080Y-15314D01*
X40098Y-15296D01*
X40136Y-15277D01*
X40230Y-15277D01*
X40286Y-15296D01*
X40398Y-15277D02*
X40623Y-15277D01*
X40511Y-15671D02*
X40511Y-15277D01*
X42101Y-17296D02*
X42064Y-17277D01*
X42007Y-17277D01*
X41951Y-17296D01*
X41914Y-17333D01*
X41895Y-17371D01*
X41876Y-17446D01*
X41876Y-17502D01*
X41895Y-17577D01*
X41914Y-17614D01*
X41951Y-17652D01*
X42007Y-17671D01*
X42045Y-17671D01*
X42101Y-17652D01*
X42120Y-17633D01*
X42120Y-17502D01*
X42045Y-17502D01*
X42289Y-17671D02*
X42289Y-17277D01*
X42514Y-17671D01*
X42514Y-17277D01*
X42701Y-17671D02*
X42701Y-17277D01*
X42795Y-17277D01*
X42851Y-17296D01*
X42889Y-17333D01*
X42907Y-17371D01*
X42926Y-17446D01*
X42926Y-17502D01*
X42907Y-17577D01*
X42889Y-17614D01*
X42851Y-17652D01*
X42795Y-17671D01*
X42701Y-17671D01*
X39147Y-14665D02*
X39128Y-14683D01*
X39072Y-14702D01*
X39035Y-14702D01*
X38978Y-14683D01*
X38941Y-14646D01*
X38922Y-14608D01*
X38903Y-14533D01*
X38903Y-14477D01*
X38922Y-14402D01*
X38941Y-14365D01*
X38978Y-14327D01*
X39035Y-14308D01*
X39072Y-14308D01*
X39128Y-14327D01*
X39147Y-14346D01*
X39503Y-14702D02*
X39316Y-14702D01*
X39316Y-14308D01*
X39616Y-14590D02*
X39803Y-14590D01*
X39578Y-14702D02*
X39709Y-14308D01*
X39841Y-14702D01*
X39972Y-14702D02*
X39972Y-14308D01*
X40103Y-14590D01*
X40234Y-14308D01*
X40234Y-14702D01*
X40422Y-14702D02*
X40422Y-14308D01*
X40572Y-14308D01*
X40609Y-14327D01*
X40628Y-14346D01*
X40647Y-14383D01*
X40647Y-14440D01*
X40628Y-14477D01*
X40609Y-14496D01*
X40572Y-14515D01*
X40422Y-14515D01*
X40083Y-13277D02*
X40158Y-13277D01*
X40196Y-13296D01*
X40233Y-13333D01*
X40252Y-13408D01*
X40252Y-13539D01*
X40233Y-13614D01*
X40196Y-13652D01*
X40158Y-13671D01*
X40083Y-13671D01*
X40046Y-13652D01*
X40008Y-13614D01*
X39989Y-13539D01*
X39989Y-13408D01*
X40008Y-13333D01*
X40046Y-13296D01*
X40083Y-13277D01*
X40421Y-13464D02*
X40552Y-13464D01*
X40608Y-13671D02*
X40421Y-13671D01*
X40421Y-13277D01*
X40608Y-13277D01*
X36984Y-19521D02*
X36984Y-19127D01*
X37077Y-19127D01*
X37134Y-19146D01*
X37171Y-19184D01*
X37190Y-19221D01*
X37209Y-19296D01*
X37209Y-19352D01*
X37190Y-19427D01*
X37171Y-19465D01*
X37134Y-19502D01*
X37077Y-19521D01*
X36984Y-19521D01*
X37359Y-19409D02*
X37546Y-19409D01*
X37321Y-19521D02*
X37452Y-19127D01*
X37584Y-19521D01*
X37659Y-19127D02*
X37884Y-19127D01*
X37771Y-19521D02*
X37771Y-19127D01*
X37996Y-19409D02*
X38184Y-19409D01*
X37959Y-19521D02*
X38090Y-19127D01*
X38221Y-19521D01*
X38577Y-19484D02*
X38559Y-19502D01*
X38502Y-19521D01*
X38465Y-19521D01*
X38409Y-19502D01*
X38371Y-19465D01*
X38352Y-19427D01*
X38334Y-19352D01*
X38334Y-19296D01*
X38352Y-19221D01*
X38371Y-19184D01*
X38409Y-19146D01*
X38465Y-19127D01*
X38502Y-19127D01*
X38559Y-19146D01*
X38577Y-19165D01*
X38746Y-19521D02*
X38746Y-19127D01*
X38971Y-19521D02*
X38802Y-19296D01*
X38971Y-19127D02*
X38746Y-19352D01*
X37945Y-18459D02*
X38001Y-18478D01*
X38095Y-18478D01*
X38132Y-18459D01*
X38151Y-18440D01*
X38170Y-18403D01*
X38170Y-18365D01*
X38151Y-18328D01*
X38132Y-18309D01*
X38095Y-18290D01*
X38020Y-18272D01*
X37982Y-18253D01*
X37963Y-18234D01*
X37945Y-18197D01*
X37945Y-18159D01*
X37963Y-18122D01*
X37982Y-18103D01*
X38020Y-18084D01*
X38113Y-18084D01*
X38170Y-18103D01*
X38413Y-18084D02*
X38488Y-18084D01*
X38526Y-18103D01*
X38563Y-18140D01*
X38582Y-18215D01*
X38582Y-18347D01*
X38563Y-18422D01*
X38526Y-18459D01*
X38488Y-18478D01*
X38413Y-18478D01*
X38376Y-18459D01*
X38338Y-18422D01*
X38320Y-18347D01*
X38320Y-18215D01*
X38338Y-18140D01*
X38376Y-18103D01*
X38413Y-18084D01*
X38957Y-18103D02*
X38919Y-18084D01*
X38863Y-18084D01*
X38807Y-18103D01*
X38769Y-18140D01*
X38751Y-18178D01*
X38732Y-18253D01*
X38732Y-18309D01*
X38751Y-18384D01*
X38769Y-18422D01*
X38807Y-18459D01*
X38863Y-18478D01*
X38901Y-18478D01*
X38957Y-18459D01*
X38976Y-18440D01*
X38976Y-18309D01*
X38901Y-18309D01*
X38188Y-17513D02*
X38188Y-17119D01*
X38188Y-17307D02*
X38413Y-17307D01*
X38413Y-17513D02*
X38413Y-17119D01*
X38581Y-17494D02*
X38638Y-17513D01*
X38731Y-17513D01*
X38769Y-17494D01*
X38788Y-17476D01*
X38806Y-17438D01*
X38806Y-17401D01*
X38788Y-17363D01*
X38769Y-17344D01*
X38731Y-17326D01*
X38656Y-17307D01*
X38619Y-17288D01*
X38600Y-17269D01*
X38581Y-17232D01*
X38581Y-17194D01*
X38600Y-17157D01*
X38619Y-17138D01*
X38656Y-17119D01*
X38750Y-17119D01*
X38806Y-17138D01*
X38216Y-16084D02*
X38347Y-16478D01*
X38479Y-16084D01*
X38591Y-16459D02*
X38647Y-16478D01*
X38741Y-16478D01*
X38779Y-16459D01*
X38797Y-16440D01*
X38816Y-16403D01*
X38816Y-16365D01*
X38797Y-16328D01*
X38779Y-16309D01*
X38741Y-16290D01*
X38666Y-16272D01*
X38629Y-16253D01*
X38610Y-16234D01*
X38591Y-16197D01*
X38591Y-16159D01*
X38610Y-16122D01*
X38629Y-16103D01*
X38666Y-16084D01*
X38760Y-16084D01*
X38816Y-16103D01*
X57832Y-38762D02*
X57551Y-38762D01*
X57523Y-39043D01*
X57551Y-39015D01*
X57607Y-38987D01*
X57748Y-38987D01*
X57804Y-39015D01*
X57832Y-39043D01*
X57860Y-39100D01*
X57860Y-39240D01*
X57832Y-39296D01*
X57804Y-39325D01*
X57748Y-39353D01*
X57607Y-39353D01*
X57551Y-39325D01*
X57523Y-39296D01*
X58029Y-38762D02*
X58226Y-39353D01*
X58422Y-38762D01*
X57782Y-40318D02*
X57726Y-40290D01*
X57641Y-40290D01*
X57557Y-40318D01*
X57501Y-40374D01*
X57473Y-40430D01*
X57444Y-40543D01*
X57444Y-40627D01*
X57473Y-40740D01*
X57501Y-40796D01*
X57557Y-40852D01*
X57641Y-40880D01*
X57697Y-40880D01*
X57782Y-40852D01*
X57810Y-40824D01*
X57810Y-40627D01*
X57697Y-40627D01*
X58063Y-40880D02*
X58063Y-40290D01*
X58401Y-40880D01*
X58401Y-40290D01*
X58682Y-40880D02*
X58682Y-40290D01*
X58822Y-40290D01*
X58907Y-40318D01*
X58963Y-40374D01*
X58991Y-40430D01*
X59019Y-40543D01*
X59019Y-40627D01*
X58991Y-40740D01*
X58963Y-40796D01*
X58907Y-40852D01*
X58822Y-40880D01*
X58682Y-40880D01*
X40371Y-38829D02*
X40090Y-38829D01*
X40062Y-39110D01*
X40090Y-39082D01*
X40146Y-39054D01*
X40287Y-39054D01*
X40343Y-39082D01*
X40371Y-39110D01*
X40399Y-39167D01*
X40399Y-39307D01*
X40371Y-39363D01*
X40343Y-39392D01*
X40287Y-39420D01*
X40146Y-39420D01*
X40090Y-39392D01*
X40062Y-39363D01*
X40568Y-38829D02*
X40765Y-39420D01*
X40962Y-38829D01*
X38073Y-37798D02*
X38269Y-38388D01*
X38466Y-37798D01*
X39001Y-38332D02*
X38973Y-38360D01*
X38888Y-38388D01*
X38832Y-38388D01*
X38748Y-38360D01*
X38691Y-38304D01*
X38663Y-38248D01*
X38635Y-38135D01*
X38635Y-38051D01*
X38663Y-37938D01*
X38691Y-37882D01*
X38748Y-37826D01*
X38832Y-37798D01*
X38888Y-37798D01*
X38973Y-37826D01*
X39001Y-37854D01*
X39591Y-38332D02*
X39563Y-38360D01*
X39479Y-38388D01*
X39422Y-38388D01*
X39338Y-38360D01*
X39282Y-38304D01*
X39254Y-38248D01*
X39226Y-38135D01*
X39226Y-38051D01*
X39254Y-37938D01*
X39282Y-37882D01*
X39338Y-37826D01*
X39422Y-37798D01*
X39479Y-37798D01*
X39563Y-37826D01*
X39591Y-37854D01*
X39704Y-38444D02*
X40154Y-38444D01*
X40294Y-38388D02*
X40294Y-37798D01*
X40575Y-38388D02*
X40575Y-37798D01*
X40913Y-38388D01*
X40913Y-37798D01*
X40854Y-42440D02*
X40850Y-42440D01*
X40854Y-42641D02*
X40854Y-42440D01*
X40039Y-42641D02*
X40854Y-42641D01*
X40838Y-40437D02*
X40838Y-40590D01*
X39996Y-40437D02*
X40838Y-40437D01*
X40530Y-41965D02*
X40502Y-42021D01*
X40502Y-42106D01*
X40530Y-42190D01*
X40587Y-42246D01*
X40643Y-42275D01*
X40755Y-42303D01*
X40840Y-42303D01*
X40952Y-42275D01*
X41008Y-42246D01*
X41065Y-42190D01*
X41093Y-42106D01*
X41093Y-42050D01*
X41065Y-41965D01*
X41037Y-41937D01*
X40840Y-41937D01*
X40840Y-42050D01*
X41093Y-41684D02*
X40502Y-41684D01*
X41093Y-41347D01*
X40502Y-41347D01*
X41093Y-41065D02*
X40502Y-41065D01*
X40502Y-40925D01*
X40530Y-40840D01*
X40587Y-40784D01*
X40643Y-40756D01*
X40755Y-40728D01*
X40840Y-40728D01*
X40952Y-40756D01*
X41008Y-40784D01*
X41065Y-40840D01*
X41093Y-40925D01*
X41093Y-41065D01*
X53012Y-18911D02*
X52742Y-18911D01*
X52877Y-18911D02*
X52877Y-18439D01*
X52832Y-18506D01*
X52787Y-18551D01*
X52742Y-18574D01*
X53214Y-18866D02*
X53237Y-18889D01*
X53214Y-18911D01*
X53192Y-18889D01*
X53214Y-18866D01*
X53214Y-18911D01*
X53507Y-18641D02*
X53462Y-18619D01*
X53439Y-18596D01*
X53417Y-18551D01*
X53417Y-18529D01*
X53439Y-18484D01*
X53462Y-18461D01*
X53507Y-18439D01*
X53597Y-18439D01*
X53642Y-18461D01*
X53664Y-18484D01*
X53687Y-18529D01*
X53687Y-18551D01*
X53664Y-18596D01*
X53642Y-18619D01*
X53597Y-18641D01*
X53507Y-18641D01*
X53462Y-18664D01*
X53439Y-18686D01*
X53417Y-18731D01*
X53417Y-18821D01*
X53439Y-18866D01*
X53462Y-18889D01*
X53507Y-18911D01*
X53597Y-18911D01*
X53642Y-18889D01*
X53664Y-18866D01*
X53687Y-18821D01*
X53687Y-18731D01*
X53664Y-18686D01*
X53642Y-18664D01*
X53597Y-18641D01*
X53822Y-18439D02*
X53979Y-18911D01*
X54137Y-18439D01*
G54D13*
X52803Y-16357D02*
X53000Y-16947D01*
X53196Y-16357D01*
X53393Y-16947D02*
X53393Y-16357D01*
X53534Y-16357D01*
X53618Y-16385D01*
X53674Y-16441D01*
X53703Y-16497D01*
X53731Y-16610D01*
X53731Y-16694D01*
X53703Y-16807D01*
X53674Y-16863D01*
X53618Y-16919D01*
X53534Y-16947D01*
X53393Y-16947D01*
G54D11*
X54308Y-25285D02*
X54083Y-25285D01*
X54195Y-25285D02*
X54195Y-24891D01*
X54158Y-24947D01*
X54120Y-24985D01*
X54083Y-25004D01*
X54476Y-25247D02*
X54495Y-25266D01*
X54476Y-25285D01*
X54458Y-25266D01*
X54476Y-25247D01*
X54476Y-25285D01*
X54720Y-25060D02*
X54683Y-25041D01*
X54664Y-25022D01*
X54645Y-24985D01*
X54645Y-24966D01*
X54664Y-24929D01*
X54683Y-24910D01*
X54720Y-24891D01*
X54795Y-24891D01*
X54833Y-24910D01*
X54851Y-24929D01*
X54870Y-24966D01*
X54870Y-24985D01*
X54851Y-25022D01*
X54833Y-25041D01*
X54795Y-25060D01*
X54720Y-25060D01*
X54683Y-25079D01*
X54664Y-25097D01*
X54645Y-25135D01*
X54645Y-25210D01*
X54664Y-25247D01*
X54683Y-25266D01*
X54720Y-25285D01*
X54795Y-25285D01*
X54833Y-25266D01*
X54851Y-25247D01*
X54870Y-25210D01*
X54870Y-25135D01*
X54851Y-25097D01*
X54833Y-25079D01*
X54795Y-25060D01*
X54983Y-24891D02*
X55114Y-25285D01*
X55245Y-24891D01*
G54D13*
X51348Y-25428D02*
X51348Y-24837D01*
X51573Y-24837D01*
X51629Y-24865D01*
X51657Y-24893D01*
X51685Y-24949D01*
X51685Y-25034D01*
X51657Y-25090D01*
X51629Y-25118D01*
X51573Y-25146D01*
X51348Y-25146D01*
X51854Y-24837D02*
X52051Y-25428D01*
X52248Y-24837D01*
X52444Y-25428D02*
X52444Y-24837D01*
X52585Y-24837D01*
X52669Y-24865D01*
X52726Y-24921D01*
X52754Y-24978D01*
X52782Y-25090D01*
X52782Y-25174D01*
X52754Y-25287D01*
X52726Y-25343D01*
X52669Y-25399D01*
X52585Y-25428D01*
X52444Y-25428D01*
X54034Y-27722D02*
X54119Y-27750D01*
X54259Y-27750D01*
X54316Y-27722D01*
X54344Y-27694D01*
X54372Y-27638D01*
X54372Y-27582D01*
X54344Y-27525D01*
X54316Y-27497D01*
X54259Y-27469D01*
X54147Y-27441D01*
X54091Y-27413D01*
X54062Y-27385D01*
X54034Y-27329D01*
X54034Y-27272D01*
X54062Y-27216D01*
X54091Y-27188D01*
X54147Y-27160D01*
X54287Y-27160D01*
X54372Y-27188D01*
X54625Y-27750D02*
X54625Y-27160D01*
X54766Y-27160D01*
X54850Y-27188D01*
X54906Y-27244D01*
X54934Y-27300D01*
X54962Y-27413D01*
X54962Y-27497D01*
X54934Y-27610D01*
X54906Y-27666D01*
X54850Y-27722D01*
X54766Y-27750D01*
X54625Y-27750D01*
X55187Y-27582D02*
X55469Y-27582D01*
X55131Y-27750D02*
X55328Y-27160D01*
X55525Y-27750D01*
X54025Y-26769D02*
X54109Y-26798D01*
X54250Y-26798D01*
X54306Y-26769D01*
X54334Y-26741D01*
X54362Y-26685D01*
X54362Y-26629D01*
X54334Y-26573D01*
X54306Y-26544D01*
X54250Y-26516D01*
X54137Y-26488D01*
X54081Y-26460D01*
X54053Y-26432D01*
X54025Y-26376D01*
X54025Y-26320D01*
X54053Y-26263D01*
X54081Y-26235D01*
X54137Y-26207D01*
X54278Y-26207D01*
X54362Y-26235D01*
X54953Y-26741D02*
X54925Y-26769D01*
X54840Y-26798D01*
X54784Y-26798D01*
X54700Y-26769D01*
X54643Y-26713D01*
X54615Y-26657D01*
X54587Y-26544D01*
X54587Y-26460D01*
X54615Y-26348D01*
X54643Y-26291D01*
X54700Y-26235D01*
X54784Y-26207D01*
X54840Y-26207D01*
X54925Y-26235D01*
X54953Y-26263D01*
X55487Y-26798D02*
X55206Y-26798D01*
X55206Y-26207D01*
X51565Y-27254D02*
X51565Y-26664D01*
X51818Y-26720D02*
X51846Y-26692D01*
X51902Y-26664D01*
X52043Y-26664D01*
X52099Y-26692D01*
X52127Y-26720D01*
X52155Y-26776D01*
X52155Y-26832D01*
X52127Y-26917D01*
X51790Y-27254D01*
X52155Y-27254D01*
X52746Y-27198D02*
X52718Y-27226D01*
X52633Y-27254D01*
X52577Y-27254D01*
X52493Y-27226D01*
X52437Y-27170D01*
X52408Y-27114D01*
X52380Y-27001D01*
X52380Y-26917D01*
X52408Y-26804D01*
X52437Y-26748D01*
X52493Y-26692D01*
X52577Y-26664D01*
X52633Y-26664D01*
X52718Y-26692D01*
X52746Y-26720D01*
X56794Y-31221D02*
X56991Y-31221D01*
X57075Y-31530D02*
X56794Y-31530D01*
X56794Y-30939D01*
X57075Y-30939D01*
X57328Y-31221D02*
X57525Y-31221D01*
X57609Y-31530D02*
X57328Y-31530D01*
X57328Y-30939D01*
X57609Y-30939D01*
X57862Y-31530D02*
X57862Y-30939D01*
X58087Y-30939D01*
X58143Y-30967D01*
X58172Y-30996D01*
X58200Y-31052D01*
X58200Y-31136D01*
X58172Y-31192D01*
X58143Y-31221D01*
X58087Y-31249D01*
X57862Y-31249D01*
X58790Y-31530D02*
X58593Y-31249D01*
X58453Y-31530D02*
X58453Y-30939D01*
X58678Y-30939D01*
X58734Y-30967D01*
X58762Y-30996D01*
X58790Y-31052D01*
X58790Y-31136D01*
X58762Y-31192D01*
X58734Y-31221D01*
X58678Y-31249D01*
X58453Y-31249D01*
X59156Y-30939D02*
X59268Y-30939D01*
X59325Y-30967D01*
X59381Y-31024D01*
X59409Y-31136D01*
X59409Y-31333D01*
X59381Y-31446D01*
X59325Y-31502D01*
X59268Y-31530D01*
X59156Y-31530D01*
X59100Y-31502D01*
X59043Y-31446D01*
X59015Y-31333D01*
X59015Y-31136D01*
X59043Y-31024D01*
X59100Y-30967D01*
X59156Y-30939D01*
X59662Y-31530D02*
X59662Y-30939D01*
X59859Y-31361D01*
X60056Y-30939D01*
X60056Y-31530D01*
X38113Y-32564D02*
X38703Y-32367D01*
X38113Y-32170D01*
X38703Y-31973D02*
X38113Y-31973D01*
X38394Y-31973D02*
X38394Y-31636D01*
X38703Y-31636D02*
X38113Y-31636D01*
X38703Y-31354D02*
X38113Y-31354D01*
X38113Y-31214D01*
X38141Y-31129D01*
X38197Y-31073D01*
X38253Y-31045D01*
X38366Y-31017D01*
X38450Y-31017D01*
X38562Y-31045D01*
X38619Y-31073D01*
X38675Y-31129D01*
X38703Y-31214D01*
X38703Y-31354D01*
X38647Y-30426D02*
X38675Y-30455D01*
X38703Y-30539D01*
X38703Y-30595D01*
X38675Y-30679D01*
X38619Y-30736D01*
X38562Y-30764D01*
X38450Y-30792D01*
X38366Y-30792D01*
X38253Y-30764D01*
X38197Y-30736D01*
X38141Y-30679D01*
X38113Y-30595D01*
X38113Y-30539D01*
X38141Y-30455D01*
X38169Y-30426D01*
X38703Y-30173D02*
X38113Y-30173D01*
G54D11*
X44539Y-37888D02*
X44602Y-38282D01*
X44749Y-38001D01*
X44827Y-38282D01*
X44988Y-37888D01*
X45157Y-37888D02*
X45220Y-38282D01*
X45368Y-38001D01*
X45445Y-38282D01*
X45607Y-37888D01*
X45776Y-37888D02*
X45839Y-38282D01*
X45987Y-38001D01*
X46064Y-38282D01*
X46226Y-37888D01*
X46409Y-38226D02*
X46433Y-38254D01*
X46402Y-38282D01*
X46377Y-38254D01*
X46409Y-38226D01*
X46402Y-38282D01*
X46683Y-38282D02*
X46757Y-37691D01*
X46936Y-38282D02*
X46975Y-37973D01*
X46953Y-37916D01*
X46901Y-37888D01*
X46816Y-37888D01*
X46757Y-37916D01*
X46725Y-37944D01*
X47470Y-38282D02*
X47544Y-37691D01*
X47474Y-38254D02*
X47414Y-38282D01*
X47301Y-38282D01*
X47249Y-38254D01*
X47224Y-38226D01*
X47203Y-38169D01*
X47224Y-38001D01*
X47259Y-37944D01*
X47291Y-37916D01*
X47351Y-37888D01*
X47463Y-37888D01*
X47516Y-37916D01*
X47751Y-38282D02*
X47801Y-37888D01*
X47794Y-37944D02*
X47825Y-37916D01*
X47885Y-37888D01*
X47969Y-37888D01*
X48022Y-37916D01*
X48043Y-37973D01*
X48004Y-38282D01*
X48043Y-37973D02*
X48078Y-37916D01*
X48138Y-37888D01*
X48222Y-37888D01*
X48275Y-37916D01*
X48296Y-37973D01*
X48258Y-38282D01*
X48539Y-38282D02*
X48588Y-37888D01*
X48613Y-37691D02*
X48581Y-37719D01*
X48606Y-37748D01*
X48637Y-37719D01*
X48613Y-37691D01*
X48606Y-37748D01*
X48859Y-37748D02*
X48890Y-37719D01*
X48950Y-37691D01*
X49091Y-37691D01*
X49143Y-37719D01*
X49168Y-37748D01*
X49189Y-37804D01*
X49182Y-37860D01*
X49143Y-37944D01*
X48764Y-38282D01*
X49129Y-38282D01*
X49685Y-37888D02*
X49636Y-38282D01*
X49432Y-37888D02*
X49393Y-38197D01*
X49414Y-38254D01*
X49467Y-38282D01*
X49551Y-38282D01*
X49611Y-38254D01*
X49643Y-38226D01*
X49892Y-38254D02*
X49945Y-38282D01*
X50057Y-38282D01*
X50117Y-38254D01*
X50152Y-38197D01*
X50156Y-38169D01*
X50135Y-38113D01*
X50082Y-38085D01*
X49998Y-38085D01*
X49945Y-38057D01*
X49924Y-38001D01*
X49927Y-37973D01*
X49962Y-37916D01*
X50022Y-37888D01*
X50107Y-37888D01*
X50159Y-37916D01*
X50395Y-38282D02*
X50469Y-37691D01*
X50441Y-37916D02*
X50500Y-37888D01*
X50613Y-37888D01*
X50665Y-37916D01*
X50690Y-37944D01*
X50711Y-38001D01*
X50690Y-38169D01*
X50655Y-38226D01*
X50623Y-38254D01*
X50564Y-38282D01*
X50451Y-38282D01*
X50398Y-38254D01*
X50936Y-38226D02*
X50961Y-38254D01*
X50929Y-38282D01*
X50905Y-38254D01*
X50936Y-38226D01*
X50929Y-38282D01*
X51175Y-37888D02*
X51400Y-37888D01*
X51284Y-37691D02*
X51221Y-38197D01*
X51242Y-38254D01*
X51295Y-38282D01*
X51351Y-38282D01*
X51541Y-37888D02*
X51632Y-38282D01*
X51822Y-37888D01*
G54D13*
X49130Y-35967D02*
X48933Y-35686D01*
X48793Y-35967D02*
X48793Y-35376D01*
X49017Y-35376D01*
X49074Y-35404D01*
X49102Y-35433D01*
X49130Y-35489D01*
X49130Y-35573D01*
X49102Y-35629D01*
X49074Y-35658D01*
X49017Y-35686D01*
X48793Y-35686D01*
X49608Y-35939D02*
X49552Y-35967D01*
X49439Y-35967D01*
X49383Y-35939D01*
X49355Y-35883D01*
X49355Y-35658D01*
X49383Y-35601D01*
X49439Y-35573D01*
X49552Y-35573D01*
X49608Y-35601D01*
X49636Y-35658D01*
X49636Y-35714D01*
X49355Y-35770D01*
X49833Y-35573D02*
X49974Y-35967D01*
X50114Y-35573D01*
X50339Y-35911D02*
X50367Y-35939D01*
X50339Y-35967D01*
X50311Y-35939D01*
X50339Y-35911D01*
X50339Y-35967D01*
X50339Y-35601D02*
X50367Y-35629D01*
X50339Y-35658D01*
X50311Y-35629D01*
X50339Y-35601D01*
X50339Y-35658D01*
X51014Y-35573D02*
X51155Y-35967D01*
X51295Y-35573D01*
X51633Y-35376D02*
X51689Y-35376D01*
X51745Y-35404D01*
X51773Y-35433D01*
X51802Y-35489D01*
X51830Y-35601D01*
X51830Y-35742D01*
X51802Y-35854D01*
X51773Y-35911D01*
X51745Y-35939D01*
X51689Y-35967D01*
X51633Y-35967D01*
X51577Y-35939D01*
X51548Y-35911D01*
X51520Y-35854D01*
X51492Y-35742D01*
X51492Y-35601D01*
X51520Y-35489D01*
X51548Y-35433D01*
X51577Y-35404D01*
X51633Y-35376D01*
X52055Y-35433D02*
X52083Y-35404D01*
X52139Y-35376D01*
X52280Y-35376D01*
X52336Y-35404D01*
X52364Y-35433D01*
X52392Y-35489D01*
X52392Y-35545D01*
X52364Y-35629D01*
X52026Y-35967D01*
X52392Y-35967D01*
G54D11*
X53783Y-40023D02*
X53763Y-40023D01*
X53783Y-41822D02*
X53783Y-40023D01*
X43850Y-41822D02*
X43850Y-40023D01*
G54D13*
X43077Y-26975D02*
X43452Y-26975D01*
X43002Y-27200D02*
X43265Y-26413D01*
X43527Y-27200D01*
X43790Y-27200D02*
X43790Y-26413D01*
X43977Y-26413D01*
X44089Y-26450D01*
X44164Y-26525D01*
X44202Y-26600D01*
X44239Y-26750D01*
X44239Y-26863D01*
X44202Y-27013D01*
X44164Y-27088D01*
X44089Y-27163D01*
X43977Y-27200D01*
X43790Y-27200D01*
X44614Y-27200D02*
X44764Y-27200D01*
X44839Y-27163D01*
X44877Y-27125D01*
X44952Y-27013D01*
X44989Y-26863D01*
X44989Y-26563D01*
X44952Y-26488D01*
X44914Y-26450D01*
X44839Y-26413D01*
X44689Y-26413D01*
X44614Y-26450D01*
X44577Y-26488D01*
X44539Y-26563D01*
X44539Y-26750D01*
X44577Y-26825D01*
X44614Y-26863D01*
X44689Y-26900D01*
X44839Y-26900D01*
X44914Y-26863D01*
X44952Y-26825D01*
X44989Y-26750D01*
X45364Y-27200D02*
X45514Y-27200D01*
X45589Y-27163D01*
X45627Y-27125D01*
X45702Y-27013D01*
X45739Y-26863D01*
X45739Y-26563D01*
X45702Y-26488D01*
X45664Y-26450D01*
X45589Y-26413D01*
X45439Y-26413D01*
X45364Y-26450D01*
X45327Y-26488D01*
X45289Y-26563D01*
X45289Y-26750D01*
X45327Y-26825D01*
X45364Y-26863D01*
X45439Y-26900D01*
X45589Y-26900D01*
X45664Y-26863D01*
X45702Y-26825D01*
X45739Y-26750D01*
X46189Y-26750D02*
X46114Y-26713D01*
X46077Y-26675D01*
X46039Y-26600D01*
X46039Y-26563D01*
X46077Y-26488D01*
X46114Y-26450D01*
X46189Y-26413D01*
X46339Y-26413D01*
X46414Y-26450D01*
X46452Y-26488D01*
X46489Y-26563D01*
X46489Y-26600D01*
X46452Y-26675D01*
X46414Y-26713D01*
X46339Y-26750D01*
X46189Y-26750D01*
X46114Y-26788D01*
X46077Y-26825D01*
X46039Y-26900D01*
X46039Y-27050D01*
X46077Y-27125D01*
X46114Y-27163D01*
X46189Y-27200D01*
X46339Y-27200D01*
X46414Y-27163D01*
X46452Y-27125D01*
X46489Y-27050D01*
X46489Y-26900D01*
X46452Y-26825D01*
X46414Y-26788D01*
X46339Y-26750D01*
X47164Y-26675D02*
X47164Y-27200D01*
X46977Y-26375D02*
X46789Y-26938D01*
X47277Y-26938D01*
X47539Y-26975D02*
X47914Y-26975D01*
X47464Y-27200D02*
X47727Y-26413D01*
X47989Y-27200D01*
G54D11*
X43826Y-39781D02*
X43910Y-39809D01*
X44051Y-39809D01*
X44107Y-39781D01*
X44135Y-39753D01*
X44163Y-39697D01*
X44163Y-39641D01*
X44135Y-39584D01*
X44107Y-39556D01*
X44051Y-39528D01*
X43938Y-39500D01*
X43882Y-39472D01*
X43854Y-39444D01*
X43826Y-39388D01*
X43826Y-39331D01*
X43854Y-39275D01*
X43882Y-39247D01*
X43938Y-39219D01*
X44079Y-39219D01*
X44163Y-39247D01*
X44641Y-39781D02*
X44585Y-39809D01*
X44473Y-39809D01*
X44416Y-39781D01*
X44388Y-39725D01*
X44388Y-39500D01*
X44416Y-39444D01*
X44473Y-39416D01*
X44585Y-39416D01*
X44641Y-39444D01*
X44669Y-39500D01*
X44669Y-39556D01*
X44388Y-39613D01*
X44922Y-39809D02*
X44922Y-39416D01*
X44922Y-39528D02*
X44951Y-39472D01*
X44979Y-39444D01*
X45035Y-39416D01*
X45091Y-39416D01*
X45288Y-39809D02*
X45288Y-39416D01*
X45288Y-39219D02*
X45260Y-39247D01*
X45288Y-39275D01*
X45316Y-39247D01*
X45288Y-39219D01*
X45288Y-39275D01*
X45822Y-39809D02*
X45822Y-39500D01*
X45794Y-39444D01*
X45738Y-39416D01*
X45625Y-39416D01*
X45569Y-39444D01*
X45822Y-39781D02*
X45766Y-39809D01*
X45625Y-39809D01*
X45569Y-39781D01*
X45541Y-39725D01*
X45541Y-39669D01*
X45569Y-39613D01*
X45625Y-39584D01*
X45766Y-39584D01*
X45822Y-39556D01*
X46188Y-39809D02*
X46132Y-39781D01*
X46104Y-39725D01*
X46104Y-39219D01*
X46413Y-39753D02*
X46441Y-39781D01*
X46413Y-39809D01*
X46385Y-39781D01*
X46413Y-39753D01*
X46413Y-39809D01*
X46413Y-39444D02*
X46441Y-39472D01*
X46413Y-39500D01*
X46385Y-39472D01*
X46413Y-39444D01*
X46413Y-39500D01*
X53771Y-40023D02*
X43850Y-40023D01*
X43854Y-41822D02*
X53775Y-41822D01*
G54D13*
X59282Y-9008D02*
X59085Y-8418D01*
X58888Y-9008D01*
X58382Y-8980D02*
X58438Y-9008D01*
X58523Y-9008D01*
X58607Y-8980D01*
X58663Y-8924D01*
X58691Y-8868D01*
X58719Y-8755D01*
X58719Y-8671D01*
X58691Y-8559D01*
X58663Y-8502D01*
X58607Y-8446D01*
X58523Y-8418D01*
X58466Y-8418D01*
X58382Y-8446D01*
X58354Y-8474D01*
X58354Y-8671D01*
X58466Y-8671D01*
X58129Y-8587D02*
X57848Y-8587D01*
X58185Y-8418D02*
X57988Y-9008D01*
X57791Y-8418D01*
X57032Y-9008D02*
X56920Y-9008D01*
X56863Y-8980D01*
X56807Y-8924D01*
X56779Y-8812D01*
X56779Y-8615D01*
X56807Y-8502D01*
X56863Y-8446D01*
X56920Y-8418D01*
X57032Y-8418D01*
X57088Y-8446D01*
X57145Y-8502D01*
X57173Y-8615D01*
X57173Y-8812D01*
X57145Y-8924D01*
X57088Y-8980D01*
X57032Y-9008D01*
X56526Y-9008D02*
X56526Y-8530D01*
X56498Y-8474D01*
X56470Y-8446D01*
X56413Y-8418D01*
X56301Y-8418D01*
X56245Y-8446D01*
X56217Y-8474D01*
X56188Y-8530D01*
X56188Y-9008D01*
X55992Y-9008D02*
X55654Y-9008D01*
X55823Y-8418D02*
X55823Y-9008D01*
X45065Y-9020D02*
X44868Y-8430D01*
X44672Y-9020D01*
X44165Y-8992D02*
X44222Y-9020D01*
X44306Y-9020D01*
X44390Y-8992D01*
X44447Y-8936D01*
X44475Y-8880D01*
X44503Y-8767D01*
X44503Y-8683D01*
X44475Y-8570D01*
X44447Y-8514D01*
X44390Y-8458D01*
X44306Y-8430D01*
X44250Y-8430D01*
X44165Y-8458D01*
X44137Y-8486D01*
X44137Y-8683D01*
X44250Y-8683D01*
X43912Y-8598D02*
X43631Y-8598D01*
X43969Y-8430D02*
X43772Y-9020D01*
X43575Y-8430D01*
X42928Y-8430D02*
X42928Y-9020D01*
X42647Y-8430D02*
X42647Y-9020D01*
X42309Y-8430D01*
X42309Y-9020D01*
X43589Y-34202D02*
X43871Y-34989D01*
X44152Y-34202D01*
X44602Y-34989D02*
X44602Y-33808D01*
X44996Y-34652D01*
X45389Y-33808D01*
X45389Y-34989D01*
X46120Y-34989D02*
X46008Y-34933D01*
X45952Y-34877D01*
X45895Y-34764D01*
X45895Y-34427D01*
X45952Y-34314D01*
X46008Y-34258D01*
X46120Y-34202D01*
X46289Y-34202D01*
X46402Y-34258D01*
X46458Y-34314D01*
X46514Y-34427D01*
X46514Y-34764D01*
X46458Y-34877D01*
X46402Y-34933D01*
X46289Y-34989D01*
X46120Y-34989D01*
X47526Y-34989D02*
X47526Y-33808D01*
X47526Y-34933D02*
X47414Y-34989D01*
X47189Y-34989D01*
X47077Y-34933D01*
X47020Y-34877D01*
X46964Y-34764D01*
X46964Y-34427D01*
X47020Y-34314D01*
X47077Y-34258D01*
X47189Y-34202D01*
X47414Y-34202D01*
X47526Y-34258D01*
X48089Y-34539D02*
X48989Y-34539D01*
X49383Y-33808D02*
X49776Y-34989D01*
X50170Y-33808D01*
X51182Y-33865D02*
X51070Y-33808D01*
X50901Y-33808D01*
X50732Y-33865D01*
X50620Y-33977D01*
X50564Y-34089D01*
X50507Y-34314D01*
X50507Y-34483D01*
X50564Y-34708D01*
X50620Y-34821D01*
X50732Y-34933D01*
X50901Y-34989D01*
X51014Y-34989D01*
X51182Y-34933D01*
X51239Y-34877D01*
X51239Y-34483D01*
X51014Y-34483D01*
X51688Y-34652D02*
X52251Y-34652D01*
X51576Y-34989D02*
X51970Y-33808D01*
X52363Y-34989D01*
G54D14*
X36596Y-18878D02*
G75*
G03X36596Y-18878I-50J0D01*
G74*
G01*
X36996Y-18878D02*
X36596Y-18878D01*
X36596Y-18878D02*
X36596Y-18278D01*
X36596Y-18278D02*
X36996Y-18278D01*
X37396Y-18278D02*
X37796Y-18278D01*
X37796Y-18278D02*
X37796Y-18878D01*
X37796Y-18878D02*
X37396Y-18878D01*
X46368Y-16401D02*
G75*
G03X46368Y-16401I-50J0D01*
G74*
G01*
X46318Y-16851D02*
X46318Y-16451D01*
X46318Y-16451D02*
X46918Y-16451D01*
X46918Y-16451D02*
X46918Y-16851D01*
X46918Y-17251D02*
X46918Y-17651D01*
X46918Y-17651D02*
X46318Y-17651D01*
X46318Y-17651D02*
X46318Y-17251D01*
X45659Y-16401D02*
G75*
G03X45659Y-16401I-50J0D01*
G74*
G01*
X45609Y-16851D02*
X45609Y-16451D01*
X45609Y-16451D02*
X46209Y-16451D01*
X46209Y-16451D02*
X46209Y-16851D01*
X46209Y-17251D02*
X46209Y-17651D01*
X46209Y-17651D02*
X45609Y-17651D01*
X45609Y-17651D02*
X45609Y-17251D01*
X44328Y-16401D02*
G75*
G03X44328Y-16401I-50J0D01*
G74*
G01*
X44278Y-16851D02*
X44278Y-16451D01*
X44278Y-16451D02*
X44878Y-16451D01*
X44878Y-16451D02*
X44878Y-16851D01*
X44878Y-17251D02*
X44878Y-17651D01*
X44878Y-17651D02*
X44278Y-17651D01*
X44278Y-17651D02*
X44278Y-17251D01*
X42206Y-17810D02*
G75*
G03X42206Y-17810I-50J0D01*
G74*
G01*
X42156Y-18260D02*
X42156Y-17860D01*
X42156Y-17860D02*
X42756Y-17860D01*
X42756Y-17860D02*
X42756Y-18260D01*
X42756Y-18660D02*
X42756Y-19060D01*
X42756Y-19060D02*
X42156Y-19060D01*
X42156Y-19060D02*
X42156Y-18660D01*
X36073Y-18067D02*
G75*
G03X36073Y-18067I-50J0D01*
G74*
G01*
X36473Y-18067D02*
X36073Y-18067D01*
X36073Y-18067D02*
X36073Y-17467D01*
X36073Y-17467D02*
X36473Y-17467D01*
X36873Y-17467D02*
X37273Y-17467D01*
X37273Y-17467D02*
X37273Y-18067D01*
X37273Y-18067D02*
X36873Y-18067D01*
X59754Y-16359D02*
G75*
G03X59754Y-16359I-50J0D01*
G74*
G01*
X60154Y-16359D02*
X59754Y-16359D01*
X59754Y-16359D02*
X59754Y-15759D01*
X59754Y-15759D02*
X60154Y-15759D01*
X60554Y-15759D02*
X60954Y-15759D01*
X60954Y-15759D02*
X60954Y-16359D01*
X60954Y-16359D02*
X60554Y-16359D01*
X47395Y-16401D02*
G75*
G03X47395Y-16401I-50J0D01*
G74*
G01*
X47345Y-16851D02*
X47345Y-16451D01*
X47345Y-16451D02*
X47945Y-16451D01*
X47945Y-16451D02*
X47945Y-16851D01*
X47945Y-17251D02*
X47945Y-17651D01*
X47945Y-17651D02*
X47345Y-17651D01*
X47345Y-17651D02*
X47345Y-17251D01*
X47550Y-15298D02*
G75*
G03X47550Y-15298I-50J0D01*
G74*
G01*
X47050Y-15298D02*
X47450Y-15298D01*
X47450Y-15298D02*
X47450Y-15898D01*
X47450Y-15898D02*
X47050Y-15898D01*
X46650Y-15898D02*
X46250Y-15898D01*
X46250Y-15898D02*
X46250Y-15298D01*
X46250Y-15298D02*
X46650Y-15298D01*
X45766Y-15302D02*
G75*
G03X45766Y-15302I-50J0D01*
G74*
G01*
X45266Y-15302D02*
X45666Y-15302D01*
X45666Y-15302D02*
X45666Y-15902D01*
X45666Y-15902D02*
X45266Y-15902D01*
X44866Y-15902D02*
X44466Y-15902D01*
X44466Y-15902D02*
X44466Y-15302D01*
X44466Y-15302D02*
X44866Y-15302D01*
X44007Y-15318D02*
G75*
G03X44007Y-15318I-50J0D01*
G74*
G01*
X43507Y-15318D02*
X43907Y-15318D01*
X43907Y-15318D02*
X43907Y-15918D01*
X43907Y-15918D02*
X43507Y-15918D01*
X43107Y-15918D02*
X42707Y-15918D01*
X42707Y-15918D02*
X42707Y-15318D01*
X42707Y-15318D02*
X43107Y-15318D01*
X43561Y-16401D02*
G75*
G03X43561Y-16401I-50J0D01*
G74*
G01*
X43511Y-16851D02*
X43511Y-16451D01*
X43511Y-16451D02*
X44111Y-16451D01*
X44111Y-16451D02*
X44111Y-16851D01*
X44111Y-17251D02*
X44111Y-17651D01*
X44111Y-17651D02*
X43511Y-17651D01*
X43511Y-17651D02*
X43511Y-17251D01*
X45107Y-12734D02*
G75*
G03X45107Y-12734I-50J0D01*
G74*
G01*
X45057Y-13184D02*
X45057Y-12784D01*
X45057Y-12784D02*
X45657Y-12784D01*
X45657Y-12784D02*
X45657Y-13184D01*
X45657Y-13584D02*
X45657Y-13984D01*
X45657Y-13984D02*
X45057Y-13984D01*
X45057Y-13984D02*
X45057Y-13584D01*
X44187Y-12734D02*
G75*
G03X44187Y-12734I-50J0D01*
G74*
G01*
X44137Y-13184D02*
X44137Y-12784D01*
X44137Y-12784D02*
X44737Y-12784D01*
X44737Y-12784D02*
X44737Y-13184D01*
X44737Y-13584D02*
X44737Y-13984D01*
X44737Y-13984D02*
X44137Y-13984D01*
X44137Y-13984D02*
X44137Y-13584D01*
X43197Y-12734D02*
G75*
G03X43197Y-12734I-50J0D01*
G74*
G01*
X43147Y-13184D02*
X43147Y-12784D01*
X43147Y-12784D02*
X43747Y-12784D01*
X43747Y-12784D02*
X43747Y-13184D01*
X43747Y-13584D02*
X43747Y-13984D01*
X43747Y-13984D02*
X43147Y-13984D01*
X43147Y-13984D02*
X43147Y-13584D01*
X50663Y-22743D02*
G75*
G03X50663Y-22743I-50J0D01*
G74*
G01*
X50613Y-23193D02*
X50613Y-22793D01*
X50613Y-22793D02*
X51213Y-22793D01*
X51213Y-22793D02*
X51213Y-23193D01*
X51213Y-23593D02*
X51213Y-23993D01*
X51213Y-23993D02*
X50613Y-23993D01*
X50613Y-23993D02*
X50613Y-23593D01*
X49816Y-23054D02*
G75*
G03X49816Y-23054I-50J0D01*
G74*
G01*
X49766Y-23504D02*
X49766Y-23104D01*
X49766Y-23104D02*
X50366Y-23104D01*
X50366Y-23104D02*
X50366Y-23504D01*
X50366Y-23904D02*
X50366Y-24304D01*
X50366Y-24304D02*
X49766Y-24304D01*
X49766Y-24304D02*
X49766Y-23904D01*
G54D15*
X39874Y-39633D02*
X38874Y-39633D01*
X38874Y-38633D02*
X39874Y-38633D01*
X38874Y-39633D02*
X38874Y-38633D01*
X39874Y-38633D02*
X39874Y-39633D01*
X39858Y-41149D02*
X38858Y-41149D01*
X38858Y-40149D02*
X39858Y-40149D01*
X38858Y-41149D02*
X38858Y-40149D01*
X39858Y-40149D02*
X39858Y-41149D01*
X60180Y-14781D02*
G75*
G03X60180Y-14781I-100J0D01*
G74*
G01*
X61080Y-14981D02*
X59880Y-14981D01*
X59880Y-14981D02*
X59880Y-13781D01*
X59880Y-13781D02*
X61080Y-13781D01*
X61080Y-13781D02*
X61080Y-14981D01*
X36629Y-16368D02*
G75*
G03X36629Y-16368I-100J0D01*
G74*
G01*
X37529Y-16568D02*
X36329Y-16568D01*
X36329Y-16568D02*
X36329Y-15368D01*
X36329Y-15368D02*
X37529Y-15368D01*
X37529Y-15368D02*
X37529Y-16568D01*
G54D14*
X59550Y-13980D02*
G75*
G03X59550Y-13980I-50J0D01*
G74*
G01*
X59500Y-13530D02*
X59500Y-13930D01*
X59500Y-13930D02*
X58900Y-13930D01*
X58900Y-13930D02*
X58900Y-13530D01*
X58900Y-13130D02*
X58900Y-12730D01*
X58900Y-12730D02*
X59500Y-12730D01*
X59500Y-12730D02*
X59500Y-13130D01*
X58653Y-14720D02*
G75*
G03X58653Y-14720I-50J0D01*
G74*
G01*
X58603Y-14270D02*
X58603Y-14670D01*
X58603Y-14670D02*
X58003Y-14670D01*
X58003Y-14670D02*
X58003Y-14270D01*
X58003Y-13870D02*
X58003Y-13470D01*
X58003Y-13470D02*
X58603Y-13470D01*
X58603Y-13470D02*
X58603Y-13870D01*
X59396Y-17205D02*
G75*
G03X59396Y-17205I-50J0D01*
G74*
G01*
X59796Y-17205D02*
X59396Y-17205D01*
X59396Y-17205D02*
X59396Y-16605D01*
X59396Y-16605D02*
X59796Y-16605D01*
X60196Y-16605D02*
X60596Y-16605D01*
X60596Y-16605D02*
X60596Y-17205D01*
X60596Y-17205D02*
X60196Y-17205D01*
X36151Y-14370D02*
G75*
G03X36151Y-14370I-50J0D01*
G74*
G01*
X36551Y-14370D02*
X36151Y-14370D01*
X36151Y-14370D02*
X36151Y-13770D01*
X36151Y-13770D02*
X36551Y-13770D01*
X36951Y-13770D02*
X37351Y-13770D01*
X37351Y-13770D02*
X37351Y-14370D01*
X37351Y-14370D02*
X36951Y-14370D01*
X36151Y-13603D02*
G75*
G03X36151Y-13603I-50J0D01*
G74*
G01*
X36551Y-13603D02*
X36151Y-13603D01*
X36151Y-13603D02*
X36151Y-13003D01*
X36151Y-13003D02*
X36551Y-13003D01*
X36951Y-13003D02*
X37351Y-13003D01*
X37351Y-13003D02*
X37351Y-13603D01*
X37351Y-13603D02*
X36951Y-13603D01*
G54D15*
X57299Y-38637D02*
X57299Y-39637D01*
X56299Y-39637D02*
X56299Y-38637D01*
X57299Y-39637D02*
X56299Y-39637D01*
X56299Y-38637D02*
X57299Y-38637D01*
X57311Y-40098D02*
X57311Y-41098D01*
X56311Y-41098D02*
X56311Y-40098D01*
X57311Y-41098D02*
X56311Y-41098D01*
X56311Y-40098D02*
X57311Y-40098D01*
X64574Y-13228D02*
X65574Y-13228D01*
X65574Y-14228D02*
X64574Y-14228D01*
X65574Y-13228D02*
X65574Y-14228D01*
X64574Y-14228D02*
X64574Y-13228D01*
X53952Y-25629D02*
X52952Y-25629D01*
X52952Y-24629D02*
X53952Y-24629D01*
X52952Y-25629D02*
X52952Y-24629D01*
X53952Y-24629D02*
X53952Y-25629D01*
X53826Y-17145D02*
X53826Y-18145D01*
X52826Y-18145D02*
X52826Y-17145D01*
X53826Y-18145D02*
X52826Y-18145D01*
X52826Y-17145D02*
X53826Y-17145D01*
X52933Y-25996D02*
X53933Y-25996D01*
X53933Y-26996D02*
X52933Y-26996D01*
X53933Y-25996D02*
X53933Y-26996D01*
X52933Y-26996D02*
X52933Y-25996D01*
X52933Y-27007D02*
X53933Y-27007D01*
X53933Y-28007D02*
X52933Y-28007D01*
X53933Y-27007D02*
X53933Y-28007D01*
X52933Y-28007D02*
X52933Y-27007D01*
X50551Y-29110D02*
X50551Y-30110D01*
X49551Y-30110D02*
X49551Y-29110D01*
X50551Y-30110D02*
X49551Y-30110D01*
X49551Y-29110D02*
X50551Y-29110D01*
X40078Y-18807D02*
X39078Y-18807D01*
X39078Y-17807D02*
X40078Y-17807D01*
X39078Y-18807D02*
X39078Y-17807D01*
X40078Y-17807D02*
X40078Y-18807D01*
X40078Y-16807D02*
X40078Y-17807D01*
X39078Y-17807D02*
X39078Y-16807D01*
X40078Y-17807D02*
X39078Y-17807D01*
X39078Y-16807D02*
X40078Y-16807D01*
X40078Y-15807D02*
X40078Y-16807D01*
X39078Y-16807D02*
X39078Y-15807D01*
X40078Y-16807D02*
X39078Y-16807D01*
X39078Y-15807D02*
X40078Y-15807D01*
X40078Y-19811D02*
X39078Y-19811D01*
X39078Y-18811D02*
X40078Y-18811D01*
X39078Y-19811D02*
X39078Y-18811D01*
X40078Y-18811D02*
X40078Y-19811D01*
X64641Y-11732D02*
X65641Y-11732D01*
X65641Y-12732D02*
X64641Y-12732D01*
X65641Y-11732D02*
X65641Y-12732D01*
X64641Y-12732D02*
X64641Y-11732D01*
G54D16*
X40771Y-13015D02*
X41771Y-13015D01*
X41771Y-13015D02*
X41771Y-19015D01*
X41771Y-19015D02*
X40771Y-19015D01*
X40771Y-19015D02*
X40771Y-13015D01*
X40771Y-14015D02*
X41771Y-14015D01*
G54D17*
X59212Y-27819D02*
X59019Y-27819D01*
X59019Y-27819D02*
X59019Y-28252D01*
X59212Y-28252D02*
X59019Y-28252D01*
X59212Y-27819D02*
X59212Y-28252D01*
X58712Y-27819D02*
X58519Y-27819D01*
X58519Y-27819D02*
X58519Y-28252D01*
X58712Y-28252D02*
X58519Y-28252D01*
X58712Y-27819D02*
X58712Y-28252D01*
X58213Y-27819D02*
X58020Y-27819D01*
X58020Y-27819D02*
X58020Y-28252D01*
X58213Y-28252D02*
X58020Y-28252D01*
X58213Y-27819D02*
X58213Y-28252D01*
X57713Y-27819D02*
X57520Y-27819D01*
X57520Y-27819D02*
X57520Y-28252D01*
X57713Y-28252D02*
X57520Y-28252D01*
X57713Y-27819D02*
X57713Y-28252D01*
X57713Y-29826D02*
X57520Y-29826D01*
X57520Y-29826D02*
X57520Y-30259D01*
X57713Y-30259D02*
X57520Y-30259D01*
X57713Y-29826D02*
X57713Y-30259D01*
X58213Y-29826D02*
X58020Y-29826D01*
X58020Y-29826D02*
X58020Y-30259D01*
X58213Y-30259D02*
X58020Y-30259D01*
X58213Y-29826D02*
X58213Y-30259D01*
X58712Y-29826D02*
X58519Y-29826D01*
X58519Y-29826D02*
X58519Y-30259D01*
X58712Y-30259D02*
X58519Y-30259D01*
X58712Y-29826D02*
X58712Y-30259D01*
X59212Y-29826D02*
X59019Y-29826D01*
X59019Y-29826D02*
X59019Y-30259D01*
X59212Y-30259D02*
X59019Y-30259D01*
X59212Y-29826D02*
X59212Y-30259D01*
G54D18*
X57422Y-29787D02*
X57422Y-28488D01*
X57422Y-28488D02*
X57422Y-28291D01*
X57422Y-28291D02*
X59310Y-28291D01*
X59310Y-28291D02*
X59310Y-28488D01*
X59310Y-28488D02*
X59310Y-29787D01*
X59310Y-29787D02*
X57422Y-29787D01*
X57422Y-28488D02*
X59310Y-28488D01*
G54D19*
G36*
X46641Y-33169D02*
X46621Y-33158D01*
X46574Y-33129D01*
X46509Y-33086D01*
X46431Y-33034D01*
X46353Y-32982D01*
X46289Y-32939D01*
X46244Y-32910D01*
X46225Y-32899D01*
X46215Y-32903D01*
X46178Y-32921D01*
X46124Y-32949D01*
X46093Y-32965D01*
X46044Y-32986D01*
X46019Y-32991D01*
X46015Y-32984D01*
X45997Y-32946D01*
X45969Y-32882D01*
X45932Y-32796D01*
X45889Y-32696D01*
X45844Y-32589D01*
X45798Y-32479D01*
X45754Y-32374D01*
X45716Y-32280D01*
X45685Y-32203D01*
X45665Y-32150D01*
X45657Y-32127D01*
X45659Y-32122D01*
X45684Y-32098D01*
X45727Y-32066D01*
X45820Y-31990D01*
X45912Y-31875D01*
X45968Y-31745D01*
X45987Y-31600D01*
X45971Y-31466D01*
X45918Y-31337D01*
X45828Y-31221D01*
X45719Y-31134D01*
X45591Y-31080D01*
X45448Y-31062D01*
X45311Y-31078D01*
X45179Y-31130D01*
X45063Y-31218D01*
X45014Y-31275D01*
X44946Y-31392D01*
X44908Y-31518D01*
X44904Y-31550D01*
X44909Y-31688D01*
X44950Y-31821D01*
X45023Y-31940D01*
X45125Y-32037D01*
X45137Y-32046D01*
X45184Y-32081D01*
X45216Y-32105D01*
X45240Y-32125D01*
X45064Y-32549D01*
X45036Y-32616D01*
X44988Y-32732D01*
X44945Y-32832D01*
X44912Y-32911D01*
X44888Y-32964D01*
X44878Y-32986D01*
X44877Y-32987D01*
X44861Y-32990D01*
X44829Y-32978D01*
X44770Y-32949D01*
X44731Y-32929D01*
X44686Y-32907D01*
X44665Y-32899D01*
X44648Y-32909D01*
X44605Y-32937D01*
X44542Y-32979D01*
X44466Y-33030D01*
X44394Y-33079D01*
X44328Y-33123D01*
X44279Y-33154D01*
X44256Y-33167D01*
X44252Y-33167D01*
X44231Y-33155D01*
X44193Y-33123D01*
X44135Y-33069D01*
X44054Y-32988D01*
X44041Y-32976D01*
X43974Y-32907D01*
X43920Y-32850D01*
X43883Y-32809D01*
X43870Y-32791D01*
X43870Y-32791D01*
X43882Y-32768D01*
X43912Y-32720D01*
X43956Y-32652D01*
X44010Y-32574D01*
X44150Y-32370D01*
X44073Y-32177D01*
X44050Y-32118D01*
X44020Y-32047D01*
X43997Y-31996D01*
X43986Y-31974D01*
X43965Y-31966D01*
X43912Y-31954D01*
X43836Y-31938D01*
X43745Y-31921D01*
X43658Y-31905D01*
X43580Y-31890D01*
X43523Y-31879D01*
X43498Y-31874D01*
X43492Y-31870D01*
X43486Y-31858D01*
X43483Y-31831D01*
X43481Y-31784D01*
X43480Y-31709D01*
X43480Y-31600D01*
X43480Y-31588D01*
X43481Y-31485D01*
X43483Y-31402D01*
X43486Y-31348D01*
X43489Y-31327D01*
X43490Y-31327D01*
X43514Y-31321D01*
X43569Y-31309D01*
X43648Y-31294D01*
X43741Y-31276D01*
X43747Y-31275D01*
X43840Y-31257D01*
X43918Y-31241D01*
X43973Y-31228D01*
X43996Y-31221D01*
X44001Y-31214D01*
X44019Y-31178D01*
X44046Y-31120D01*
X44077Y-31050D01*
X44107Y-30977D01*
X44134Y-30911D01*
X44151Y-30862D01*
X44157Y-30840D01*
X44156Y-30839D01*
X44142Y-30817D01*
X44110Y-30769D01*
X44065Y-30702D01*
X44011Y-30622D01*
X44007Y-30616D01*
X43953Y-30538D01*
X43910Y-30471D01*
X43881Y-30424D01*
X43870Y-30402D01*
X43870Y-30401D01*
X43888Y-30377D01*
X43928Y-30333D01*
X43985Y-30273D01*
X44054Y-30203D01*
X44076Y-30182D01*
X44153Y-30107D01*
X44206Y-30058D01*
X44239Y-30032D01*
X44255Y-30026D01*
X44255Y-30027D01*
X44279Y-30041D01*
X44329Y-30073D01*
X44396Y-30119D01*
X44476Y-30173D01*
X44482Y-30177D01*
X44560Y-30231D01*
X44626Y-30275D01*
X44672Y-30306D01*
X44693Y-30318D01*
X44696Y-30318D01*
X44728Y-30309D01*
X44784Y-30289D01*
X44853Y-30262D01*
X44926Y-30233D01*
X44992Y-30205D01*
X45042Y-30183D01*
X45065Y-30169D01*
X45066Y-30168D01*
X45074Y-30140D01*
X45088Y-30081D01*
X45104Y-30000D01*
X45123Y-29904D01*
X45126Y-29888D01*
X45143Y-29794D01*
X45158Y-29717D01*
X45169Y-29663D01*
X45175Y-29641D01*
X45188Y-29638D01*
X45234Y-29635D01*
X45304Y-29633D01*
X45389Y-29632D01*
X45478Y-29633D01*
X45565Y-29635D01*
X45639Y-29637D01*
X45692Y-29641D01*
X45714Y-29645D01*
X45715Y-29647D01*
X45723Y-29676D01*
X45736Y-29735D01*
X45753Y-29816D01*
X45771Y-29913D01*
X45775Y-29930D01*
X45792Y-30023D01*
X45808Y-30100D01*
X45819Y-30153D01*
X45825Y-30174D01*
X45834Y-30178D01*
X45872Y-30195D01*
X45935Y-30221D01*
X46013Y-30252D01*
X46193Y-30325D01*
X46414Y-30174D01*
X46434Y-30160D01*
X46514Y-30106D01*
X46579Y-30063D01*
X46624Y-30033D01*
X46643Y-30023D01*
X46645Y-30023D01*
X46667Y-30043D01*
X46710Y-30084D01*
X46770Y-30142D01*
X46840Y-30211D01*
X46891Y-30263D01*
X46952Y-30325D01*
X46991Y-30366D01*
X47012Y-30393D01*
X47019Y-30409D01*
X47017Y-30420D01*
X47003Y-30443D01*
X46971Y-30491D01*
X46925Y-30558D01*
X46871Y-30636D01*
X46827Y-30702D01*
X46779Y-30776D01*
X46748Y-30829D01*
X46737Y-30855D01*
X46740Y-30865D01*
X46755Y-30909D01*
X46782Y-30974D01*
X46815Y-31052D01*
X46892Y-31227D01*
X47006Y-31249D01*
X47076Y-31262D01*
X47173Y-31281D01*
X47266Y-31299D01*
X47411Y-31327D01*
X47416Y-31860D01*
X47394Y-31870D01*
X47372Y-31876D01*
X47318Y-31888D01*
X47242Y-31903D01*
X47151Y-31920D01*
X47074Y-31934D01*
X46996Y-31949D01*
X46940Y-31960D01*
X46916Y-31965D01*
X46909Y-31974D01*
X46890Y-32011D01*
X46862Y-32071D01*
X46831Y-32143D01*
X46800Y-32218D01*
X46773Y-32287D01*
X46754Y-32339D01*
X46746Y-32366D01*
X46757Y-32387D01*
X46786Y-32433D01*
X46829Y-32498D01*
X46882Y-32575D01*
X46935Y-32652D01*
X46980Y-32718D01*
X47011Y-32766D01*
X47024Y-32788D01*
X47017Y-32802D01*
X46986Y-32840D01*
X46928Y-32900D01*
X46841Y-32986D01*
X46827Y-33000D01*
X46758Y-33066D01*
X46700Y-33120D01*
X46659Y-33156D01*
X46641Y-33169D01*
X46641Y-33169D01*
G37*
G54D20*
X36966Y-8791D02*
G75*
G03X36966Y-8791I-777J0D01*
G74*
G01*
G54D18*
X36188Y-9521D02*
G75*
G03X36188Y-8061I0J730D01*
G74*
G01*
X36188Y-8061D02*
G75*
G03X36188Y-9521I0J-729D01*
G74*
G01*
X36188Y-9521D02*
G75*
G03X36188Y-8061I0J730D01*
G74*
G01*
X36188Y-8061D02*
G75*
G03X36188Y-9521I0J-729D01*
G74*
G01*
G54D20*
X65399Y-8791D02*
G75*
G03X65399Y-8791I-777J0D01*
G74*
G01*
G54D18*
X64622Y-9521D02*
G75*
G03X64622Y-8061I0J730D01*
G74*
G01*
X64622Y-8061D02*
G75*
G03X64622Y-9521I0J-729D01*
G74*
G01*
X64622Y-9521D02*
G75*
G03X64622Y-8061I0J730D01*
G74*
G01*
X64622Y-8061D02*
G75*
G03X64622Y-9521I0J-729D01*
G74*
G01*
G54D20*
X36978Y-41641D02*
G75*
G03X36978Y-41641I-777J0D01*
G74*
G01*
G54D18*
X36200Y-42371D02*
G75*
G03X36200Y-40911I0J730D01*
G74*
G01*
X36200Y-40911D02*
G75*
G03X36200Y-42371I0J-730D01*
G74*
G01*
X36200Y-42371D02*
G75*
G03X36200Y-40911I0J730D01*
G74*
G01*
X36200Y-40911D02*
G75*
G03X36200Y-42371I0J-730D01*
G74*
G01*
G54D20*
X65439Y-41598D02*
G75*
G03X65439Y-41598I-777J0D01*
G74*
G01*
G54D18*
X64661Y-42328D02*
G75*
G03X64661Y-40868I0J730D01*
G74*
G01*
X64661Y-40868D02*
G75*
G03X64661Y-42328I0J-730D01*
G74*
G01*
X64661Y-42328D02*
G75*
G03X64661Y-40868I0J730D01*
G74*
G01*
X64661Y-40868D02*
G75*
G03X64661Y-42328I0J-730D01*
G74*
G01*
G54D20*
X40132Y-42051D02*
G75*
G03X40132Y-42051I-777J0D01*
G74*
G01*
G54D18*
X39354Y-42781D02*
G75*
G03X39354Y-41321I0J730D01*
G74*
G01*
X39354Y-41321D02*
G75*
G03X39354Y-42781I0J-730D01*
G74*
G01*
X39354Y-42781D02*
G75*
G03X39354Y-41321I0J730D01*
G74*
G01*
X39354Y-41321D02*
G75*
G03X39354Y-42781I0J-730D01*
G74*
G01*
X48117Y-24766D02*
X42831Y-24766D01*
X42831Y-24766D02*
X42831Y-19484D01*
X42831Y-19484D02*
X48117Y-19484D01*
X48117Y-19484D02*
X48117Y-24766D01*
G54D21*
X47845Y-19960D02*
G75*
G03X47845Y-19960I-207J0D01*
G74*
G01*
G54D15*
X36128Y-18737D02*
X36023Y-18587D01*
X35948Y-18737D02*
X35948Y-18422D01*
X36068Y-18422D01*
X36098Y-18437D01*
X36113Y-18452D01*
X36128Y-18482D01*
X36128Y-18527D01*
X36113Y-18557D01*
X36098Y-18572D01*
X36068Y-18587D01*
X35948Y-18587D01*
X36428Y-18737D02*
X36248Y-18737D01*
X36338Y-18737D02*
X36338Y-18422D01*
X36308Y-18467D01*
X36278Y-18497D01*
X36248Y-18512D01*
X35460Y-18901D02*
X35475Y-18886D01*
X35505Y-18871D01*
X35580Y-18871D01*
X35610Y-18886D01*
X35625Y-18901D01*
X35640Y-18931D01*
X35640Y-18961D01*
X35625Y-19006D01*
X35445Y-19186D01*
X35640Y-19186D01*
X35775Y-19156D02*
X35790Y-19171D01*
X35775Y-19186D01*
X35760Y-19171D01*
X35775Y-19156D01*
X35775Y-19186D01*
X35910Y-18901D02*
X35925Y-18886D01*
X35955Y-18871D01*
X36030Y-18871D01*
X36060Y-18886D01*
X36075Y-18901D01*
X36090Y-18931D01*
X36090Y-18961D01*
X36075Y-19006D01*
X35895Y-19186D01*
X36090Y-19186D01*
X36225Y-19186D02*
X36225Y-18871D01*
X36405Y-19186D02*
X36270Y-19006D01*
X36405Y-18871D02*
X36225Y-19051D01*
X46561Y-18018D02*
X46546Y-18033D01*
X46501Y-18048D01*
X46471Y-18048D01*
X46426Y-18033D01*
X46396Y-18003D01*
X46381Y-17973D01*
X46366Y-17913D01*
X46366Y-17868D01*
X46381Y-17808D01*
X46396Y-17778D01*
X46426Y-17748D01*
X46471Y-17733D01*
X46501Y-17733D01*
X46546Y-17748D01*
X46561Y-17763D01*
X46741Y-17868D02*
X46711Y-17853D01*
X46696Y-17838D01*
X46681Y-17808D01*
X46681Y-17793D01*
X46696Y-17763D01*
X46711Y-17748D01*
X46741Y-17733D01*
X46801Y-17733D01*
X46831Y-17748D01*
X46846Y-17763D01*
X46861Y-17793D01*
X46861Y-17808D01*
X46846Y-17838D01*
X46831Y-17853D01*
X46801Y-17868D01*
X46741Y-17868D01*
X46711Y-17883D01*
X46696Y-17898D01*
X46681Y-17928D01*
X46681Y-17988D01*
X46696Y-18018D01*
X46711Y-18033D01*
X46741Y-18048D01*
X46801Y-18048D01*
X46831Y-18033D01*
X46846Y-18018D01*
X46861Y-17988D01*
X46861Y-17928D01*
X46846Y-17898D01*
X46831Y-17883D01*
X46801Y-17868D01*
X46500Y-16161D02*
X46500Y-16371D01*
X46425Y-16041D02*
X46350Y-16266D01*
X46545Y-16266D01*
X46635Y-16056D02*
X46845Y-16056D01*
X46710Y-16371D01*
X46965Y-16161D02*
X46965Y-16371D01*
X46965Y-16191D02*
X46980Y-16176D01*
X47010Y-16161D01*
X47055Y-16161D01*
X47085Y-16176D01*
X47100Y-16206D01*
X47100Y-16371D01*
X47205Y-16161D02*
X47325Y-16161D01*
X47250Y-16371D02*
X47250Y-16101D01*
X47265Y-16071D01*
X47295Y-16056D01*
X47325Y-16056D01*
X45868Y-18010D02*
X45853Y-18025D01*
X45808Y-18040D01*
X45778Y-18040D01*
X45733Y-18025D01*
X45703Y-17995D01*
X45688Y-17965D01*
X45673Y-17905D01*
X45673Y-17860D01*
X45688Y-17800D01*
X45703Y-17770D01*
X45733Y-17740D01*
X45778Y-17725D01*
X45808Y-17725D01*
X45853Y-17740D01*
X45868Y-17755D01*
X46018Y-18040D02*
X46078Y-18040D01*
X46108Y-18025D01*
X46123Y-18010D01*
X46153Y-17965D01*
X46168Y-17905D01*
X46168Y-17785D01*
X46153Y-17755D01*
X46138Y-17740D01*
X46108Y-17725D01*
X46048Y-17725D01*
X46018Y-17740D01*
X46003Y-17755D01*
X45988Y-17785D01*
X45988Y-17860D01*
X46003Y-17890D01*
X46018Y-17905D01*
X46048Y-17920D01*
X46108Y-17920D01*
X46138Y-17905D01*
X46153Y-17890D01*
X46168Y-17860D01*
X45703Y-16371D02*
X45523Y-16371D01*
X45613Y-16371D02*
X45613Y-16056D01*
X45583Y-16101D01*
X45553Y-16131D01*
X45523Y-16146D01*
X45838Y-16161D02*
X45838Y-16371D01*
X45838Y-16191D02*
X45853Y-16176D01*
X45883Y-16161D01*
X45928Y-16161D01*
X45958Y-16176D01*
X45973Y-16206D01*
X45973Y-16371D01*
X46078Y-16161D02*
X46198Y-16161D01*
X46123Y-16371D02*
X46123Y-16101D01*
X46138Y-16071D01*
X46168Y-16056D01*
X46198Y-16056D01*
X44395Y-18018D02*
X44380Y-18033D01*
X44335Y-18048D01*
X44305Y-18048D01*
X44260Y-18033D01*
X44230Y-18003D01*
X44215Y-17973D01*
X44200Y-17913D01*
X44200Y-17868D01*
X44215Y-17808D01*
X44230Y-17778D01*
X44260Y-17748D01*
X44305Y-17733D01*
X44335Y-17733D01*
X44380Y-17748D01*
X44395Y-17763D01*
X44695Y-18048D02*
X44515Y-18048D01*
X44605Y-18048D02*
X44605Y-17733D01*
X44575Y-17778D01*
X44545Y-17808D01*
X44515Y-17823D01*
X44815Y-17763D02*
X44830Y-17748D01*
X44860Y-17733D01*
X44935Y-17733D01*
X44965Y-17748D01*
X44980Y-17763D01*
X44995Y-17793D01*
X44995Y-17823D01*
X44980Y-17868D01*
X44800Y-18048D01*
X44995Y-18048D01*
X44464Y-16165D02*
X44464Y-16375D01*
X44389Y-16045D02*
X44314Y-16270D01*
X44509Y-16270D01*
X44599Y-16060D02*
X44809Y-16060D01*
X44674Y-16375D01*
X44929Y-16165D02*
X44929Y-16375D01*
X44929Y-16195D02*
X44944Y-16180D01*
X44974Y-16165D01*
X45019Y-16165D01*
X45049Y-16180D01*
X45064Y-16210D01*
X45064Y-16375D01*
X45169Y-16165D02*
X45289Y-16165D01*
X45214Y-16375D02*
X45214Y-16105D01*
X45229Y-16075D01*
X45259Y-16060D01*
X45289Y-16060D01*
X42065Y-19440D02*
X42050Y-19455D01*
X42005Y-19470D01*
X41975Y-19470D01*
X41930Y-19455D01*
X41900Y-19425D01*
X41885Y-19395D01*
X41870Y-19335D01*
X41870Y-19290D01*
X41885Y-19230D01*
X41900Y-19200D01*
X41930Y-19170D01*
X41975Y-19155D01*
X42005Y-19155D01*
X42050Y-19170D01*
X42065Y-19185D01*
X42365Y-19470D02*
X42185Y-19470D01*
X42275Y-19470D02*
X42275Y-19155D01*
X42245Y-19200D01*
X42215Y-19230D01*
X42185Y-19245D01*
X42635Y-19260D02*
X42635Y-19470D01*
X42560Y-19140D02*
X42485Y-19365D01*
X42680Y-19365D01*
X43038Y-18434D02*
X42858Y-18434D01*
X42948Y-18434D02*
X42948Y-18119D01*
X42918Y-18164D01*
X42888Y-18194D01*
X42858Y-18209D01*
X43233Y-18119D02*
X43263Y-18119D01*
X43293Y-18134D01*
X43308Y-18149D01*
X43323Y-18179D01*
X43338Y-18239D01*
X43338Y-18314D01*
X43323Y-18374D01*
X43308Y-18404D01*
X43293Y-18419D01*
X43263Y-18434D01*
X43233Y-18434D01*
X43203Y-18419D01*
X43188Y-18404D01*
X43173Y-18374D01*
X43158Y-18314D01*
X43158Y-18239D01*
X43173Y-18179D01*
X43188Y-18149D01*
X43203Y-18134D01*
X43233Y-18119D01*
X43473Y-18224D02*
X43473Y-18434D01*
X43473Y-18254D02*
X43488Y-18239D01*
X43518Y-18224D01*
X43563Y-18224D01*
X43593Y-18239D01*
X43608Y-18269D01*
X43608Y-18434D01*
X43713Y-18224D02*
X43833Y-18224D01*
X43758Y-18434D02*
X43758Y-18164D01*
X43773Y-18134D01*
X43803Y-18119D01*
X43833Y-18119D01*
X35734Y-17765D02*
X35629Y-17615D01*
X35554Y-17765D02*
X35554Y-17450D01*
X35674Y-17450D01*
X35704Y-17465D01*
X35719Y-17480D01*
X35734Y-17510D01*
X35734Y-17555D01*
X35719Y-17585D01*
X35704Y-17600D01*
X35674Y-17615D01*
X35554Y-17615D01*
X36019Y-17450D02*
X35869Y-17450D01*
X35854Y-17600D01*
X35869Y-17585D01*
X35899Y-17570D01*
X35974Y-17570D01*
X36004Y-17585D01*
X36019Y-17600D01*
X36034Y-17630D01*
X36034Y-17705D01*
X36019Y-17735D01*
X36004Y-17750D01*
X35974Y-17765D01*
X35899Y-17765D01*
X35869Y-17750D01*
X35854Y-17735D01*
X34968Y-17917D02*
X34983Y-17902D01*
X35013Y-17887D01*
X35088Y-17887D01*
X35118Y-17902D01*
X35133Y-17917D01*
X35148Y-17947D01*
X35148Y-17977D01*
X35133Y-18022D01*
X34953Y-18202D01*
X35148Y-18202D01*
X35283Y-18172D02*
X35298Y-18187D01*
X35283Y-18202D01*
X35268Y-18187D01*
X35283Y-18172D01*
X35283Y-18202D01*
X35418Y-17917D02*
X35433Y-17902D01*
X35463Y-17887D01*
X35538Y-17887D01*
X35568Y-17902D01*
X35583Y-17917D01*
X35598Y-17947D01*
X35598Y-17977D01*
X35583Y-18022D01*
X35403Y-18202D01*
X35598Y-18202D01*
X35733Y-18202D02*
X35733Y-17887D01*
X35913Y-18202D02*
X35778Y-18022D01*
X35913Y-17887D02*
X35733Y-18067D01*
X59258Y-16186D02*
X59153Y-16036D01*
X59078Y-16186D02*
X59078Y-15871D01*
X59198Y-15871D01*
X59228Y-15886D01*
X59243Y-15901D01*
X59258Y-15931D01*
X59258Y-15976D01*
X59243Y-16006D01*
X59228Y-16021D01*
X59198Y-16036D01*
X59078Y-16036D01*
X59363Y-15871D02*
X59558Y-15871D01*
X59453Y-15991D01*
X59498Y-15991D01*
X59528Y-16006D01*
X59543Y-16021D01*
X59558Y-16051D01*
X59558Y-16126D01*
X59543Y-16156D01*
X59528Y-16171D01*
X59498Y-16186D01*
X59408Y-16186D01*
X59378Y-16171D01*
X59363Y-16156D01*
X61062Y-15940D02*
X61077Y-15925D01*
X61107Y-15910D01*
X61182Y-15910D01*
X61212Y-15925D01*
X61227Y-15940D01*
X61242Y-15970D01*
X61242Y-16000D01*
X61227Y-16045D01*
X61047Y-16225D01*
X61242Y-16225D01*
X61377Y-16195D02*
X61392Y-16210D01*
X61377Y-16225D01*
X61362Y-16210D01*
X61377Y-16195D01*
X61377Y-16225D01*
X61512Y-15940D02*
X61527Y-15925D01*
X61557Y-15910D01*
X61632Y-15910D01*
X61662Y-15925D01*
X61677Y-15940D01*
X61692Y-15970D01*
X61692Y-16000D01*
X61677Y-16045D01*
X61497Y-16225D01*
X61692Y-16225D01*
X61827Y-16225D02*
X61827Y-15910D01*
X62007Y-16225D02*
X61872Y-16045D01*
X62007Y-15910D02*
X61827Y-16090D01*
X47577Y-18014D02*
X47562Y-18029D01*
X47517Y-18044D01*
X47487Y-18044D01*
X47442Y-18029D01*
X47412Y-17999D01*
X47397Y-17969D01*
X47382Y-17909D01*
X47382Y-17864D01*
X47397Y-17804D01*
X47412Y-17774D01*
X47442Y-17744D01*
X47487Y-17729D01*
X47517Y-17729D01*
X47562Y-17744D01*
X47577Y-17759D01*
X47847Y-17729D02*
X47787Y-17729D01*
X47757Y-17744D01*
X47742Y-17759D01*
X47712Y-17804D01*
X47697Y-17864D01*
X47697Y-17984D01*
X47712Y-18014D01*
X47727Y-18029D01*
X47757Y-18044D01*
X47817Y-18044D01*
X47847Y-18029D01*
X47862Y-18014D01*
X47877Y-17984D01*
X47877Y-17909D01*
X47862Y-17879D01*
X47847Y-17864D01*
X47817Y-17849D01*
X47757Y-17849D01*
X47727Y-17864D01*
X47712Y-17879D01*
X47697Y-17909D01*
X47799Y-16149D02*
X47799Y-16359D01*
X47724Y-16029D02*
X47649Y-16254D01*
X47844Y-16254D01*
X47934Y-16044D02*
X48144Y-16044D01*
X48009Y-16359D01*
X48264Y-16149D02*
X48264Y-16359D01*
X48264Y-16179D02*
X48279Y-16164D01*
X48309Y-16149D01*
X48354Y-16149D01*
X48384Y-16164D01*
X48399Y-16194D01*
X48399Y-16359D01*
X48504Y-16149D02*
X48624Y-16149D01*
X48549Y-16359D02*
X48549Y-16089D01*
X48564Y-16059D01*
X48594Y-16044D01*
X48624Y-16044D01*
X46372Y-15202D02*
X46267Y-15052D01*
X46192Y-15202D02*
X46192Y-14887D01*
X46312Y-14887D01*
X46342Y-14902D01*
X46357Y-14917D01*
X46372Y-14947D01*
X46372Y-14992D01*
X46357Y-15022D01*
X46342Y-15037D01*
X46312Y-15052D01*
X46192Y-15052D01*
X46642Y-14887D02*
X46582Y-14887D01*
X46552Y-14902D01*
X46537Y-14917D01*
X46507Y-14962D01*
X46492Y-15022D01*
X46492Y-15142D01*
X46507Y-15172D01*
X46522Y-15187D01*
X46552Y-15202D01*
X46612Y-15202D01*
X46642Y-15187D01*
X46657Y-15172D01*
X46672Y-15142D01*
X46672Y-15067D01*
X46657Y-15037D01*
X46642Y-15022D01*
X46612Y-15007D01*
X46552Y-15007D01*
X46522Y-15022D01*
X46507Y-15037D01*
X46492Y-15067D01*
X46985Y-14875D02*
X47195Y-14875D01*
X47060Y-15190D01*
X47465Y-14875D02*
X47315Y-14875D01*
X47300Y-15025D01*
X47315Y-15010D01*
X47345Y-14995D01*
X47420Y-14995D01*
X47450Y-15010D01*
X47465Y-15025D01*
X47480Y-15055D01*
X47480Y-15130D01*
X47465Y-15160D01*
X47450Y-15175D01*
X47420Y-15190D01*
X47345Y-15190D01*
X47315Y-15175D01*
X47300Y-15160D01*
X44597Y-15198D02*
X44492Y-15048D01*
X44417Y-15198D02*
X44417Y-14883D01*
X44537Y-14883D01*
X44567Y-14898D01*
X44582Y-14913D01*
X44597Y-14943D01*
X44597Y-14988D01*
X44582Y-15018D01*
X44567Y-15033D01*
X44537Y-15048D01*
X44417Y-15048D01*
X44867Y-14988D02*
X44867Y-15198D01*
X44792Y-14868D02*
X44717Y-15093D01*
X44912Y-15093D01*
X45146Y-14871D02*
X45356Y-14871D01*
X45221Y-15186D01*
X45626Y-14871D02*
X45476Y-14871D01*
X45461Y-15021D01*
X45476Y-15006D01*
X45506Y-14991D01*
X45581Y-14991D01*
X45611Y-15006D01*
X45626Y-15021D01*
X45641Y-15051D01*
X45641Y-15126D01*
X45626Y-15156D01*
X45611Y-15171D01*
X45581Y-15186D01*
X45506Y-15186D01*
X45476Y-15171D01*
X45461Y-15156D01*
X42467Y-15190D02*
X42362Y-15040D01*
X42287Y-15190D02*
X42287Y-14875D01*
X42407Y-14875D01*
X42437Y-14890D01*
X42452Y-14905D01*
X42467Y-14935D01*
X42467Y-14980D01*
X42452Y-15010D01*
X42437Y-15025D01*
X42407Y-15040D01*
X42287Y-15040D01*
X42587Y-14905D02*
X42602Y-14890D01*
X42632Y-14875D01*
X42707Y-14875D01*
X42737Y-14890D01*
X42752Y-14905D01*
X42767Y-14935D01*
X42767Y-14965D01*
X42752Y-15010D01*
X42572Y-15190D01*
X42767Y-15190D01*
X43426Y-14883D02*
X43636Y-14883D01*
X43501Y-15198D01*
X43906Y-14883D02*
X43756Y-14883D01*
X43741Y-15033D01*
X43756Y-15018D01*
X43786Y-15003D01*
X43861Y-15003D01*
X43891Y-15018D01*
X43906Y-15033D01*
X43921Y-15063D01*
X43921Y-15138D01*
X43906Y-15168D01*
X43891Y-15183D01*
X43861Y-15198D01*
X43786Y-15198D01*
X43756Y-15183D01*
X43741Y-15168D01*
X43656Y-18032D02*
X43551Y-17883D01*
X43476Y-18032D02*
X43476Y-17718D01*
X43596Y-17718D01*
X43626Y-17733D01*
X43641Y-17748D01*
X43656Y-17778D01*
X43656Y-17823D01*
X43641Y-17853D01*
X43626Y-17868D01*
X43596Y-17883D01*
X43476Y-17883D01*
X43761Y-17718D02*
X43971Y-17718D01*
X43836Y-18032D01*
X43802Y-16347D02*
X43622Y-16347D01*
X43712Y-16347D02*
X43712Y-16032D01*
X43682Y-16077D01*
X43652Y-16107D01*
X43622Y-16122D01*
X43937Y-16347D02*
X43937Y-16032D01*
X44117Y-16347D02*
X43982Y-16167D01*
X44117Y-16032D02*
X43937Y-16212D01*
X45146Y-14257D02*
X45041Y-14257D01*
X45041Y-14422D02*
X45041Y-14107D01*
X45191Y-14107D01*
X45416Y-14257D02*
X45461Y-14272D01*
X45476Y-14287D01*
X45491Y-14317D01*
X45491Y-14362D01*
X45476Y-14392D01*
X45461Y-14407D01*
X45431Y-14422D01*
X45311Y-14422D01*
X45311Y-14107D01*
X45416Y-14107D01*
X45446Y-14122D01*
X45461Y-14137D01*
X45476Y-14167D01*
X45476Y-14197D01*
X45461Y-14227D01*
X45446Y-14242D01*
X45416Y-14257D01*
X45311Y-14257D01*
X45761Y-14107D02*
X45701Y-14107D01*
X45671Y-14122D01*
X45656Y-14137D01*
X45626Y-14182D01*
X45611Y-14242D01*
X45611Y-14362D01*
X45626Y-14392D01*
X45641Y-14407D01*
X45671Y-14422D01*
X45731Y-14422D01*
X45761Y-14407D01*
X45776Y-14392D01*
X45791Y-14362D01*
X45791Y-14287D01*
X45776Y-14257D01*
X45761Y-14242D01*
X45731Y-14227D01*
X45671Y-14227D01*
X45641Y-14242D01*
X45626Y-14257D01*
X45611Y-14287D01*
G54D22*
X45184Y-13745D02*
X45184Y-13811D01*
X45287Y-13811D02*
X45090Y-13811D01*
X45090Y-13717D01*
X45287Y-13642D02*
X45090Y-13642D01*
X45287Y-13454D02*
X45287Y-13548D01*
X45090Y-13548D01*
X45090Y-13417D02*
X45090Y-13304D01*
X45287Y-13360D02*
X45090Y-13360D01*
X45184Y-13238D02*
X45184Y-13173D01*
X45287Y-13144D02*
X45287Y-13238D01*
X45090Y-13238D01*
X45090Y-13144D01*
X45287Y-12947D02*
X45193Y-13013D01*
X45287Y-13060D02*
X45090Y-13060D01*
X45090Y-12985D01*
X45099Y-12966D01*
X45109Y-12957D01*
X45128Y-12947D01*
X45156Y-12947D01*
X45175Y-12957D01*
X45184Y-12966D01*
X45193Y-12985D01*
X45193Y-13060D01*
G54D15*
X44166Y-14261D02*
X44061Y-14261D01*
X44061Y-14426D02*
X44061Y-14111D01*
X44211Y-14111D01*
X44436Y-14261D02*
X44481Y-14276D01*
X44496Y-14291D01*
X44511Y-14321D01*
X44511Y-14366D01*
X44496Y-14396D01*
X44481Y-14411D01*
X44451Y-14426D01*
X44331Y-14426D01*
X44331Y-14111D01*
X44436Y-14111D01*
X44466Y-14126D01*
X44481Y-14141D01*
X44496Y-14171D01*
X44496Y-14201D01*
X44481Y-14231D01*
X44466Y-14246D01*
X44436Y-14261D01*
X44331Y-14261D01*
X44796Y-14111D02*
X44646Y-14111D01*
X44631Y-14261D01*
X44646Y-14246D01*
X44676Y-14231D01*
X44751Y-14231D01*
X44781Y-14246D01*
X44796Y-14261D01*
X44811Y-14291D01*
X44811Y-14366D01*
X44796Y-14396D01*
X44781Y-14411D01*
X44751Y-14426D01*
X44676Y-14426D01*
X44646Y-14411D01*
X44631Y-14396D01*
G54D22*
X44264Y-13745D02*
X44264Y-13811D01*
X44367Y-13811D02*
X44170Y-13811D01*
X44170Y-13717D01*
X44367Y-13642D02*
X44170Y-13642D01*
X44367Y-13454D02*
X44367Y-13548D01*
X44170Y-13548D01*
X44170Y-13417D02*
X44170Y-13304D01*
X44367Y-13360D02*
X44170Y-13360D01*
X44264Y-13238D02*
X44264Y-13173D01*
X44367Y-13144D02*
X44367Y-13238D01*
X44170Y-13238D01*
X44170Y-13144D01*
X44367Y-12947D02*
X44273Y-13013D01*
X44367Y-13060D02*
X44170Y-13060D01*
X44170Y-12985D01*
X44179Y-12966D01*
X44189Y-12957D01*
X44208Y-12947D01*
X44236Y-12947D01*
X44255Y-12957D01*
X44264Y-12966D01*
X44273Y-12985D01*
X44273Y-13060D01*
G54D15*
X43186Y-14273D02*
X43081Y-14273D01*
X43081Y-14438D02*
X43081Y-14123D01*
X43231Y-14123D01*
X43456Y-14273D02*
X43501Y-14288D01*
X43516Y-14303D01*
X43531Y-14333D01*
X43531Y-14378D01*
X43516Y-14408D01*
X43501Y-14423D01*
X43471Y-14438D01*
X43351Y-14438D01*
X43351Y-14123D01*
X43456Y-14123D01*
X43486Y-14138D01*
X43501Y-14153D01*
X43516Y-14183D01*
X43516Y-14213D01*
X43501Y-14243D01*
X43486Y-14258D01*
X43456Y-14273D01*
X43351Y-14273D01*
X43801Y-14228D02*
X43801Y-14438D01*
X43726Y-14108D02*
X43651Y-14333D01*
X43846Y-14333D01*
G54D22*
X43274Y-13745D02*
X43274Y-13811D01*
X43377Y-13811D02*
X43180Y-13811D01*
X43180Y-13717D01*
X43377Y-13642D02*
X43180Y-13642D01*
X43377Y-13454D02*
X43377Y-13548D01*
X43180Y-13548D01*
X43180Y-13417D02*
X43180Y-13304D01*
X43377Y-13360D02*
X43180Y-13360D01*
X43274Y-13238D02*
X43274Y-13173D01*
X43377Y-13144D02*
X43377Y-13238D01*
X43180Y-13238D01*
X43180Y-13144D01*
X43377Y-12947D02*
X43283Y-13013D01*
X43377Y-13060D02*
X43180Y-13060D01*
X43180Y-12985D01*
X43189Y-12966D01*
X43199Y-12957D01*
X43218Y-12947D01*
X43246Y-12947D01*
X43265Y-12957D01*
X43274Y-12966D01*
X43283Y-12985D01*
X43283Y-13060D01*
G54D15*
X50769Y-24418D02*
X50664Y-24268D01*
X50589Y-24418D02*
X50589Y-24103D01*
X50709Y-24103D01*
X50739Y-24118D01*
X50754Y-24133D01*
X50769Y-24163D01*
X50769Y-24208D01*
X50754Y-24238D01*
X50739Y-24253D01*
X50709Y-24268D01*
X50589Y-24268D01*
X51069Y-24418D02*
X50889Y-24418D01*
X50979Y-24418D02*
X50979Y-24103D01*
X50949Y-24148D01*
X50919Y-24178D01*
X50889Y-24193D01*
X51354Y-24103D02*
X51204Y-24103D01*
X51189Y-24253D01*
X51204Y-24238D01*
X51234Y-24223D01*
X51309Y-24223D01*
X51339Y-24238D01*
X51354Y-24253D01*
X51369Y-24283D01*
X51369Y-24358D01*
X51354Y-24388D01*
X51339Y-24403D01*
X51309Y-24418D01*
X51234Y-24418D01*
X51204Y-24403D01*
X51189Y-24388D01*
X50669Y-22342D02*
X50684Y-22327D01*
X50714Y-22312D01*
X50789Y-22312D01*
X50819Y-22327D01*
X50834Y-22342D01*
X50849Y-22372D01*
X50849Y-22402D01*
X50834Y-22447D01*
X50654Y-22627D01*
X50849Y-22627D01*
X50984Y-22597D02*
X50999Y-22612D01*
X50984Y-22627D01*
X50969Y-22612D01*
X50984Y-22597D01*
X50984Y-22627D01*
X51119Y-22342D02*
X51134Y-22327D01*
X51164Y-22312D01*
X51239Y-22312D01*
X51269Y-22327D01*
X51284Y-22342D01*
X51299Y-22372D01*
X51299Y-22402D01*
X51284Y-22447D01*
X51104Y-22627D01*
X51299Y-22627D01*
X51434Y-22627D02*
X51434Y-22312D01*
X51614Y-22627D02*
X51479Y-22447D01*
X51614Y-22312D02*
X51434Y-22492D01*
X49864Y-24714D02*
X49759Y-24564D01*
X49684Y-24714D02*
X49684Y-24399D01*
X49804Y-24399D01*
X49834Y-24414D01*
X49849Y-24429D01*
X49864Y-24459D01*
X49864Y-24504D01*
X49849Y-24534D01*
X49834Y-24549D01*
X49804Y-24564D01*
X49684Y-24564D01*
X50164Y-24714D02*
X49984Y-24714D01*
X50074Y-24714D02*
X50074Y-24399D01*
X50044Y-24444D01*
X50014Y-24474D01*
X49984Y-24489D01*
X50434Y-24399D02*
X50374Y-24399D01*
X50344Y-24414D01*
X50329Y-24429D01*
X50299Y-24474D01*
X50284Y-24534D01*
X50284Y-24654D01*
X50299Y-24684D01*
X50314Y-24699D01*
X50344Y-24714D01*
X50404Y-24714D01*
X50434Y-24699D01*
X50449Y-24684D01*
X50464Y-24654D01*
X50464Y-24579D01*
X50449Y-24549D01*
X50434Y-24534D01*
X50404Y-24519D01*
X50344Y-24519D01*
X50314Y-24534D01*
X50299Y-24549D01*
X50284Y-24579D01*
X49539Y-22661D02*
X49554Y-22646D01*
X49584Y-22631D01*
X49659Y-22631D01*
X49689Y-22646D01*
X49704Y-22661D01*
X49719Y-22691D01*
X49719Y-22721D01*
X49704Y-22766D01*
X49524Y-22946D01*
X49719Y-22946D01*
X49854Y-22916D02*
X49869Y-22931D01*
X49854Y-22946D01*
X49839Y-22931D01*
X49854Y-22916D01*
X49854Y-22946D01*
X49989Y-22661D02*
X50004Y-22646D01*
X50034Y-22631D01*
X50109Y-22631D01*
X50139Y-22646D01*
X50154Y-22661D01*
X50169Y-22691D01*
X50169Y-22721D01*
X50154Y-22766D01*
X49974Y-22946D01*
X50169Y-22946D01*
X50304Y-22946D02*
X50304Y-22631D01*
X50484Y-22946D02*
X50349Y-22766D01*
X50484Y-22631D02*
X50304Y-22811D01*
X38321Y-39255D02*
X38321Y-38955D01*
X38436Y-38955D01*
X38464Y-38969D01*
X38479Y-38983D01*
X38493Y-39012D01*
X38493Y-39055D01*
X38479Y-39083D01*
X38464Y-39098D01*
X38436Y-39112D01*
X38321Y-39112D01*
X38750Y-38955D02*
X38693Y-38955D01*
X38664Y-38969D01*
X38650Y-38983D01*
X38621Y-39026D01*
X38607Y-39083D01*
X38607Y-39198D01*
X38621Y-39226D01*
X38636Y-39241D01*
X38664Y-39255D01*
X38721Y-39255D01*
X38750Y-39241D01*
X38764Y-39226D01*
X38779Y-39198D01*
X38779Y-39126D01*
X38764Y-39098D01*
X38750Y-39083D01*
X38721Y-39069D01*
X38664Y-39069D01*
X38636Y-39083D01*
X38621Y-39098D01*
X38607Y-39126D01*
X38321Y-40751D02*
X38321Y-40451D01*
X38436Y-40451D01*
X38464Y-40465D01*
X38479Y-40479D01*
X38493Y-40508D01*
X38493Y-40551D01*
X38479Y-40579D01*
X38464Y-40594D01*
X38436Y-40608D01*
X38321Y-40608D01*
X38764Y-40451D02*
X38621Y-40451D01*
X38607Y-40594D01*
X38621Y-40579D01*
X38650Y-40565D01*
X38721Y-40565D01*
X38750Y-40579D01*
X38764Y-40594D01*
X38779Y-40622D01*
X38779Y-40694D01*
X38764Y-40722D01*
X38750Y-40737D01*
X38721Y-40751D01*
X38650Y-40751D01*
X38621Y-40737D01*
X38607Y-40722D01*
G54D10*
X38013Y-27036D02*
X38294Y-27036D01*
X38351Y-27055D01*
X38388Y-27092D01*
X38407Y-27149D01*
X38407Y-27186D01*
X38013Y-26886D02*
X38013Y-26643D01*
X38163Y-26774D01*
X38163Y-26718D01*
X38182Y-26680D01*
X38201Y-26661D01*
X38238Y-26643D01*
X38332Y-26643D01*
X38369Y-26661D01*
X38388Y-26680D01*
X38407Y-26718D01*
X38407Y-26830D01*
X38388Y-26868D01*
X38369Y-26886D01*
X35198Y-32202D02*
X35592Y-32071D01*
X35198Y-31940D01*
X35592Y-31809D02*
X35198Y-31809D01*
X35386Y-31809D02*
X35386Y-31584D01*
X35592Y-31584D02*
X35198Y-31584D01*
X35592Y-31396D02*
X35198Y-31396D01*
X35198Y-31302D01*
X35217Y-31246D01*
X35254Y-31209D01*
X35292Y-31190D01*
X35367Y-31171D01*
X35423Y-31171D01*
X35498Y-31190D01*
X35536Y-31209D01*
X35573Y-31246D01*
X35592Y-31302D01*
X35592Y-31396D01*
X35554Y-30778D02*
X35573Y-30796D01*
X35592Y-30853D01*
X35592Y-30890D01*
X35573Y-30946D01*
X35536Y-30984D01*
X35498Y-31002D01*
X35423Y-31021D01*
X35367Y-31021D01*
X35292Y-31002D01*
X35254Y-30984D01*
X35217Y-30946D01*
X35198Y-30890D01*
X35198Y-30853D01*
X35217Y-30796D01*
X35236Y-30778D01*
X35592Y-30609D02*
X35198Y-30609D01*
G54D15*
X60167Y-12675D02*
X60167Y-12999D01*
X60186Y-13037D01*
X60205Y-13056D01*
X60243Y-13075D01*
X60320Y-13075D01*
X60358Y-13056D01*
X60377Y-13037D01*
X60396Y-12999D01*
X60396Y-12675D01*
X60548Y-12675D02*
X60815Y-12675D01*
X60643Y-13075D01*
X35128Y-15746D02*
X35128Y-16069D01*
X35147Y-16108D01*
X35166Y-16127D01*
X35204Y-16146D01*
X35280Y-16146D01*
X35318Y-16127D01*
X35337Y-16108D01*
X35356Y-16069D01*
X35356Y-15746D01*
X35718Y-15746D02*
X35642Y-15746D01*
X35604Y-15765D01*
X35585Y-15784D01*
X35547Y-15841D01*
X35528Y-15917D01*
X35528Y-16069D01*
X35547Y-16108D01*
X35566Y-16127D01*
X35604Y-16146D01*
X35680Y-16146D01*
X35718Y-16127D01*
X35737Y-16108D01*
X35756Y-16069D01*
X35756Y-15974D01*
X35737Y-15936D01*
X35718Y-15917D01*
X35680Y-15898D01*
X35604Y-15898D01*
X35566Y-15917D01*
X35547Y-15936D01*
X35528Y-15974D01*
X58966Y-12643D02*
X58861Y-12493D01*
X58786Y-12643D02*
X58786Y-12328D01*
X58906Y-12328D01*
X58936Y-12343D01*
X58951Y-12358D01*
X58966Y-12388D01*
X58966Y-12433D01*
X58951Y-12463D01*
X58936Y-12478D01*
X58906Y-12493D01*
X58786Y-12493D01*
X59086Y-12358D02*
X59101Y-12343D01*
X59131Y-12328D01*
X59206Y-12328D01*
X59236Y-12343D01*
X59251Y-12358D01*
X59266Y-12388D01*
X59266Y-12418D01*
X59251Y-12463D01*
X59071Y-12643D01*
X59266Y-12643D01*
X59371Y-12328D02*
X59581Y-12328D01*
X59446Y-12643D01*
X57988Y-12901D02*
X57988Y-13111D01*
X57913Y-12781D02*
X57838Y-13006D01*
X58033Y-13006D01*
X58153Y-13081D02*
X58168Y-13096D01*
X58153Y-13111D01*
X58138Y-13096D01*
X58153Y-13081D01*
X58153Y-13111D01*
X58273Y-12796D02*
X58483Y-12796D01*
X58348Y-13111D01*
X58603Y-13111D02*
X58603Y-12796D01*
X58783Y-13111D02*
X58648Y-12931D01*
X58783Y-12796D02*
X58603Y-12976D01*
X57317Y-13946D02*
X57212Y-13796D01*
X57137Y-13946D02*
X57137Y-13631D01*
X57257Y-13631D01*
X57287Y-13646D01*
X57302Y-13661D01*
X57317Y-13691D01*
X57317Y-13736D01*
X57302Y-13766D01*
X57287Y-13781D01*
X57257Y-13796D01*
X57137Y-13796D01*
X57437Y-13661D02*
X57452Y-13646D01*
X57482Y-13631D01*
X57557Y-13631D01*
X57587Y-13646D01*
X57602Y-13661D01*
X57617Y-13691D01*
X57617Y-13721D01*
X57602Y-13766D01*
X57422Y-13946D01*
X57617Y-13946D01*
X57887Y-13736D02*
X57887Y-13946D01*
X57812Y-13616D02*
X57737Y-13841D01*
X57932Y-13841D01*
X57098Y-14295D02*
X57098Y-14505D01*
X57023Y-14175D02*
X56948Y-14400D01*
X57143Y-14400D01*
X57263Y-14475D02*
X57278Y-14490D01*
X57263Y-14505D01*
X57248Y-14490D01*
X57263Y-14475D01*
X57263Y-14505D01*
X57383Y-14190D02*
X57593Y-14190D01*
X57458Y-14505D01*
X57713Y-14505D02*
X57713Y-14190D01*
X57893Y-14505D02*
X57758Y-14325D01*
X57893Y-14190D02*
X57713Y-14370D01*
X58683Y-17040D02*
X58578Y-16890D01*
X58503Y-17040D02*
X58503Y-16725D01*
X58623Y-16725D01*
X58653Y-16740D01*
X58668Y-16755D01*
X58683Y-16785D01*
X58683Y-16830D01*
X58668Y-16860D01*
X58653Y-16875D01*
X58623Y-16890D01*
X58503Y-16890D01*
X58803Y-16755D02*
X58818Y-16740D01*
X58848Y-16725D01*
X58923Y-16725D01*
X58953Y-16740D01*
X58968Y-16755D01*
X58983Y-16785D01*
X58983Y-16815D01*
X58968Y-16860D01*
X58788Y-17040D01*
X58983Y-17040D01*
X59088Y-16725D02*
X59283Y-16725D01*
X59178Y-16845D01*
X59223Y-16845D01*
X59253Y-16860D01*
X59268Y-16875D01*
X59283Y-16905D01*
X59283Y-16980D01*
X59268Y-17010D01*
X59253Y-17025D01*
X59223Y-17040D01*
X59133Y-17040D01*
X59103Y-17025D01*
X59088Y-17010D01*
X60736Y-16696D02*
X60751Y-16681D01*
X60781Y-16666D01*
X60856Y-16666D01*
X60886Y-16681D01*
X60901Y-16696D01*
X60916Y-16726D01*
X60916Y-16756D01*
X60901Y-16801D01*
X60721Y-16981D01*
X60916Y-16981D01*
X61051Y-16951D02*
X61066Y-16966D01*
X61051Y-16981D01*
X61036Y-16966D01*
X61051Y-16951D01*
X61051Y-16981D01*
X61186Y-16696D02*
X61201Y-16681D01*
X61231Y-16666D01*
X61306Y-16666D01*
X61336Y-16681D01*
X61351Y-16696D01*
X61366Y-16726D01*
X61366Y-16756D01*
X61351Y-16801D01*
X61171Y-16981D01*
X61366Y-16981D01*
X61501Y-16981D02*
X61501Y-16666D01*
X61681Y-16981D02*
X61546Y-16801D01*
X61681Y-16666D02*
X61501Y-16846D01*
X35470Y-14218D02*
X35365Y-14068D01*
X35290Y-14218D02*
X35290Y-13903D01*
X35410Y-13903D01*
X35440Y-13918D01*
X35455Y-13933D01*
X35470Y-13963D01*
X35470Y-14008D01*
X35455Y-14038D01*
X35440Y-14053D01*
X35410Y-14068D01*
X35290Y-14068D01*
X35590Y-13933D02*
X35605Y-13918D01*
X35635Y-13903D01*
X35710Y-13903D01*
X35740Y-13918D01*
X35755Y-13933D01*
X35770Y-13963D01*
X35770Y-13993D01*
X35755Y-14038D01*
X35575Y-14218D01*
X35770Y-14218D01*
X36040Y-13903D02*
X35980Y-13903D01*
X35950Y-13918D01*
X35935Y-13933D01*
X35905Y-13978D01*
X35890Y-14038D01*
X35890Y-14158D01*
X35905Y-14188D01*
X35920Y-14203D01*
X35950Y-14218D01*
X36010Y-14218D01*
X36040Y-14203D01*
X36055Y-14188D01*
X36070Y-14158D01*
X36070Y-14083D01*
X36055Y-14053D01*
X36040Y-14038D01*
X36010Y-14023D01*
X35950Y-14023D01*
X35920Y-14038D01*
X35905Y-14053D01*
X35890Y-14083D01*
X35102Y-14464D02*
X35102Y-14674D01*
X35027Y-14344D02*
X34952Y-14569D01*
X35147Y-14569D01*
X35267Y-14644D02*
X35282Y-14659D01*
X35267Y-14674D01*
X35252Y-14659D01*
X35267Y-14644D01*
X35267Y-14674D01*
X35387Y-14359D02*
X35597Y-14359D01*
X35462Y-14674D01*
X35717Y-14674D02*
X35717Y-14359D01*
X35897Y-14674D02*
X35762Y-14494D01*
X35897Y-14359D02*
X35717Y-14539D01*
X35478Y-13182D02*
X35373Y-13032D01*
X35298Y-13182D02*
X35298Y-12867D01*
X35418Y-12867D01*
X35448Y-12882D01*
X35463Y-12897D01*
X35478Y-12927D01*
X35478Y-12972D01*
X35463Y-13002D01*
X35448Y-13017D01*
X35418Y-13032D01*
X35298Y-13032D01*
X35598Y-12897D02*
X35613Y-12882D01*
X35643Y-12867D01*
X35718Y-12867D01*
X35748Y-12882D01*
X35763Y-12897D01*
X35778Y-12927D01*
X35778Y-12957D01*
X35763Y-13002D01*
X35583Y-13182D01*
X35778Y-13182D01*
X36063Y-12867D02*
X35913Y-12867D01*
X35898Y-13017D01*
X35913Y-13002D01*
X35943Y-12987D01*
X36018Y-12987D01*
X36048Y-13002D01*
X36063Y-13017D01*
X36078Y-13047D01*
X36078Y-13122D01*
X36063Y-13152D01*
X36048Y-13167D01*
X36018Y-13182D01*
X35943Y-13182D01*
X35913Y-13167D01*
X35898Y-13152D01*
X35161Y-13417D02*
X35161Y-13627D01*
X35086Y-13297D02*
X35011Y-13522D01*
X35206Y-13522D01*
X35326Y-13597D02*
X35341Y-13612D01*
X35326Y-13627D01*
X35311Y-13612D01*
X35326Y-13597D01*
X35326Y-13627D01*
X35446Y-13312D02*
X35656Y-13312D01*
X35521Y-13627D01*
X35776Y-13627D02*
X35776Y-13312D01*
X35956Y-13627D02*
X35821Y-13447D01*
X35956Y-13312D02*
X35776Y-13492D01*
X55870Y-39659D02*
X55870Y-39487D01*
X56170Y-39573D02*
X55870Y-39573D01*
X56170Y-39387D02*
X55870Y-39387D01*
X55870Y-39273D01*
X55884Y-39244D01*
X55899Y-39230D01*
X55927Y-39216D01*
X55970Y-39216D01*
X55999Y-39230D01*
X56013Y-39244D01*
X56027Y-39273D01*
X56027Y-39387D01*
X56170Y-38930D02*
X56170Y-39102D01*
X56170Y-39016D02*
X55870Y-39016D01*
X55913Y-39044D01*
X55942Y-39073D01*
X55956Y-39102D01*
X55899Y-38816D02*
X55884Y-38802D01*
X55870Y-38773D01*
X55870Y-38702D01*
X55884Y-38673D01*
X55899Y-38659D01*
X55927Y-38644D01*
X55956Y-38644D01*
X55999Y-38659D01*
X56170Y-38830D01*
X56170Y-38644D01*
X55882Y-41119D02*
X55882Y-40948D01*
X56182Y-41034D02*
X55882Y-41034D01*
X56182Y-40848D02*
X55882Y-40848D01*
X55882Y-40734D01*
X55896Y-40705D01*
X55911Y-40691D01*
X55939Y-40676D01*
X55982Y-40676D01*
X56011Y-40691D01*
X56025Y-40705D01*
X56039Y-40734D01*
X56039Y-40848D01*
X56182Y-40391D02*
X56182Y-40562D01*
X56182Y-40476D02*
X55882Y-40476D01*
X55925Y-40505D01*
X55953Y-40534D01*
X55968Y-40562D01*
X55882Y-40291D02*
X55882Y-40105D01*
X55996Y-40205D01*
X55996Y-40162D01*
X56011Y-40134D01*
X56025Y-40119D01*
X56053Y-40105D01*
X56125Y-40105D01*
X56153Y-40119D01*
X56168Y-40134D01*
X56182Y-40162D01*
X56182Y-40248D01*
X56168Y-40276D01*
X56153Y-40291D01*
X64700Y-14348D02*
X64871Y-14348D01*
X64785Y-14648D02*
X64785Y-14348D01*
X64971Y-14648D02*
X64971Y-14348D01*
X65085Y-14348D01*
X65114Y-14363D01*
X65128Y-14377D01*
X65143Y-14406D01*
X65143Y-14448D01*
X65128Y-14477D01*
X65114Y-14491D01*
X65085Y-14506D01*
X64971Y-14506D01*
X65428Y-14648D02*
X65257Y-14648D01*
X65343Y-14648D02*
X65343Y-14348D01*
X65314Y-14391D01*
X65285Y-14420D01*
X65257Y-14434D01*
X52931Y-24201D02*
X53102Y-24201D01*
X53017Y-24501D02*
X53017Y-24201D01*
X53202Y-24501D02*
X53202Y-24201D01*
X53317Y-24201D01*
X53345Y-24215D01*
X53359Y-24229D01*
X53374Y-24258D01*
X53374Y-24301D01*
X53359Y-24329D01*
X53345Y-24344D01*
X53317Y-24358D01*
X53202Y-24358D01*
X53659Y-24501D02*
X53488Y-24501D01*
X53574Y-24501D02*
X53574Y-24201D01*
X53545Y-24244D01*
X53517Y-24272D01*
X53488Y-24287D01*
X53945Y-24501D02*
X53774Y-24501D01*
X53859Y-24501D02*
X53859Y-24201D01*
X53831Y-24244D01*
X53802Y-24272D01*
X53774Y-24287D01*
X51722Y-17459D02*
X51894Y-17459D01*
X51808Y-17759D02*
X51808Y-17459D01*
X51994Y-17759D02*
X51994Y-17459D01*
X52108Y-17459D01*
X52136Y-17473D01*
X52151Y-17487D01*
X52165Y-17516D01*
X52165Y-17559D01*
X52151Y-17587D01*
X52136Y-17602D01*
X52108Y-17616D01*
X51994Y-17616D01*
X52451Y-17759D02*
X52279Y-17759D01*
X52365Y-17759D02*
X52365Y-17459D01*
X52336Y-17502D01*
X52308Y-17530D01*
X52279Y-17544D01*
X52636Y-17459D02*
X52665Y-17459D01*
X52694Y-17473D01*
X52708Y-17487D01*
X52722Y-17516D01*
X52736Y-17573D01*
X52736Y-17644D01*
X52722Y-17702D01*
X52708Y-17730D01*
X52694Y-17744D01*
X52665Y-17759D01*
X52636Y-17759D01*
X52608Y-17744D01*
X52594Y-17730D01*
X52579Y-17702D01*
X52565Y-17644D01*
X52565Y-17573D01*
X52579Y-17516D01*
X52594Y-17487D01*
X52608Y-17473D01*
X52636Y-17459D01*
X52101Y-26002D02*
X52273Y-26002D01*
X52187Y-26302D02*
X52187Y-26002D01*
X52373Y-26302D02*
X52373Y-26002D01*
X52487Y-26002D01*
X52516Y-26016D01*
X52530Y-26031D01*
X52544Y-26059D01*
X52544Y-26102D01*
X52530Y-26131D01*
X52516Y-26145D01*
X52487Y-26159D01*
X52373Y-26159D01*
X52644Y-26002D02*
X52844Y-26002D01*
X52716Y-26302D01*
X52101Y-27695D02*
X52273Y-27695D01*
X52187Y-27995D02*
X52187Y-27695D01*
X52373Y-27995D02*
X52373Y-27695D01*
X52487Y-27695D01*
X52516Y-27709D01*
X52530Y-27724D01*
X52544Y-27752D01*
X52544Y-27795D01*
X52530Y-27824D01*
X52516Y-27838D01*
X52487Y-27852D01*
X52373Y-27852D01*
X52716Y-27824D02*
X52687Y-27809D01*
X52673Y-27795D01*
X52658Y-27766D01*
X52658Y-27752D01*
X52673Y-27724D01*
X52687Y-27709D01*
X52716Y-27695D01*
X52773Y-27695D01*
X52801Y-27709D01*
X52816Y-27724D01*
X52830Y-27752D01*
X52830Y-27766D01*
X52816Y-27795D01*
X52801Y-27809D01*
X52773Y-27824D01*
X52716Y-27824D01*
X52687Y-27838D01*
X52673Y-27852D01*
X52658Y-27881D01*
X52658Y-27938D01*
X52673Y-27966D01*
X52687Y-27981D01*
X52716Y-27995D01*
X52773Y-27995D01*
X52801Y-27981D01*
X52816Y-27966D01*
X52830Y-27938D01*
X52830Y-27881D01*
X52816Y-27852D01*
X52801Y-27838D01*
X52773Y-27824D01*
X49700Y-30254D02*
X49871Y-30254D01*
X49785Y-30554D02*
X49785Y-30254D01*
X49971Y-30554D02*
X49971Y-30254D01*
X50085Y-30254D01*
X50114Y-30268D01*
X50128Y-30283D01*
X50143Y-30311D01*
X50143Y-30354D01*
X50128Y-30383D01*
X50114Y-30397D01*
X50085Y-30411D01*
X49971Y-30411D01*
X50285Y-30554D02*
X50343Y-30554D01*
X50371Y-30540D01*
X50385Y-30525D01*
X50414Y-30483D01*
X50428Y-30425D01*
X50428Y-30311D01*
X50414Y-30283D01*
X50400Y-30268D01*
X50371Y-30254D01*
X50314Y-30254D01*
X50285Y-30268D01*
X50271Y-30283D01*
X50257Y-30311D01*
X50257Y-30383D01*
X50271Y-30411D01*
X50285Y-30425D01*
X50314Y-30440D01*
X50371Y-30440D01*
X50400Y-30425D01*
X50414Y-30411D01*
X50428Y-30383D01*
X40175Y-18685D02*
X40175Y-18514D01*
X40475Y-18599D02*
X40175Y-18599D01*
X40475Y-18414D02*
X40175Y-18414D01*
X40175Y-18299D01*
X40190Y-18271D01*
X40204Y-18257D01*
X40232Y-18242D01*
X40275Y-18242D01*
X40304Y-18257D01*
X40318Y-18271D01*
X40332Y-18299D01*
X40332Y-18414D01*
X40175Y-17985D02*
X40175Y-18042D01*
X40190Y-18071D01*
X40204Y-18085D01*
X40247Y-18114D01*
X40304Y-18128D01*
X40418Y-18128D01*
X40447Y-18114D01*
X40461Y-18099D01*
X40475Y-18071D01*
X40475Y-18014D01*
X40461Y-17985D01*
X40447Y-17971D01*
X40418Y-17957D01*
X40347Y-17957D01*
X40318Y-17971D01*
X40304Y-17985D01*
X40290Y-18014D01*
X40290Y-18071D01*
X40304Y-18099D01*
X40318Y-18114D01*
X40347Y-18128D01*
X40175Y-17701D02*
X40175Y-17529D01*
X40475Y-17615D02*
X40175Y-17615D01*
X40475Y-17429D02*
X40175Y-17429D01*
X40175Y-17315D01*
X40190Y-17287D01*
X40204Y-17272D01*
X40232Y-17258D01*
X40275Y-17258D01*
X40304Y-17272D01*
X40318Y-17287D01*
X40332Y-17315D01*
X40332Y-17429D01*
X40175Y-16987D02*
X40175Y-17129D01*
X40318Y-17144D01*
X40304Y-17129D01*
X40290Y-17101D01*
X40290Y-17029D01*
X40304Y-17001D01*
X40318Y-16987D01*
X40347Y-16972D01*
X40418Y-16972D01*
X40447Y-16987D01*
X40461Y-17001D01*
X40475Y-17029D01*
X40475Y-17101D01*
X40461Y-17129D01*
X40447Y-17144D01*
X40175Y-16677D02*
X40175Y-16506D01*
X40475Y-16592D02*
X40175Y-16592D01*
X40475Y-16406D02*
X40175Y-16406D01*
X40175Y-16292D01*
X40190Y-16263D01*
X40204Y-16249D01*
X40232Y-16234D01*
X40275Y-16234D01*
X40304Y-16249D01*
X40318Y-16263D01*
X40332Y-16292D01*
X40332Y-16406D01*
X40275Y-15977D02*
X40475Y-15977D01*
X40161Y-16049D02*
X40375Y-16120D01*
X40375Y-15934D01*
X40175Y-19748D02*
X40175Y-19577D01*
X40475Y-19662D02*
X40175Y-19662D01*
X40475Y-19477D02*
X40175Y-19477D01*
X40175Y-19362D01*
X40190Y-19334D01*
X40204Y-19320D01*
X40232Y-19305D01*
X40275Y-19305D01*
X40304Y-19320D01*
X40318Y-19334D01*
X40332Y-19362D01*
X40332Y-19477D01*
X40175Y-19205D02*
X40175Y-19020D01*
X40290Y-19120D01*
X40290Y-19077D01*
X40304Y-19048D01*
X40318Y-19034D01*
X40347Y-19020D01*
X40418Y-19020D01*
X40447Y-19034D01*
X40461Y-19048D01*
X40475Y-19077D01*
X40475Y-19162D01*
X40461Y-19191D01*
X40447Y-19205D01*
X64700Y-11278D02*
X64871Y-11278D01*
X64785Y-11578D02*
X64785Y-11278D01*
X64971Y-11578D02*
X64971Y-11278D01*
X65085Y-11278D01*
X65114Y-11292D01*
X65128Y-11306D01*
X65143Y-11335D01*
X65143Y-11378D01*
X65128Y-11406D01*
X65114Y-11420D01*
X65085Y-11435D01*
X64971Y-11435D01*
X65257Y-11306D02*
X65271Y-11292D01*
X65300Y-11278D01*
X65371Y-11278D01*
X65400Y-11292D01*
X65414Y-11306D01*
X65428Y-11335D01*
X65428Y-11363D01*
X65414Y-11406D01*
X65243Y-11578D01*
X65428Y-11578D01*
G54D18*
X42402Y-13688D02*
X42002Y-13688D01*
X42002Y-13536D01*
X42021Y-13498D01*
X42040Y-13479D01*
X42078Y-13460D01*
X42135Y-13460D01*
X42173Y-13479D01*
X42192Y-13498D01*
X42211Y-13536D01*
X42211Y-13688D01*
X42002Y-13327D02*
X42002Y-13060D01*
X42402Y-13231D01*
G54D10*
X35910Y-7555D02*
X36367Y-7555D01*
X35960Y-10055D02*
X36417Y-10055D01*
X64343Y-7555D02*
X64800Y-7555D01*
X64393Y-10055D02*
X64850Y-10055D01*
X35922Y-40406D02*
X36379Y-40406D01*
X35972Y-42906D02*
X36429Y-42906D01*
X64382Y-40362D02*
X64839Y-40362D01*
X64432Y-42862D02*
X64889Y-42862D01*
X40165Y-42652D02*
X40622Y-42652D01*
G54D23*
X45091Y-21078D02*
X45091Y-21483D01*
X45115Y-21530D01*
X45139Y-21554D01*
X45186Y-21578D01*
X45281Y-21578D01*
X45329Y-21554D01*
X45353Y-21530D01*
X45377Y-21483D01*
X45377Y-21078D01*
X45567Y-21078D02*
X45877Y-21078D01*
X45710Y-21268D01*
X45781Y-21268D01*
X45829Y-21292D01*
X45853Y-21316D01*
X45877Y-21364D01*
X45877Y-21483D01*
X45853Y-21530D01*
X45829Y-21554D01*
X45781Y-21578D01*
X45639Y-21578D01*
X45591Y-21554D01*
X45567Y-21530D01*
X44101Y-22685D02*
X44339Y-22685D01*
X44053Y-22828D02*
X44220Y-22328D01*
X44386Y-22828D01*
X44553Y-22828D02*
X44553Y-22328D01*
X44672Y-22328D01*
X44743Y-22352D01*
X44791Y-22399D01*
X44815Y-22447D01*
X44839Y-22542D01*
X44839Y-22614D01*
X44815Y-22709D01*
X44791Y-22756D01*
X44743Y-22804D01*
X44672Y-22828D01*
X44553Y-22828D01*
X45077Y-22828D02*
X45172Y-22828D01*
X45220Y-22804D01*
X45243Y-22780D01*
X45291Y-22709D01*
X45315Y-22614D01*
X45315Y-22423D01*
X45291Y-22375D01*
X45267Y-22352D01*
X45220Y-22328D01*
X45124Y-22328D01*
X45077Y-22352D01*
X45053Y-22375D01*
X45029Y-22423D01*
X45029Y-22542D01*
X45053Y-22590D01*
X45077Y-22614D01*
X45124Y-22637D01*
X45220Y-22637D01*
X45267Y-22614D01*
X45291Y-22590D01*
X45315Y-22542D01*
X45553Y-22828D02*
X45648Y-22828D01*
X45696Y-22804D01*
X45720Y-22780D01*
X45767Y-22709D01*
X45791Y-22614D01*
X45791Y-22423D01*
X45767Y-22375D01*
X45743Y-22352D01*
X45696Y-22328D01*
X45601Y-22328D01*
X45553Y-22352D01*
X45529Y-22375D01*
X45505Y-22423D01*
X45505Y-22542D01*
X45529Y-22590D01*
X45553Y-22614D01*
X45601Y-22637D01*
X45696Y-22637D01*
X45743Y-22614D01*
X45767Y-22590D01*
X45791Y-22542D01*
X46077Y-22542D02*
X46029Y-22518D01*
X46005Y-22495D01*
X45981Y-22447D01*
X45981Y-22423D01*
X46005Y-22375D01*
X46029Y-22352D01*
X46077Y-22328D01*
X46172Y-22328D01*
X46220Y-22352D01*
X46243Y-22375D01*
X46267Y-22423D01*
X46267Y-22447D01*
X46243Y-22495D01*
X46220Y-22518D01*
X46172Y-22542D01*
X46077Y-22542D01*
X46029Y-22566D01*
X46005Y-22590D01*
X45981Y-22637D01*
X45981Y-22733D01*
X46005Y-22780D01*
X46029Y-22804D01*
X46077Y-22828D01*
X46172Y-22828D01*
X46220Y-22804D01*
X46243Y-22780D01*
X46267Y-22733D01*
X46267Y-22637D01*
X46243Y-22590D01*
X46220Y-22566D01*
X46172Y-22542D01*
X46696Y-22495D02*
X46696Y-22828D01*
X46577Y-22304D02*
X46458Y-22661D01*
X46767Y-22661D01*
G54D10*
X47585Y-11576D02*
X47585Y-11857D01*
X47566Y-11914D01*
X47529Y-11951D01*
X47472Y-11970D01*
X47435Y-11970D01*
X47754Y-11614D02*
X47772Y-11595D01*
X47810Y-11576D01*
X47904Y-11576D01*
X47941Y-11595D01*
X47960Y-11614D01*
X47979Y-11651D01*
X47979Y-11689D01*
X47960Y-11745D01*
X47735Y-11970D01*
X47979Y-11970D01*
X42879Y-12088D02*
X42879Y-11694D01*
X42973Y-11694D01*
X43029Y-11713D01*
X43067Y-11751D01*
X43085Y-11788D01*
X43104Y-11863D01*
X43104Y-11919D01*
X43085Y-11994D01*
X43067Y-12032D01*
X43029Y-12069D01*
X42973Y-12088D01*
X42879Y-12088D01*
X43273Y-11882D02*
X43404Y-11882D01*
X43460Y-12088D02*
X43273Y-12088D01*
X43273Y-11694D01*
X43460Y-11694D01*
X43629Y-11938D02*
X43929Y-11938D01*
X44323Y-12088D02*
X44098Y-12088D01*
X44210Y-12088D02*
X44210Y-11694D01*
X44173Y-11751D01*
X44135Y-11788D01*
X44098Y-11807D01*
X44679Y-11694D02*
X44491Y-11694D01*
X44473Y-11882D01*
X44491Y-11863D01*
X44529Y-11844D01*
X44623Y-11844D01*
X44660Y-11863D01*
X44679Y-11882D01*
X44698Y-11919D01*
X44698Y-12013D01*
X44679Y-12050D01*
X44660Y-12069D01*
X44623Y-12088D01*
X44529Y-12088D01*
X44491Y-12069D01*
X44473Y-12050D01*
X61404Y-11576D02*
X61404Y-11857D01*
X61385Y-11914D01*
X61347Y-11951D01*
X61291Y-11970D01*
X61254Y-11970D01*
X61797Y-11970D02*
X61572Y-11970D01*
X61685Y-11970D02*
X61685Y-11576D01*
X61647Y-11632D01*
X61610Y-11670D01*
X61572Y-11689D01*
X56698Y-12088D02*
X56698Y-11694D01*
X56792Y-11694D01*
X56848Y-11713D01*
X56886Y-11751D01*
X56904Y-11788D01*
X56923Y-11863D01*
X56923Y-11919D01*
X56904Y-11994D01*
X56886Y-12032D01*
X56848Y-12069D01*
X56792Y-12088D01*
X56698Y-12088D01*
X57092Y-11882D02*
X57223Y-11882D01*
X57279Y-12088D02*
X57092Y-12088D01*
X57092Y-11694D01*
X57279Y-11694D01*
X57448Y-11938D02*
X57748Y-11938D01*
X58142Y-12088D02*
X57917Y-12088D01*
X58029Y-12088D02*
X58029Y-11694D01*
X57992Y-11751D01*
X57954Y-11788D01*
X57917Y-11807D01*
X58498Y-11694D02*
X58310Y-11694D01*
X58292Y-11882D01*
X58310Y-11863D01*
X58348Y-11844D01*
X58442Y-11844D01*
X58479Y-11863D01*
X58498Y-11882D01*
X58517Y-11919D01*
X58517Y-12013D01*
X58498Y-12050D01*
X58479Y-12069D01*
X58442Y-12088D01*
X58348Y-12088D01*
X58310Y-12069D01*
X58292Y-12050D01*
M02*
