G04 (created by PCBNEW (2013-07-07 BZR 4022)-stable) date 25/07/2014 8:42:33 PM*
%MOIN*%
G04 Gerber Fmt 3.4, Leading zero omitted, Abs format*
%FSLAX34Y34*%
G01*
G70*
G90*
G04 APERTURE LIST*
%ADD10C,0.00590551*%
%ADD11C,0.011811*%
%ADD12C,0.00787402*%
%ADD13C,0.0039*%
%ADD14C,0.0026*%
%ADD15C,0.008*%
%ADD16C,0.004*%
%ADD17C,0.002*%
%ADD18C,0.0043*%
%ADD19C,0.0035*%
G04 APERTURE END LIST*
G54D10*
G54D11*
X61470Y-34053D02*
X61273Y-34644D01*
X61077Y-34053D01*
X60880Y-34588D02*
X60852Y-34616D01*
X60880Y-34644D01*
X60908Y-34616D01*
X60880Y-34588D01*
X60880Y-34644D01*
X60261Y-34644D02*
X60458Y-34363D01*
X60598Y-34644D02*
X60598Y-34053D01*
X60374Y-34053D01*
X60317Y-34082D01*
X60289Y-34110D01*
X60261Y-34166D01*
X60261Y-34250D01*
X60289Y-34307D01*
X60317Y-34335D01*
X60374Y-34363D01*
X60598Y-34363D01*
X59783Y-34616D02*
X59839Y-34644D01*
X59952Y-34644D01*
X60008Y-34616D01*
X60036Y-34560D01*
X60036Y-34335D01*
X60008Y-34278D01*
X59952Y-34250D01*
X59839Y-34250D01*
X59783Y-34278D01*
X59755Y-34335D01*
X59755Y-34391D01*
X60036Y-34447D01*
X59249Y-34250D02*
X59249Y-34728D01*
X59277Y-34785D01*
X59305Y-34813D01*
X59361Y-34841D01*
X59446Y-34841D01*
X59502Y-34813D01*
X59249Y-34616D02*
X59305Y-34644D01*
X59417Y-34644D01*
X59474Y-34616D01*
X59502Y-34588D01*
X59530Y-34532D01*
X59530Y-34363D01*
X59502Y-34307D01*
X59474Y-34278D01*
X59417Y-34250D01*
X59305Y-34250D01*
X59249Y-34278D01*
X58967Y-34588D02*
X58939Y-34616D01*
X58967Y-34644D01*
X58996Y-34616D01*
X58967Y-34588D01*
X58967Y-34644D01*
X58967Y-34278D02*
X58939Y-34307D01*
X58967Y-34335D01*
X58996Y-34307D01*
X58967Y-34278D01*
X58967Y-34335D01*
X58124Y-34053D02*
X58011Y-34053D01*
X57955Y-34082D01*
X57899Y-34138D01*
X57871Y-34250D01*
X57871Y-34447D01*
X57899Y-34560D01*
X57955Y-34616D01*
X58011Y-34644D01*
X58124Y-34644D01*
X58180Y-34616D01*
X58236Y-34560D01*
X58264Y-34447D01*
X58264Y-34250D01*
X58236Y-34138D01*
X58180Y-34082D01*
X58124Y-34053D01*
X57702Y-34053D02*
X57505Y-34644D01*
X57308Y-34053D01*
X57111Y-34644D02*
X57111Y-34053D01*
X56971Y-34053D01*
X56886Y-34082D01*
X56830Y-34138D01*
X56802Y-34194D01*
X56774Y-34307D01*
X56774Y-34391D01*
X56802Y-34503D01*
X56830Y-34560D01*
X56886Y-34616D01*
X56971Y-34644D01*
X57111Y-34644D01*
X56521Y-34644D02*
X56521Y-34053D01*
X56380Y-34053D01*
X56296Y-34082D01*
X56240Y-34138D01*
X56212Y-34194D01*
X56183Y-34307D01*
X56183Y-34391D01*
X56212Y-34503D01*
X56240Y-34560D01*
X56296Y-34616D01*
X56380Y-34644D01*
X56521Y-34644D01*
X61538Y-27298D02*
X61341Y-27888D01*
X61144Y-27298D01*
X60947Y-27832D02*
X60919Y-27860D01*
X60947Y-27888D01*
X60975Y-27860D01*
X60947Y-27832D01*
X60947Y-27888D01*
X60329Y-27888D02*
X60525Y-27607D01*
X60666Y-27888D02*
X60666Y-27298D01*
X60441Y-27298D01*
X60385Y-27326D01*
X60357Y-27354D01*
X60329Y-27410D01*
X60329Y-27494D01*
X60357Y-27551D01*
X60385Y-27579D01*
X60441Y-27607D01*
X60666Y-27607D01*
X59850Y-27860D02*
X59907Y-27888D01*
X60019Y-27888D01*
X60075Y-27860D01*
X60104Y-27804D01*
X60104Y-27579D01*
X60075Y-27523D01*
X60019Y-27494D01*
X59907Y-27494D01*
X59850Y-27523D01*
X59822Y-27579D01*
X59822Y-27635D01*
X60104Y-27691D01*
X59316Y-27494D02*
X59316Y-27973D01*
X59344Y-28029D01*
X59372Y-28057D01*
X59429Y-28085D01*
X59513Y-28085D01*
X59569Y-28057D01*
X59316Y-27860D02*
X59372Y-27888D01*
X59485Y-27888D01*
X59541Y-27860D01*
X59569Y-27832D01*
X59597Y-27776D01*
X59597Y-27607D01*
X59569Y-27551D01*
X59541Y-27523D01*
X59485Y-27494D01*
X59372Y-27494D01*
X59316Y-27523D01*
X59035Y-27832D02*
X59007Y-27860D01*
X59035Y-27888D01*
X59063Y-27860D01*
X59035Y-27832D01*
X59035Y-27888D01*
X59035Y-27523D02*
X59007Y-27551D01*
X59035Y-27579D01*
X59063Y-27551D01*
X59035Y-27523D01*
X59035Y-27579D01*
X58304Y-27888D02*
X58304Y-27298D01*
X58079Y-27298D01*
X58023Y-27326D01*
X57994Y-27354D01*
X57966Y-27410D01*
X57966Y-27494D01*
X57994Y-27551D01*
X58023Y-27579D01*
X58079Y-27607D01*
X58304Y-27607D01*
X57713Y-27888D02*
X57713Y-27298D01*
X57573Y-27298D01*
X57488Y-27326D01*
X57432Y-27382D01*
X57404Y-27438D01*
X57376Y-27551D01*
X57376Y-27635D01*
X57404Y-27748D01*
X57432Y-27804D01*
X57488Y-27860D01*
X57573Y-27888D01*
X57713Y-27888D01*
X61511Y-20790D02*
X61314Y-21380D01*
X61118Y-20790D01*
X60921Y-21324D02*
X60893Y-21352D01*
X60921Y-21380D01*
X60949Y-21352D01*
X60921Y-21324D01*
X60921Y-21380D01*
X60302Y-21380D02*
X60499Y-21099D01*
X60640Y-21380D02*
X60640Y-20790D01*
X60415Y-20790D01*
X60358Y-20818D01*
X60330Y-20846D01*
X60302Y-20902D01*
X60302Y-20987D01*
X60330Y-21043D01*
X60358Y-21071D01*
X60415Y-21099D01*
X60640Y-21099D01*
X59824Y-21352D02*
X59880Y-21380D01*
X59993Y-21380D01*
X60049Y-21352D01*
X60077Y-21296D01*
X60077Y-21071D01*
X60049Y-21015D01*
X59993Y-20987D01*
X59880Y-20987D01*
X59824Y-21015D01*
X59796Y-21071D01*
X59796Y-21127D01*
X60077Y-21183D01*
X59290Y-20987D02*
X59290Y-21465D01*
X59318Y-21521D01*
X59346Y-21549D01*
X59402Y-21577D01*
X59487Y-21577D01*
X59543Y-21549D01*
X59290Y-21352D02*
X59346Y-21380D01*
X59458Y-21380D01*
X59515Y-21352D01*
X59543Y-21324D01*
X59571Y-21268D01*
X59571Y-21099D01*
X59543Y-21043D01*
X59515Y-21015D01*
X59458Y-20987D01*
X59346Y-20987D01*
X59290Y-21015D01*
X59008Y-21324D02*
X58980Y-21352D01*
X59008Y-21380D01*
X59037Y-21352D01*
X59008Y-21324D01*
X59008Y-21380D01*
X59008Y-21015D02*
X58980Y-21043D01*
X59008Y-21071D01*
X59037Y-21043D01*
X59008Y-21015D01*
X59008Y-21071D01*
X58362Y-20790D02*
X58165Y-21380D01*
X57968Y-20790D01*
X57771Y-21380D02*
X57771Y-20790D01*
X57631Y-20790D01*
X57546Y-20818D01*
X57490Y-20874D01*
X57462Y-20930D01*
X57434Y-21043D01*
X57434Y-21127D01*
X57462Y-21240D01*
X57490Y-21296D01*
X57546Y-21352D01*
X57631Y-21380D01*
X57771Y-21380D01*
G54D12*
X53826Y-18911D02*
X54096Y-18911D01*
X53961Y-18911D02*
X53961Y-18439D01*
X54006Y-18506D01*
X54051Y-18551D01*
X54096Y-18574D01*
X53623Y-18866D02*
X53601Y-18889D01*
X53623Y-18911D01*
X53646Y-18889D01*
X53623Y-18866D01*
X53623Y-18911D01*
X53331Y-18641D02*
X53376Y-18619D01*
X53398Y-18596D01*
X53421Y-18551D01*
X53421Y-18529D01*
X53398Y-18484D01*
X53376Y-18461D01*
X53331Y-18439D01*
X53241Y-18439D01*
X53196Y-18461D01*
X53173Y-18484D01*
X53151Y-18529D01*
X53151Y-18551D01*
X53173Y-18596D01*
X53196Y-18619D01*
X53241Y-18641D01*
X53331Y-18641D01*
X53376Y-18664D01*
X53398Y-18686D01*
X53421Y-18731D01*
X53421Y-18821D01*
X53398Y-18866D01*
X53376Y-18889D01*
X53331Y-18911D01*
X53241Y-18911D01*
X53196Y-18889D01*
X53173Y-18866D01*
X53151Y-18821D01*
X53151Y-18731D01*
X53173Y-18686D01*
X53196Y-18664D01*
X53241Y-18641D01*
X53016Y-18439D02*
X52858Y-18911D01*
X52701Y-18439D01*
G54D11*
X53791Y-16357D02*
X53594Y-16947D01*
X53397Y-16357D01*
X53200Y-16947D02*
X53200Y-16357D01*
X53060Y-16357D01*
X52975Y-16385D01*
X52919Y-16441D01*
X52891Y-16497D01*
X52863Y-16610D01*
X52863Y-16694D01*
X52891Y-16807D01*
X52919Y-16863D01*
X52975Y-16919D01*
X53060Y-16947D01*
X53200Y-16947D01*
G54D12*
X54904Y-25474D02*
X55129Y-25474D01*
X55016Y-25474D02*
X55016Y-25080D01*
X55054Y-25136D01*
X55091Y-25174D01*
X55129Y-25193D01*
X54735Y-25436D02*
X54716Y-25455D01*
X54735Y-25474D01*
X54754Y-25455D01*
X54735Y-25436D01*
X54735Y-25474D01*
X54491Y-25249D02*
X54529Y-25230D01*
X54548Y-25211D01*
X54566Y-25174D01*
X54566Y-25155D01*
X54548Y-25118D01*
X54529Y-25099D01*
X54491Y-25080D01*
X54416Y-25080D01*
X54379Y-25099D01*
X54360Y-25118D01*
X54341Y-25155D01*
X54341Y-25174D01*
X54360Y-25211D01*
X54379Y-25230D01*
X54416Y-25249D01*
X54491Y-25249D01*
X54529Y-25268D01*
X54548Y-25286D01*
X54566Y-25324D01*
X54566Y-25399D01*
X54548Y-25436D01*
X54529Y-25455D01*
X54491Y-25474D01*
X54416Y-25474D01*
X54379Y-25455D01*
X54360Y-25436D01*
X54341Y-25399D01*
X54341Y-25324D01*
X54360Y-25286D01*
X54379Y-25268D01*
X54416Y-25249D01*
X54229Y-25080D02*
X54098Y-25474D01*
X53967Y-25080D01*
G54D11*
X55473Y-27722D02*
X55388Y-27750D01*
X55248Y-27750D01*
X55191Y-27722D01*
X55163Y-27694D01*
X55135Y-27638D01*
X55135Y-27582D01*
X55163Y-27525D01*
X55191Y-27497D01*
X55248Y-27469D01*
X55360Y-27441D01*
X55416Y-27413D01*
X55444Y-27385D01*
X55473Y-27329D01*
X55473Y-27272D01*
X55444Y-27216D01*
X55416Y-27188D01*
X55360Y-27160D01*
X55219Y-27160D01*
X55135Y-27188D01*
X54882Y-27750D02*
X54882Y-27160D01*
X54741Y-27160D01*
X54657Y-27188D01*
X54601Y-27244D01*
X54573Y-27300D01*
X54544Y-27413D01*
X54544Y-27497D01*
X54573Y-27610D01*
X54601Y-27666D01*
X54657Y-27722D01*
X54741Y-27750D01*
X54882Y-27750D01*
X54320Y-27582D02*
X54038Y-27582D01*
X54376Y-27750D02*
X54179Y-27160D01*
X53982Y-27750D01*
X55427Y-26769D02*
X55343Y-26798D01*
X55202Y-26798D01*
X55146Y-26769D01*
X55118Y-26741D01*
X55089Y-26685D01*
X55089Y-26629D01*
X55118Y-26573D01*
X55146Y-26544D01*
X55202Y-26516D01*
X55314Y-26488D01*
X55371Y-26460D01*
X55399Y-26432D01*
X55427Y-26376D01*
X55427Y-26320D01*
X55399Y-26263D01*
X55371Y-26235D01*
X55314Y-26207D01*
X55174Y-26207D01*
X55089Y-26235D01*
X54499Y-26741D02*
X54527Y-26769D01*
X54611Y-26798D01*
X54668Y-26798D01*
X54752Y-26769D01*
X54808Y-26713D01*
X54836Y-26657D01*
X54865Y-26544D01*
X54865Y-26460D01*
X54836Y-26348D01*
X54808Y-26291D01*
X54752Y-26235D01*
X54668Y-26207D01*
X54611Y-26207D01*
X54527Y-26235D01*
X54499Y-26263D01*
X53965Y-26798D02*
X54246Y-26798D01*
X54246Y-26207D01*
X52718Y-27254D02*
X52718Y-26664D01*
X52465Y-26720D02*
X52437Y-26692D01*
X52380Y-26664D01*
X52240Y-26664D01*
X52183Y-26692D01*
X52155Y-26720D01*
X52127Y-26776D01*
X52127Y-26832D01*
X52155Y-26917D01*
X52493Y-27254D01*
X52127Y-27254D01*
X51537Y-27198D02*
X51565Y-27226D01*
X51649Y-27254D01*
X51705Y-27254D01*
X51790Y-27226D01*
X51846Y-27170D01*
X51874Y-27114D01*
X51902Y-27001D01*
X51902Y-26917D01*
X51874Y-26804D01*
X51846Y-26748D01*
X51790Y-26692D01*
X51705Y-26664D01*
X51649Y-26664D01*
X51565Y-26692D01*
X51537Y-26720D01*
X52754Y-25424D02*
X52754Y-24833D01*
X52529Y-24833D01*
X52473Y-24861D01*
X52444Y-24889D01*
X52416Y-24946D01*
X52416Y-25030D01*
X52444Y-25086D01*
X52473Y-25114D01*
X52529Y-25142D01*
X52754Y-25142D01*
X52248Y-24833D02*
X52051Y-25424D01*
X51854Y-24833D01*
X51657Y-25424D02*
X51657Y-24833D01*
X51516Y-24833D01*
X51432Y-24861D01*
X51376Y-24917D01*
X51348Y-24974D01*
X51320Y-25086D01*
X51320Y-25170D01*
X51348Y-25283D01*
X51376Y-25339D01*
X51432Y-25395D01*
X51516Y-25424D01*
X51657Y-25424D01*
G54D12*
X41079Y-41953D02*
X41107Y-42010D01*
X41107Y-42094D01*
X41079Y-42178D01*
X41023Y-42235D01*
X40966Y-42263D01*
X40854Y-42291D01*
X40769Y-42291D01*
X40657Y-42263D01*
X40601Y-42235D01*
X40544Y-42178D01*
X40516Y-42094D01*
X40516Y-42038D01*
X40544Y-41953D01*
X40573Y-41925D01*
X40769Y-41925D01*
X40769Y-42038D01*
X40516Y-41672D02*
X41107Y-41672D01*
X40516Y-41335D01*
X41107Y-41335D01*
X40516Y-41053D02*
X41107Y-41053D01*
X41107Y-40913D01*
X41079Y-40829D01*
X41023Y-40772D01*
X40966Y-40744D01*
X40854Y-40716D01*
X40769Y-40716D01*
X40657Y-40744D01*
X40601Y-40772D01*
X40544Y-40829D01*
X40516Y-40913D01*
X40516Y-41053D01*
X40592Y-38829D02*
X40874Y-38829D01*
X40902Y-39110D01*
X40874Y-39082D01*
X40817Y-39054D01*
X40677Y-39054D01*
X40620Y-39082D01*
X40592Y-39110D01*
X40564Y-39167D01*
X40564Y-39307D01*
X40592Y-39363D01*
X40620Y-39392D01*
X40677Y-39420D01*
X40817Y-39420D01*
X40874Y-39392D01*
X40902Y-39363D01*
X40395Y-38829D02*
X40199Y-39420D01*
X40002Y-38829D01*
X41001Y-37798D02*
X40804Y-38388D01*
X40607Y-37798D01*
X40073Y-38332D02*
X40101Y-38360D01*
X40186Y-38388D01*
X40242Y-38388D01*
X40326Y-38360D01*
X40383Y-38304D01*
X40411Y-38248D01*
X40439Y-38135D01*
X40439Y-38051D01*
X40411Y-37938D01*
X40383Y-37882D01*
X40326Y-37826D01*
X40242Y-37798D01*
X40186Y-37798D01*
X40101Y-37826D01*
X40073Y-37854D01*
X39483Y-38332D02*
X39511Y-38360D01*
X39595Y-38388D01*
X39651Y-38388D01*
X39736Y-38360D01*
X39792Y-38304D01*
X39820Y-38248D01*
X39848Y-38135D01*
X39848Y-38051D01*
X39820Y-37938D01*
X39792Y-37882D01*
X39736Y-37826D01*
X39651Y-37798D01*
X39595Y-37798D01*
X39511Y-37826D01*
X39483Y-37854D01*
X39370Y-38444D02*
X38920Y-38444D01*
X38780Y-38388D02*
X38780Y-37798D01*
X38498Y-38388D02*
X38498Y-37798D01*
X38161Y-38388D01*
X38161Y-37798D01*
X58682Y-40310D02*
X58738Y-40282D01*
X58822Y-40282D01*
X58907Y-40310D01*
X58963Y-40366D01*
X58991Y-40422D01*
X59019Y-40535D01*
X59019Y-40619D01*
X58991Y-40732D01*
X58963Y-40788D01*
X58907Y-40844D01*
X58822Y-40872D01*
X58766Y-40872D01*
X58682Y-40844D01*
X58654Y-40816D01*
X58654Y-40619D01*
X58766Y-40619D01*
X58401Y-40872D02*
X58401Y-40282D01*
X58063Y-40872D01*
X58063Y-40282D01*
X57782Y-40872D02*
X57782Y-40282D01*
X57641Y-40282D01*
X57557Y-40310D01*
X57501Y-40366D01*
X57473Y-40422D01*
X57444Y-40535D01*
X57444Y-40619D01*
X57473Y-40732D01*
X57501Y-40788D01*
X57557Y-40844D01*
X57641Y-40872D01*
X57782Y-40872D01*
X58061Y-38762D02*
X58342Y-38762D01*
X58370Y-39043D01*
X58342Y-39015D01*
X58286Y-38987D01*
X58145Y-38987D01*
X58089Y-39015D01*
X58061Y-39043D01*
X58033Y-39100D01*
X58033Y-39240D01*
X58061Y-39296D01*
X58089Y-39325D01*
X58145Y-39353D01*
X58286Y-39353D01*
X58342Y-39325D01*
X58370Y-39296D01*
X57864Y-38762D02*
X57667Y-39353D01*
X57470Y-38762D01*
G54D11*
X45065Y-8313D02*
X44868Y-8904D01*
X44672Y-8313D01*
X44165Y-8341D02*
X44222Y-8313D01*
X44306Y-8313D01*
X44390Y-8341D01*
X44447Y-8398D01*
X44475Y-8454D01*
X44503Y-8566D01*
X44503Y-8651D01*
X44475Y-8763D01*
X44447Y-8820D01*
X44390Y-8876D01*
X44306Y-8904D01*
X44250Y-8904D01*
X44165Y-8876D01*
X44137Y-8848D01*
X44137Y-8651D01*
X44250Y-8651D01*
X43912Y-8735D02*
X43631Y-8735D01*
X43969Y-8904D02*
X43772Y-8313D01*
X43575Y-8904D01*
X42928Y-8904D02*
X42928Y-8313D01*
X42647Y-8904D02*
X42647Y-8313D01*
X42309Y-8904D01*
X42309Y-8313D01*
X59282Y-8459D02*
X59085Y-9050D01*
X58888Y-8459D01*
X58382Y-8487D02*
X58438Y-8459D01*
X58523Y-8459D01*
X58607Y-8487D01*
X58663Y-8543D01*
X58691Y-8600D01*
X58719Y-8712D01*
X58719Y-8796D01*
X58691Y-8909D01*
X58663Y-8965D01*
X58607Y-9021D01*
X58523Y-9050D01*
X58466Y-9050D01*
X58382Y-9021D01*
X58354Y-8993D01*
X58354Y-8796D01*
X58466Y-8796D01*
X58129Y-8881D02*
X57848Y-8881D01*
X58185Y-9050D02*
X57988Y-8459D01*
X57791Y-9050D01*
X57032Y-8459D02*
X56920Y-8459D01*
X56863Y-8487D01*
X56807Y-8543D01*
X56779Y-8656D01*
X56779Y-8853D01*
X56807Y-8965D01*
X56863Y-9021D01*
X56920Y-9050D01*
X57032Y-9050D01*
X57088Y-9021D01*
X57145Y-8965D01*
X57173Y-8853D01*
X57173Y-8656D01*
X57145Y-8543D01*
X57088Y-8487D01*
X57032Y-8459D01*
X56526Y-8459D02*
X56526Y-8937D01*
X56498Y-8993D01*
X56470Y-9021D01*
X56413Y-9050D01*
X56301Y-9050D01*
X56245Y-9021D01*
X56217Y-8993D01*
X56188Y-8937D01*
X56188Y-8459D01*
X55992Y-8459D02*
X55654Y-8459D01*
X55823Y-9050D02*
X55823Y-8459D01*
G54D13*
X38009Y-15630D02*
G75*
G03X38009Y-15630I-50J0D01*
G74*
G01*
X37959Y-15180D02*
X37959Y-15580D01*
X37959Y-15580D02*
X38559Y-15580D01*
X38559Y-15580D02*
X38559Y-15180D01*
X38559Y-14780D02*
X38559Y-14380D01*
X38559Y-14380D02*
X37959Y-14380D01*
X37959Y-14380D02*
X37959Y-14780D01*
X57218Y-26567D02*
G75*
G03X57218Y-26567I-50J0D01*
G74*
G01*
X57168Y-26117D02*
X57168Y-26517D01*
X57168Y-26517D02*
X57768Y-26517D01*
X57768Y-26517D02*
X57768Y-26117D01*
X57768Y-25717D02*
X57768Y-25317D01*
X57768Y-25317D02*
X57168Y-25317D01*
X57168Y-25317D02*
X57168Y-25717D01*
X60955Y-24429D02*
G75*
G03X60955Y-24429I-50J0D01*
G74*
G01*
X60455Y-24429D02*
X60855Y-24429D01*
X60855Y-24429D02*
X60855Y-23829D01*
X60855Y-23829D02*
X60455Y-23829D01*
X60055Y-23829D02*
X59655Y-23829D01*
X59655Y-23829D02*
X59655Y-24429D01*
X59655Y-24429D02*
X60055Y-24429D01*
X60951Y-18008D02*
G75*
G03X60951Y-18008I-50J0D01*
G74*
G01*
X60451Y-18008D02*
X60851Y-18008D01*
X60851Y-18008D02*
X60851Y-17408D01*
X60851Y-17408D02*
X60451Y-17408D01*
X60051Y-17408D02*
X59651Y-17408D01*
X59651Y-17408D02*
X59651Y-18008D01*
X59651Y-18008D02*
X60051Y-18008D01*
X57151Y-20165D02*
G75*
G03X57151Y-20165I-50J0D01*
G74*
G01*
X57101Y-19715D02*
X57101Y-20115D01*
X57101Y-20115D02*
X57701Y-20115D01*
X57701Y-20115D02*
X57701Y-19715D01*
X57701Y-19315D02*
X57701Y-18915D01*
X57701Y-18915D02*
X57101Y-18915D01*
X57101Y-18915D02*
X57101Y-19315D01*
X38629Y-12901D02*
G75*
G03X38629Y-12901I-50J0D01*
G74*
G01*
X38579Y-13351D02*
X38579Y-12951D01*
X38579Y-12951D02*
X37979Y-12951D01*
X37979Y-12951D02*
X37979Y-13351D01*
X37979Y-13751D02*
X37979Y-14151D01*
X37979Y-14151D02*
X38579Y-14151D01*
X38579Y-14151D02*
X38579Y-13751D01*
X46639Y-22929D02*
G75*
G03X46639Y-22929I-50J0D01*
G74*
G01*
X46589Y-22479D02*
X46589Y-22879D01*
X46589Y-22879D02*
X47189Y-22879D01*
X47189Y-22879D02*
X47189Y-22479D01*
X47189Y-22079D02*
X47189Y-21679D01*
X47189Y-21679D02*
X46589Y-21679D01*
X46589Y-21679D02*
X46589Y-22079D01*
X47239Y-20259D02*
G75*
G03X47239Y-20259I-50J0D01*
G74*
G01*
X47189Y-20709D02*
X47189Y-20309D01*
X47189Y-20309D02*
X46589Y-20309D01*
X46589Y-20309D02*
X46589Y-20709D01*
X46589Y-21109D02*
X46589Y-21509D01*
X46589Y-21509D02*
X47189Y-21509D01*
X47189Y-21509D02*
X47189Y-21109D01*
X50774Y-20307D02*
G75*
G03X50774Y-20307I-50J0D01*
G74*
G01*
X50274Y-20307D02*
X50674Y-20307D01*
X50674Y-20307D02*
X50674Y-19707D01*
X50674Y-19707D02*
X50274Y-19707D01*
X49874Y-19707D02*
X49474Y-19707D01*
X49474Y-19707D02*
X49474Y-20307D01*
X49474Y-20307D02*
X49874Y-20307D01*
X49466Y-18888D02*
G75*
G03X49466Y-18888I-50J0D01*
G74*
G01*
X49866Y-18888D02*
X49466Y-18888D01*
X49466Y-18888D02*
X49466Y-19488D01*
X49466Y-19488D02*
X49866Y-19488D01*
X50266Y-19488D02*
X50666Y-19488D01*
X50666Y-19488D02*
X50666Y-18888D01*
X50666Y-18888D02*
X50266Y-18888D01*
X50770Y-21075D02*
G75*
G03X50770Y-21075I-50J0D01*
G74*
G01*
X50270Y-21075D02*
X50670Y-21075D01*
X50670Y-21075D02*
X50670Y-20475D01*
X50670Y-20475D02*
X50270Y-20475D01*
X49870Y-20475D02*
X49470Y-20475D01*
X49470Y-20475D02*
X49470Y-21075D01*
X49470Y-21075D02*
X49870Y-21075D01*
G54D14*
X58386Y-33464D02*
X58386Y-33271D01*
X58386Y-33271D02*
X58819Y-33271D01*
X58819Y-33464D02*
X58819Y-33271D01*
X58386Y-33464D02*
X58819Y-33464D01*
X58386Y-32964D02*
X58386Y-32771D01*
X58386Y-32771D02*
X58819Y-32771D01*
X58819Y-32964D02*
X58819Y-32771D01*
X58386Y-32964D02*
X58819Y-32964D01*
X58386Y-32465D02*
X58386Y-32272D01*
X58386Y-32272D02*
X58819Y-32272D01*
X58819Y-32465D02*
X58819Y-32272D01*
X58386Y-32465D02*
X58819Y-32465D01*
X58386Y-31965D02*
X58386Y-31772D01*
X58386Y-31772D02*
X58819Y-31772D01*
X58819Y-31965D02*
X58819Y-31772D01*
X58386Y-31965D02*
X58819Y-31965D01*
X60393Y-31965D02*
X60393Y-31772D01*
X60393Y-31772D02*
X60826Y-31772D01*
X60826Y-31965D02*
X60826Y-31772D01*
X60393Y-31965D02*
X60826Y-31965D01*
X60393Y-32465D02*
X60393Y-32272D01*
X60393Y-32272D02*
X60826Y-32272D01*
X60826Y-32465D02*
X60826Y-32272D01*
X60393Y-32465D02*
X60826Y-32465D01*
X60393Y-32964D02*
X60393Y-32771D01*
X60393Y-32771D02*
X60826Y-32771D01*
X60826Y-32964D02*
X60826Y-32771D01*
X60393Y-32964D02*
X60826Y-32964D01*
X60393Y-33464D02*
X60393Y-33271D01*
X60393Y-33271D02*
X60826Y-33271D01*
X60826Y-33464D02*
X60826Y-33271D01*
X60393Y-33464D02*
X60826Y-33464D01*
G54D15*
X60354Y-31674D02*
X59055Y-31674D01*
X59055Y-31674D02*
X58858Y-31674D01*
X58858Y-31674D02*
X58858Y-33562D01*
X58858Y-33562D02*
X59055Y-33562D01*
X59055Y-33562D02*
X60354Y-33562D01*
X60354Y-33562D02*
X60354Y-31674D01*
X59055Y-31674D02*
X59055Y-33562D01*
G54D14*
X60830Y-25055D02*
X60830Y-25248D01*
X60830Y-25248D02*
X60397Y-25248D01*
X60397Y-25055D02*
X60397Y-25248D01*
X60830Y-25055D02*
X60397Y-25055D01*
X60830Y-25555D02*
X60830Y-25748D01*
X60830Y-25748D02*
X60397Y-25748D01*
X60397Y-25555D02*
X60397Y-25748D01*
X60830Y-25555D02*
X60397Y-25555D01*
X60830Y-26054D02*
X60830Y-26247D01*
X60830Y-26247D02*
X60397Y-26247D01*
X60397Y-26054D02*
X60397Y-26247D01*
X60830Y-26054D02*
X60397Y-26054D01*
X60830Y-26554D02*
X60830Y-26747D01*
X60830Y-26747D02*
X60397Y-26747D01*
X60397Y-26554D02*
X60397Y-26747D01*
X60830Y-26554D02*
X60397Y-26554D01*
X58823Y-26554D02*
X58823Y-26747D01*
X58823Y-26747D02*
X58390Y-26747D01*
X58390Y-26554D02*
X58390Y-26747D01*
X58823Y-26554D02*
X58390Y-26554D01*
X58823Y-26054D02*
X58823Y-26247D01*
X58823Y-26247D02*
X58390Y-26247D01*
X58390Y-26054D02*
X58390Y-26247D01*
X58823Y-26054D02*
X58390Y-26054D01*
X58823Y-25555D02*
X58823Y-25748D01*
X58823Y-25748D02*
X58390Y-25748D01*
X58390Y-25555D02*
X58390Y-25748D01*
X58823Y-25555D02*
X58390Y-25555D01*
X58823Y-25055D02*
X58823Y-25248D01*
X58823Y-25248D02*
X58390Y-25248D01*
X58390Y-25055D02*
X58390Y-25248D01*
X58823Y-25055D02*
X58390Y-25055D01*
G54D15*
X58862Y-26845D02*
X60161Y-26845D01*
X60161Y-26845D02*
X60358Y-26845D01*
X60358Y-26845D02*
X60358Y-24957D01*
X60358Y-24957D02*
X60161Y-24957D01*
X60161Y-24957D02*
X58862Y-24957D01*
X58862Y-24957D02*
X58862Y-26845D01*
X60161Y-26845D02*
X60161Y-24957D01*
G54D14*
X60826Y-18650D02*
X60826Y-18843D01*
X60826Y-18843D02*
X60393Y-18843D01*
X60393Y-18650D02*
X60393Y-18843D01*
X60826Y-18650D02*
X60393Y-18650D01*
X60826Y-19150D02*
X60826Y-19343D01*
X60826Y-19343D02*
X60393Y-19343D01*
X60393Y-19150D02*
X60393Y-19343D01*
X60826Y-19150D02*
X60393Y-19150D01*
X60826Y-19649D02*
X60826Y-19842D01*
X60826Y-19842D02*
X60393Y-19842D01*
X60393Y-19649D02*
X60393Y-19842D01*
X60826Y-19649D02*
X60393Y-19649D01*
X60826Y-20149D02*
X60826Y-20342D01*
X60826Y-20342D02*
X60393Y-20342D01*
X60393Y-20149D02*
X60393Y-20342D01*
X60826Y-20149D02*
X60393Y-20149D01*
X58819Y-20149D02*
X58819Y-20342D01*
X58819Y-20342D02*
X58386Y-20342D01*
X58386Y-20149D02*
X58386Y-20342D01*
X58819Y-20149D02*
X58386Y-20149D01*
X58819Y-19649D02*
X58819Y-19842D01*
X58819Y-19842D02*
X58386Y-19842D01*
X58386Y-19649D02*
X58386Y-19842D01*
X58819Y-19649D02*
X58386Y-19649D01*
X58819Y-19150D02*
X58819Y-19343D01*
X58819Y-19343D02*
X58386Y-19343D01*
X58386Y-19150D02*
X58386Y-19343D01*
X58819Y-19150D02*
X58386Y-19150D01*
X58819Y-18650D02*
X58819Y-18843D01*
X58819Y-18843D02*
X58386Y-18843D01*
X58386Y-18650D02*
X58386Y-18843D01*
X58819Y-18650D02*
X58386Y-18650D01*
G54D15*
X58858Y-20440D02*
X60157Y-20440D01*
X60157Y-20440D02*
X60354Y-20440D01*
X60354Y-20440D02*
X60354Y-18552D01*
X60354Y-18552D02*
X60157Y-18552D01*
X60157Y-18552D02*
X58858Y-18552D01*
X58858Y-18552D02*
X58858Y-20440D01*
X60157Y-20440D02*
X60157Y-18552D01*
G54D13*
X46338Y-24676D02*
G75*
G03X46338Y-24676I-50J0D01*
G74*
G01*
X46288Y-25126D02*
X46288Y-24726D01*
X46288Y-24726D02*
X45688Y-24726D01*
X45688Y-24726D02*
X45688Y-25126D01*
X45688Y-25526D02*
X45688Y-25926D01*
X45688Y-25926D02*
X46288Y-25926D01*
X46288Y-25926D02*
X46288Y-25526D01*
X48057Y-20463D02*
G75*
G03X48057Y-20463I-50J0D01*
G74*
G01*
X48457Y-20463D02*
X48057Y-20463D01*
X48057Y-20463D02*
X48057Y-21063D01*
X48057Y-21063D02*
X48457Y-21063D01*
X48857Y-21063D02*
X49257Y-21063D01*
X49257Y-21063D02*
X49257Y-20463D01*
X49257Y-20463D02*
X48857Y-20463D01*
X48057Y-21184D02*
G75*
G03X48057Y-21184I-50J0D01*
G74*
G01*
X48457Y-21184D02*
X48057Y-21184D01*
X48057Y-21184D02*
X48057Y-21784D01*
X48057Y-21784D02*
X48457Y-21784D01*
X48857Y-21784D02*
X49257Y-21784D01*
X49257Y-21784D02*
X49257Y-21184D01*
X49257Y-21184D02*
X48857Y-21184D01*
X43058Y-21437D02*
G75*
G03X43058Y-21437I-50J0D01*
G74*
G01*
X42558Y-21437D02*
X42958Y-21437D01*
X42958Y-21437D02*
X42958Y-20837D01*
X42958Y-20837D02*
X42558Y-20837D01*
X42158Y-20837D02*
X41758Y-20837D01*
X41758Y-20837D02*
X41758Y-21437D01*
X41758Y-21437D02*
X42158Y-21437D01*
X49286Y-23988D02*
G75*
G03X49286Y-23988I-50J0D01*
G74*
G01*
X48786Y-23988D02*
X49186Y-23988D01*
X49186Y-23988D02*
X49186Y-23388D01*
X49186Y-23388D02*
X48786Y-23388D01*
X48386Y-23388D02*
X47986Y-23388D01*
X47986Y-23388D02*
X47986Y-23988D01*
X47986Y-23988D02*
X48386Y-23988D01*
X42596Y-26275D02*
G75*
G03X42596Y-26275I-50J0D01*
G74*
G01*
X42546Y-25825D02*
X42546Y-26225D01*
X42546Y-26225D02*
X43146Y-26225D01*
X43146Y-26225D02*
X43146Y-25825D01*
X43146Y-25425D02*
X43146Y-25025D01*
X43146Y-25025D02*
X42546Y-25025D01*
X42546Y-25025D02*
X42546Y-25425D01*
X48049Y-19707D02*
G75*
G03X48049Y-19707I-50J0D01*
G74*
G01*
X48449Y-19707D02*
X48049Y-19707D01*
X48049Y-19707D02*
X48049Y-20307D01*
X48049Y-20307D02*
X48449Y-20307D01*
X48849Y-20307D02*
X49249Y-20307D01*
X49249Y-20307D02*
X49249Y-19707D01*
X49249Y-19707D02*
X48849Y-19707D01*
X47448Y-18519D02*
G75*
G03X47448Y-18519I-50J0D01*
G74*
G01*
X47398Y-18969D02*
X47398Y-18569D01*
X47398Y-18569D02*
X46798Y-18569D01*
X46798Y-18569D02*
X46798Y-18969D01*
X46798Y-19369D02*
X46798Y-19769D01*
X46798Y-19769D02*
X47398Y-19769D01*
X47398Y-19769D02*
X47398Y-19369D01*
X46074Y-18818D02*
G75*
G03X46074Y-18818I-50J0D01*
G74*
G01*
X46024Y-19268D02*
X46024Y-18868D01*
X46024Y-18868D02*
X45424Y-18868D01*
X45424Y-18868D02*
X45424Y-19268D01*
X45424Y-19668D02*
X45424Y-20068D01*
X45424Y-20068D02*
X46024Y-20068D01*
X46024Y-20068D02*
X46024Y-19668D01*
X45389Y-18822D02*
G75*
G03X45389Y-18822I-50J0D01*
G74*
G01*
X45339Y-19272D02*
X45339Y-18872D01*
X45339Y-18872D02*
X44739Y-18872D01*
X44739Y-18872D02*
X44739Y-19272D01*
X44739Y-19672D02*
X44739Y-20072D01*
X44739Y-20072D02*
X45339Y-20072D01*
X45339Y-20072D02*
X45339Y-19672D01*
X48558Y-18019D02*
G75*
G03X48558Y-18019I-50J0D01*
G74*
G01*
X48508Y-18469D02*
X48508Y-18069D01*
X48508Y-18069D02*
X47908Y-18069D01*
X47908Y-18069D02*
X47908Y-18469D01*
X47908Y-18869D02*
X47908Y-19269D01*
X47908Y-19269D02*
X48508Y-19269D01*
X48508Y-19269D02*
X48508Y-18869D01*
X42771Y-23668D02*
G75*
G03X42771Y-23668I-50J0D01*
G74*
G01*
X42721Y-24118D02*
X42721Y-23718D01*
X42721Y-23718D02*
X42121Y-23718D01*
X42121Y-23718D02*
X42121Y-24118D01*
X42121Y-24518D02*
X42121Y-24918D01*
X42121Y-24918D02*
X42721Y-24918D01*
X42721Y-24918D02*
X42721Y-24518D01*
G54D14*
X56081Y-15103D02*
X56081Y-15378D01*
X56081Y-15378D02*
X55807Y-15378D01*
X55807Y-15103D02*
X55807Y-15378D01*
X56081Y-15103D02*
X55807Y-15103D01*
X56081Y-18370D02*
X56081Y-18645D01*
X56081Y-18645D02*
X55807Y-18645D01*
X55807Y-18370D02*
X55807Y-18645D01*
X56081Y-18370D02*
X55807Y-18370D01*
G54D16*
X54330Y-15260D02*
X54330Y-17582D01*
X54330Y-17582D02*
X55236Y-18488D01*
X55236Y-18488D02*
X56652Y-18488D01*
X56652Y-18488D02*
X57558Y-17582D01*
X57558Y-17582D02*
X57558Y-15260D01*
X57558Y-15260D02*
X54330Y-15260D01*
X55590Y-15260D02*
X54330Y-15260D01*
X54330Y-15260D02*
X54330Y-17582D01*
X54330Y-17582D02*
X55236Y-18488D01*
X55236Y-18488D02*
X55590Y-18488D01*
X56298Y-18488D02*
X56652Y-18488D01*
X56652Y-18488D02*
X57558Y-17582D01*
X57558Y-17582D02*
X57558Y-15260D01*
X57558Y-15260D02*
X56298Y-15260D01*
X54665Y-16008D02*
X57223Y-16008D01*
X54685Y-15989D02*
X54960Y-15693D01*
X54960Y-15693D02*
X55354Y-15457D01*
X55354Y-15457D02*
X55689Y-15359D01*
X55689Y-15359D02*
X56199Y-15359D01*
X56199Y-15359D02*
X56573Y-15477D01*
X56573Y-15477D02*
X56947Y-15713D01*
X56947Y-15713D02*
X57203Y-15989D01*
X57203Y-15989D02*
X54704Y-15989D01*
X54704Y-15989D02*
X54685Y-15989D01*
G54D17*
X57043Y-16874D02*
G75*
G03X57043Y-16874I-1098J0D01*
G74*
G01*
G54D16*
X55589Y-18388D02*
G75*
G02X55589Y-15359I355J1514D01*
G74*
G01*
X56300Y-15359D02*
G75*
G02X56300Y-18388I-355J-1514D01*
G74*
G01*
G54D14*
X56038Y-21571D02*
X56038Y-21846D01*
X56038Y-21846D02*
X55764Y-21846D01*
X55764Y-21571D02*
X55764Y-21846D01*
X56038Y-21571D02*
X55764Y-21571D01*
X56038Y-24838D02*
X56038Y-25113D01*
X56038Y-25113D02*
X55764Y-25113D01*
X55764Y-24838D02*
X55764Y-25113D01*
X56038Y-24838D02*
X55764Y-24838D01*
G54D16*
X54287Y-21728D02*
X54287Y-24050D01*
X54287Y-24050D02*
X55193Y-24956D01*
X55193Y-24956D02*
X56609Y-24956D01*
X56609Y-24956D02*
X57515Y-24050D01*
X57515Y-24050D02*
X57515Y-21728D01*
X57515Y-21728D02*
X54287Y-21728D01*
X55547Y-21728D02*
X54287Y-21728D01*
X54287Y-21728D02*
X54287Y-24050D01*
X54287Y-24050D02*
X55193Y-24956D01*
X55193Y-24956D02*
X55547Y-24956D01*
X56255Y-24956D02*
X56609Y-24956D01*
X56609Y-24956D02*
X57515Y-24050D01*
X57515Y-24050D02*
X57515Y-21728D01*
X57515Y-21728D02*
X56255Y-21728D01*
X54622Y-22476D02*
X57180Y-22476D01*
X54642Y-22457D02*
X54917Y-22161D01*
X54917Y-22161D02*
X55311Y-21925D01*
X55311Y-21925D02*
X55646Y-21827D01*
X55646Y-21827D02*
X56156Y-21827D01*
X56156Y-21827D02*
X56530Y-21945D01*
X56530Y-21945D02*
X56904Y-22181D01*
X56904Y-22181D02*
X57160Y-22457D01*
X57160Y-22457D02*
X54661Y-22457D01*
X54661Y-22457D02*
X54642Y-22457D01*
G54D17*
X57000Y-23342D02*
G75*
G03X57000Y-23342I-1098J0D01*
G74*
G01*
G54D16*
X55546Y-24857D02*
G75*
G02X55546Y-21827I355J1514D01*
G74*
G01*
X56256Y-21827D02*
G75*
G02X56256Y-24857I-355J-1514D01*
G74*
G01*
G54D14*
X65219Y-26778D02*
X64944Y-26778D01*
X64944Y-26778D02*
X64944Y-26504D01*
X65219Y-26504D02*
X64944Y-26504D01*
X65219Y-26778D02*
X65219Y-26504D01*
X61952Y-26778D02*
X61677Y-26778D01*
X61677Y-26778D02*
X61677Y-26504D01*
X61952Y-26504D02*
X61677Y-26504D01*
X61952Y-26778D02*
X61952Y-26504D01*
G54D16*
X65062Y-25027D02*
X62740Y-25027D01*
X62740Y-25027D02*
X61834Y-25933D01*
X61834Y-25933D02*
X61834Y-27349D01*
X61834Y-27349D02*
X62740Y-28255D01*
X62740Y-28255D02*
X65062Y-28255D01*
X65062Y-28255D02*
X65062Y-25027D01*
X65062Y-26287D02*
X65062Y-25027D01*
X65062Y-25027D02*
X62740Y-25027D01*
X62740Y-25027D02*
X61834Y-25933D01*
X61834Y-25933D02*
X61834Y-26287D01*
X61834Y-26995D02*
X61834Y-27349D01*
X61834Y-27349D02*
X62740Y-28255D01*
X62740Y-28255D02*
X65062Y-28255D01*
X65062Y-28255D02*
X65062Y-26995D01*
X64314Y-25362D02*
X64314Y-27920D01*
X64333Y-25382D02*
X64629Y-25657D01*
X64629Y-25657D02*
X64865Y-26051D01*
X64865Y-26051D02*
X64963Y-26386D01*
X64963Y-26386D02*
X64963Y-26896D01*
X64963Y-26896D02*
X64845Y-27270D01*
X64845Y-27270D02*
X64609Y-27644D01*
X64609Y-27644D02*
X64333Y-27900D01*
X64333Y-27900D02*
X64333Y-25401D01*
X64333Y-25401D02*
X64333Y-25382D01*
G54D17*
X64547Y-26641D02*
G75*
G03X64547Y-26641I-1098J0D01*
G74*
G01*
G54D16*
X61934Y-26286D02*
G75*
G02X64963Y-26286I1514J-355D01*
G74*
G01*
X64963Y-26997D02*
G75*
G02X61934Y-26997I-1514J355D01*
G74*
G01*
G54D14*
X56066Y-29134D02*
X56066Y-29409D01*
X56066Y-29409D02*
X55792Y-29409D01*
X55792Y-29134D02*
X55792Y-29409D01*
X56066Y-29134D02*
X55792Y-29134D01*
X56066Y-32401D02*
X56066Y-32676D01*
X56066Y-32676D02*
X55792Y-32676D01*
X55792Y-32401D02*
X55792Y-32676D01*
X56066Y-32401D02*
X55792Y-32401D01*
G54D16*
X54315Y-29291D02*
X54315Y-31613D01*
X54315Y-31613D02*
X55221Y-32519D01*
X55221Y-32519D02*
X56637Y-32519D01*
X56637Y-32519D02*
X57543Y-31613D01*
X57543Y-31613D02*
X57543Y-29291D01*
X57543Y-29291D02*
X54315Y-29291D01*
X55575Y-29291D02*
X54315Y-29291D01*
X54315Y-29291D02*
X54315Y-31613D01*
X54315Y-31613D02*
X55221Y-32519D01*
X55221Y-32519D02*
X55575Y-32519D01*
X56283Y-32519D02*
X56637Y-32519D01*
X56637Y-32519D02*
X57543Y-31613D01*
X57543Y-31613D02*
X57543Y-29291D01*
X57543Y-29291D02*
X56283Y-29291D01*
X54650Y-30039D02*
X57208Y-30039D01*
X54670Y-30020D02*
X54945Y-29724D01*
X54945Y-29724D02*
X55339Y-29488D01*
X55339Y-29488D02*
X55674Y-29390D01*
X55674Y-29390D02*
X56184Y-29390D01*
X56184Y-29390D02*
X56558Y-29508D01*
X56558Y-29508D02*
X56932Y-29744D01*
X56932Y-29744D02*
X57188Y-30020D01*
X57188Y-30020D02*
X54689Y-30020D01*
X54689Y-30020D02*
X54670Y-30020D01*
G54D17*
X57027Y-30905D02*
G75*
G03X57027Y-30905I-1098J0D01*
G74*
G01*
G54D16*
X55573Y-32420D02*
G75*
G02X55573Y-29390I355J1514D01*
G74*
G01*
X56284Y-29390D02*
G75*
G02X56284Y-32420I-355J-1514D01*
G74*
G01*
G54D14*
X64507Y-33491D02*
X64270Y-33491D01*
X64270Y-33491D02*
X64270Y-33217D01*
X64507Y-33217D02*
X64270Y-33217D01*
X64507Y-33491D02*
X64507Y-33217D01*
X61870Y-33491D02*
X61633Y-33491D01*
X61633Y-33491D02*
X61633Y-33217D01*
X61870Y-33217D02*
X61633Y-33217D01*
X61870Y-33491D02*
X61870Y-33217D01*
G54D16*
X64349Y-32075D02*
X62460Y-32075D01*
X62460Y-32075D02*
X61791Y-32744D01*
X61791Y-32744D02*
X61791Y-33964D01*
X61791Y-33964D02*
X62460Y-34633D01*
X62460Y-34633D02*
X64349Y-34633D01*
X64349Y-34633D02*
X64349Y-32075D01*
X64349Y-32980D02*
X64349Y-32075D01*
X64349Y-32075D02*
X62460Y-32075D01*
X62460Y-32075D02*
X61791Y-32744D01*
X61791Y-32744D02*
X61791Y-32980D01*
X61791Y-33728D02*
X61791Y-33964D01*
X61791Y-33964D02*
X62460Y-34633D01*
X62460Y-34633D02*
X64349Y-34633D01*
X64349Y-34633D02*
X64349Y-33728D01*
X63896Y-32469D02*
X63896Y-34220D01*
X63916Y-32508D02*
X64093Y-32725D01*
X64093Y-32725D02*
X64211Y-33000D01*
X64211Y-33000D02*
X64270Y-33354D01*
X64270Y-33354D02*
X64211Y-33728D01*
X64211Y-33728D02*
X64073Y-34003D01*
X64073Y-34003D02*
X63916Y-34200D01*
X63916Y-34200D02*
X63916Y-32528D01*
X63916Y-32528D02*
X63916Y-32508D01*
G54D17*
X63933Y-33354D02*
G75*
G03X63933Y-33354I-862J0D01*
G74*
G01*
G54D16*
X61910Y-32979D02*
G75*
G02X64231Y-32979I1160J-374D01*
G74*
G01*
X64231Y-33729D02*
G75*
G02X61910Y-33729I-1160J374D01*
G74*
G01*
G54D14*
X63952Y-20396D02*
X63735Y-20396D01*
X63735Y-20396D02*
X63735Y-20122D01*
X63952Y-20122D02*
X63735Y-20122D01*
X63952Y-20396D02*
X63952Y-20122D01*
X61847Y-20396D02*
X61630Y-20396D01*
X61630Y-20396D02*
X61630Y-20122D01*
X61847Y-20122D02*
X61630Y-20122D01*
X61847Y-20396D02*
X61847Y-20122D01*
G54D16*
X63814Y-19236D02*
X62299Y-19236D01*
X62299Y-19236D02*
X61768Y-19767D01*
X61768Y-19767D02*
X61768Y-20751D01*
X61768Y-20751D02*
X62299Y-21282D01*
X62299Y-21282D02*
X63814Y-21282D01*
X63814Y-21282D02*
X63814Y-19236D01*
X63814Y-19885D02*
X63814Y-19236D01*
X63814Y-19236D02*
X62299Y-19236D01*
X62299Y-19236D02*
X61768Y-19767D01*
X61768Y-19767D02*
X61768Y-19885D01*
X61768Y-20633D02*
X61768Y-20751D01*
X61768Y-20751D02*
X62299Y-21282D01*
X62299Y-21282D02*
X63814Y-21282D01*
X63814Y-21282D02*
X63814Y-20633D01*
X63401Y-19531D02*
X63401Y-20987D01*
X63420Y-19551D02*
X63578Y-19728D01*
X63578Y-19728D02*
X63676Y-19964D01*
X63676Y-19964D02*
X63755Y-20240D01*
X63755Y-20240D02*
X63676Y-20554D01*
X63676Y-20554D02*
X63558Y-20790D01*
X63558Y-20790D02*
X63420Y-20967D01*
X63420Y-20967D02*
X63420Y-19551D01*
G54D17*
X63472Y-20259D02*
G75*
G03X63472Y-20259I-681J0D01*
G74*
G01*
G54D16*
X61886Y-19925D02*
G75*
G02X63696Y-19925I904J-334D01*
G74*
G01*
X63696Y-20594D02*
G75*
G02X61886Y-20594I-904J334D01*
G74*
G01*
G54D18*
X38891Y-14725D02*
X38956Y-14631D01*
X39003Y-14725D02*
X39003Y-14528D01*
X38928Y-14528D01*
X38909Y-14537D01*
X38900Y-14547D01*
X38891Y-14565D01*
X38891Y-14594D01*
X38900Y-14612D01*
X38909Y-14622D01*
X38928Y-14631D01*
X39003Y-14631D01*
X38797Y-14725D02*
X38759Y-14725D01*
X38741Y-14716D01*
X38731Y-14706D01*
X38712Y-14678D01*
X38703Y-14640D01*
X38703Y-14565D01*
X38712Y-14547D01*
X38722Y-14537D01*
X38741Y-14528D01*
X38778Y-14528D01*
X38797Y-14537D01*
X38806Y-14547D01*
X38816Y-14565D01*
X38816Y-14612D01*
X38806Y-14631D01*
X38797Y-14640D01*
X38778Y-14650D01*
X38741Y-14650D01*
X38722Y-14640D01*
X38712Y-14631D01*
X38703Y-14612D01*
X39033Y-15473D02*
X39146Y-15473D01*
X39089Y-15473D02*
X39089Y-15276D01*
X39108Y-15304D01*
X39127Y-15323D01*
X39146Y-15332D01*
X38911Y-15276D02*
X38892Y-15276D01*
X38874Y-15285D01*
X38864Y-15295D01*
X38855Y-15313D01*
X38846Y-15351D01*
X38846Y-15398D01*
X38855Y-15435D01*
X38864Y-15454D01*
X38874Y-15464D01*
X38892Y-15473D01*
X38911Y-15473D01*
X38930Y-15464D01*
X38939Y-15454D01*
X38949Y-15435D01*
X38958Y-15398D01*
X38958Y-15351D01*
X38949Y-15313D01*
X38939Y-15295D01*
X38930Y-15285D01*
X38911Y-15276D01*
X38761Y-15473D02*
X38761Y-15276D01*
X38649Y-15473D02*
X38733Y-15360D01*
X38649Y-15276D02*
X38761Y-15389D01*
X57567Y-25237D02*
X57633Y-25143D01*
X57680Y-25237D02*
X57680Y-25040D01*
X57605Y-25040D01*
X57586Y-25049D01*
X57576Y-25058D01*
X57567Y-25077D01*
X57567Y-25105D01*
X57576Y-25124D01*
X57586Y-25134D01*
X57605Y-25143D01*
X57680Y-25143D01*
X57379Y-25237D02*
X57492Y-25237D01*
X57436Y-25237D02*
X57436Y-25040D01*
X57455Y-25068D01*
X57473Y-25087D01*
X57492Y-25096D01*
X57314Y-25040D02*
X57192Y-25040D01*
X57258Y-25115D01*
X57229Y-25115D01*
X57211Y-25124D01*
X57201Y-25134D01*
X57192Y-25152D01*
X57192Y-25199D01*
X57201Y-25218D01*
X57211Y-25227D01*
X57229Y-25237D01*
X57286Y-25237D01*
X57304Y-25227D01*
X57314Y-25218D01*
X56851Y-25467D02*
X56851Y-25598D01*
X57048Y-25514D01*
X56851Y-25758D02*
X56851Y-25720D01*
X56860Y-25701D01*
X56870Y-25692D01*
X56898Y-25673D01*
X56935Y-25664D01*
X57010Y-25664D01*
X57029Y-25673D01*
X57038Y-25683D01*
X57048Y-25701D01*
X57048Y-25739D01*
X57038Y-25758D01*
X57029Y-25767D01*
X57010Y-25777D01*
X56963Y-25777D01*
X56945Y-25767D01*
X56935Y-25758D01*
X56926Y-25739D01*
X56926Y-25701D01*
X56935Y-25683D01*
X56945Y-25673D01*
X56963Y-25664D01*
X57029Y-25861D02*
X57038Y-25870D01*
X57048Y-25861D01*
X57038Y-25852D01*
X57029Y-25861D01*
X57048Y-25861D01*
X56935Y-25983D02*
X56926Y-25964D01*
X56916Y-25955D01*
X56898Y-25945D01*
X56888Y-25945D01*
X56870Y-25955D01*
X56860Y-25964D01*
X56851Y-25983D01*
X56851Y-26020D01*
X56860Y-26039D01*
X56870Y-26049D01*
X56888Y-26058D01*
X56898Y-26058D01*
X56916Y-26049D01*
X56926Y-26039D01*
X56935Y-26020D01*
X56935Y-25983D01*
X56945Y-25964D01*
X56954Y-25955D01*
X56973Y-25945D01*
X57010Y-25945D01*
X57029Y-25955D01*
X57038Y-25964D01*
X57048Y-25983D01*
X57048Y-26020D01*
X57038Y-26039D01*
X57029Y-26049D01*
X57010Y-26058D01*
X56973Y-26058D01*
X56954Y-26049D01*
X56945Y-26039D01*
X56935Y-26020D01*
X57048Y-26142D02*
X56851Y-26142D01*
X57048Y-26255D02*
X56935Y-26171D01*
X56851Y-26255D02*
X56963Y-26142D01*
X60874Y-23701D02*
X60940Y-23607D01*
X60987Y-23701D02*
X60987Y-23504D01*
X60912Y-23504D01*
X60893Y-23514D01*
X60884Y-23523D01*
X60874Y-23542D01*
X60874Y-23570D01*
X60884Y-23589D01*
X60893Y-23598D01*
X60912Y-23607D01*
X60987Y-23607D01*
X60687Y-23701D02*
X60799Y-23701D01*
X60743Y-23701D02*
X60743Y-23504D01*
X60762Y-23532D01*
X60780Y-23551D01*
X60799Y-23561D01*
X60518Y-23570D02*
X60518Y-23701D01*
X60565Y-23495D02*
X60612Y-23636D01*
X60490Y-23636D01*
X59875Y-23701D02*
X59988Y-23701D01*
X59931Y-23701D02*
X59931Y-23504D01*
X59950Y-23532D01*
X59969Y-23551D01*
X59988Y-23561D01*
X59706Y-23570D02*
X59706Y-23701D01*
X59753Y-23495D02*
X59800Y-23636D01*
X59678Y-23636D01*
X59622Y-23504D02*
X59490Y-23504D01*
X59575Y-23701D01*
X59415Y-23701D02*
X59415Y-23504D01*
X59303Y-23701D02*
X59387Y-23589D01*
X59303Y-23504D02*
X59415Y-23617D01*
X60835Y-17245D02*
X60900Y-17151D01*
X60947Y-17245D02*
X60947Y-17048D01*
X60872Y-17048D01*
X60854Y-17057D01*
X60844Y-17066D01*
X60835Y-17085D01*
X60835Y-17113D01*
X60844Y-17132D01*
X60854Y-17141D01*
X60872Y-17151D01*
X60947Y-17151D01*
X60647Y-17245D02*
X60760Y-17245D01*
X60703Y-17245D02*
X60703Y-17048D01*
X60722Y-17076D01*
X60741Y-17094D01*
X60760Y-17104D01*
X60535Y-17132D02*
X60553Y-17123D01*
X60563Y-17113D01*
X60572Y-17094D01*
X60572Y-17085D01*
X60563Y-17066D01*
X60553Y-17057D01*
X60535Y-17048D01*
X60497Y-17048D01*
X60478Y-17057D01*
X60469Y-17066D01*
X60460Y-17085D01*
X60460Y-17094D01*
X60469Y-17113D01*
X60478Y-17123D01*
X60497Y-17132D01*
X60535Y-17132D01*
X60553Y-17141D01*
X60563Y-17151D01*
X60572Y-17170D01*
X60572Y-17207D01*
X60563Y-17226D01*
X60553Y-17235D01*
X60535Y-17245D01*
X60497Y-17245D01*
X60478Y-17235D01*
X60469Y-17226D01*
X60460Y-17207D01*
X60460Y-17170D01*
X60469Y-17151D01*
X60478Y-17141D01*
X60497Y-17132D01*
X60072Y-17245D02*
X60184Y-17245D01*
X60128Y-17245D02*
X60128Y-17048D01*
X60147Y-17076D01*
X60166Y-17094D01*
X60184Y-17104D01*
X59903Y-17113D02*
X59903Y-17245D01*
X59950Y-17038D02*
X59997Y-17179D01*
X59875Y-17179D01*
X59819Y-17048D02*
X59687Y-17048D01*
X59772Y-17245D01*
X59612Y-17245D02*
X59612Y-17048D01*
X59500Y-17245D02*
X59584Y-17132D01*
X59500Y-17048D02*
X59612Y-17160D01*
X56858Y-19213D02*
X56924Y-19119D01*
X56971Y-19213D02*
X56971Y-19016D01*
X56896Y-19016D01*
X56877Y-19025D01*
X56868Y-19035D01*
X56858Y-19054D01*
X56858Y-19082D01*
X56868Y-19101D01*
X56877Y-19110D01*
X56896Y-19119D01*
X56971Y-19119D01*
X56671Y-19213D02*
X56783Y-19213D01*
X56727Y-19213D02*
X56727Y-19016D01*
X56746Y-19044D01*
X56765Y-19063D01*
X56783Y-19072D01*
X56605Y-19016D02*
X56474Y-19016D01*
X56558Y-19213D01*
X57012Y-19803D02*
X56881Y-19803D01*
X56965Y-20000D01*
X56722Y-19803D02*
X56759Y-19803D01*
X56778Y-19813D01*
X56787Y-19822D01*
X56806Y-19850D01*
X56815Y-19888D01*
X56815Y-19963D01*
X56806Y-19982D01*
X56797Y-19991D01*
X56778Y-20000D01*
X56740Y-20000D01*
X56722Y-19991D01*
X56712Y-19982D01*
X56703Y-19963D01*
X56703Y-19916D01*
X56712Y-19897D01*
X56722Y-19888D01*
X56740Y-19879D01*
X56778Y-19879D01*
X56797Y-19888D01*
X56806Y-19897D01*
X56815Y-19916D01*
X56618Y-19982D02*
X56609Y-19991D01*
X56618Y-20000D01*
X56628Y-19991D01*
X56618Y-19982D01*
X56618Y-20000D01*
X56496Y-19888D02*
X56515Y-19879D01*
X56525Y-19869D01*
X56534Y-19850D01*
X56534Y-19841D01*
X56525Y-19822D01*
X56515Y-19813D01*
X56496Y-19803D01*
X56459Y-19803D01*
X56440Y-19813D01*
X56431Y-19822D01*
X56421Y-19841D01*
X56421Y-19850D01*
X56431Y-19869D01*
X56440Y-19879D01*
X56459Y-19888D01*
X56496Y-19888D01*
X56515Y-19897D01*
X56525Y-19907D01*
X56534Y-19925D01*
X56534Y-19963D01*
X56525Y-19982D01*
X56515Y-19991D01*
X56496Y-20000D01*
X56459Y-20000D01*
X56440Y-19991D01*
X56431Y-19982D01*
X56421Y-19963D01*
X56421Y-19925D01*
X56431Y-19907D01*
X56440Y-19897D01*
X56459Y-19888D01*
X56337Y-20000D02*
X56337Y-19803D01*
X56224Y-20000D02*
X56309Y-19888D01*
X56224Y-19803D02*
X56337Y-19916D01*
X39063Y-13229D02*
X39129Y-13135D01*
X39176Y-13229D02*
X39176Y-13032D01*
X39101Y-13032D01*
X39082Y-13041D01*
X39073Y-13051D01*
X39063Y-13069D01*
X39063Y-13098D01*
X39073Y-13116D01*
X39082Y-13126D01*
X39101Y-13135D01*
X39176Y-13135D01*
X38876Y-13229D02*
X38988Y-13229D01*
X38932Y-13229D02*
X38932Y-13032D01*
X38951Y-13060D01*
X38969Y-13079D01*
X38988Y-13088D01*
X38754Y-13032D02*
X38735Y-13032D01*
X38716Y-13041D01*
X38707Y-13051D01*
X38697Y-13069D01*
X38688Y-13107D01*
X38688Y-13154D01*
X38697Y-13191D01*
X38707Y-13210D01*
X38716Y-13219D01*
X38735Y-13229D01*
X38754Y-13229D01*
X38772Y-13219D01*
X38782Y-13210D01*
X38791Y-13191D01*
X38800Y-13154D01*
X38800Y-13107D01*
X38791Y-13069D01*
X38782Y-13051D01*
X38772Y-13041D01*
X38754Y-13032D01*
X39033Y-14056D02*
X39146Y-14056D01*
X39089Y-14056D02*
X39089Y-13859D01*
X39108Y-13887D01*
X39127Y-13906D01*
X39146Y-13915D01*
X38911Y-13859D02*
X38892Y-13859D01*
X38874Y-13868D01*
X38864Y-13877D01*
X38855Y-13896D01*
X38846Y-13934D01*
X38846Y-13981D01*
X38855Y-14018D01*
X38864Y-14037D01*
X38874Y-14046D01*
X38892Y-14056D01*
X38911Y-14056D01*
X38930Y-14046D01*
X38939Y-14037D01*
X38949Y-14018D01*
X38958Y-13981D01*
X38958Y-13934D01*
X38949Y-13896D01*
X38939Y-13877D01*
X38930Y-13868D01*
X38911Y-13859D01*
X38761Y-14056D02*
X38761Y-13859D01*
X38649Y-14056D02*
X38733Y-13943D01*
X38649Y-13859D02*
X38761Y-13971D01*
X46386Y-22166D02*
X46452Y-22072D01*
X46499Y-22166D02*
X46499Y-21969D01*
X46424Y-21969D01*
X46405Y-21978D01*
X46395Y-21988D01*
X46386Y-22006D01*
X46386Y-22035D01*
X46395Y-22053D01*
X46405Y-22063D01*
X46424Y-22072D01*
X46499Y-22072D01*
X46198Y-22166D02*
X46311Y-22166D01*
X46255Y-22166D02*
X46255Y-21969D01*
X46273Y-21997D01*
X46292Y-22016D01*
X46311Y-22025D01*
X46011Y-22166D02*
X46123Y-22166D01*
X46067Y-22166D02*
X46067Y-21969D01*
X46086Y-21997D01*
X46105Y-22016D01*
X46123Y-22025D01*
X46380Y-22481D02*
X46493Y-22481D01*
X46437Y-22481D02*
X46437Y-22284D01*
X46455Y-22312D01*
X46474Y-22331D01*
X46493Y-22340D01*
X46296Y-22481D02*
X46296Y-22284D01*
X46183Y-22481D02*
X46268Y-22368D01*
X46183Y-22284D02*
X46296Y-22396D01*
X46386Y-20867D02*
X46452Y-20773D01*
X46499Y-20867D02*
X46499Y-20670D01*
X46424Y-20670D01*
X46405Y-20679D01*
X46395Y-20688D01*
X46386Y-20707D01*
X46386Y-20735D01*
X46395Y-20754D01*
X46405Y-20763D01*
X46424Y-20773D01*
X46499Y-20773D01*
X46198Y-20867D02*
X46311Y-20867D01*
X46255Y-20867D02*
X46255Y-20670D01*
X46273Y-20698D01*
X46292Y-20717D01*
X46311Y-20726D01*
X46123Y-20688D02*
X46114Y-20679D01*
X46095Y-20670D01*
X46048Y-20670D01*
X46030Y-20679D01*
X46020Y-20688D01*
X46011Y-20707D01*
X46011Y-20726D01*
X46020Y-20754D01*
X46133Y-20867D01*
X46011Y-20867D01*
X46223Y-21182D02*
X46335Y-21182D01*
X46279Y-21182D02*
X46279Y-20985D01*
X46298Y-21013D01*
X46317Y-21032D01*
X46335Y-21041D01*
X46138Y-21182D02*
X46138Y-20985D01*
X46026Y-21182D02*
X46110Y-21069D01*
X46026Y-20985D02*
X46138Y-21097D01*
X51213Y-19882D02*
X51279Y-19789D01*
X51326Y-19882D02*
X51326Y-19685D01*
X51251Y-19685D01*
X51232Y-19695D01*
X51223Y-19704D01*
X51213Y-19723D01*
X51213Y-19751D01*
X51223Y-19770D01*
X51232Y-19779D01*
X51251Y-19789D01*
X51326Y-19789D01*
X51101Y-19770D02*
X51120Y-19760D01*
X51129Y-19751D01*
X51138Y-19732D01*
X51138Y-19723D01*
X51129Y-19704D01*
X51120Y-19695D01*
X51101Y-19685D01*
X51063Y-19685D01*
X51045Y-19695D01*
X51035Y-19704D01*
X51026Y-19723D01*
X51026Y-19732D01*
X51035Y-19751D01*
X51045Y-19760D01*
X51063Y-19770D01*
X51101Y-19770D01*
X51120Y-19779D01*
X51129Y-19789D01*
X51138Y-19807D01*
X51138Y-19845D01*
X51129Y-19864D01*
X51120Y-19873D01*
X51101Y-19882D01*
X51063Y-19882D01*
X51045Y-19873D01*
X51035Y-19864D01*
X51026Y-19845D01*
X51026Y-19807D01*
X51035Y-19789D01*
X51045Y-19779D01*
X51063Y-19770D01*
X51245Y-20197D02*
X51358Y-20197D01*
X51302Y-20197D02*
X51302Y-20000D01*
X51320Y-20028D01*
X51339Y-20047D01*
X51358Y-20057D01*
X51161Y-20179D02*
X51152Y-20188D01*
X51161Y-20197D01*
X51170Y-20188D01*
X51161Y-20179D01*
X51161Y-20197D01*
X50973Y-20000D02*
X51067Y-20000D01*
X51077Y-20094D01*
X51067Y-20085D01*
X51048Y-20075D01*
X51002Y-20075D01*
X50983Y-20085D01*
X50973Y-20094D01*
X50964Y-20113D01*
X50964Y-20160D01*
X50973Y-20179D01*
X50983Y-20188D01*
X51002Y-20197D01*
X51048Y-20197D01*
X51067Y-20188D01*
X51077Y-20179D01*
X50880Y-20197D02*
X50880Y-20000D01*
X50767Y-20197D02*
X50851Y-20085D01*
X50767Y-20000D02*
X50880Y-20113D01*
X51229Y-19037D02*
X51238Y-19046D01*
X51266Y-19056D01*
X51285Y-19056D01*
X51313Y-19046D01*
X51332Y-19027D01*
X51341Y-19009D01*
X51350Y-18971D01*
X51350Y-18943D01*
X51341Y-18906D01*
X51332Y-18887D01*
X51313Y-18868D01*
X51285Y-18859D01*
X51266Y-18859D01*
X51238Y-18868D01*
X51229Y-18877D01*
X51041Y-19056D02*
X51153Y-19056D01*
X51097Y-19056D02*
X51097Y-18859D01*
X51116Y-18887D01*
X51135Y-18906D01*
X51153Y-18915D01*
X50872Y-18859D02*
X50910Y-18859D01*
X50928Y-18868D01*
X50938Y-18877D01*
X50956Y-18906D01*
X50966Y-18943D01*
X50966Y-19018D01*
X50956Y-19037D01*
X50947Y-19046D01*
X50928Y-19056D01*
X50891Y-19056D01*
X50872Y-19046D01*
X50863Y-19037D01*
X50853Y-19018D01*
X50853Y-18971D01*
X50863Y-18952D01*
X50872Y-18943D01*
X50891Y-18934D01*
X50928Y-18934D01*
X50947Y-18943D01*
X50956Y-18952D01*
X50966Y-18971D01*
X51320Y-19258D02*
X51339Y-19249D01*
X51349Y-19239D01*
X51358Y-19220D01*
X51358Y-19211D01*
X51349Y-19192D01*
X51339Y-19183D01*
X51320Y-19174D01*
X51283Y-19174D01*
X51264Y-19183D01*
X51255Y-19192D01*
X51245Y-19211D01*
X51245Y-19220D01*
X51255Y-19239D01*
X51264Y-19249D01*
X51283Y-19258D01*
X51320Y-19258D01*
X51339Y-19267D01*
X51349Y-19277D01*
X51358Y-19296D01*
X51358Y-19333D01*
X51349Y-19352D01*
X51339Y-19361D01*
X51320Y-19371D01*
X51283Y-19371D01*
X51264Y-19361D01*
X51255Y-19352D01*
X51245Y-19333D01*
X51245Y-19296D01*
X51255Y-19277D01*
X51264Y-19267D01*
X51283Y-19258D01*
X51170Y-19192D02*
X51161Y-19183D01*
X51142Y-19174D01*
X51095Y-19174D01*
X51077Y-19183D01*
X51067Y-19192D01*
X51058Y-19211D01*
X51058Y-19230D01*
X51067Y-19258D01*
X51180Y-19371D01*
X51058Y-19371D01*
X50973Y-19239D02*
X50973Y-19371D01*
X50973Y-19258D02*
X50964Y-19249D01*
X50945Y-19239D01*
X50917Y-19239D01*
X50898Y-19249D01*
X50889Y-19267D01*
X50889Y-19371D01*
X50823Y-19239D02*
X50748Y-19239D01*
X50795Y-19371D02*
X50795Y-19202D01*
X50786Y-19183D01*
X50767Y-19174D01*
X50748Y-19174D01*
X51307Y-20651D02*
X51317Y-20660D01*
X51345Y-20670D01*
X51364Y-20670D01*
X51392Y-20660D01*
X51410Y-20642D01*
X51420Y-20623D01*
X51429Y-20585D01*
X51429Y-20557D01*
X51420Y-20520D01*
X51410Y-20501D01*
X51392Y-20482D01*
X51364Y-20473D01*
X51345Y-20473D01*
X51317Y-20482D01*
X51307Y-20492D01*
X51120Y-20670D02*
X51232Y-20670D01*
X51176Y-20670D02*
X51176Y-20473D01*
X51195Y-20501D01*
X51213Y-20520D01*
X51232Y-20529D01*
X50941Y-20473D02*
X51035Y-20473D01*
X51045Y-20567D01*
X51035Y-20557D01*
X51016Y-20548D01*
X50970Y-20548D01*
X50951Y-20557D01*
X50941Y-20567D01*
X50932Y-20585D01*
X50932Y-20632D01*
X50941Y-20651D01*
X50951Y-20660D01*
X50970Y-20670D01*
X51016Y-20670D01*
X51035Y-20660D01*
X51045Y-20651D01*
X51446Y-20872D02*
X51465Y-20863D01*
X51474Y-20853D01*
X51484Y-20835D01*
X51484Y-20825D01*
X51474Y-20807D01*
X51465Y-20797D01*
X51446Y-20788D01*
X51409Y-20788D01*
X51390Y-20797D01*
X51380Y-20807D01*
X51371Y-20825D01*
X51371Y-20835D01*
X51380Y-20853D01*
X51390Y-20863D01*
X51409Y-20872D01*
X51446Y-20872D01*
X51465Y-20882D01*
X51474Y-20891D01*
X51484Y-20910D01*
X51484Y-20947D01*
X51474Y-20966D01*
X51465Y-20975D01*
X51446Y-20985D01*
X51409Y-20985D01*
X51390Y-20975D01*
X51380Y-20966D01*
X51371Y-20947D01*
X51371Y-20910D01*
X51380Y-20891D01*
X51390Y-20882D01*
X51409Y-20872D01*
X51287Y-20966D02*
X51277Y-20975D01*
X51287Y-20985D01*
X51296Y-20975D01*
X51287Y-20966D01*
X51287Y-20985D01*
X51202Y-20807D02*
X51193Y-20797D01*
X51174Y-20788D01*
X51127Y-20788D01*
X51108Y-20797D01*
X51099Y-20807D01*
X51090Y-20825D01*
X51090Y-20844D01*
X51099Y-20872D01*
X51212Y-20985D01*
X51090Y-20985D01*
X51005Y-20853D02*
X51005Y-20985D01*
X51005Y-20872D02*
X50996Y-20863D01*
X50977Y-20853D01*
X50949Y-20853D01*
X50930Y-20863D01*
X50921Y-20882D01*
X50921Y-20985D01*
X50855Y-20853D02*
X50780Y-20853D01*
X50827Y-20985D02*
X50827Y-20816D01*
X50818Y-20797D01*
X50799Y-20788D01*
X50780Y-20788D01*
G54D19*
X59308Y-32335D02*
X59713Y-32335D01*
X59761Y-32359D01*
X59784Y-32383D01*
X59808Y-32430D01*
X59808Y-32526D01*
X59784Y-32573D01*
X59761Y-32597D01*
X59713Y-32621D01*
X59308Y-32621D01*
X59808Y-33121D02*
X59808Y-32835D01*
X59808Y-32978D02*
X59308Y-32978D01*
X59380Y-32930D01*
X59427Y-32883D01*
X59451Y-32835D01*
X61469Y-35571D02*
X61230Y-35571D01*
X61516Y-35714D02*
X61350Y-35214D01*
X61183Y-35714D01*
X61016Y-35714D02*
X61016Y-35214D01*
X60897Y-35214D01*
X60826Y-35238D01*
X60778Y-35285D01*
X60754Y-35333D01*
X60730Y-35428D01*
X60730Y-35499D01*
X60754Y-35595D01*
X60778Y-35642D01*
X60826Y-35690D01*
X60897Y-35714D01*
X61016Y-35714D01*
X60516Y-35714D02*
X60516Y-35214D01*
X60326Y-35214D01*
X60278Y-35238D01*
X60254Y-35261D01*
X60230Y-35309D01*
X60230Y-35380D01*
X60254Y-35428D01*
X60278Y-35452D01*
X60326Y-35476D01*
X60516Y-35476D01*
X60064Y-35214D02*
X59754Y-35214D01*
X59921Y-35404D01*
X59850Y-35404D01*
X59802Y-35428D01*
X59778Y-35452D01*
X59754Y-35499D01*
X59754Y-35618D01*
X59778Y-35666D01*
X59802Y-35690D01*
X59850Y-35714D01*
X59992Y-35714D01*
X60040Y-35690D01*
X60064Y-35666D01*
X59588Y-35214D02*
X59278Y-35214D01*
X59445Y-35404D01*
X59373Y-35404D01*
X59326Y-35428D01*
X59302Y-35452D01*
X59278Y-35499D01*
X59278Y-35618D01*
X59302Y-35666D01*
X59326Y-35690D01*
X59373Y-35714D01*
X59516Y-35714D01*
X59564Y-35690D01*
X59588Y-35666D01*
X58969Y-35214D02*
X58921Y-35214D01*
X58873Y-35238D01*
X58850Y-35261D01*
X58826Y-35309D01*
X58802Y-35404D01*
X58802Y-35523D01*
X58826Y-35618D01*
X58850Y-35666D01*
X58873Y-35690D01*
X58921Y-35714D01*
X58969Y-35714D01*
X59016Y-35690D01*
X59040Y-35666D01*
X59064Y-35618D01*
X59088Y-35523D01*
X59088Y-35404D01*
X59064Y-35309D01*
X59040Y-35261D01*
X59016Y-35238D01*
X58969Y-35214D01*
X58635Y-35214D02*
X58326Y-35214D01*
X58492Y-35404D01*
X58421Y-35404D01*
X58373Y-35428D01*
X58350Y-35452D01*
X58326Y-35499D01*
X58326Y-35618D01*
X58350Y-35666D01*
X58373Y-35690D01*
X58421Y-35714D01*
X58564Y-35714D01*
X58611Y-35690D01*
X58635Y-35666D01*
X58111Y-35523D02*
X57730Y-35523D01*
X57540Y-35214D02*
X57230Y-35214D01*
X57397Y-35404D01*
X57326Y-35404D01*
X57278Y-35428D01*
X57254Y-35452D01*
X57230Y-35499D01*
X57230Y-35618D01*
X57254Y-35666D01*
X57278Y-35690D01*
X57326Y-35714D01*
X57469Y-35714D01*
X57516Y-35690D01*
X57540Y-35666D01*
X57088Y-35214D02*
X56921Y-35714D01*
X56754Y-35214D01*
X56635Y-35214D02*
X56326Y-35214D01*
X56492Y-35404D01*
X56421Y-35404D01*
X56373Y-35428D01*
X56350Y-35452D01*
X56326Y-35499D01*
X56326Y-35618D01*
X56350Y-35666D01*
X56373Y-35690D01*
X56421Y-35714D01*
X56564Y-35714D01*
X56611Y-35690D01*
X56635Y-35666D01*
X59348Y-25485D02*
X59752Y-25485D01*
X59800Y-25508D01*
X59824Y-25532D01*
X59848Y-25580D01*
X59848Y-25675D01*
X59824Y-25723D01*
X59800Y-25747D01*
X59752Y-25770D01*
X59348Y-25770D01*
X59395Y-25985D02*
X59371Y-26008D01*
X59348Y-26056D01*
X59348Y-26175D01*
X59371Y-26223D01*
X59395Y-26247D01*
X59443Y-26270D01*
X59490Y-26270D01*
X59562Y-26247D01*
X59848Y-25961D01*
X59848Y-26270D01*
X61020Y-28681D02*
X60782Y-28681D01*
X61067Y-28824D02*
X60901Y-28324D01*
X60734Y-28824D01*
X60567Y-28824D02*
X60567Y-28324D01*
X60448Y-28324D01*
X60377Y-28348D01*
X60329Y-28395D01*
X60305Y-28443D01*
X60282Y-28538D01*
X60282Y-28610D01*
X60305Y-28705D01*
X60329Y-28752D01*
X60377Y-28800D01*
X60448Y-28824D01*
X60567Y-28824D01*
X60067Y-28824D02*
X60067Y-28324D01*
X59877Y-28324D01*
X59829Y-28348D01*
X59805Y-28372D01*
X59782Y-28419D01*
X59782Y-28491D01*
X59805Y-28538D01*
X59829Y-28562D01*
X59877Y-28586D01*
X60067Y-28586D01*
X59615Y-28324D02*
X59305Y-28324D01*
X59472Y-28514D01*
X59401Y-28514D01*
X59353Y-28538D01*
X59329Y-28562D01*
X59305Y-28610D01*
X59305Y-28729D01*
X59329Y-28776D01*
X59353Y-28800D01*
X59401Y-28824D01*
X59544Y-28824D01*
X59591Y-28800D01*
X59615Y-28776D01*
X59139Y-28324D02*
X58829Y-28324D01*
X58996Y-28514D01*
X58925Y-28514D01*
X58877Y-28538D01*
X58853Y-28562D01*
X58829Y-28610D01*
X58829Y-28729D01*
X58853Y-28776D01*
X58877Y-28800D01*
X58925Y-28824D01*
X59067Y-28824D01*
X59115Y-28800D01*
X59139Y-28776D01*
X58663Y-28324D02*
X58353Y-28324D01*
X58520Y-28514D01*
X58448Y-28514D01*
X58401Y-28538D01*
X58377Y-28562D01*
X58353Y-28610D01*
X58353Y-28729D01*
X58377Y-28776D01*
X58401Y-28800D01*
X58448Y-28824D01*
X58591Y-28824D01*
X58639Y-28800D01*
X58663Y-28776D01*
X57925Y-28491D02*
X57925Y-28824D01*
X58044Y-28300D02*
X58163Y-28657D01*
X57853Y-28657D01*
X59348Y-19107D02*
X59752Y-19107D01*
X59800Y-19131D01*
X59824Y-19154D01*
X59848Y-19202D01*
X59848Y-19297D01*
X59824Y-19345D01*
X59800Y-19369D01*
X59752Y-19392D01*
X59348Y-19392D01*
X59514Y-19845D02*
X59848Y-19845D01*
X59324Y-19726D02*
X59681Y-19607D01*
X59681Y-19916D01*
X61020Y-22106D02*
X60782Y-22106D01*
X61067Y-22249D02*
X60901Y-21749D01*
X60734Y-22249D01*
X60567Y-22249D02*
X60567Y-21749D01*
X60448Y-21749D01*
X60377Y-21773D01*
X60329Y-21821D01*
X60305Y-21868D01*
X60282Y-21963D01*
X60282Y-22035D01*
X60305Y-22130D01*
X60329Y-22178D01*
X60377Y-22225D01*
X60448Y-22249D01*
X60567Y-22249D01*
X60067Y-22249D02*
X60067Y-21749D01*
X59877Y-21749D01*
X59829Y-21773D01*
X59805Y-21797D01*
X59782Y-21844D01*
X59782Y-21916D01*
X59805Y-21963D01*
X59829Y-21987D01*
X59877Y-22011D01*
X60067Y-22011D01*
X59615Y-21749D02*
X59305Y-21749D01*
X59472Y-21940D01*
X59401Y-21940D01*
X59353Y-21963D01*
X59329Y-21987D01*
X59305Y-22035D01*
X59305Y-22154D01*
X59329Y-22202D01*
X59353Y-22225D01*
X59401Y-22249D01*
X59544Y-22249D01*
X59591Y-22225D01*
X59615Y-22202D01*
X59139Y-21749D02*
X58829Y-21749D01*
X58996Y-21940D01*
X58925Y-21940D01*
X58877Y-21963D01*
X58853Y-21987D01*
X58829Y-22035D01*
X58829Y-22154D01*
X58853Y-22202D01*
X58877Y-22225D01*
X58925Y-22249D01*
X59067Y-22249D01*
X59115Y-22225D01*
X59139Y-22202D01*
X58663Y-21749D02*
X58353Y-21749D01*
X58520Y-21940D01*
X58448Y-21940D01*
X58401Y-21963D01*
X58377Y-21987D01*
X58353Y-22035D01*
X58353Y-22154D01*
X58377Y-22202D01*
X58401Y-22225D01*
X58448Y-22249D01*
X58591Y-22249D01*
X58639Y-22225D01*
X58663Y-22202D01*
X57925Y-21916D02*
X57925Y-22249D01*
X58044Y-21725D02*
X58163Y-22082D01*
X57853Y-22082D01*
G54D18*
X46568Y-25021D02*
X46577Y-25030D01*
X46605Y-25040D01*
X46624Y-25040D01*
X46652Y-25030D01*
X46671Y-25012D01*
X46680Y-24993D01*
X46690Y-24955D01*
X46690Y-24927D01*
X46680Y-24890D01*
X46671Y-24871D01*
X46652Y-24852D01*
X46624Y-24843D01*
X46605Y-24843D01*
X46577Y-24852D01*
X46568Y-24862D01*
X46502Y-24843D02*
X46380Y-24843D01*
X46446Y-24918D01*
X46418Y-24918D01*
X46399Y-24927D01*
X46390Y-24937D01*
X46380Y-24955D01*
X46380Y-25002D01*
X46390Y-25021D01*
X46399Y-25030D01*
X46418Y-25040D01*
X46474Y-25040D01*
X46493Y-25030D01*
X46502Y-25021D01*
X45355Y-24980D02*
X45355Y-24998D01*
X45364Y-25017D01*
X45373Y-25026D01*
X45392Y-25036D01*
X45430Y-25045D01*
X45477Y-25045D01*
X45514Y-25036D01*
X45533Y-25026D01*
X45542Y-25017D01*
X45552Y-24998D01*
X45552Y-24980D01*
X45542Y-24961D01*
X45533Y-24951D01*
X45514Y-24942D01*
X45477Y-24933D01*
X45430Y-24933D01*
X45392Y-24942D01*
X45373Y-24951D01*
X45364Y-24961D01*
X45355Y-24980D01*
X45533Y-25130D02*
X45542Y-25139D01*
X45552Y-25130D01*
X45542Y-25120D01*
X45533Y-25130D01*
X45552Y-25130D01*
X45552Y-25327D02*
X45552Y-25214D01*
X45552Y-25270D02*
X45355Y-25270D01*
X45383Y-25252D01*
X45402Y-25233D01*
X45411Y-25214D01*
X45420Y-25496D02*
X45552Y-25496D01*
X45420Y-25411D02*
X45524Y-25411D01*
X45542Y-25420D01*
X45552Y-25439D01*
X45552Y-25467D01*
X45542Y-25486D01*
X45533Y-25496D01*
X45420Y-25561D02*
X45420Y-25636D01*
X45552Y-25589D02*
X45383Y-25589D01*
X45364Y-25599D01*
X45355Y-25617D01*
X45355Y-25636D01*
X47934Y-20778D02*
X47944Y-20769D01*
X47953Y-20741D01*
X47953Y-20722D01*
X47944Y-20694D01*
X47925Y-20675D01*
X47906Y-20666D01*
X47869Y-20656D01*
X47841Y-20656D01*
X47803Y-20666D01*
X47784Y-20675D01*
X47766Y-20694D01*
X47756Y-20722D01*
X47756Y-20741D01*
X47766Y-20769D01*
X47775Y-20778D01*
X47953Y-20966D02*
X47953Y-20853D01*
X47953Y-20910D02*
X47756Y-20910D01*
X47784Y-20891D01*
X47803Y-20872D01*
X47813Y-20853D01*
X47841Y-21079D02*
X47831Y-21060D01*
X47822Y-21050D01*
X47803Y-21041D01*
X47794Y-21041D01*
X47775Y-21050D01*
X47766Y-21060D01*
X47756Y-21079D01*
X47756Y-21116D01*
X47766Y-21135D01*
X47775Y-21144D01*
X47794Y-21154D01*
X47803Y-21154D01*
X47822Y-21144D01*
X47831Y-21135D01*
X47841Y-21116D01*
X47841Y-21079D01*
X47850Y-21060D01*
X47859Y-21050D01*
X47878Y-21041D01*
X47916Y-21041D01*
X47934Y-21050D01*
X47944Y-21060D01*
X47953Y-21079D01*
X47953Y-21116D01*
X47944Y-21135D01*
X47934Y-21144D01*
X47916Y-21154D01*
X47878Y-21154D01*
X47859Y-21144D01*
X47850Y-21135D01*
X47841Y-21116D01*
X48583Y-20531D02*
X48583Y-20550D01*
X48592Y-20568D01*
X48602Y-20578D01*
X48621Y-20587D01*
X48658Y-20596D01*
X48705Y-20596D01*
X48743Y-20587D01*
X48761Y-20578D01*
X48771Y-20568D01*
X48780Y-20550D01*
X48780Y-20531D01*
X48771Y-20512D01*
X48761Y-20503D01*
X48743Y-20493D01*
X48705Y-20484D01*
X48658Y-20484D01*
X48621Y-20493D01*
X48602Y-20503D01*
X48592Y-20512D01*
X48583Y-20531D01*
X48761Y-20681D02*
X48771Y-20690D01*
X48780Y-20681D01*
X48771Y-20671D01*
X48761Y-20681D01*
X48780Y-20681D01*
X48780Y-20878D02*
X48780Y-20765D01*
X48780Y-20822D02*
X48583Y-20822D01*
X48611Y-20803D01*
X48630Y-20784D01*
X48639Y-20765D01*
X48649Y-21047D02*
X48780Y-21047D01*
X48649Y-20962D02*
X48752Y-20962D01*
X48771Y-20972D01*
X48780Y-20990D01*
X48780Y-21019D01*
X48771Y-21037D01*
X48761Y-21047D01*
X48649Y-21112D02*
X48649Y-21187D01*
X48780Y-21141D02*
X48611Y-21141D01*
X48592Y-21150D01*
X48583Y-21169D01*
X48583Y-21187D01*
X47934Y-21566D02*
X47944Y-21556D01*
X47953Y-21528D01*
X47953Y-21509D01*
X47944Y-21481D01*
X47925Y-21463D01*
X47906Y-21453D01*
X47869Y-21444D01*
X47841Y-21444D01*
X47803Y-21453D01*
X47784Y-21463D01*
X47766Y-21481D01*
X47756Y-21509D01*
X47756Y-21528D01*
X47766Y-21556D01*
X47775Y-21566D01*
X47953Y-21753D02*
X47953Y-21641D01*
X47953Y-21697D02*
X47756Y-21697D01*
X47784Y-21678D01*
X47803Y-21660D01*
X47813Y-21641D01*
X47756Y-21819D02*
X47756Y-21950D01*
X47953Y-21866D01*
X48956Y-21890D02*
X48938Y-21890D01*
X48919Y-21899D01*
X48910Y-21909D01*
X48900Y-21928D01*
X48891Y-21965D01*
X48891Y-22012D01*
X48900Y-22050D01*
X48910Y-22068D01*
X48919Y-22078D01*
X48938Y-22087D01*
X48956Y-22087D01*
X48975Y-22078D01*
X48985Y-22068D01*
X48994Y-22050D01*
X49003Y-22012D01*
X49003Y-21965D01*
X48994Y-21928D01*
X48985Y-21909D01*
X48975Y-21899D01*
X48956Y-21890D01*
X48806Y-22068D02*
X48797Y-22078D01*
X48806Y-22087D01*
X48816Y-22078D01*
X48806Y-22068D01*
X48806Y-22087D01*
X48609Y-22087D02*
X48722Y-22087D01*
X48666Y-22087D02*
X48666Y-21890D01*
X48684Y-21918D01*
X48703Y-21937D01*
X48722Y-21946D01*
X48440Y-21956D02*
X48440Y-22087D01*
X48525Y-21956D02*
X48525Y-22059D01*
X48516Y-22078D01*
X48497Y-22087D01*
X48469Y-22087D01*
X48450Y-22078D01*
X48440Y-22068D01*
X48375Y-21956D02*
X48300Y-21956D01*
X48347Y-22087D02*
X48347Y-21918D01*
X48337Y-21899D01*
X48319Y-21890D01*
X48300Y-21890D01*
X42749Y-20651D02*
X42758Y-20660D01*
X42786Y-20670D01*
X42805Y-20670D01*
X42833Y-20660D01*
X42852Y-20642D01*
X42861Y-20623D01*
X42871Y-20585D01*
X42871Y-20557D01*
X42861Y-20520D01*
X42852Y-20501D01*
X42833Y-20482D01*
X42805Y-20473D01*
X42786Y-20473D01*
X42758Y-20482D01*
X42749Y-20492D01*
X42571Y-20473D02*
X42664Y-20473D01*
X42674Y-20567D01*
X42664Y-20557D01*
X42646Y-20548D01*
X42599Y-20548D01*
X42580Y-20557D01*
X42571Y-20567D01*
X42561Y-20585D01*
X42561Y-20632D01*
X42571Y-20651D01*
X42580Y-20660D01*
X42599Y-20670D01*
X42646Y-20670D01*
X42664Y-20660D01*
X42674Y-20651D01*
X42303Y-20473D02*
X42284Y-20473D01*
X42265Y-20482D01*
X42256Y-20492D01*
X42247Y-20510D01*
X42237Y-20548D01*
X42237Y-20595D01*
X42247Y-20632D01*
X42256Y-20651D01*
X42265Y-20660D01*
X42284Y-20670D01*
X42303Y-20670D01*
X42322Y-20660D01*
X42331Y-20651D01*
X42340Y-20632D01*
X42350Y-20595D01*
X42350Y-20548D01*
X42340Y-20510D01*
X42331Y-20492D01*
X42322Y-20482D01*
X42303Y-20473D01*
X42153Y-20651D02*
X42143Y-20660D01*
X42153Y-20670D01*
X42162Y-20660D01*
X42153Y-20651D01*
X42153Y-20670D01*
X41956Y-20670D02*
X42068Y-20670D01*
X42012Y-20670D02*
X42012Y-20473D01*
X42031Y-20501D01*
X42050Y-20520D01*
X42068Y-20529D01*
X41787Y-20538D02*
X41787Y-20670D01*
X41871Y-20538D02*
X41871Y-20642D01*
X41862Y-20660D01*
X41843Y-20670D01*
X41815Y-20670D01*
X41796Y-20660D01*
X41787Y-20651D01*
X41721Y-20538D02*
X41646Y-20538D01*
X41693Y-20670D02*
X41693Y-20501D01*
X41684Y-20482D01*
X41665Y-20473D01*
X41646Y-20473D01*
X48615Y-23249D02*
X48624Y-23259D01*
X48653Y-23268D01*
X48671Y-23268D01*
X48699Y-23259D01*
X48718Y-23240D01*
X48728Y-23221D01*
X48737Y-23184D01*
X48737Y-23156D01*
X48728Y-23118D01*
X48718Y-23099D01*
X48699Y-23081D01*
X48671Y-23071D01*
X48653Y-23071D01*
X48624Y-23081D01*
X48615Y-23090D01*
X48446Y-23137D02*
X48446Y-23268D01*
X48493Y-23062D02*
X48540Y-23203D01*
X48418Y-23203D01*
X48917Y-24095D02*
X48898Y-24095D01*
X48880Y-24104D01*
X48870Y-24114D01*
X48861Y-24132D01*
X48851Y-24170D01*
X48851Y-24217D01*
X48861Y-24254D01*
X48870Y-24273D01*
X48880Y-24282D01*
X48898Y-24292D01*
X48917Y-24292D01*
X48936Y-24282D01*
X48945Y-24273D01*
X48955Y-24254D01*
X48964Y-24217D01*
X48964Y-24170D01*
X48955Y-24132D01*
X48945Y-24114D01*
X48936Y-24104D01*
X48917Y-24095D01*
X48767Y-24273D02*
X48758Y-24282D01*
X48767Y-24292D01*
X48776Y-24282D01*
X48767Y-24273D01*
X48767Y-24292D01*
X48570Y-24292D02*
X48683Y-24292D01*
X48626Y-24292D02*
X48626Y-24095D01*
X48645Y-24123D01*
X48664Y-24142D01*
X48683Y-24151D01*
X48401Y-24161D02*
X48401Y-24292D01*
X48486Y-24161D02*
X48486Y-24264D01*
X48476Y-24282D01*
X48457Y-24292D01*
X48429Y-24292D01*
X48410Y-24282D01*
X48401Y-24273D01*
X48335Y-24161D02*
X48260Y-24161D01*
X48307Y-24292D02*
X48307Y-24123D01*
X48298Y-24104D01*
X48279Y-24095D01*
X48260Y-24095D01*
X43032Y-25499D02*
X43041Y-25489D01*
X43051Y-25461D01*
X43051Y-25443D01*
X43041Y-25414D01*
X43023Y-25396D01*
X43004Y-25386D01*
X42966Y-25377D01*
X42938Y-25377D01*
X42901Y-25386D01*
X42882Y-25396D01*
X42863Y-25414D01*
X42854Y-25443D01*
X42854Y-25461D01*
X42863Y-25489D01*
X42872Y-25499D01*
X42872Y-25574D02*
X42863Y-25583D01*
X42854Y-25602D01*
X42854Y-25649D01*
X42863Y-25668D01*
X42872Y-25677D01*
X42891Y-25686D01*
X42910Y-25686D01*
X42938Y-25677D01*
X43051Y-25565D01*
X43051Y-25686D01*
X42854Y-25865D02*
X42854Y-25771D01*
X42948Y-25762D01*
X42938Y-25771D01*
X42929Y-25790D01*
X42929Y-25837D01*
X42938Y-25855D01*
X42948Y-25865D01*
X42966Y-25874D01*
X43013Y-25874D01*
X43032Y-25865D01*
X43041Y-25855D01*
X43051Y-25837D01*
X43051Y-25790D01*
X43041Y-25771D01*
X43032Y-25762D01*
X42579Y-25330D02*
X42579Y-25349D01*
X42588Y-25368D01*
X42597Y-25377D01*
X42616Y-25386D01*
X42654Y-25396D01*
X42701Y-25396D01*
X42738Y-25386D01*
X42757Y-25377D01*
X42766Y-25368D01*
X42776Y-25349D01*
X42776Y-25330D01*
X42766Y-25311D01*
X42757Y-25302D01*
X42738Y-25292D01*
X42701Y-25283D01*
X42654Y-25283D01*
X42616Y-25292D01*
X42597Y-25302D01*
X42588Y-25311D01*
X42579Y-25330D01*
X42757Y-25480D02*
X42766Y-25489D01*
X42776Y-25480D01*
X42766Y-25471D01*
X42757Y-25480D01*
X42776Y-25480D01*
X42776Y-25677D02*
X42776Y-25565D01*
X42776Y-25621D02*
X42579Y-25621D01*
X42607Y-25602D01*
X42626Y-25583D01*
X42635Y-25565D01*
X42644Y-25846D02*
X42776Y-25846D01*
X42644Y-25762D02*
X42748Y-25762D01*
X42766Y-25771D01*
X42776Y-25790D01*
X42776Y-25818D01*
X42766Y-25837D01*
X42757Y-25846D01*
X42644Y-25912D02*
X42644Y-25987D01*
X42776Y-25940D02*
X42607Y-25940D01*
X42588Y-25949D01*
X42579Y-25968D01*
X42579Y-25987D01*
X47934Y-19912D02*
X47944Y-19903D01*
X47953Y-19875D01*
X47953Y-19856D01*
X47944Y-19828D01*
X47925Y-19809D01*
X47906Y-19800D01*
X47869Y-19790D01*
X47841Y-19790D01*
X47803Y-19800D01*
X47784Y-19809D01*
X47766Y-19828D01*
X47756Y-19856D01*
X47756Y-19875D01*
X47766Y-19903D01*
X47775Y-19912D01*
X47953Y-20100D02*
X47953Y-19987D01*
X47953Y-20044D02*
X47756Y-20044D01*
X47784Y-20025D01*
X47803Y-20006D01*
X47813Y-19987D01*
X47953Y-20194D02*
X47953Y-20231D01*
X47944Y-20250D01*
X47934Y-20259D01*
X47906Y-20278D01*
X47869Y-20287D01*
X47794Y-20287D01*
X47775Y-20278D01*
X47766Y-20269D01*
X47756Y-20250D01*
X47756Y-20212D01*
X47766Y-20194D01*
X47775Y-20184D01*
X47794Y-20175D01*
X47841Y-20175D01*
X47859Y-20184D01*
X47869Y-20194D01*
X47878Y-20212D01*
X47878Y-20250D01*
X47869Y-20269D01*
X47859Y-20278D01*
X47841Y-20287D01*
X48583Y-19743D02*
X48583Y-19762D01*
X48592Y-19781D01*
X48602Y-19790D01*
X48621Y-19800D01*
X48658Y-19809D01*
X48705Y-19809D01*
X48743Y-19800D01*
X48761Y-19790D01*
X48771Y-19781D01*
X48780Y-19762D01*
X48780Y-19743D01*
X48771Y-19725D01*
X48761Y-19715D01*
X48743Y-19706D01*
X48705Y-19696D01*
X48658Y-19696D01*
X48621Y-19706D01*
X48602Y-19715D01*
X48592Y-19725D01*
X48583Y-19743D01*
X48761Y-19893D02*
X48771Y-19903D01*
X48780Y-19893D01*
X48771Y-19884D01*
X48761Y-19893D01*
X48780Y-19893D01*
X48780Y-20090D02*
X48780Y-19978D01*
X48780Y-20034D02*
X48583Y-20034D01*
X48611Y-20015D01*
X48630Y-19997D01*
X48639Y-19978D01*
X48649Y-20259D02*
X48780Y-20259D01*
X48649Y-20175D02*
X48752Y-20175D01*
X48771Y-20184D01*
X48780Y-20203D01*
X48780Y-20231D01*
X48771Y-20250D01*
X48761Y-20259D01*
X48649Y-20325D02*
X48649Y-20400D01*
X48780Y-20353D02*
X48611Y-20353D01*
X48592Y-20363D01*
X48583Y-20381D01*
X48583Y-20400D01*
X47370Y-18407D02*
X47380Y-18416D01*
X47408Y-18426D01*
X47427Y-18426D01*
X47455Y-18416D01*
X47473Y-18398D01*
X47483Y-18379D01*
X47492Y-18341D01*
X47492Y-18313D01*
X47483Y-18276D01*
X47473Y-18257D01*
X47455Y-18238D01*
X47427Y-18229D01*
X47408Y-18229D01*
X47380Y-18238D01*
X47370Y-18247D01*
X47295Y-18247D02*
X47286Y-18238D01*
X47267Y-18229D01*
X47220Y-18229D01*
X47201Y-18238D01*
X47192Y-18247D01*
X47183Y-18266D01*
X47183Y-18285D01*
X47192Y-18313D01*
X47305Y-18426D01*
X47183Y-18426D01*
X46995Y-18426D02*
X47108Y-18426D01*
X47051Y-18426D02*
X47051Y-18229D01*
X47070Y-18257D01*
X47089Y-18276D01*
X47108Y-18285D01*
X47342Y-19803D02*
X47323Y-19803D01*
X47305Y-19813D01*
X47295Y-19822D01*
X47286Y-19841D01*
X47277Y-19879D01*
X47277Y-19925D01*
X47286Y-19963D01*
X47295Y-19982D01*
X47305Y-19991D01*
X47323Y-20000D01*
X47342Y-20000D01*
X47361Y-19991D01*
X47370Y-19982D01*
X47380Y-19963D01*
X47389Y-19925D01*
X47389Y-19879D01*
X47380Y-19841D01*
X47370Y-19822D01*
X47361Y-19813D01*
X47342Y-19803D01*
X47192Y-19982D02*
X47183Y-19991D01*
X47192Y-20000D01*
X47202Y-19991D01*
X47192Y-19982D01*
X47192Y-20000D01*
X46995Y-20000D02*
X47108Y-20000D01*
X47051Y-20000D02*
X47051Y-19803D01*
X47070Y-19832D01*
X47089Y-19850D01*
X47108Y-19860D01*
X46826Y-19869D02*
X46826Y-20000D01*
X46911Y-19869D02*
X46911Y-19972D01*
X46901Y-19991D01*
X46883Y-20000D01*
X46854Y-20000D01*
X46836Y-19991D01*
X46826Y-19982D01*
X46761Y-19869D02*
X46686Y-19869D01*
X46732Y-20000D02*
X46732Y-19832D01*
X46723Y-19813D01*
X46704Y-19803D01*
X46686Y-19803D01*
X45795Y-18722D02*
X45805Y-18731D01*
X45833Y-18741D01*
X45852Y-18741D01*
X45880Y-18731D01*
X45899Y-18713D01*
X45908Y-18694D01*
X45917Y-18656D01*
X45917Y-18628D01*
X45908Y-18591D01*
X45899Y-18572D01*
X45880Y-18553D01*
X45852Y-18544D01*
X45833Y-18544D01*
X45805Y-18553D01*
X45795Y-18562D01*
X45720Y-18562D02*
X45711Y-18553D01*
X45692Y-18544D01*
X45645Y-18544D01*
X45627Y-18553D01*
X45617Y-18562D01*
X45608Y-18581D01*
X45608Y-18600D01*
X45617Y-18628D01*
X45730Y-18741D01*
X45608Y-18741D01*
X45533Y-18562D02*
X45523Y-18553D01*
X45505Y-18544D01*
X45458Y-18544D01*
X45439Y-18553D01*
X45430Y-18562D01*
X45420Y-18581D01*
X45420Y-18600D01*
X45430Y-18628D01*
X45542Y-18741D01*
X45420Y-18741D01*
X46161Y-20158D02*
X46142Y-20158D01*
X46124Y-20167D01*
X46114Y-20177D01*
X46105Y-20195D01*
X46095Y-20233D01*
X46095Y-20280D01*
X46105Y-20317D01*
X46114Y-20336D01*
X46124Y-20345D01*
X46142Y-20355D01*
X46161Y-20355D01*
X46180Y-20345D01*
X46189Y-20336D01*
X46199Y-20317D01*
X46208Y-20280D01*
X46208Y-20233D01*
X46199Y-20195D01*
X46189Y-20177D01*
X46180Y-20167D01*
X46161Y-20158D01*
X46011Y-20336D02*
X46002Y-20345D01*
X46011Y-20355D01*
X46020Y-20345D01*
X46011Y-20336D01*
X46011Y-20355D01*
X45814Y-20355D02*
X45927Y-20355D01*
X45870Y-20355D02*
X45870Y-20158D01*
X45889Y-20186D01*
X45908Y-20205D01*
X45927Y-20214D01*
X45645Y-20223D02*
X45645Y-20355D01*
X45730Y-20223D02*
X45730Y-20327D01*
X45720Y-20345D01*
X45701Y-20355D01*
X45673Y-20355D01*
X45655Y-20345D01*
X45645Y-20336D01*
X45580Y-20223D02*
X45504Y-20223D01*
X45551Y-20355D02*
X45551Y-20186D01*
X45542Y-20167D01*
X45523Y-20158D01*
X45504Y-20158D01*
X45008Y-18722D02*
X45017Y-18731D01*
X45046Y-18741D01*
X45064Y-18741D01*
X45092Y-18731D01*
X45111Y-18713D01*
X45121Y-18694D01*
X45130Y-18656D01*
X45130Y-18628D01*
X45121Y-18591D01*
X45111Y-18572D01*
X45092Y-18553D01*
X45064Y-18544D01*
X45046Y-18544D01*
X45017Y-18553D01*
X45008Y-18562D01*
X44933Y-18562D02*
X44924Y-18553D01*
X44905Y-18544D01*
X44858Y-18544D01*
X44839Y-18553D01*
X44830Y-18562D01*
X44820Y-18581D01*
X44820Y-18600D01*
X44830Y-18628D01*
X44942Y-18741D01*
X44820Y-18741D01*
X44755Y-18544D02*
X44633Y-18544D01*
X44698Y-18619D01*
X44670Y-18619D01*
X44652Y-18628D01*
X44642Y-18637D01*
X44633Y-18656D01*
X44633Y-18703D01*
X44642Y-18722D01*
X44652Y-18731D01*
X44670Y-18741D01*
X44727Y-18741D01*
X44745Y-18731D01*
X44755Y-18722D01*
X45177Y-20158D02*
X45158Y-20158D01*
X45139Y-20167D01*
X45130Y-20177D01*
X45121Y-20195D01*
X45111Y-20233D01*
X45111Y-20280D01*
X45121Y-20317D01*
X45130Y-20336D01*
X45139Y-20345D01*
X45158Y-20355D01*
X45177Y-20355D01*
X45196Y-20345D01*
X45205Y-20336D01*
X45214Y-20317D01*
X45224Y-20280D01*
X45224Y-20233D01*
X45214Y-20195D01*
X45205Y-20177D01*
X45196Y-20167D01*
X45177Y-20158D01*
X45027Y-20336D02*
X45017Y-20345D01*
X45027Y-20355D01*
X45036Y-20345D01*
X45027Y-20336D01*
X45027Y-20355D01*
X44830Y-20355D02*
X44942Y-20355D01*
X44886Y-20355D02*
X44886Y-20158D01*
X44905Y-20186D01*
X44924Y-20205D01*
X44942Y-20214D01*
X44661Y-20223D02*
X44661Y-20355D01*
X44745Y-20223D02*
X44745Y-20327D01*
X44736Y-20345D01*
X44717Y-20355D01*
X44689Y-20355D01*
X44670Y-20345D01*
X44661Y-20336D01*
X44595Y-20223D02*
X44520Y-20223D01*
X44567Y-20355D02*
X44567Y-20186D01*
X44558Y-20167D01*
X44539Y-20158D01*
X44520Y-20158D01*
X48984Y-18407D02*
X48994Y-18416D01*
X49022Y-18426D01*
X49041Y-18426D01*
X49069Y-18416D01*
X49088Y-18398D01*
X49097Y-18379D01*
X49106Y-18341D01*
X49106Y-18313D01*
X49097Y-18276D01*
X49088Y-18257D01*
X49069Y-18238D01*
X49041Y-18229D01*
X49022Y-18229D01*
X48994Y-18238D01*
X48984Y-18247D01*
X48909Y-18247D02*
X48900Y-18238D01*
X48881Y-18229D01*
X48834Y-18229D01*
X48816Y-18238D01*
X48806Y-18247D01*
X48797Y-18266D01*
X48797Y-18285D01*
X48806Y-18313D01*
X48919Y-18426D01*
X48797Y-18426D01*
X48628Y-18294D02*
X48628Y-18426D01*
X48675Y-18219D02*
X48722Y-18360D01*
X48600Y-18360D01*
X49153Y-18583D02*
X49135Y-18583D01*
X49116Y-18592D01*
X49106Y-18602D01*
X49097Y-18621D01*
X49088Y-18658D01*
X49088Y-18705D01*
X49097Y-18743D01*
X49106Y-18761D01*
X49116Y-18771D01*
X49135Y-18780D01*
X49153Y-18780D01*
X49172Y-18771D01*
X49181Y-18761D01*
X49191Y-18743D01*
X49200Y-18705D01*
X49200Y-18658D01*
X49191Y-18621D01*
X49181Y-18602D01*
X49172Y-18592D01*
X49153Y-18583D01*
X49003Y-18761D02*
X48994Y-18771D01*
X49003Y-18780D01*
X49013Y-18771D01*
X49003Y-18761D01*
X49003Y-18780D01*
X48806Y-18780D02*
X48919Y-18780D01*
X48862Y-18780D02*
X48862Y-18583D01*
X48881Y-18611D01*
X48900Y-18630D01*
X48919Y-18639D01*
X48637Y-18649D02*
X48637Y-18780D01*
X48722Y-18649D02*
X48722Y-18752D01*
X48712Y-18771D01*
X48694Y-18780D01*
X48665Y-18780D01*
X48647Y-18771D01*
X48637Y-18761D01*
X48572Y-18649D02*
X48497Y-18649D01*
X48544Y-18780D02*
X48544Y-18611D01*
X48534Y-18592D01*
X48515Y-18583D01*
X48497Y-18583D01*
X43024Y-23958D02*
X43034Y-23967D01*
X43062Y-23977D01*
X43081Y-23977D01*
X43109Y-23967D01*
X43128Y-23949D01*
X43137Y-23930D01*
X43146Y-23892D01*
X43146Y-23864D01*
X43137Y-23827D01*
X43128Y-23808D01*
X43109Y-23789D01*
X43081Y-23780D01*
X43062Y-23780D01*
X43034Y-23789D01*
X43024Y-23799D01*
X42949Y-23799D02*
X42940Y-23789D01*
X42921Y-23780D01*
X42874Y-23780D01*
X42856Y-23789D01*
X42846Y-23799D01*
X42837Y-23817D01*
X42837Y-23836D01*
X42846Y-23864D01*
X42959Y-23977D01*
X42837Y-23977D01*
X41733Y-24074D02*
X41733Y-24093D01*
X41742Y-24112D01*
X41751Y-24121D01*
X41770Y-24130D01*
X41808Y-24140D01*
X41855Y-24140D01*
X41892Y-24130D01*
X41911Y-24121D01*
X41920Y-24112D01*
X41930Y-24093D01*
X41930Y-24074D01*
X41920Y-24055D01*
X41911Y-24046D01*
X41892Y-24037D01*
X41855Y-24027D01*
X41808Y-24027D01*
X41770Y-24037D01*
X41751Y-24046D01*
X41742Y-24055D01*
X41733Y-24074D01*
X41911Y-24224D02*
X41920Y-24234D01*
X41930Y-24224D01*
X41920Y-24215D01*
X41911Y-24224D01*
X41930Y-24224D01*
X41930Y-24421D02*
X41930Y-24309D01*
X41930Y-24365D02*
X41733Y-24365D01*
X41761Y-24346D01*
X41780Y-24327D01*
X41789Y-24309D01*
X41798Y-24590D02*
X41930Y-24590D01*
X41798Y-24506D02*
X41901Y-24506D01*
X41920Y-24515D01*
X41930Y-24534D01*
X41930Y-24562D01*
X41920Y-24581D01*
X41911Y-24590D01*
X41798Y-24656D02*
X41798Y-24731D01*
X41930Y-24684D02*
X41761Y-24684D01*
X41742Y-24693D01*
X41733Y-24712D01*
X41733Y-24731D01*
G54D19*
X57255Y-14966D02*
X57274Y-14985D01*
X57331Y-15004D01*
X57369Y-15004D01*
X57426Y-14985D01*
X57465Y-14947D01*
X57484Y-14909D01*
X57503Y-14832D01*
X57503Y-14775D01*
X57484Y-14699D01*
X57465Y-14661D01*
X57426Y-14623D01*
X57369Y-14604D01*
X57331Y-14604D01*
X57274Y-14623D01*
X57255Y-14642D01*
X57084Y-14737D02*
X57084Y-15137D01*
X57084Y-14756D02*
X57045Y-14737D01*
X56969Y-14737D01*
X56931Y-14756D01*
X56912Y-14775D01*
X56893Y-14813D01*
X56893Y-14928D01*
X56912Y-14966D01*
X56931Y-14985D01*
X56969Y-15004D01*
X57045Y-15004D01*
X57084Y-14985D01*
X56550Y-14604D02*
X56626Y-14604D01*
X56665Y-14623D01*
X56684Y-14642D01*
X56722Y-14699D01*
X56741Y-14775D01*
X56741Y-14928D01*
X56722Y-14966D01*
X56703Y-14985D01*
X56665Y-15004D01*
X56588Y-15004D01*
X56550Y-14985D01*
X56531Y-14966D01*
X56512Y-14928D01*
X56512Y-14832D01*
X56531Y-14794D01*
X56550Y-14775D01*
X56588Y-14756D01*
X56665Y-14756D01*
X56703Y-14775D01*
X56722Y-14794D01*
X56741Y-14832D01*
X55403Y-14642D02*
X55384Y-14623D01*
X55346Y-14604D01*
X55250Y-14604D01*
X55212Y-14623D01*
X55193Y-14642D01*
X55174Y-14680D01*
X55174Y-14718D01*
X55193Y-14775D01*
X55422Y-15004D01*
X55174Y-15004D01*
X55022Y-14642D02*
X55003Y-14623D01*
X54965Y-14604D01*
X54869Y-14604D01*
X54831Y-14623D01*
X54812Y-14642D01*
X54793Y-14680D01*
X54793Y-14718D01*
X54812Y-14775D01*
X55041Y-15004D01*
X54793Y-15004D01*
X54450Y-14737D02*
X54450Y-15004D01*
X54622Y-14737D02*
X54622Y-14947D01*
X54603Y-14985D01*
X54565Y-15004D01*
X54507Y-15004D01*
X54469Y-14985D01*
X54450Y-14966D01*
X54317Y-14737D02*
X54165Y-14737D01*
X54260Y-15004D02*
X54260Y-14661D01*
X54241Y-14623D01*
X54203Y-14604D01*
X54165Y-14604D01*
X55050Y-21423D02*
X55069Y-21442D01*
X55126Y-21461D01*
X55165Y-21461D01*
X55222Y-21442D01*
X55260Y-21403D01*
X55279Y-21365D01*
X55298Y-21289D01*
X55298Y-21232D01*
X55279Y-21156D01*
X55260Y-21118D01*
X55222Y-21080D01*
X55165Y-21061D01*
X55126Y-21061D01*
X55069Y-21080D01*
X55050Y-21099D01*
X54879Y-21194D02*
X54879Y-21594D01*
X54879Y-21213D02*
X54841Y-21194D01*
X54765Y-21194D01*
X54726Y-21213D01*
X54707Y-21232D01*
X54688Y-21270D01*
X54688Y-21384D01*
X54707Y-21423D01*
X54726Y-21442D01*
X54765Y-21461D01*
X54841Y-21461D01*
X54879Y-21442D01*
X54555Y-21061D02*
X54307Y-21061D01*
X54441Y-21213D01*
X54384Y-21213D01*
X54346Y-21232D01*
X54326Y-21251D01*
X54307Y-21289D01*
X54307Y-21384D01*
X54326Y-21423D01*
X54346Y-21442D01*
X54384Y-21461D01*
X54498Y-21461D01*
X54536Y-21442D01*
X54555Y-21423D01*
X53697Y-21919D02*
X53678Y-21938D01*
X53659Y-21976D01*
X53659Y-22072D01*
X53678Y-22110D01*
X53697Y-22129D01*
X53735Y-22148D01*
X53773Y-22148D01*
X53830Y-22129D01*
X54059Y-21900D01*
X54059Y-22148D01*
X53697Y-22300D02*
X53678Y-22319D01*
X53659Y-22357D01*
X53659Y-22453D01*
X53678Y-22491D01*
X53697Y-22510D01*
X53735Y-22529D01*
X53773Y-22529D01*
X53830Y-22510D01*
X54059Y-22281D01*
X54059Y-22529D01*
X53792Y-22872D02*
X54059Y-22872D01*
X53792Y-22700D02*
X54002Y-22700D01*
X54040Y-22719D01*
X54059Y-22757D01*
X54059Y-22814D01*
X54040Y-22853D01*
X54021Y-22872D01*
X53792Y-23005D02*
X53792Y-23157D01*
X54059Y-23062D02*
X53716Y-23062D01*
X53678Y-23081D01*
X53659Y-23119D01*
X53659Y-23157D01*
X63672Y-24887D02*
X63691Y-24906D01*
X63749Y-24925D01*
X63787Y-24925D01*
X63844Y-24906D01*
X63882Y-24868D01*
X63901Y-24830D01*
X63920Y-24754D01*
X63920Y-24697D01*
X63901Y-24620D01*
X63882Y-24582D01*
X63844Y-24544D01*
X63787Y-24525D01*
X63749Y-24525D01*
X63691Y-24544D01*
X63672Y-24563D01*
X63501Y-24659D02*
X63501Y-25059D01*
X63501Y-24678D02*
X63463Y-24659D01*
X63387Y-24659D01*
X63349Y-24678D01*
X63329Y-24697D01*
X63310Y-24735D01*
X63310Y-24849D01*
X63329Y-24887D01*
X63349Y-24906D01*
X63387Y-24925D01*
X63463Y-24925D01*
X63501Y-24906D01*
X63158Y-24563D02*
X63139Y-24544D01*
X63101Y-24525D01*
X63006Y-24525D01*
X62968Y-24544D01*
X62949Y-24563D01*
X62929Y-24601D01*
X62929Y-24639D01*
X62949Y-24697D01*
X63177Y-24925D01*
X62929Y-24925D01*
X64103Y-28422D02*
X64084Y-28402D01*
X64046Y-28383D01*
X63951Y-28383D01*
X63913Y-28402D01*
X63894Y-28422D01*
X63875Y-28460D01*
X63875Y-28498D01*
X63894Y-28555D01*
X64122Y-28783D01*
X63875Y-28783D01*
X63722Y-28422D02*
X63703Y-28402D01*
X63665Y-28383D01*
X63570Y-28383D01*
X63532Y-28402D01*
X63513Y-28422D01*
X63494Y-28460D01*
X63494Y-28498D01*
X63513Y-28555D01*
X63742Y-28783D01*
X63494Y-28783D01*
X63151Y-28517D02*
X63151Y-28783D01*
X63322Y-28517D02*
X63322Y-28726D01*
X63303Y-28764D01*
X63265Y-28783D01*
X63208Y-28783D01*
X63170Y-28764D01*
X63151Y-28745D01*
X63018Y-28517D02*
X62865Y-28517D01*
X62961Y-28783D02*
X62961Y-28441D01*
X62942Y-28402D01*
X62903Y-28383D01*
X62865Y-28383D01*
X57255Y-33115D02*
X57274Y-33134D01*
X57331Y-33154D01*
X57369Y-33154D01*
X57426Y-33134D01*
X57465Y-33096D01*
X57484Y-33058D01*
X57503Y-32982D01*
X57503Y-32925D01*
X57484Y-32849D01*
X57465Y-32811D01*
X57426Y-32773D01*
X57369Y-32754D01*
X57331Y-32754D01*
X57274Y-32773D01*
X57255Y-32792D01*
X57084Y-32887D02*
X57084Y-33287D01*
X57084Y-32906D02*
X57045Y-32887D01*
X56969Y-32887D01*
X56931Y-32906D01*
X56912Y-32925D01*
X56893Y-32963D01*
X56893Y-33077D01*
X56912Y-33115D01*
X56931Y-33134D01*
X56969Y-33154D01*
X57045Y-33154D01*
X57084Y-33134D01*
X56531Y-32754D02*
X56722Y-32754D01*
X56741Y-32944D01*
X56722Y-32925D01*
X56684Y-32906D01*
X56588Y-32906D01*
X56550Y-32925D01*
X56531Y-32944D01*
X56512Y-32982D01*
X56512Y-33077D01*
X56531Y-33115D01*
X56550Y-33134D01*
X56588Y-33154D01*
X56684Y-33154D01*
X56722Y-33134D01*
X56741Y-33115D01*
X55088Y-32752D02*
X55069Y-32733D01*
X55031Y-32714D01*
X54935Y-32714D01*
X54897Y-32733D01*
X54878Y-32752D01*
X54859Y-32790D01*
X54859Y-32828D01*
X54878Y-32886D01*
X55107Y-33114D01*
X54859Y-33114D01*
X54707Y-32752D02*
X54688Y-32733D01*
X54650Y-32714D01*
X54554Y-32714D01*
X54516Y-32733D01*
X54497Y-32752D01*
X54478Y-32790D01*
X54478Y-32828D01*
X54497Y-32886D01*
X54726Y-33114D01*
X54478Y-33114D01*
X54135Y-32847D02*
X54135Y-33114D01*
X54307Y-32847D02*
X54307Y-33057D01*
X54288Y-33095D01*
X54250Y-33114D01*
X54192Y-33114D01*
X54154Y-33095D01*
X54135Y-33076D01*
X54002Y-32847D02*
X53850Y-32847D01*
X53945Y-33114D02*
X53945Y-32771D01*
X53926Y-32733D01*
X53888Y-32714D01*
X53850Y-32714D01*
X64223Y-35241D02*
X64243Y-35260D01*
X64300Y-35280D01*
X64338Y-35280D01*
X64395Y-35260D01*
X64433Y-35222D01*
X64452Y-35184D01*
X64471Y-35108D01*
X64471Y-35051D01*
X64452Y-34975D01*
X64433Y-34937D01*
X64395Y-34899D01*
X64338Y-34880D01*
X64300Y-34880D01*
X64243Y-34899D01*
X64223Y-34918D01*
X64052Y-35013D02*
X64052Y-35413D01*
X64052Y-35032D02*
X64014Y-35013D01*
X63938Y-35013D01*
X63900Y-35032D01*
X63881Y-35051D01*
X63862Y-35089D01*
X63862Y-35203D01*
X63881Y-35241D01*
X63900Y-35260D01*
X63938Y-35280D01*
X64014Y-35280D01*
X64052Y-35260D01*
X63481Y-35280D02*
X63709Y-35280D01*
X63595Y-35280D02*
X63595Y-34880D01*
X63633Y-34937D01*
X63671Y-34975D01*
X63709Y-34994D01*
X63874Y-31509D02*
X63874Y-31776D01*
X63969Y-31357D02*
X64064Y-31642D01*
X63816Y-31642D01*
X63702Y-31376D02*
X63435Y-31376D01*
X63607Y-31776D01*
X63112Y-31509D02*
X63112Y-31776D01*
X63283Y-31509D02*
X63283Y-31718D01*
X63264Y-31757D01*
X63226Y-31776D01*
X63169Y-31776D01*
X63131Y-31757D01*
X63112Y-31737D01*
X62978Y-31509D02*
X62826Y-31509D01*
X62921Y-31776D02*
X62921Y-31433D01*
X62902Y-31395D01*
X62864Y-31376D01*
X62826Y-31376D01*
X63082Y-18982D02*
X63101Y-19001D01*
X63158Y-19020D01*
X63196Y-19020D01*
X63253Y-19001D01*
X63291Y-18963D01*
X63310Y-18924D01*
X63329Y-18848D01*
X63329Y-18791D01*
X63310Y-18715D01*
X63291Y-18677D01*
X63253Y-18639D01*
X63196Y-18620D01*
X63158Y-18620D01*
X63101Y-18639D01*
X63082Y-18658D01*
X62910Y-18753D02*
X62910Y-19153D01*
X62910Y-18772D02*
X62872Y-18753D01*
X62796Y-18753D01*
X62758Y-18772D01*
X62739Y-18791D01*
X62720Y-18829D01*
X62720Y-18943D01*
X62739Y-18982D01*
X62758Y-19001D01*
X62796Y-19020D01*
X62872Y-19020D01*
X62910Y-19001D01*
X62377Y-18753D02*
X62377Y-19020D01*
X62472Y-18601D02*
X62567Y-18886D01*
X62320Y-18886D01*
X63457Y-21627D02*
X63457Y-21894D01*
X63552Y-21475D02*
X63647Y-21760D01*
X63400Y-21760D01*
X63247Y-21856D02*
X63228Y-21875D01*
X63247Y-21894D01*
X63267Y-21875D01*
X63247Y-21856D01*
X63247Y-21894D01*
X63095Y-21494D02*
X62828Y-21494D01*
X63000Y-21894D01*
X62505Y-21627D02*
X62505Y-21894D01*
X62676Y-21627D02*
X62676Y-21837D01*
X62657Y-21875D01*
X62619Y-21894D01*
X62562Y-21894D01*
X62524Y-21875D01*
X62505Y-21856D01*
X62371Y-21627D02*
X62219Y-21627D01*
X62314Y-21894D02*
X62314Y-21551D01*
X62295Y-21513D01*
X62257Y-21494D01*
X62219Y-21494D01*
M02*
