G04 (created by PCBNEW (2013-07-07 BZR 4022)-stable) date 29/07/2014 10:25:07 AM*
%MOIN*%
G04 Gerber Fmt 3.4, Leading zero omitted, Abs format*
%FSLAX34Y34*%
G01*
G70*
G90*
G04 APERTURE LIST*
%ADD10C,0.00590551*%
%ADD11C,0.011811*%
%ADD12C,0.00787402*%
%ADD13C,0.0039*%
%ADD14C,0.0026*%
%ADD15C,0.008*%
%ADD16C,0.004*%
%ADD17C,0.002*%
%ADD18C,0.006*%
%ADD19C,0.0035*%
G04 APERTURE END LIST*
G54D10*
G54D11*
X59610Y-42432D02*
X59635Y-42404D01*
X59681Y-42320D01*
X59702Y-42263D01*
X59719Y-42179D01*
X59730Y-42038D01*
X59716Y-41926D01*
X59670Y-41785D01*
X59631Y-41701D01*
X59596Y-41645D01*
X59530Y-41560D01*
X59498Y-41532D01*
X59013Y-42151D02*
X59044Y-42179D01*
X59132Y-42207D01*
X59189Y-42207D01*
X59269Y-42179D01*
X59319Y-42123D01*
X59340Y-42066D01*
X59354Y-41954D01*
X59343Y-41870D01*
X59301Y-41757D01*
X59266Y-41701D01*
X59203Y-41645D01*
X59115Y-41616D01*
X59058Y-41616D01*
X58978Y-41645D01*
X58953Y-41673D01*
X58851Y-42432D02*
X58819Y-42404D01*
X58753Y-42320D01*
X58718Y-42263D01*
X58679Y-42179D01*
X58633Y-42038D01*
X58619Y-41926D01*
X58630Y-41785D01*
X58647Y-41701D01*
X58668Y-41645D01*
X58714Y-41560D01*
X58739Y-41532D01*
X57586Y-42207D02*
X57747Y-41926D01*
X57923Y-42207D02*
X57849Y-41616D01*
X57624Y-41616D01*
X57572Y-41645D01*
X57547Y-41673D01*
X57526Y-41729D01*
X57536Y-41813D01*
X57572Y-41870D01*
X57603Y-41898D01*
X57663Y-41926D01*
X57888Y-41926D01*
X57248Y-42207D02*
X57301Y-42179D01*
X57325Y-42151D01*
X57347Y-42095D01*
X57325Y-41926D01*
X57290Y-41870D01*
X57259Y-41841D01*
X57199Y-41813D01*
X57115Y-41813D01*
X57062Y-41841D01*
X57037Y-41870D01*
X57016Y-41926D01*
X57037Y-42095D01*
X57072Y-42151D01*
X57104Y-42179D01*
X57164Y-42207D01*
X57248Y-42207D01*
X56798Y-42207D02*
X56724Y-41616D01*
X56545Y-42207D02*
X56506Y-41898D01*
X56528Y-41841D01*
X56580Y-41813D01*
X56665Y-41813D01*
X56724Y-41841D01*
X56756Y-41870D01*
X56264Y-42207D02*
X56215Y-41813D01*
X56190Y-41616D02*
X56222Y-41645D01*
X56197Y-41673D01*
X56165Y-41645D01*
X56190Y-41616D01*
X56197Y-41673D01*
X56018Y-41813D02*
X55793Y-41813D01*
X55909Y-41616D02*
X55972Y-42123D01*
X55951Y-42179D01*
X55898Y-42207D01*
X55842Y-42207D01*
X55167Y-41982D02*
X54717Y-41982D01*
X53670Y-42151D02*
X53701Y-42179D01*
X53789Y-42207D01*
X53845Y-42207D01*
X53926Y-42179D01*
X53976Y-42123D01*
X53997Y-42066D01*
X54011Y-41954D01*
X54000Y-41870D01*
X53958Y-41757D01*
X53923Y-41701D01*
X53860Y-41645D01*
X53772Y-41616D01*
X53715Y-41616D01*
X53635Y-41645D01*
X53610Y-41673D01*
X53079Y-42151D02*
X53111Y-42179D01*
X53199Y-42207D01*
X53255Y-42207D01*
X53336Y-42179D01*
X53385Y-42123D01*
X53406Y-42066D01*
X53420Y-41954D01*
X53410Y-41870D01*
X53367Y-41757D01*
X53332Y-41701D01*
X53269Y-41645D01*
X53181Y-41616D01*
X53125Y-41616D01*
X53044Y-41645D01*
X53019Y-41673D01*
X52148Y-41898D02*
X52067Y-41926D01*
X52042Y-41954D01*
X52021Y-42010D01*
X52032Y-42095D01*
X52067Y-42151D01*
X52098Y-42179D01*
X52158Y-42207D01*
X52383Y-42207D01*
X52309Y-41616D01*
X52112Y-41616D01*
X52060Y-41645D01*
X52035Y-41673D01*
X52014Y-41729D01*
X52021Y-41785D01*
X52056Y-41841D01*
X52088Y-41870D01*
X52148Y-41898D01*
X52344Y-41898D01*
X51645Y-41926D02*
X51680Y-42207D01*
X51803Y-41616D02*
X51645Y-41926D01*
X51409Y-41616D01*
X51258Y-41982D02*
X50808Y-41982D01*
X50580Y-42179D02*
X50499Y-42207D01*
X50358Y-42207D01*
X50299Y-42179D01*
X50267Y-42151D01*
X50232Y-42095D01*
X50225Y-42038D01*
X50246Y-41982D01*
X50271Y-41954D01*
X50323Y-41926D01*
X50432Y-41898D01*
X50485Y-41870D01*
X50510Y-41841D01*
X50531Y-41785D01*
X50524Y-41729D01*
X50488Y-41673D01*
X50457Y-41645D01*
X50397Y-41616D01*
X50256Y-41616D01*
X50176Y-41645D01*
X50000Y-42038D02*
X49719Y-42038D01*
X50077Y-42207D02*
X49807Y-41616D01*
X49683Y-42207D01*
X48734Y-41813D02*
X48784Y-42207D01*
X48847Y-41588D02*
X49040Y-42010D01*
X48675Y-42010D01*
X48467Y-42151D02*
X48443Y-42179D01*
X48474Y-42207D01*
X48499Y-42179D01*
X48467Y-42151D01*
X48474Y-42207D01*
X48007Y-41616D02*
X47950Y-41616D01*
X47898Y-41645D01*
X47873Y-41673D01*
X47852Y-41729D01*
X47838Y-41841D01*
X47856Y-41982D01*
X47898Y-42095D01*
X47933Y-42151D01*
X47965Y-42179D01*
X48024Y-42207D01*
X48081Y-42207D01*
X48133Y-42179D01*
X48158Y-42151D01*
X48179Y-42095D01*
X48193Y-41982D01*
X48175Y-41841D01*
X48133Y-41729D01*
X48098Y-41673D01*
X48066Y-41645D01*
X48007Y-41616D01*
X47096Y-42207D02*
X47149Y-42179D01*
X47174Y-42151D01*
X47195Y-42095D01*
X47174Y-41926D01*
X47138Y-41870D01*
X47107Y-41841D01*
X47047Y-41813D01*
X46963Y-41813D01*
X46910Y-41841D01*
X46885Y-41870D01*
X46864Y-41926D01*
X46885Y-42095D01*
X46921Y-42151D01*
X46952Y-42179D01*
X47012Y-42207D01*
X47096Y-42207D01*
X46646Y-42207D02*
X46597Y-41813D01*
X46611Y-41926D02*
X46576Y-41870D01*
X46544Y-41841D01*
X46485Y-41813D01*
X46428Y-41813D01*
X45841Y-41616D02*
X45504Y-41616D01*
X45746Y-42207D02*
X45673Y-41616D01*
X45388Y-42038D02*
X45107Y-42038D01*
X45465Y-42207D02*
X45195Y-41616D01*
X45072Y-42207D01*
X44875Y-42207D02*
X44801Y-41616D01*
X44576Y-41616D01*
X44523Y-41645D01*
X44499Y-41673D01*
X44477Y-41729D01*
X44488Y-41813D01*
X44523Y-41870D01*
X44555Y-41898D01*
X44615Y-41926D01*
X44840Y-41926D01*
X43947Y-42207D02*
X44108Y-41926D01*
X44284Y-42207D02*
X44210Y-41616D01*
X43985Y-41616D01*
X43933Y-41645D01*
X43908Y-41673D01*
X43887Y-41729D01*
X43897Y-41813D01*
X43933Y-41870D01*
X43964Y-41898D01*
X44024Y-41926D01*
X44249Y-41926D01*
X42934Y-42207D02*
X43272Y-42207D01*
X43103Y-42207D02*
X43029Y-41616D01*
X43096Y-41701D01*
X43159Y-41757D01*
X43219Y-41785D01*
X42674Y-42151D02*
X42650Y-42179D01*
X42681Y-42207D01*
X42706Y-42179D01*
X42674Y-42151D01*
X42681Y-42207D01*
X42214Y-41616D02*
X42157Y-41616D01*
X42105Y-41645D01*
X42080Y-41673D01*
X42059Y-41729D01*
X42045Y-41841D01*
X42063Y-41982D01*
X42105Y-42095D01*
X42140Y-42151D01*
X42172Y-42179D01*
X42231Y-42207D01*
X42288Y-42207D01*
X42340Y-42179D01*
X42365Y-42151D01*
X42386Y-42095D01*
X42400Y-41982D01*
X42382Y-41841D01*
X42340Y-41729D01*
X42305Y-41673D01*
X42273Y-41645D01*
X42214Y-41616D01*
X61470Y-34053D02*
X61273Y-34644D01*
X61077Y-34053D01*
X60880Y-34588D02*
X60852Y-34616D01*
X60880Y-34644D01*
X60908Y-34616D01*
X60880Y-34588D01*
X60880Y-34644D01*
X60261Y-34644D02*
X60458Y-34363D01*
X60598Y-34644D02*
X60598Y-34053D01*
X60374Y-34053D01*
X60317Y-34082D01*
X60289Y-34110D01*
X60261Y-34166D01*
X60261Y-34250D01*
X60289Y-34307D01*
X60317Y-34335D01*
X60374Y-34363D01*
X60598Y-34363D01*
X59783Y-34616D02*
X59839Y-34644D01*
X59952Y-34644D01*
X60008Y-34616D01*
X60036Y-34560D01*
X60036Y-34335D01*
X60008Y-34278D01*
X59952Y-34250D01*
X59839Y-34250D01*
X59783Y-34278D01*
X59755Y-34335D01*
X59755Y-34391D01*
X60036Y-34447D01*
X59249Y-34250D02*
X59249Y-34728D01*
X59277Y-34785D01*
X59305Y-34813D01*
X59361Y-34841D01*
X59446Y-34841D01*
X59502Y-34813D01*
X59249Y-34616D02*
X59305Y-34644D01*
X59417Y-34644D01*
X59474Y-34616D01*
X59502Y-34588D01*
X59530Y-34532D01*
X59530Y-34363D01*
X59502Y-34307D01*
X59474Y-34278D01*
X59417Y-34250D01*
X59305Y-34250D01*
X59249Y-34278D01*
X58967Y-34588D02*
X58939Y-34616D01*
X58967Y-34644D01*
X58996Y-34616D01*
X58967Y-34588D01*
X58967Y-34644D01*
X58967Y-34278D02*
X58939Y-34307D01*
X58967Y-34335D01*
X58996Y-34307D01*
X58967Y-34278D01*
X58967Y-34335D01*
X58124Y-34053D02*
X58011Y-34053D01*
X57955Y-34082D01*
X57899Y-34138D01*
X57871Y-34250D01*
X57871Y-34447D01*
X57899Y-34560D01*
X57955Y-34616D01*
X58011Y-34644D01*
X58124Y-34644D01*
X58180Y-34616D01*
X58236Y-34560D01*
X58264Y-34447D01*
X58264Y-34250D01*
X58236Y-34138D01*
X58180Y-34082D01*
X58124Y-34053D01*
X57702Y-34053D02*
X57505Y-34644D01*
X57308Y-34053D01*
X57111Y-34644D02*
X57111Y-34053D01*
X56971Y-34053D01*
X56886Y-34082D01*
X56830Y-34138D01*
X56802Y-34194D01*
X56774Y-34307D01*
X56774Y-34391D01*
X56802Y-34503D01*
X56830Y-34560D01*
X56886Y-34616D01*
X56971Y-34644D01*
X57111Y-34644D01*
X56521Y-34644D02*
X56521Y-34053D01*
X56380Y-34053D01*
X56296Y-34082D01*
X56240Y-34138D01*
X56212Y-34194D01*
X56183Y-34307D01*
X56183Y-34391D01*
X56212Y-34503D01*
X56240Y-34560D01*
X56296Y-34616D01*
X56380Y-34644D01*
X56521Y-34644D01*
X61538Y-27298D02*
X61341Y-27888D01*
X61144Y-27298D01*
X60947Y-27832D02*
X60919Y-27860D01*
X60947Y-27888D01*
X60975Y-27860D01*
X60947Y-27832D01*
X60947Y-27888D01*
X60329Y-27888D02*
X60525Y-27607D01*
X60666Y-27888D02*
X60666Y-27298D01*
X60441Y-27298D01*
X60385Y-27326D01*
X60357Y-27354D01*
X60329Y-27410D01*
X60329Y-27494D01*
X60357Y-27551D01*
X60385Y-27579D01*
X60441Y-27607D01*
X60666Y-27607D01*
X59850Y-27860D02*
X59907Y-27888D01*
X60019Y-27888D01*
X60075Y-27860D01*
X60104Y-27804D01*
X60104Y-27579D01*
X60075Y-27523D01*
X60019Y-27494D01*
X59907Y-27494D01*
X59850Y-27523D01*
X59822Y-27579D01*
X59822Y-27635D01*
X60104Y-27691D01*
X59316Y-27494D02*
X59316Y-27973D01*
X59344Y-28029D01*
X59372Y-28057D01*
X59429Y-28085D01*
X59513Y-28085D01*
X59569Y-28057D01*
X59316Y-27860D02*
X59372Y-27888D01*
X59485Y-27888D01*
X59541Y-27860D01*
X59569Y-27832D01*
X59597Y-27776D01*
X59597Y-27607D01*
X59569Y-27551D01*
X59541Y-27523D01*
X59485Y-27494D01*
X59372Y-27494D01*
X59316Y-27523D01*
X59035Y-27832D02*
X59007Y-27860D01*
X59035Y-27888D01*
X59063Y-27860D01*
X59035Y-27832D01*
X59035Y-27888D01*
X59035Y-27523D02*
X59007Y-27551D01*
X59035Y-27579D01*
X59063Y-27551D01*
X59035Y-27523D01*
X59035Y-27579D01*
X58304Y-27888D02*
X58304Y-27298D01*
X58079Y-27298D01*
X58023Y-27326D01*
X57994Y-27354D01*
X57966Y-27410D01*
X57966Y-27494D01*
X57994Y-27551D01*
X58023Y-27579D01*
X58079Y-27607D01*
X58304Y-27607D01*
X57713Y-27888D02*
X57713Y-27298D01*
X57573Y-27298D01*
X57488Y-27326D01*
X57432Y-27382D01*
X57404Y-27438D01*
X57376Y-27551D01*
X57376Y-27635D01*
X57404Y-27748D01*
X57432Y-27804D01*
X57488Y-27860D01*
X57573Y-27888D01*
X57713Y-27888D01*
X61511Y-20790D02*
X61314Y-21380D01*
X61118Y-20790D01*
X60921Y-21324D02*
X60893Y-21352D01*
X60921Y-21380D01*
X60949Y-21352D01*
X60921Y-21324D01*
X60921Y-21380D01*
X60302Y-21380D02*
X60499Y-21099D01*
X60640Y-21380D02*
X60640Y-20790D01*
X60415Y-20790D01*
X60358Y-20818D01*
X60330Y-20846D01*
X60302Y-20902D01*
X60302Y-20987D01*
X60330Y-21043D01*
X60358Y-21071D01*
X60415Y-21099D01*
X60640Y-21099D01*
X59824Y-21352D02*
X59880Y-21380D01*
X59993Y-21380D01*
X60049Y-21352D01*
X60077Y-21296D01*
X60077Y-21071D01*
X60049Y-21015D01*
X59993Y-20987D01*
X59880Y-20987D01*
X59824Y-21015D01*
X59796Y-21071D01*
X59796Y-21127D01*
X60077Y-21183D01*
X59290Y-20987D02*
X59290Y-21465D01*
X59318Y-21521D01*
X59346Y-21549D01*
X59402Y-21577D01*
X59487Y-21577D01*
X59543Y-21549D01*
X59290Y-21352D02*
X59346Y-21380D01*
X59458Y-21380D01*
X59515Y-21352D01*
X59543Y-21324D01*
X59571Y-21268D01*
X59571Y-21099D01*
X59543Y-21043D01*
X59515Y-21015D01*
X59458Y-20987D01*
X59346Y-20987D01*
X59290Y-21015D01*
X59008Y-21324D02*
X58980Y-21352D01*
X59008Y-21380D01*
X59037Y-21352D01*
X59008Y-21324D01*
X59008Y-21380D01*
X59008Y-21015D02*
X58980Y-21043D01*
X59008Y-21071D01*
X59037Y-21043D01*
X59008Y-21015D01*
X59008Y-21071D01*
X58362Y-20790D02*
X58165Y-21380D01*
X57968Y-20790D01*
X57771Y-21380D02*
X57771Y-20790D01*
X57631Y-20790D01*
X57546Y-20818D01*
X57490Y-20874D01*
X57462Y-20930D01*
X57434Y-21043D01*
X57434Y-21127D01*
X57462Y-21240D01*
X57490Y-21296D01*
X57546Y-21352D01*
X57631Y-21380D01*
X57771Y-21380D01*
G54D12*
X53826Y-18911D02*
X54096Y-18911D01*
X53961Y-18911D02*
X53961Y-18439D01*
X54006Y-18506D01*
X54051Y-18551D01*
X54096Y-18574D01*
X53623Y-18866D02*
X53601Y-18889D01*
X53623Y-18911D01*
X53646Y-18889D01*
X53623Y-18866D01*
X53623Y-18911D01*
X53331Y-18641D02*
X53376Y-18619D01*
X53398Y-18596D01*
X53421Y-18551D01*
X53421Y-18529D01*
X53398Y-18484D01*
X53376Y-18461D01*
X53331Y-18439D01*
X53241Y-18439D01*
X53196Y-18461D01*
X53173Y-18484D01*
X53151Y-18529D01*
X53151Y-18551D01*
X53173Y-18596D01*
X53196Y-18619D01*
X53241Y-18641D01*
X53331Y-18641D01*
X53376Y-18664D01*
X53398Y-18686D01*
X53421Y-18731D01*
X53421Y-18821D01*
X53398Y-18866D01*
X53376Y-18889D01*
X53331Y-18911D01*
X53241Y-18911D01*
X53196Y-18889D01*
X53173Y-18866D01*
X53151Y-18821D01*
X53151Y-18731D01*
X53173Y-18686D01*
X53196Y-18664D01*
X53241Y-18641D01*
X53016Y-18439D02*
X52858Y-18911D01*
X52701Y-18439D01*
G54D11*
X53791Y-16357D02*
X53594Y-16947D01*
X53397Y-16357D01*
X53200Y-16947D02*
X53200Y-16357D01*
X53060Y-16357D01*
X52975Y-16385D01*
X52919Y-16441D01*
X52891Y-16497D01*
X52863Y-16610D01*
X52863Y-16694D01*
X52891Y-16807D01*
X52919Y-16863D01*
X52975Y-16919D01*
X53060Y-16947D01*
X53200Y-16947D01*
G54D12*
X54904Y-25474D02*
X55129Y-25474D01*
X55016Y-25474D02*
X55016Y-25080D01*
X55054Y-25136D01*
X55091Y-25174D01*
X55129Y-25193D01*
X54735Y-25436D02*
X54716Y-25455D01*
X54735Y-25474D01*
X54754Y-25455D01*
X54735Y-25436D01*
X54735Y-25474D01*
X54491Y-25249D02*
X54529Y-25230D01*
X54548Y-25211D01*
X54566Y-25174D01*
X54566Y-25155D01*
X54548Y-25118D01*
X54529Y-25099D01*
X54491Y-25080D01*
X54416Y-25080D01*
X54379Y-25099D01*
X54360Y-25118D01*
X54341Y-25155D01*
X54341Y-25174D01*
X54360Y-25211D01*
X54379Y-25230D01*
X54416Y-25249D01*
X54491Y-25249D01*
X54529Y-25268D01*
X54548Y-25286D01*
X54566Y-25324D01*
X54566Y-25399D01*
X54548Y-25436D01*
X54529Y-25455D01*
X54491Y-25474D01*
X54416Y-25474D01*
X54379Y-25455D01*
X54360Y-25436D01*
X54341Y-25399D01*
X54341Y-25324D01*
X54360Y-25286D01*
X54379Y-25268D01*
X54416Y-25249D01*
X54229Y-25080D02*
X54098Y-25474D01*
X53967Y-25080D01*
G54D11*
X55473Y-27722D02*
X55388Y-27750D01*
X55248Y-27750D01*
X55191Y-27722D01*
X55163Y-27694D01*
X55135Y-27638D01*
X55135Y-27582D01*
X55163Y-27525D01*
X55191Y-27497D01*
X55248Y-27469D01*
X55360Y-27441D01*
X55416Y-27413D01*
X55444Y-27385D01*
X55473Y-27329D01*
X55473Y-27272D01*
X55444Y-27216D01*
X55416Y-27188D01*
X55360Y-27160D01*
X55219Y-27160D01*
X55135Y-27188D01*
X54882Y-27750D02*
X54882Y-27160D01*
X54741Y-27160D01*
X54657Y-27188D01*
X54601Y-27244D01*
X54573Y-27300D01*
X54544Y-27413D01*
X54544Y-27497D01*
X54573Y-27610D01*
X54601Y-27666D01*
X54657Y-27722D01*
X54741Y-27750D01*
X54882Y-27750D01*
X54320Y-27582D02*
X54038Y-27582D01*
X54376Y-27750D02*
X54179Y-27160D01*
X53982Y-27750D01*
X55427Y-26769D02*
X55343Y-26798D01*
X55202Y-26798D01*
X55146Y-26769D01*
X55118Y-26741D01*
X55089Y-26685D01*
X55089Y-26629D01*
X55118Y-26573D01*
X55146Y-26544D01*
X55202Y-26516D01*
X55314Y-26488D01*
X55371Y-26460D01*
X55399Y-26432D01*
X55427Y-26376D01*
X55427Y-26320D01*
X55399Y-26263D01*
X55371Y-26235D01*
X55314Y-26207D01*
X55174Y-26207D01*
X55089Y-26235D01*
X54499Y-26741D02*
X54527Y-26769D01*
X54611Y-26798D01*
X54668Y-26798D01*
X54752Y-26769D01*
X54808Y-26713D01*
X54836Y-26657D01*
X54865Y-26544D01*
X54865Y-26460D01*
X54836Y-26348D01*
X54808Y-26291D01*
X54752Y-26235D01*
X54668Y-26207D01*
X54611Y-26207D01*
X54527Y-26235D01*
X54499Y-26263D01*
X53965Y-26798D02*
X54246Y-26798D01*
X54246Y-26207D01*
X52718Y-27254D02*
X52718Y-26664D01*
X52465Y-26720D02*
X52437Y-26692D01*
X52380Y-26664D01*
X52240Y-26664D01*
X52183Y-26692D01*
X52155Y-26720D01*
X52127Y-26776D01*
X52127Y-26832D01*
X52155Y-26917D01*
X52493Y-27254D01*
X52127Y-27254D01*
X51537Y-27198D02*
X51565Y-27226D01*
X51649Y-27254D01*
X51705Y-27254D01*
X51790Y-27226D01*
X51846Y-27170D01*
X51874Y-27114D01*
X51902Y-27001D01*
X51902Y-26917D01*
X51874Y-26804D01*
X51846Y-26748D01*
X51790Y-26692D01*
X51705Y-26664D01*
X51649Y-26664D01*
X51565Y-26692D01*
X51537Y-26720D01*
X52754Y-25424D02*
X52754Y-24833D01*
X52529Y-24833D01*
X52473Y-24861D01*
X52444Y-24889D01*
X52416Y-24946D01*
X52416Y-25030D01*
X52444Y-25086D01*
X52473Y-25114D01*
X52529Y-25142D01*
X52754Y-25142D01*
X52248Y-24833D02*
X52051Y-25424D01*
X51854Y-24833D01*
X51657Y-25424D02*
X51657Y-24833D01*
X51516Y-24833D01*
X51432Y-24861D01*
X51376Y-24917D01*
X51348Y-24974D01*
X51320Y-25086D01*
X51320Y-25170D01*
X51348Y-25283D01*
X51376Y-25339D01*
X51432Y-25395D01*
X51516Y-25424D01*
X51657Y-25424D01*
G54D12*
X41079Y-41953D02*
X41107Y-42010D01*
X41107Y-42094D01*
X41079Y-42178D01*
X41023Y-42235D01*
X40966Y-42263D01*
X40854Y-42291D01*
X40769Y-42291D01*
X40657Y-42263D01*
X40601Y-42235D01*
X40544Y-42178D01*
X40516Y-42094D01*
X40516Y-42038D01*
X40544Y-41953D01*
X40573Y-41925D01*
X40769Y-41925D01*
X40769Y-42038D01*
X40516Y-41672D02*
X41107Y-41672D01*
X40516Y-41335D01*
X41107Y-41335D01*
X40516Y-41053D02*
X41107Y-41053D01*
X41107Y-40913D01*
X41079Y-40829D01*
X41023Y-40772D01*
X40966Y-40744D01*
X40854Y-40716D01*
X40769Y-40716D01*
X40657Y-40744D01*
X40601Y-40772D01*
X40544Y-40829D01*
X40516Y-40913D01*
X40516Y-41053D01*
X40592Y-38829D02*
X40874Y-38829D01*
X40902Y-39110D01*
X40874Y-39082D01*
X40817Y-39054D01*
X40677Y-39054D01*
X40620Y-39082D01*
X40592Y-39110D01*
X40564Y-39167D01*
X40564Y-39307D01*
X40592Y-39363D01*
X40620Y-39392D01*
X40677Y-39420D01*
X40817Y-39420D01*
X40874Y-39392D01*
X40902Y-39363D01*
X40395Y-38829D02*
X40199Y-39420D01*
X40002Y-38829D01*
X41001Y-37798D02*
X40804Y-38388D01*
X40607Y-37798D01*
X40073Y-38332D02*
X40101Y-38360D01*
X40186Y-38388D01*
X40242Y-38388D01*
X40326Y-38360D01*
X40383Y-38304D01*
X40411Y-38248D01*
X40439Y-38135D01*
X40439Y-38051D01*
X40411Y-37938D01*
X40383Y-37882D01*
X40326Y-37826D01*
X40242Y-37798D01*
X40186Y-37798D01*
X40101Y-37826D01*
X40073Y-37854D01*
X39483Y-38332D02*
X39511Y-38360D01*
X39595Y-38388D01*
X39651Y-38388D01*
X39736Y-38360D01*
X39792Y-38304D01*
X39820Y-38248D01*
X39848Y-38135D01*
X39848Y-38051D01*
X39820Y-37938D01*
X39792Y-37882D01*
X39736Y-37826D01*
X39651Y-37798D01*
X39595Y-37798D01*
X39511Y-37826D01*
X39483Y-37854D01*
X39370Y-38444D02*
X38920Y-38444D01*
X38780Y-38388D02*
X38780Y-37798D01*
X38498Y-38388D02*
X38498Y-37798D01*
X38161Y-38388D01*
X38161Y-37798D01*
X58682Y-40310D02*
X58738Y-40282D01*
X58822Y-40282D01*
X58907Y-40310D01*
X58963Y-40366D01*
X58991Y-40422D01*
X59019Y-40535D01*
X59019Y-40619D01*
X58991Y-40732D01*
X58963Y-40788D01*
X58907Y-40844D01*
X58822Y-40872D01*
X58766Y-40872D01*
X58682Y-40844D01*
X58654Y-40816D01*
X58654Y-40619D01*
X58766Y-40619D01*
X58401Y-40872D02*
X58401Y-40282D01*
X58063Y-40872D01*
X58063Y-40282D01*
X57782Y-40872D02*
X57782Y-40282D01*
X57641Y-40282D01*
X57557Y-40310D01*
X57501Y-40366D01*
X57473Y-40422D01*
X57444Y-40535D01*
X57444Y-40619D01*
X57473Y-40732D01*
X57501Y-40788D01*
X57557Y-40844D01*
X57641Y-40872D01*
X57782Y-40872D01*
X58061Y-38762D02*
X58342Y-38762D01*
X58370Y-39043D01*
X58342Y-39015D01*
X58286Y-38987D01*
X58145Y-38987D01*
X58089Y-39015D01*
X58061Y-39043D01*
X58033Y-39100D01*
X58033Y-39240D01*
X58061Y-39296D01*
X58089Y-39325D01*
X58145Y-39353D01*
X58286Y-39353D01*
X58342Y-39325D01*
X58370Y-39296D01*
X57864Y-38762D02*
X57667Y-39353D01*
X57470Y-38762D01*
G54D11*
X45065Y-8313D02*
X44868Y-8904D01*
X44672Y-8313D01*
X44165Y-8341D02*
X44222Y-8313D01*
X44306Y-8313D01*
X44390Y-8341D01*
X44447Y-8398D01*
X44475Y-8454D01*
X44503Y-8566D01*
X44503Y-8651D01*
X44475Y-8763D01*
X44447Y-8820D01*
X44390Y-8876D01*
X44306Y-8904D01*
X44250Y-8904D01*
X44165Y-8876D01*
X44137Y-8848D01*
X44137Y-8651D01*
X44250Y-8651D01*
X43912Y-8735D02*
X43631Y-8735D01*
X43969Y-8904D02*
X43772Y-8313D01*
X43575Y-8904D01*
X42928Y-8904D02*
X42928Y-8313D01*
X42647Y-8904D02*
X42647Y-8313D01*
X42309Y-8904D01*
X42309Y-8313D01*
X59282Y-8459D02*
X59085Y-9050D01*
X58888Y-8459D01*
X58382Y-8487D02*
X58438Y-8459D01*
X58523Y-8459D01*
X58607Y-8487D01*
X58663Y-8543D01*
X58691Y-8600D01*
X58719Y-8712D01*
X58719Y-8796D01*
X58691Y-8909D01*
X58663Y-8965D01*
X58607Y-9021D01*
X58523Y-9050D01*
X58466Y-9050D01*
X58382Y-9021D01*
X58354Y-8993D01*
X58354Y-8796D01*
X58466Y-8796D01*
X58129Y-8881D02*
X57848Y-8881D01*
X58185Y-9050D02*
X57988Y-8459D01*
X57791Y-9050D01*
X57032Y-8459D02*
X56920Y-8459D01*
X56863Y-8487D01*
X56807Y-8543D01*
X56779Y-8656D01*
X56779Y-8853D01*
X56807Y-8965D01*
X56863Y-9021D01*
X56920Y-9050D01*
X57032Y-9050D01*
X57088Y-9021D01*
X57145Y-8965D01*
X57173Y-8853D01*
X57173Y-8656D01*
X57145Y-8543D01*
X57088Y-8487D01*
X57032Y-8459D01*
X56526Y-8459D02*
X56526Y-8937D01*
X56498Y-8993D01*
X56470Y-9021D01*
X56413Y-9050D01*
X56301Y-9050D01*
X56245Y-9021D01*
X56217Y-8993D01*
X56188Y-8937D01*
X56188Y-8459D01*
X55992Y-8459D02*
X55654Y-8459D01*
X55823Y-9050D02*
X55823Y-8459D01*
G54D13*
X38009Y-15630D02*
G75*
G03X38009Y-15630I-50J0D01*
G74*
G01*
X37959Y-15180D02*
X37959Y-15580D01*
X37959Y-15580D02*
X38559Y-15580D01*
X38559Y-15580D02*
X38559Y-15180D01*
X38559Y-14780D02*
X38559Y-14380D01*
X38559Y-14380D02*
X37959Y-14380D01*
X37959Y-14380D02*
X37959Y-14780D01*
X57218Y-26567D02*
G75*
G03X57218Y-26567I-50J0D01*
G74*
G01*
X57168Y-26117D02*
X57168Y-26517D01*
X57168Y-26517D02*
X57768Y-26517D01*
X57768Y-26517D02*
X57768Y-26117D01*
X57768Y-25717D02*
X57768Y-25317D01*
X57768Y-25317D02*
X57168Y-25317D01*
X57168Y-25317D02*
X57168Y-25717D01*
X60955Y-24429D02*
G75*
G03X60955Y-24429I-50J0D01*
G74*
G01*
X60455Y-24429D02*
X60855Y-24429D01*
X60855Y-24429D02*
X60855Y-23829D01*
X60855Y-23829D02*
X60455Y-23829D01*
X60055Y-23829D02*
X59655Y-23829D01*
X59655Y-23829D02*
X59655Y-24429D01*
X59655Y-24429D02*
X60055Y-24429D01*
X60951Y-18008D02*
G75*
G03X60951Y-18008I-50J0D01*
G74*
G01*
X60451Y-18008D02*
X60851Y-18008D01*
X60851Y-18008D02*
X60851Y-17408D01*
X60851Y-17408D02*
X60451Y-17408D01*
X60051Y-17408D02*
X59651Y-17408D01*
X59651Y-17408D02*
X59651Y-18008D01*
X59651Y-18008D02*
X60051Y-18008D01*
X57151Y-20165D02*
G75*
G03X57151Y-20165I-50J0D01*
G74*
G01*
X57101Y-19715D02*
X57101Y-20115D01*
X57101Y-20115D02*
X57701Y-20115D01*
X57701Y-20115D02*
X57701Y-19715D01*
X57701Y-19315D02*
X57701Y-18915D01*
X57701Y-18915D02*
X57101Y-18915D01*
X57101Y-18915D02*
X57101Y-19315D01*
X38629Y-12901D02*
G75*
G03X38629Y-12901I-50J0D01*
G74*
G01*
X38579Y-13351D02*
X38579Y-12951D01*
X38579Y-12951D02*
X37979Y-12951D01*
X37979Y-12951D02*
X37979Y-13351D01*
X37979Y-13751D02*
X37979Y-14151D01*
X37979Y-14151D02*
X38579Y-14151D01*
X38579Y-14151D02*
X38579Y-13751D01*
X46639Y-22929D02*
G75*
G03X46639Y-22929I-50J0D01*
G74*
G01*
X46589Y-22479D02*
X46589Y-22879D01*
X46589Y-22879D02*
X47189Y-22879D01*
X47189Y-22879D02*
X47189Y-22479D01*
X47189Y-22079D02*
X47189Y-21679D01*
X47189Y-21679D02*
X46589Y-21679D01*
X46589Y-21679D02*
X46589Y-22079D01*
X47239Y-20259D02*
G75*
G03X47239Y-20259I-50J0D01*
G74*
G01*
X47189Y-20709D02*
X47189Y-20309D01*
X47189Y-20309D02*
X46589Y-20309D01*
X46589Y-20309D02*
X46589Y-20709D01*
X46589Y-21109D02*
X46589Y-21509D01*
X46589Y-21509D02*
X47189Y-21509D01*
X47189Y-21509D02*
X47189Y-21109D01*
X50774Y-20307D02*
G75*
G03X50774Y-20307I-50J0D01*
G74*
G01*
X50274Y-20307D02*
X50674Y-20307D01*
X50674Y-20307D02*
X50674Y-19707D01*
X50674Y-19707D02*
X50274Y-19707D01*
X49874Y-19707D02*
X49474Y-19707D01*
X49474Y-19707D02*
X49474Y-20307D01*
X49474Y-20307D02*
X49874Y-20307D01*
X49466Y-18888D02*
G75*
G03X49466Y-18888I-50J0D01*
G74*
G01*
X49866Y-18888D02*
X49466Y-18888D01*
X49466Y-18888D02*
X49466Y-19488D01*
X49466Y-19488D02*
X49866Y-19488D01*
X50266Y-19488D02*
X50666Y-19488D01*
X50666Y-19488D02*
X50666Y-18888D01*
X50666Y-18888D02*
X50266Y-18888D01*
X50770Y-21075D02*
G75*
G03X50770Y-21075I-50J0D01*
G74*
G01*
X50270Y-21075D02*
X50670Y-21075D01*
X50670Y-21075D02*
X50670Y-20475D01*
X50670Y-20475D02*
X50270Y-20475D01*
X49870Y-20475D02*
X49470Y-20475D01*
X49470Y-20475D02*
X49470Y-21075D01*
X49470Y-21075D02*
X49870Y-21075D01*
G54D14*
X58386Y-33464D02*
X58386Y-33271D01*
X58386Y-33271D02*
X58819Y-33271D01*
X58819Y-33464D02*
X58819Y-33271D01*
X58386Y-33464D02*
X58819Y-33464D01*
X58386Y-32964D02*
X58386Y-32771D01*
X58386Y-32771D02*
X58819Y-32771D01*
X58819Y-32964D02*
X58819Y-32771D01*
X58386Y-32964D02*
X58819Y-32964D01*
X58386Y-32465D02*
X58386Y-32272D01*
X58386Y-32272D02*
X58819Y-32272D01*
X58819Y-32465D02*
X58819Y-32272D01*
X58386Y-32465D02*
X58819Y-32465D01*
X58386Y-31965D02*
X58386Y-31772D01*
X58386Y-31772D02*
X58819Y-31772D01*
X58819Y-31965D02*
X58819Y-31772D01*
X58386Y-31965D02*
X58819Y-31965D01*
X60393Y-31965D02*
X60393Y-31772D01*
X60393Y-31772D02*
X60826Y-31772D01*
X60826Y-31965D02*
X60826Y-31772D01*
X60393Y-31965D02*
X60826Y-31965D01*
X60393Y-32465D02*
X60393Y-32272D01*
X60393Y-32272D02*
X60826Y-32272D01*
X60826Y-32465D02*
X60826Y-32272D01*
X60393Y-32465D02*
X60826Y-32465D01*
X60393Y-32964D02*
X60393Y-32771D01*
X60393Y-32771D02*
X60826Y-32771D01*
X60826Y-32964D02*
X60826Y-32771D01*
X60393Y-32964D02*
X60826Y-32964D01*
X60393Y-33464D02*
X60393Y-33271D01*
X60393Y-33271D02*
X60826Y-33271D01*
X60826Y-33464D02*
X60826Y-33271D01*
X60393Y-33464D02*
X60826Y-33464D01*
G54D15*
X60354Y-31674D02*
X59055Y-31674D01*
X59055Y-31674D02*
X58858Y-31674D01*
X58858Y-31674D02*
X58858Y-33562D01*
X58858Y-33562D02*
X59055Y-33562D01*
X59055Y-33562D02*
X60354Y-33562D01*
X60354Y-33562D02*
X60354Y-31674D01*
X59055Y-31674D02*
X59055Y-33562D01*
G54D14*
X60830Y-25055D02*
X60830Y-25248D01*
X60830Y-25248D02*
X60397Y-25248D01*
X60397Y-25055D02*
X60397Y-25248D01*
X60830Y-25055D02*
X60397Y-25055D01*
X60830Y-25555D02*
X60830Y-25748D01*
X60830Y-25748D02*
X60397Y-25748D01*
X60397Y-25555D02*
X60397Y-25748D01*
X60830Y-25555D02*
X60397Y-25555D01*
X60830Y-26054D02*
X60830Y-26247D01*
X60830Y-26247D02*
X60397Y-26247D01*
X60397Y-26054D02*
X60397Y-26247D01*
X60830Y-26054D02*
X60397Y-26054D01*
X60830Y-26554D02*
X60830Y-26747D01*
X60830Y-26747D02*
X60397Y-26747D01*
X60397Y-26554D02*
X60397Y-26747D01*
X60830Y-26554D02*
X60397Y-26554D01*
X58823Y-26554D02*
X58823Y-26747D01*
X58823Y-26747D02*
X58390Y-26747D01*
X58390Y-26554D02*
X58390Y-26747D01*
X58823Y-26554D02*
X58390Y-26554D01*
X58823Y-26054D02*
X58823Y-26247D01*
X58823Y-26247D02*
X58390Y-26247D01*
X58390Y-26054D02*
X58390Y-26247D01*
X58823Y-26054D02*
X58390Y-26054D01*
X58823Y-25555D02*
X58823Y-25748D01*
X58823Y-25748D02*
X58390Y-25748D01*
X58390Y-25555D02*
X58390Y-25748D01*
X58823Y-25555D02*
X58390Y-25555D01*
X58823Y-25055D02*
X58823Y-25248D01*
X58823Y-25248D02*
X58390Y-25248D01*
X58390Y-25055D02*
X58390Y-25248D01*
X58823Y-25055D02*
X58390Y-25055D01*
G54D15*
X58862Y-26845D02*
X60161Y-26845D01*
X60161Y-26845D02*
X60358Y-26845D01*
X60358Y-26845D02*
X60358Y-24957D01*
X60358Y-24957D02*
X60161Y-24957D01*
X60161Y-24957D02*
X58862Y-24957D01*
X58862Y-24957D02*
X58862Y-26845D01*
X60161Y-26845D02*
X60161Y-24957D01*
G54D14*
X60826Y-18650D02*
X60826Y-18843D01*
X60826Y-18843D02*
X60393Y-18843D01*
X60393Y-18650D02*
X60393Y-18843D01*
X60826Y-18650D02*
X60393Y-18650D01*
X60826Y-19150D02*
X60826Y-19343D01*
X60826Y-19343D02*
X60393Y-19343D01*
X60393Y-19150D02*
X60393Y-19343D01*
X60826Y-19150D02*
X60393Y-19150D01*
X60826Y-19649D02*
X60826Y-19842D01*
X60826Y-19842D02*
X60393Y-19842D01*
X60393Y-19649D02*
X60393Y-19842D01*
X60826Y-19649D02*
X60393Y-19649D01*
X60826Y-20149D02*
X60826Y-20342D01*
X60826Y-20342D02*
X60393Y-20342D01*
X60393Y-20149D02*
X60393Y-20342D01*
X60826Y-20149D02*
X60393Y-20149D01*
X58819Y-20149D02*
X58819Y-20342D01*
X58819Y-20342D02*
X58386Y-20342D01*
X58386Y-20149D02*
X58386Y-20342D01*
X58819Y-20149D02*
X58386Y-20149D01*
X58819Y-19649D02*
X58819Y-19842D01*
X58819Y-19842D02*
X58386Y-19842D01*
X58386Y-19649D02*
X58386Y-19842D01*
X58819Y-19649D02*
X58386Y-19649D01*
X58819Y-19150D02*
X58819Y-19343D01*
X58819Y-19343D02*
X58386Y-19343D01*
X58386Y-19150D02*
X58386Y-19343D01*
X58819Y-19150D02*
X58386Y-19150D01*
X58819Y-18650D02*
X58819Y-18843D01*
X58819Y-18843D02*
X58386Y-18843D01*
X58386Y-18650D02*
X58386Y-18843D01*
X58819Y-18650D02*
X58386Y-18650D01*
G54D15*
X58858Y-20440D02*
X60157Y-20440D01*
X60157Y-20440D02*
X60354Y-20440D01*
X60354Y-20440D02*
X60354Y-18552D01*
X60354Y-18552D02*
X60157Y-18552D01*
X60157Y-18552D02*
X58858Y-18552D01*
X58858Y-18552D02*
X58858Y-20440D01*
X60157Y-20440D02*
X60157Y-18552D01*
G54D13*
X46338Y-24676D02*
G75*
G03X46338Y-24676I-50J0D01*
G74*
G01*
X46288Y-25126D02*
X46288Y-24726D01*
X46288Y-24726D02*
X45688Y-24726D01*
X45688Y-24726D02*
X45688Y-25126D01*
X45688Y-25526D02*
X45688Y-25926D01*
X45688Y-25926D02*
X46288Y-25926D01*
X46288Y-25926D02*
X46288Y-25526D01*
X48057Y-20463D02*
G75*
G03X48057Y-20463I-50J0D01*
G74*
G01*
X48457Y-20463D02*
X48057Y-20463D01*
X48057Y-20463D02*
X48057Y-21063D01*
X48057Y-21063D02*
X48457Y-21063D01*
X48857Y-21063D02*
X49257Y-21063D01*
X49257Y-21063D02*
X49257Y-20463D01*
X49257Y-20463D02*
X48857Y-20463D01*
X48057Y-21184D02*
G75*
G03X48057Y-21184I-50J0D01*
G74*
G01*
X48457Y-21184D02*
X48057Y-21184D01*
X48057Y-21184D02*
X48057Y-21784D01*
X48057Y-21784D02*
X48457Y-21784D01*
X48857Y-21784D02*
X49257Y-21784D01*
X49257Y-21784D02*
X49257Y-21184D01*
X49257Y-21184D02*
X48857Y-21184D01*
X43058Y-21437D02*
G75*
G03X43058Y-21437I-50J0D01*
G74*
G01*
X42558Y-21437D02*
X42958Y-21437D01*
X42958Y-21437D02*
X42958Y-20837D01*
X42958Y-20837D02*
X42558Y-20837D01*
X42158Y-20837D02*
X41758Y-20837D01*
X41758Y-20837D02*
X41758Y-21437D01*
X41758Y-21437D02*
X42158Y-21437D01*
X49286Y-23988D02*
G75*
G03X49286Y-23988I-50J0D01*
G74*
G01*
X48786Y-23988D02*
X49186Y-23988D01*
X49186Y-23988D02*
X49186Y-23388D01*
X49186Y-23388D02*
X48786Y-23388D01*
X48386Y-23388D02*
X47986Y-23388D01*
X47986Y-23388D02*
X47986Y-23988D01*
X47986Y-23988D02*
X48386Y-23988D01*
X42596Y-26275D02*
G75*
G03X42596Y-26275I-50J0D01*
G74*
G01*
X42546Y-25825D02*
X42546Y-26225D01*
X42546Y-26225D02*
X43146Y-26225D01*
X43146Y-26225D02*
X43146Y-25825D01*
X43146Y-25425D02*
X43146Y-25025D01*
X43146Y-25025D02*
X42546Y-25025D01*
X42546Y-25025D02*
X42546Y-25425D01*
X48049Y-19707D02*
G75*
G03X48049Y-19707I-50J0D01*
G74*
G01*
X48449Y-19707D02*
X48049Y-19707D01*
X48049Y-19707D02*
X48049Y-20307D01*
X48049Y-20307D02*
X48449Y-20307D01*
X48849Y-20307D02*
X49249Y-20307D01*
X49249Y-20307D02*
X49249Y-19707D01*
X49249Y-19707D02*
X48849Y-19707D01*
X47448Y-18519D02*
G75*
G03X47448Y-18519I-50J0D01*
G74*
G01*
X47398Y-18969D02*
X47398Y-18569D01*
X47398Y-18569D02*
X46798Y-18569D01*
X46798Y-18569D02*
X46798Y-18969D01*
X46798Y-19369D02*
X46798Y-19769D01*
X46798Y-19769D02*
X47398Y-19769D01*
X47398Y-19769D02*
X47398Y-19369D01*
X46074Y-18818D02*
G75*
G03X46074Y-18818I-50J0D01*
G74*
G01*
X46024Y-19268D02*
X46024Y-18868D01*
X46024Y-18868D02*
X45424Y-18868D01*
X45424Y-18868D02*
X45424Y-19268D01*
X45424Y-19668D02*
X45424Y-20068D01*
X45424Y-20068D02*
X46024Y-20068D01*
X46024Y-20068D02*
X46024Y-19668D01*
X45389Y-18822D02*
G75*
G03X45389Y-18822I-50J0D01*
G74*
G01*
X45339Y-19272D02*
X45339Y-18872D01*
X45339Y-18872D02*
X44739Y-18872D01*
X44739Y-18872D02*
X44739Y-19272D01*
X44739Y-19672D02*
X44739Y-20072D01*
X44739Y-20072D02*
X45339Y-20072D01*
X45339Y-20072D02*
X45339Y-19672D01*
X48558Y-18019D02*
G75*
G03X48558Y-18019I-50J0D01*
G74*
G01*
X48508Y-18469D02*
X48508Y-18069D01*
X48508Y-18069D02*
X47908Y-18069D01*
X47908Y-18069D02*
X47908Y-18469D01*
X47908Y-18869D02*
X47908Y-19269D01*
X47908Y-19269D02*
X48508Y-19269D01*
X48508Y-19269D02*
X48508Y-18869D01*
X42771Y-23668D02*
G75*
G03X42771Y-23668I-50J0D01*
G74*
G01*
X42721Y-24118D02*
X42721Y-23718D01*
X42721Y-23718D02*
X42121Y-23718D01*
X42121Y-23718D02*
X42121Y-24118D01*
X42121Y-24518D02*
X42121Y-24918D01*
X42121Y-24918D02*
X42721Y-24918D01*
X42721Y-24918D02*
X42721Y-24518D01*
G54D14*
X56081Y-15103D02*
X56081Y-15378D01*
X56081Y-15378D02*
X55807Y-15378D01*
X55807Y-15103D02*
X55807Y-15378D01*
X56081Y-15103D02*
X55807Y-15103D01*
X56081Y-18370D02*
X56081Y-18645D01*
X56081Y-18645D02*
X55807Y-18645D01*
X55807Y-18370D02*
X55807Y-18645D01*
X56081Y-18370D02*
X55807Y-18370D01*
G54D16*
X54330Y-15260D02*
X54330Y-17582D01*
X54330Y-17582D02*
X55236Y-18488D01*
X55236Y-18488D02*
X56652Y-18488D01*
X56652Y-18488D02*
X57558Y-17582D01*
X57558Y-17582D02*
X57558Y-15260D01*
X57558Y-15260D02*
X54330Y-15260D01*
X55590Y-15260D02*
X54330Y-15260D01*
X54330Y-15260D02*
X54330Y-17582D01*
X54330Y-17582D02*
X55236Y-18488D01*
X55236Y-18488D02*
X55590Y-18488D01*
X56298Y-18488D02*
X56652Y-18488D01*
X56652Y-18488D02*
X57558Y-17582D01*
X57558Y-17582D02*
X57558Y-15260D01*
X57558Y-15260D02*
X56298Y-15260D01*
X54665Y-16008D02*
X57223Y-16008D01*
X54685Y-15989D02*
X54960Y-15693D01*
X54960Y-15693D02*
X55354Y-15457D01*
X55354Y-15457D02*
X55689Y-15359D01*
X55689Y-15359D02*
X56199Y-15359D01*
X56199Y-15359D02*
X56573Y-15477D01*
X56573Y-15477D02*
X56947Y-15713D01*
X56947Y-15713D02*
X57203Y-15989D01*
X57203Y-15989D02*
X54704Y-15989D01*
X54704Y-15989D02*
X54685Y-15989D01*
G54D17*
X57043Y-16874D02*
G75*
G03X57043Y-16874I-1098J0D01*
G74*
G01*
G54D16*
X55589Y-18388D02*
G75*
G02X55589Y-15359I355J1514D01*
G74*
G01*
X56300Y-15359D02*
G75*
G02X56300Y-18388I-355J-1514D01*
G74*
G01*
G54D14*
X56038Y-21571D02*
X56038Y-21846D01*
X56038Y-21846D02*
X55764Y-21846D01*
X55764Y-21571D02*
X55764Y-21846D01*
X56038Y-21571D02*
X55764Y-21571D01*
X56038Y-24838D02*
X56038Y-25113D01*
X56038Y-25113D02*
X55764Y-25113D01*
X55764Y-24838D02*
X55764Y-25113D01*
X56038Y-24838D02*
X55764Y-24838D01*
G54D16*
X54287Y-21728D02*
X54287Y-24050D01*
X54287Y-24050D02*
X55193Y-24956D01*
X55193Y-24956D02*
X56609Y-24956D01*
X56609Y-24956D02*
X57515Y-24050D01*
X57515Y-24050D02*
X57515Y-21728D01*
X57515Y-21728D02*
X54287Y-21728D01*
X55547Y-21728D02*
X54287Y-21728D01*
X54287Y-21728D02*
X54287Y-24050D01*
X54287Y-24050D02*
X55193Y-24956D01*
X55193Y-24956D02*
X55547Y-24956D01*
X56255Y-24956D02*
X56609Y-24956D01*
X56609Y-24956D02*
X57515Y-24050D01*
X57515Y-24050D02*
X57515Y-21728D01*
X57515Y-21728D02*
X56255Y-21728D01*
X54622Y-22476D02*
X57180Y-22476D01*
X54642Y-22457D02*
X54917Y-22161D01*
X54917Y-22161D02*
X55311Y-21925D01*
X55311Y-21925D02*
X55646Y-21827D01*
X55646Y-21827D02*
X56156Y-21827D01*
X56156Y-21827D02*
X56530Y-21945D01*
X56530Y-21945D02*
X56904Y-22181D01*
X56904Y-22181D02*
X57160Y-22457D01*
X57160Y-22457D02*
X54661Y-22457D01*
X54661Y-22457D02*
X54642Y-22457D01*
G54D17*
X57000Y-23342D02*
G75*
G03X57000Y-23342I-1098J0D01*
G74*
G01*
G54D16*
X55546Y-24857D02*
G75*
G02X55546Y-21827I355J1514D01*
G74*
G01*
X56256Y-21827D02*
G75*
G02X56256Y-24857I-355J-1514D01*
G74*
G01*
G54D14*
X65219Y-26778D02*
X64944Y-26778D01*
X64944Y-26778D02*
X64944Y-26504D01*
X65219Y-26504D02*
X64944Y-26504D01*
X65219Y-26778D02*
X65219Y-26504D01*
X61952Y-26778D02*
X61677Y-26778D01*
X61677Y-26778D02*
X61677Y-26504D01*
X61952Y-26504D02*
X61677Y-26504D01*
X61952Y-26778D02*
X61952Y-26504D01*
G54D16*
X65062Y-25027D02*
X62740Y-25027D01*
X62740Y-25027D02*
X61834Y-25933D01*
X61834Y-25933D02*
X61834Y-27349D01*
X61834Y-27349D02*
X62740Y-28255D01*
X62740Y-28255D02*
X65062Y-28255D01*
X65062Y-28255D02*
X65062Y-25027D01*
X65062Y-26287D02*
X65062Y-25027D01*
X65062Y-25027D02*
X62740Y-25027D01*
X62740Y-25027D02*
X61834Y-25933D01*
X61834Y-25933D02*
X61834Y-26287D01*
X61834Y-26995D02*
X61834Y-27349D01*
X61834Y-27349D02*
X62740Y-28255D01*
X62740Y-28255D02*
X65062Y-28255D01*
X65062Y-28255D02*
X65062Y-26995D01*
X64314Y-25362D02*
X64314Y-27920D01*
X64333Y-25382D02*
X64629Y-25657D01*
X64629Y-25657D02*
X64865Y-26051D01*
X64865Y-26051D02*
X64963Y-26386D01*
X64963Y-26386D02*
X64963Y-26896D01*
X64963Y-26896D02*
X64845Y-27270D01*
X64845Y-27270D02*
X64609Y-27644D01*
X64609Y-27644D02*
X64333Y-27900D01*
X64333Y-27900D02*
X64333Y-25401D01*
X64333Y-25401D02*
X64333Y-25382D01*
G54D17*
X64547Y-26641D02*
G75*
G03X64547Y-26641I-1098J0D01*
G74*
G01*
G54D16*
X61934Y-26286D02*
G75*
G02X64963Y-26286I1514J-355D01*
G74*
G01*
X64963Y-26997D02*
G75*
G02X61934Y-26997I-1514J355D01*
G74*
G01*
G54D14*
X56066Y-29134D02*
X56066Y-29409D01*
X56066Y-29409D02*
X55792Y-29409D01*
X55792Y-29134D02*
X55792Y-29409D01*
X56066Y-29134D02*
X55792Y-29134D01*
X56066Y-32401D02*
X56066Y-32676D01*
X56066Y-32676D02*
X55792Y-32676D01*
X55792Y-32401D02*
X55792Y-32676D01*
X56066Y-32401D02*
X55792Y-32401D01*
G54D16*
X54315Y-29291D02*
X54315Y-31613D01*
X54315Y-31613D02*
X55221Y-32519D01*
X55221Y-32519D02*
X56637Y-32519D01*
X56637Y-32519D02*
X57543Y-31613D01*
X57543Y-31613D02*
X57543Y-29291D01*
X57543Y-29291D02*
X54315Y-29291D01*
X55575Y-29291D02*
X54315Y-29291D01*
X54315Y-29291D02*
X54315Y-31613D01*
X54315Y-31613D02*
X55221Y-32519D01*
X55221Y-32519D02*
X55575Y-32519D01*
X56283Y-32519D02*
X56637Y-32519D01*
X56637Y-32519D02*
X57543Y-31613D01*
X57543Y-31613D02*
X57543Y-29291D01*
X57543Y-29291D02*
X56283Y-29291D01*
X54650Y-30039D02*
X57208Y-30039D01*
X54670Y-30020D02*
X54945Y-29724D01*
X54945Y-29724D02*
X55339Y-29488D01*
X55339Y-29488D02*
X55674Y-29390D01*
X55674Y-29390D02*
X56184Y-29390D01*
X56184Y-29390D02*
X56558Y-29508D01*
X56558Y-29508D02*
X56932Y-29744D01*
X56932Y-29744D02*
X57188Y-30020D01*
X57188Y-30020D02*
X54689Y-30020D01*
X54689Y-30020D02*
X54670Y-30020D01*
G54D17*
X57027Y-30905D02*
G75*
G03X57027Y-30905I-1098J0D01*
G74*
G01*
G54D16*
X55573Y-32420D02*
G75*
G02X55573Y-29390I355J1514D01*
G74*
G01*
X56284Y-29390D02*
G75*
G02X56284Y-32420I-355J-1514D01*
G74*
G01*
G54D14*
X64507Y-33491D02*
X64270Y-33491D01*
X64270Y-33491D02*
X64270Y-33217D01*
X64507Y-33217D02*
X64270Y-33217D01*
X64507Y-33491D02*
X64507Y-33217D01*
X61870Y-33491D02*
X61633Y-33491D01*
X61633Y-33491D02*
X61633Y-33217D01*
X61870Y-33217D02*
X61633Y-33217D01*
X61870Y-33491D02*
X61870Y-33217D01*
G54D16*
X64349Y-32075D02*
X62460Y-32075D01*
X62460Y-32075D02*
X61791Y-32744D01*
X61791Y-32744D02*
X61791Y-33964D01*
X61791Y-33964D02*
X62460Y-34633D01*
X62460Y-34633D02*
X64349Y-34633D01*
X64349Y-34633D02*
X64349Y-32075D01*
X64349Y-32980D02*
X64349Y-32075D01*
X64349Y-32075D02*
X62460Y-32075D01*
X62460Y-32075D02*
X61791Y-32744D01*
X61791Y-32744D02*
X61791Y-32980D01*
X61791Y-33728D02*
X61791Y-33964D01*
X61791Y-33964D02*
X62460Y-34633D01*
X62460Y-34633D02*
X64349Y-34633D01*
X64349Y-34633D02*
X64349Y-33728D01*
X63896Y-32469D02*
X63896Y-34220D01*
X63916Y-32508D02*
X64093Y-32725D01*
X64093Y-32725D02*
X64211Y-33000D01*
X64211Y-33000D02*
X64270Y-33354D01*
X64270Y-33354D02*
X64211Y-33728D01*
X64211Y-33728D02*
X64073Y-34003D01*
X64073Y-34003D02*
X63916Y-34200D01*
X63916Y-34200D02*
X63916Y-32528D01*
X63916Y-32528D02*
X63916Y-32508D01*
G54D17*
X63933Y-33354D02*
G75*
G03X63933Y-33354I-862J0D01*
G74*
G01*
G54D16*
X61910Y-32979D02*
G75*
G02X64231Y-32979I1160J-374D01*
G74*
G01*
X64231Y-33729D02*
G75*
G02X61910Y-33729I-1160J374D01*
G74*
G01*
G54D14*
X63952Y-20396D02*
X63735Y-20396D01*
X63735Y-20396D02*
X63735Y-20122D01*
X63952Y-20122D02*
X63735Y-20122D01*
X63952Y-20396D02*
X63952Y-20122D01*
X61847Y-20396D02*
X61630Y-20396D01*
X61630Y-20396D02*
X61630Y-20122D01*
X61847Y-20122D02*
X61630Y-20122D01*
X61847Y-20396D02*
X61847Y-20122D01*
G54D16*
X63814Y-19236D02*
X62299Y-19236D01*
X62299Y-19236D02*
X61768Y-19767D01*
X61768Y-19767D02*
X61768Y-20751D01*
X61768Y-20751D02*
X62299Y-21282D01*
X62299Y-21282D02*
X63814Y-21282D01*
X63814Y-21282D02*
X63814Y-19236D01*
X63814Y-19885D02*
X63814Y-19236D01*
X63814Y-19236D02*
X62299Y-19236D01*
X62299Y-19236D02*
X61768Y-19767D01*
X61768Y-19767D02*
X61768Y-19885D01*
X61768Y-20633D02*
X61768Y-20751D01*
X61768Y-20751D02*
X62299Y-21282D01*
X62299Y-21282D02*
X63814Y-21282D01*
X63814Y-21282D02*
X63814Y-20633D01*
X63401Y-19531D02*
X63401Y-20987D01*
X63420Y-19551D02*
X63578Y-19728D01*
X63578Y-19728D02*
X63676Y-19964D01*
X63676Y-19964D02*
X63755Y-20240D01*
X63755Y-20240D02*
X63676Y-20554D01*
X63676Y-20554D02*
X63558Y-20790D01*
X63558Y-20790D02*
X63420Y-20967D01*
X63420Y-20967D02*
X63420Y-19551D01*
G54D17*
X63472Y-20259D02*
G75*
G03X63472Y-20259I-681J0D01*
G74*
G01*
G54D16*
X61886Y-19925D02*
G75*
G02X63696Y-19925I904J-334D01*
G74*
G01*
X63696Y-20594D02*
G75*
G02X61886Y-20594I-904J334D01*
G74*
G01*
G54D18*
X39245Y-14863D02*
X39350Y-14713D01*
X39425Y-14863D02*
X39425Y-14548D01*
X39305Y-14548D01*
X39275Y-14563D01*
X39260Y-14578D01*
X39245Y-14608D01*
X39245Y-14653D01*
X39260Y-14683D01*
X39275Y-14698D01*
X39305Y-14713D01*
X39425Y-14713D01*
X39095Y-14863D02*
X39035Y-14863D01*
X39005Y-14848D01*
X38990Y-14833D01*
X38960Y-14788D01*
X38945Y-14728D01*
X38945Y-14608D01*
X38960Y-14578D01*
X38975Y-14563D01*
X39005Y-14548D01*
X39065Y-14548D01*
X39095Y-14563D01*
X39110Y-14578D01*
X39125Y-14608D01*
X39125Y-14683D01*
X39110Y-14713D01*
X39095Y-14728D01*
X39065Y-14743D01*
X39005Y-14743D01*
X38975Y-14728D01*
X38960Y-14713D01*
X38945Y-14683D01*
X39304Y-15340D02*
X39484Y-15340D01*
X39394Y-15340D02*
X39394Y-15025D01*
X39424Y-15070D01*
X39454Y-15100D01*
X39484Y-15115D01*
X39109Y-15025D02*
X39079Y-15025D01*
X39049Y-15040D01*
X39034Y-15055D01*
X39019Y-15085D01*
X39004Y-15145D01*
X39004Y-15220D01*
X39019Y-15280D01*
X39034Y-15310D01*
X39049Y-15325D01*
X39079Y-15340D01*
X39109Y-15340D01*
X39139Y-15325D01*
X39154Y-15310D01*
X39169Y-15280D01*
X39184Y-15220D01*
X39184Y-15145D01*
X39169Y-15085D01*
X39154Y-15055D01*
X39139Y-15040D01*
X39109Y-15025D01*
X38869Y-15340D02*
X38869Y-15025D01*
X38689Y-15340D02*
X38824Y-15160D01*
X38689Y-15025D02*
X38869Y-15205D01*
X57643Y-25147D02*
X57748Y-24997D01*
X57823Y-25147D02*
X57823Y-24832D01*
X57703Y-24832D01*
X57673Y-24847D01*
X57658Y-24862D01*
X57643Y-24892D01*
X57643Y-24937D01*
X57658Y-24967D01*
X57673Y-24982D01*
X57703Y-24997D01*
X57823Y-24997D01*
X57343Y-25147D02*
X57523Y-25147D01*
X57433Y-25147D02*
X57433Y-24832D01*
X57463Y-24877D01*
X57493Y-24907D01*
X57523Y-24922D01*
X57238Y-24832D02*
X57043Y-24832D01*
X57148Y-24952D01*
X57103Y-24952D01*
X57073Y-24967D01*
X57058Y-24982D01*
X57043Y-25012D01*
X57043Y-25087D01*
X57058Y-25117D01*
X57073Y-25132D01*
X57103Y-25147D01*
X57193Y-25147D01*
X57223Y-25132D01*
X57238Y-25117D01*
X56623Y-25252D02*
X56623Y-25462D01*
X56938Y-25327D01*
X56623Y-25717D02*
X56623Y-25657D01*
X56638Y-25627D01*
X56653Y-25612D01*
X56698Y-25582D01*
X56758Y-25567D01*
X56878Y-25567D01*
X56908Y-25582D01*
X56923Y-25597D01*
X56938Y-25627D01*
X56938Y-25687D01*
X56923Y-25717D01*
X56908Y-25732D01*
X56878Y-25747D01*
X56803Y-25747D01*
X56773Y-25732D01*
X56758Y-25717D01*
X56743Y-25687D01*
X56743Y-25627D01*
X56758Y-25597D01*
X56773Y-25582D01*
X56803Y-25567D01*
X56908Y-25882D02*
X56923Y-25897D01*
X56938Y-25882D01*
X56923Y-25867D01*
X56908Y-25882D01*
X56938Y-25882D01*
X56758Y-26077D02*
X56743Y-26047D01*
X56728Y-26032D01*
X56698Y-26017D01*
X56683Y-26017D01*
X56653Y-26032D01*
X56638Y-26047D01*
X56623Y-26077D01*
X56623Y-26137D01*
X56638Y-26167D01*
X56653Y-26182D01*
X56683Y-26197D01*
X56698Y-26197D01*
X56728Y-26182D01*
X56743Y-26167D01*
X56758Y-26137D01*
X56758Y-26077D01*
X56773Y-26047D01*
X56788Y-26032D01*
X56818Y-26017D01*
X56878Y-26017D01*
X56908Y-26032D01*
X56923Y-26047D01*
X56938Y-26077D01*
X56938Y-26137D01*
X56923Y-26167D01*
X56908Y-26182D01*
X56878Y-26197D01*
X56818Y-26197D01*
X56788Y-26182D01*
X56773Y-26167D01*
X56758Y-26137D01*
X56938Y-26332D02*
X56623Y-26332D01*
X56938Y-26512D02*
X56758Y-26377D01*
X56623Y-26512D02*
X56803Y-26332D01*
X60962Y-23694D02*
X61067Y-23544D01*
X61142Y-23694D02*
X61142Y-23379D01*
X61022Y-23379D01*
X60992Y-23394D01*
X60977Y-23409D01*
X60962Y-23439D01*
X60962Y-23484D01*
X60977Y-23514D01*
X60992Y-23529D01*
X61022Y-23544D01*
X61142Y-23544D01*
X60662Y-23694D02*
X60842Y-23694D01*
X60752Y-23694D02*
X60752Y-23379D01*
X60782Y-23424D01*
X60812Y-23454D01*
X60842Y-23469D01*
X60392Y-23484D02*
X60392Y-23694D01*
X60467Y-23364D02*
X60542Y-23589D01*
X60347Y-23589D01*
X59832Y-23682D02*
X59923Y-23551D01*
X59989Y-23682D02*
X59989Y-23406D01*
X59884Y-23406D01*
X59858Y-23419D01*
X59845Y-23433D01*
X59832Y-23459D01*
X59832Y-23498D01*
X59845Y-23524D01*
X59858Y-23538D01*
X59884Y-23551D01*
X59989Y-23551D01*
X59569Y-23682D02*
X59727Y-23682D01*
X59648Y-23682D02*
X59648Y-23406D01*
X59674Y-23446D01*
X59700Y-23472D01*
X59727Y-23485D01*
X59333Y-23498D02*
X59333Y-23682D01*
X59398Y-23393D02*
X59464Y-23590D01*
X59293Y-23590D01*
X59215Y-23406D02*
X59031Y-23406D01*
X59149Y-23682D01*
X58926Y-23682D02*
X58926Y-23406D01*
X58769Y-23682D02*
X58887Y-23524D01*
X58769Y-23406D02*
X58926Y-23564D01*
X61151Y-17284D02*
X61256Y-17134D01*
X61331Y-17284D02*
X61331Y-16970D01*
X61211Y-16970D01*
X61181Y-16985D01*
X61166Y-17000D01*
X61151Y-17029D01*
X61151Y-17074D01*
X61166Y-17104D01*
X61181Y-17119D01*
X61211Y-17134D01*
X61331Y-17134D01*
X60851Y-17284D02*
X61031Y-17284D01*
X60941Y-17284D02*
X60941Y-16970D01*
X60971Y-17014D01*
X61001Y-17044D01*
X61031Y-17059D01*
X60671Y-17104D02*
X60701Y-17089D01*
X60716Y-17074D01*
X60731Y-17044D01*
X60731Y-17029D01*
X60716Y-17000D01*
X60701Y-16985D01*
X60671Y-16970D01*
X60611Y-16970D01*
X60581Y-16985D01*
X60566Y-17000D01*
X60551Y-17029D01*
X60551Y-17044D01*
X60566Y-17074D01*
X60581Y-17089D01*
X60611Y-17104D01*
X60671Y-17104D01*
X60701Y-17119D01*
X60716Y-17134D01*
X60731Y-17164D01*
X60731Y-17224D01*
X60716Y-17254D01*
X60701Y-17269D01*
X60671Y-17284D01*
X60611Y-17284D01*
X60581Y-17269D01*
X60566Y-17254D01*
X60551Y-17224D01*
X60551Y-17164D01*
X60566Y-17134D01*
X60581Y-17119D01*
X60611Y-17104D01*
X59694Y-17265D02*
X59874Y-17265D01*
X59784Y-17265D02*
X59784Y-16950D01*
X59814Y-16995D01*
X59844Y-17025D01*
X59874Y-17040D01*
X59424Y-17055D02*
X59424Y-17265D01*
X59499Y-16935D02*
X59574Y-17160D01*
X59379Y-17160D01*
X59289Y-16950D02*
X59079Y-16950D01*
X59214Y-17265D01*
X58959Y-17265D02*
X58959Y-16950D01*
X58779Y-17265D02*
X58914Y-17085D01*
X58779Y-16950D02*
X58959Y-17130D01*
X56785Y-19281D02*
X56890Y-19131D01*
X56965Y-19281D02*
X56965Y-18966D01*
X56845Y-18966D01*
X56815Y-18981D01*
X56800Y-18996D01*
X56785Y-19026D01*
X56785Y-19071D01*
X56800Y-19101D01*
X56815Y-19116D01*
X56845Y-19131D01*
X56965Y-19131D01*
X56485Y-19281D02*
X56665Y-19281D01*
X56575Y-19281D02*
X56575Y-18966D01*
X56605Y-19011D01*
X56635Y-19041D01*
X56665Y-19056D01*
X56380Y-18966D02*
X56170Y-18966D01*
X56305Y-19281D01*
X57018Y-19772D02*
X56834Y-19772D01*
X56952Y-20048D01*
X56611Y-19772D02*
X56664Y-19772D01*
X56690Y-19786D01*
X56703Y-19799D01*
X56729Y-19838D01*
X56742Y-19891D01*
X56742Y-19996D01*
X56729Y-20022D01*
X56716Y-20035D01*
X56690Y-20048D01*
X56637Y-20048D01*
X56611Y-20035D01*
X56598Y-20022D01*
X56585Y-19996D01*
X56585Y-19930D01*
X56598Y-19904D01*
X56611Y-19891D01*
X56637Y-19877D01*
X56690Y-19877D01*
X56716Y-19891D01*
X56729Y-19904D01*
X56742Y-19930D01*
X56467Y-20022D02*
X56454Y-20035D01*
X56467Y-20048D01*
X56480Y-20035D01*
X56467Y-20022D01*
X56467Y-20048D01*
X56296Y-19891D02*
X56322Y-19877D01*
X56335Y-19864D01*
X56349Y-19838D01*
X56349Y-19825D01*
X56335Y-19799D01*
X56322Y-19786D01*
X56296Y-19772D01*
X56244Y-19772D01*
X56217Y-19786D01*
X56204Y-19799D01*
X56191Y-19825D01*
X56191Y-19838D01*
X56204Y-19864D01*
X56217Y-19877D01*
X56244Y-19891D01*
X56296Y-19891D01*
X56322Y-19904D01*
X56335Y-19917D01*
X56349Y-19943D01*
X56349Y-19996D01*
X56335Y-20022D01*
X56322Y-20035D01*
X56296Y-20048D01*
X56244Y-20048D01*
X56217Y-20035D01*
X56204Y-20022D01*
X56191Y-19996D01*
X56191Y-19943D01*
X56204Y-19917D01*
X56217Y-19904D01*
X56244Y-19891D01*
X56073Y-20048D02*
X56073Y-19772D01*
X55916Y-20048D02*
X56034Y-19891D01*
X55916Y-19772D02*
X56073Y-19930D01*
X39324Y-13489D02*
X39429Y-13339D01*
X39504Y-13489D02*
X39504Y-13174D01*
X39384Y-13174D01*
X39354Y-13189D01*
X39339Y-13204D01*
X39324Y-13234D01*
X39324Y-13279D01*
X39339Y-13309D01*
X39354Y-13324D01*
X39384Y-13339D01*
X39504Y-13339D01*
X39024Y-13489D02*
X39204Y-13489D01*
X39114Y-13489D02*
X39114Y-13174D01*
X39144Y-13219D01*
X39174Y-13249D01*
X39204Y-13264D01*
X38829Y-13174D02*
X38799Y-13174D01*
X38769Y-13189D01*
X38754Y-13204D01*
X38739Y-13234D01*
X38724Y-13294D01*
X38724Y-13369D01*
X38739Y-13429D01*
X38754Y-13459D01*
X38769Y-13474D01*
X38799Y-13489D01*
X38829Y-13489D01*
X38859Y-13474D01*
X38874Y-13459D01*
X38889Y-13429D01*
X38904Y-13369D01*
X38904Y-13294D01*
X38889Y-13234D01*
X38874Y-13204D01*
X38859Y-13189D01*
X38829Y-13174D01*
X39374Y-13958D02*
X39554Y-13958D01*
X39464Y-13958D02*
X39464Y-13643D01*
X39494Y-13688D01*
X39524Y-13718D01*
X39554Y-13733D01*
X39179Y-13643D02*
X39149Y-13643D01*
X39119Y-13658D01*
X39104Y-13673D01*
X39089Y-13703D01*
X39074Y-13763D01*
X39074Y-13838D01*
X39089Y-13898D01*
X39104Y-13928D01*
X39119Y-13943D01*
X39149Y-13958D01*
X39179Y-13958D01*
X39209Y-13943D01*
X39224Y-13928D01*
X39239Y-13898D01*
X39254Y-13838D01*
X39254Y-13763D01*
X39239Y-13703D01*
X39224Y-13673D01*
X39209Y-13658D01*
X39179Y-13643D01*
X38940Y-13958D02*
X38940Y-13643D01*
X38760Y-13958D02*
X38895Y-13778D01*
X38760Y-13643D02*
X38940Y-13823D01*
X46466Y-22155D02*
X46316Y-22050D01*
X46466Y-21975D02*
X46151Y-21975D01*
X46151Y-22095D01*
X46166Y-22125D01*
X46181Y-22140D01*
X46211Y-22155D01*
X46256Y-22155D01*
X46286Y-22140D01*
X46301Y-22125D01*
X46316Y-22095D01*
X46316Y-21975D01*
X46466Y-22455D02*
X46466Y-22275D01*
X46466Y-22365D02*
X46151Y-22365D01*
X46196Y-22335D01*
X46226Y-22305D01*
X46241Y-22275D01*
X46466Y-22755D02*
X46466Y-22575D01*
X46466Y-22665D02*
X46151Y-22665D01*
X46196Y-22635D01*
X46226Y-22605D01*
X46241Y-22575D01*
X46477Y-20738D02*
X46327Y-20633D01*
X46477Y-20558D02*
X46162Y-20558D01*
X46162Y-20678D01*
X46177Y-20708D01*
X46192Y-20723D01*
X46222Y-20738D01*
X46267Y-20738D01*
X46297Y-20723D01*
X46312Y-20708D01*
X46327Y-20678D01*
X46327Y-20558D01*
X46477Y-21038D02*
X46477Y-20858D01*
X46477Y-20948D02*
X46162Y-20948D01*
X46207Y-20918D01*
X46237Y-20888D01*
X46252Y-20858D01*
X46192Y-21158D02*
X46177Y-21173D01*
X46162Y-21203D01*
X46162Y-21278D01*
X46177Y-21308D01*
X46192Y-21323D01*
X46222Y-21338D01*
X46252Y-21338D01*
X46297Y-21323D01*
X46477Y-21143D01*
X46477Y-21338D01*
X46047Y-21788D02*
X46227Y-21788D01*
X46137Y-21788D02*
X46137Y-21473D01*
X46167Y-21518D01*
X46197Y-21548D01*
X46227Y-21563D01*
X45912Y-21788D02*
X45912Y-21473D01*
X45732Y-21788D02*
X45867Y-21608D01*
X45732Y-21473D02*
X45912Y-21653D01*
X51123Y-19859D02*
X51228Y-19709D01*
X51303Y-19859D02*
X51303Y-19544D01*
X51183Y-19544D01*
X51153Y-19559D01*
X51138Y-19574D01*
X51123Y-19604D01*
X51123Y-19649D01*
X51138Y-19679D01*
X51153Y-19694D01*
X51183Y-19709D01*
X51303Y-19709D01*
X50943Y-19679D02*
X50973Y-19664D01*
X50988Y-19649D01*
X51003Y-19619D01*
X51003Y-19604D01*
X50988Y-19574D01*
X50973Y-19559D01*
X50943Y-19544D01*
X50883Y-19544D01*
X50853Y-19559D01*
X50838Y-19574D01*
X50823Y-19604D01*
X50823Y-19619D01*
X50838Y-19649D01*
X50853Y-19664D01*
X50883Y-19679D01*
X50943Y-19679D01*
X50973Y-19694D01*
X50988Y-19709D01*
X51003Y-19739D01*
X51003Y-19799D01*
X50988Y-19829D01*
X50973Y-19844D01*
X50943Y-19859D01*
X50883Y-19859D01*
X50853Y-19844D01*
X50838Y-19829D01*
X50823Y-19799D01*
X50823Y-19739D01*
X50838Y-19709D01*
X50853Y-19694D01*
X50883Y-19679D01*
X51623Y-20312D02*
X51803Y-20312D01*
X51713Y-20312D02*
X51713Y-19997D01*
X51743Y-20042D01*
X51773Y-20072D01*
X51803Y-20087D01*
X51488Y-20282D02*
X51473Y-20297D01*
X51488Y-20312D01*
X51503Y-20297D01*
X51488Y-20282D01*
X51488Y-20312D01*
X51188Y-19997D02*
X51338Y-19997D01*
X51353Y-20147D01*
X51338Y-20132D01*
X51308Y-20117D01*
X51233Y-20117D01*
X51203Y-20132D01*
X51188Y-20147D01*
X51173Y-20177D01*
X51173Y-20252D01*
X51188Y-20282D01*
X51203Y-20297D01*
X51233Y-20312D01*
X51308Y-20312D01*
X51338Y-20297D01*
X51353Y-20282D01*
X51038Y-20312D02*
X51038Y-19997D01*
X50858Y-20312D02*
X50993Y-20132D01*
X50858Y-19997D02*
X51038Y-20177D01*
X51080Y-18652D02*
X51095Y-18667D01*
X51140Y-18682D01*
X51170Y-18682D01*
X51215Y-18667D01*
X51245Y-18637D01*
X51260Y-18607D01*
X51275Y-18547D01*
X51275Y-18502D01*
X51260Y-18442D01*
X51245Y-18412D01*
X51215Y-18382D01*
X51170Y-18367D01*
X51140Y-18367D01*
X51095Y-18382D01*
X51080Y-18397D01*
X50780Y-18682D02*
X50960Y-18682D01*
X50870Y-18682D02*
X50870Y-18367D01*
X50900Y-18412D01*
X50930Y-18442D01*
X50960Y-18457D01*
X50510Y-18367D02*
X50570Y-18367D01*
X50600Y-18382D01*
X50615Y-18397D01*
X50645Y-18442D01*
X50660Y-18502D01*
X50660Y-18622D01*
X50645Y-18652D01*
X50630Y-18667D01*
X50600Y-18682D01*
X50540Y-18682D01*
X50510Y-18667D01*
X50495Y-18652D01*
X50480Y-18622D01*
X50480Y-18547D01*
X50495Y-18517D01*
X50510Y-18502D01*
X50540Y-18487D01*
X50600Y-18487D01*
X50630Y-18502D01*
X50645Y-18517D01*
X50660Y-18547D01*
X51668Y-18951D02*
X51698Y-18936D01*
X51713Y-18921D01*
X51728Y-18891D01*
X51728Y-18876D01*
X51713Y-18846D01*
X51698Y-18831D01*
X51668Y-18816D01*
X51608Y-18816D01*
X51578Y-18831D01*
X51563Y-18846D01*
X51548Y-18876D01*
X51548Y-18891D01*
X51563Y-18921D01*
X51578Y-18936D01*
X51608Y-18951D01*
X51668Y-18951D01*
X51698Y-18966D01*
X51713Y-18981D01*
X51728Y-19011D01*
X51728Y-19071D01*
X51713Y-19101D01*
X51698Y-19116D01*
X51668Y-19131D01*
X51608Y-19131D01*
X51578Y-19116D01*
X51563Y-19101D01*
X51548Y-19071D01*
X51548Y-19011D01*
X51563Y-18981D01*
X51578Y-18966D01*
X51608Y-18951D01*
X51428Y-18846D02*
X51413Y-18831D01*
X51383Y-18816D01*
X51308Y-18816D01*
X51278Y-18831D01*
X51263Y-18846D01*
X51248Y-18876D01*
X51248Y-18906D01*
X51263Y-18951D01*
X51443Y-19131D01*
X51248Y-19131D01*
X51113Y-18921D02*
X51113Y-19131D01*
X51113Y-18951D02*
X51098Y-18936D01*
X51068Y-18921D01*
X51023Y-18921D01*
X50993Y-18936D01*
X50978Y-18966D01*
X50978Y-19131D01*
X50873Y-18921D02*
X50753Y-18921D01*
X50828Y-19131D02*
X50828Y-18861D01*
X50813Y-18831D01*
X50783Y-18816D01*
X50753Y-18816D01*
X51442Y-20999D02*
X51457Y-21014D01*
X51502Y-21029D01*
X51532Y-21029D01*
X51577Y-21014D01*
X51607Y-20984D01*
X51622Y-20954D01*
X51637Y-20894D01*
X51637Y-20849D01*
X51622Y-20789D01*
X51607Y-20759D01*
X51577Y-20729D01*
X51532Y-20714D01*
X51502Y-20714D01*
X51457Y-20729D01*
X51442Y-20744D01*
X51142Y-21029D02*
X51322Y-21029D01*
X51232Y-21029D02*
X51232Y-20714D01*
X51262Y-20759D01*
X51292Y-20789D01*
X51322Y-20804D01*
X50857Y-20714D02*
X51007Y-20714D01*
X51022Y-20864D01*
X51007Y-20849D01*
X50977Y-20834D01*
X50902Y-20834D01*
X50872Y-20849D01*
X50857Y-20864D01*
X50842Y-20894D01*
X50842Y-20969D01*
X50857Y-20999D01*
X50872Y-21014D01*
X50902Y-21029D01*
X50977Y-21029D01*
X51007Y-21014D01*
X51022Y-20999D01*
X51538Y-21353D02*
X51568Y-21338D01*
X51583Y-21323D01*
X51598Y-21293D01*
X51598Y-21278D01*
X51583Y-21248D01*
X51568Y-21233D01*
X51538Y-21218D01*
X51478Y-21218D01*
X51448Y-21233D01*
X51433Y-21248D01*
X51418Y-21278D01*
X51418Y-21293D01*
X51433Y-21323D01*
X51448Y-21338D01*
X51478Y-21353D01*
X51538Y-21353D01*
X51568Y-21368D01*
X51583Y-21383D01*
X51598Y-21413D01*
X51598Y-21473D01*
X51583Y-21502D01*
X51568Y-21517D01*
X51538Y-21532D01*
X51478Y-21532D01*
X51448Y-21517D01*
X51433Y-21502D01*
X51418Y-21473D01*
X51418Y-21413D01*
X51433Y-21383D01*
X51448Y-21368D01*
X51478Y-21353D01*
X51283Y-21502D02*
X51268Y-21517D01*
X51283Y-21532D01*
X51298Y-21517D01*
X51283Y-21502D01*
X51283Y-21532D01*
X51148Y-21248D02*
X51133Y-21233D01*
X51103Y-21218D01*
X51028Y-21218D01*
X50998Y-21233D01*
X50983Y-21248D01*
X50968Y-21278D01*
X50968Y-21308D01*
X50983Y-21353D01*
X51163Y-21532D01*
X50968Y-21532D01*
X50833Y-21323D02*
X50833Y-21532D01*
X50833Y-21353D02*
X50818Y-21338D01*
X50788Y-21323D01*
X50743Y-21323D01*
X50713Y-21338D01*
X50698Y-21368D01*
X50698Y-21532D01*
X50593Y-21323D02*
X50473Y-21323D01*
X50548Y-21532D02*
X50548Y-21263D01*
X50533Y-21233D01*
X50503Y-21218D01*
X50473Y-21218D01*
G54D19*
X59308Y-32335D02*
X59713Y-32335D01*
X59761Y-32359D01*
X59784Y-32383D01*
X59808Y-32430D01*
X59808Y-32526D01*
X59784Y-32573D01*
X59761Y-32597D01*
X59713Y-32621D01*
X59308Y-32621D01*
X59808Y-33121D02*
X59808Y-32835D01*
X59808Y-32978D02*
X59308Y-32978D01*
X59380Y-32930D01*
X59427Y-32883D01*
X59451Y-32835D01*
G54D18*
X61469Y-35571D02*
X61230Y-35571D01*
X61516Y-35714D02*
X61350Y-35214D01*
X61183Y-35714D01*
X61016Y-35714D02*
X61016Y-35214D01*
X60897Y-35214D01*
X60826Y-35238D01*
X60778Y-35285D01*
X60754Y-35333D01*
X60730Y-35428D01*
X60730Y-35499D01*
X60754Y-35595D01*
X60778Y-35642D01*
X60826Y-35690D01*
X60897Y-35714D01*
X61016Y-35714D01*
X60516Y-35714D02*
X60516Y-35214D01*
X60326Y-35214D01*
X60278Y-35238D01*
X60254Y-35261D01*
X60230Y-35309D01*
X60230Y-35380D01*
X60254Y-35428D01*
X60278Y-35452D01*
X60326Y-35476D01*
X60516Y-35476D01*
X60064Y-35214D02*
X59754Y-35214D01*
X59921Y-35404D01*
X59850Y-35404D01*
X59802Y-35428D01*
X59778Y-35452D01*
X59754Y-35499D01*
X59754Y-35618D01*
X59778Y-35666D01*
X59802Y-35690D01*
X59850Y-35714D01*
X59992Y-35714D01*
X60040Y-35690D01*
X60064Y-35666D01*
X59588Y-35214D02*
X59278Y-35214D01*
X59445Y-35404D01*
X59373Y-35404D01*
X59326Y-35428D01*
X59302Y-35452D01*
X59278Y-35499D01*
X59278Y-35618D01*
X59302Y-35666D01*
X59326Y-35690D01*
X59373Y-35714D01*
X59516Y-35714D01*
X59564Y-35690D01*
X59588Y-35666D01*
X58969Y-35214D02*
X58921Y-35214D01*
X58873Y-35238D01*
X58850Y-35261D01*
X58826Y-35309D01*
X58802Y-35404D01*
X58802Y-35523D01*
X58826Y-35618D01*
X58850Y-35666D01*
X58873Y-35690D01*
X58921Y-35714D01*
X58969Y-35714D01*
X59016Y-35690D01*
X59040Y-35666D01*
X59064Y-35618D01*
X59088Y-35523D01*
X59088Y-35404D01*
X59064Y-35309D01*
X59040Y-35261D01*
X59016Y-35238D01*
X58969Y-35214D01*
X58635Y-35214D02*
X58326Y-35214D01*
X58492Y-35404D01*
X58421Y-35404D01*
X58373Y-35428D01*
X58350Y-35452D01*
X58326Y-35499D01*
X58326Y-35618D01*
X58350Y-35666D01*
X58373Y-35690D01*
X58421Y-35714D01*
X58564Y-35714D01*
X58611Y-35690D01*
X58635Y-35666D01*
X58111Y-35523D02*
X57730Y-35523D01*
X57540Y-35214D02*
X57230Y-35214D01*
X57397Y-35404D01*
X57326Y-35404D01*
X57278Y-35428D01*
X57254Y-35452D01*
X57230Y-35499D01*
X57230Y-35618D01*
X57254Y-35666D01*
X57278Y-35690D01*
X57326Y-35714D01*
X57469Y-35714D01*
X57516Y-35690D01*
X57540Y-35666D01*
X57088Y-35214D02*
X56921Y-35714D01*
X56754Y-35214D01*
X56635Y-35214D02*
X56326Y-35214D01*
X56492Y-35404D01*
X56421Y-35404D01*
X56373Y-35428D01*
X56350Y-35452D01*
X56326Y-35499D01*
X56326Y-35618D01*
X56350Y-35666D01*
X56373Y-35690D01*
X56421Y-35714D01*
X56564Y-35714D01*
X56611Y-35690D01*
X56635Y-35666D01*
G54D19*
X59348Y-25485D02*
X59752Y-25485D01*
X59800Y-25508D01*
X59824Y-25532D01*
X59848Y-25580D01*
X59848Y-25675D01*
X59824Y-25723D01*
X59800Y-25747D01*
X59752Y-25770D01*
X59348Y-25770D01*
X59395Y-25985D02*
X59371Y-26008D01*
X59348Y-26056D01*
X59348Y-26175D01*
X59371Y-26223D01*
X59395Y-26247D01*
X59443Y-26270D01*
X59490Y-26270D01*
X59562Y-26247D01*
X59848Y-25961D01*
X59848Y-26270D01*
G54D18*
X61020Y-28681D02*
X60782Y-28681D01*
X61067Y-28824D02*
X60901Y-28324D01*
X60734Y-28824D01*
X60567Y-28824D02*
X60567Y-28324D01*
X60448Y-28324D01*
X60377Y-28348D01*
X60329Y-28395D01*
X60305Y-28443D01*
X60282Y-28538D01*
X60282Y-28610D01*
X60305Y-28705D01*
X60329Y-28752D01*
X60377Y-28800D01*
X60448Y-28824D01*
X60567Y-28824D01*
X60067Y-28824D02*
X60067Y-28324D01*
X59877Y-28324D01*
X59829Y-28348D01*
X59805Y-28372D01*
X59782Y-28419D01*
X59782Y-28491D01*
X59805Y-28538D01*
X59829Y-28562D01*
X59877Y-28586D01*
X60067Y-28586D01*
X59615Y-28324D02*
X59305Y-28324D01*
X59472Y-28514D01*
X59401Y-28514D01*
X59353Y-28538D01*
X59329Y-28562D01*
X59305Y-28610D01*
X59305Y-28729D01*
X59329Y-28776D01*
X59353Y-28800D01*
X59401Y-28824D01*
X59544Y-28824D01*
X59591Y-28800D01*
X59615Y-28776D01*
X59139Y-28324D02*
X58829Y-28324D01*
X58996Y-28514D01*
X58925Y-28514D01*
X58877Y-28538D01*
X58853Y-28562D01*
X58829Y-28610D01*
X58829Y-28729D01*
X58853Y-28776D01*
X58877Y-28800D01*
X58925Y-28824D01*
X59067Y-28824D01*
X59115Y-28800D01*
X59139Y-28776D01*
X58663Y-28324D02*
X58353Y-28324D01*
X58520Y-28514D01*
X58448Y-28514D01*
X58401Y-28538D01*
X58377Y-28562D01*
X58353Y-28610D01*
X58353Y-28729D01*
X58377Y-28776D01*
X58401Y-28800D01*
X58448Y-28824D01*
X58591Y-28824D01*
X58639Y-28800D01*
X58663Y-28776D01*
X57925Y-28491D02*
X57925Y-28824D01*
X58044Y-28300D02*
X58163Y-28657D01*
X57853Y-28657D01*
G54D19*
X59348Y-19107D02*
X59752Y-19107D01*
X59800Y-19131D01*
X59824Y-19154D01*
X59848Y-19202D01*
X59848Y-19297D01*
X59824Y-19345D01*
X59800Y-19369D01*
X59752Y-19392D01*
X59348Y-19392D01*
X59514Y-19845D02*
X59848Y-19845D01*
X59324Y-19726D02*
X59681Y-19607D01*
X59681Y-19916D01*
G54D18*
X61020Y-22106D02*
X60782Y-22106D01*
X61067Y-22249D02*
X60901Y-21749D01*
X60734Y-22249D01*
X60567Y-22249D02*
X60567Y-21749D01*
X60448Y-21749D01*
X60377Y-21773D01*
X60329Y-21821D01*
X60305Y-21868D01*
X60282Y-21963D01*
X60282Y-22035D01*
X60305Y-22130D01*
X60329Y-22178D01*
X60377Y-22225D01*
X60448Y-22249D01*
X60567Y-22249D01*
X60067Y-22249D02*
X60067Y-21749D01*
X59877Y-21749D01*
X59829Y-21773D01*
X59805Y-21797D01*
X59782Y-21844D01*
X59782Y-21916D01*
X59805Y-21963D01*
X59829Y-21987D01*
X59877Y-22011D01*
X60067Y-22011D01*
X59615Y-21749D02*
X59305Y-21749D01*
X59472Y-21940D01*
X59401Y-21940D01*
X59353Y-21963D01*
X59329Y-21987D01*
X59305Y-22035D01*
X59305Y-22154D01*
X59329Y-22202D01*
X59353Y-22225D01*
X59401Y-22249D01*
X59544Y-22249D01*
X59591Y-22225D01*
X59615Y-22202D01*
X59139Y-21749D02*
X58829Y-21749D01*
X58996Y-21940D01*
X58925Y-21940D01*
X58877Y-21963D01*
X58853Y-21987D01*
X58829Y-22035D01*
X58829Y-22154D01*
X58853Y-22202D01*
X58877Y-22225D01*
X58925Y-22249D01*
X59067Y-22249D01*
X59115Y-22225D01*
X59139Y-22202D01*
X58663Y-21749D02*
X58353Y-21749D01*
X58520Y-21940D01*
X58448Y-21940D01*
X58401Y-21963D01*
X58377Y-21987D01*
X58353Y-22035D01*
X58353Y-22154D01*
X58377Y-22202D01*
X58401Y-22225D01*
X58448Y-22249D01*
X58591Y-22249D01*
X58639Y-22225D01*
X58663Y-22202D01*
X57925Y-21916D02*
X57925Y-22249D01*
X58044Y-21725D02*
X58163Y-22082D01*
X57853Y-22082D01*
X46749Y-25022D02*
X46764Y-25037D01*
X46809Y-25052D01*
X46839Y-25052D01*
X46884Y-25037D01*
X46914Y-25007D01*
X46929Y-24977D01*
X46944Y-24917D01*
X46944Y-24872D01*
X46929Y-24812D01*
X46914Y-24782D01*
X46884Y-24752D01*
X46839Y-24737D01*
X46809Y-24737D01*
X46764Y-24752D01*
X46749Y-24767D01*
X46644Y-24737D02*
X46449Y-24737D01*
X46554Y-24857D01*
X46509Y-24857D01*
X46479Y-24872D01*
X46464Y-24887D01*
X46449Y-24917D01*
X46449Y-24992D01*
X46464Y-25022D01*
X46479Y-25037D01*
X46509Y-25052D01*
X46599Y-25052D01*
X46629Y-25037D01*
X46644Y-25022D01*
X45194Y-24909D02*
X45194Y-24939D01*
X45209Y-24969D01*
X45224Y-24984D01*
X45254Y-24999D01*
X45314Y-25014D01*
X45389Y-25014D01*
X45449Y-24999D01*
X45479Y-24984D01*
X45494Y-24969D01*
X45509Y-24939D01*
X45509Y-24909D01*
X45494Y-24879D01*
X45479Y-24864D01*
X45449Y-24849D01*
X45389Y-24834D01*
X45314Y-24834D01*
X45254Y-24849D01*
X45224Y-24864D01*
X45209Y-24879D01*
X45194Y-24909D01*
X45479Y-25149D02*
X45494Y-25164D01*
X45509Y-25149D01*
X45494Y-25134D01*
X45479Y-25149D01*
X45509Y-25149D01*
X45509Y-25464D02*
X45509Y-25284D01*
X45509Y-25374D02*
X45194Y-25374D01*
X45239Y-25344D01*
X45269Y-25314D01*
X45284Y-25284D01*
X45299Y-25734D02*
X45509Y-25734D01*
X45299Y-25599D02*
X45464Y-25599D01*
X45494Y-25614D01*
X45509Y-25644D01*
X45509Y-25689D01*
X45494Y-25719D01*
X45479Y-25734D01*
X45299Y-25839D02*
X45299Y-25959D01*
X45509Y-25884D02*
X45239Y-25884D01*
X45209Y-25899D01*
X45194Y-25929D01*
X45194Y-25959D01*
X47869Y-20915D02*
X47884Y-20900D01*
X47899Y-20855D01*
X47899Y-20825D01*
X47884Y-20780D01*
X47854Y-20750D01*
X47824Y-20735D01*
X47764Y-20720D01*
X47719Y-20720D01*
X47659Y-20735D01*
X47629Y-20750D01*
X47599Y-20780D01*
X47584Y-20825D01*
X47584Y-20855D01*
X47599Y-20900D01*
X47614Y-20915D01*
X47899Y-21215D02*
X47899Y-21035D01*
X47899Y-21125D02*
X47584Y-21125D01*
X47629Y-21095D01*
X47659Y-21065D01*
X47674Y-21035D01*
X47719Y-21395D02*
X47704Y-21365D01*
X47689Y-21350D01*
X47659Y-21335D01*
X47644Y-21335D01*
X47614Y-21350D01*
X47599Y-21365D01*
X47584Y-21395D01*
X47584Y-21455D01*
X47599Y-21485D01*
X47614Y-21500D01*
X47644Y-21515D01*
X47659Y-21515D01*
X47689Y-21500D01*
X47704Y-21485D01*
X47719Y-21455D01*
X47719Y-21395D01*
X47734Y-21365D01*
X47749Y-21350D01*
X47779Y-21335D01*
X47839Y-21335D01*
X47869Y-21350D01*
X47884Y-21365D01*
X47899Y-21395D01*
X47899Y-21455D01*
X47884Y-21485D01*
X47869Y-21500D01*
X47839Y-21515D01*
X47779Y-21515D01*
X47749Y-21500D01*
X47734Y-21485D01*
X47719Y-21455D01*
X47908Y-21856D02*
X47923Y-21841D01*
X47938Y-21796D01*
X47938Y-21766D01*
X47923Y-21721D01*
X47893Y-21691D01*
X47863Y-21676D01*
X47803Y-21661D01*
X47758Y-21661D01*
X47698Y-21676D01*
X47668Y-21691D01*
X47638Y-21721D01*
X47623Y-21766D01*
X47623Y-21796D01*
X47638Y-21841D01*
X47653Y-21856D01*
X47938Y-22156D02*
X47938Y-21976D01*
X47938Y-22066D02*
X47623Y-22066D01*
X47668Y-22036D01*
X47698Y-22006D01*
X47713Y-21976D01*
X47623Y-22261D02*
X47623Y-22471D01*
X47938Y-22336D01*
X49460Y-21930D02*
X49430Y-21930D01*
X49400Y-21945D01*
X49385Y-21960D01*
X49370Y-21990D01*
X49355Y-22050D01*
X49355Y-22125D01*
X49370Y-22185D01*
X49385Y-22215D01*
X49400Y-22230D01*
X49430Y-22245D01*
X49460Y-22245D01*
X49490Y-22230D01*
X49505Y-22215D01*
X49520Y-22185D01*
X49535Y-22125D01*
X49535Y-22050D01*
X49520Y-21990D01*
X49505Y-21960D01*
X49490Y-21945D01*
X49460Y-21930D01*
X49220Y-22215D02*
X49205Y-22230D01*
X49220Y-22245D01*
X49235Y-22230D01*
X49220Y-22215D01*
X49220Y-22245D01*
X48905Y-22245D02*
X49085Y-22245D01*
X48995Y-22245D02*
X48995Y-21930D01*
X49025Y-21975D01*
X49055Y-22005D01*
X49085Y-22020D01*
X48635Y-22035D02*
X48635Y-22245D01*
X48770Y-22035D02*
X48770Y-22200D01*
X48755Y-22230D01*
X48725Y-22245D01*
X48680Y-22245D01*
X48650Y-22230D01*
X48635Y-22215D01*
X48530Y-22035D02*
X48410Y-22035D01*
X48485Y-22245D02*
X48485Y-21975D01*
X48470Y-21945D01*
X48440Y-21930D01*
X48410Y-21930D01*
X42414Y-20668D02*
X42429Y-20683D01*
X42474Y-20698D01*
X42504Y-20698D01*
X42549Y-20683D01*
X42579Y-20653D01*
X42594Y-20623D01*
X42609Y-20563D01*
X42609Y-20518D01*
X42594Y-20458D01*
X42579Y-20428D01*
X42549Y-20398D01*
X42504Y-20383D01*
X42474Y-20383D01*
X42429Y-20398D01*
X42414Y-20413D01*
X42129Y-20383D02*
X42279Y-20383D01*
X42294Y-20533D01*
X42279Y-20518D01*
X42249Y-20503D01*
X42174Y-20503D01*
X42144Y-20518D01*
X42129Y-20533D01*
X42114Y-20563D01*
X42114Y-20638D01*
X42129Y-20668D01*
X42144Y-20683D01*
X42174Y-20698D01*
X42249Y-20698D01*
X42279Y-20683D01*
X42294Y-20668D01*
X42842Y-21532D02*
X42812Y-21532D01*
X42782Y-21547D01*
X42767Y-21562D01*
X42752Y-21592D01*
X42737Y-21652D01*
X42737Y-21727D01*
X42752Y-21787D01*
X42767Y-21817D01*
X42782Y-21832D01*
X42812Y-21847D01*
X42842Y-21847D01*
X42872Y-21832D01*
X42887Y-21817D01*
X42902Y-21787D01*
X42917Y-21727D01*
X42917Y-21652D01*
X42902Y-21592D01*
X42887Y-21562D01*
X42872Y-21547D01*
X42842Y-21532D01*
X42602Y-21817D02*
X42587Y-21832D01*
X42602Y-21847D01*
X42617Y-21832D01*
X42602Y-21817D01*
X42602Y-21847D01*
X42287Y-21847D02*
X42467Y-21847D01*
X42377Y-21847D02*
X42377Y-21532D01*
X42407Y-21577D01*
X42437Y-21607D01*
X42467Y-21622D01*
X42017Y-21637D02*
X42017Y-21847D01*
X42152Y-21637D02*
X42152Y-21802D01*
X42137Y-21832D01*
X42107Y-21847D01*
X42062Y-21847D01*
X42032Y-21832D01*
X42017Y-21817D01*
X41912Y-21637D02*
X41792Y-21637D01*
X41867Y-21847D02*
X41867Y-21577D01*
X41852Y-21547D01*
X41822Y-21532D01*
X41792Y-21532D01*
X48611Y-23176D02*
X48626Y-23191D01*
X48671Y-23206D01*
X48701Y-23206D01*
X48746Y-23191D01*
X48776Y-23161D01*
X48791Y-23131D01*
X48806Y-23071D01*
X48806Y-23026D01*
X48791Y-22966D01*
X48776Y-22936D01*
X48746Y-22906D01*
X48701Y-22891D01*
X48671Y-22891D01*
X48626Y-22906D01*
X48611Y-22921D01*
X48341Y-22996D02*
X48341Y-23206D01*
X48416Y-22876D02*
X48491Y-23101D01*
X48296Y-23101D01*
X49102Y-24111D02*
X49072Y-24111D01*
X49042Y-24126D01*
X49027Y-24141D01*
X49012Y-24171D01*
X48997Y-24231D01*
X48997Y-24306D01*
X49012Y-24366D01*
X49027Y-24396D01*
X49042Y-24411D01*
X49072Y-24426D01*
X49102Y-24426D01*
X49132Y-24411D01*
X49147Y-24396D01*
X49162Y-24366D01*
X49177Y-24306D01*
X49177Y-24231D01*
X49162Y-24171D01*
X49147Y-24141D01*
X49132Y-24126D01*
X49102Y-24111D01*
X48862Y-24396D02*
X48847Y-24411D01*
X48862Y-24426D01*
X48877Y-24411D01*
X48862Y-24396D01*
X48862Y-24426D01*
X48547Y-24426D02*
X48727Y-24426D01*
X48637Y-24426D02*
X48637Y-24111D01*
X48667Y-24156D01*
X48697Y-24186D01*
X48727Y-24201D01*
X48277Y-24216D02*
X48277Y-24426D01*
X48412Y-24216D02*
X48412Y-24381D01*
X48397Y-24411D01*
X48367Y-24426D01*
X48322Y-24426D01*
X48292Y-24411D01*
X48277Y-24396D01*
X48172Y-24216D02*
X48052Y-24216D01*
X48127Y-24426D02*
X48127Y-24156D01*
X48112Y-24126D01*
X48082Y-24111D01*
X48052Y-24111D01*
X43887Y-25361D02*
X43902Y-25376D01*
X43947Y-25391D01*
X43977Y-25391D01*
X44022Y-25376D01*
X44052Y-25346D01*
X44067Y-25316D01*
X44082Y-25256D01*
X44082Y-25211D01*
X44067Y-25151D01*
X44052Y-25121D01*
X44022Y-25091D01*
X43977Y-25076D01*
X43947Y-25076D01*
X43902Y-25091D01*
X43887Y-25106D01*
X43767Y-25106D02*
X43752Y-25091D01*
X43722Y-25076D01*
X43647Y-25076D01*
X43617Y-25091D01*
X43602Y-25106D01*
X43587Y-25136D01*
X43587Y-25166D01*
X43602Y-25211D01*
X43782Y-25391D01*
X43587Y-25391D01*
X43302Y-25076D02*
X43452Y-25076D01*
X43467Y-25226D01*
X43452Y-25211D01*
X43422Y-25196D01*
X43347Y-25196D01*
X43317Y-25211D01*
X43302Y-25226D01*
X43287Y-25256D01*
X43287Y-25331D01*
X43302Y-25361D01*
X43317Y-25376D01*
X43347Y-25391D01*
X43422Y-25391D01*
X43452Y-25376D01*
X43467Y-25361D01*
X44031Y-26347D02*
X44001Y-26347D01*
X43971Y-26362D01*
X43956Y-26377D01*
X43941Y-26407D01*
X43926Y-26467D01*
X43926Y-26542D01*
X43941Y-26602D01*
X43956Y-26632D01*
X43971Y-26647D01*
X44001Y-26662D01*
X44031Y-26662D01*
X44061Y-26647D01*
X44076Y-26632D01*
X44091Y-26602D01*
X44106Y-26542D01*
X44106Y-26467D01*
X44091Y-26407D01*
X44076Y-26377D01*
X44061Y-26362D01*
X44031Y-26347D01*
X43791Y-26632D02*
X43776Y-26647D01*
X43791Y-26662D01*
X43806Y-26647D01*
X43791Y-26632D01*
X43791Y-26662D01*
X43476Y-26662D02*
X43656Y-26662D01*
X43566Y-26662D02*
X43566Y-26347D01*
X43596Y-26392D01*
X43626Y-26422D01*
X43656Y-26437D01*
X43206Y-26452D02*
X43206Y-26662D01*
X43341Y-26452D02*
X43341Y-26617D01*
X43326Y-26647D01*
X43296Y-26662D01*
X43251Y-26662D01*
X43221Y-26647D01*
X43206Y-26632D01*
X43101Y-26452D02*
X42981Y-26452D01*
X43056Y-26662D02*
X43056Y-26392D01*
X43041Y-26362D01*
X43011Y-26347D01*
X42981Y-26347D01*
X47849Y-19947D02*
X47864Y-19932D01*
X47879Y-19887D01*
X47879Y-19857D01*
X47864Y-19812D01*
X47834Y-19782D01*
X47804Y-19767D01*
X47744Y-19752D01*
X47699Y-19752D01*
X47639Y-19767D01*
X47609Y-19782D01*
X47579Y-19812D01*
X47564Y-19857D01*
X47564Y-19887D01*
X47579Y-19932D01*
X47594Y-19947D01*
X47879Y-20247D02*
X47879Y-20067D01*
X47879Y-20157D02*
X47564Y-20157D01*
X47609Y-20127D01*
X47639Y-20097D01*
X47654Y-20067D01*
X47879Y-20397D02*
X47879Y-20457D01*
X47864Y-20487D01*
X47849Y-20502D01*
X47804Y-20532D01*
X47744Y-20547D01*
X47624Y-20547D01*
X47594Y-20532D01*
X47579Y-20517D01*
X47564Y-20487D01*
X47564Y-20427D01*
X47579Y-20397D01*
X47594Y-20382D01*
X47624Y-20367D01*
X47699Y-20367D01*
X47729Y-20382D01*
X47744Y-20397D01*
X47759Y-20427D01*
X47759Y-20487D01*
X47744Y-20517D01*
X47729Y-20532D01*
X47699Y-20547D01*
X47241Y-18038D02*
X47256Y-18053D01*
X47301Y-18068D01*
X47331Y-18068D01*
X47376Y-18053D01*
X47406Y-18023D01*
X47421Y-17993D01*
X47436Y-17933D01*
X47436Y-17888D01*
X47421Y-17828D01*
X47406Y-17798D01*
X47376Y-17768D01*
X47331Y-17753D01*
X47301Y-17753D01*
X47256Y-17768D01*
X47241Y-17783D01*
X47121Y-17783D02*
X47106Y-17768D01*
X47076Y-17753D01*
X47001Y-17753D01*
X46971Y-17768D01*
X46956Y-17783D01*
X46941Y-17813D01*
X46941Y-17843D01*
X46956Y-17888D01*
X47136Y-18068D01*
X46941Y-18068D01*
X46641Y-18068D02*
X46821Y-18068D01*
X46731Y-18068D02*
X46731Y-17753D01*
X46761Y-17798D01*
X46791Y-17828D01*
X46821Y-17843D01*
X46383Y-19007D02*
X46383Y-19037D01*
X46398Y-19067D01*
X46413Y-19082D01*
X46443Y-19097D01*
X46503Y-19112D01*
X46578Y-19112D01*
X46638Y-19097D01*
X46668Y-19082D01*
X46683Y-19067D01*
X46698Y-19037D01*
X46698Y-19007D01*
X46683Y-18977D01*
X46668Y-18962D01*
X46638Y-18947D01*
X46578Y-18932D01*
X46503Y-18932D01*
X46443Y-18947D01*
X46413Y-18962D01*
X46398Y-18977D01*
X46383Y-19007D01*
X46668Y-19247D02*
X46683Y-19262D01*
X46698Y-19247D01*
X46683Y-19232D01*
X46668Y-19247D01*
X46698Y-19247D01*
X46698Y-19562D02*
X46698Y-19382D01*
X46698Y-19472D02*
X46383Y-19472D01*
X46428Y-19442D01*
X46458Y-19412D01*
X46473Y-19382D01*
X46488Y-19832D02*
X46698Y-19832D01*
X46488Y-19697D02*
X46653Y-19697D01*
X46683Y-19712D01*
X46698Y-19742D01*
X46698Y-19787D01*
X46683Y-19817D01*
X46668Y-19832D01*
X46488Y-19937D02*
X46488Y-20057D01*
X46698Y-19982D02*
X46428Y-19982D01*
X46398Y-19997D01*
X46383Y-20027D01*
X46383Y-20057D01*
X46080Y-18715D02*
X46095Y-18730D01*
X46140Y-18745D01*
X46170Y-18745D01*
X46215Y-18730D01*
X46245Y-18700D01*
X46260Y-18670D01*
X46275Y-18610D01*
X46275Y-18565D01*
X46260Y-18505D01*
X46245Y-18475D01*
X46215Y-18445D01*
X46170Y-18430D01*
X46140Y-18430D01*
X46095Y-18445D01*
X46080Y-18460D01*
X45960Y-18460D02*
X45945Y-18445D01*
X45915Y-18430D01*
X45840Y-18430D01*
X45810Y-18445D01*
X45795Y-18460D01*
X45780Y-18490D01*
X45780Y-18520D01*
X45795Y-18565D01*
X45975Y-18745D01*
X45780Y-18745D01*
X45660Y-18460D02*
X45645Y-18445D01*
X45615Y-18430D01*
X45540Y-18430D01*
X45510Y-18445D01*
X45495Y-18460D01*
X45480Y-18490D01*
X45480Y-18520D01*
X45495Y-18565D01*
X45675Y-18745D01*
X45480Y-18745D01*
X45529Y-20208D02*
X45529Y-20238D01*
X45544Y-20268D01*
X45559Y-20283D01*
X45589Y-20298D01*
X45649Y-20313D01*
X45724Y-20313D01*
X45784Y-20298D01*
X45814Y-20283D01*
X45829Y-20268D01*
X45844Y-20238D01*
X45844Y-20208D01*
X45829Y-20178D01*
X45814Y-20163D01*
X45784Y-20148D01*
X45724Y-20133D01*
X45649Y-20133D01*
X45589Y-20148D01*
X45559Y-20163D01*
X45544Y-20178D01*
X45529Y-20208D01*
X45814Y-20448D02*
X45829Y-20463D01*
X45844Y-20448D01*
X45829Y-20433D01*
X45814Y-20448D01*
X45844Y-20448D01*
X45844Y-20763D02*
X45844Y-20583D01*
X45844Y-20673D02*
X45529Y-20673D01*
X45574Y-20643D01*
X45604Y-20613D01*
X45619Y-20583D01*
X45634Y-21033D02*
X45844Y-21033D01*
X45634Y-20898D02*
X45799Y-20898D01*
X45829Y-20913D01*
X45844Y-20943D01*
X45844Y-20988D01*
X45829Y-21018D01*
X45814Y-21033D01*
X45634Y-21138D02*
X45634Y-21258D01*
X45844Y-21183D02*
X45574Y-21183D01*
X45544Y-21198D01*
X45529Y-21228D01*
X45529Y-21258D01*
X44966Y-18731D02*
X44981Y-18746D01*
X45026Y-18761D01*
X45056Y-18761D01*
X45101Y-18746D01*
X45131Y-18716D01*
X45146Y-18686D01*
X45161Y-18626D01*
X45161Y-18581D01*
X45146Y-18521D01*
X45131Y-18491D01*
X45101Y-18461D01*
X45056Y-18446D01*
X45026Y-18446D01*
X44981Y-18461D01*
X44966Y-18476D01*
X44846Y-18476D02*
X44831Y-18461D01*
X44801Y-18446D01*
X44726Y-18446D01*
X44696Y-18461D01*
X44681Y-18476D01*
X44666Y-18506D01*
X44666Y-18536D01*
X44681Y-18581D01*
X44861Y-18761D01*
X44666Y-18761D01*
X44561Y-18446D02*
X44366Y-18446D01*
X44471Y-18566D01*
X44426Y-18566D01*
X44396Y-18581D01*
X44381Y-18596D01*
X44366Y-18626D01*
X44366Y-18701D01*
X44381Y-18731D01*
X44396Y-18746D01*
X44426Y-18761D01*
X44516Y-18761D01*
X44546Y-18746D01*
X44561Y-18731D01*
X44800Y-20228D02*
X44800Y-20258D01*
X44815Y-20288D01*
X44830Y-20303D01*
X44860Y-20318D01*
X44920Y-20333D01*
X44995Y-20333D01*
X45055Y-20318D01*
X45085Y-20303D01*
X45100Y-20288D01*
X45115Y-20258D01*
X45115Y-20228D01*
X45100Y-20198D01*
X45085Y-20183D01*
X45055Y-20168D01*
X44995Y-20153D01*
X44920Y-20153D01*
X44860Y-20168D01*
X44830Y-20183D01*
X44815Y-20198D01*
X44800Y-20228D01*
X45085Y-20468D02*
X45100Y-20483D01*
X45115Y-20468D01*
X45100Y-20453D01*
X45085Y-20468D01*
X45115Y-20468D01*
X45115Y-20783D02*
X45115Y-20603D01*
X45115Y-20693D02*
X44800Y-20693D01*
X44845Y-20663D01*
X44875Y-20633D01*
X44890Y-20603D01*
X44905Y-21053D02*
X45115Y-21053D01*
X44905Y-20918D02*
X45070Y-20918D01*
X45100Y-20933D01*
X45115Y-20963D01*
X45115Y-21008D01*
X45100Y-21038D01*
X45085Y-21053D01*
X44905Y-21158D02*
X44905Y-21278D01*
X45115Y-21203D02*
X44845Y-21203D01*
X44815Y-21218D01*
X44800Y-21248D01*
X44800Y-21278D01*
X49245Y-18018D02*
X49260Y-18033D01*
X49305Y-18048D01*
X49335Y-18048D01*
X49380Y-18033D01*
X49410Y-18003D01*
X49425Y-17973D01*
X49440Y-17913D01*
X49440Y-17868D01*
X49425Y-17808D01*
X49410Y-17778D01*
X49380Y-17748D01*
X49335Y-17733D01*
X49305Y-17733D01*
X49260Y-17748D01*
X49245Y-17763D01*
X49125Y-17763D02*
X49110Y-17748D01*
X49080Y-17733D01*
X49005Y-17733D01*
X48975Y-17748D01*
X48960Y-17763D01*
X48945Y-17793D01*
X48945Y-17823D01*
X48960Y-17868D01*
X49140Y-18048D01*
X48945Y-18048D01*
X48675Y-17838D02*
X48675Y-18048D01*
X48750Y-17718D02*
X48825Y-17943D01*
X48630Y-17943D01*
X49696Y-18210D02*
X49666Y-18210D01*
X49636Y-18225D01*
X49621Y-18240D01*
X49606Y-18270D01*
X49591Y-18330D01*
X49591Y-18405D01*
X49606Y-18465D01*
X49621Y-18495D01*
X49636Y-18510D01*
X49666Y-18525D01*
X49696Y-18525D01*
X49726Y-18510D01*
X49741Y-18495D01*
X49756Y-18465D01*
X49771Y-18405D01*
X49771Y-18330D01*
X49756Y-18270D01*
X49741Y-18240D01*
X49726Y-18225D01*
X49696Y-18210D01*
X49456Y-18495D02*
X49441Y-18510D01*
X49456Y-18525D01*
X49471Y-18510D01*
X49456Y-18495D01*
X49456Y-18525D01*
X49141Y-18525D02*
X49321Y-18525D01*
X49231Y-18525D02*
X49231Y-18210D01*
X49261Y-18255D01*
X49291Y-18285D01*
X49321Y-18300D01*
X48871Y-18315D02*
X48871Y-18525D01*
X49006Y-18315D02*
X49006Y-18480D01*
X48991Y-18510D01*
X48961Y-18525D01*
X48916Y-18525D01*
X48886Y-18510D01*
X48871Y-18495D01*
X48766Y-18315D02*
X48646Y-18315D01*
X48721Y-18525D02*
X48721Y-18255D01*
X48706Y-18225D01*
X48676Y-18210D01*
X48646Y-18210D01*
X43150Y-24010D02*
X43165Y-24025D01*
X43210Y-24040D01*
X43240Y-24040D01*
X43285Y-24025D01*
X43315Y-23995D01*
X43330Y-23965D01*
X43345Y-23905D01*
X43345Y-23860D01*
X43330Y-23800D01*
X43315Y-23770D01*
X43285Y-23740D01*
X43240Y-23725D01*
X43210Y-23725D01*
X43165Y-23740D01*
X43150Y-23755D01*
X43030Y-23755D02*
X43015Y-23740D01*
X42985Y-23725D01*
X42910Y-23725D01*
X42880Y-23740D01*
X42865Y-23755D01*
X42850Y-23785D01*
X42850Y-23815D01*
X42865Y-23860D01*
X43045Y-24040D01*
X42850Y-24040D01*
X41662Y-23897D02*
X41662Y-23927D01*
X41677Y-23957D01*
X41692Y-23972D01*
X41722Y-23987D01*
X41782Y-24002D01*
X41857Y-24002D01*
X41917Y-23987D01*
X41947Y-23972D01*
X41962Y-23957D01*
X41977Y-23927D01*
X41977Y-23897D01*
X41962Y-23867D01*
X41947Y-23852D01*
X41917Y-23837D01*
X41857Y-23822D01*
X41782Y-23822D01*
X41722Y-23837D01*
X41692Y-23852D01*
X41677Y-23867D01*
X41662Y-23897D01*
X41947Y-24137D02*
X41962Y-24152D01*
X41977Y-24137D01*
X41962Y-24122D01*
X41947Y-24137D01*
X41977Y-24137D01*
X41977Y-24452D02*
X41977Y-24272D01*
X41977Y-24362D02*
X41662Y-24362D01*
X41707Y-24332D01*
X41737Y-24302D01*
X41752Y-24272D01*
X41767Y-24722D02*
X41977Y-24722D01*
X41767Y-24587D02*
X41932Y-24587D01*
X41962Y-24602D01*
X41977Y-24632D01*
X41977Y-24677D01*
X41962Y-24707D01*
X41947Y-24722D01*
X41767Y-24827D02*
X41767Y-24947D01*
X41977Y-24872D02*
X41707Y-24872D01*
X41677Y-24887D01*
X41662Y-24917D01*
X41662Y-24947D01*
X57255Y-14966D02*
X57274Y-14985D01*
X57331Y-15004D01*
X57369Y-15004D01*
X57426Y-14985D01*
X57465Y-14947D01*
X57484Y-14909D01*
X57503Y-14832D01*
X57503Y-14775D01*
X57484Y-14699D01*
X57465Y-14661D01*
X57426Y-14623D01*
X57369Y-14604D01*
X57331Y-14604D01*
X57274Y-14623D01*
X57255Y-14642D01*
X57084Y-14737D02*
X57084Y-15137D01*
X57084Y-14756D02*
X57045Y-14737D01*
X56969Y-14737D01*
X56931Y-14756D01*
X56912Y-14775D01*
X56893Y-14813D01*
X56893Y-14928D01*
X56912Y-14966D01*
X56931Y-14985D01*
X56969Y-15004D01*
X57045Y-15004D01*
X57084Y-14985D01*
X56550Y-14604D02*
X56626Y-14604D01*
X56665Y-14623D01*
X56684Y-14642D01*
X56722Y-14699D01*
X56741Y-14775D01*
X56741Y-14928D01*
X56722Y-14966D01*
X56703Y-14985D01*
X56665Y-15004D01*
X56588Y-15004D01*
X56550Y-14985D01*
X56531Y-14966D01*
X56512Y-14928D01*
X56512Y-14832D01*
X56531Y-14794D01*
X56550Y-14775D01*
X56588Y-14756D01*
X56665Y-14756D01*
X56703Y-14775D01*
X56722Y-14794D01*
X56741Y-14832D01*
X55403Y-14642D02*
X55384Y-14623D01*
X55346Y-14604D01*
X55250Y-14604D01*
X55212Y-14623D01*
X55193Y-14642D01*
X55174Y-14680D01*
X55174Y-14718D01*
X55193Y-14775D01*
X55422Y-15004D01*
X55174Y-15004D01*
X55022Y-14642D02*
X55003Y-14623D01*
X54965Y-14604D01*
X54869Y-14604D01*
X54831Y-14623D01*
X54812Y-14642D01*
X54793Y-14680D01*
X54793Y-14718D01*
X54812Y-14775D01*
X55041Y-15004D01*
X54793Y-15004D01*
X54450Y-14737D02*
X54450Y-15004D01*
X54622Y-14737D02*
X54622Y-14947D01*
X54603Y-14985D01*
X54565Y-15004D01*
X54507Y-15004D01*
X54469Y-14985D01*
X54450Y-14966D01*
X54317Y-14737D02*
X54165Y-14737D01*
X54260Y-15004D02*
X54260Y-14661D01*
X54241Y-14623D01*
X54203Y-14604D01*
X54165Y-14604D01*
X55050Y-21423D02*
X55069Y-21442D01*
X55126Y-21461D01*
X55165Y-21461D01*
X55222Y-21442D01*
X55260Y-21403D01*
X55279Y-21365D01*
X55298Y-21289D01*
X55298Y-21232D01*
X55279Y-21156D01*
X55260Y-21118D01*
X55222Y-21080D01*
X55165Y-21061D01*
X55126Y-21061D01*
X55069Y-21080D01*
X55050Y-21099D01*
X54879Y-21194D02*
X54879Y-21594D01*
X54879Y-21213D02*
X54841Y-21194D01*
X54765Y-21194D01*
X54726Y-21213D01*
X54707Y-21232D01*
X54688Y-21270D01*
X54688Y-21384D01*
X54707Y-21423D01*
X54726Y-21442D01*
X54765Y-21461D01*
X54841Y-21461D01*
X54879Y-21442D01*
X54555Y-21061D02*
X54307Y-21061D01*
X54441Y-21213D01*
X54384Y-21213D01*
X54346Y-21232D01*
X54326Y-21251D01*
X54307Y-21289D01*
X54307Y-21384D01*
X54326Y-21423D01*
X54346Y-21442D01*
X54384Y-21461D01*
X54498Y-21461D01*
X54536Y-21442D01*
X54555Y-21423D01*
X53697Y-21919D02*
X53678Y-21938D01*
X53659Y-21976D01*
X53659Y-22072D01*
X53678Y-22110D01*
X53697Y-22129D01*
X53735Y-22148D01*
X53773Y-22148D01*
X53830Y-22129D01*
X54059Y-21900D01*
X54059Y-22148D01*
X53697Y-22300D02*
X53678Y-22319D01*
X53659Y-22357D01*
X53659Y-22453D01*
X53678Y-22491D01*
X53697Y-22510D01*
X53735Y-22529D01*
X53773Y-22529D01*
X53830Y-22510D01*
X54059Y-22281D01*
X54059Y-22529D01*
X53792Y-22872D02*
X54059Y-22872D01*
X53792Y-22700D02*
X54002Y-22700D01*
X54040Y-22719D01*
X54059Y-22757D01*
X54059Y-22814D01*
X54040Y-22853D01*
X54021Y-22872D01*
X53792Y-23005D02*
X53792Y-23157D01*
X54059Y-23062D02*
X53716Y-23062D01*
X53678Y-23081D01*
X53659Y-23119D01*
X53659Y-23157D01*
X63668Y-24722D02*
X63687Y-24741D01*
X63745Y-24760D01*
X63783Y-24760D01*
X63840Y-24741D01*
X63878Y-24703D01*
X63897Y-24665D01*
X63916Y-24588D01*
X63916Y-24531D01*
X63897Y-24455D01*
X63878Y-24417D01*
X63840Y-24379D01*
X63783Y-24360D01*
X63745Y-24360D01*
X63687Y-24379D01*
X63668Y-24398D01*
X63497Y-24493D02*
X63497Y-24893D01*
X63497Y-24512D02*
X63459Y-24493D01*
X63383Y-24493D01*
X63345Y-24512D01*
X63326Y-24531D01*
X63306Y-24569D01*
X63306Y-24684D01*
X63326Y-24722D01*
X63345Y-24741D01*
X63383Y-24760D01*
X63459Y-24760D01*
X63497Y-24741D01*
X63154Y-24398D02*
X63135Y-24379D01*
X63097Y-24360D01*
X63002Y-24360D01*
X62964Y-24379D01*
X62945Y-24398D01*
X62926Y-24436D01*
X62926Y-24474D01*
X62945Y-24531D01*
X63173Y-24760D01*
X62926Y-24760D01*
X64048Y-28662D02*
X64029Y-28643D01*
X63991Y-28624D01*
X63896Y-28624D01*
X63858Y-28643D01*
X63839Y-28662D01*
X63820Y-28700D01*
X63820Y-28738D01*
X63839Y-28795D01*
X64067Y-29024D01*
X63820Y-29024D01*
X63667Y-28662D02*
X63648Y-28643D01*
X63610Y-28624D01*
X63515Y-28624D01*
X63477Y-28643D01*
X63458Y-28662D01*
X63439Y-28700D01*
X63439Y-28738D01*
X63458Y-28795D01*
X63686Y-29024D01*
X63439Y-29024D01*
X63096Y-28757D02*
X63096Y-29024D01*
X63267Y-28757D02*
X63267Y-28966D01*
X63248Y-29005D01*
X63210Y-29024D01*
X63153Y-29024D01*
X63115Y-29005D01*
X63096Y-28986D01*
X62963Y-28757D02*
X62810Y-28757D01*
X62905Y-29024D02*
X62905Y-28681D01*
X62886Y-28643D01*
X62848Y-28624D01*
X62810Y-28624D01*
X57255Y-33115D02*
X57274Y-33134D01*
X57331Y-33154D01*
X57369Y-33154D01*
X57426Y-33134D01*
X57465Y-33096D01*
X57484Y-33058D01*
X57503Y-32982D01*
X57503Y-32925D01*
X57484Y-32849D01*
X57465Y-32811D01*
X57426Y-32773D01*
X57369Y-32754D01*
X57331Y-32754D01*
X57274Y-32773D01*
X57255Y-32792D01*
X57084Y-32887D02*
X57084Y-33287D01*
X57084Y-32906D02*
X57045Y-32887D01*
X56969Y-32887D01*
X56931Y-32906D01*
X56912Y-32925D01*
X56893Y-32963D01*
X56893Y-33077D01*
X56912Y-33115D01*
X56931Y-33134D01*
X56969Y-33154D01*
X57045Y-33154D01*
X57084Y-33134D01*
X56531Y-32754D02*
X56722Y-32754D01*
X56741Y-32944D01*
X56722Y-32925D01*
X56684Y-32906D01*
X56588Y-32906D01*
X56550Y-32925D01*
X56531Y-32944D01*
X56512Y-32982D01*
X56512Y-33077D01*
X56531Y-33115D01*
X56550Y-33134D01*
X56588Y-33154D01*
X56684Y-33154D01*
X56722Y-33134D01*
X56741Y-33115D01*
X55088Y-32752D02*
X55069Y-32733D01*
X55031Y-32714D01*
X54935Y-32714D01*
X54897Y-32733D01*
X54878Y-32752D01*
X54859Y-32790D01*
X54859Y-32828D01*
X54878Y-32886D01*
X55107Y-33114D01*
X54859Y-33114D01*
X54707Y-32752D02*
X54688Y-32733D01*
X54650Y-32714D01*
X54554Y-32714D01*
X54516Y-32733D01*
X54497Y-32752D01*
X54478Y-32790D01*
X54478Y-32828D01*
X54497Y-32886D01*
X54726Y-33114D01*
X54478Y-33114D01*
X54135Y-32847D02*
X54135Y-33114D01*
X54307Y-32847D02*
X54307Y-33057D01*
X54288Y-33095D01*
X54250Y-33114D01*
X54192Y-33114D01*
X54154Y-33095D01*
X54135Y-33076D01*
X54002Y-32847D02*
X53850Y-32847D01*
X53945Y-33114D02*
X53945Y-32771D01*
X53926Y-32733D01*
X53888Y-32714D01*
X53850Y-32714D01*
X64223Y-35241D02*
X64243Y-35260D01*
X64300Y-35280D01*
X64338Y-35280D01*
X64395Y-35260D01*
X64433Y-35222D01*
X64452Y-35184D01*
X64471Y-35108D01*
X64471Y-35051D01*
X64452Y-34975D01*
X64433Y-34937D01*
X64395Y-34899D01*
X64338Y-34880D01*
X64300Y-34880D01*
X64243Y-34899D01*
X64223Y-34918D01*
X64052Y-35013D02*
X64052Y-35413D01*
X64052Y-35032D02*
X64014Y-35013D01*
X63938Y-35013D01*
X63900Y-35032D01*
X63881Y-35051D01*
X63862Y-35089D01*
X63862Y-35203D01*
X63881Y-35241D01*
X63900Y-35260D01*
X63938Y-35280D01*
X64014Y-35280D01*
X64052Y-35260D01*
X63481Y-35280D02*
X63709Y-35280D01*
X63595Y-35280D02*
X63595Y-34880D01*
X63633Y-34937D01*
X63671Y-34975D01*
X63709Y-34994D01*
X63874Y-31509D02*
X63874Y-31776D01*
X63969Y-31357D02*
X64064Y-31642D01*
X63816Y-31642D01*
X63702Y-31376D02*
X63435Y-31376D01*
X63607Y-31776D01*
X63112Y-31509D02*
X63112Y-31776D01*
X63283Y-31509D02*
X63283Y-31718D01*
X63264Y-31757D01*
X63226Y-31776D01*
X63169Y-31776D01*
X63131Y-31757D01*
X63112Y-31737D01*
X62978Y-31509D02*
X62826Y-31509D01*
X62921Y-31776D02*
X62921Y-31433D01*
X62902Y-31395D01*
X62864Y-31376D01*
X62826Y-31376D01*
X63082Y-18982D02*
X63101Y-19001D01*
X63158Y-19020D01*
X63196Y-19020D01*
X63253Y-19001D01*
X63291Y-18963D01*
X63310Y-18924D01*
X63329Y-18848D01*
X63329Y-18791D01*
X63310Y-18715D01*
X63291Y-18677D01*
X63253Y-18639D01*
X63196Y-18620D01*
X63158Y-18620D01*
X63101Y-18639D01*
X63082Y-18658D01*
X62910Y-18753D02*
X62910Y-19153D01*
X62910Y-18772D02*
X62872Y-18753D01*
X62796Y-18753D01*
X62758Y-18772D01*
X62739Y-18791D01*
X62720Y-18829D01*
X62720Y-18943D01*
X62739Y-18982D01*
X62758Y-19001D01*
X62796Y-19020D01*
X62872Y-19020D01*
X62910Y-19001D01*
X62377Y-18753D02*
X62377Y-19020D01*
X62472Y-18601D02*
X62567Y-18886D01*
X62320Y-18886D01*
X63457Y-21627D02*
X63457Y-21894D01*
X63552Y-21475D02*
X63647Y-21760D01*
X63400Y-21760D01*
X63247Y-21856D02*
X63228Y-21875D01*
X63247Y-21894D01*
X63267Y-21875D01*
X63247Y-21856D01*
X63247Y-21894D01*
X63095Y-21494D02*
X62828Y-21494D01*
X63000Y-21894D01*
X62505Y-21627D02*
X62505Y-21894D01*
X62676Y-21627D02*
X62676Y-21837D01*
X62657Y-21875D01*
X62619Y-21894D01*
X62562Y-21894D01*
X62524Y-21875D01*
X62505Y-21856D01*
X62371Y-21627D02*
X62219Y-21627D01*
X62314Y-21894D02*
X62314Y-21551D01*
X62295Y-21513D01*
X62257Y-21494D01*
X62219Y-21494D01*
M02*
