G04 (created by PCBNEW (2013-07-07 BZR 4022)-stable) date 25/07/2014 8:29:43 PM*
%MOIN*%
G04 Gerber Fmt 3.4, Leading zero omitted, Abs format*
%FSLAX34Y34*%
G01*
G70*
G90*
G04 APERTURE LIST*
%ADD10C,0.00590551*%
%ADD11R,0.055X0.035*%
%ADD12R,0.035X0.055*%
%ADD13R,0.06X0.06*%
%ADD14C,0.0590551*%
%ADD15R,0.0866X0.0236*%
%ADD16C,0.0393701*%
%ADD17C,0.0866142*%
%ADD18C,0.06*%
%ADD19R,0.0551X0.1496*%
%ADD20R,0.1496X0.0551*%
%ADD21R,0.1181X0.0551*%
%ADD22R,0.1023X0.0551*%
%ADD23C,0.15748*%
%ADD24C,0.137795*%
G04 APERTURE END LIST*
G54D10*
G54D11*
X38259Y-15355D03*
X38259Y-14605D03*
X57468Y-26292D03*
X57468Y-25542D03*
G54D12*
X60630Y-24129D03*
X59880Y-24129D03*
X60626Y-17708D03*
X59876Y-17708D03*
G54D11*
X57401Y-19890D03*
X57401Y-19140D03*
X38279Y-13176D03*
X38279Y-13926D03*
X46889Y-22654D03*
X46889Y-21904D03*
X46889Y-20534D03*
X46889Y-21284D03*
G54D12*
X50449Y-20007D03*
X49699Y-20007D03*
X49691Y-19188D03*
X50441Y-19188D03*
X50445Y-20775D03*
X49695Y-20775D03*
G54D13*
X39374Y-39133D03*
X39358Y-40649D03*
G54D14*
X45836Y-10433D03*
X44935Y-10433D03*
X44033Y-10433D03*
X43131Y-10433D03*
X42230Y-10433D03*
X45385Y-11212D03*
X44484Y-11212D03*
X43582Y-11212D03*
X42681Y-11212D03*
X41779Y-11212D03*
X45385Y-9653D03*
X44484Y-9653D03*
X43582Y-9653D03*
X42681Y-9653D03*
X41779Y-9653D03*
X59655Y-10433D03*
X58753Y-10433D03*
X57852Y-10433D03*
X56950Y-10433D03*
X56049Y-10433D03*
X59204Y-11212D03*
X58303Y-11212D03*
X57401Y-11212D03*
X56500Y-11212D03*
X55598Y-11212D03*
X59204Y-9653D03*
X58303Y-9653D03*
X57401Y-9653D03*
X56500Y-9653D03*
X55598Y-9653D03*
G54D15*
X58583Y-33368D03*
X58583Y-32868D03*
X58583Y-32368D03*
X58583Y-31868D03*
X60629Y-31868D03*
X60629Y-32368D03*
X60629Y-32868D03*
X60629Y-33368D03*
X60633Y-25151D03*
X60633Y-25651D03*
X60633Y-26151D03*
X60633Y-26651D03*
X58587Y-26651D03*
X58587Y-26151D03*
X58587Y-25651D03*
X58587Y-25151D03*
X60629Y-18746D03*
X60629Y-19246D03*
X60629Y-19746D03*
X60629Y-20246D03*
X58583Y-20246D03*
X58583Y-19746D03*
X58583Y-19246D03*
X58583Y-18746D03*
G54D16*
X36043Y-31385D03*
X36043Y-30755D03*
X36043Y-30125D03*
X36043Y-29496D03*
X36043Y-28866D03*
X36043Y-28236D03*
X36043Y-27606D03*
X36043Y-26976D03*
X36043Y-26346D03*
X36043Y-32015D03*
X36043Y-32645D03*
X36043Y-33275D03*
X36043Y-33905D03*
X36043Y-34535D03*
X36043Y-35165D03*
X36043Y-35795D03*
X36043Y-36425D03*
X36496Y-36740D03*
X36496Y-36110D03*
X36496Y-35480D03*
X36496Y-34850D03*
X36496Y-34220D03*
X36496Y-33590D03*
X36496Y-32960D03*
X36496Y-32330D03*
X36496Y-26661D03*
X36496Y-27291D03*
X36496Y-27921D03*
X36496Y-28551D03*
X36496Y-29181D03*
X36496Y-29811D03*
X36496Y-30440D03*
X36496Y-31070D03*
X36496Y-31700D03*
X37421Y-31543D03*
X37421Y-30913D03*
X37421Y-30283D03*
X37421Y-29653D03*
X37421Y-29023D03*
X37421Y-28393D03*
X37421Y-27763D03*
X37421Y-27133D03*
X37421Y-26503D03*
X37421Y-32173D03*
X37421Y-32803D03*
X37421Y-33433D03*
X37421Y-34062D03*
X37421Y-34692D03*
X37421Y-35322D03*
X37421Y-35952D03*
X37421Y-36582D03*
X36968Y-36267D03*
X36968Y-35637D03*
X36968Y-35007D03*
X36968Y-34377D03*
X36968Y-33748D03*
X36968Y-33118D03*
X36968Y-32488D03*
X36968Y-31858D03*
X36968Y-26188D03*
X36968Y-26818D03*
X36968Y-27448D03*
X36968Y-28078D03*
X36968Y-28708D03*
X36968Y-29338D03*
X36968Y-29968D03*
X36968Y-30598D03*
X36968Y-31228D03*
G54D14*
X36496Y-25098D03*
G54D17*
X35464Y-23220D03*
X35464Y-39716D03*
G54D14*
X36496Y-37834D03*
G54D13*
X56799Y-39137D03*
X56811Y-40598D03*
X65074Y-13728D03*
X53452Y-25129D03*
X53326Y-17645D03*
X53433Y-26496D03*
X53433Y-27507D03*
X50051Y-29610D03*
X39578Y-18307D03*
X39578Y-17307D03*
X39578Y-16307D03*
X39578Y-19311D03*
X65141Y-12232D03*
X41271Y-13515D03*
G54D18*
X41271Y-14515D03*
X41271Y-15515D03*
X41271Y-16515D03*
X41271Y-17515D03*
X41271Y-18515D03*
G54D11*
X45988Y-24951D03*
X45988Y-25701D03*
G54D12*
X48282Y-20763D03*
X49032Y-20763D03*
X48282Y-21484D03*
X49032Y-21484D03*
X42733Y-21137D03*
X41983Y-21137D03*
X48961Y-23688D03*
X48211Y-23688D03*
G54D11*
X42846Y-26000D03*
X42846Y-25250D03*
G54D12*
X48274Y-20007D03*
X49024Y-20007D03*
G54D11*
X47098Y-18794D03*
X47098Y-19544D03*
X45724Y-19093D03*
X45724Y-19843D03*
X45039Y-19097D03*
X45039Y-19847D03*
X48208Y-18294D03*
X48208Y-19044D03*
X42421Y-23943D03*
X42421Y-24693D03*
G54D19*
X55944Y-18055D03*
X55944Y-15693D03*
X55901Y-24523D03*
X55901Y-22161D03*
G54D20*
X62267Y-26641D03*
X64629Y-26641D03*
G54D19*
X55929Y-32086D03*
X55929Y-29724D03*
G54D21*
X62126Y-33354D03*
X64014Y-33354D03*
G54D22*
X61984Y-20259D03*
X63598Y-20259D03*
G54D23*
X36188Y-8791D03*
X64622Y-8791D03*
X36200Y-41641D03*
X64661Y-41598D03*
G54D24*
X39354Y-42051D03*
M02*
