G04 (created by PCBNEW (2013-07-07 BZR 4022)-stable) date 25/07/2014 8:42:33 PM*
%MOIN*%
G04 Gerber Fmt 3.4, Leading zero omitted, Abs format*
%FSLAX34Y34*%
G01*
G70*
G90*
G04 APERTURE LIST*
%ADD10C,0.00590551*%
%ADD11R,0.055X0.035*%
%ADD12R,0.035X0.055*%
%ADD13R,0.06X0.06*%
%ADD14C,0.0590551*%
%ADD15C,0.177165*%
%ADD16R,0.0866X0.0236*%
%ADD17C,0.0393701*%
%ADD18C,0.0866142*%
%ADD19C,0.06*%
%ADD20R,0.0551X0.1496*%
%ADD21R,0.1496X0.0551*%
%ADD22R,0.1181X0.0551*%
%ADD23R,0.1023X0.0551*%
%ADD24C,0.15748*%
%ADD25C,0.137795*%
%ADD26C,0.0177165*%
%ADD27C,0.00984252*%
%ADD28C,0.00492126*%
%ADD29C,0.019685*%
%ADD30C,0.0393701*%
%ADD31C,0.008*%
%ADD32C,0.01*%
G04 APERTURE END LIST*
G54D10*
G54D11*
X38259Y-15355D03*
X38259Y-14605D03*
X57468Y-26292D03*
X57468Y-25542D03*
G54D12*
X60630Y-24129D03*
X59880Y-24129D03*
X60626Y-17708D03*
X59876Y-17708D03*
G54D11*
X57401Y-19890D03*
X57401Y-19140D03*
X38279Y-13176D03*
X38279Y-13926D03*
X46889Y-22654D03*
X46889Y-21904D03*
X46889Y-20534D03*
X46889Y-21284D03*
G54D12*
X50449Y-20007D03*
X49699Y-20007D03*
X49691Y-19188D03*
X50441Y-19188D03*
X50445Y-20775D03*
X49695Y-20775D03*
G54D13*
X39374Y-39133D03*
X39358Y-40649D03*
G54D14*
X45836Y-10433D03*
X44935Y-10433D03*
X44033Y-10433D03*
X43131Y-10433D03*
X42230Y-10433D03*
X45385Y-11212D03*
X44484Y-11212D03*
X43582Y-11212D03*
X42681Y-11212D03*
X41779Y-11212D03*
X45385Y-9653D03*
X44484Y-9653D03*
X43582Y-9653D03*
X42681Y-9653D03*
X41779Y-9653D03*
G54D15*
X38624Y-10433D03*
X48541Y-10433D03*
G54D14*
X59655Y-10433D03*
X58753Y-10433D03*
X57852Y-10433D03*
X56950Y-10433D03*
X56049Y-10433D03*
X59204Y-11212D03*
X58303Y-11212D03*
X57401Y-11212D03*
X56500Y-11212D03*
X55598Y-11212D03*
X59204Y-9653D03*
X58303Y-9653D03*
X57401Y-9653D03*
X56500Y-9653D03*
X55598Y-9653D03*
G54D15*
X52442Y-10433D03*
X62360Y-10433D03*
G54D16*
X58583Y-33368D03*
X58583Y-32868D03*
X58583Y-32368D03*
X58583Y-31868D03*
X60629Y-31868D03*
X60629Y-32368D03*
X60629Y-32868D03*
X60629Y-33368D03*
X60633Y-25151D03*
X60633Y-25651D03*
X60633Y-26151D03*
X60633Y-26651D03*
X58587Y-26651D03*
X58587Y-26151D03*
X58587Y-25651D03*
X58587Y-25151D03*
X60629Y-18746D03*
X60629Y-19246D03*
X60629Y-19746D03*
X60629Y-20246D03*
X58583Y-20246D03*
X58583Y-19746D03*
X58583Y-19246D03*
X58583Y-18746D03*
G54D17*
X36043Y-31385D03*
X36043Y-30755D03*
X36043Y-30125D03*
X36043Y-29496D03*
X36043Y-28866D03*
X36043Y-28236D03*
X36043Y-27606D03*
X36043Y-26976D03*
X36043Y-26346D03*
X36043Y-32015D03*
X36043Y-32645D03*
X36043Y-33275D03*
X36043Y-33905D03*
X36043Y-34535D03*
X36043Y-35165D03*
X36043Y-35795D03*
X36043Y-36425D03*
X36496Y-36740D03*
X36496Y-36110D03*
X36496Y-35480D03*
X36496Y-34850D03*
X36496Y-34220D03*
X36496Y-33590D03*
X36496Y-32960D03*
X36496Y-32330D03*
X36496Y-26661D03*
X36496Y-27291D03*
X36496Y-27921D03*
X36496Y-28551D03*
X36496Y-29181D03*
X36496Y-29811D03*
X36496Y-30440D03*
X36496Y-31070D03*
X36496Y-31700D03*
X37421Y-31543D03*
X37421Y-30913D03*
X37421Y-30283D03*
X37421Y-29653D03*
X37421Y-29023D03*
X37421Y-28393D03*
X37421Y-27763D03*
X37421Y-27133D03*
X37421Y-26503D03*
X37421Y-32173D03*
X37421Y-32803D03*
X37421Y-33433D03*
X37421Y-34062D03*
X37421Y-34692D03*
X37421Y-35322D03*
X37421Y-35952D03*
X37421Y-36582D03*
X36968Y-36267D03*
X36968Y-35637D03*
X36968Y-35007D03*
X36968Y-34377D03*
X36968Y-33748D03*
X36968Y-33118D03*
X36968Y-32488D03*
X36968Y-31858D03*
X36968Y-26188D03*
X36968Y-26818D03*
X36968Y-27448D03*
X36968Y-28078D03*
X36968Y-28708D03*
X36968Y-29338D03*
X36968Y-29968D03*
X36968Y-30598D03*
X36968Y-31228D03*
G54D14*
X36496Y-25098D03*
G54D18*
X35464Y-23220D03*
X35464Y-39716D03*
G54D14*
X36496Y-37834D03*
G54D13*
X56799Y-39137D03*
X56811Y-40598D03*
X65074Y-13728D03*
X53452Y-25129D03*
X53326Y-17645D03*
X53433Y-26496D03*
X53433Y-27507D03*
X50051Y-29610D03*
X39578Y-18307D03*
X39578Y-17307D03*
X39578Y-16307D03*
X39578Y-19311D03*
X65141Y-12232D03*
X41271Y-13515D03*
G54D19*
X41271Y-14515D03*
X41271Y-15515D03*
X41271Y-16515D03*
X41271Y-17515D03*
X41271Y-18515D03*
G54D11*
X45988Y-24951D03*
X45988Y-25701D03*
G54D12*
X48282Y-20763D03*
X49032Y-20763D03*
X48282Y-21484D03*
X49032Y-21484D03*
X42733Y-21137D03*
X41983Y-21137D03*
X48961Y-23688D03*
X48211Y-23688D03*
G54D11*
X42846Y-26000D03*
X42846Y-25250D03*
G54D12*
X48274Y-20007D03*
X49024Y-20007D03*
G54D11*
X47098Y-18794D03*
X47098Y-19544D03*
X45724Y-19093D03*
X45724Y-19843D03*
X45039Y-19097D03*
X45039Y-19847D03*
X48208Y-18294D03*
X48208Y-19044D03*
X42421Y-23943D03*
X42421Y-24693D03*
G54D20*
X55944Y-18055D03*
X55944Y-15693D03*
X55901Y-24523D03*
X55901Y-22161D03*
G54D21*
X62267Y-26641D03*
X64629Y-26641D03*
G54D20*
X55929Y-32086D03*
X55929Y-29724D03*
G54D22*
X62126Y-33354D03*
X64014Y-33354D03*
G54D23*
X61984Y-20259D03*
X63598Y-20259D03*
G54D24*
X36188Y-8791D03*
X64622Y-8791D03*
X36200Y-41641D03*
X64661Y-41598D03*
G54D25*
X39354Y-42051D03*
G54D26*
X51598Y-11822D03*
X47188Y-33448D03*
X46606Y-33452D03*
X45240Y-33452D03*
X46444Y-21287D03*
X46444Y-21744D03*
X43429Y-20586D03*
X50622Y-12228D03*
X42669Y-33452D03*
X42669Y-32960D03*
X44043Y-27464D03*
X43653Y-27460D03*
X43220Y-27464D03*
X42862Y-27468D03*
X42433Y-27464D03*
X43413Y-20200D03*
X42066Y-25181D03*
X45346Y-20362D03*
X42925Y-14877D03*
X49358Y-19696D03*
X61338Y-15681D03*
X37681Y-16858D03*
X56925Y-27405D03*
X49622Y-21444D03*
X47409Y-22606D03*
X43169Y-16677D03*
X47645Y-23535D03*
X46114Y-26216D03*
X41405Y-21232D03*
X45968Y-15598D03*
X44196Y-15602D03*
X48740Y-19011D03*
X46370Y-19759D03*
X44322Y-19783D03*
X38318Y-16106D03*
X41539Y-20811D03*
X59661Y-29988D03*
X43562Y-23444D03*
X49535Y-23692D03*
X45854Y-24484D03*
X43212Y-20980D03*
X35850Y-37543D03*
X51598Y-27500D03*
X44492Y-10696D03*
X61984Y-19263D03*
X40614Y-13141D03*
X47677Y-19952D03*
X47818Y-21122D03*
X47811Y-20488D03*
X42673Y-26755D03*
X47901Y-18212D03*
X46881Y-18208D03*
X45854Y-18204D03*
X44834Y-18208D03*
X49618Y-11909D03*
X42043Y-27464D03*
X41645Y-25275D03*
X43188Y-20397D03*
X50082Y-20007D03*
G54D27*
X49629Y-12570D02*
X50850Y-12570D01*
X43582Y-11362D02*
X44791Y-12570D01*
X44791Y-12570D02*
X49629Y-12570D01*
G54D28*
X43582Y-11212D02*
X43582Y-11362D01*
G54D27*
X50850Y-12570D02*
X51598Y-11822D01*
G54D28*
X36661Y-35165D02*
X36814Y-35318D01*
X36814Y-35318D02*
X37035Y-35318D01*
X37035Y-35318D02*
X37204Y-35488D01*
X37204Y-35488D02*
X37204Y-35496D01*
X37204Y-35496D02*
X37342Y-35633D01*
X37342Y-35633D02*
X37574Y-35633D01*
X36661Y-35165D02*
X36043Y-35165D01*
X42649Y-35633D02*
X37574Y-35633D01*
X42984Y-35299D02*
X42649Y-35633D01*
X45338Y-35299D02*
X42984Y-35299D01*
X47188Y-33448D02*
X45338Y-35299D01*
X36673Y-34673D02*
X36496Y-34850D01*
X37031Y-34673D02*
X36673Y-34673D01*
X37173Y-34814D02*
X37031Y-34673D01*
X37173Y-34826D02*
X37173Y-34814D01*
X37200Y-34854D02*
X37173Y-34826D01*
X37200Y-34866D02*
X37200Y-34854D01*
X37342Y-35007D02*
X37200Y-34866D01*
X45051Y-35007D02*
X37342Y-35007D01*
X46606Y-33452D02*
X45051Y-35007D01*
X36783Y-34059D02*
X36629Y-33905D01*
X36629Y-33905D02*
X36043Y-33905D01*
X37039Y-34059D02*
X36783Y-34059D01*
X37192Y-34212D02*
X37039Y-34059D01*
X37192Y-34220D02*
X37192Y-34212D01*
X37204Y-34232D02*
X37192Y-34220D01*
X37204Y-34240D02*
X37204Y-34232D01*
X37338Y-34374D02*
X37204Y-34240D01*
X44318Y-34374D02*
X37338Y-34374D01*
X45240Y-33452D02*
X44318Y-34374D01*
G54D27*
X44708Y-20791D02*
X44700Y-20791D01*
X45799Y-20791D02*
X45948Y-20791D01*
X45799Y-20791D02*
X44708Y-20791D01*
X46444Y-21287D02*
X45948Y-20791D01*
X44700Y-20791D02*
X44629Y-20720D01*
X42181Y-18263D02*
X42370Y-18452D01*
X42370Y-18452D02*
X42476Y-18559D01*
X42476Y-18559D02*
X42555Y-18637D01*
X42555Y-18637D02*
X42555Y-18645D01*
X42555Y-18645D02*
X42818Y-18909D01*
X42818Y-18909D02*
X42968Y-19059D01*
X42968Y-19059D02*
X43118Y-19208D01*
X43118Y-19208D02*
X43236Y-19326D01*
X43236Y-19326D02*
X43322Y-19413D01*
X43322Y-19413D02*
X43870Y-19960D01*
X43870Y-19960D02*
X44070Y-20161D01*
X44070Y-20161D02*
X44192Y-20283D01*
X44192Y-20283D02*
X44629Y-20720D01*
X42181Y-18263D02*
X42181Y-15000D01*
X42181Y-15000D02*
X41696Y-14515D01*
X41696Y-14515D02*
X41271Y-14515D01*
X44629Y-20720D02*
X44661Y-20751D01*
X46447Y-21284D02*
X46889Y-21284D01*
X46444Y-21287D02*
X46447Y-21284D01*
X41834Y-18275D02*
X44649Y-21090D01*
X46440Y-21744D02*
X45787Y-21090D01*
X45787Y-21090D02*
X44649Y-21090D01*
X41834Y-18275D02*
X41834Y-15622D01*
X41834Y-15622D02*
X41665Y-15452D01*
X41665Y-15452D02*
X41334Y-15452D01*
X41271Y-15515D02*
X41334Y-15452D01*
X46440Y-21744D02*
X46444Y-21744D01*
X46762Y-21904D02*
X46889Y-21904D01*
X46602Y-21744D02*
X46762Y-21904D01*
X46444Y-21744D02*
X46602Y-21744D01*
G54D28*
X39578Y-19988D02*
X39578Y-19311D01*
X40181Y-20590D02*
X39578Y-19988D01*
X41555Y-20590D02*
X40181Y-20590D01*
X41559Y-20586D02*
X41555Y-20590D01*
X43019Y-20586D02*
X41559Y-20586D01*
X43429Y-20586D02*
X43019Y-20586D01*
G54D27*
X49625Y-12244D02*
X50606Y-12244D01*
X44614Y-11212D02*
X45641Y-12240D01*
X45641Y-12240D02*
X49622Y-12240D01*
G54D28*
X49622Y-12240D02*
X49625Y-12244D01*
X44484Y-11212D02*
X44614Y-11212D01*
X50606Y-12244D02*
X50622Y-12228D01*
X36661Y-33275D02*
X36043Y-33275D01*
X36822Y-33437D02*
X36661Y-33275D01*
X37047Y-33437D02*
X36822Y-33437D01*
X37188Y-33578D02*
X37047Y-33437D01*
X37188Y-33586D02*
X37188Y-33578D01*
X37208Y-33606D02*
X37188Y-33586D01*
X37208Y-33614D02*
X37208Y-33606D01*
X37346Y-33751D02*
X37208Y-33614D01*
X42370Y-33751D02*
X37346Y-33751D01*
X42669Y-33452D02*
X42370Y-33751D01*
X36633Y-32822D02*
X36496Y-32960D01*
X37066Y-32822D02*
X36633Y-32822D01*
X37173Y-32929D02*
X37066Y-32822D01*
X37173Y-32937D02*
X37173Y-32929D01*
X37196Y-32960D02*
X37173Y-32937D01*
X37196Y-32968D02*
X37196Y-32960D01*
X37346Y-33118D02*
X37196Y-32968D01*
X42511Y-33118D02*
X37346Y-33118D01*
X42669Y-32960D02*
X42511Y-33118D01*
X36625Y-30125D02*
X36043Y-30125D01*
X36791Y-30291D02*
X36625Y-30125D01*
X37047Y-30291D02*
X36791Y-30291D01*
X37188Y-30433D02*
X37047Y-30291D01*
X37188Y-30440D02*
X37188Y-30433D01*
X37346Y-30598D02*
X37188Y-30440D01*
X40909Y-30598D02*
X37346Y-30598D01*
X44043Y-27464D02*
X40909Y-30598D01*
X36657Y-29649D02*
X36496Y-29811D01*
X37039Y-29649D02*
X36657Y-29649D01*
X37169Y-29779D02*
X37039Y-29649D01*
X37169Y-29783D02*
X37169Y-29779D01*
X37200Y-29814D02*
X37169Y-29783D01*
X37200Y-29826D02*
X37200Y-29814D01*
X37346Y-29972D02*
X37200Y-29826D01*
X41141Y-29972D02*
X37346Y-29972D01*
X43653Y-27460D02*
X41141Y-29972D01*
X36669Y-28866D02*
X36043Y-28866D01*
X36834Y-29031D02*
X36669Y-28866D01*
X37051Y-29031D02*
X36834Y-29031D01*
X37185Y-29165D02*
X37051Y-29031D01*
X37185Y-29173D02*
X37185Y-29165D01*
X37208Y-29196D02*
X37185Y-29173D01*
X37208Y-29204D02*
X37208Y-29196D01*
X37342Y-29338D02*
X37208Y-29204D01*
X41346Y-29338D02*
X37342Y-29338D01*
X43220Y-27464D02*
X41346Y-29338D01*
X36641Y-28236D02*
X36043Y-28236D01*
X36795Y-28389D02*
X36641Y-28236D01*
X37039Y-28389D02*
X36795Y-28389D01*
X37196Y-28547D02*
X37039Y-28389D01*
X37196Y-28559D02*
X37196Y-28547D01*
X37346Y-28708D02*
X37196Y-28559D01*
X41622Y-28708D02*
X37346Y-28708D01*
X42862Y-27468D02*
X41622Y-28708D01*
X37074Y-27795D02*
X36622Y-27795D01*
X36622Y-27795D02*
X36496Y-27921D01*
X37188Y-27909D02*
X37074Y-27795D01*
X37188Y-27917D02*
X37188Y-27909D01*
X37346Y-28074D02*
X37188Y-27917D01*
X41822Y-28074D02*
X37346Y-28074D01*
X42433Y-27464D02*
X41822Y-28074D01*
X40035Y-17307D02*
X39578Y-17307D01*
X40425Y-17696D02*
X40035Y-17307D01*
X40425Y-20059D02*
X40425Y-17696D01*
X40574Y-20208D02*
X40425Y-20059D01*
X43405Y-20208D02*
X40574Y-20208D01*
X43413Y-20200D02*
X43405Y-20208D01*
G54D27*
X65074Y-13728D02*
X64582Y-13728D01*
X58114Y-8940D02*
X57401Y-9653D01*
X62759Y-8940D02*
X58114Y-8940D01*
X64401Y-10582D02*
X62759Y-8940D01*
X64401Y-13547D02*
X64401Y-10582D01*
X64582Y-13728D02*
X64401Y-13547D01*
G54D29*
X42421Y-24693D02*
X42567Y-24693D01*
X42567Y-24693D02*
X42716Y-24842D01*
X42567Y-24693D02*
X42716Y-24842D01*
X42846Y-25250D02*
X42597Y-25250D01*
X42597Y-25250D02*
X42405Y-25059D01*
X42846Y-25250D02*
X42846Y-25122D01*
X42625Y-24901D02*
X42625Y-25030D01*
X42846Y-25122D02*
X42625Y-24901D01*
X42846Y-25250D02*
X43079Y-25250D01*
X43079Y-25250D02*
X43291Y-25039D01*
X42846Y-25250D02*
X42847Y-25250D01*
X42847Y-25250D02*
X43173Y-24925D01*
X42846Y-25250D02*
X42846Y-25078D01*
X42846Y-25078D02*
X43011Y-24913D01*
X42846Y-25250D02*
X42846Y-24692D01*
X42846Y-24692D02*
X42830Y-24677D01*
X42421Y-24693D02*
X42421Y-24825D01*
X42421Y-24825D02*
X42625Y-25030D01*
X42421Y-24693D02*
X42369Y-24693D01*
X42369Y-24693D02*
X42070Y-24992D01*
X42421Y-24693D02*
X42195Y-24693D01*
X42195Y-24693D02*
X42011Y-24877D01*
X42421Y-24826D02*
X42421Y-24693D01*
X42066Y-25181D02*
X42421Y-24826D01*
X49032Y-20015D02*
X49024Y-20007D01*
X49032Y-20763D02*
X49032Y-20015D01*
X49032Y-21484D02*
X49032Y-20763D01*
X49047Y-20007D02*
X49024Y-20007D01*
X49358Y-19696D02*
X49047Y-20007D01*
X36968Y-36724D02*
X36968Y-37047D01*
X36968Y-37047D02*
X36972Y-37051D01*
X36968Y-36267D02*
X36968Y-36724D01*
X36968Y-36724D02*
X36968Y-36736D01*
G54D27*
X36968Y-36736D02*
X36976Y-36744D01*
X49582Y-21484D02*
X49032Y-21484D01*
X49622Y-21444D02*
X49582Y-21484D01*
G54D30*
X36043Y-34535D02*
X35433Y-34535D01*
X36043Y-32645D02*
X35444Y-32645D01*
X36043Y-29496D02*
X35460Y-29496D01*
G54D27*
X36496Y-30440D02*
X35551Y-30440D01*
X36496Y-35480D02*
X35578Y-35480D01*
X36043Y-34535D02*
X36637Y-34535D01*
X36795Y-34377D02*
X36968Y-34377D01*
X36637Y-34535D02*
X36795Y-34377D01*
X36496Y-33590D02*
X35562Y-33590D01*
X36043Y-32645D02*
X36637Y-32645D01*
X36795Y-32488D02*
X36968Y-32488D01*
X36637Y-32645D02*
X36795Y-32488D01*
X36043Y-29496D02*
X36653Y-29496D01*
X36811Y-29338D02*
X36968Y-29338D01*
X36653Y-29496D02*
X36811Y-29338D01*
G54D30*
X37850Y-26074D02*
X37421Y-26503D01*
G54D29*
X36496Y-26661D02*
X36496Y-25885D01*
G54D27*
X36496Y-28551D02*
X35578Y-28551D01*
G54D31*
X36043Y-27606D02*
X36811Y-27606D01*
X36811Y-27606D02*
X36968Y-27448D01*
G54D30*
X36043Y-27606D02*
X35531Y-27606D01*
G54D29*
X35531Y-27606D02*
X35527Y-27610D01*
X58753Y-10433D02*
X59655Y-10433D01*
X57852Y-10433D02*
X58753Y-10433D01*
X56049Y-10433D02*
X54866Y-10433D01*
G54D28*
X55192Y-11618D02*
X55598Y-11212D01*
X55047Y-11618D02*
X55192Y-11618D01*
X54700Y-11271D02*
X55047Y-11618D01*
X54700Y-10598D02*
X54700Y-11271D01*
X54866Y-10433D02*
X54700Y-10598D01*
X56049Y-10433D02*
X55527Y-10433D01*
X55527Y-10433D02*
X55523Y-10429D01*
G54D27*
X42230Y-10433D02*
X42523Y-10433D01*
X43734Y-10732D02*
X44033Y-10433D01*
X43468Y-10732D02*
X43734Y-10732D01*
X43303Y-10897D02*
X43468Y-10732D01*
X42988Y-10897D02*
X43303Y-10897D01*
X42523Y-10433D02*
X42988Y-10897D01*
X44935Y-10433D02*
X45836Y-10433D01*
X41779Y-11212D02*
X41779Y-10883D01*
X41779Y-10883D02*
X42230Y-10433D01*
G54D29*
X36043Y-36425D02*
X36035Y-36425D01*
G54D27*
X38318Y-16106D02*
X38318Y-15414D01*
X38318Y-15414D02*
X38259Y-15355D01*
G54D29*
X43562Y-23444D02*
X43385Y-23444D01*
X42886Y-23943D02*
X42421Y-23943D01*
X43385Y-23444D02*
X42886Y-23943D01*
G54D27*
X38318Y-19433D02*
X38318Y-16106D01*
X39692Y-20807D02*
X38318Y-19433D01*
X40141Y-20807D02*
X39692Y-20807D01*
X40145Y-20811D02*
X40141Y-20807D01*
X40236Y-20811D02*
X40145Y-20811D01*
X40858Y-20811D02*
X40236Y-20811D01*
X41539Y-20811D02*
X40858Y-20811D01*
G54D28*
X55929Y-32086D02*
X56795Y-32086D01*
G54D27*
X56795Y-32086D02*
X58082Y-30799D01*
X58082Y-30799D02*
X59129Y-30799D01*
X59129Y-30799D02*
X59661Y-30267D01*
X59661Y-30267D02*
X59661Y-29988D01*
G54D29*
X58583Y-32868D02*
X58583Y-33368D01*
X58583Y-33368D02*
X58163Y-33368D01*
X58163Y-33368D02*
X57834Y-33039D01*
X56881Y-32086D02*
X57834Y-33039D01*
X56881Y-32086D02*
X55929Y-32086D01*
X50051Y-29610D02*
X50051Y-30251D01*
X51885Y-32086D02*
X55929Y-32086D01*
X50051Y-30251D02*
X51885Y-32086D01*
X45555Y-24185D02*
X45854Y-24484D01*
X44303Y-24185D02*
X45555Y-24185D01*
X43562Y-23444D02*
X44303Y-24185D01*
X48961Y-23688D02*
X49531Y-23688D01*
X49531Y-23688D02*
X49535Y-23692D01*
X45988Y-24618D02*
X45988Y-24951D01*
X45854Y-24484D02*
X45988Y-24618D01*
X42906Y-20964D02*
X42733Y-21137D01*
X43212Y-20980D02*
X43196Y-20964D01*
X43196Y-20964D02*
X42906Y-20964D01*
G54D28*
X36043Y-36035D02*
X36259Y-36251D01*
X36259Y-36251D02*
X36259Y-36255D01*
X36259Y-36255D02*
X36283Y-36279D01*
X36283Y-36279D02*
X36283Y-36287D01*
X36283Y-36287D02*
X36350Y-36354D01*
X36350Y-36354D02*
X36350Y-36472D01*
X36350Y-36472D02*
X36299Y-36523D01*
X36299Y-36523D02*
X36299Y-36543D01*
X36299Y-36543D02*
X36283Y-36559D01*
X36283Y-36559D02*
X36283Y-36566D01*
X36283Y-36566D02*
X36251Y-36598D01*
X36251Y-36598D02*
X36251Y-36606D01*
X36251Y-36606D02*
X36011Y-36846D01*
X36011Y-36846D02*
X36011Y-37224D01*
X36043Y-36035D02*
X36043Y-35795D01*
X35850Y-37405D02*
X35850Y-37543D01*
X36011Y-37244D02*
X35850Y-37405D01*
X36011Y-37224D02*
X36011Y-37244D01*
X51598Y-27500D02*
X53425Y-27500D01*
X53425Y-27500D02*
X53433Y-27507D01*
G54D27*
X44484Y-10688D02*
X44484Y-9653D01*
X44492Y-10696D02*
X44484Y-10688D01*
G54D28*
X61984Y-20259D02*
X61984Y-19263D01*
X61984Y-19263D02*
X61984Y-19263D01*
G54D29*
X60629Y-31868D02*
X61828Y-31868D01*
X61828Y-31868D02*
X62126Y-32166D01*
X60629Y-33368D02*
X62113Y-33368D01*
X62113Y-33368D02*
X62126Y-33354D01*
X60629Y-32868D02*
X60629Y-33368D01*
X60633Y-26651D02*
X62257Y-26651D01*
X62257Y-26651D02*
X62267Y-26641D01*
X60633Y-26151D02*
X60633Y-26651D01*
X60629Y-20246D02*
X61970Y-20246D01*
X61970Y-20246D02*
X61984Y-20259D01*
X60629Y-19746D02*
X60629Y-20246D01*
G54D30*
X61984Y-20259D02*
X61984Y-26358D01*
X61984Y-26358D02*
X62267Y-26641D01*
X62126Y-33354D02*
X62126Y-32166D01*
X62126Y-32166D02*
X62126Y-26782D01*
G54D29*
X62126Y-26782D02*
X62267Y-26641D01*
G54D30*
X56799Y-39137D02*
X58500Y-39137D01*
X58500Y-39137D02*
X62126Y-35510D01*
X62126Y-35510D02*
X62126Y-33354D01*
G54D27*
X41271Y-16515D02*
X41196Y-16515D01*
X40618Y-13145D02*
X40614Y-13141D01*
X40618Y-15937D02*
X40618Y-13145D01*
X41196Y-16515D02*
X40618Y-15937D01*
X47677Y-19952D02*
X47629Y-20000D01*
G54D29*
X47629Y-20000D02*
X47629Y-20244D01*
G54D27*
X47818Y-21122D02*
X47814Y-21118D01*
G54D29*
X47814Y-21118D02*
X47629Y-21118D01*
G54D27*
X47811Y-20488D02*
X47803Y-20496D01*
G54D29*
X47803Y-20496D02*
X47629Y-20496D01*
X53452Y-25129D02*
X53452Y-24523D01*
X53452Y-24523D02*
X53460Y-24523D01*
X53929Y-24531D02*
X53936Y-24523D01*
X48282Y-21484D02*
X48282Y-21774D01*
X50445Y-21164D02*
X50445Y-20775D01*
X49622Y-21988D02*
X50445Y-21164D01*
X48496Y-21988D02*
X49622Y-21988D01*
X48282Y-21774D02*
X48496Y-21988D01*
X48274Y-20007D02*
X48274Y-19784D01*
X49330Y-19188D02*
X49691Y-19188D01*
X49047Y-19472D02*
X49330Y-19188D01*
X48586Y-19472D02*
X49047Y-19472D01*
X48274Y-19784D02*
X48586Y-19472D01*
X47629Y-20637D02*
X47629Y-20496D01*
X47629Y-20496D02*
X47629Y-20244D01*
X47866Y-20007D02*
X48274Y-20007D01*
X47629Y-20244D02*
X47866Y-20007D01*
X48282Y-20763D02*
X47755Y-20763D01*
X47755Y-20763D02*
X47629Y-20637D01*
X48282Y-21484D02*
X47897Y-21484D01*
X47897Y-21484D02*
X47629Y-21216D01*
X55901Y-24523D02*
X53936Y-24523D01*
X53936Y-24523D02*
X53460Y-24523D01*
X53460Y-24523D02*
X53007Y-24523D01*
X47629Y-22110D02*
X47629Y-21216D01*
X47629Y-21216D02*
X47629Y-21118D01*
X47629Y-21118D02*
X47629Y-20637D01*
G54D27*
X47629Y-20637D02*
X47629Y-20582D01*
G54D29*
X48543Y-23023D02*
X47629Y-22110D01*
X51507Y-23023D02*
X48543Y-23023D01*
X53007Y-24523D02*
X51507Y-23023D01*
G54D28*
X55901Y-24523D02*
X55661Y-24523D01*
G54D29*
X57468Y-26292D02*
X56591Y-26292D01*
X55901Y-25602D02*
X55901Y-24523D01*
X56591Y-26292D02*
X55901Y-25602D01*
X58587Y-26151D02*
X58587Y-26651D01*
X58587Y-26151D02*
X57609Y-26151D01*
X57609Y-26151D02*
X57468Y-26292D01*
X58587Y-26651D02*
X57827Y-26651D01*
X57827Y-26651D02*
X57468Y-26292D01*
X53326Y-17645D02*
X53326Y-18059D01*
X53326Y-18059D02*
X53177Y-18208D01*
X42846Y-26582D02*
X42846Y-26000D01*
X42673Y-26755D02*
X42846Y-26582D01*
X48208Y-18294D02*
X47983Y-18294D01*
X47983Y-18294D02*
X47901Y-18212D01*
X47901Y-18212D02*
X47901Y-18208D01*
X45724Y-19093D02*
X45724Y-18334D01*
X45724Y-18334D02*
X45854Y-18204D01*
X45854Y-18204D02*
X45854Y-18208D01*
X44834Y-18208D02*
X44830Y-18208D01*
X44830Y-18208D02*
X45224Y-18208D01*
X45039Y-19097D02*
X45039Y-18393D01*
X45039Y-18393D02*
X45224Y-18208D01*
X47098Y-18794D02*
X47098Y-18208D01*
X47082Y-18208D02*
X47082Y-18299D01*
X47098Y-18208D02*
X47082Y-18208D01*
X47082Y-18299D02*
X46992Y-18208D01*
X48208Y-18294D02*
X48375Y-18294D01*
X48460Y-18208D02*
X48208Y-18294D01*
X48375Y-18294D02*
X48460Y-18208D01*
X55944Y-18055D02*
X55248Y-18055D01*
X55248Y-18055D02*
X55094Y-18208D01*
X55094Y-18208D02*
X53177Y-18208D01*
X53177Y-18208D02*
X47901Y-18208D01*
X47901Y-18208D02*
X46992Y-18208D01*
X46992Y-18208D02*
X46881Y-18208D01*
X46881Y-18208D02*
X45854Y-18208D01*
X45854Y-18208D02*
X45224Y-18208D01*
X57401Y-19890D02*
X56953Y-19890D01*
X55944Y-18881D02*
X55944Y-18055D01*
X56953Y-19890D02*
X55944Y-18881D01*
X58583Y-19746D02*
X58583Y-20246D01*
X58583Y-19746D02*
X57546Y-19746D01*
X57546Y-19746D02*
X57401Y-19890D01*
X58583Y-20246D02*
X57756Y-20246D01*
X57756Y-20246D02*
X57401Y-19890D01*
G54D28*
X45385Y-11212D02*
X45645Y-11212D01*
G54D27*
X46342Y-11909D02*
X49618Y-11909D01*
X45645Y-11212D02*
X46342Y-11909D01*
G54D28*
X41645Y-25275D02*
X42043Y-25673D01*
X42043Y-25673D02*
X42043Y-27464D01*
X39637Y-18366D02*
X39578Y-18307D01*
X39976Y-18366D02*
X39637Y-18366D01*
X40188Y-18578D02*
X39976Y-18366D01*
X40188Y-20263D02*
X40188Y-18578D01*
X40322Y-20397D02*
X40188Y-20263D01*
X43188Y-20397D02*
X40322Y-20397D01*
G54D27*
X39578Y-16307D02*
X39578Y-15236D01*
X38947Y-14605D02*
X38259Y-14605D01*
X39578Y-15236D02*
X38947Y-14605D01*
X38279Y-13926D02*
X38279Y-14585D01*
X38279Y-14585D02*
X38259Y-14605D01*
X65141Y-12232D02*
X65141Y-10858D01*
X57484Y-8669D02*
X56500Y-9653D01*
X62952Y-8669D02*
X57484Y-8669D01*
X65141Y-10858D02*
X62952Y-8669D01*
G54D29*
X49699Y-20007D02*
X50082Y-20007D01*
X49695Y-20775D02*
X49695Y-20011D01*
X49695Y-20011D02*
X49699Y-20007D01*
X50449Y-20007D02*
X50449Y-19196D01*
X50449Y-19196D02*
X50441Y-19188D01*
X58587Y-25651D02*
X59281Y-25651D01*
X59594Y-24416D02*
X59880Y-24129D01*
X59594Y-25338D02*
X59594Y-24416D01*
X59281Y-25651D02*
X59594Y-25338D01*
X58587Y-25651D02*
X57577Y-25651D01*
X57577Y-25651D02*
X57468Y-25542D01*
X58583Y-19246D02*
X59348Y-19246D01*
X59751Y-17833D02*
X59876Y-17708D01*
X59751Y-18842D02*
X59751Y-17833D01*
X59348Y-19246D02*
X59751Y-18842D01*
X57401Y-19140D02*
X57597Y-19140D01*
X57702Y-19246D02*
X58583Y-19246D01*
X57597Y-19140D02*
X57702Y-19246D01*
G54D10*
G36*
X36119Y-27611D02*
X36048Y-27682D01*
X36043Y-27677D01*
X36037Y-27682D01*
X35972Y-27617D01*
X35967Y-27611D01*
X35972Y-27606D01*
X35967Y-27600D01*
X36037Y-27530D01*
X36043Y-27535D01*
X36048Y-27530D01*
X36119Y-27600D01*
X36114Y-27606D01*
X36119Y-27611D01*
X36119Y-27611D01*
G37*
G54D32*
X36119Y-27611D02*
X36048Y-27682D01*
X36043Y-27677D01*
X36037Y-27682D01*
X35972Y-27617D01*
X35967Y-27611D01*
X35972Y-27606D01*
X35967Y-27600D01*
X36037Y-27530D01*
X36043Y-27535D01*
X36048Y-27530D01*
X36119Y-27600D01*
X36114Y-27606D01*
X36119Y-27611D01*
G54D10*
G36*
X36119Y-29501D02*
X36048Y-29572D01*
X36043Y-29566D01*
X36037Y-29572D01*
X35972Y-29507D01*
X35967Y-29501D01*
X35972Y-29496D01*
X35967Y-29490D01*
X36037Y-29419D01*
X36043Y-29425D01*
X36048Y-29419D01*
X36119Y-29490D01*
X36114Y-29496D01*
X36119Y-29501D01*
X36119Y-29501D01*
G37*
G54D32*
X36119Y-29501D02*
X36048Y-29572D01*
X36043Y-29566D01*
X36037Y-29572D01*
X35972Y-29507D01*
X35967Y-29501D01*
X35972Y-29496D01*
X35967Y-29490D01*
X36037Y-29419D01*
X36043Y-29425D01*
X36048Y-29419D01*
X36119Y-29490D01*
X36114Y-29496D01*
X36119Y-29501D01*
G54D10*
G36*
X36119Y-32651D02*
X36048Y-32721D01*
X36043Y-32716D01*
X36037Y-32721D01*
X35972Y-32656D01*
X35967Y-32651D01*
X35972Y-32645D01*
X35967Y-32640D01*
X36037Y-32569D01*
X36043Y-32574D01*
X36048Y-32569D01*
X36119Y-32640D01*
X36114Y-32645D01*
X36119Y-32651D01*
X36119Y-32651D01*
G37*
G54D32*
X36119Y-32651D02*
X36048Y-32721D01*
X36043Y-32716D01*
X36037Y-32721D01*
X35972Y-32656D01*
X35967Y-32651D01*
X35972Y-32645D01*
X35967Y-32640D01*
X36037Y-32569D01*
X36043Y-32574D01*
X36048Y-32569D01*
X36119Y-32640D01*
X36114Y-32645D01*
X36119Y-32651D01*
G54D10*
G36*
X36119Y-34541D02*
X36048Y-34611D01*
X36043Y-34606D01*
X36037Y-34611D01*
X35972Y-34546D01*
X35967Y-34541D01*
X35972Y-34535D01*
X35967Y-34529D01*
X36037Y-34459D01*
X36043Y-34464D01*
X36048Y-34459D01*
X36119Y-34529D01*
X36114Y-34535D01*
X36119Y-34541D01*
X36119Y-34541D01*
G37*
G54D32*
X36119Y-34541D02*
X36048Y-34611D01*
X36043Y-34606D01*
X36037Y-34611D01*
X35972Y-34546D01*
X35967Y-34541D01*
X35972Y-34535D01*
X35967Y-34529D01*
X36037Y-34459D01*
X36043Y-34464D01*
X36048Y-34459D01*
X36119Y-34529D01*
X36114Y-34535D01*
X36119Y-34541D01*
G54D10*
G36*
X36550Y-30439D02*
X36530Y-30488D01*
X36501Y-30517D01*
X36496Y-30511D01*
X36490Y-30517D01*
X36419Y-30446D01*
X36425Y-30440D01*
X36419Y-30435D01*
X36454Y-30400D01*
X36512Y-30400D01*
X36550Y-30439D01*
X36550Y-30439D01*
G37*
G54D32*
X36550Y-30439D02*
X36530Y-30488D01*
X36501Y-30517D01*
X36496Y-30511D01*
X36490Y-30517D01*
X36419Y-30446D01*
X36425Y-30440D01*
X36419Y-30435D01*
X36454Y-30400D01*
X36512Y-30400D01*
X36550Y-30439D01*
G54D10*
G36*
X36555Y-28538D02*
X36533Y-28591D01*
X36454Y-28591D01*
X36419Y-28556D01*
X36425Y-28551D01*
X36419Y-28545D01*
X36454Y-28510D01*
X36527Y-28510D01*
X36555Y-28538D01*
X36555Y-28538D01*
G37*
G54D32*
X36555Y-28538D02*
X36533Y-28591D01*
X36454Y-28591D01*
X36419Y-28556D01*
X36425Y-28551D01*
X36419Y-28545D01*
X36454Y-28510D01*
X36527Y-28510D01*
X36555Y-28538D01*
G54D10*
G36*
X36558Y-33570D02*
X36533Y-33630D01*
X36454Y-33630D01*
X36419Y-33596D01*
X36425Y-33590D01*
X36419Y-33584D01*
X36454Y-33550D01*
X36537Y-33550D01*
X36558Y-33570D01*
X36558Y-33570D01*
G37*
G54D32*
X36558Y-33570D02*
X36533Y-33630D01*
X36454Y-33630D01*
X36419Y-33596D01*
X36425Y-33590D01*
X36419Y-33584D01*
X36454Y-33550D01*
X36537Y-33550D01*
X36558Y-33570D01*
G54D10*
G36*
X36558Y-35460D02*
X36530Y-35527D01*
X36501Y-35556D01*
X36496Y-35551D01*
X36490Y-35556D01*
X36419Y-35485D01*
X36425Y-35480D01*
X36419Y-35474D01*
X36454Y-35439D01*
X36537Y-35439D01*
X36558Y-35460D01*
X36558Y-35460D01*
G37*
G54D32*
X36558Y-35460D02*
X36530Y-35527D01*
X36501Y-35556D01*
X36496Y-35551D01*
X36490Y-35556D01*
X36419Y-35485D01*
X36425Y-35480D01*
X36419Y-35474D01*
X36454Y-35439D01*
X36537Y-35439D01*
X36558Y-35460D01*
G54D10*
G36*
X36558Y-26641D02*
X36530Y-26709D01*
X36501Y-26737D01*
X36496Y-26732D01*
X36490Y-26737D01*
X36419Y-26666D01*
X36425Y-26661D01*
X36419Y-26655D01*
X36490Y-26585D01*
X36496Y-26590D01*
X36501Y-26585D01*
X36558Y-26641D01*
X36558Y-26641D01*
G37*
G54D32*
X36558Y-26641D02*
X36530Y-26709D01*
X36501Y-26737D01*
X36496Y-26732D01*
X36490Y-26737D01*
X36419Y-26666D01*
X36425Y-26661D01*
X36419Y-26655D01*
X36490Y-26585D01*
X36496Y-26590D01*
X36501Y-26585D01*
X36558Y-26641D01*
G54D10*
G36*
X36986Y-34398D02*
X36907Y-34398D01*
X36906Y-34397D01*
X36930Y-34338D01*
X36978Y-34386D01*
X36978Y-34386D01*
X36986Y-34398D01*
X36986Y-34398D01*
G37*
G54D32*
X36986Y-34398D02*
X36907Y-34398D01*
X36906Y-34397D01*
X36930Y-34338D01*
X36978Y-34386D01*
X36978Y-34386D01*
X36986Y-34398D01*
G54D10*
G36*
X36998Y-29375D02*
X36923Y-29375D01*
X36906Y-29358D01*
X36928Y-29306D01*
X36937Y-29306D01*
X36975Y-29343D01*
X36990Y-29367D01*
X36998Y-29375D01*
X36998Y-29375D01*
G37*
G54D32*
X36998Y-29375D02*
X36923Y-29375D01*
X36906Y-29358D01*
X36928Y-29306D01*
X36937Y-29306D01*
X36975Y-29343D01*
X36990Y-29367D01*
X36998Y-29375D01*
G54D10*
G36*
X37044Y-27454D02*
X36978Y-27520D01*
X36969Y-27520D01*
X36968Y-27519D01*
X36967Y-27520D01*
X36958Y-27520D01*
X36906Y-27468D01*
X36934Y-27401D01*
X36962Y-27372D01*
X36968Y-27378D01*
X36974Y-27372D01*
X37044Y-27443D01*
X37039Y-27448D01*
X37044Y-27454D01*
X37044Y-27454D01*
G37*
G54D32*
X37044Y-27454D02*
X36978Y-27520D01*
X36969Y-27520D01*
X36968Y-27519D01*
X36967Y-27520D01*
X36958Y-27520D01*
X36906Y-27468D01*
X36934Y-27401D01*
X36962Y-27372D01*
X36968Y-27378D01*
X36974Y-27372D01*
X37044Y-27443D01*
X37039Y-27448D01*
X37044Y-27454D01*
G54D10*
G36*
X37044Y-32493D02*
X36990Y-32548D01*
X36946Y-32548D01*
X36906Y-32507D01*
X36934Y-32440D01*
X36962Y-32411D01*
X36968Y-32417D01*
X36974Y-32411D01*
X37044Y-32482D01*
X37039Y-32488D01*
X37044Y-32493D01*
X37044Y-32493D01*
G37*
G54D32*
X37044Y-32493D02*
X36990Y-32548D01*
X36946Y-32548D01*
X36906Y-32507D01*
X36934Y-32440D01*
X36962Y-32411D01*
X36968Y-32417D01*
X36974Y-32411D01*
X37044Y-32482D01*
X37039Y-32488D01*
X37044Y-32493D01*
G54D10*
G36*
X37044Y-36273D02*
X36974Y-36343D01*
X36968Y-36338D01*
X36962Y-36343D01*
X36906Y-36287D01*
X36934Y-36220D01*
X36962Y-36191D01*
X36968Y-36197D01*
X36974Y-36191D01*
X37044Y-36262D01*
X37039Y-36267D01*
X37044Y-36273D01*
X37044Y-36273D01*
G37*
G54D32*
X37044Y-36273D02*
X36974Y-36343D01*
X36968Y-36338D01*
X36962Y-36343D01*
X36906Y-36287D01*
X36934Y-36220D01*
X36962Y-36191D01*
X36968Y-36197D01*
X36974Y-36191D01*
X37044Y-36262D01*
X37039Y-36267D01*
X37044Y-36273D01*
G54D10*
G36*
X37497Y-28399D02*
X37462Y-28434D01*
X37460Y-28434D01*
X37414Y-28388D01*
X37391Y-28353D01*
X37387Y-28349D01*
X37458Y-28349D01*
X37497Y-28388D01*
X37491Y-28393D01*
X37497Y-28399D01*
X37497Y-28399D01*
G37*
G54D32*
X37497Y-28399D02*
X37462Y-28434D01*
X37460Y-28434D01*
X37414Y-28388D01*
X37391Y-28353D01*
X37387Y-28349D01*
X37458Y-28349D01*
X37497Y-28388D01*
X37491Y-28393D01*
X37497Y-28399D01*
G54D10*
G36*
X37497Y-30289D02*
X37462Y-30323D01*
X37460Y-30323D01*
X37399Y-30262D01*
X37399Y-30262D01*
X37388Y-30247D01*
X37466Y-30247D01*
X37497Y-30277D01*
X37491Y-30283D01*
X37497Y-30289D01*
X37497Y-30289D01*
G37*
G54D32*
X37497Y-30289D02*
X37462Y-30323D01*
X37460Y-30323D01*
X37399Y-30262D01*
X37399Y-30262D01*
X37388Y-30247D01*
X37466Y-30247D01*
X37497Y-30277D01*
X37491Y-30283D01*
X37497Y-30289D01*
G54D10*
G36*
X37497Y-33438D02*
X37459Y-33476D01*
X37418Y-33435D01*
X37402Y-33412D01*
X37399Y-33408D01*
X37399Y-33408D01*
X37388Y-33392D01*
X37462Y-33392D01*
X37497Y-33427D01*
X37491Y-33433D01*
X37497Y-33438D01*
X37497Y-33438D01*
G37*
G54D32*
X37497Y-33438D02*
X37459Y-33476D01*
X37418Y-33435D01*
X37402Y-33412D01*
X37399Y-33408D01*
X37399Y-33408D01*
X37388Y-33392D01*
X37462Y-33392D01*
X37497Y-33427D01*
X37491Y-33433D01*
X37497Y-33438D01*
G54D10*
G36*
X37497Y-35328D02*
X37466Y-35359D01*
X37456Y-35359D01*
X37414Y-35317D01*
X37414Y-35317D01*
X37398Y-35294D01*
X37398Y-35294D01*
X37387Y-35282D01*
X37462Y-35282D01*
X37497Y-35317D01*
X37491Y-35322D01*
X37497Y-35328D01*
X37497Y-35328D01*
G37*
G54D32*
X37497Y-35328D02*
X37466Y-35359D01*
X37456Y-35359D01*
X37414Y-35317D01*
X37414Y-35317D01*
X37398Y-35294D01*
X37398Y-35294D01*
X37387Y-35282D01*
X37462Y-35282D01*
X37497Y-35317D01*
X37491Y-35322D01*
X37497Y-35328D01*
G54D10*
G36*
X42306Y-10438D02*
X42235Y-10509D01*
X42230Y-10503D01*
X42224Y-10509D01*
X42154Y-10438D01*
X42159Y-10433D01*
X42154Y-10427D01*
X42224Y-10356D01*
X42230Y-10362D01*
X42235Y-10356D01*
X42306Y-10427D01*
X42301Y-10433D01*
X42306Y-10438D01*
X42306Y-10438D01*
G37*
G54D32*
X42306Y-10438D02*
X42235Y-10509D01*
X42230Y-10503D01*
X42224Y-10509D01*
X42154Y-10438D01*
X42159Y-10433D01*
X42154Y-10427D01*
X42224Y-10356D01*
X42230Y-10362D01*
X42235Y-10356D01*
X42306Y-10427D01*
X42301Y-10433D01*
X42306Y-10438D01*
G54D10*
G36*
X44109Y-10438D02*
X44039Y-10509D01*
X44033Y-10503D01*
X44027Y-10509D01*
X43957Y-10438D01*
X43962Y-10433D01*
X43957Y-10427D01*
X44027Y-10356D01*
X44033Y-10362D01*
X44039Y-10356D01*
X44109Y-10427D01*
X44104Y-10433D01*
X44109Y-10438D01*
X44109Y-10438D01*
G37*
G54D32*
X44109Y-10438D02*
X44039Y-10509D01*
X44033Y-10503D01*
X44027Y-10509D01*
X43957Y-10438D01*
X43962Y-10433D01*
X43957Y-10427D01*
X44027Y-10356D01*
X44033Y-10362D01*
X44039Y-10356D01*
X44109Y-10427D01*
X44104Y-10433D01*
X44109Y-10438D01*
G54D10*
G36*
X45011Y-10438D02*
X44940Y-10509D01*
X44935Y-10503D01*
X44929Y-10509D01*
X44858Y-10438D01*
X44864Y-10433D01*
X44858Y-10427D01*
X44929Y-10356D01*
X44935Y-10362D01*
X44940Y-10356D01*
X45011Y-10427D01*
X45005Y-10433D01*
X45011Y-10438D01*
X45011Y-10438D01*
G37*
G54D32*
X45011Y-10438D02*
X44940Y-10509D01*
X44935Y-10503D01*
X44929Y-10509D01*
X44858Y-10438D01*
X44864Y-10433D01*
X44858Y-10427D01*
X44929Y-10356D01*
X44935Y-10362D01*
X44940Y-10356D01*
X45011Y-10427D01*
X45005Y-10433D01*
X45011Y-10438D01*
G54D10*
G36*
X49816Y-21300D02*
X49477Y-21639D01*
X49457Y-21639D01*
X49457Y-21596D01*
X49394Y-21534D01*
X49082Y-21534D01*
X49082Y-21542D01*
X48982Y-21542D01*
X48982Y-21534D01*
X48974Y-21534D01*
X48974Y-21434D01*
X48982Y-21434D01*
X48982Y-21226D01*
X48982Y-21021D01*
X48982Y-20813D01*
X48974Y-20813D01*
X48974Y-20713D01*
X48982Y-20713D01*
X48982Y-20301D01*
X48974Y-20293D01*
X48974Y-20057D01*
X48966Y-20057D01*
X48966Y-19957D01*
X48974Y-19957D01*
X48974Y-19950D01*
X49074Y-19950D01*
X49074Y-19957D01*
X49082Y-19957D01*
X49082Y-20057D01*
X49074Y-20057D01*
X49074Y-20470D01*
X49082Y-20478D01*
X49082Y-20713D01*
X49090Y-20713D01*
X49090Y-20813D01*
X49082Y-20813D01*
X49082Y-21021D01*
X49082Y-21226D01*
X49082Y-21434D01*
X49394Y-21434D01*
X49457Y-21371D01*
X49457Y-21294D01*
X49470Y-21300D01*
X49570Y-21300D01*
X49816Y-21300D01*
X49816Y-21300D01*
G37*
G54D32*
X49816Y-21300D02*
X49477Y-21639D01*
X49457Y-21639D01*
X49457Y-21596D01*
X49394Y-21534D01*
X49082Y-21534D01*
X49082Y-21542D01*
X48982Y-21542D01*
X48982Y-21534D01*
X48974Y-21534D01*
X48974Y-21434D01*
X48982Y-21434D01*
X48982Y-21226D01*
X48982Y-21021D01*
X48982Y-20813D01*
X48974Y-20813D01*
X48974Y-20713D01*
X48982Y-20713D01*
X48982Y-20301D01*
X48974Y-20293D01*
X48974Y-20057D01*
X48966Y-20057D01*
X48966Y-19957D01*
X48974Y-19957D01*
X48974Y-19950D01*
X49074Y-19950D01*
X49074Y-19957D01*
X49082Y-19957D01*
X49082Y-20057D01*
X49074Y-20057D01*
X49074Y-20470D01*
X49082Y-20478D01*
X49082Y-20713D01*
X49090Y-20713D01*
X49090Y-20813D01*
X49082Y-20813D01*
X49082Y-21021D01*
X49082Y-21226D01*
X49082Y-21434D01*
X49394Y-21434D01*
X49457Y-21371D01*
X49457Y-21294D01*
X49470Y-21300D01*
X49570Y-21300D01*
X49816Y-21300D01*
G54D10*
G36*
X56125Y-10438D02*
X56054Y-10509D01*
X56049Y-10503D01*
X56043Y-10509D01*
X55972Y-10438D01*
X55978Y-10433D01*
X55972Y-10427D01*
X56043Y-10356D01*
X56049Y-10362D01*
X56054Y-10356D01*
X56125Y-10427D01*
X56119Y-10433D01*
X56125Y-10438D01*
X56125Y-10438D01*
G37*
G54D32*
X56125Y-10438D02*
X56054Y-10509D01*
X56049Y-10503D01*
X56043Y-10509D01*
X55972Y-10438D01*
X55978Y-10433D01*
X55972Y-10427D01*
X56043Y-10356D01*
X56049Y-10362D01*
X56054Y-10356D01*
X56125Y-10427D01*
X56119Y-10433D01*
X56125Y-10438D01*
G54D10*
G36*
X57928Y-10438D02*
X57857Y-10509D01*
X57852Y-10503D01*
X57846Y-10509D01*
X57776Y-10438D01*
X57781Y-10433D01*
X57776Y-10427D01*
X57846Y-10356D01*
X57852Y-10362D01*
X57857Y-10356D01*
X57928Y-10427D01*
X57923Y-10433D01*
X57928Y-10438D01*
X57928Y-10438D01*
G37*
G54D32*
X57928Y-10438D02*
X57857Y-10509D01*
X57852Y-10503D01*
X57846Y-10509D01*
X57776Y-10438D01*
X57781Y-10433D01*
X57776Y-10427D01*
X57846Y-10356D01*
X57852Y-10362D01*
X57857Y-10356D01*
X57928Y-10427D01*
X57923Y-10433D01*
X57928Y-10438D01*
G54D10*
G36*
X58830Y-10438D02*
X58759Y-10509D01*
X58753Y-10503D01*
X58748Y-10509D01*
X58677Y-10438D01*
X58683Y-10433D01*
X58677Y-10427D01*
X58748Y-10356D01*
X58753Y-10362D01*
X58759Y-10356D01*
X58830Y-10427D01*
X58824Y-10433D01*
X58830Y-10438D01*
X58830Y-10438D01*
G37*
G54D32*
X58830Y-10438D02*
X58759Y-10509D01*
X58753Y-10503D01*
X58748Y-10509D01*
X58677Y-10438D01*
X58683Y-10433D01*
X58677Y-10427D01*
X58748Y-10356D01*
X58753Y-10362D01*
X58759Y-10356D01*
X58830Y-10427D01*
X58824Y-10433D01*
X58830Y-10438D01*
G54D10*
G36*
X65753Y-42702D02*
X65698Y-42702D01*
X65698Y-41392D01*
X65691Y-41375D01*
X65691Y-12482D01*
X65691Y-11882D01*
X65653Y-11790D01*
X65583Y-11720D01*
X65491Y-11682D01*
X65440Y-11682D01*
X65440Y-10858D01*
X65421Y-10762D01*
X65418Y-10743D01*
X65418Y-10743D01*
X65353Y-10646D01*
X64535Y-9828D01*
X64827Y-9828D01*
X65208Y-9671D01*
X65501Y-9379D01*
X65659Y-8998D01*
X65659Y-8585D01*
X65502Y-8204D01*
X65210Y-7912D01*
X64829Y-7754D01*
X64416Y-7753D01*
X64035Y-7911D01*
X63743Y-8202D01*
X63584Y-8584D01*
X63584Y-8877D01*
X63164Y-8457D01*
X63067Y-8392D01*
X62952Y-8370D01*
X57484Y-8370D01*
X57369Y-8392D01*
X57337Y-8414D01*
X57272Y-8457D01*
X56618Y-9112D01*
X56608Y-9108D01*
X56392Y-9108D01*
X56191Y-9191D01*
X56049Y-9333D01*
X55907Y-9191D01*
X55707Y-9108D01*
X55490Y-9108D01*
X55289Y-9191D01*
X55136Y-9344D01*
X55053Y-9544D01*
X55053Y-9761D01*
X55135Y-9962D01*
X55289Y-10115D01*
X55489Y-10198D01*
X55553Y-10198D01*
X55499Y-10352D01*
X55510Y-10569D01*
X55551Y-10669D01*
X55462Y-10673D01*
X55313Y-10735D01*
X55286Y-10830D01*
X55598Y-11141D01*
X55603Y-11136D01*
X55674Y-11207D01*
X55669Y-11212D01*
X55980Y-11524D01*
X56032Y-11509D01*
X56037Y-11521D01*
X56190Y-11674D01*
X56391Y-11757D01*
X56607Y-11757D01*
X56808Y-11675D01*
X56950Y-11532D01*
X57092Y-11674D01*
X57292Y-11757D01*
X57509Y-11757D01*
X57710Y-11675D01*
X57852Y-11532D01*
X57993Y-11674D01*
X58194Y-11757D01*
X58411Y-11757D01*
X58611Y-11675D01*
X58754Y-11532D01*
X58895Y-11674D01*
X59095Y-11757D01*
X59312Y-11757D01*
X59513Y-11675D01*
X59666Y-11521D01*
X59749Y-11321D01*
X59750Y-11104D01*
X59697Y-10976D01*
X59791Y-10972D01*
X59940Y-10910D01*
X59967Y-10815D01*
X59655Y-10503D01*
X59649Y-10509D01*
X59579Y-10438D01*
X59584Y-10433D01*
X59579Y-10427D01*
X59649Y-10356D01*
X59655Y-10362D01*
X59967Y-10050D01*
X59940Y-9955D01*
X59736Y-9882D01*
X59699Y-9884D01*
X59749Y-9762D01*
X59750Y-9545D01*
X59667Y-9345D01*
X59562Y-9240D01*
X62635Y-9240D01*
X62768Y-9372D01*
X62587Y-9297D01*
X62135Y-9297D01*
X61717Y-9469D01*
X61397Y-9788D01*
X61224Y-10206D01*
X61224Y-10658D01*
X61396Y-11075D01*
X61716Y-11395D01*
X62133Y-11568D01*
X62585Y-11569D01*
X63002Y-11396D01*
X63322Y-11077D01*
X63495Y-10659D01*
X63496Y-10208D01*
X63420Y-10024D01*
X64102Y-10706D01*
X64102Y-13547D01*
X64125Y-13661D01*
X64189Y-13758D01*
X64371Y-13939D01*
X64468Y-14004D01*
X64468Y-14004D01*
X64524Y-14016D01*
X64524Y-14077D01*
X64562Y-14169D01*
X64633Y-14240D01*
X64724Y-14278D01*
X64824Y-14278D01*
X65424Y-14278D01*
X65516Y-14240D01*
X65586Y-14170D01*
X65624Y-14078D01*
X65624Y-13978D01*
X65624Y-13378D01*
X65586Y-13286D01*
X65516Y-13216D01*
X65424Y-13178D01*
X65325Y-13178D01*
X64725Y-13178D01*
X64700Y-13188D01*
X64700Y-12744D01*
X64791Y-12782D01*
X64891Y-12782D01*
X65491Y-12782D01*
X65583Y-12744D01*
X65653Y-12674D01*
X65691Y-12582D01*
X65691Y-12482D01*
X65691Y-41375D01*
X65627Y-41220D01*
X65627Y-26867D01*
X65627Y-26415D01*
X65627Y-26316D01*
X65589Y-26224D01*
X65519Y-26154D01*
X65427Y-26116D01*
X64742Y-26116D01*
X64679Y-26178D01*
X64679Y-26591D01*
X65565Y-26591D01*
X65627Y-26529D01*
X65627Y-26415D01*
X65627Y-26867D01*
X65627Y-26754D01*
X65565Y-26691D01*
X64679Y-26691D01*
X64679Y-27104D01*
X64742Y-27167D01*
X65427Y-27167D01*
X65519Y-27129D01*
X65589Y-27059D01*
X65627Y-26967D01*
X65627Y-26867D01*
X65627Y-41220D01*
X65541Y-41011D01*
X65249Y-40719D01*
X64868Y-40561D01*
X64855Y-40561D01*
X64855Y-33580D01*
X64855Y-33128D01*
X64855Y-33028D01*
X64817Y-32937D01*
X64746Y-32866D01*
X64654Y-32828D01*
X64579Y-32828D01*
X64579Y-27104D01*
X64579Y-26691D01*
X64579Y-26591D01*
X64579Y-26178D01*
X64517Y-26116D01*
X64359Y-26116D01*
X64359Y-20485D01*
X64359Y-20033D01*
X64359Y-19934D01*
X64321Y-19842D01*
X64251Y-19772D01*
X64159Y-19734D01*
X63710Y-19734D01*
X63648Y-19796D01*
X63648Y-20209D01*
X64297Y-20209D01*
X64359Y-20147D01*
X64359Y-20033D01*
X64359Y-20485D01*
X64359Y-20372D01*
X64297Y-20309D01*
X63648Y-20309D01*
X63648Y-20722D01*
X63710Y-20785D01*
X64159Y-20785D01*
X64251Y-20747D01*
X64321Y-20677D01*
X64359Y-20585D01*
X64359Y-20485D01*
X64359Y-26116D01*
X63832Y-26116D01*
X63740Y-26154D01*
X63670Y-26224D01*
X63631Y-26316D01*
X63631Y-26415D01*
X63631Y-26529D01*
X63694Y-26591D01*
X64579Y-26591D01*
X64579Y-26691D01*
X63694Y-26691D01*
X63631Y-26754D01*
X63631Y-26867D01*
X63631Y-26967D01*
X63670Y-27059D01*
X63740Y-27129D01*
X63832Y-27167D01*
X64517Y-27167D01*
X64579Y-27104D01*
X64579Y-32828D01*
X64127Y-32828D01*
X64064Y-32891D01*
X64064Y-33304D01*
X64792Y-33304D01*
X64855Y-33241D01*
X64855Y-33128D01*
X64855Y-33580D01*
X64855Y-33466D01*
X64792Y-33404D01*
X64064Y-33404D01*
X64064Y-33817D01*
X64127Y-33879D01*
X64654Y-33879D01*
X64746Y-33841D01*
X64817Y-33771D01*
X64855Y-33679D01*
X64855Y-33580D01*
X64855Y-40561D01*
X64455Y-40560D01*
X64074Y-40718D01*
X63964Y-40827D01*
X63964Y-33817D01*
X63964Y-33404D01*
X63964Y-33304D01*
X63964Y-32891D01*
X63902Y-32828D01*
X63548Y-32828D01*
X63548Y-20722D01*
X63548Y-20309D01*
X63548Y-20209D01*
X63548Y-19796D01*
X63485Y-19734D01*
X63037Y-19734D01*
X62945Y-19772D01*
X62875Y-19842D01*
X62836Y-19934D01*
X62836Y-20033D01*
X62836Y-20147D01*
X62899Y-20209D01*
X63548Y-20209D01*
X63548Y-20309D01*
X62899Y-20309D01*
X62836Y-20372D01*
X62836Y-20485D01*
X62836Y-20585D01*
X62875Y-20677D01*
X62945Y-20747D01*
X63037Y-20785D01*
X63485Y-20785D01*
X63548Y-20722D01*
X63548Y-32828D01*
X63374Y-32828D01*
X63282Y-32866D01*
X63265Y-32883D01*
X63265Y-26867D01*
X63265Y-26316D01*
X63227Y-26224D01*
X63157Y-26154D01*
X63065Y-26116D01*
X62966Y-26116D01*
X62431Y-26116D01*
X62431Y-20785D01*
X62545Y-20785D01*
X62637Y-20747D01*
X62707Y-20677D01*
X62745Y-20585D01*
X62745Y-20485D01*
X62745Y-19934D01*
X62707Y-19842D01*
X62637Y-19772D01*
X62545Y-19734D01*
X62446Y-19734D01*
X62258Y-19734D01*
X62258Y-19467D01*
X62271Y-19455D01*
X62322Y-19331D01*
X62322Y-19196D01*
X62271Y-19072D01*
X62176Y-18976D01*
X62051Y-18925D01*
X61917Y-18925D01*
X61792Y-18976D01*
X61697Y-19071D01*
X61645Y-19196D01*
X61645Y-19330D01*
X61697Y-19455D01*
X61709Y-19468D01*
X61709Y-19734D01*
X61423Y-19734D01*
X61331Y-19772D01*
X61312Y-19791D01*
X61312Y-19578D01*
X61278Y-19496D01*
X61312Y-19413D01*
X61312Y-19078D01*
X61278Y-18996D01*
X61312Y-18913D01*
X61312Y-18578D01*
X61274Y-18486D01*
X61204Y-18416D01*
X61112Y-18378D01*
X61052Y-18378D01*
X61052Y-17934D01*
X61052Y-17483D01*
X61051Y-17383D01*
X61013Y-17291D01*
X60943Y-17221D01*
X60851Y-17183D01*
X60739Y-17183D01*
X60676Y-17246D01*
X60676Y-17658D01*
X60989Y-17658D01*
X61051Y-17596D01*
X61052Y-17483D01*
X61052Y-17934D01*
X61051Y-17821D01*
X60989Y-17758D01*
X60676Y-17758D01*
X60676Y-18171D01*
X60739Y-18233D01*
X60851Y-18233D01*
X60943Y-18195D01*
X61013Y-18125D01*
X61051Y-18033D01*
X61052Y-17934D01*
X61052Y-18378D01*
X61012Y-18378D01*
X60741Y-18378D01*
X60679Y-18440D01*
X60679Y-18696D01*
X61249Y-18696D01*
X61312Y-18633D01*
X61312Y-18578D01*
X61312Y-18913D01*
X61312Y-18858D01*
X61249Y-18796D01*
X60679Y-18796D01*
X60679Y-18940D01*
X60679Y-19051D01*
X60679Y-19196D01*
X61249Y-19196D01*
X61312Y-19133D01*
X61312Y-19078D01*
X61312Y-19413D01*
X61312Y-19358D01*
X61249Y-19296D01*
X60679Y-19296D01*
X60679Y-19303D01*
X60579Y-19303D01*
X60579Y-19296D01*
X60579Y-19196D01*
X60579Y-19051D01*
X60579Y-18940D01*
X60579Y-18796D01*
X60571Y-18796D01*
X60571Y-18696D01*
X60579Y-18696D01*
X60579Y-18440D01*
X60516Y-18378D01*
X60245Y-18378D01*
X60146Y-18378D01*
X60100Y-18397D01*
X60100Y-18233D01*
X60101Y-18233D01*
X60193Y-18195D01*
X60251Y-18137D01*
X60310Y-18195D01*
X60402Y-18233D01*
X60514Y-18233D01*
X60576Y-18171D01*
X60576Y-17758D01*
X60569Y-17758D01*
X60569Y-17658D01*
X60576Y-17658D01*
X60576Y-17246D01*
X60514Y-17183D01*
X60402Y-17183D01*
X60310Y-17221D01*
X60251Y-17280D01*
X60205Y-17233D01*
X60205Y-10513D01*
X60194Y-10297D01*
X60132Y-10148D01*
X60037Y-10121D01*
X59726Y-10433D01*
X60037Y-10744D01*
X60132Y-10718D01*
X60205Y-10513D01*
X60205Y-17233D01*
X60193Y-17221D01*
X60101Y-17183D01*
X60002Y-17183D01*
X59652Y-17183D01*
X59560Y-17221D01*
X59490Y-17291D01*
X59452Y-17383D01*
X59451Y-17483D01*
X59451Y-17667D01*
X59430Y-17700D01*
X59425Y-17722D01*
X59403Y-17833D01*
X59403Y-17833D01*
X59403Y-18698D01*
X59266Y-18835D01*
X59266Y-18814D01*
X59266Y-18578D01*
X59228Y-18486D01*
X59158Y-18416D01*
X59066Y-18378D01*
X58966Y-18378D01*
X58100Y-18378D01*
X58008Y-18415D01*
X57938Y-18486D01*
X57900Y-18578D01*
X57900Y-18677D01*
X57900Y-18852D01*
X57888Y-18824D01*
X57818Y-18753D01*
X57726Y-18715D01*
X57627Y-18715D01*
X57077Y-18715D01*
X56985Y-18753D01*
X56914Y-18823D01*
X56876Y-18915D01*
X56876Y-19015D01*
X56876Y-19320D01*
X56452Y-18896D01*
X56470Y-18852D01*
X56470Y-18753D01*
X56470Y-17257D01*
X56470Y-16490D01*
X56470Y-14895D01*
X56432Y-14803D01*
X56362Y-14733D01*
X56270Y-14695D01*
X56170Y-14694D01*
X56057Y-14695D01*
X55994Y-14757D01*
X55994Y-15643D01*
X56407Y-15643D01*
X56470Y-15580D01*
X56470Y-14895D01*
X56470Y-16490D01*
X56470Y-15805D01*
X56407Y-15743D01*
X55994Y-15743D01*
X55994Y-16628D01*
X56057Y-16691D01*
X56170Y-16691D01*
X56270Y-16690D01*
X56362Y-16652D01*
X56432Y-16582D01*
X56470Y-16490D01*
X56470Y-17257D01*
X56432Y-17165D01*
X56362Y-17095D01*
X56270Y-17057D01*
X56170Y-17056D01*
X55910Y-17056D01*
X55910Y-11595D01*
X55598Y-11283D01*
X55527Y-11354D01*
X55527Y-11212D01*
X55215Y-10900D01*
X55121Y-10927D01*
X55048Y-11131D01*
X55059Y-11348D01*
X55121Y-11497D01*
X55215Y-11524D01*
X55527Y-11212D01*
X55527Y-11354D01*
X55286Y-11595D01*
X55313Y-11689D01*
X55517Y-11762D01*
X55734Y-11751D01*
X55883Y-11689D01*
X55910Y-11595D01*
X55910Y-17056D01*
X55894Y-17056D01*
X55894Y-16628D01*
X55894Y-15743D01*
X55894Y-15643D01*
X55894Y-14757D01*
X55832Y-14695D01*
X55718Y-14694D01*
X55619Y-14695D01*
X55527Y-14733D01*
X55457Y-14803D01*
X55419Y-14895D01*
X55419Y-15580D01*
X55481Y-15643D01*
X55894Y-15643D01*
X55894Y-15743D01*
X55481Y-15743D01*
X55419Y-15805D01*
X55419Y-16490D01*
X55457Y-16582D01*
X55527Y-16652D01*
X55619Y-16690D01*
X55718Y-16691D01*
X55832Y-16691D01*
X55894Y-16628D01*
X55894Y-17056D01*
X55619Y-17056D01*
X55527Y-17094D01*
X55457Y-17165D01*
X55419Y-17257D01*
X55419Y-17356D01*
X55419Y-17706D01*
X55248Y-17706D01*
X55248Y-17706D01*
X55114Y-17733D01*
X55001Y-17808D01*
X55001Y-17808D01*
X54950Y-17860D01*
X53876Y-17860D01*
X53876Y-17296D01*
X53838Y-17204D01*
X53768Y-17133D01*
X53676Y-17095D01*
X53578Y-17095D01*
X53578Y-10208D01*
X53406Y-9790D01*
X53087Y-9470D01*
X52669Y-9297D01*
X52217Y-9297D01*
X51800Y-9469D01*
X51480Y-9788D01*
X51307Y-10206D01*
X51306Y-10658D01*
X51479Y-11075D01*
X51798Y-11395D01*
X52215Y-11568D01*
X52667Y-11569D01*
X53085Y-11396D01*
X53405Y-11077D01*
X53578Y-10659D01*
X53578Y-10208D01*
X53578Y-17095D01*
X53577Y-17095D01*
X52977Y-17095D01*
X52885Y-17133D01*
X52814Y-17203D01*
X52776Y-17295D01*
X52776Y-17395D01*
X52776Y-17860D01*
X51937Y-17860D01*
X51937Y-11755D01*
X51885Y-11631D01*
X51790Y-11535D01*
X51666Y-11484D01*
X51531Y-11484D01*
X51406Y-11535D01*
X51311Y-11630D01*
X51271Y-11726D01*
X50924Y-12073D01*
X50909Y-12036D01*
X50814Y-11941D01*
X50689Y-11889D01*
X50554Y-11889D01*
X50430Y-11941D01*
X50426Y-11944D01*
X49956Y-11944D01*
X49956Y-11842D01*
X49905Y-11717D01*
X49810Y-11622D01*
X49685Y-11570D01*
X49677Y-11570D01*
X49677Y-10208D01*
X49504Y-9790D01*
X49185Y-9470D01*
X48768Y-9297D01*
X48316Y-9297D01*
X47898Y-9469D01*
X47578Y-9788D01*
X47405Y-10206D01*
X47405Y-10658D01*
X47577Y-11075D01*
X47897Y-11395D01*
X48314Y-11568D01*
X48766Y-11569D01*
X49183Y-11396D01*
X49503Y-11077D01*
X49676Y-10659D01*
X49677Y-10208D01*
X49677Y-11570D01*
X49551Y-11570D01*
X49455Y-11610D01*
X46466Y-11610D01*
X46386Y-11530D01*
X46386Y-10513D01*
X46375Y-10297D01*
X46313Y-10148D01*
X46219Y-10121D01*
X45907Y-10433D01*
X46219Y-10744D01*
X46313Y-10718D01*
X46386Y-10513D01*
X46386Y-11530D01*
X45910Y-11054D01*
X45878Y-10976D01*
X45972Y-10972D01*
X46121Y-10910D01*
X46148Y-10815D01*
X45836Y-10503D01*
X45831Y-10509D01*
X45760Y-10438D01*
X45765Y-10433D01*
X45760Y-10427D01*
X45831Y-10356D01*
X45836Y-10362D01*
X46148Y-10050D01*
X46121Y-9955D01*
X45917Y-9882D01*
X45880Y-9884D01*
X45931Y-9762D01*
X45931Y-9545D01*
X45848Y-9345D01*
X45695Y-9191D01*
X45494Y-9108D01*
X45277Y-9108D01*
X45077Y-9191D01*
X44934Y-9333D01*
X44793Y-9191D01*
X44593Y-9108D01*
X44376Y-9108D01*
X44175Y-9191D01*
X44033Y-9333D01*
X43891Y-9191D01*
X43691Y-9108D01*
X43474Y-9108D01*
X43274Y-9191D01*
X43131Y-9333D01*
X42990Y-9191D01*
X42790Y-9108D01*
X42573Y-9108D01*
X42372Y-9191D01*
X42230Y-9333D01*
X42088Y-9191D01*
X41888Y-9108D01*
X41671Y-9108D01*
X41471Y-9191D01*
X41317Y-9344D01*
X41234Y-9544D01*
X41234Y-9761D01*
X41316Y-9962D01*
X41470Y-10115D01*
X41670Y-10198D01*
X41734Y-10198D01*
X41680Y-10352D01*
X41691Y-10569D01*
X41732Y-10669D01*
X41643Y-10673D01*
X41494Y-10735D01*
X41467Y-10830D01*
X41779Y-11141D01*
X41785Y-11136D01*
X41855Y-11207D01*
X41850Y-11212D01*
X42162Y-11524D01*
X42213Y-11509D01*
X42218Y-11521D01*
X42371Y-11674D01*
X42572Y-11757D01*
X42789Y-11757D01*
X42989Y-11675D01*
X43132Y-11532D01*
X43273Y-11674D01*
X43473Y-11757D01*
X43555Y-11757D01*
X44579Y-12782D01*
X44579Y-12782D01*
X44644Y-12825D01*
X44676Y-12847D01*
X44676Y-12847D01*
X44791Y-12870D01*
X49629Y-12870D01*
X50850Y-12870D01*
X50964Y-12847D01*
X51061Y-12782D01*
X51695Y-12149D01*
X51789Y-12110D01*
X51885Y-12014D01*
X51936Y-11890D01*
X51937Y-11755D01*
X51937Y-17860D01*
X48460Y-17860D01*
X47901Y-17860D01*
X47098Y-17860D01*
X47082Y-17860D01*
X46992Y-17860D01*
X46992Y-17860D01*
X46992Y-17860D01*
X46881Y-17860D01*
X45874Y-17860D01*
X45854Y-17856D01*
X45834Y-17860D01*
X45224Y-17860D01*
X44834Y-17860D01*
X44830Y-17860D01*
X44781Y-17870D01*
X44767Y-17870D01*
X44754Y-17875D01*
X44697Y-17886D01*
X44649Y-17918D01*
X44643Y-17921D01*
X44638Y-17926D01*
X44584Y-17962D01*
X44548Y-18015D01*
X44547Y-18016D01*
X44547Y-18017D01*
X44508Y-18075D01*
X44482Y-18208D01*
X44508Y-18341D01*
X44547Y-18399D01*
X44547Y-18400D01*
X44548Y-18400D01*
X44584Y-18455D01*
X44637Y-18490D01*
X44642Y-18495D01*
X44648Y-18498D01*
X44690Y-18526D01*
X44690Y-18682D01*
X44622Y-18710D01*
X44552Y-18780D01*
X44514Y-18872D01*
X44514Y-18971D01*
X44514Y-19321D01*
X44552Y-19413D01*
X44610Y-19472D01*
X44552Y-19531D01*
X44514Y-19622D01*
X44514Y-19734D01*
X44576Y-19797D01*
X44989Y-19797D01*
X44989Y-19789D01*
X45089Y-19789D01*
X45089Y-19797D01*
X45501Y-19797D01*
X45505Y-19793D01*
X45674Y-19793D01*
X45674Y-19785D01*
X45774Y-19785D01*
X45774Y-19793D01*
X46186Y-19793D01*
X46249Y-19731D01*
X46249Y-19618D01*
X46211Y-19527D01*
X46152Y-19468D01*
X46211Y-19410D01*
X46249Y-19318D01*
X46249Y-19218D01*
X46249Y-18868D01*
X46211Y-18777D01*
X46141Y-18706D01*
X46072Y-18678D01*
X46072Y-18557D01*
X46578Y-18557D01*
X46573Y-18569D01*
X46573Y-18668D01*
X46573Y-19018D01*
X46611Y-19110D01*
X46669Y-19169D01*
X46611Y-19227D01*
X46573Y-19319D01*
X46573Y-19431D01*
X46635Y-19494D01*
X47048Y-19494D01*
X47048Y-19486D01*
X47148Y-19486D01*
X47148Y-19494D01*
X47560Y-19494D01*
X47623Y-19431D01*
X47623Y-19319D01*
X47585Y-19227D01*
X47526Y-19169D01*
X47585Y-19111D01*
X47623Y-19019D01*
X47623Y-18919D01*
X47623Y-18569D01*
X47618Y-18557D01*
X47699Y-18557D01*
X47721Y-18610D01*
X47780Y-18669D01*
X47721Y-18727D01*
X47683Y-18819D01*
X47683Y-18931D01*
X47746Y-18994D01*
X48158Y-18994D01*
X48158Y-18986D01*
X48258Y-18986D01*
X48258Y-18994D01*
X48671Y-18994D01*
X48733Y-18931D01*
X48733Y-18819D01*
X48695Y-18727D01*
X48637Y-18669D01*
X48695Y-18611D01*
X48717Y-18557D01*
X53177Y-18557D01*
X53177Y-18557D01*
X53177Y-18557D01*
X53177Y-18557D01*
X55094Y-18557D01*
X55094Y-18557D01*
X55094Y-18557D01*
X55205Y-18534D01*
X55227Y-18530D01*
X55227Y-18530D01*
X55340Y-18455D01*
X55392Y-18403D01*
X55419Y-18403D01*
X55419Y-18852D01*
X55457Y-18944D01*
X55527Y-19014D01*
X55619Y-19052D01*
X55648Y-19052D01*
X55698Y-19128D01*
X56707Y-20137D01*
X56707Y-20137D01*
X56820Y-20212D01*
X56944Y-20237D01*
X56984Y-20277D01*
X57076Y-20315D01*
X57176Y-20315D01*
X57333Y-20315D01*
X57510Y-20492D01*
X57510Y-20492D01*
X57623Y-20567D01*
X57756Y-20594D01*
X57756Y-20594D01*
X57756Y-20594D01*
X58053Y-20594D01*
X58100Y-20614D01*
X58199Y-20614D01*
X59065Y-20614D01*
X59157Y-20576D01*
X59228Y-20505D01*
X59266Y-20414D01*
X59266Y-20314D01*
X59266Y-20078D01*
X59232Y-19995D01*
X59266Y-19914D01*
X59266Y-19814D01*
X59266Y-19594D01*
X59348Y-19594D01*
X59348Y-19594D01*
X59348Y-19594D01*
X59459Y-19572D01*
X59481Y-19567D01*
X59481Y-19567D01*
X59594Y-19492D01*
X59949Y-19137D01*
X60008Y-19196D01*
X60579Y-19196D01*
X60579Y-19296D01*
X60008Y-19296D01*
X59946Y-19358D01*
X59946Y-19413D01*
X59980Y-19496D01*
X59946Y-19578D01*
X59946Y-19677D01*
X59946Y-19913D01*
X59980Y-19996D01*
X59946Y-20078D01*
X59946Y-20177D01*
X59946Y-20413D01*
X59984Y-20505D01*
X60054Y-20575D01*
X60146Y-20614D01*
X60245Y-20614D01*
X61111Y-20614D01*
X61159Y-20594D01*
X61226Y-20594D01*
X61260Y-20676D01*
X61331Y-20747D01*
X61422Y-20785D01*
X61522Y-20785D01*
X61537Y-20785D01*
X61537Y-26116D01*
X61470Y-26116D01*
X61378Y-26154D01*
X61316Y-26216D01*
X61316Y-25984D01*
X61282Y-25901D01*
X61316Y-25819D01*
X61316Y-25484D01*
X61282Y-25401D01*
X61316Y-25319D01*
X61316Y-24984D01*
X61278Y-24892D01*
X61208Y-24821D01*
X61116Y-24783D01*
X61055Y-24783D01*
X61055Y-24355D01*
X61055Y-23904D01*
X61055Y-23804D01*
X61017Y-23713D01*
X60947Y-23642D01*
X60855Y-23604D01*
X60743Y-23604D01*
X60680Y-23667D01*
X60680Y-24079D01*
X60993Y-24079D01*
X61055Y-24017D01*
X61055Y-23904D01*
X61055Y-24355D01*
X61055Y-24242D01*
X60993Y-24179D01*
X60680Y-24179D01*
X60680Y-24592D01*
X60743Y-24654D01*
X60855Y-24654D01*
X60947Y-24616D01*
X61017Y-24546D01*
X61055Y-24454D01*
X61055Y-24355D01*
X61055Y-24783D01*
X61016Y-24783D01*
X60745Y-24783D01*
X60683Y-24846D01*
X60683Y-25101D01*
X61253Y-25101D01*
X61316Y-25039D01*
X61316Y-24984D01*
X61316Y-25319D01*
X61316Y-25264D01*
X61253Y-25201D01*
X60683Y-25201D01*
X60683Y-25346D01*
X60683Y-25457D01*
X60683Y-25601D01*
X61253Y-25601D01*
X61316Y-25539D01*
X61316Y-25484D01*
X61316Y-25819D01*
X61316Y-25764D01*
X61253Y-25701D01*
X60683Y-25701D01*
X60683Y-25709D01*
X60583Y-25709D01*
X60583Y-25701D01*
X60583Y-25601D01*
X60583Y-25457D01*
X60583Y-25346D01*
X60583Y-25201D01*
X60583Y-25101D01*
X60583Y-24846D01*
X60580Y-24843D01*
X60580Y-24592D01*
X60580Y-24179D01*
X60573Y-24179D01*
X60573Y-24079D01*
X60580Y-24079D01*
X60580Y-23667D01*
X60518Y-23604D01*
X60406Y-23604D01*
X60314Y-23642D01*
X60255Y-23701D01*
X60197Y-23643D01*
X60105Y-23604D01*
X60006Y-23604D01*
X59656Y-23604D01*
X59564Y-23642D01*
X59494Y-23713D01*
X59455Y-23804D01*
X59455Y-23904D01*
X59455Y-24062D01*
X59348Y-24169D01*
X59272Y-24283D01*
X59268Y-24305D01*
X59246Y-24416D01*
X59246Y-24416D01*
X59246Y-24925D01*
X59232Y-24892D01*
X59162Y-24821D01*
X59070Y-24783D01*
X58970Y-24783D01*
X58104Y-24783D01*
X58012Y-24821D01*
X57942Y-24891D01*
X57904Y-24983D01*
X57904Y-25083D01*
X57904Y-25174D01*
X57885Y-25155D01*
X57793Y-25117D01*
X57693Y-25117D01*
X57143Y-25117D01*
X57052Y-25155D01*
X56981Y-25225D01*
X56943Y-25317D01*
X56943Y-25416D01*
X56943Y-25766D01*
X56981Y-25858D01*
X57039Y-25917D01*
X57013Y-25943D01*
X56735Y-25943D01*
X56288Y-25496D01*
X56318Y-25483D01*
X56388Y-25413D01*
X56427Y-25321D01*
X56427Y-25222D01*
X56427Y-23726D01*
X56427Y-22959D01*
X56427Y-21364D01*
X56389Y-21272D01*
X56318Y-21201D01*
X56227Y-21163D01*
X56127Y-21163D01*
X56014Y-21163D01*
X55951Y-21226D01*
X55951Y-22111D01*
X56364Y-22111D01*
X56427Y-22049D01*
X56427Y-21364D01*
X56427Y-22959D01*
X56427Y-22274D01*
X56364Y-22211D01*
X55951Y-22211D01*
X55951Y-23097D01*
X56014Y-23159D01*
X56127Y-23159D01*
X56227Y-23159D01*
X56318Y-23121D01*
X56389Y-23050D01*
X56427Y-22959D01*
X56427Y-23726D01*
X56389Y-23634D01*
X56318Y-23563D01*
X56227Y-23525D01*
X56127Y-23525D01*
X55851Y-23525D01*
X55851Y-23097D01*
X55851Y-22211D01*
X55851Y-22111D01*
X55851Y-21226D01*
X55789Y-21163D01*
X55675Y-21163D01*
X55576Y-21163D01*
X55484Y-21201D01*
X55414Y-21272D01*
X55376Y-21364D01*
X55376Y-22049D01*
X55438Y-22111D01*
X55851Y-22111D01*
X55851Y-22211D01*
X55438Y-22211D01*
X55376Y-22274D01*
X55376Y-22959D01*
X55414Y-23050D01*
X55484Y-23121D01*
X55576Y-23159D01*
X55675Y-23159D01*
X55789Y-23159D01*
X55851Y-23097D01*
X55851Y-23525D01*
X55576Y-23525D01*
X55484Y-23563D01*
X55414Y-23633D01*
X55376Y-23725D01*
X55376Y-23825D01*
X55376Y-24175D01*
X53936Y-24175D01*
X53460Y-24175D01*
X53452Y-24175D01*
X53152Y-24175D01*
X51754Y-22777D01*
X51641Y-22701D01*
X51619Y-22697D01*
X51507Y-22675D01*
X51507Y-22675D01*
X48687Y-22675D01*
X47996Y-21983D01*
X48016Y-21992D01*
X48036Y-22020D01*
X48249Y-22234D01*
X48249Y-22234D01*
X48362Y-22310D01*
X48496Y-22336D01*
X48496Y-22336D01*
X48496Y-22336D01*
X49622Y-22336D01*
X49622Y-22336D01*
X49622Y-22336D01*
X49733Y-22314D01*
X49755Y-22310D01*
X49755Y-22310D01*
X49868Y-22234D01*
X50692Y-21410D01*
X50692Y-21410D01*
X50692Y-21410D01*
X50767Y-21297D01*
X50777Y-21247D01*
X50777Y-21247D01*
X50832Y-21192D01*
X50870Y-21100D01*
X50870Y-21001D01*
X50870Y-20451D01*
X50848Y-20396D01*
X50874Y-20332D01*
X50874Y-20233D01*
X50874Y-19683D01*
X50836Y-19591D01*
X50835Y-19589D01*
X50866Y-19513D01*
X50866Y-19414D01*
X50866Y-18864D01*
X50828Y-18772D01*
X50758Y-18702D01*
X50666Y-18664D01*
X50567Y-18663D01*
X50217Y-18663D01*
X50125Y-18701D01*
X50066Y-18760D01*
X50008Y-18702D01*
X49916Y-18664D01*
X49817Y-18663D01*
X49467Y-18663D01*
X49375Y-18701D01*
X49305Y-18772D01*
X49271Y-18852D01*
X49197Y-18867D01*
X49084Y-18942D01*
X49084Y-18942D01*
X48902Y-19124D01*
X48700Y-19124D01*
X48671Y-19094D01*
X48258Y-19094D01*
X48258Y-19102D01*
X48158Y-19102D01*
X48158Y-19094D01*
X47746Y-19094D01*
X47683Y-19156D01*
X47683Y-19268D01*
X47721Y-19360D01*
X47791Y-19431D01*
X47883Y-19469D01*
X47983Y-19469D01*
X48096Y-19469D01*
X48158Y-19406D01*
X48158Y-19407D01*
X48083Y-19482D01*
X48050Y-19482D01*
X47958Y-19520D01*
X47887Y-19591D01*
X47858Y-19660D01*
X47857Y-19661D01*
X47744Y-19614D01*
X47610Y-19614D01*
X47589Y-19622D01*
X47560Y-19594D01*
X47148Y-19594D01*
X47148Y-19906D01*
X47210Y-19969D01*
X47287Y-19969D01*
X47281Y-20000D01*
X47281Y-20137D01*
X47214Y-20109D01*
X47115Y-20109D01*
X47048Y-20109D01*
X47048Y-19906D01*
X47048Y-19594D01*
X46635Y-19594D01*
X46573Y-19656D01*
X46573Y-19768D01*
X46611Y-19860D01*
X46681Y-19931D01*
X46773Y-19969D01*
X46872Y-19969D01*
X46985Y-19969D01*
X47048Y-19906D01*
X47048Y-20109D01*
X47002Y-20109D01*
X46939Y-20171D01*
X46939Y-20484D01*
X46947Y-20484D01*
X46947Y-20584D01*
X46939Y-20584D01*
X46939Y-20592D01*
X46839Y-20592D01*
X46839Y-20584D01*
X46839Y-20484D01*
X46839Y-20171D01*
X46777Y-20109D01*
X46664Y-20109D01*
X46564Y-20109D01*
X46472Y-20147D01*
X46402Y-20218D01*
X46364Y-20309D01*
X46364Y-20421D01*
X46427Y-20484D01*
X46839Y-20484D01*
X46839Y-20584D01*
X46427Y-20584D01*
X46364Y-20646D01*
X46364Y-20758D01*
X46382Y-20801D01*
X46249Y-20668D01*
X46249Y-20068D01*
X46249Y-19956D01*
X46186Y-19893D01*
X45774Y-19893D01*
X45774Y-20206D01*
X45836Y-20268D01*
X45949Y-20268D01*
X46049Y-20268D01*
X46141Y-20230D01*
X46211Y-20159D01*
X46249Y-20068D01*
X46249Y-20668D01*
X46160Y-20579D01*
X46063Y-20514D01*
X45948Y-20492D01*
X45799Y-20492D01*
X45674Y-20492D01*
X45674Y-20206D01*
X45674Y-19893D01*
X45261Y-19893D01*
X45257Y-19897D01*
X45089Y-19897D01*
X45089Y-20209D01*
X45151Y-20272D01*
X45264Y-20272D01*
X45364Y-20272D01*
X45386Y-20263D01*
X45399Y-20268D01*
X45498Y-20268D01*
X45611Y-20268D01*
X45674Y-20206D01*
X45674Y-20492D01*
X44989Y-20492D01*
X44989Y-20209D01*
X44989Y-19897D01*
X44576Y-19897D01*
X44514Y-19959D01*
X44514Y-20071D01*
X44552Y-20163D01*
X44622Y-20234D01*
X44714Y-20272D01*
X44813Y-20272D01*
X44926Y-20272D01*
X44989Y-20209D01*
X44989Y-20492D01*
X44824Y-20492D01*
X44404Y-20071D01*
X44282Y-19949D01*
X44282Y-19949D01*
X44282Y-19949D01*
X44081Y-19749D01*
X44081Y-19749D01*
X44081Y-19749D01*
X43534Y-19201D01*
X43534Y-19201D01*
X43447Y-19115D01*
X43329Y-18997D01*
X43180Y-18847D01*
X43030Y-18697D01*
X42782Y-18449D01*
X42782Y-18449D01*
X42766Y-18426D01*
X42766Y-18426D01*
X42687Y-18347D01*
X42687Y-18347D01*
X42687Y-18347D01*
X42581Y-18241D01*
X42581Y-18241D01*
X42581Y-18241D01*
X42480Y-18139D01*
X42480Y-15000D01*
X42457Y-14885D01*
X42457Y-14885D01*
X42436Y-14853D01*
X42392Y-14788D01*
X42392Y-14788D01*
X42091Y-14487D01*
X42091Y-11595D01*
X41779Y-11283D01*
X41708Y-11354D01*
X41708Y-11212D01*
X41397Y-10900D01*
X41302Y-10927D01*
X41229Y-11131D01*
X41240Y-11348D01*
X41302Y-11497D01*
X41397Y-11524D01*
X41708Y-11212D01*
X41708Y-11354D01*
X41467Y-11595D01*
X41494Y-11689D01*
X41698Y-11762D01*
X41915Y-11751D01*
X42064Y-11689D01*
X42091Y-11595D01*
X42091Y-14487D01*
X41908Y-14304D01*
X41811Y-14239D01*
X41747Y-14226D01*
X41738Y-14204D01*
X41599Y-14065D01*
X41621Y-14065D01*
X41713Y-14027D01*
X41783Y-13957D01*
X41821Y-13865D01*
X41821Y-13766D01*
X41821Y-13166D01*
X41783Y-13074D01*
X41713Y-13003D01*
X41621Y-12965D01*
X41522Y-12965D01*
X40922Y-12965D01*
X40909Y-12970D01*
X40901Y-12950D01*
X40806Y-12854D01*
X40681Y-12803D01*
X40547Y-12803D01*
X40422Y-12854D01*
X40327Y-12949D01*
X40275Y-13074D01*
X40275Y-13208D01*
X40318Y-13313D01*
X40318Y-15937D01*
X40341Y-16051D01*
X40406Y-16148D01*
X40721Y-16463D01*
X40721Y-16624D01*
X40805Y-16826D01*
X40959Y-16981D01*
X41035Y-17013D01*
X40983Y-17034D01*
X40956Y-17129D01*
X41271Y-17445D01*
X41277Y-17439D01*
X41347Y-17510D01*
X41342Y-17515D01*
X41347Y-17521D01*
X41277Y-17592D01*
X41271Y-17586D01*
X41200Y-17657D01*
X41200Y-17515D01*
X40885Y-17200D01*
X40790Y-17227D01*
X40716Y-17433D01*
X40727Y-17652D01*
X40790Y-17803D01*
X40885Y-17830D01*
X41200Y-17515D01*
X41200Y-17657D01*
X40956Y-17901D01*
X40983Y-17997D01*
X41039Y-18016D01*
X40960Y-18049D01*
X40805Y-18203D01*
X40721Y-18405D01*
X40721Y-18624D01*
X40805Y-18826D01*
X40959Y-18981D01*
X41161Y-19065D01*
X41380Y-19065D01*
X41582Y-18982D01*
X41737Y-18827D01*
X41803Y-18668D01*
X43069Y-19934D01*
X40699Y-19934D01*
X40699Y-17696D01*
X40678Y-17591D01*
X40619Y-17502D01*
X40229Y-17112D01*
X40140Y-17053D01*
X40128Y-17051D01*
X40128Y-16957D01*
X40090Y-16865D01*
X40032Y-16807D01*
X40090Y-16748D01*
X40128Y-16657D01*
X40128Y-16557D01*
X40128Y-15957D01*
X40090Y-15865D01*
X40020Y-15795D01*
X39928Y-15757D01*
X39877Y-15757D01*
X39877Y-15236D01*
X39855Y-15121D01*
X39855Y-15121D01*
X39790Y-15024D01*
X39760Y-14994D01*
X39760Y-10208D01*
X39587Y-9790D01*
X39268Y-9470D01*
X38850Y-9297D01*
X38399Y-9297D01*
X37981Y-9469D01*
X37661Y-9788D01*
X37488Y-10206D01*
X37487Y-10658D01*
X37660Y-11075D01*
X37979Y-11395D01*
X38397Y-11568D01*
X38848Y-11569D01*
X39266Y-11396D01*
X39586Y-11077D01*
X39759Y-10659D01*
X39760Y-10208D01*
X39760Y-14994D01*
X39159Y-14393D01*
X39062Y-14328D01*
X38947Y-14306D01*
X38754Y-14306D01*
X38746Y-14288D01*
X38733Y-14275D01*
X38766Y-14242D01*
X38804Y-14151D01*
X38804Y-14051D01*
X38804Y-13701D01*
X38766Y-13609D01*
X38708Y-13551D01*
X38766Y-13492D01*
X38804Y-13400D01*
X38804Y-12951D01*
X38766Y-12859D01*
X38696Y-12789D01*
X38604Y-12751D01*
X38505Y-12751D01*
X38392Y-12751D01*
X38329Y-12813D01*
X38329Y-13126D01*
X38742Y-13126D01*
X38804Y-13063D01*
X38804Y-12951D01*
X38804Y-13400D01*
X38804Y-13288D01*
X38742Y-13226D01*
X38329Y-13226D01*
X38329Y-13234D01*
X38229Y-13234D01*
X38229Y-13226D01*
X38229Y-13126D01*
X38229Y-12813D01*
X38167Y-12751D01*
X38054Y-12751D01*
X37954Y-12751D01*
X37862Y-12789D01*
X37792Y-12859D01*
X37754Y-12951D01*
X37754Y-13063D01*
X37817Y-13126D01*
X38229Y-13126D01*
X38229Y-13226D01*
X37817Y-13226D01*
X37754Y-13288D01*
X37754Y-13400D01*
X37792Y-13492D01*
X37850Y-13551D01*
X37792Y-13609D01*
X37754Y-13701D01*
X37754Y-13800D01*
X37754Y-14150D01*
X37792Y-14242D01*
X37805Y-14255D01*
X37773Y-14288D01*
X37734Y-14380D01*
X37734Y-14479D01*
X37734Y-14829D01*
X37772Y-14921D01*
X37831Y-14980D01*
X37773Y-15038D01*
X37734Y-15130D01*
X37734Y-15229D01*
X37734Y-15579D01*
X37772Y-15671D01*
X37843Y-15742D01*
X37934Y-15780D01*
X38019Y-15780D01*
X38019Y-15943D01*
X37980Y-16038D01*
X37980Y-16173D01*
X38019Y-16268D01*
X38019Y-19433D01*
X38042Y-19547D01*
X38107Y-19644D01*
X39481Y-21018D01*
X39578Y-21083D01*
X39578Y-21083D01*
X39692Y-21106D01*
X40125Y-21106D01*
X40145Y-21110D01*
X40236Y-21110D01*
X40858Y-21110D01*
X41377Y-21110D01*
X41471Y-21149D01*
X41558Y-21149D01*
X41558Y-21187D01*
X41620Y-21187D01*
X41558Y-21250D01*
X41558Y-21363D01*
X41558Y-21462D01*
X41596Y-21554D01*
X41666Y-21624D01*
X41758Y-21662D01*
X41870Y-21662D01*
X41933Y-21600D01*
X41933Y-21187D01*
X41925Y-21187D01*
X41925Y-21087D01*
X41933Y-21087D01*
X41933Y-21079D01*
X42033Y-21079D01*
X42033Y-21087D01*
X42041Y-21087D01*
X42041Y-21187D01*
X42033Y-21187D01*
X42033Y-21600D01*
X42095Y-21662D01*
X42207Y-21662D01*
X42299Y-21624D01*
X42358Y-21566D01*
X42416Y-21624D01*
X42508Y-21662D01*
X42607Y-21662D01*
X42957Y-21662D01*
X43049Y-21624D01*
X43120Y-21554D01*
X43158Y-21462D01*
X43158Y-21363D01*
X43158Y-21318D01*
X43162Y-21318D01*
X43212Y-21328D01*
X43261Y-21318D01*
X43279Y-21318D01*
X43296Y-21312D01*
X43345Y-21302D01*
X43387Y-21274D01*
X43404Y-21267D01*
X43416Y-21254D01*
X43458Y-21226D01*
X43486Y-21184D01*
X43499Y-21172D01*
X43506Y-21155D01*
X43534Y-21113D01*
X43544Y-21064D01*
X43551Y-21047D01*
X43551Y-21030D01*
X43561Y-20980D01*
X43551Y-20931D01*
X43551Y-20913D01*
X43547Y-20904D01*
X43620Y-20873D01*
X43716Y-20778D01*
X43767Y-20654D01*
X43767Y-20631D01*
X44438Y-21302D01*
X44438Y-21302D01*
X44535Y-21366D01*
X44535Y-21366D01*
X44649Y-21389D01*
X44649Y-21389D01*
X45663Y-21389D01*
X46121Y-21847D01*
X46157Y-21935D01*
X46252Y-22030D01*
X46364Y-22077D01*
X46364Y-22129D01*
X46402Y-22220D01*
X46461Y-22279D01*
X46402Y-22338D01*
X46364Y-22430D01*
X46364Y-22542D01*
X46427Y-22604D01*
X46839Y-22604D01*
X46839Y-22596D01*
X46939Y-22596D01*
X46939Y-22604D01*
X47352Y-22604D01*
X47414Y-22542D01*
X47414Y-22430D01*
X47385Y-22358D01*
X48190Y-23163D01*
X48161Y-23163D01*
X48161Y-23226D01*
X48099Y-23163D01*
X47987Y-23163D01*
X47895Y-23201D01*
X47824Y-23272D01*
X47786Y-23364D01*
X47786Y-23463D01*
X47786Y-23576D01*
X47849Y-23638D01*
X48161Y-23638D01*
X48161Y-23631D01*
X48261Y-23631D01*
X48261Y-23638D01*
X48269Y-23638D01*
X48269Y-23738D01*
X48261Y-23738D01*
X48261Y-24151D01*
X48324Y-24213D01*
X48436Y-24214D01*
X48528Y-24176D01*
X48586Y-24117D01*
X48644Y-24175D01*
X48736Y-24213D01*
X48836Y-24214D01*
X49186Y-24214D01*
X49278Y-24176D01*
X49348Y-24105D01*
X49376Y-24037D01*
X49515Y-24037D01*
X49535Y-24041D01*
X49584Y-24031D01*
X49602Y-24031D01*
X49619Y-24024D01*
X49668Y-24014D01*
X49710Y-23986D01*
X49726Y-23980D01*
X49739Y-23967D01*
X49781Y-23939D01*
X49809Y-23897D01*
X49822Y-23884D01*
X49829Y-23868D01*
X49857Y-23826D01*
X49867Y-23776D01*
X49873Y-23760D01*
X49873Y-23742D01*
X49883Y-23692D01*
X49874Y-23643D01*
X49874Y-23625D01*
X49867Y-23609D01*
X49857Y-23559D01*
X49829Y-23517D01*
X49822Y-23501D01*
X49809Y-23488D01*
X49781Y-23446D01*
X49777Y-23442D01*
X49736Y-23414D01*
X49736Y-23414D01*
X49727Y-23406D01*
X49716Y-23401D01*
X49716Y-23401D01*
X49672Y-23372D01*
X51363Y-23372D01*
X52761Y-24769D01*
X52761Y-24769D01*
X52874Y-24845D01*
X52902Y-24851D01*
X52902Y-24879D01*
X52902Y-25479D01*
X52940Y-25571D01*
X53010Y-25641D01*
X53102Y-25679D01*
X53202Y-25679D01*
X53802Y-25679D01*
X53894Y-25641D01*
X53964Y-25571D01*
X54002Y-25479D01*
X54002Y-25380D01*
X54002Y-24871D01*
X55376Y-24871D01*
X55376Y-25321D01*
X55414Y-25412D01*
X55484Y-25483D01*
X55553Y-25511D01*
X55553Y-25602D01*
X55553Y-25602D01*
X55575Y-25713D01*
X55579Y-25735D01*
X55655Y-25848D01*
X56345Y-26538D01*
X56345Y-26538D01*
X56458Y-26614D01*
X56591Y-26640D01*
X56591Y-26640D01*
X56591Y-26640D01*
X57013Y-26640D01*
X57051Y-26679D01*
X57143Y-26717D01*
X57243Y-26717D01*
X57400Y-26717D01*
X57581Y-26897D01*
X57581Y-26897D01*
X57694Y-26973D01*
X57827Y-27000D01*
X57827Y-26999D01*
X57827Y-27000D01*
X58057Y-27000D01*
X58104Y-27019D01*
X58203Y-27019D01*
X59069Y-27019D01*
X59161Y-26981D01*
X59232Y-26911D01*
X59270Y-26819D01*
X59270Y-26720D01*
X59270Y-26484D01*
X59236Y-26401D01*
X59270Y-26319D01*
X59270Y-26220D01*
X59270Y-26000D01*
X59281Y-26000D01*
X59281Y-26000D01*
X59281Y-26000D01*
X59392Y-25977D01*
X59414Y-25973D01*
X59414Y-25973D01*
X59527Y-25897D01*
X59840Y-25584D01*
X59840Y-25584D01*
X59840Y-25584D01*
X59916Y-25471D01*
X59942Y-25338D01*
X59942Y-25338D01*
X59942Y-25338D01*
X59942Y-24654D01*
X60105Y-24654D01*
X60197Y-24616D01*
X60255Y-24558D01*
X60314Y-24616D01*
X60406Y-24654D01*
X60518Y-24654D01*
X60580Y-24592D01*
X60580Y-24843D01*
X60520Y-24783D01*
X60249Y-24783D01*
X60150Y-24783D01*
X60058Y-24821D01*
X59988Y-24892D01*
X59950Y-24984D01*
X59950Y-25039D01*
X60012Y-25101D01*
X60583Y-25101D01*
X60583Y-25201D01*
X60012Y-25201D01*
X59950Y-25264D01*
X59950Y-25319D01*
X59984Y-25401D01*
X59950Y-25484D01*
X59950Y-25539D01*
X60012Y-25601D01*
X60583Y-25601D01*
X60583Y-25701D01*
X60012Y-25701D01*
X59950Y-25764D01*
X59950Y-25819D01*
X59984Y-25901D01*
X59950Y-25983D01*
X59950Y-26083D01*
X59950Y-26319D01*
X59984Y-26401D01*
X59950Y-26483D01*
X59950Y-26583D01*
X59950Y-26819D01*
X59988Y-26911D01*
X60058Y-26981D01*
X60150Y-27019D01*
X60249Y-27019D01*
X61115Y-27019D01*
X61163Y-27000D01*
X61283Y-27000D01*
X61307Y-27058D01*
X61378Y-27129D01*
X61469Y-27167D01*
X61569Y-27167D01*
X61680Y-27167D01*
X61680Y-31519D01*
X61159Y-31519D01*
X61112Y-31500D01*
X61012Y-31500D01*
X60146Y-31500D01*
X60054Y-31538D01*
X60000Y-31592D01*
X60000Y-29921D01*
X59948Y-29796D01*
X59853Y-29701D01*
X59729Y-29649D01*
X59594Y-29649D01*
X59469Y-29700D01*
X59374Y-29796D01*
X59322Y-29920D01*
X59322Y-30055D01*
X59360Y-30145D01*
X59005Y-30500D01*
X58082Y-30500D01*
X57968Y-30522D01*
X57935Y-30544D01*
X57871Y-30587D01*
X56720Y-31738D01*
X56454Y-31738D01*
X56454Y-31289D01*
X56454Y-30522D01*
X56454Y-28927D01*
X56416Y-28835D01*
X56346Y-28764D01*
X56254Y-28726D01*
X56155Y-28726D01*
X56041Y-28726D01*
X55979Y-28789D01*
X55979Y-29674D01*
X56392Y-29674D01*
X56454Y-29612D01*
X56454Y-28927D01*
X56454Y-30522D01*
X56454Y-29837D01*
X56392Y-29774D01*
X55979Y-29774D01*
X55979Y-30660D01*
X56041Y-30722D01*
X56155Y-30722D01*
X56254Y-30722D01*
X56346Y-30684D01*
X56416Y-30613D01*
X56454Y-30522D01*
X56454Y-31289D01*
X56416Y-31197D01*
X56346Y-31126D01*
X56254Y-31088D01*
X56155Y-31088D01*
X55879Y-31088D01*
X55879Y-30660D01*
X55879Y-29774D01*
X55879Y-29674D01*
X55879Y-28789D01*
X55816Y-28726D01*
X55703Y-28726D01*
X55603Y-28726D01*
X55511Y-28764D01*
X55441Y-28835D01*
X55403Y-28927D01*
X55403Y-29612D01*
X55466Y-29674D01*
X55879Y-29674D01*
X55879Y-29774D01*
X55466Y-29774D01*
X55403Y-29837D01*
X55403Y-30522D01*
X55441Y-30613D01*
X55511Y-30684D01*
X55603Y-30722D01*
X55703Y-30722D01*
X55816Y-30722D01*
X55879Y-30660D01*
X55879Y-31088D01*
X55604Y-31088D01*
X55512Y-31126D01*
X55441Y-31196D01*
X55403Y-31288D01*
X55403Y-31388D01*
X55403Y-31738D01*
X53983Y-31738D01*
X53983Y-27758D01*
X53983Y-27158D01*
X53945Y-27066D01*
X53880Y-27001D01*
X53944Y-26937D01*
X53983Y-26846D01*
X53983Y-26746D01*
X53983Y-26146D01*
X53945Y-26054D01*
X53874Y-25984D01*
X53783Y-25946D01*
X53683Y-25946D01*
X53083Y-25946D01*
X52991Y-25983D01*
X52921Y-26054D01*
X52883Y-26146D01*
X52883Y-26245D01*
X52883Y-26845D01*
X52921Y-26937D01*
X52985Y-27002D01*
X52921Y-27066D01*
X52883Y-27157D01*
X52883Y-27225D01*
X51802Y-27225D01*
X51790Y-27213D01*
X51666Y-27161D01*
X51531Y-27161D01*
X51406Y-27212D01*
X51311Y-27307D01*
X51259Y-27432D01*
X51259Y-27567D01*
X51311Y-27691D01*
X51406Y-27786D01*
X51530Y-27838D01*
X51665Y-27838D01*
X51789Y-27787D01*
X51802Y-27774D01*
X52883Y-27774D01*
X52883Y-27857D01*
X52921Y-27949D01*
X52991Y-28019D01*
X53083Y-28057D01*
X53182Y-28057D01*
X53782Y-28057D01*
X53874Y-28019D01*
X53944Y-27949D01*
X53983Y-27857D01*
X53983Y-27758D01*
X53983Y-31738D01*
X52030Y-31738D01*
X50437Y-30145D01*
X50492Y-30122D01*
X50562Y-30052D01*
X50601Y-29960D01*
X50601Y-29860D01*
X50601Y-29260D01*
X50563Y-29168D01*
X50492Y-29098D01*
X50401Y-29060D01*
X50301Y-29060D01*
X49701Y-29060D01*
X49609Y-29098D01*
X49539Y-29168D01*
X49501Y-29260D01*
X49501Y-29359D01*
X49501Y-29959D01*
X49539Y-30051D01*
X49609Y-30122D01*
X49701Y-30160D01*
X49702Y-30160D01*
X49702Y-30251D01*
X49702Y-30251D01*
X49724Y-30363D01*
X49729Y-30385D01*
X49804Y-30498D01*
X51639Y-32332D01*
X51639Y-32332D01*
X51752Y-32408D01*
X51885Y-32434D01*
X55403Y-32434D01*
X55403Y-32884D01*
X55441Y-32975D01*
X55511Y-33046D01*
X55603Y-33084D01*
X55703Y-33084D01*
X56254Y-33084D01*
X56346Y-33046D01*
X56416Y-32976D01*
X56454Y-32884D01*
X56454Y-32785D01*
X56454Y-32434D01*
X56737Y-32434D01*
X57588Y-33285D01*
X57588Y-33285D01*
X57917Y-33614D01*
X57917Y-33614D01*
X57941Y-33630D01*
X57941Y-33630D01*
X58008Y-33697D01*
X58100Y-33736D01*
X58199Y-33736D01*
X59065Y-33736D01*
X59157Y-33698D01*
X59228Y-33627D01*
X59266Y-33536D01*
X59266Y-33436D01*
X59266Y-33200D01*
X59232Y-33118D01*
X59266Y-33036D01*
X59266Y-32936D01*
X59266Y-32700D01*
X59232Y-32618D01*
X59266Y-32536D01*
X59266Y-32436D01*
X59266Y-32200D01*
X59232Y-32118D01*
X59266Y-32035D01*
X59266Y-31700D01*
X59228Y-31608D01*
X59158Y-31538D01*
X59066Y-31500D01*
X58966Y-31500D01*
X58695Y-31500D01*
X58633Y-31562D01*
X58633Y-31818D01*
X59203Y-31818D01*
X59266Y-31755D01*
X59266Y-31700D01*
X59266Y-32035D01*
X59266Y-31980D01*
X59203Y-31918D01*
X58633Y-31918D01*
X58633Y-31925D01*
X58533Y-31925D01*
X58533Y-31918D01*
X58533Y-31818D01*
X58533Y-31562D01*
X58470Y-31500D01*
X58199Y-31500D01*
X58100Y-31500D01*
X58008Y-31538D01*
X57938Y-31608D01*
X57900Y-31700D01*
X57900Y-31755D01*
X57962Y-31818D01*
X58533Y-31818D01*
X58533Y-31918D01*
X57962Y-31918D01*
X57900Y-31980D01*
X57900Y-32035D01*
X57934Y-32118D01*
X57900Y-32200D01*
X57900Y-32299D01*
X57900Y-32535D01*
X57934Y-32618D01*
X57926Y-32638D01*
X57296Y-32008D01*
X58206Y-31098D01*
X59129Y-31098D01*
X59244Y-31075D01*
X59341Y-31010D01*
X59872Y-30479D01*
X59937Y-30382D01*
X59937Y-30382D01*
X59960Y-30267D01*
X59960Y-30150D01*
X59999Y-30055D01*
X60000Y-29921D01*
X60000Y-31592D01*
X59984Y-31608D01*
X59946Y-31700D01*
X59946Y-31799D01*
X59946Y-32035D01*
X59980Y-32118D01*
X59946Y-32200D01*
X59946Y-32299D01*
X59946Y-32535D01*
X59980Y-32618D01*
X59946Y-32700D01*
X59946Y-32799D01*
X59946Y-33035D01*
X59980Y-33118D01*
X59946Y-33200D01*
X59946Y-33299D01*
X59946Y-33535D01*
X59984Y-33627D01*
X60054Y-33697D01*
X60146Y-33736D01*
X60245Y-33736D01*
X61111Y-33736D01*
X61159Y-33716D01*
X61301Y-33716D01*
X61324Y-33771D01*
X61394Y-33841D01*
X61486Y-33879D01*
X61585Y-33879D01*
X61680Y-33879D01*
X61680Y-35325D01*
X58314Y-38690D01*
X57305Y-38690D01*
X57241Y-38625D01*
X57149Y-38587D01*
X57049Y-38587D01*
X56449Y-38587D01*
X56357Y-38625D01*
X56287Y-38695D01*
X56249Y-38787D01*
X56249Y-38887D01*
X56249Y-39487D01*
X56287Y-39579D01*
X56357Y-39649D01*
X56449Y-39687D01*
X56548Y-39687D01*
X57148Y-39687D01*
X57240Y-39649D01*
X57305Y-39584D01*
X58500Y-39584D01*
X58671Y-39550D01*
X58671Y-39550D01*
X58815Y-39453D01*
X62442Y-35826D01*
X62442Y-35826D01*
X62539Y-35681D01*
X62573Y-35510D01*
X62573Y-35510D01*
X62573Y-33879D01*
X62766Y-33879D01*
X62858Y-33841D01*
X62929Y-33771D01*
X62967Y-33679D01*
X62967Y-33580D01*
X62967Y-33029D01*
X62929Y-32937D01*
X62859Y-32867D01*
X62767Y-32828D01*
X62667Y-32828D01*
X62573Y-32828D01*
X62573Y-32166D01*
X62573Y-27167D01*
X63065Y-27167D01*
X63157Y-27129D01*
X63227Y-27059D01*
X63265Y-26967D01*
X63265Y-26867D01*
X63265Y-32883D01*
X63212Y-32937D01*
X63174Y-33028D01*
X63174Y-33128D01*
X63174Y-33241D01*
X63236Y-33304D01*
X63964Y-33304D01*
X63964Y-33404D01*
X63236Y-33404D01*
X63174Y-33466D01*
X63174Y-33580D01*
X63174Y-33679D01*
X63212Y-33771D01*
X63282Y-33841D01*
X63374Y-33879D01*
X63902Y-33879D01*
X63964Y-33817D01*
X63964Y-40827D01*
X63782Y-41010D01*
X63624Y-41391D01*
X63623Y-41803D01*
X63781Y-42185D01*
X64073Y-42477D01*
X64454Y-42635D01*
X64866Y-42636D01*
X65248Y-42478D01*
X65540Y-42186D01*
X65698Y-41805D01*
X65698Y-41392D01*
X65698Y-42702D01*
X57361Y-42702D01*
X57361Y-40947D01*
X57361Y-40248D01*
X57323Y-40156D01*
X57252Y-40086D01*
X57160Y-40048D01*
X57061Y-40048D01*
X56923Y-40048D01*
X56861Y-40110D01*
X56861Y-40548D01*
X57298Y-40548D01*
X57361Y-40485D01*
X57361Y-40248D01*
X57361Y-40947D01*
X57361Y-40710D01*
X57298Y-40648D01*
X56861Y-40648D01*
X56861Y-41085D01*
X56923Y-41148D01*
X57061Y-41148D01*
X57160Y-41148D01*
X57252Y-41110D01*
X57323Y-41039D01*
X57361Y-40947D01*
X57361Y-42702D01*
X56761Y-42702D01*
X56761Y-41085D01*
X56761Y-40648D01*
X56761Y-40548D01*
X56761Y-40110D01*
X56698Y-40048D01*
X56560Y-40048D01*
X56461Y-40048D01*
X56369Y-40086D01*
X56298Y-40156D01*
X56260Y-40248D01*
X56261Y-40485D01*
X56323Y-40548D01*
X56761Y-40548D01*
X56761Y-40648D01*
X56323Y-40648D01*
X56261Y-40710D01*
X56260Y-40947D01*
X56298Y-41039D01*
X56369Y-41110D01*
X56461Y-41148D01*
X56560Y-41148D01*
X56698Y-41148D01*
X56761Y-41085D01*
X56761Y-42702D01*
X48161Y-42702D01*
X48161Y-24151D01*
X48161Y-23738D01*
X47849Y-23738D01*
X47786Y-23801D01*
X47786Y-23914D01*
X47786Y-24013D01*
X47824Y-24105D01*
X47895Y-24176D01*
X47987Y-24214D01*
X48099Y-24213D01*
X48161Y-24151D01*
X48161Y-42702D01*
X47527Y-42702D01*
X47527Y-33381D01*
X47476Y-33257D01*
X47414Y-33195D01*
X47414Y-22879D01*
X47414Y-22767D01*
X47352Y-22704D01*
X46939Y-22704D01*
X46939Y-23017D01*
X47002Y-23079D01*
X47115Y-23079D01*
X47214Y-23079D01*
X47306Y-23041D01*
X47376Y-22970D01*
X47414Y-22879D01*
X47414Y-33195D01*
X47381Y-33161D01*
X47256Y-33110D01*
X47121Y-33110D01*
X46997Y-33161D01*
X46902Y-33256D01*
X46896Y-33269D01*
X46893Y-33261D01*
X46839Y-33207D01*
X46839Y-23017D01*
X46839Y-22704D01*
X46427Y-22704D01*
X46364Y-22767D01*
X46364Y-22879D01*
X46402Y-22970D01*
X46472Y-23041D01*
X46564Y-23079D01*
X46664Y-23079D01*
X46777Y-23079D01*
X46839Y-23017D01*
X46839Y-33207D01*
X46798Y-33165D01*
X46673Y-33114D01*
X46539Y-33114D01*
X46513Y-33124D01*
X46513Y-25926D01*
X46513Y-25477D01*
X46475Y-25385D01*
X46416Y-25326D01*
X46475Y-25268D01*
X46513Y-25176D01*
X46513Y-25077D01*
X46513Y-24727D01*
X46475Y-24635D01*
X46404Y-24564D01*
X46318Y-24529D01*
X46310Y-24484D01*
X46234Y-24371D01*
X46234Y-24371D01*
X46100Y-24237D01*
X46100Y-24237D01*
X45801Y-23938D01*
X45688Y-23863D01*
X45666Y-23858D01*
X45555Y-23836D01*
X45555Y-23836D01*
X44447Y-23836D01*
X43809Y-23198D01*
X43767Y-23170D01*
X43767Y-23170D01*
X43755Y-23158D01*
X43738Y-23151D01*
X43738Y-23151D01*
X43696Y-23122D01*
X43674Y-23118D01*
X43647Y-23113D01*
X43647Y-23113D01*
X43630Y-23106D01*
X43612Y-23106D01*
X43562Y-23096D01*
X43562Y-23096D01*
X43385Y-23096D01*
X43252Y-23122D01*
X43139Y-23198D01*
X43139Y-23198D01*
X42797Y-23540D01*
X42746Y-23518D01*
X42646Y-23518D01*
X42096Y-23518D01*
X42004Y-23556D01*
X41934Y-23627D01*
X41933Y-23629D01*
X41896Y-23718D01*
X41896Y-23818D01*
X41896Y-24168D01*
X41934Y-24260D01*
X41992Y-24318D01*
X41934Y-24377D01*
X41896Y-24469D01*
X41896Y-24581D01*
X41958Y-24643D01*
X42371Y-24643D01*
X42371Y-24636D01*
X42471Y-24636D01*
X42471Y-24643D01*
X42883Y-24643D01*
X42946Y-24581D01*
X42946Y-24469D01*
X42908Y-24377D01*
X42849Y-24318D01*
X42876Y-24292D01*
X42886Y-24292D01*
X42886Y-24292D01*
X42886Y-24292D01*
X42998Y-24270D01*
X43020Y-24265D01*
X43020Y-24265D01*
X43133Y-24190D01*
X43474Y-23849D01*
X44056Y-24431D01*
X44056Y-24431D01*
X44169Y-24506D01*
X44303Y-24533D01*
X45410Y-24533D01*
X45506Y-24629D01*
X45501Y-24634D01*
X45463Y-24726D01*
X45463Y-24826D01*
X45463Y-25176D01*
X45501Y-25268D01*
X45559Y-25326D01*
X45501Y-25385D01*
X45463Y-25477D01*
X45463Y-25589D01*
X45525Y-25651D01*
X45938Y-25651D01*
X45938Y-25643D01*
X46038Y-25643D01*
X46038Y-25651D01*
X46450Y-25651D01*
X46513Y-25589D01*
X46513Y-25477D01*
X46513Y-25926D01*
X46513Y-25814D01*
X46450Y-25751D01*
X46038Y-25751D01*
X46038Y-26064D01*
X46100Y-26126D01*
X46213Y-26126D01*
X46313Y-26126D01*
X46404Y-26088D01*
X46475Y-26018D01*
X46513Y-25926D01*
X46513Y-33124D01*
X46414Y-33165D01*
X46319Y-33260D01*
X46267Y-33385D01*
X46267Y-33402D01*
X45938Y-33732D01*
X45938Y-26064D01*
X45938Y-25751D01*
X45525Y-25751D01*
X45463Y-25814D01*
X45463Y-25926D01*
X45501Y-26018D01*
X45571Y-26088D01*
X45663Y-26126D01*
X45762Y-26126D01*
X45875Y-26126D01*
X45938Y-26064D01*
X45938Y-33732D01*
X44937Y-34733D01*
X37868Y-34733D01*
X37868Y-34648D01*
X44318Y-34648D01*
X44423Y-34627D01*
X44423Y-34627D01*
X44513Y-34568D01*
X45289Y-33791D01*
X45307Y-33791D01*
X45431Y-33739D01*
X45527Y-33644D01*
X45578Y-33520D01*
X45578Y-33385D01*
X45527Y-33261D01*
X45432Y-33165D01*
X45307Y-33114D01*
X45173Y-33114D01*
X45048Y-33165D01*
X44953Y-33260D01*
X44901Y-33385D01*
X44901Y-33402D01*
X44205Y-34099D01*
X37868Y-34099D01*
X37868Y-34026D01*
X42370Y-34026D01*
X42475Y-34005D01*
X42475Y-34005D01*
X42564Y-33946D01*
X42719Y-33791D01*
X42736Y-33791D01*
X42860Y-33739D01*
X42956Y-33644D01*
X43007Y-33520D01*
X43007Y-33385D01*
X42956Y-33261D01*
X42902Y-33206D01*
X42956Y-33152D01*
X43007Y-33028D01*
X43007Y-32893D01*
X42956Y-32769D01*
X42861Y-32673D01*
X42736Y-32622D01*
X42602Y-32621D01*
X42477Y-32673D01*
X42382Y-32768D01*
X42351Y-32843D01*
X37868Y-32843D01*
X37868Y-32714D01*
X37800Y-32550D01*
X37738Y-32488D01*
X37799Y-32426D01*
X37868Y-32262D01*
X37868Y-32084D01*
X37800Y-31920D01*
X37738Y-31858D01*
X37799Y-31796D01*
X37868Y-31632D01*
X37868Y-31454D01*
X37800Y-31290D01*
X37738Y-31228D01*
X37799Y-31166D01*
X37868Y-31002D01*
X37868Y-30873D01*
X40909Y-30873D01*
X41014Y-30852D01*
X41014Y-30852D01*
X41103Y-30792D01*
X44093Y-27803D01*
X44110Y-27803D01*
X44234Y-27751D01*
X44330Y-27656D01*
X44381Y-27532D01*
X44381Y-27397D01*
X44330Y-27273D01*
X44235Y-27177D01*
X44110Y-27126D01*
X43976Y-27125D01*
X43851Y-27177D01*
X43850Y-27178D01*
X43845Y-27173D01*
X43721Y-27122D01*
X43586Y-27121D01*
X43462Y-27173D01*
X43435Y-27200D01*
X43412Y-27177D01*
X43371Y-27160D01*
X43371Y-26126D01*
X43371Y-25776D01*
X43333Y-25684D01*
X43275Y-25625D01*
X43333Y-25567D01*
X43371Y-25475D01*
X43371Y-25026D01*
X43333Y-24934D01*
X43263Y-24864D01*
X43171Y-24826D01*
X43071Y-24825D01*
X42958Y-24825D01*
X42946Y-24838D01*
X42946Y-24806D01*
X42883Y-24743D01*
X42471Y-24743D01*
X42471Y-24751D01*
X42371Y-24751D01*
X42371Y-24743D01*
X41958Y-24743D01*
X41896Y-24806D01*
X41896Y-24918D01*
X41934Y-25010D01*
X42004Y-25080D01*
X42096Y-25118D01*
X42195Y-25118D01*
X42308Y-25118D01*
X42321Y-25106D01*
X42321Y-25138D01*
X42383Y-25200D01*
X42796Y-25200D01*
X42796Y-25193D01*
X42896Y-25193D01*
X42896Y-25200D01*
X43308Y-25200D01*
X43371Y-25138D01*
X43371Y-25026D01*
X43371Y-25475D01*
X43371Y-25363D01*
X43308Y-25300D01*
X42896Y-25300D01*
X42896Y-25308D01*
X42796Y-25308D01*
X42796Y-25300D01*
X42383Y-25300D01*
X42321Y-25363D01*
X42321Y-25475D01*
X42359Y-25567D01*
X42417Y-25626D01*
X42359Y-25684D01*
X42321Y-25776D01*
X42321Y-25875D01*
X42321Y-26225D01*
X42359Y-26317D01*
X42429Y-26387D01*
X42498Y-26416D01*
X42498Y-26438D01*
X42426Y-26509D01*
X42398Y-26551D01*
X42386Y-26563D01*
X42379Y-26580D01*
X42351Y-26622D01*
X42341Y-26671D01*
X42334Y-26688D01*
X42334Y-26706D01*
X42324Y-26755D01*
X42334Y-26805D01*
X42334Y-26822D01*
X42341Y-26839D01*
X42351Y-26889D01*
X42379Y-26931D01*
X42386Y-26947D01*
X42398Y-26960D01*
X42426Y-27002D01*
X42468Y-27030D01*
X42481Y-27042D01*
X42497Y-27049D01*
X42539Y-27077D01*
X42589Y-27087D01*
X42605Y-27094D01*
X42623Y-27094D01*
X42673Y-27104D01*
X42722Y-27094D01*
X42740Y-27094D01*
X42756Y-27087D01*
X42806Y-27077D01*
X42848Y-27049D01*
X42864Y-27043D01*
X42877Y-27030D01*
X42919Y-27002D01*
X43092Y-26829D01*
X43092Y-26829D01*
X43092Y-26829D01*
X43168Y-26716D01*
X43194Y-26582D01*
X43194Y-26582D01*
X43194Y-26582D01*
X43194Y-26416D01*
X43262Y-26388D01*
X43333Y-26317D01*
X43371Y-26225D01*
X43371Y-26126D01*
X43371Y-27160D01*
X43288Y-27126D01*
X43153Y-27125D01*
X43036Y-27174D01*
X42929Y-27129D01*
X42795Y-27129D01*
X42670Y-27181D01*
X42649Y-27202D01*
X42625Y-27177D01*
X42500Y-27126D01*
X42366Y-27125D01*
X42317Y-27145D01*
X42317Y-25673D01*
X42297Y-25568D01*
X42237Y-25479D01*
X42237Y-25479D01*
X41984Y-25225D01*
X41984Y-25208D01*
X41932Y-25084D01*
X41837Y-24988D01*
X41713Y-24937D01*
X41578Y-24936D01*
X41454Y-24988D01*
X41358Y-25083D01*
X41307Y-25207D01*
X41307Y-25342D01*
X41358Y-25467D01*
X41453Y-25562D01*
X41578Y-25614D01*
X41595Y-25614D01*
X41768Y-25786D01*
X41768Y-27260D01*
X41756Y-27272D01*
X41704Y-27396D01*
X41704Y-27531D01*
X41756Y-27656D01*
X41804Y-27704D01*
X41709Y-27800D01*
X37873Y-27800D01*
X37868Y-27800D01*
X37868Y-27675D01*
X37800Y-27510D01*
X37738Y-27448D01*
X37799Y-27387D01*
X37868Y-27223D01*
X37868Y-27045D01*
X37800Y-26881D01*
X37743Y-26824D01*
X37778Y-26790D01*
X37732Y-26744D01*
X37817Y-26729D01*
X37873Y-26561D01*
X37860Y-26383D01*
X37817Y-26278D01*
X37732Y-26263D01*
X37491Y-26503D01*
X37497Y-26509D01*
X37426Y-26580D01*
X37421Y-26574D01*
X37415Y-26580D01*
X37344Y-26509D01*
X37350Y-26503D01*
X37344Y-26498D01*
X37415Y-26427D01*
X37421Y-26433D01*
X37661Y-26192D01*
X37646Y-26108D01*
X37478Y-26051D01*
X37397Y-26057D01*
X37347Y-25936D01*
X37226Y-25814D01*
X37226Y-8585D01*
X37068Y-8204D01*
X36777Y-7912D01*
X36396Y-7754D01*
X35983Y-7753D01*
X35602Y-7911D01*
X35310Y-8202D01*
X35151Y-8584D01*
X35151Y-8996D01*
X35308Y-9378D01*
X35600Y-9670D01*
X35981Y-9828D01*
X36394Y-9828D01*
X36775Y-9671D01*
X37067Y-9379D01*
X37226Y-8998D01*
X37226Y-8585D01*
X37226Y-25814D01*
X37221Y-25810D01*
X37057Y-25742D01*
X37041Y-25742D01*
X37041Y-24990D01*
X36958Y-24789D01*
X36805Y-24636D01*
X36605Y-24553D01*
X36388Y-24553D01*
X36187Y-24635D01*
X36034Y-24789D01*
X35950Y-24989D01*
X35950Y-25206D01*
X36033Y-25406D01*
X36186Y-25560D01*
X36387Y-25643D01*
X36604Y-25643D01*
X36804Y-25560D01*
X36958Y-25407D01*
X37041Y-25207D01*
X37041Y-24990D01*
X37041Y-25742D01*
X36880Y-25742D01*
X36715Y-25809D01*
X36589Y-25935D01*
X36521Y-26099D01*
X36521Y-26211D01*
X36472Y-26215D01*
X36422Y-26093D01*
X36296Y-25967D01*
X36132Y-25899D01*
X35954Y-25899D01*
X35790Y-25967D01*
X35664Y-26093D01*
X35596Y-26257D01*
X35596Y-26434D01*
X35664Y-26599D01*
X35726Y-26661D01*
X35664Y-26722D01*
X35596Y-26887D01*
X35596Y-27064D01*
X35664Y-27229D01*
X35720Y-27285D01*
X35686Y-27320D01*
X35732Y-27365D01*
X35647Y-27380D01*
X35591Y-27549D01*
X35603Y-27726D01*
X35647Y-27832D01*
X35732Y-27846D01*
X35686Y-27892D01*
X35720Y-27926D01*
X35664Y-27982D01*
X35596Y-28146D01*
X35596Y-28324D01*
X35664Y-28489D01*
X35726Y-28551D01*
X35664Y-28612D01*
X35596Y-28776D01*
X35596Y-28954D01*
X35664Y-29118D01*
X35720Y-29175D01*
X35686Y-29209D01*
X35732Y-29255D01*
X35647Y-29270D01*
X35591Y-29438D01*
X35603Y-29616D01*
X35647Y-29721D01*
X35732Y-29736D01*
X35686Y-29782D01*
X35720Y-29816D01*
X35664Y-29872D01*
X35596Y-30036D01*
X35596Y-30214D01*
X35664Y-30378D01*
X35726Y-30440D01*
X35664Y-30502D01*
X35596Y-30666D01*
X35596Y-30844D01*
X35664Y-31008D01*
X35726Y-31070D01*
X35664Y-31132D01*
X35596Y-31296D01*
X35596Y-31474D01*
X35664Y-31638D01*
X35726Y-31700D01*
X35664Y-31762D01*
X35596Y-31926D01*
X35596Y-32104D01*
X35664Y-32268D01*
X35720Y-32325D01*
X35686Y-32359D01*
X35732Y-32405D01*
X35647Y-32419D01*
X35591Y-32588D01*
X35603Y-32765D01*
X35647Y-32871D01*
X35732Y-32886D01*
X35686Y-32931D01*
X35720Y-32966D01*
X35664Y-33022D01*
X35596Y-33186D01*
X35596Y-33364D01*
X35664Y-33528D01*
X35726Y-33590D01*
X35664Y-33652D01*
X35596Y-33816D01*
X35596Y-33994D01*
X35664Y-34158D01*
X35720Y-34214D01*
X35686Y-34249D01*
X35732Y-34295D01*
X35647Y-34309D01*
X35591Y-34478D01*
X35603Y-34655D01*
X35647Y-34761D01*
X35732Y-34775D01*
X35686Y-34821D01*
X35720Y-34855D01*
X35664Y-34911D01*
X35596Y-35076D01*
X35596Y-35253D01*
X35664Y-35418D01*
X35726Y-35480D01*
X35664Y-35541D01*
X35596Y-35706D01*
X35596Y-35883D01*
X35664Y-36048D01*
X35720Y-36104D01*
X35686Y-36139D01*
X35732Y-36184D01*
X35647Y-36199D01*
X35591Y-36368D01*
X35603Y-36545D01*
X35647Y-36650D01*
X35732Y-36665D01*
X35972Y-36425D01*
X35967Y-36419D01*
X36003Y-36383D01*
X36044Y-36424D01*
X36041Y-36427D01*
X35972Y-36497D01*
X35817Y-36652D01*
X35758Y-36741D01*
X35737Y-36846D01*
X35737Y-37130D01*
X35656Y-37211D01*
X35596Y-37300D01*
X35592Y-37322D01*
X35563Y-37351D01*
X35511Y-37475D01*
X35511Y-37610D01*
X35563Y-37734D01*
X35658Y-37830D01*
X35782Y-37881D01*
X35917Y-37881D01*
X35950Y-37868D01*
X35950Y-37942D01*
X36033Y-38143D01*
X36186Y-38296D01*
X36387Y-38379D01*
X36604Y-38380D01*
X36804Y-38297D01*
X36958Y-38143D01*
X37041Y-37943D01*
X37041Y-37726D01*
X36958Y-37526D01*
X36805Y-37372D01*
X36605Y-37289D01*
X36388Y-37289D01*
X36267Y-37339D01*
X36286Y-37244D01*
X36286Y-37224D01*
X36286Y-37136D01*
X36406Y-37186D01*
X36584Y-37187D01*
X36748Y-37119D01*
X36874Y-36993D01*
X36942Y-36829D01*
X36942Y-36717D01*
X36992Y-36714D01*
X37042Y-36835D01*
X37167Y-36961D01*
X37331Y-37029D01*
X37509Y-37029D01*
X37674Y-36961D01*
X37799Y-36836D01*
X37868Y-36671D01*
X37868Y-36494D01*
X37800Y-36329D01*
X37738Y-36267D01*
X37799Y-36206D01*
X37868Y-36042D01*
X37868Y-35908D01*
X42649Y-35908D01*
X42754Y-35887D01*
X42754Y-35887D01*
X42843Y-35828D01*
X43097Y-35573D01*
X45338Y-35573D01*
X45443Y-35552D01*
X45443Y-35552D01*
X45532Y-35493D01*
X47238Y-33787D01*
X47256Y-33787D01*
X47380Y-33736D01*
X47475Y-33640D01*
X47527Y-33516D01*
X47527Y-33381D01*
X47527Y-42702D01*
X40295Y-42702D01*
X40055Y-42702D01*
X40065Y-42692D01*
X40021Y-42647D01*
X40157Y-42572D01*
X40295Y-42225D01*
X40290Y-41852D01*
X40157Y-41529D01*
X40021Y-41454D01*
X39950Y-41525D01*
X39950Y-41384D01*
X39924Y-41335D01*
X39924Y-39384D01*
X39924Y-38784D01*
X39886Y-38692D01*
X39815Y-38622D01*
X39723Y-38583D01*
X39624Y-38583D01*
X39024Y-38583D01*
X38932Y-38621D01*
X38862Y-38692D01*
X38824Y-38783D01*
X38823Y-38883D01*
X38823Y-39483D01*
X38861Y-39575D01*
X38932Y-39645D01*
X39024Y-39683D01*
X39123Y-39683D01*
X39723Y-39683D01*
X39815Y-39645D01*
X39885Y-39575D01*
X39923Y-39483D01*
X39924Y-39384D01*
X39924Y-41335D01*
X39875Y-41248D01*
X39730Y-41190D01*
X39799Y-41161D01*
X39870Y-41091D01*
X39908Y-40999D01*
X39908Y-40900D01*
X39908Y-40399D01*
X39908Y-40299D01*
X39870Y-40207D01*
X39799Y-40137D01*
X39707Y-40099D01*
X39470Y-40099D01*
X39408Y-40162D01*
X39408Y-40599D01*
X39845Y-40599D01*
X39908Y-40537D01*
X39908Y-40399D01*
X39908Y-40900D01*
X39908Y-40762D01*
X39845Y-40699D01*
X39408Y-40699D01*
X39408Y-40707D01*
X39308Y-40707D01*
X39308Y-40699D01*
X39308Y-40599D01*
X39308Y-40162D01*
X39245Y-40099D01*
X39008Y-40099D01*
X38916Y-40137D01*
X38846Y-40207D01*
X38808Y-40299D01*
X38808Y-40399D01*
X38808Y-40537D01*
X38870Y-40599D01*
X39308Y-40599D01*
X39308Y-40699D01*
X38870Y-40699D01*
X38808Y-40762D01*
X38808Y-40900D01*
X38808Y-40999D01*
X38846Y-41091D01*
X38916Y-41161D01*
X38979Y-41187D01*
X38832Y-41248D01*
X38757Y-41384D01*
X39354Y-41980D01*
X39950Y-41384D01*
X39950Y-41525D01*
X39425Y-42051D01*
X39430Y-42056D01*
X39359Y-42127D01*
X39354Y-42121D01*
X39348Y-42127D01*
X39283Y-42062D01*
X39278Y-42056D01*
X39283Y-42051D01*
X38687Y-41454D01*
X38551Y-41529D01*
X38413Y-41876D01*
X38417Y-42250D01*
X38551Y-42572D01*
X38687Y-42647D01*
X38642Y-42692D01*
X38653Y-42702D01*
X37238Y-42702D01*
X37238Y-41436D01*
X37080Y-41054D01*
X36789Y-40762D01*
X36408Y-40604D01*
X35995Y-40604D01*
X35613Y-40761D01*
X35321Y-41053D01*
X35163Y-41434D01*
X35163Y-41847D01*
X35320Y-42228D01*
X35612Y-42520D01*
X35993Y-42678D01*
X36406Y-42679D01*
X36787Y-42521D01*
X37079Y-42230D01*
X37238Y-41848D01*
X37238Y-41436D01*
X37238Y-42702D01*
X34954Y-42702D01*
X34954Y-40172D01*
X35077Y-40295D01*
X35328Y-40399D01*
X35599Y-40399D01*
X35850Y-40295D01*
X36043Y-40103D01*
X36147Y-39853D01*
X36147Y-39581D01*
X36043Y-39330D01*
X35852Y-39137D01*
X35601Y-39033D01*
X35329Y-39033D01*
X35078Y-39137D01*
X34954Y-39260D01*
X34954Y-23676D01*
X35077Y-23799D01*
X35328Y-23903D01*
X35599Y-23903D01*
X35850Y-23799D01*
X36043Y-23607D01*
X36147Y-23356D01*
X36147Y-23085D01*
X36043Y-22834D01*
X35852Y-22641D01*
X35601Y-22537D01*
X35329Y-22537D01*
X35078Y-22641D01*
X34954Y-22764D01*
X34954Y-7530D01*
X65753Y-7530D01*
X65753Y-42702D01*
X65753Y-42702D01*
G37*
G54D32*
X65753Y-42702D02*
X65698Y-42702D01*
X65698Y-41392D01*
X65691Y-41375D01*
X65691Y-12482D01*
X65691Y-11882D01*
X65653Y-11790D01*
X65583Y-11720D01*
X65491Y-11682D01*
X65440Y-11682D01*
X65440Y-10858D01*
X65421Y-10762D01*
X65418Y-10743D01*
X65418Y-10743D01*
X65353Y-10646D01*
X64535Y-9828D01*
X64827Y-9828D01*
X65208Y-9671D01*
X65501Y-9379D01*
X65659Y-8998D01*
X65659Y-8585D01*
X65502Y-8204D01*
X65210Y-7912D01*
X64829Y-7754D01*
X64416Y-7753D01*
X64035Y-7911D01*
X63743Y-8202D01*
X63584Y-8584D01*
X63584Y-8877D01*
X63164Y-8457D01*
X63067Y-8392D01*
X62952Y-8370D01*
X57484Y-8370D01*
X57369Y-8392D01*
X57337Y-8414D01*
X57272Y-8457D01*
X56618Y-9112D01*
X56608Y-9108D01*
X56392Y-9108D01*
X56191Y-9191D01*
X56049Y-9333D01*
X55907Y-9191D01*
X55707Y-9108D01*
X55490Y-9108D01*
X55289Y-9191D01*
X55136Y-9344D01*
X55053Y-9544D01*
X55053Y-9761D01*
X55135Y-9962D01*
X55289Y-10115D01*
X55489Y-10198D01*
X55553Y-10198D01*
X55499Y-10352D01*
X55510Y-10569D01*
X55551Y-10669D01*
X55462Y-10673D01*
X55313Y-10735D01*
X55286Y-10830D01*
X55598Y-11141D01*
X55603Y-11136D01*
X55674Y-11207D01*
X55669Y-11212D01*
X55980Y-11524D01*
X56032Y-11509D01*
X56037Y-11521D01*
X56190Y-11674D01*
X56391Y-11757D01*
X56607Y-11757D01*
X56808Y-11675D01*
X56950Y-11532D01*
X57092Y-11674D01*
X57292Y-11757D01*
X57509Y-11757D01*
X57710Y-11675D01*
X57852Y-11532D01*
X57993Y-11674D01*
X58194Y-11757D01*
X58411Y-11757D01*
X58611Y-11675D01*
X58754Y-11532D01*
X58895Y-11674D01*
X59095Y-11757D01*
X59312Y-11757D01*
X59513Y-11675D01*
X59666Y-11521D01*
X59749Y-11321D01*
X59750Y-11104D01*
X59697Y-10976D01*
X59791Y-10972D01*
X59940Y-10910D01*
X59967Y-10815D01*
X59655Y-10503D01*
X59649Y-10509D01*
X59579Y-10438D01*
X59584Y-10433D01*
X59579Y-10427D01*
X59649Y-10356D01*
X59655Y-10362D01*
X59967Y-10050D01*
X59940Y-9955D01*
X59736Y-9882D01*
X59699Y-9884D01*
X59749Y-9762D01*
X59750Y-9545D01*
X59667Y-9345D01*
X59562Y-9240D01*
X62635Y-9240D01*
X62768Y-9372D01*
X62587Y-9297D01*
X62135Y-9297D01*
X61717Y-9469D01*
X61397Y-9788D01*
X61224Y-10206D01*
X61224Y-10658D01*
X61396Y-11075D01*
X61716Y-11395D01*
X62133Y-11568D01*
X62585Y-11569D01*
X63002Y-11396D01*
X63322Y-11077D01*
X63495Y-10659D01*
X63496Y-10208D01*
X63420Y-10024D01*
X64102Y-10706D01*
X64102Y-13547D01*
X64125Y-13661D01*
X64189Y-13758D01*
X64371Y-13939D01*
X64468Y-14004D01*
X64468Y-14004D01*
X64524Y-14016D01*
X64524Y-14077D01*
X64562Y-14169D01*
X64633Y-14240D01*
X64724Y-14278D01*
X64824Y-14278D01*
X65424Y-14278D01*
X65516Y-14240D01*
X65586Y-14170D01*
X65624Y-14078D01*
X65624Y-13978D01*
X65624Y-13378D01*
X65586Y-13286D01*
X65516Y-13216D01*
X65424Y-13178D01*
X65325Y-13178D01*
X64725Y-13178D01*
X64700Y-13188D01*
X64700Y-12744D01*
X64791Y-12782D01*
X64891Y-12782D01*
X65491Y-12782D01*
X65583Y-12744D01*
X65653Y-12674D01*
X65691Y-12582D01*
X65691Y-12482D01*
X65691Y-41375D01*
X65627Y-41220D01*
X65627Y-26867D01*
X65627Y-26415D01*
X65627Y-26316D01*
X65589Y-26224D01*
X65519Y-26154D01*
X65427Y-26116D01*
X64742Y-26116D01*
X64679Y-26178D01*
X64679Y-26591D01*
X65565Y-26591D01*
X65627Y-26529D01*
X65627Y-26415D01*
X65627Y-26867D01*
X65627Y-26754D01*
X65565Y-26691D01*
X64679Y-26691D01*
X64679Y-27104D01*
X64742Y-27167D01*
X65427Y-27167D01*
X65519Y-27129D01*
X65589Y-27059D01*
X65627Y-26967D01*
X65627Y-26867D01*
X65627Y-41220D01*
X65541Y-41011D01*
X65249Y-40719D01*
X64868Y-40561D01*
X64855Y-40561D01*
X64855Y-33580D01*
X64855Y-33128D01*
X64855Y-33028D01*
X64817Y-32937D01*
X64746Y-32866D01*
X64654Y-32828D01*
X64579Y-32828D01*
X64579Y-27104D01*
X64579Y-26691D01*
X64579Y-26591D01*
X64579Y-26178D01*
X64517Y-26116D01*
X64359Y-26116D01*
X64359Y-20485D01*
X64359Y-20033D01*
X64359Y-19934D01*
X64321Y-19842D01*
X64251Y-19772D01*
X64159Y-19734D01*
X63710Y-19734D01*
X63648Y-19796D01*
X63648Y-20209D01*
X64297Y-20209D01*
X64359Y-20147D01*
X64359Y-20033D01*
X64359Y-20485D01*
X64359Y-20372D01*
X64297Y-20309D01*
X63648Y-20309D01*
X63648Y-20722D01*
X63710Y-20785D01*
X64159Y-20785D01*
X64251Y-20747D01*
X64321Y-20677D01*
X64359Y-20585D01*
X64359Y-20485D01*
X64359Y-26116D01*
X63832Y-26116D01*
X63740Y-26154D01*
X63670Y-26224D01*
X63631Y-26316D01*
X63631Y-26415D01*
X63631Y-26529D01*
X63694Y-26591D01*
X64579Y-26591D01*
X64579Y-26691D01*
X63694Y-26691D01*
X63631Y-26754D01*
X63631Y-26867D01*
X63631Y-26967D01*
X63670Y-27059D01*
X63740Y-27129D01*
X63832Y-27167D01*
X64517Y-27167D01*
X64579Y-27104D01*
X64579Y-32828D01*
X64127Y-32828D01*
X64064Y-32891D01*
X64064Y-33304D01*
X64792Y-33304D01*
X64855Y-33241D01*
X64855Y-33128D01*
X64855Y-33580D01*
X64855Y-33466D01*
X64792Y-33404D01*
X64064Y-33404D01*
X64064Y-33817D01*
X64127Y-33879D01*
X64654Y-33879D01*
X64746Y-33841D01*
X64817Y-33771D01*
X64855Y-33679D01*
X64855Y-33580D01*
X64855Y-40561D01*
X64455Y-40560D01*
X64074Y-40718D01*
X63964Y-40827D01*
X63964Y-33817D01*
X63964Y-33404D01*
X63964Y-33304D01*
X63964Y-32891D01*
X63902Y-32828D01*
X63548Y-32828D01*
X63548Y-20722D01*
X63548Y-20309D01*
X63548Y-20209D01*
X63548Y-19796D01*
X63485Y-19734D01*
X63037Y-19734D01*
X62945Y-19772D01*
X62875Y-19842D01*
X62836Y-19934D01*
X62836Y-20033D01*
X62836Y-20147D01*
X62899Y-20209D01*
X63548Y-20209D01*
X63548Y-20309D01*
X62899Y-20309D01*
X62836Y-20372D01*
X62836Y-20485D01*
X62836Y-20585D01*
X62875Y-20677D01*
X62945Y-20747D01*
X63037Y-20785D01*
X63485Y-20785D01*
X63548Y-20722D01*
X63548Y-32828D01*
X63374Y-32828D01*
X63282Y-32866D01*
X63265Y-32883D01*
X63265Y-26867D01*
X63265Y-26316D01*
X63227Y-26224D01*
X63157Y-26154D01*
X63065Y-26116D01*
X62966Y-26116D01*
X62431Y-26116D01*
X62431Y-20785D01*
X62545Y-20785D01*
X62637Y-20747D01*
X62707Y-20677D01*
X62745Y-20585D01*
X62745Y-20485D01*
X62745Y-19934D01*
X62707Y-19842D01*
X62637Y-19772D01*
X62545Y-19734D01*
X62446Y-19734D01*
X62258Y-19734D01*
X62258Y-19467D01*
X62271Y-19455D01*
X62322Y-19331D01*
X62322Y-19196D01*
X62271Y-19072D01*
X62176Y-18976D01*
X62051Y-18925D01*
X61917Y-18925D01*
X61792Y-18976D01*
X61697Y-19071D01*
X61645Y-19196D01*
X61645Y-19330D01*
X61697Y-19455D01*
X61709Y-19468D01*
X61709Y-19734D01*
X61423Y-19734D01*
X61331Y-19772D01*
X61312Y-19791D01*
X61312Y-19578D01*
X61278Y-19496D01*
X61312Y-19413D01*
X61312Y-19078D01*
X61278Y-18996D01*
X61312Y-18913D01*
X61312Y-18578D01*
X61274Y-18486D01*
X61204Y-18416D01*
X61112Y-18378D01*
X61052Y-18378D01*
X61052Y-17934D01*
X61052Y-17483D01*
X61051Y-17383D01*
X61013Y-17291D01*
X60943Y-17221D01*
X60851Y-17183D01*
X60739Y-17183D01*
X60676Y-17246D01*
X60676Y-17658D01*
X60989Y-17658D01*
X61051Y-17596D01*
X61052Y-17483D01*
X61052Y-17934D01*
X61051Y-17821D01*
X60989Y-17758D01*
X60676Y-17758D01*
X60676Y-18171D01*
X60739Y-18233D01*
X60851Y-18233D01*
X60943Y-18195D01*
X61013Y-18125D01*
X61051Y-18033D01*
X61052Y-17934D01*
X61052Y-18378D01*
X61012Y-18378D01*
X60741Y-18378D01*
X60679Y-18440D01*
X60679Y-18696D01*
X61249Y-18696D01*
X61312Y-18633D01*
X61312Y-18578D01*
X61312Y-18913D01*
X61312Y-18858D01*
X61249Y-18796D01*
X60679Y-18796D01*
X60679Y-18940D01*
X60679Y-19051D01*
X60679Y-19196D01*
X61249Y-19196D01*
X61312Y-19133D01*
X61312Y-19078D01*
X61312Y-19413D01*
X61312Y-19358D01*
X61249Y-19296D01*
X60679Y-19296D01*
X60679Y-19303D01*
X60579Y-19303D01*
X60579Y-19296D01*
X60579Y-19196D01*
X60579Y-19051D01*
X60579Y-18940D01*
X60579Y-18796D01*
X60571Y-18796D01*
X60571Y-18696D01*
X60579Y-18696D01*
X60579Y-18440D01*
X60516Y-18378D01*
X60245Y-18378D01*
X60146Y-18378D01*
X60100Y-18397D01*
X60100Y-18233D01*
X60101Y-18233D01*
X60193Y-18195D01*
X60251Y-18137D01*
X60310Y-18195D01*
X60402Y-18233D01*
X60514Y-18233D01*
X60576Y-18171D01*
X60576Y-17758D01*
X60569Y-17758D01*
X60569Y-17658D01*
X60576Y-17658D01*
X60576Y-17246D01*
X60514Y-17183D01*
X60402Y-17183D01*
X60310Y-17221D01*
X60251Y-17280D01*
X60205Y-17233D01*
X60205Y-10513D01*
X60194Y-10297D01*
X60132Y-10148D01*
X60037Y-10121D01*
X59726Y-10433D01*
X60037Y-10744D01*
X60132Y-10718D01*
X60205Y-10513D01*
X60205Y-17233D01*
X60193Y-17221D01*
X60101Y-17183D01*
X60002Y-17183D01*
X59652Y-17183D01*
X59560Y-17221D01*
X59490Y-17291D01*
X59452Y-17383D01*
X59451Y-17483D01*
X59451Y-17667D01*
X59430Y-17700D01*
X59425Y-17722D01*
X59403Y-17833D01*
X59403Y-17833D01*
X59403Y-18698D01*
X59266Y-18835D01*
X59266Y-18814D01*
X59266Y-18578D01*
X59228Y-18486D01*
X59158Y-18416D01*
X59066Y-18378D01*
X58966Y-18378D01*
X58100Y-18378D01*
X58008Y-18415D01*
X57938Y-18486D01*
X57900Y-18578D01*
X57900Y-18677D01*
X57900Y-18852D01*
X57888Y-18824D01*
X57818Y-18753D01*
X57726Y-18715D01*
X57627Y-18715D01*
X57077Y-18715D01*
X56985Y-18753D01*
X56914Y-18823D01*
X56876Y-18915D01*
X56876Y-19015D01*
X56876Y-19320D01*
X56452Y-18896D01*
X56470Y-18852D01*
X56470Y-18753D01*
X56470Y-17257D01*
X56470Y-16490D01*
X56470Y-14895D01*
X56432Y-14803D01*
X56362Y-14733D01*
X56270Y-14695D01*
X56170Y-14694D01*
X56057Y-14695D01*
X55994Y-14757D01*
X55994Y-15643D01*
X56407Y-15643D01*
X56470Y-15580D01*
X56470Y-14895D01*
X56470Y-16490D01*
X56470Y-15805D01*
X56407Y-15743D01*
X55994Y-15743D01*
X55994Y-16628D01*
X56057Y-16691D01*
X56170Y-16691D01*
X56270Y-16690D01*
X56362Y-16652D01*
X56432Y-16582D01*
X56470Y-16490D01*
X56470Y-17257D01*
X56432Y-17165D01*
X56362Y-17095D01*
X56270Y-17057D01*
X56170Y-17056D01*
X55910Y-17056D01*
X55910Y-11595D01*
X55598Y-11283D01*
X55527Y-11354D01*
X55527Y-11212D01*
X55215Y-10900D01*
X55121Y-10927D01*
X55048Y-11131D01*
X55059Y-11348D01*
X55121Y-11497D01*
X55215Y-11524D01*
X55527Y-11212D01*
X55527Y-11354D01*
X55286Y-11595D01*
X55313Y-11689D01*
X55517Y-11762D01*
X55734Y-11751D01*
X55883Y-11689D01*
X55910Y-11595D01*
X55910Y-17056D01*
X55894Y-17056D01*
X55894Y-16628D01*
X55894Y-15743D01*
X55894Y-15643D01*
X55894Y-14757D01*
X55832Y-14695D01*
X55718Y-14694D01*
X55619Y-14695D01*
X55527Y-14733D01*
X55457Y-14803D01*
X55419Y-14895D01*
X55419Y-15580D01*
X55481Y-15643D01*
X55894Y-15643D01*
X55894Y-15743D01*
X55481Y-15743D01*
X55419Y-15805D01*
X55419Y-16490D01*
X55457Y-16582D01*
X55527Y-16652D01*
X55619Y-16690D01*
X55718Y-16691D01*
X55832Y-16691D01*
X55894Y-16628D01*
X55894Y-17056D01*
X55619Y-17056D01*
X55527Y-17094D01*
X55457Y-17165D01*
X55419Y-17257D01*
X55419Y-17356D01*
X55419Y-17706D01*
X55248Y-17706D01*
X55248Y-17706D01*
X55114Y-17733D01*
X55001Y-17808D01*
X55001Y-17808D01*
X54950Y-17860D01*
X53876Y-17860D01*
X53876Y-17296D01*
X53838Y-17204D01*
X53768Y-17133D01*
X53676Y-17095D01*
X53578Y-17095D01*
X53578Y-10208D01*
X53406Y-9790D01*
X53087Y-9470D01*
X52669Y-9297D01*
X52217Y-9297D01*
X51800Y-9469D01*
X51480Y-9788D01*
X51307Y-10206D01*
X51306Y-10658D01*
X51479Y-11075D01*
X51798Y-11395D01*
X52215Y-11568D01*
X52667Y-11569D01*
X53085Y-11396D01*
X53405Y-11077D01*
X53578Y-10659D01*
X53578Y-10208D01*
X53578Y-17095D01*
X53577Y-17095D01*
X52977Y-17095D01*
X52885Y-17133D01*
X52814Y-17203D01*
X52776Y-17295D01*
X52776Y-17395D01*
X52776Y-17860D01*
X51937Y-17860D01*
X51937Y-11755D01*
X51885Y-11631D01*
X51790Y-11535D01*
X51666Y-11484D01*
X51531Y-11484D01*
X51406Y-11535D01*
X51311Y-11630D01*
X51271Y-11726D01*
X50924Y-12073D01*
X50909Y-12036D01*
X50814Y-11941D01*
X50689Y-11889D01*
X50554Y-11889D01*
X50430Y-11941D01*
X50426Y-11944D01*
X49956Y-11944D01*
X49956Y-11842D01*
X49905Y-11717D01*
X49810Y-11622D01*
X49685Y-11570D01*
X49677Y-11570D01*
X49677Y-10208D01*
X49504Y-9790D01*
X49185Y-9470D01*
X48768Y-9297D01*
X48316Y-9297D01*
X47898Y-9469D01*
X47578Y-9788D01*
X47405Y-10206D01*
X47405Y-10658D01*
X47577Y-11075D01*
X47897Y-11395D01*
X48314Y-11568D01*
X48766Y-11569D01*
X49183Y-11396D01*
X49503Y-11077D01*
X49676Y-10659D01*
X49677Y-10208D01*
X49677Y-11570D01*
X49551Y-11570D01*
X49455Y-11610D01*
X46466Y-11610D01*
X46386Y-11530D01*
X46386Y-10513D01*
X46375Y-10297D01*
X46313Y-10148D01*
X46219Y-10121D01*
X45907Y-10433D01*
X46219Y-10744D01*
X46313Y-10718D01*
X46386Y-10513D01*
X46386Y-11530D01*
X45910Y-11054D01*
X45878Y-10976D01*
X45972Y-10972D01*
X46121Y-10910D01*
X46148Y-10815D01*
X45836Y-10503D01*
X45831Y-10509D01*
X45760Y-10438D01*
X45765Y-10433D01*
X45760Y-10427D01*
X45831Y-10356D01*
X45836Y-10362D01*
X46148Y-10050D01*
X46121Y-9955D01*
X45917Y-9882D01*
X45880Y-9884D01*
X45931Y-9762D01*
X45931Y-9545D01*
X45848Y-9345D01*
X45695Y-9191D01*
X45494Y-9108D01*
X45277Y-9108D01*
X45077Y-9191D01*
X44934Y-9333D01*
X44793Y-9191D01*
X44593Y-9108D01*
X44376Y-9108D01*
X44175Y-9191D01*
X44033Y-9333D01*
X43891Y-9191D01*
X43691Y-9108D01*
X43474Y-9108D01*
X43274Y-9191D01*
X43131Y-9333D01*
X42990Y-9191D01*
X42790Y-9108D01*
X42573Y-9108D01*
X42372Y-9191D01*
X42230Y-9333D01*
X42088Y-9191D01*
X41888Y-9108D01*
X41671Y-9108D01*
X41471Y-9191D01*
X41317Y-9344D01*
X41234Y-9544D01*
X41234Y-9761D01*
X41316Y-9962D01*
X41470Y-10115D01*
X41670Y-10198D01*
X41734Y-10198D01*
X41680Y-10352D01*
X41691Y-10569D01*
X41732Y-10669D01*
X41643Y-10673D01*
X41494Y-10735D01*
X41467Y-10830D01*
X41779Y-11141D01*
X41785Y-11136D01*
X41855Y-11207D01*
X41850Y-11212D01*
X42162Y-11524D01*
X42213Y-11509D01*
X42218Y-11521D01*
X42371Y-11674D01*
X42572Y-11757D01*
X42789Y-11757D01*
X42989Y-11675D01*
X43132Y-11532D01*
X43273Y-11674D01*
X43473Y-11757D01*
X43555Y-11757D01*
X44579Y-12782D01*
X44579Y-12782D01*
X44644Y-12825D01*
X44676Y-12847D01*
X44676Y-12847D01*
X44791Y-12870D01*
X49629Y-12870D01*
X50850Y-12870D01*
X50964Y-12847D01*
X51061Y-12782D01*
X51695Y-12149D01*
X51789Y-12110D01*
X51885Y-12014D01*
X51936Y-11890D01*
X51937Y-11755D01*
X51937Y-17860D01*
X48460Y-17860D01*
X47901Y-17860D01*
X47098Y-17860D01*
X47082Y-17860D01*
X46992Y-17860D01*
X46992Y-17860D01*
X46992Y-17860D01*
X46881Y-17860D01*
X45874Y-17860D01*
X45854Y-17856D01*
X45834Y-17860D01*
X45224Y-17860D01*
X44834Y-17860D01*
X44830Y-17860D01*
X44781Y-17870D01*
X44767Y-17870D01*
X44754Y-17875D01*
X44697Y-17886D01*
X44649Y-17918D01*
X44643Y-17921D01*
X44638Y-17926D01*
X44584Y-17962D01*
X44548Y-18015D01*
X44547Y-18016D01*
X44547Y-18017D01*
X44508Y-18075D01*
X44482Y-18208D01*
X44508Y-18341D01*
X44547Y-18399D01*
X44547Y-18400D01*
X44548Y-18400D01*
X44584Y-18455D01*
X44637Y-18490D01*
X44642Y-18495D01*
X44648Y-18498D01*
X44690Y-18526D01*
X44690Y-18682D01*
X44622Y-18710D01*
X44552Y-18780D01*
X44514Y-18872D01*
X44514Y-18971D01*
X44514Y-19321D01*
X44552Y-19413D01*
X44610Y-19472D01*
X44552Y-19531D01*
X44514Y-19622D01*
X44514Y-19734D01*
X44576Y-19797D01*
X44989Y-19797D01*
X44989Y-19789D01*
X45089Y-19789D01*
X45089Y-19797D01*
X45501Y-19797D01*
X45505Y-19793D01*
X45674Y-19793D01*
X45674Y-19785D01*
X45774Y-19785D01*
X45774Y-19793D01*
X46186Y-19793D01*
X46249Y-19731D01*
X46249Y-19618D01*
X46211Y-19527D01*
X46152Y-19468D01*
X46211Y-19410D01*
X46249Y-19318D01*
X46249Y-19218D01*
X46249Y-18868D01*
X46211Y-18777D01*
X46141Y-18706D01*
X46072Y-18678D01*
X46072Y-18557D01*
X46578Y-18557D01*
X46573Y-18569D01*
X46573Y-18668D01*
X46573Y-19018D01*
X46611Y-19110D01*
X46669Y-19169D01*
X46611Y-19227D01*
X46573Y-19319D01*
X46573Y-19431D01*
X46635Y-19494D01*
X47048Y-19494D01*
X47048Y-19486D01*
X47148Y-19486D01*
X47148Y-19494D01*
X47560Y-19494D01*
X47623Y-19431D01*
X47623Y-19319D01*
X47585Y-19227D01*
X47526Y-19169D01*
X47585Y-19111D01*
X47623Y-19019D01*
X47623Y-18919D01*
X47623Y-18569D01*
X47618Y-18557D01*
X47699Y-18557D01*
X47721Y-18610D01*
X47780Y-18669D01*
X47721Y-18727D01*
X47683Y-18819D01*
X47683Y-18931D01*
X47746Y-18994D01*
X48158Y-18994D01*
X48158Y-18986D01*
X48258Y-18986D01*
X48258Y-18994D01*
X48671Y-18994D01*
X48733Y-18931D01*
X48733Y-18819D01*
X48695Y-18727D01*
X48637Y-18669D01*
X48695Y-18611D01*
X48717Y-18557D01*
X53177Y-18557D01*
X53177Y-18557D01*
X53177Y-18557D01*
X53177Y-18557D01*
X55094Y-18557D01*
X55094Y-18557D01*
X55094Y-18557D01*
X55205Y-18534D01*
X55227Y-18530D01*
X55227Y-18530D01*
X55340Y-18455D01*
X55392Y-18403D01*
X55419Y-18403D01*
X55419Y-18852D01*
X55457Y-18944D01*
X55527Y-19014D01*
X55619Y-19052D01*
X55648Y-19052D01*
X55698Y-19128D01*
X56707Y-20137D01*
X56707Y-20137D01*
X56820Y-20212D01*
X56944Y-20237D01*
X56984Y-20277D01*
X57076Y-20315D01*
X57176Y-20315D01*
X57333Y-20315D01*
X57510Y-20492D01*
X57510Y-20492D01*
X57623Y-20567D01*
X57756Y-20594D01*
X57756Y-20594D01*
X57756Y-20594D01*
X58053Y-20594D01*
X58100Y-20614D01*
X58199Y-20614D01*
X59065Y-20614D01*
X59157Y-20576D01*
X59228Y-20505D01*
X59266Y-20414D01*
X59266Y-20314D01*
X59266Y-20078D01*
X59232Y-19995D01*
X59266Y-19914D01*
X59266Y-19814D01*
X59266Y-19594D01*
X59348Y-19594D01*
X59348Y-19594D01*
X59348Y-19594D01*
X59459Y-19572D01*
X59481Y-19567D01*
X59481Y-19567D01*
X59594Y-19492D01*
X59949Y-19137D01*
X60008Y-19196D01*
X60579Y-19196D01*
X60579Y-19296D01*
X60008Y-19296D01*
X59946Y-19358D01*
X59946Y-19413D01*
X59980Y-19496D01*
X59946Y-19578D01*
X59946Y-19677D01*
X59946Y-19913D01*
X59980Y-19996D01*
X59946Y-20078D01*
X59946Y-20177D01*
X59946Y-20413D01*
X59984Y-20505D01*
X60054Y-20575D01*
X60146Y-20614D01*
X60245Y-20614D01*
X61111Y-20614D01*
X61159Y-20594D01*
X61226Y-20594D01*
X61260Y-20676D01*
X61331Y-20747D01*
X61422Y-20785D01*
X61522Y-20785D01*
X61537Y-20785D01*
X61537Y-26116D01*
X61470Y-26116D01*
X61378Y-26154D01*
X61316Y-26216D01*
X61316Y-25984D01*
X61282Y-25901D01*
X61316Y-25819D01*
X61316Y-25484D01*
X61282Y-25401D01*
X61316Y-25319D01*
X61316Y-24984D01*
X61278Y-24892D01*
X61208Y-24821D01*
X61116Y-24783D01*
X61055Y-24783D01*
X61055Y-24355D01*
X61055Y-23904D01*
X61055Y-23804D01*
X61017Y-23713D01*
X60947Y-23642D01*
X60855Y-23604D01*
X60743Y-23604D01*
X60680Y-23667D01*
X60680Y-24079D01*
X60993Y-24079D01*
X61055Y-24017D01*
X61055Y-23904D01*
X61055Y-24355D01*
X61055Y-24242D01*
X60993Y-24179D01*
X60680Y-24179D01*
X60680Y-24592D01*
X60743Y-24654D01*
X60855Y-24654D01*
X60947Y-24616D01*
X61017Y-24546D01*
X61055Y-24454D01*
X61055Y-24355D01*
X61055Y-24783D01*
X61016Y-24783D01*
X60745Y-24783D01*
X60683Y-24846D01*
X60683Y-25101D01*
X61253Y-25101D01*
X61316Y-25039D01*
X61316Y-24984D01*
X61316Y-25319D01*
X61316Y-25264D01*
X61253Y-25201D01*
X60683Y-25201D01*
X60683Y-25346D01*
X60683Y-25457D01*
X60683Y-25601D01*
X61253Y-25601D01*
X61316Y-25539D01*
X61316Y-25484D01*
X61316Y-25819D01*
X61316Y-25764D01*
X61253Y-25701D01*
X60683Y-25701D01*
X60683Y-25709D01*
X60583Y-25709D01*
X60583Y-25701D01*
X60583Y-25601D01*
X60583Y-25457D01*
X60583Y-25346D01*
X60583Y-25201D01*
X60583Y-25101D01*
X60583Y-24846D01*
X60580Y-24843D01*
X60580Y-24592D01*
X60580Y-24179D01*
X60573Y-24179D01*
X60573Y-24079D01*
X60580Y-24079D01*
X60580Y-23667D01*
X60518Y-23604D01*
X60406Y-23604D01*
X60314Y-23642D01*
X60255Y-23701D01*
X60197Y-23643D01*
X60105Y-23604D01*
X60006Y-23604D01*
X59656Y-23604D01*
X59564Y-23642D01*
X59494Y-23713D01*
X59455Y-23804D01*
X59455Y-23904D01*
X59455Y-24062D01*
X59348Y-24169D01*
X59272Y-24283D01*
X59268Y-24305D01*
X59246Y-24416D01*
X59246Y-24416D01*
X59246Y-24925D01*
X59232Y-24892D01*
X59162Y-24821D01*
X59070Y-24783D01*
X58970Y-24783D01*
X58104Y-24783D01*
X58012Y-24821D01*
X57942Y-24891D01*
X57904Y-24983D01*
X57904Y-25083D01*
X57904Y-25174D01*
X57885Y-25155D01*
X57793Y-25117D01*
X57693Y-25117D01*
X57143Y-25117D01*
X57052Y-25155D01*
X56981Y-25225D01*
X56943Y-25317D01*
X56943Y-25416D01*
X56943Y-25766D01*
X56981Y-25858D01*
X57039Y-25917D01*
X57013Y-25943D01*
X56735Y-25943D01*
X56288Y-25496D01*
X56318Y-25483D01*
X56388Y-25413D01*
X56427Y-25321D01*
X56427Y-25222D01*
X56427Y-23726D01*
X56427Y-22959D01*
X56427Y-21364D01*
X56389Y-21272D01*
X56318Y-21201D01*
X56227Y-21163D01*
X56127Y-21163D01*
X56014Y-21163D01*
X55951Y-21226D01*
X55951Y-22111D01*
X56364Y-22111D01*
X56427Y-22049D01*
X56427Y-21364D01*
X56427Y-22959D01*
X56427Y-22274D01*
X56364Y-22211D01*
X55951Y-22211D01*
X55951Y-23097D01*
X56014Y-23159D01*
X56127Y-23159D01*
X56227Y-23159D01*
X56318Y-23121D01*
X56389Y-23050D01*
X56427Y-22959D01*
X56427Y-23726D01*
X56389Y-23634D01*
X56318Y-23563D01*
X56227Y-23525D01*
X56127Y-23525D01*
X55851Y-23525D01*
X55851Y-23097D01*
X55851Y-22211D01*
X55851Y-22111D01*
X55851Y-21226D01*
X55789Y-21163D01*
X55675Y-21163D01*
X55576Y-21163D01*
X55484Y-21201D01*
X55414Y-21272D01*
X55376Y-21364D01*
X55376Y-22049D01*
X55438Y-22111D01*
X55851Y-22111D01*
X55851Y-22211D01*
X55438Y-22211D01*
X55376Y-22274D01*
X55376Y-22959D01*
X55414Y-23050D01*
X55484Y-23121D01*
X55576Y-23159D01*
X55675Y-23159D01*
X55789Y-23159D01*
X55851Y-23097D01*
X55851Y-23525D01*
X55576Y-23525D01*
X55484Y-23563D01*
X55414Y-23633D01*
X55376Y-23725D01*
X55376Y-23825D01*
X55376Y-24175D01*
X53936Y-24175D01*
X53460Y-24175D01*
X53452Y-24175D01*
X53152Y-24175D01*
X51754Y-22777D01*
X51641Y-22701D01*
X51619Y-22697D01*
X51507Y-22675D01*
X51507Y-22675D01*
X48687Y-22675D01*
X47996Y-21983D01*
X48016Y-21992D01*
X48036Y-22020D01*
X48249Y-22234D01*
X48249Y-22234D01*
X48362Y-22310D01*
X48496Y-22336D01*
X48496Y-22336D01*
X48496Y-22336D01*
X49622Y-22336D01*
X49622Y-22336D01*
X49622Y-22336D01*
X49733Y-22314D01*
X49755Y-22310D01*
X49755Y-22310D01*
X49868Y-22234D01*
X50692Y-21410D01*
X50692Y-21410D01*
X50692Y-21410D01*
X50767Y-21297D01*
X50777Y-21247D01*
X50777Y-21247D01*
X50832Y-21192D01*
X50870Y-21100D01*
X50870Y-21001D01*
X50870Y-20451D01*
X50848Y-20396D01*
X50874Y-20332D01*
X50874Y-20233D01*
X50874Y-19683D01*
X50836Y-19591D01*
X50835Y-19589D01*
X50866Y-19513D01*
X50866Y-19414D01*
X50866Y-18864D01*
X50828Y-18772D01*
X50758Y-18702D01*
X50666Y-18664D01*
X50567Y-18663D01*
X50217Y-18663D01*
X50125Y-18701D01*
X50066Y-18760D01*
X50008Y-18702D01*
X49916Y-18664D01*
X49817Y-18663D01*
X49467Y-18663D01*
X49375Y-18701D01*
X49305Y-18772D01*
X49271Y-18852D01*
X49197Y-18867D01*
X49084Y-18942D01*
X49084Y-18942D01*
X48902Y-19124D01*
X48700Y-19124D01*
X48671Y-19094D01*
X48258Y-19094D01*
X48258Y-19102D01*
X48158Y-19102D01*
X48158Y-19094D01*
X47746Y-19094D01*
X47683Y-19156D01*
X47683Y-19268D01*
X47721Y-19360D01*
X47791Y-19431D01*
X47883Y-19469D01*
X47983Y-19469D01*
X48096Y-19469D01*
X48158Y-19406D01*
X48158Y-19407D01*
X48083Y-19482D01*
X48050Y-19482D01*
X47958Y-19520D01*
X47887Y-19591D01*
X47858Y-19660D01*
X47857Y-19661D01*
X47744Y-19614D01*
X47610Y-19614D01*
X47589Y-19622D01*
X47560Y-19594D01*
X47148Y-19594D01*
X47148Y-19906D01*
X47210Y-19969D01*
X47287Y-19969D01*
X47281Y-20000D01*
X47281Y-20137D01*
X47214Y-20109D01*
X47115Y-20109D01*
X47048Y-20109D01*
X47048Y-19906D01*
X47048Y-19594D01*
X46635Y-19594D01*
X46573Y-19656D01*
X46573Y-19768D01*
X46611Y-19860D01*
X46681Y-19931D01*
X46773Y-19969D01*
X46872Y-19969D01*
X46985Y-19969D01*
X47048Y-19906D01*
X47048Y-20109D01*
X47002Y-20109D01*
X46939Y-20171D01*
X46939Y-20484D01*
X46947Y-20484D01*
X46947Y-20584D01*
X46939Y-20584D01*
X46939Y-20592D01*
X46839Y-20592D01*
X46839Y-20584D01*
X46839Y-20484D01*
X46839Y-20171D01*
X46777Y-20109D01*
X46664Y-20109D01*
X46564Y-20109D01*
X46472Y-20147D01*
X46402Y-20218D01*
X46364Y-20309D01*
X46364Y-20421D01*
X46427Y-20484D01*
X46839Y-20484D01*
X46839Y-20584D01*
X46427Y-20584D01*
X46364Y-20646D01*
X46364Y-20758D01*
X46382Y-20801D01*
X46249Y-20668D01*
X46249Y-20068D01*
X46249Y-19956D01*
X46186Y-19893D01*
X45774Y-19893D01*
X45774Y-20206D01*
X45836Y-20268D01*
X45949Y-20268D01*
X46049Y-20268D01*
X46141Y-20230D01*
X46211Y-20159D01*
X46249Y-20068D01*
X46249Y-20668D01*
X46160Y-20579D01*
X46063Y-20514D01*
X45948Y-20492D01*
X45799Y-20492D01*
X45674Y-20492D01*
X45674Y-20206D01*
X45674Y-19893D01*
X45261Y-19893D01*
X45257Y-19897D01*
X45089Y-19897D01*
X45089Y-20209D01*
X45151Y-20272D01*
X45264Y-20272D01*
X45364Y-20272D01*
X45386Y-20263D01*
X45399Y-20268D01*
X45498Y-20268D01*
X45611Y-20268D01*
X45674Y-20206D01*
X45674Y-20492D01*
X44989Y-20492D01*
X44989Y-20209D01*
X44989Y-19897D01*
X44576Y-19897D01*
X44514Y-19959D01*
X44514Y-20071D01*
X44552Y-20163D01*
X44622Y-20234D01*
X44714Y-20272D01*
X44813Y-20272D01*
X44926Y-20272D01*
X44989Y-20209D01*
X44989Y-20492D01*
X44824Y-20492D01*
X44404Y-20071D01*
X44282Y-19949D01*
X44282Y-19949D01*
X44282Y-19949D01*
X44081Y-19749D01*
X44081Y-19749D01*
X44081Y-19749D01*
X43534Y-19201D01*
X43534Y-19201D01*
X43447Y-19115D01*
X43329Y-18997D01*
X43180Y-18847D01*
X43030Y-18697D01*
X42782Y-18449D01*
X42782Y-18449D01*
X42766Y-18426D01*
X42766Y-18426D01*
X42687Y-18347D01*
X42687Y-18347D01*
X42687Y-18347D01*
X42581Y-18241D01*
X42581Y-18241D01*
X42581Y-18241D01*
X42480Y-18139D01*
X42480Y-15000D01*
X42457Y-14885D01*
X42457Y-14885D01*
X42436Y-14853D01*
X42392Y-14788D01*
X42392Y-14788D01*
X42091Y-14487D01*
X42091Y-11595D01*
X41779Y-11283D01*
X41708Y-11354D01*
X41708Y-11212D01*
X41397Y-10900D01*
X41302Y-10927D01*
X41229Y-11131D01*
X41240Y-11348D01*
X41302Y-11497D01*
X41397Y-11524D01*
X41708Y-11212D01*
X41708Y-11354D01*
X41467Y-11595D01*
X41494Y-11689D01*
X41698Y-11762D01*
X41915Y-11751D01*
X42064Y-11689D01*
X42091Y-11595D01*
X42091Y-14487D01*
X41908Y-14304D01*
X41811Y-14239D01*
X41747Y-14226D01*
X41738Y-14204D01*
X41599Y-14065D01*
X41621Y-14065D01*
X41713Y-14027D01*
X41783Y-13957D01*
X41821Y-13865D01*
X41821Y-13766D01*
X41821Y-13166D01*
X41783Y-13074D01*
X41713Y-13003D01*
X41621Y-12965D01*
X41522Y-12965D01*
X40922Y-12965D01*
X40909Y-12970D01*
X40901Y-12950D01*
X40806Y-12854D01*
X40681Y-12803D01*
X40547Y-12803D01*
X40422Y-12854D01*
X40327Y-12949D01*
X40275Y-13074D01*
X40275Y-13208D01*
X40318Y-13313D01*
X40318Y-15937D01*
X40341Y-16051D01*
X40406Y-16148D01*
X40721Y-16463D01*
X40721Y-16624D01*
X40805Y-16826D01*
X40959Y-16981D01*
X41035Y-17013D01*
X40983Y-17034D01*
X40956Y-17129D01*
X41271Y-17445D01*
X41277Y-17439D01*
X41347Y-17510D01*
X41342Y-17515D01*
X41347Y-17521D01*
X41277Y-17592D01*
X41271Y-17586D01*
X41200Y-17657D01*
X41200Y-17515D01*
X40885Y-17200D01*
X40790Y-17227D01*
X40716Y-17433D01*
X40727Y-17652D01*
X40790Y-17803D01*
X40885Y-17830D01*
X41200Y-17515D01*
X41200Y-17657D01*
X40956Y-17901D01*
X40983Y-17997D01*
X41039Y-18016D01*
X40960Y-18049D01*
X40805Y-18203D01*
X40721Y-18405D01*
X40721Y-18624D01*
X40805Y-18826D01*
X40959Y-18981D01*
X41161Y-19065D01*
X41380Y-19065D01*
X41582Y-18982D01*
X41737Y-18827D01*
X41803Y-18668D01*
X43069Y-19934D01*
X40699Y-19934D01*
X40699Y-17696D01*
X40678Y-17591D01*
X40619Y-17502D01*
X40229Y-17112D01*
X40140Y-17053D01*
X40128Y-17051D01*
X40128Y-16957D01*
X40090Y-16865D01*
X40032Y-16807D01*
X40090Y-16748D01*
X40128Y-16657D01*
X40128Y-16557D01*
X40128Y-15957D01*
X40090Y-15865D01*
X40020Y-15795D01*
X39928Y-15757D01*
X39877Y-15757D01*
X39877Y-15236D01*
X39855Y-15121D01*
X39855Y-15121D01*
X39790Y-15024D01*
X39760Y-14994D01*
X39760Y-10208D01*
X39587Y-9790D01*
X39268Y-9470D01*
X38850Y-9297D01*
X38399Y-9297D01*
X37981Y-9469D01*
X37661Y-9788D01*
X37488Y-10206D01*
X37487Y-10658D01*
X37660Y-11075D01*
X37979Y-11395D01*
X38397Y-11568D01*
X38848Y-11569D01*
X39266Y-11396D01*
X39586Y-11077D01*
X39759Y-10659D01*
X39760Y-10208D01*
X39760Y-14994D01*
X39159Y-14393D01*
X39062Y-14328D01*
X38947Y-14306D01*
X38754Y-14306D01*
X38746Y-14288D01*
X38733Y-14275D01*
X38766Y-14242D01*
X38804Y-14151D01*
X38804Y-14051D01*
X38804Y-13701D01*
X38766Y-13609D01*
X38708Y-13551D01*
X38766Y-13492D01*
X38804Y-13400D01*
X38804Y-12951D01*
X38766Y-12859D01*
X38696Y-12789D01*
X38604Y-12751D01*
X38505Y-12751D01*
X38392Y-12751D01*
X38329Y-12813D01*
X38329Y-13126D01*
X38742Y-13126D01*
X38804Y-13063D01*
X38804Y-12951D01*
X38804Y-13400D01*
X38804Y-13288D01*
X38742Y-13226D01*
X38329Y-13226D01*
X38329Y-13234D01*
X38229Y-13234D01*
X38229Y-13226D01*
X38229Y-13126D01*
X38229Y-12813D01*
X38167Y-12751D01*
X38054Y-12751D01*
X37954Y-12751D01*
X37862Y-12789D01*
X37792Y-12859D01*
X37754Y-12951D01*
X37754Y-13063D01*
X37817Y-13126D01*
X38229Y-13126D01*
X38229Y-13226D01*
X37817Y-13226D01*
X37754Y-13288D01*
X37754Y-13400D01*
X37792Y-13492D01*
X37850Y-13551D01*
X37792Y-13609D01*
X37754Y-13701D01*
X37754Y-13800D01*
X37754Y-14150D01*
X37792Y-14242D01*
X37805Y-14255D01*
X37773Y-14288D01*
X37734Y-14380D01*
X37734Y-14479D01*
X37734Y-14829D01*
X37772Y-14921D01*
X37831Y-14980D01*
X37773Y-15038D01*
X37734Y-15130D01*
X37734Y-15229D01*
X37734Y-15579D01*
X37772Y-15671D01*
X37843Y-15742D01*
X37934Y-15780D01*
X38019Y-15780D01*
X38019Y-15943D01*
X37980Y-16038D01*
X37980Y-16173D01*
X38019Y-16268D01*
X38019Y-19433D01*
X38042Y-19547D01*
X38107Y-19644D01*
X39481Y-21018D01*
X39578Y-21083D01*
X39578Y-21083D01*
X39692Y-21106D01*
X40125Y-21106D01*
X40145Y-21110D01*
X40236Y-21110D01*
X40858Y-21110D01*
X41377Y-21110D01*
X41471Y-21149D01*
X41558Y-21149D01*
X41558Y-21187D01*
X41620Y-21187D01*
X41558Y-21250D01*
X41558Y-21363D01*
X41558Y-21462D01*
X41596Y-21554D01*
X41666Y-21624D01*
X41758Y-21662D01*
X41870Y-21662D01*
X41933Y-21600D01*
X41933Y-21187D01*
X41925Y-21187D01*
X41925Y-21087D01*
X41933Y-21087D01*
X41933Y-21079D01*
X42033Y-21079D01*
X42033Y-21087D01*
X42041Y-21087D01*
X42041Y-21187D01*
X42033Y-21187D01*
X42033Y-21600D01*
X42095Y-21662D01*
X42207Y-21662D01*
X42299Y-21624D01*
X42358Y-21566D01*
X42416Y-21624D01*
X42508Y-21662D01*
X42607Y-21662D01*
X42957Y-21662D01*
X43049Y-21624D01*
X43120Y-21554D01*
X43158Y-21462D01*
X43158Y-21363D01*
X43158Y-21318D01*
X43162Y-21318D01*
X43212Y-21328D01*
X43261Y-21318D01*
X43279Y-21318D01*
X43296Y-21312D01*
X43345Y-21302D01*
X43387Y-21274D01*
X43404Y-21267D01*
X43416Y-21254D01*
X43458Y-21226D01*
X43486Y-21184D01*
X43499Y-21172D01*
X43506Y-21155D01*
X43534Y-21113D01*
X43544Y-21064D01*
X43551Y-21047D01*
X43551Y-21030D01*
X43561Y-20980D01*
X43551Y-20931D01*
X43551Y-20913D01*
X43547Y-20904D01*
X43620Y-20873D01*
X43716Y-20778D01*
X43767Y-20654D01*
X43767Y-20631D01*
X44438Y-21302D01*
X44438Y-21302D01*
X44535Y-21366D01*
X44535Y-21366D01*
X44649Y-21389D01*
X44649Y-21389D01*
X45663Y-21389D01*
X46121Y-21847D01*
X46157Y-21935D01*
X46252Y-22030D01*
X46364Y-22077D01*
X46364Y-22129D01*
X46402Y-22220D01*
X46461Y-22279D01*
X46402Y-22338D01*
X46364Y-22430D01*
X46364Y-22542D01*
X46427Y-22604D01*
X46839Y-22604D01*
X46839Y-22596D01*
X46939Y-22596D01*
X46939Y-22604D01*
X47352Y-22604D01*
X47414Y-22542D01*
X47414Y-22430D01*
X47385Y-22358D01*
X48190Y-23163D01*
X48161Y-23163D01*
X48161Y-23226D01*
X48099Y-23163D01*
X47987Y-23163D01*
X47895Y-23201D01*
X47824Y-23272D01*
X47786Y-23364D01*
X47786Y-23463D01*
X47786Y-23576D01*
X47849Y-23638D01*
X48161Y-23638D01*
X48161Y-23631D01*
X48261Y-23631D01*
X48261Y-23638D01*
X48269Y-23638D01*
X48269Y-23738D01*
X48261Y-23738D01*
X48261Y-24151D01*
X48324Y-24213D01*
X48436Y-24214D01*
X48528Y-24176D01*
X48586Y-24117D01*
X48644Y-24175D01*
X48736Y-24213D01*
X48836Y-24214D01*
X49186Y-24214D01*
X49278Y-24176D01*
X49348Y-24105D01*
X49376Y-24037D01*
X49515Y-24037D01*
X49535Y-24041D01*
X49584Y-24031D01*
X49602Y-24031D01*
X49619Y-24024D01*
X49668Y-24014D01*
X49710Y-23986D01*
X49726Y-23980D01*
X49739Y-23967D01*
X49781Y-23939D01*
X49809Y-23897D01*
X49822Y-23884D01*
X49829Y-23868D01*
X49857Y-23826D01*
X49867Y-23776D01*
X49873Y-23760D01*
X49873Y-23742D01*
X49883Y-23692D01*
X49874Y-23643D01*
X49874Y-23625D01*
X49867Y-23609D01*
X49857Y-23559D01*
X49829Y-23517D01*
X49822Y-23501D01*
X49809Y-23488D01*
X49781Y-23446D01*
X49777Y-23442D01*
X49736Y-23414D01*
X49736Y-23414D01*
X49727Y-23406D01*
X49716Y-23401D01*
X49716Y-23401D01*
X49672Y-23372D01*
X51363Y-23372D01*
X52761Y-24769D01*
X52761Y-24769D01*
X52874Y-24845D01*
X52902Y-24851D01*
X52902Y-24879D01*
X52902Y-25479D01*
X52940Y-25571D01*
X53010Y-25641D01*
X53102Y-25679D01*
X53202Y-25679D01*
X53802Y-25679D01*
X53894Y-25641D01*
X53964Y-25571D01*
X54002Y-25479D01*
X54002Y-25380D01*
X54002Y-24871D01*
X55376Y-24871D01*
X55376Y-25321D01*
X55414Y-25412D01*
X55484Y-25483D01*
X55553Y-25511D01*
X55553Y-25602D01*
X55553Y-25602D01*
X55575Y-25713D01*
X55579Y-25735D01*
X55655Y-25848D01*
X56345Y-26538D01*
X56345Y-26538D01*
X56458Y-26614D01*
X56591Y-26640D01*
X56591Y-26640D01*
X56591Y-26640D01*
X57013Y-26640D01*
X57051Y-26679D01*
X57143Y-26717D01*
X57243Y-26717D01*
X57400Y-26717D01*
X57581Y-26897D01*
X57581Y-26897D01*
X57694Y-26973D01*
X57827Y-27000D01*
X57827Y-26999D01*
X57827Y-27000D01*
X58057Y-27000D01*
X58104Y-27019D01*
X58203Y-27019D01*
X59069Y-27019D01*
X59161Y-26981D01*
X59232Y-26911D01*
X59270Y-26819D01*
X59270Y-26720D01*
X59270Y-26484D01*
X59236Y-26401D01*
X59270Y-26319D01*
X59270Y-26220D01*
X59270Y-26000D01*
X59281Y-26000D01*
X59281Y-26000D01*
X59281Y-26000D01*
X59392Y-25977D01*
X59414Y-25973D01*
X59414Y-25973D01*
X59527Y-25897D01*
X59840Y-25584D01*
X59840Y-25584D01*
X59840Y-25584D01*
X59916Y-25471D01*
X59942Y-25338D01*
X59942Y-25338D01*
X59942Y-25338D01*
X59942Y-24654D01*
X60105Y-24654D01*
X60197Y-24616D01*
X60255Y-24558D01*
X60314Y-24616D01*
X60406Y-24654D01*
X60518Y-24654D01*
X60580Y-24592D01*
X60580Y-24843D01*
X60520Y-24783D01*
X60249Y-24783D01*
X60150Y-24783D01*
X60058Y-24821D01*
X59988Y-24892D01*
X59950Y-24984D01*
X59950Y-25039D01*
X60012Y-25101D01*
X60583Y-25101D01*
X60583Y-25201D01*
X60012Y-25201D01*
X59950Y-25264D01*
X59950Y-25319D01*
X59984Y-25401D01*
X59950Y-25484D01*
X59950Y-25539D01*
X60012Y-25601D01*
X60583Y-25601D01*
X60583Y-25701D01*
X60012Y-25701D01*
X59950Y-25764D01*
X59950Y-25819D01*
X59984Y-25901D01*
X59950Y-25983D01*
X59950Y-26083D01*
X59950Y-26319D01*
X59984Y-26401D01*
X59950Y-26483D01*
X59950Y-26583D01*
X59950Y-26819D01*
X59988Y-26911D01*
X60058Y-26981D01*
X60150Y-27019D01*
X60249Y-27019D01*
X61115Y-27019D01*
X61163Y-27000D01*
X61283Y-27000D01*
X61307Y-27058D01*
X61378Y-27129D01*
X61469Y-27167D01*
X61569Y-27167D01*
X61680Y-27167D01*
X61680Y-31519D01*
X61159Y-31519D01*
X61112Y-31500D01*
X61012Y-31500D01*
X60146Y-31500D01*
X60054Y-31538D01*
X60000Y-31592D01*
X60000Y-29921D01*
X59948Y-29796D01*
X59853Y-29701D01*
X59729Y-29649D01*
X59594Y-29649D01*
X59469Y-29700D01*
X59374Y-29796D01*
X59322Y-29920D01*
X59322Y-30055D01*
X59360Y-30145D01*
X59005Y-30500D01*
X58082Y-30500D01*
X57968Y-30522D01*
X57935Y-30544D01*
X57871Y-30587D01*
X56720Y-31738D01*
X56454Y-31738D01*
X56454Y-31289D01*
X56454Y-30522D01*
X56454Y-28927D01*
X56416Y-28835D01*
X56346Y-28764D01*
X56254Y-28726D01*
X56155Y-28726D01*
X56041Y-28726D01*
X55979Y-28789D01*
X55979Y-29674D01*
X56392Y-29674D01*
X56454Y-29612D01*
X56454Y-28927D01*
X56454Y-30522D01*
X56454Y-29837D01*
X56392Y-29774D01*
X55979Y-29774D01*
X55979Y-30660D01*
X56041Y-30722D01*
X56155Y-30722D01*
X56254Y-30722D01*
X56346Y-30684D01*
X56416Y-30613D01*
X56454Y-30522D01*
X56454Y-31289D01*
X56416Y-31197D01*
X56346Y-31126D01*
X56254Y-31088D01*
X56155Y-31088D01*
X55879Y-31088D01*
X55879Y-30660D01*
X55879Y-29774D01*
X55879Y-29674D01*
X55879Y-28789D01*
X55816Y-28726D01*
X55703Y-28726D01*
X55603Y-28726D01*
X55511Y-28764D01*
X55441Y-28835D01*
X55403Y-28927D01*
X55403Y-29612D01*
X55466Y-29674D01*
X55879Y-29674D01*
X55879Y-29774D01*
X55466Y-29774D01*
X55403Y-29837D01*
X55403Y-30522D01*
X55441Y-30613D01*
X55511Y-30684D01*
X55603Y-30722D01*
X55703Y-30722D01*
X55816Y-30722D01*
X55879Y-30660D01*
X55879Y-31088D01*
X55604Y-31088D01*
X55512Y-31126D01*
X55441Y-31196D01*
X55403Y-31288D01*
X55403Y-31388D01*
X55403Y-31738D01*
X53983Y-31738D01*
X53983Y-27758D01*
X53983Y-27158D01*
X53945Y-27066D01*
X53880Y-27001D01*
X53944Y-26937D01*
X53983Y-26846D01*
X53983Y-26746D01*
X53983Y-26146D01*
X53945Y-26054D01*
X53874Y-25984D01*
X53783Y-25946D01*
X53683Y-25946D01*
X53083Y-25946D01*
X52991Y-25983D01*
X52921Y-26054D01*
X52883Y-26146D01*
X52883Y-26245D01*
X52883Y-26845D01*
X52921Y-26937D01*
X52985Y-27002D01*
X52921Y-27066D01*
X52883Y-27157D01*
X52883Y-27225D01*
X51802Y-27225D01*
X51790Y-27213D01*
X51666Y-27161D01*
X51531Y-27161D01*
X51406Y-27212D01*
X51311Y-27307D01*
X51259Y-27432D01*
X51259Y-27567D01*
X51311Y-27691D01*
X51406Y-27786D01*
X51530Y-27838D01*
X51665Y-27838D01*
X51789Y-27787D01*
X51802Y-27774D01*
X52883Y-27774D01*
X52883Y-27857D01*
X52921Y-27949D01*
X52991Y-28019D01*
X53083Y-28057D01*
X53182Y-28057D01*
X53782Y-28057D01*
X53874Y-28019D01*
X53944Y-27949D01*
X53983Y-27857D01*
X53983Y-27758D01*
X53983Y-31738D01*
X52030Y-31738D01*
X50437Y-30145D01*
X50492Y-30122D01*
X50562Y-30052D01*
X50601Y-29960D01*
X50601Y-29860D01*
X50601Y-29260D01*
X50563Y-29168D01*
X50492Y-29098D01*
X50401Y-29060D01*
X50301Y-29060D01*
X49701Y-29060D01*
X49609Y-29098D01*
X49539Y-29168D01*
X49501Y-29260D01*
X49501Y-29359D01*
X49501Y-29959D01*
X49539Y-30051D01*
X49609Y-30122D01*
X49701Y-30160D01*
X49702Y-30160D01*
X49702Y-30251D01*
X49702Y-30251D01*
X49724Y-30363D01*
X49729Y-30385D01*
X49804Y-30498D01*
X51639Y-32332D01*
X51639Y-32332D01*
X51752Y-32408D01*
X51885Y-32434D01*
X55403Y-32434D01*
X55403Y-32884D01*
X55441Y-32975D01*
X55511Y-33046D01*
X55603Y-33084D01*
X55703Y-33084D01*
X56254Y-33084D01*
X56346Y-33046D01*
X56416Y-32976D01*
X56454Y-32884D01*
X56454Y-32785D01*
X56454Y-32434D01*
X56737Y-32434D01*
X57588Y-33285D01*
X57588Y-33285D01*
X57917Y-33614D01*
X57917Y-33614D01*
X57941Y-33630D01*
X57941Y-33630D01*
X58008Y-33697D01*
X58100Y-33736D01*
X58199Y-33736D01*
X59065Y-33736D01*
X59157Y-33698D01*
X59228Y-33627D01*
X59266Y-33536D01*
X59266Y-33436D01*
X59266Y-33200D01*
X59232Y-33118D01*
X59266Y-33036D01*
X59266Y-32936D01*
X59266Y-32700D01*
X59232Y-32618D01*
X59266Y-32536D01*
X59266Y-32436D01*
X59266Y-32200D01*
X59232Y-32118D01*
X59266Y-32035D01*
X59266Y-31700D01*
X59228Y-31608D01*
X59158Y-31538D01*
X59066Y-31500D01*
X58966Y-31500D01*
X58695Y-31500D01*
X58633Y-31562D01*
X58633Y-31818D01*
X59203Y-31818D01*
X59266Y-31755D01*
X59266Y-31700D01*
X59266Y-32035D01*
X59266Y-31980D01*
X59203Y-31918D01*
X58633Y-31918D01*
X58633Y-31925D01*
X58533Y-31925D01*
X58533Y-31918D01*
X58533Y-31818D01*
X58533Y-31562D01*
X58470Y-31500D01*
X58199Y-31500D01*
X58100Y-31500D01*
X58008Y-31538D01*
X57938Y-31608D01*
X57900Y-31700D01*
X57900Y-31755D01*
X57962Y-31818D01*
X58533Y-31818D01*
X58533Y-31918D01*
X57962Y-31918D01*
X57900Y-31980D01*
X57900Y-32035D01*
X57934Y-32118D01*
X57900Y-32200D01*
X57900Y-32299D01*
X57900Y-32535D01*
X57934Y-32618D01*
X57926Y-32638D01*
X57296Y-32008D01*
X58206Y-31098D01*
X59129Y-31098D01*
X59244Y-31075D01*
X59341Y-31010D01*
X59872Y-30479D01*
X59937Y-30382D01*
X59937Y-30382D01*
X59960Y-30267D01*
X59960Y-30150D01*
X59999Y-30055D01*
X60000Y-29921D01*
X60000Y-31592D01*
X59984Y-31608D01*
X59946Y-31700D01*
X59946Y-31799D01*
X59946Y-32035D01*
X59980Y-32118D01*
X59946Y-32200D01*
X59946Y-32299D01*
X59946Y-32535D01*
X59980Y-32618D01*
X59946Y-32700D01*
X59946Y-32799D01*
X59946Y-33035D01*
X59980Y-33118D01*
X59946Y-33200D01*
X59946Y-33299D01*
X59946Y-33535D01*
X59984Y-33627D01*
X60054Y-33697D01*
X60146Y-33736D01*
X60245Y-33736D01*
X61111Y-33736D01*
X61159Y-33716D01*
X61301Y-33716D01*
X61324Y-33771D01*
X61394Y-33841D01*
X61486Y-33879D01*
X61585Y-33879D01*
X61680Y-33879D01*
X61680Y-35325D01*
X58314Y-38690D01*
X57305Y-38690D01*
X57241Y-38625D01*
X57149Y-38587D01*
X57049Y-38587D01*
X56449Y-38587D01*
X56357Y-38625D01*
X56287Y-38695D01*
X56249Y-38787D01*
X56249Y-38887D01*
X56249Y-39487D01*
X56287Y-39579D01*
X56357Y-39649D01*
X56449Y-39687D01*
X56548Y-39687D01*
X57148Y-39687D01*
X57240Y-39649D01*
X57305Y-39584D01*
X58500Y-39584D01*
X58671Y-39550D01*
X58671Y-39550D01*
X58815Y-39453D01*
X62442Y-35826D01*
X62442Y-35826D01*
X62539Y-35681D01*
X62573Y-35510D01*
X62573Y-35510D01*
X62573Y-33879D01*
X62766Y-33879D01*
X62858Y-33841D01*
X62929Y-33771D01*
X62967Y-33679D01*
X62967Y-33580D01*
X62967Y-33029D01*
X62929Y-32937D01*
X62859Y-32867D01*
X62767Y-32828D01*
X62667Y-32828D01*
X62573Y-32828D01*
X62573Y-32166D01*
X62573Y-27167D01*
X63065Y-27167D01*
X63157Y-27129D01*
X63227Y-27059D01*
X63265Y-26967D01*
X63265Y-26867D01*
X63265Y-32883D01*
X63212Y-32937D01*
X63174Y-33028D01*
X63174Y-33128D01*
X63174Y-33241D01*
X63236Y-33304D01*
X63964Y-33304D01*
X63964Y-33404D01*
X63236Y-33404D01*
X63174Y-33466D01*
X63174Y-33580D01*
X63174Y-33679D01*
X63212Y-33771D01*
X63282Y-33841D01*
X63374Y-33879D01*
X63902Y-33879D01*
X63964Y-33817D01*
X63964Y-40827D01*
X63782Y-41010D01*
X63624Y-41391D01*
X63623Y-41803D01*
X63781Y-42185D01*
X64073Y-42477D01*
X64454Y-42635D01*
X64866Y-42636D01*
X65248Y-42478D01*
X65540Y-42186D01*
X65698Y-41805D01*
X65698Y-41392D01*
X65698Y-42702D01*
X57361Y-42702D01*
X57361Y-40947D01*
X57361Y-40248D01*
X57323Y-40156D01*
X57252Y-40086D01*
X57160Y-40048D01*
X57061Y-40048D01*
X56923Y-40048D01*
X56861Y-40110D01*
X56861Y-40548D01*
X57298Y-40548D01*
X57361Y-40485D01*
X57361Y-40248D01*
X57361Y-40947D01*
X57361Y-40710D01*
X57298Y-40648D01*
X56861Y-40648D01*
X56861Y-41085D01*
X56923Y-41148D01*
X57061Y-41148D01*
X57160Y-41148D01*
X57252Y-41110D01*
X57323Y-41039D01*
X57361Y-40947D01*
X57361Y-42702D01*
X56761Y-42702D01*
X56761Y-41085D01*
X56761Y-40648D01*
X56761Y-40548D01*
X56761Y-40110D01*
X56698Y-40048D01*
X56560Y-40048D01*
X56461Y-40048D01*
X56369Y-40086D01*
X56298Y-40156D01*
X56260Y-40248D01*
X56261Y-40485D01*
X56323Y-40548D01*
X56761Y-40548D01*
X56761Y-40648D01*
X56323Y-40648D01*
X56261Y-40710D01*
X56260Y-40947D01*
X56298Y-41039D01*
X56369Y-41110D01*
X56461Y-41148D01*
X56560Y-41148D01*
X56698Y-41148D01*
X56761Y-41085D01*
X56761Y-42702D01*
X48161Y-42702D01*
X48161Y-24151D01*
X48161Y-23738D01*
X47849Y-23738D01*
X47786Y-23801D01*
X47786Y-23914D01*
X47786Y-24013D01*
X47824Y-24105D01*
X47895Y-24176D01*
X47987Y-24214D01*
X48099Y-24213D01*
X48161Y-24151D01*
X48161Y-42702D01*
X47527Y-42702D01*
X47527Y-33381D01*
X47476Y-33257D01*
X47414Y-33195D01*
X47414Y-22879D01*
X47414Y-22767D01*
X47352Y-22704D01*
X46939Y-22704D01*
X46939Y-23017D01*
X47002Y-23079D01*
X47115Y-23079D01*
X47214Y-23079D01*
X47306Y-23041D01*
X47376Y-22970D01*
X47414Y-22879D01*
X47414Y-33195D01*
X47381Y-33161D01*
X47256Y-33110D01*
X47121Y-33110D01*
X46997Y-33161D01*
X46902Y-33256D01*
X46896Y-33269D01*
X46893Y-33261D01*
X46839Y-33207D01*
X46839Y-23017D01*
X46839Y-22704D01*
X46427Y-22704D01*
X46364Y-22767D01*
X46364Y-22879D01*
X46402Y-22970D01*
X46472Y-23041D01*
X46564Y-23079D01*
X46664Y-23079D01*
X46777Y-23079D01*
X46839Y-23017D01*
X46839Y-33207D01*
X46798Y-33165D01*
X46673Y-33114D01*
X46539Y-33114D01*
X46513Y-33124D01*
X46513Y-25926D01*
X46513Y-25477D01*
X46475Y-25385D01*
X46416Y-25326D01*
X46475Y-25268D01*
X46513Y-25176D01*
X46513Y-25077D01*
X46513Y-24727D01*
X46475Y-24635D01*
X46404Y-24564D01*
X46318Y-24529D01*
X46310Y-24484D01*
X46234Y-24371D01*
X46234Y-24371D01*
X46100Y-24237D01*
X46100Y-24237D01*
X45801Y-23938D01*
X45688Y-23863D01*
X45666Y-23858D01*
X45555Y-23836D01*
X45555Y-23836D01*
X44447Y-23836D01*
X43809Y-23198D01*
X43767Y-23170D01*
X43767Y-23170D01*
X43755Y-23158D01*
X43738Y-23151D01*
X43738Y-23151D01*
X43696Y-23122D01*
X43674Y-23118D01*
X43647Y-23113D01*
X43647Y-23113D01*
X43630Y-23106D01*
X43612Y-23106D01*
X43562Y-23096D01*
X43562Y-23096D01*
X43385Y-23096D01*
X43252Y-23122D01*
X43139Y-23198D01*
X43139Y-23198D01*
X42797Y-23540D01*
X42746Y-23518D01*
X42646Y-23518D01*
X42096Y-23518D01*
X42004Y-23556D01*
X41934Y-23627D01*
X41933Y-23629D01*
X41896Y-23718D01*
X41896Y-23818D01*
X41896Y-24168D01*
X41934Y-24260D01*
X41992Y-24318D01*
X41934Y-24377D01*
X41896Y-24469D01*
X41896Y-24581D01*
X41958Y-24643D01*
X42371Y-24643D01*
X42371Y-24636D01*
X42471Y-24636D01*
X42471Y-24643D01*
X42883Y-24643D01*
X42946Y-24581D01*
X42946Y-24469D01*
X42908Y-24377D01*
X42849Y-24318D01*
X42876Y-24292D01*
X42886Y-24292D01*
X42886Y-24292D01*
X42886Y-24292D01*
X42998Y-24270D01*
X43020Y-24265D01*
X43020Y-24265D01*
X43133Y-24190D01*
X43474Y-23849D01*
X44056Y-24431D01*
X44056Y-24431D01*
X44169Y-24506D01*
X44303Y-24533D01*
X45410Y-24533D01*
X45506Y-24629D01*
X45501Y-24634D01*
X45463Y-24726D01*
X45463Y-24826D01*
X45463Y-25176D01*
X45501Y-25268D01*
X45559Y-25326D01*
X45501Y-25385D01*
X45463Y-25477D01*
X45463Y-25589D01*
X45525Y-25651D01*
X45938Y-25651D01*
X45938Y-25643D01*
X46038Y-25643D01*
X46038Y-25651D01*
X46450Y-25651D01*
X46513Y-25589D01*
X46513Y-25477D01*
X46513Y-25926D01*
X46513Y-25814D01*
X46450Y-25751D01*
X46038Y-25751D01*
X46038Y-26064D01*
X46100Y-26126D01*
X46213Y-26126D01*
X46313Y-26126D01*
X46404Y-26088D01*
X46475Y-26018D01*
X46513Y-25926D01*
X46513Y-33124D01*
X46414Y-33165D01*
X46319Y-33260D01*
X46267Y-33385D01*
X46267Y-33402D01*
X45938Y-33732D01*
X45938Y-26064D01*
X45938Y-25751D01*
X45525Y-25751D01*
X45463Y-25814D01*
X45463Y-25926D01*
X45501Y-26018D01*
X45571Y-26088D01*
X45663Y-26126D01*
X45762Y-26126D01*
X45875Y-26126D01*
X45938Y-26064D01*
X45938Y-33732D01*
X44937Y-34733D01*
X37868Y-34733D01*
X37868Y-34648D01*
X44318Y-34648D01*
X44423Y-34627D01*
X44423Y-34627D01*
X44513Y-34568D01*
X45289Y-33791D01*
X45307Y-33791D01*
X45431Y-33739D01*
X45527Y-33644D01*
X45578Y-33520D01*
X45578Y-33385D01*
X45527Y-33261D01*
X45432Y-33165D01*
X45307Y-33114D01*
X45173Y-33114D01*
X45048Y-33165D01*
X44953Y-33260D01*
X44901Y-33385D01*
X44901Y-33402D01*
X44205Y-34099D01*
X37868Y-34099D01*
X37868Y-34026D01*
X42370Y-34026D01*
X42475Y-34005D01*
X42475Y-34005D01*
X42564Y-33946D01*
X42719Y-33791D01*
X42736Y-33791D01*
X42860Y-33739D01*
X42956Y-33644D01*
X43007Y-33520D01*
X43007Y-33385D01*
X42956Y-33261D01*
X42902Y-33206D01*
X42956Y-33152D01*
X43007Y-33028D01*
X43007Y-32893D01*
X42956Y-32769D01*
X42861Y-32673D01*
X42736Y-32622D01*
X42602Y-32621D01*
X42477Y-32673D01*
X42382Y-32768D01*
X42351Y-32843D01*
X37868Y-32843D01*
X37868Y-32714D01*
X37800Y-32550D01*
X37738Y-32488D01*
X37799Y-32426D01*
X37868Y-32262D01*
X37868Y-32084D01*
X37800Y-31920D01*
X37738Y-31858D01*
X37799Y-31796D01*
X37868Y-31632D01*
X37868Y-31454D01*
X37800Y-31290D01*
X37738Y-31228D01*
X37799Y-31166D01*
X37868Y-31002D01*
X37868Y-30873D01*
X40909Y-30873D01*
X41014Y-30852D01*
X41014Y-30852D01*
X41103Y-30792D01*
X44093Y-27803D01*
X44110Y-27803D01*
X44234Y-27751D01*
X44330Y-27656D01*
X44381Y-27532D01*
X44381Y-27397D01*
X44330Y-27273D01*
X44235Y-27177D01*
X44110Y-27126D01*
X43976Y-27125D01*
X43851Y-27177D01*
X43850Y-27178D01*
X43845Y-27173D01*
X43721Y-27122D01*
X43586Y-27121D01*
X43462Y-27173D01*
X43435Y-27200D01*
X43412Y-27177D01*
X43371Y-27160D01*
X43371Y-26126D01*
X43371Y-25776D01*
X43333Y-25684D01*
X43275Y-25625D01*
X43333Y-25567D01*
X43371Y-25475D01*
X43371Y-25026D01*
X43333Y-24934D01*
X43263Y-24864D01*
X43171Y-24826D01*
X43071Y-24825D01*
X42958Y-24825D01*
X42946Y-24838D01*
X42946Y-24806D01*
X42883Y-24743D01*
X42471Y-24743D01*
X42471Y-24751D01*
X42371Y-24751D01*
X42371Y-24743D01*
X41958Y-24743D01*
X41896Y-24806D01*
X41896Y-24918D01*
X41934Y-25010D01*
X42004Y-25080D01*
X42096Y-25118D01*
X42195Y-25118D01*
X42308Y-25118D01*
X42321Y-25106D01*
X42321Y-25138D01*
X42383Y-25200D01*
X42796Y-25200D01*
X42796Y-25193D01*
X42896Y-25193D01*
X42896Y-25200D01*
X43308Y-25200D01*
X43371Y-25138D01*
X43371Y-25026D01*
X43371Y-25475D01*
X43371Y-25363D01*
X43308Y-25300D01*
X42896Y-25300D01*
X42896Y-25308D01*
X42796Y-25308D01*
X42796Y-25300D01*
X42383Y-25300D01*
X42321Y-25363D01*
X42321Y-25475D01*
X42359Y-25567D01*
X42417Y-25626D01*
X42359Y-25684D01*
X42321Y-25776D01*
X42321Y-25875D01*
X42321Y-26225D01*
X42359Y-26317D01*
X42429Y-26387D01*
X42498Y-26416D01*
X42498Y-26438D01*
X42426Y-26509D01*
X42398Y-26551D01*
X42386Y-26563D01*
X42379Y-26580D01*
X42351Y-26622D01*
X42341Y-26671D01*
X42334Y-26688D01*
X42334Y-26706D01*
X42324Y-26755D01*
X42334Y-26805D01*
X42334Y-26822D01*
X42341Y-26839D01*
X42351Y-26889D01*
X42379Y-26931D01*
X42386Y-26947D01*
X42398Y-26960D01*
X42426Y-27002D01*
X42468Y-27030D01*
X42481Y-27042D01*
X42497Y-27049D01*
X42539Y-27077D01*
X42589Y-27087D01*
X42605Y-27094D01*
X42623Y-27094D01*
X42673Y-27104D01*
X42722Y-27094D01*
X42740Y-27094D01*
X42756Y-27087D01*
X42806Y-27077D01*
X42848Y-27049D01*
X42864Y-27043D01*
X42877Y-27030D01*
X42919Y-27002D01*
X43092Y-26829D01*
X43092Y-26829D01*
X43092Y-26829D01*
X43168Y-26716D01*
X43194Y-26582D01*
X43194Y-26582D01*
X43194Y-26582D01*
X43194Y-26416D01*
X43262Y-26388D01*
X43333Y-26317D01*
X43371Y-26225D01*
X43371Y-26126D01*
X43371Y-27160D01*
X43288Y-27126D01*
X43153Y-27125D01*
X43036Y-27174D01*
X42929Y-27129D01*
X42795Y-27129D01*
X42670Y-27181D01*
X42649Y-27202D01*
X42625Y-27177D01*
X42500Y-27126D01*
X42366Y-27125D01*
X42317Y-27145D01*
X42317Y-25673D01*
X42297Y-25568D01*
X42237Y-25479D01*
X42237Y-25479D01*
X41984Y-25225D01*
X41984Y-25208D01*
X41932Y-25084D01*
X41837Y-24988D01*
X41713Y-24937D01*
X41578Y-24936D01*
X41454Y-24988D01*
X41358Y-25083D01*
X41307Y-25207D01*
X41307Y-25342D01*
X41358Y-25467D01*
X41453Y-25562D01*
X41578Y-25614D01*
X41595Y-25614D01*
X41768Y-25786D01*
X41768Y-27260D01*
X41756Y-27272D01*
X41704Y-27396D01*
X41704Y-27531D01*
X41756Y-27656D01*
X41804Y-27704D01*
X41709Y-27800D01*
X37873Y-27800D01*
X37868Y-27800D01*
X37868Y-27675D01*
X37800Y-27510D01*
X37738Y-27448D01*
X37799Y-27387D01*
X37868Y-27223D01*
X37868Y-27045D01*
X37800Y-26881D01*
X37743Y-26824D01*
X37778Y-26790D01*
X37732Y-26744D01*
X37817Y-26729D01*
X37873Y-26561D01*
X37860Y-26383D01*
X37817Y-26278D01*
X37732Y-26263D01*
X37491Y-26503D01*
X37497Y-26509D01*
X37426Y-26580D01*
X37421Y-26574D01*
X37415Y-26580D01*
X37344Y-26509D01*
X37350Y-26503D01*
X37344Y-26498D01*
X37415Y-26427D01*
X37421Y-26433D01*
X37661Y-26192D01*
X37646Y-26108D01*
X37478Y-26051D01*
X37397Y-26057D01*
X37347Y-25936D01*
X37226Y-25814D01*
X37226Y-8585D01*
X37068Y-8204D01*
X36777Y-7912D01*
X36396Y-7754D01*
X35983Y-7753D01*
X35602Y-7911D01*
X35310Y-8202D01*
X35151Y-8584D01*
X35151Y-8996D01*
X35308Y-9378D01*
X35600Y-9670D01*
X35981Y-9828D01*
X36394Y-9828D01*
X36775Y-9671D01*
X37067Y-9379D01*
X37226Y-8998D01*
X37226Y-8585D01*
X37226Y-25814D01*
X37221Y-25810D01*
X37057Y-25742D01*
X37041Y-25742D01*
X37041Y-24990D01*
X36958Y-24789D01*
X36805Y-24636D01*
X36605Y-24553D01*
X36388Y-24553D01*
X36187Y-24635D01*
X36034Y-24789D01*
X35950Y-24989D01*
X35950Y-25206D01*
X36033Y-25406D01*
X36186Y-25560D01*
X36387Y-25643D01*
X36604Y-25643D01*
X36804Y-25560D01*
X36958Y-25407D01*
X37041Y-25207D01*
X37041Y-24990D01*
X37041Y-25742D01*
X36880Y-25742D01*
X36715Y-25809D01*
X36589Y-25935D01*
X36521Y-26099D01*
X36521Y-26211D01*
X36472Y-26215D01*
X36422Y-26093D01*
X36296Y-25967D01*
X36132Y-25899D01*
X35954Y-25899D01*
X35790Y-25967D01*
X35664Y-26093D01*
X35596Y-26257D01*
X35596Y-26434D01*
X35664Y-26599D01*
X35726Y-26661D01*
X35664Y-26722D01*
X35596Y-26887D01*
X35596Y-27064D01*
X35664Y-27229D01*
X35720Y-27285D01*
X35686Y-27320D01*
X35732Y-27365D01*
X35647Y-27380D01*
X35591Y-27549D01*
X35603Y-27726D01*
X35647Y-27832D01*
X35732Y-27846D01*
X35686Y-27892D01*
X35720Y-27926D01*
X35664Y-27982D01*
X35596Y-28146D01*
X35596Y-28324D01*
X35664Y-28489D01*
X35726Y-28551D01*
X35664Y-28612D01*
X35596Y-28776D01*
X35596Y-28954D01*
X35664Y-29118D01*
X35720Y-29175D01*
X35686Y-29209D01*
X35732Y-29255D01*
X35647Y-29270D01*
X35591Y-29438D01*
X35603Y-29616D01*
X35647Y-29721D01*
X35732Y-29736D01*
X35686Y-29782D01*
X35720Y-29816D01*
X35664Y-29872D01*
X35596Y-30036D01*
X35596Y-30214D01*
X35664Y-30378D01*
X35726Y-30440D01*
X35664Y-30502D01*
X35596Y-30666D01*
X35596Y-30844D01*
X35664Y-31008D01*
X35726Y-31070D01*
X35664Y-31132D01*
X35596Y-31296D01*
X35596Y-31474D01*
X35664Y-31638D01*
X35726Y-31700D01*
X35664Y-31762D01*
X35596Y-31926D01*
X35596Y-32104D01*
X35664Y-32268D01*
X35720Y-32325D01*
X35686Y-32359D01*
X35732Y-32405D01*
X35647Y-32419D01*
X35591Y-32588D01*
X35603Y-32765D01*
X35647Y-32871D01*
X35732Y-32886D01*
X35686Y-32931D01*
X35720Y-32966D01*
X35664Y-33022D01*
X35596Y-33186D01*
X35596Y-33364D01*
X35664Y-33528D01*
X35726Y-33590D01*
X35664Y-33652D01*
X35596Y-33816D01*
X35596Y-33994D01*
X35664Y-34158D01*
X35720Y-34214D01*
X35686Y-34249D01*
X35732Y-34295D01*
X35647Y-34309D01*
X35591Y-34478D01*
X35603Y-34655D01*
X35647Y-34761D01*
X35732Y-34775D01*
X35686Y-34821D01*
X35720Y-34855D01*
X35664Y-34911D01*
X35596Y-35076D01*
X35596Y-35253D01*
X35664Y-35418D01*
X35726Y-35480D01*
X35664Y-35541D01*
X35596Y-35706D01*
X35596Y-35883D01*
X35664Y-36048D01*
X35720Y-36104D01*
X35686Y-36139D01*
X35732Y-36184D01*
X35647Y-36199D01*
X35591Y-36368D01*
X35603Y-36545D01*
X35647Y-36650D01*
X35732Y-36665D01*
X35972Y-36425D01*
X35967Y-36419D01*
X36003Y-36383D01*
X36044Y-36424D01*
X36041Y-36427D01*
X35972Y-36497D01*
X35817Y-36652D01*
X35758Y-36741D01*
X35737Y-36846D01*
X35737Y-37130D01*
X35656Y-37211D01*
X35596Y-37300D01*
X35592Y-37322D01*
X35563Y-37351D01*
X35511Y-37475D01*
X35511Y-37610D01*
X35563Y-37734D01*
X35658Y-37830D01*
X35782Y-37881D01*
X35917Y-37881D01*
X35950Y-37868D01*
X35950Y-37942D01*
X36033Y-38143D01*
X36186Y-38296D01*
X36387Y-38379D01*
X36604Y-38380D01*
X36804Y-38297D01*
X36958Y-38143D01*
X37041Y-37943D01*
X37041Y-37726D01*
X36958Y-37526D01*
X36805Y-37372D01*
X36605Y-37289D01*
X36388Y-37289D01*
X36267Y-37339D01*
X36286Y-37244D01*
X36286Y-37224D01*
X36286Y-37136D01*
X36406Y-37186D01*
X36584Y-37187D01*
X36748Y-37119D01*
X36874Y-36993D01*
X36942Y-36829D01*
X36942Y-36717D01*
X36992Y-36714D01*
X37042Y-36835D01*
X37167Y-36961D01*
X37331Y-37029D01*
X37509Y-37029D01*
X37674Y-36961D01*
X37799Y-36836D01*
X37868Y-36671D01*
X37868Y-36494D01*
X37800Y-36329D01*
X37738Y-36267D01*
X37799Y-36206D01*
X37868Y-36042D01*
X37868Y-35908D01*
X42649Y-35908D01*
X42754Y-35887D01*
X42754Y-35887D01*
X42843Y-35828D01*
X43097Y-35573D01*
X45338Y-35573D01*
X45443Y-35552D01*
X45443Y-35552D01*
X45532Y-35493D01*
X47238Y-33787D01*
X47256Y-33787D01*
X47380Y-33736D01*
X47475Y-33640D01*
X47527Y-33516D01*
X47527Y-33381D01*
X47527Y-42702D01*
X40295Y-42702D01*
X40055Y-42702D01*
X40065Y-42692D01*
X40021Y-42647D01*
X40157Y-42572D01*
X40295Y-42225D01*
X40290Y-41852D01*
X40157Y-41529D01*
X40021Y-41454D01*
X39950Y-41525D01*
X39950Y-41384D01*
X39924Y-41335D01*
X39924Y-39384D01*
X39924Y-38784D01*
X39886Y-38692D01*
X39815Y-38622D01*
X39723Y-38583D01*
X39624Y-38583D01*
X39024Y-38583D01*
X38932Y-38621D01*
X38862Y-38692D01*
X38824Y-38783D01*
X38823Y-38883D01*
X38823Y-39483D01*
X38861Y-39575D01*
X38932Y-39645D01*
X39024Y-39683D01*
X39123Y-39683D01*
X39723Y-39683D01*
X39815Y-39645D01*
X39885Y-39575D01*
X39923Y-39483D01*
X39924Y-39384D01*
X39924Y-41335D01*
X39875Y-41248D01*
X39730Y-41190D01*
X39799Y-41161D01*
X39870Y-41091D01*
X39908Y-40999D01*
X39908Y-40900D01*
X39908Y-40399D01*
X39908Y-40299D01*
X39870Y-40207D01*
X39799Y-40137D01*
X39707Y-40099D01*
X39470Y-40099D01*
X39408Y-40162D01*
X39408Y-40599D01*
X39845Y-40599D01*
X39908Y-40537D01*
X39908Y-40399D01*
X39908Y-40900D01*
X39908Y-40762D01*
X39845Y-40699D01*
X39408Y-40699D01*
X39408Y-40707D01*
X39308Y-40707D01*
X39308Y-40699D01*
X39308Y-40599D01*
X39308Y-40162D01*
X39245Y-40099D01*
X39008Y-40099D01*
X38916Y-40137D01*
X38846Y-40207D01*
X38808Y-40299D01*
X38808Y-40399D01*
X38808Y-40537D01*
X38870Y-40599D01*
X39308Y-40599D01*
X39308Y-40699D01*
X38870Y-40699D01*
X38808Y-40762D01*
X38808Y-40900D01*
X38808Y-40999D01*
X38846Y-41091D01*
X38916Y-41161D01*
X38979Y-41187D01*
X38832Y-41248D01*
X38757Y-41384D01*
X39354Y-41980D01*
X39950Y-41384D01*
X39950Y-41525D01*
X39425Y-42051D01*
X39430Y-42056D01*
X39359Y-42127D01*
X39354Y-42121D01*
X39348Y-42127D01*
X39283Y-42062D01*
X39278Y-42056D01*
X39283Y-42051D01*
X38687Y-41454D01*
X38551Y-41529D01*
X38413Y-41876D01*
X38417Y-42250D01*
X38551Y-42572D01*
X38687Y-42647D01*
X38642Y-42692D01*
X38653Y-42702D01*
X37238Y-42702D01*
X37238Y-41436D01*
X37080Y-41054D01*
X36789Y-40762D01*
X36408Y-40604D01*
X35995Y-40604D01*
X35613Y-40761D01*
X35321Y-41053D01*
X35163Y-41434D01*
X35163Y-41847D01*
X35320Y-42228D01*
X35612Y-42520D01*
X35993Y-42678D01*
X36406Y-42679D01*
X36787Y-42521D01*
X37079Y-42230D01*
X37238Y-41848D01*
X37238Y-41436D01*
X37238Y-42702D01*
X34954Y-42702D01*
X34954Y-40172D01*
X35077Y-40295D01*
X35328Y-40399D01*
X35599Y-40399D01*
X35850Y-40295D01*
X36043Y-40103D01*
X36147Y-39853D01*
X36147Y-39581D01*
X36043Y-39330D01*
X35852Y-39137D01*
X35601Y-39033D01*
X35329Y-39033D01*
X35078Y-39137D01*
X34954Y-39260D01*
X34954Y-23676D01*
X35077Y-23799D01*
X35328Y-23903D01*
X35599Y-23903D01*
X35850Y-23799D01*
X36043Y-23607D01*
X36147Y-23356D01*
X36147Y-23085D01*
X36043Y-22834D01*
X35852Y-22641D01*
X35601Y-22537D01*
X35329Y-22537D01*
X35078Y-22641D01*
X34954Y-22764D01*
X34954Y-7530D01*
X65753Y-7530D01*
X65753Y-42702D01*
M02*
